<svg xmlns="http://www.w3.org/2000/svg" width="1200" height="1200" viewBox="0 0 1200 1200"><path fill="#7284C1" d="M146 314c-.553 0-1-.45-1-1s.447-1 1-1c.553 0 1 .448 1 1 0 .55-.447 1-1 1zm40 0c-.553 0-1-.45-1-1s.447-1 1-1c.553 0 1 .448 1 1 0 .55-.447 1-1 1zm40 1c-1.105 0-2-.896-2-2s.895-2 2-2 2 .896 2 2-.895 2-2 2zm40 0c-1.105 0-2-.896-2-2s.895-2 2-2 2 .896 2 2-.895 2-2 2zm40 0c-1.105 0-2-.896-2-2s.895-2 2-2 2 .896 2 2-.895 2-2 2zm160 0c-1.105 0-2-.896-2-2s.895-2 2-2 2 .896 2 2-.895 2-2 2zm80 0c-1.105 0-2-.896-2-2s.895-2 2-2 2 .896 2 2-.895 2-2 2zm40-1c-.553 0-1-.45-1-1s.447-1 1-1c.553 0 1 .448 1 1 0 .55-.447 1-1 1zm40 1c-1.105 0-2-.896-2-2s.895-2 2-2 2 .896 2 2-.895 2-2 2zm240-1c-.553 0-1-.45-1-1s.447-1 1-1 1 .448 1 1c0 .55-.447 1-1 1zm40 1c-1.105 0-2-.896-2-2s.895-2 2-2 2 .896 2 2-.895 2-2 2zm-720 40c-1.105 0-2-.896-2-2s.895-2 2-2 2 .896 2 2-.895 2-2 2zm80 0c-1.105 0-2-.896-2-2s.895-2 2-2 2 .896 2 2-.895 2-2 2zm40 0c-1.105 0-2-.896-2-2s.895-2 2-2 2 .896 2 2-.895 2-2 2zm40-1c-.553 0-1-.448-1-1s.447-1 1-1c.553 0 1 .45 1 1 0 .552-.447 1-1 1zm40 1c-1.105 0-2-.896-2-2s.895-2 2-2 2 .896 2 2-.895 2-2 2zm40 0c-1.105 0-2-.896-2-2s.895-2 2-2 2 .896 2 2-.895 2-2 2zm40-1c-.553 0-1-.448-1-1s.447-1 1-1c.553 0 1 .45 1 1 0 .552-.447 1-1 1zm40 1c-1.105 0-2-.896-2-2s.895-2 2-2 2 .896 2 2-.895 2-2 2zm40-1c-.553 0-1-.448-1-1s.447-1 1-1 1 .45 1 1c0 .552-.447 1-1 1zm200 0c-.553 0-1-.448-1-1s.447-1 1-1c.553 0 1 .45 1 1 0 .552-.447 1-1 1zm40 1c-1.105 0-2-.896-2-2s.895-2 2-2c1.106 0 2 .896 2 2s-.895 2-2 2zm40-1c-.553 0-1-.448-1-1s.447-1 1-1c.553 0 1 .45 1 1 0 .552-.447 1-1 1zm40 1c-1.105 0-2-.896-2-2s.895-2 2-2 2 .896 2 2-.895 2-2 2zm40 0c-1.105 0-2-.896-2-2s.895-2 2-2 2 .896 2 2-.895 2-2 2zm40 0c-1.105 0-2-.896-2-2s.894-2 2-2c1.105 0 2 .896 2 2s-.895 2-2 2zm40 0c-1.105 0-2-.896-2-2s.895-2 2-2 2 .896 2 2-.895 2-2 2zm-880 40c-1.105 0-2-.896-2-2s.894-2 2-2 2 .896 2 2-.895 2-2 2zm40-1c-.553 0-1-.448-1-1 0-.55.447-1 1-1 .553 0 1 .448 1 1s-.447 1-1 1zm40 1c-1.105 0-2-.896-2-2s.895-2 2-2 2 .896 2 2-.895 2-2 2zm40 0c-1.105 0-2-.896-2-2s.895-2 2-2 2 .896 2 2-.895 2-2 2zm40 0c-1.105 0-2-.896-2-2s.895-2 2-2 2 .896 2 2-.895 2-2 2zm40-1c-.553 0-1-.448-1-1 0-.55.447-1 1-1 .553 0 1 .448 1 1s-.447 1-1 1zm40 1c-1.105 0-2-.896-2-2s.895-2 2-2 2 .896 2 2-.895 2-2 2zm40 0c-1.105 0-2-.896-2-2s.895-2 2-2 2 .896 2 2-.895 2-2 2zm40 0c-1.105 0-2-.896-2-2s.895-2 2-2 2 .896 2 2-.895 2-2 2zm40-1c-.553 0-1-.448-1-1 0-.55.447-1 1-1 .553 0 1 .448 1 1s-.447 1-1 1zm40 1c-1.105 0-2-.896-2-2s.895-2 2-2 2 .896 2 2-.895 2-2 2zm40 0c-1.105 0-2-.896-2-2s.895-2 2-2 2 .896 2 2-.895 2-2 2zm40 0c-1.105 0-2-.896-2-2s.894-2 2-2c1.105 0 2 .896 2 2s-.895 2-2 2zm40 0c-1.105 0-2-.896-2-2s.895-2 2-2 2 .896 2 2-.895 2-2 2zm40 0c-1.105 0-2-.896-2-2s.895-2 2-2 2 .896 2 2-.895 2-2 2zm40 0c-1.105 0-2-.896-2-2s.894-2 2-2c1.105 0 2 .896 2 2s-.895 2-2 2zm40 0c-1.106 0-2-.896-2-2s.895-2 2-2 2 .896 2 2-.894 2-2 2zm40 0c-1.105 0-2-.896-2-2s.895-2 2-2c1.106 0 2 .896 2 2s-.895 2-2 2zm40 0c-1.105 0-2-.896-2-2s.894-2 2-2c1.106 0 2 .896 2 2s-.895 2-2 2zm40 0c-1.105 0-2-.896-2-2s.895-2 2-2 2 .896 2 2-.895 2-2 2zm40 0c-1.105 0-2-.896-2-2s.895-2 2-2 2 .896 2 2-.895 2-2 2zm40-1c-.553 0-1-.448-1-1 0-.55.447-1 1-1 .553 0 1 .448 1 1s-.447 1-1 1zm40 0c-.553 0-1-.448-1-1 0-.55.447-1 1-1 .553 0 1 .448 1 1s-.447 1-1 1zm40 1c-1.105 0-2-.896-2-2s.895-2 2-2 2 .896 2 2-.895 2-2 2zm-920 39c-.553 0-1-.448-1-1s.447-1 1-1 1 .448 1 1-.447 1-1 1zm40 1c-1.105 0-2-.896-2-2s.895-2 2-2 2 .896 2 2-.895 2-2 2zm40 0c-1.105 0-2-.896-2-2s.895-2 2-2 2 .896 2 2-.895 2-2 2zm40 0c-1.105 0-2-.896-2-2s.895-2 2-2 2 .896 2 2-.895 2-2 2zm40 0c-1.105 0-2-.896-2-2s.895-2 2-2 2 .896 2 2-.895 2-2 2zm40 0c-1.105 0-2-.896-2-2s.895-2 2-2 2 .896 2 2-.895 2-2 2zm40 0c-1.105 0-2-.896-2-2s.895-2 2-2 2 .896 2 2-.895 2-2 2zm40 0c-1.105 0-2-.896-2-2s.895-2 2-2 2 .896 2 2-.895 2-2 2zm40 0c-1.105 0-2-.896-2-2s.895-2 2-2 2 .896 2 2-.895 2-2 2zm40 0c-1.105 0-2-.896-2-2s.895-2 2-2 2 .896 2 2-.895 2-2 2zm40 0c-1.105 0-2-.896-2-2s.895-2 2-2 2 .896 2 2-.895 2-2 2zm40 0c-1.105 0-2-.896-2-2s.895-2 2-2 2 .896 2 2-.895 2-2 2zm40 0c-1.105 0-2-.896-2-2s.894-2 2-2c1.105 0 2 .896 2 2s-.895 2-2 2zm40 0c-1.105 0-2-.896-2-2s.895-2 2-2 2 .896 2 2-.895 2-2 2zm40-1c-.553 0-1-.448-1-1s.447-1 1-1 1 .448 1 1-.447 1-1 1zm40 1c-1.105 0-2-.896-2-2s.894-2 2-2c1.105 0 2 .896 2 2s-.895 2-2 2zm40 0c-1.106 0-2-.896-2-2s.895-2 2-2 2 .896 2 2-.894 2-2 2zm40 0c-1.105 0-2-.896-2-2s.895-2 2-2c1.106 0 2 .896 2 2s-.895 2-2 2zm40 0c-1.105 0-2-.896-2-2s.894-2 2-2c1.106 0 2 .896 2 2s-.895 2-2 2zm40 0c-1.105 0-2-.896-2-2s.895-2 2-2 2 .896 2 2-.895 2-2 2zm40 0c-1.105 0-2-.896-2-2s.895-2 2-2 2 .896 2 2-.895 2-2 2zm40 0c-1.105 0-2-.896-2-2s.894-2 2-2c1.105 0 2 .896 2 2s-.895 2-2 2zm40 0c-1.105 0-2-.896-2-2s.895-2 2-2 2 .896 2 2-.895 2-2 2zm40 0c-1.105 0-2-.896-2-2s.895-2 2-2 2 .896 2 2-.895 2-2 2zm-880 40c-1.105 0-2-.896-2-2s.895-2 2-2 2 .896 2 2-.895 2-2 2zm40 0c-1.105 0-2-.896-2-2s.895-2 2-2 2 .896 2 2-.895 2-2 2zm40 0c-1.105 0-2-.896-2-2s.895-2 2-2 2 .896 2 2-.895 2-2 2zm40 0c-1.105 0-2-.896-2-2s.895-2 2-2 2 .896 2 2-.895 2-2 2zm40 0c-1.105 0-2-.896-2-2s.895-2 2-2 2 .896 2 2-.895 2-2 2zm40 0c-1.105 0-2-.896-2-2s.895-2 2-2 2 .896 2 2-.895 2-2 2zm40 0c-1.105 0-2-.896-2-2s.895-2 2-2 2 .896 2 2-.895 2-2 2zm40 0c-1.105 0-2-.896-2-2s.895-2 2-2 2 .896 2 2-.895 2-2 2zm40 0c-1.105 0-2-.896-2-2s.895-2 2-2 2 .896 2 2-.895 2-2 2zm40 0c-1.105 0-2-.896-2-2s.895-2 2-2 2 .896 2 2-.895 2-2 2zm40 0c-1.105 0-2-.896-2-2s.895-2 2-2 2 .896 2 2-.895 2-2 2zm40 0c-1.105 0-2-.896-2-2s.894-2 2-2c1.105 0 2 .896 2 2s-.895 2-2 2zm40 0c-1.105 0-2-.896-2-2s.895-2 2-2 2 .896 2 2-.895 2-2 2zm40 0c-1.105 0-2-.896-2-2s.895-2 2-2 2 .896 2 2-.895 2-2 2zm40 0c-1.105 0-2-.896-2-2s.894-2 2-2c1.105 0 2 .896 2 2s-.895 2-2 2zm40 0c-1.106 0-2-.896-2-2s.895-2 2-2 2 .896 2 2-.894 2-2 2zm40 0c-1.105 0-2-.896-2-2s.895-2 2-2c1.106 0 2 .896 2 2s-.895 2-2 2zm40 0c-1.105 0-2-.896-2-2s.894-2 2-2c1.106 0 2 .896 2 2s-.895 2-2 2zm40 0c-1.105 0-2-.896-2-2s.895-2 2-2 2 .896 2 2-.895 2-2 2zm40 0c-1.105 0-2-.896-2-2s.895-2 2-2 2 .896 2 2-.895 2-2 2zm40 0c-1.105 0-2-.896-2-2s.894-2 2-2c1.105 0 2 .896 2 2s-.895 2-2 2zm40-1c-.553 0-1-.448-1-1 0-.55.447-1 1-1 .553 0 1 .45 1 1 0 .552-.447 1-1 1zm40 1c-1.105 0-2-.896-2-2s.895-2 2-2 2 .896 2 2-.895 2-2 2zm40-1c-.553 0-1-.448-1-1 0-.55.447-1 1-1 .553 0 1 .45 1 1 0 .552-.447 1-1 1zm40 1c-1.105 0-2-.896-2-2s.895-2 2-2 2 .896 2 2-.895 2-2 2zm-960 40c-1.105 0-2-.896-2-2s.895-2 2-2 2 .896 2 2-.895 2-2 2zm80 0c-1.105 0-2-.896-2-2s.895-2 2-2 2 .896 2 2-.895 2-2 2zm40 0c-1.105 0-2-.896-2-2s.895-2 2-2 2 .896 2 2-.895 2-2 2zm40 0c-1.105 0-2-.896-2-2s.895-2 2-2 2 .896 2 2-.895 2-2 2zm40 0c-1.105 0-2-.896-2-2s.895-2 2-2 2 .896 2 2-.895 2-2 2zm40 0c-1.105 0-2-.896-2-2s.895-2 2-2 2 .896 2 2-.895 2-2 2zm40 0c-1.105 0-2-.896-2-2s.895-2 2-2 2 .896 2 2-.895 2-2 2zm40 0c-1.105 0-2-.896-2-2s.895-2 2-2 2 .896 2 2-.895 2-2 2zm40 0c-1.105 0-2-.896-2-2s.895-2 2-2 2 .896 2 2-.895 2-2 2zm40 0c-1.105 0-2-.896-2-2s.895-2 2-2 2 .896 2 2-.895 2-2 2zm40 0c-1.105 0-2-.896-2-2s.894-2 2-2c1.105 0 2 .896 2 2s-.895 2-2 2zm40 0c-1.105 0-2-.896-2-2s.895-2 2-2 2 .896 2 2-.895 2-2 2zm40 0c-1.105 0-2-.896-2-2s.895-2 2-2 2 .896 2 2-.895 2-2 2zm40 0c-1.105 0-2-.896-2-2s.894-2 2-2c1.105 0 2 .896 2 2s-.895 2-2 2zm40 0c-1.106 0-2-.896-2-2s.895-2 2-2 2 .896 2 2-.894 2-2 2zm40 0c-1.105 0-2-.896-2-2s.895-2 2-2c1.106 0 2 .896 2 2s-.895 2-2 2zm40 0c-1.105 0-2-.896-2-2s.894-2 2-2c1.106 0 2 .896 2 2s-.895 2-2 2zm40 0c-1.105 0-2-.896-2-2s.895-2 2-2 2 .896 2 2-.895 2-2 2zm40 0c-1.105 0-2-.896-2-2s.895-2 2-2 2 .896 2 2-.895 2-2 2zm40 0c-1.105 0-2-.896-2-2s.894-2 2-2c1.105 0 2 .896 2 2s-.895 2-2 2zm40 0c-1.105 0-2-.896-2-2s.895-2 2-2 2 .896 2 2-.895 2-2 2zm40 0c-1.105 0-2-.896-2-2s.895-2 2-2 2 .896 2 2-.895 2-2 2zm40 0c-1.105 0-2-.896-2-2s.895-2 2-2 2 .896 2 2-.895 2-2 2zm-960 40c-1.105 0-2-.896-2-2s.894-2 2-2 2 .896 2 2-.895 2-2 2zm40 0c-1.105 0-2-.896-2-2s.895-2 2-2 2 .896 2 2-.895 2-2 2zm40 0c-1.105 0-2-.896-2-2s.895-2 2-2 2 .896 2 2-.895 2-2 2zm40 0c-1.105 0-2-.896-2-2s.895-2 2-2 2 .896 2 2-.895 2-2 2zm40 0c-1.105 0-2-.896-2-2s.895-2 2-2 2 .896 2 2-.895 2-2 2zm40 0c-1.105 0-2-.896-2-2s.895-2 2-2 2 .896 2 2-.895 2-2 2zm40 0c-1.105 0-2-.896-2-2s.895-2 2-2 2 .896 2 2-.895 2-2 2zm40 0c-1.105 0-2-.896-2-2s.895-2 2-2 2 .896 2 2-.895 2-2 2zm40 0c-1.105 0-2-.896-2-2s.895-2 2-2 2 .896 2 2-.895 2-2 2zm40 0c-1.105 0-2-.896-2-2s.895-2 2-2 2 .896 2 2-.895 2-2 2zm40 0c-1.105 0-2-.896-2-2s.895-2 2-2 2 .896 2 2-.895 2-2 2zm40 0c-1.105 0-2-.896-2-2s.895-2 2-2 2 .896 2 2-.895 2-2 2zm40 0c-1.105 0-2-.896-2-2s.894-2 2-2c1.105 0 2 .896 2 2s-.895 2-2 2zm40 0c-1.105 0-2-.896-2-2s.895-2 2-2 2 .896 2 2-.895 2-2 2zm40 0c-1.105 0-2-.896-2-2s.895-2 2-2 2 .896 2 2-.895 2-2 2zm40 0c-1.105 0-2-.896-2-2s.894-2 2-2c1.105 0 2 .896 2 2s-.895 2-2 2zm40 0c-1.106 0-2-.896-2-2s.895-2 2-2 2 .896 2 2-.894 2-2 2zm40 0c-1.105 0-2-.896-2-2s.895-2 2-2c1.106 0 2 .896 2 2s-.895 2-2 2zm40 0c-1.105 0-2-.896-2-2s.894-2 2-2c1.106 0 2 .896 2 2s-.895 2-2 2zm40 0c-1.105 0-2-.896-2-2s.895-2 2-2 2 .896 2 2-.895 2-2 2zm40 0c-1.105 0-2-.896-2-2s.895-2 2-2 2 .896 2 2-.895 2-2 2zm40 0c-1.105 0-2-.896-2-2s.894-2 2-2c1.105 0 2 .896 2 2s-.895 2-2 2zm40 0c-1.105 0-2-.896-2-2s.895-2 2-2 2 .896 2 2-.895 2-2 2zm40 0c-1.105 0-2-.896-2-2s.895-2 2-2 2 .896 2 2-.895 2-2 2zm40-1c-.553 0-1-.45-1-1s.447-1 1-1c.553 0 1 .448 1 1s-.447 1-1 1zm40 1c-1.105 0-2-.896-2-2s.895-2 2-2 2 .896 2 2-.895 2-2 2zm-880 40c-1.105 0-2-.896-2-2s.895-2 2-2 2 .896 2 2-.895 2-2 2zm40-1c-.553 0-1-.448-1-1s.447-1 1-1c.553 0 1 .45 1 1 0 .552-.447 1-1 1zm40 1c-1.105 0-2-.896-2-2s.895-2 2-2 2 .896 2 2-.895 2-2 2zm40 0c-1.105 0-2-.896-2-2s.895-2 2-2 2 .896 2 2-.895 2-2 2zm40 0c-1.105 0-2-.896-2-2s.895-2 2-2 2 .896 2 2-.895 2-2 2zm40 0c-1.105 0-2-.896-2-2s.895-2 2-2 2 .896 2 2-.895 2-2 2zm40 0c-1.105 0-2-.896-2-2s.895-2 2-2 2 .896 2 2-.895 2-2 2zm40 0c-1.105 0-2-.896-2-2s.895-2 2-2 2 .896 2 2-.895 2-2 2zm40 0c-1.105 0-2-.896-2-2s.895-2 2-2 2 .896 2 2-.895 2-2 2zm40 0c-1.105 0-2-.896-2-2s.894-2 2-2c1.105 0 2 .896 2 2s-.895 2-2 2zm40 0c-1.105 0-2-.896-2-2s.895-2 2-2 2 .896 2 2-.895 2-2 2zm40 0c-1.105 0-2-.896-2-2s.895-2 2-2 2 .896 2 2-.895 2-2 2zm40 0c-1.105 0-2-.896-2-2s.894-2 2-2c1.105 0 2 .896 2 2s-.895 2-2 2zm40 0c-1.106 0-2-.896-2-2s.895-2 2-2 2 .896 2 2-.894 2-2 2zm40 0c-1.105 0-2-.896-2-2s.895-2 2-2c1.106 0 2 .896 2 2s-.895 2-2 2zm40 0c-1.105 0-2-.896-2-2s.894-2 2-2c1.106 0 2 .896 2 2s-.895 2-2 2zm40 0c-1.105 0-2-.896-2-2s.895-2 2-2 2 .896 2 2-.895 2-2 2zm40 0c-1.105 0-2-.896-2-2s.895-2 2-2 2 .896 2 2-.895 2-2 2zm40 0c-1.105 0-2-.896-2-2s.894-2 2-2c1.105 0 2 .896 2 2s-.895 2-2 2zm40 0c-1.105 0-2-.896-2-2s.895-2 2-2 2 .896 2 2-.895 2-2 2zm40 0c-1.105 0-2-.896-2-2s.895-2 2-2 2 .896 2 2-.895 2-2 2zm80-1c-.553 0-1-.448-1-1s.447-1 1-1c.553 0 1 .45 1 1 0 .552-.447 1-1 1zm-880 41c-1.105 0-2-.896-2-2s.895-2 2-2 2 .896 2 2-.895 2-2 2zm80 0c-1.105 0-2-.896-2-2s.895-2 2-2 2 .896 2 2-.895 2-2 2zm40 0c-1.105 0-2-.896-2-2s.895-2 2-2 2 .896 2 2-.895 2-2 2zm40 0c-1.105 0-2-.896-2-2s.895-2 2-2 2 .896 2 2-.895 2-2 2zm40 0c-1.105 0-2-.896-2-2s.895-2 2-2 2 .896 2 2-.895 2-2 2zm40 0c-1.105 0-2-.896-2-2s.895-2 2-2 2 .896 2 2-.895 2-2 2zm40 0c-1.105 0-2-.896-2-2s.895-2 2-2 2 .896 2 2-.895 2-2 2zm40 0c-1.105 0-2-.896-2-2s.895-2 2-2 2 .896 2 2-.895 2-2 2zm40 0c-1.105 0-2-.896-2-2s.894-2 2-2c1.105 0 2 .896 2 2s-.895 2-2 2zm40 0c-1.105 0-2-.896-2-2s.895-2 2-2 2 .896 2 2-.895 2-2 2zm40 0c-1.105 0-2-.896-2-2s.895-2 2-2 2 .896 2 2-.895 2-2 2zm40 0c-1.105 0-2-.896-2-2s.894-2 2-2c1.105 0 2 .896 2 2s-.895 2-2 2zm40 0c-1.106 0-2-.896-2-2s.895-2 2-2 2 .896 2 2-.894 2-2 2zm40 0c-1.105 0-2-.896-2-2s.895-2 2-2c1.106 0 2 .896 2 2s-.895 2-2 2zm40 0c-1.105 0-2-.896-2-2s.894-2 2-2c1.106 0 2 .896 2 2s-.895 2-2 2zm40 0c-1.105 0-2-.896-2-2s.895-2 2-2 2 .896 2 2-.895 2-2 2zm40 0c-1.105 0-2-.896-2-2s.895-2 2-2 2 .896 2 2-.895 2-2 2zm40 0c-1.105 0-2-.896-2-2s.894-2 2-2c1.105 0 2 .896 2 2s-.895 2-2 2zm40 0c-1.105 0-2-.896-2-2s.895-2 2-2 2 .896 2 2-.895 2-2 2zm40 0c-1.105 0-2-.896-2-2s.895-2 2-2 2 .896 2 2-.895 2-2 2zm-840 40c-1.105 0-2-.896-2-2s.895-2 2-2 2 .895 2 2c0 1.104-.895 2-2 2zm40 0c-1.105 0-2-.896-2-2s.895-2 2-2 2 .895 2 2c0 1.104-.895 2-2 2zm40 0c-1.105 0-2-.896-2-2s.895-2 2-2 2 .895 2 2c0 1.104-.895 2-2 2zm40 0c-1.105 0-2-.896-2-2s.895-2 2-2 2 .895 2 2c0 1.104-.895 2-2 2zm40 0c-1.105 0-2-.896-2-2s.895-2 2-2 2 .895 2 2c0 1.104-.895 2-2 2zm40 0c-1.105 0-2-.896-2-2s.895-2 2-2 2 .895 2 2c0 1.104-.895 2-2 2zm40 0c-1.105 0-2-.896-2-2s.895-2 2-2 2 .895 2 2c0 1.104-.895 2-2 2zm40 0c-1.105 0-2-.896-2-2s.895-2 2-2 2 .895 2 2c0 1.104-.895 2-2 2zm40 0c-1.105 0-2-.896-2-2s.895-2 2-2 2 .895 2 2c0 1.104-.895 2-2 2zm40 0c-1.105 0-2-.896-2-2s.895-2 2-2 2 .895 2 2c0 1.104-.895 2-2 2zm40 0c-1.105 0-2-.896-2-2s.894-2 2-2c1.105 0 2 .895 2 2 0 1.104-.895 2-2 2zm40 0c-1.105 0-2-.896-2-2s.895-2 2-2 2 .895 2 2c0 1.104-.895 2-2 2zm40 0c-1.105 0-2-.896-2-2s.895-2 2-2 2 .895 2 2c0 1.104-.895 2-2 2zm40 0c-1.105 0-2-.896-2-2s.894-2 2-2c1.105 0 2 .895 2 2 0 1.104-.895 2-2 2zm40 0c-1.106 0-2-.896-2-2s.895-2 2-2 2 .895 2 2c0 1.104-.894 2-2 2zm40 0c-1.105 0-2-.896-2-2s.895-2 2-2c1.106 0 2 .895 2 2 0 1.104-.895 2-2 2zm40 0c-1.105 0-2-.896-2-2s.894-2 2-2c1.106 0 2 .895 2 2 0 1.104-.895 2-2 2zm40 0c-1.105 0-2-.896-2-2s.895-2 2-2 2 .895 2 2c0 1.104-.895 2-2 2zm40 0c-1.105 0-2-.896-2-2s.895-2 2-2 2 .895 2 2c0 1.104-.895 2-2 2zm40 0c-1.105 0-2-.896-2-2s.894-2 2-2c1.105 0 2 .895 2 2 0 1.104-.895 2-2 2zm40 0c-1.105 0-2-.896-2-2s.895-2 2-2 2 .895 2 2c0 1.104-.895 2-2 2zm40 0c-1.105 0-2-.896-2-2s.895-2 2-2 2 .895 2 2c0 1.104-.895 2-2 2zm40 0c-1.105 0-2-.896-2-2s.895-2 2-2 2 .895 2 2c0 1.104-.895 2-2 2zm40 0c-1.105 0-2-.896-2-2s.895-2 2-2 2 .895 2 2c0 1.104-.895 2-2 2zM106 714c-.553 0-1-.448-1-1s.447-1 1-1 1 .45 1 1c0 .552-.447 1-1 1zm40 1c-1.105 0-2-.896-2-2s.895-2 2-2 2 .896 2 2-.895 2-2 2zm40-1c-.553 0-1-.448-1-1s.447-1 1-1c.553 0 1 .45 1 1 0 .552-.447 1-1 1zm40 1c-1.105 0-2-.896-2-2s.895-2 2-2 2 .896 2 2-.895 2-2 2zm40 0c-1.105 0-2-.896-2-2s.895-2 2-2 2 .896 2 2-.895 2-2 2zm40 0c-1.105 0-2-.896-2-2s.895-2 2-2 2 .896 2 2-.895 2-2 2zm40 0c-1.105 0-2-.896-2-2s.895-2 2-2 2 .896 2 2-.895 2-2 2zm40 0c-1.105 0-2-.896-2-2s.895-2 2-2 2 .896 2 2-.895 2-2 2zm40 0c-1.105 0-2-.896-2-2s.895-2 2-2 2 .896 2 2-.895 2-2 2zm40 0c-1.105 0-2-.896-2-2s.895-2 2-2 2 .896 2 2-.895 2-2 2zm40 0c-1.105 0-2-.896-2-2s.895-2 2-2 2 .896 2 2-.895 2-2 2zm40 0c-1.105 0-2-.896-2-2s.895-2 2-2 2 .896 2 2-.895 2-2 2zm40 0c-1.105 0-2-.896-2-2s.894-2 2-2c1.105 0 2 .896 2 2s-.895 2-2 2zm40 0c-1.105 0-2-.896-2-2s.895-2 2-2 2 .896 2 2-.895 2-2 2zm40 0c-1.105 0-2-.896-2-2s.895-2 2-2 2 .896 2 2-.895 2-2 2zm40 0c-1.105 0-2-.896-2-2s.894-2 2-2c1.105 0 2 .896 2 2s-.895 2-2 2zm40 0c-1.106 0-2-.896-2-2s.895-2 2-2 2 .896 2 2-.894 2-2 2zm40 0c-1.105 0-2-.896-2-2s.895-2 2-2c1.106 0 2 .896 2 2s-.895 2-2 2zm40 0c-1.105 0-2-.896-2-2s.894-2 2-2c1.106 0 2 .896 2 2s-.895 2-2 2zm40 0c-1.105 0-2-.896-2-2s.895-2 2-2 2 .896 2 2-.895 2-2 2zm40 0c-1.105 0-2-.896-2-2s.895-2 2-2 2 .896 2 2-.895 2-2 2zm40 0c-1.105 0-2-.896-2-2s.894-2 2-2c1.105 0 2 .896 2 2s-.895 2-2 2zm40 0c-1.105 0-2-.896-2-2s.895-2 2-2 2 .896 2 2-.895 2-2 2zm40 0c-1.105 0-2-.896-2-2s.895-2 2-2 2 .896 2 2-.895 2-2 2zm40-1c-.553 0-1-.448-1-1s.447-1 1-1c.553 0 1 .45 1 1 0 .552-.447 1-1 1zm-920 41c-1.105 0-2-.896-2-2s.895-2 2-2 2 .896 2 2-.895 2-2 2zm40-1c-.553 0-1-.448-1-1 0-.55.447-1 1-1 .553 0 1 .448 1 1s-.447 1-1 1zm40 1c-1.105 0-2-.896-2-2s.895-2 2-2 2 .896 2 2-.895 2-2 2zm40 0c-1.105 0-2-.896-2-2s.895-2 2-2 2 .896 2 2-.895 2-2 2zm40 0c-1.105 0-2-.896-2-2s.895-2 2-2 2 .896 2 2-.895 2-2 2zm40 0c-1.105 0-2-.896-2-2s.895-2 2-2 2 .896 2 2-.895 2-2 2zm40 0c-1.105 0-2-.896-2-2s.895-2 2-2 2 .896 2 2-.895 2-2 2zm40 0c-1.105 0-2-.896-2-2s.895-2 2-2 2 .896 2 2-.895 2-2 2zm40 0c-1.105 0-2-.896-2-2s.895-2 2-2 2 .896 2 2-.895 2-2 2zm40 0c-1.105 0-2-.896-2-2s.895-2 2-2 2 .896 2 2-.895 2-2 2zm40 0c-1.105 0-2-.896-2-2s.895-2 2-2 2 .896 2 2-.895 2-2 2zm40 0c-1.105 0-2-.896-2-2s.894-2 2-2c1.105 0 2 .896 2 2s-.895 2-2 2zm40 0c-1.105 0-2-.896-2-2s.895-2 2-2 2 .896 2 2-.895 2-2 2zm40 0c-1.105 0-2-.896-2-2s.895-2 2-2 2 .896 2 2-.895 2-2 2zm40 0c-1.105 0-2-.896-2-2s.894-2 2-2c1.105 0 2 .896 2 2s-.895 2-2 2zm40 0c-1.106 0-2-.896-2-2s.895-2 2-2 2 .896 2 2-.894 2-2 2zm40 0c-1.105 0-2-.896-2-2s.895-2 2-2c1.106 0 2 .896 2 2s-.895 2-2 2zm40 0c-1.105 0-2-.896-2-2s.894-2 2-2c1.106 0 2 .896 2 2s-.895 2-2 2zm40 0c-1.105 0-2-.896-2-2s.895-2 2-2 2 .896 2 2-.895 2-2 2zm40 0c-1.105 0-2-.896-2-2s.895-2 2-2 2 .896 2 2-.895 2-2 2zm40 0c-1.105 0-2-.896-2-2s.894-2 2-2c1.105 0 2 .896 2 2s-.895 2-2 2zm40 0c-1.105 0-2-.896-2-2s.895-2 2-2 2 .896 2 2-.895 2-2 2zm40-1c-.553 0-1-.448-1-1 0-.55.447-1 1-1s1 .448 1 1-.447 1-1 1zm40 1c-1.105 0-2-.896-2-2s.895-2 2-2 2 .896 2 2-.895 2-2 2zm-800 40c-1.105 0-2-.896-2-2s.895-2 2-2 2 .895 2 2c0 1.104-.895 2-2 2zm40 0c-1.105 0-2-.896-2-2s.895-2 2-2 2 .895 2 2c0 1.104-.895 2-2 2zm40 0c-1.105 0-2-.896-2-2s.895-2 2-2 2 .895 2 2c0 1.104-.895 2-2 2zm80 0c-1.105 0-2-.896-2-2s.895-2 2-2 2 .895 2 2c0 1.104-.895 2-2 2zm40 0c-1.105 0-2-.896-2-2s.895-2 2-2 2 .895 2 2c0 1.104-.895 2-2 2zm40 0c-1.105 0-2-.896-2-2s.895-2 2-2 2 .895 2 2c0 1.104-.895 2-2 2zm40 0c-1.105 0-2-.896-2-2s.895-2 2-2 2 .895 2 2c0 1.104-.895 2-2 2zm40 0c-1.105 0-2-.896-2-2s.894-2 2-2c1.105 0 2 .895 2 2 0 1.104-.895 2-2 2zm40 0c-1.105 0-2-.896-2-2s.895-2 2-2 2 .895 2 2c0 1.104-.895 2-2 2zm40 0c-1.105 0-2-.896-2-2s.895-2 2-2 2 .895 2 2c0 1.104-.895 2-2 2zm40 0c-1.105 0-2-.896-2-2s.894-2 2-2c1.105 0 2 .895 2 2 0 1.104-.895 2-2 2zm40 0c-1.106 0-2-.896-2-2s.895-2 2-2 2 .895 2 2c0 1.104-.894 2-2 2zm40 0c-1.105 0-2-.896-2-2s.895-2 2-2c1.106 0 2 .895 2 2 0 1.104-.895 2-2 2zm40 0c-1.105 0-2-.896-2-2s.894-2 2-2c1.106 0 2 .895 2 2 0 1.104-.895 2-2 2zm40 0c-1.105 0-2-.896-2-2s.895-2 2-2 2 .895 2 2c0 1.104-.895 2-2 2zm40 0c-1.105 0-2-.896-2-2s.895-2 2-2 2 .895 2 2c0 1.104-.895 2-2 2zm40 0c-1.105 0-2-.896-2-2s.894-2 2-2c1.105 0 2 .895 2 2 0 1.104-.895 2-2 2zm40 0c-1.105 0-2-.896-2-2s.895-2 2-2 2 .895 2 2c0 1.104-.895 2-2 2zm40 0c-1.105 0-2-.896-2-2s.895-2 2-2 2 .895 2 2c0 1.104-.895 2-2 2zm40-1c-.553 0-1-.45-1-1 0-.552.447-1 1-1 .553 0 1 .448 1 1s-.447 1-1 1zm-960 41c-1.105 0-2-.896-2-2s.894-2 2-2 2 .896 2 2-.895 2-2 2zm40-1c-.553 0-1-.448-1-1 0-.55.447-1 1-1 .553 0 1 .45 1 1 0 .552-.447 1-1 1zm80 1c-1.105 0-2-.896-2-2s.895-2 2-2 2 .896 2 2-.895 2-2 2zm40-1c-.553 0-1-.448-1-1 0-.55.447-1 1-1 .553 0 1 .45 1 1 0 .552-.447 1-1 1zm40 1c-1.105 0-2-.896-2-2s.895-2 2-2 2 .896 2 2-.895 2-2 2zm40 0c-1.105 0-2-.896-2-2s.895-2 2-2 2 .896 2 2-.895 2-2 2zm40 0c-1.105 0-2-.896-2-2s.895-2 2-2 2 .896 2 2-.895 2-2 2zm40 0c-1.105 0-2-.896-2-2s.895-2 2-2 2 .896 2 2-.895 2-2 2zm40 0c-1.105 0-2-.896-2-2s.895-2 2-2 2 .896 2 2-.895 2-2 2zm40 0c-1.105 0-2-.896-2-2s.895-2 2-2 2 .896 2 2-.895 2-2 2zm40-1c-.553 0-1-.448-1-1 0-.55.447-1 1-1s1 .45 1 1c0 .552-.447 1-1 1zm40 1c-1.105 0-2-.896-2-2s.894-2 2-2c1.105 0 2 .896 2 2s-.895 2-2 2zm40 0c-1.105 0-2-.896-2-2s.895-2 2-2 2 .896 2 2-.895 2-2 2zm40 0c-1.105 0-2-.896-2-2s.895-2 2-2 2 .896 2 2-.895 2-2 2zm40-1c-.553 0-1-.448-1-1 0-.55.447-1 1-1 .553 0 1 .45 1 1 0 .552-.447 1-1 1zm120 1c-1.105 0-2-.896-2-2s.894-2 2-2c1.106 0 2 .896 2 2s-.895 2-2 2zm40 0c-1.105 0-2-.896-2-2s.895-2 2-2 2 .896 2 2-.895 2-2 2zm40-1c-.553 0-1-.448-1-1 0-.55.447-1 1-1s1 .45 1 1c0 .552-.447 1-1 1zm80 1c-1.105 0-2-.896-2-2s.895-2 2-2 2 .896 2 2-.895 2-2 2zm-520 39c-.553 0-1-.448-1-1s.447-1 1-1c.553 0 1 .448 1 1s-.447 1-1 1zm40 1c-1.105 0-2-.896-2-2s.895-2 2-2 2 .896 2 2-.895 2-2 2zm40-1c-.553 0-1-.448-1-1s.447-1 1-1 1 .448 1 1-.447 1-1 1zm120 0c-.553 0-1-.448-1-1s.447-1 1-1 1 .448 1 1-.447 1-1 1zm40 1c-1.105 0-2-.896-2-2s.894-2 2-2c1.105 0 2 .896 2 2s-.895 2-2 2zm40 0c-1.106 0-2-.896-2-2s.895-2 2-2 2 .896 2 2-.894 2-2 2zm40-1c-.553 0-1-.448-1-1s.447-1 1-1c.553 0 1 .448 1 1s-.447 1-1 1zm40 0c-.553 0-1-.448-1-1s.447-1 1-1c.553 0 1 .448 1 1s-.447 1-1 1z"/></svg>