<svg xmlns="http://www.w3.org/2000/svg" viewBox="0 0 38 38" fill-rule="evenodd" clip-rule="evenodd"><path d="M19 1C9.06 1 1 9.057 1 19c0 9.94 8.057 18 18 18 9.94 0 18-8.057 18-18 0-9.94-8.057-18-18-18z" fill="#fff"/><path d="M19 1C9.06 1 1 9.057 1 19c0 9.94 8.057 18 18 18 9.94 0 18-8.057 18-18 0-9.94-8.057-18-18-18z" fill="none" stroke="#b5b5b5"/><path d="M15 11.723c0-.605.7-.942 1.173-.564l10.93 7.215c.363.29.363.84 0 1.128l-10.93 7.216c-.473.377-1.173.04-1.173-.565V11.723z" fill-opacity=".557"/></svg>