<svg xmlns="http://www.w3.org/2000/svg" width="47" height="12" viewBox="0 0 47 12"><title>BFCM-Tag-Wordmark</title><path d="M0 11.82V.164h4.337c2.462 0 3.766 1.044 3.766 2.984v.13c0 1.288-.7 2.136-1.956 2.478 1.483.278 2.38 1.125 2.38 2.74v.08c0 2.17-1.418 3.246-4.027 3.246H0zm2.625-6.896h1.32c1.126 0 1.615-.424 1.615-1.45v-.1c0-1.01-.555-1.352-1.63-1.352H2.624v2.902zm0 5.038H4.11c1.173 0 1.743-.554 1.743-1.614V8.25c0-1.125-.554-1.598-1.842-1.598H2.626v3.31zm9.426 1.86h2.69V7.303h3.555v-2.02H14.74V2.265h4.436V.163H12.05V11.82zm19.893-3.735L29.35 7.76c-.146 1.012-.863 2.072-2.184 2.072-1.516 0-2.364-1.142-2.364-3.196V5.332c0-2.055.897-3.212 2.332-3.212 1.19 0 1.81.847 1.956 1.972l2.74-.31C31.6 1.663 30.05 0 27.165 0c-2.95 0-5.152 2.07-5.152 5.38v1.24c0 3.326 1.826 5.38 5.185 5.38 3.227 0 4.515-2.315 4.743-3.913zm3.377 3.734h2.38V3.914l2.82 7.908h.85l2.836-7.907v7.908h2.674V.164h-3.457l-2.315 6.7-2.33-6.7H35.32V11.82z" fill="#FFF" fill-rule="evenodd"/></svg>