<svg xmlns="http://www.w3.org/2000/svg" data-name="Layer 1" width="36" height="44" viewBox="0 0 36 44"><title>holiday-ribbon</title><path d="M36 0v35.24A3 3 0 0 1 34.09 38l-14.64 5.73a4 4 0 0 1-2.9 0L1.91 38A3 3 0 0 1 0 35.24V0z" fill="#088d65"/><path d="M9 22h5v10h-4a1 1 0 0 1-1-1zm9 10h8a1 1 0 0 0 1-1v-9h-9zm11-16v2a1 1 0 0 1-1 1H8a1 1 0 0 1-1-1v-2a1 1 0 0 1 1-1h3.54C10.35 14.31 9 13.23 9 11.5A3.46 3.46 0 0 1 12.58 8c1.67 0 3.7 2.13 4.92 4.42C18.72 10.13 21 8 22.67 8a3.47 3.47 0 0 1 3.58 3.5A4 4 0 0 1 24 15h4a1 1 0 0 1 1 1zm-12.63-1.36C15.7 12.36 13.63 10 12.58 10A1.48 1.48 0 0 0 11 11.5c0 1.4 1.78 2.11 3.33 2.58zm7.88-3.14a1.48 1.48 0 0 0-1.58-1.5c-1 0-3.11 2.36-3.78 4.64l2-.55c1.58-.48 3.36-1.19 3.36-2.59z" fill="#f9fafb"/></svg>