<svg xmlns="http://www.w3.org/2000/svg" width="167" height="104" viewBox="0 0 167 104"><title>Group 7</title><g fill="none" fill-rule="evenodd"><g fill-rule="nonzero" fill="#EAEAE6"><path d="M77.76 84.144c-7.166 4.11-16.732 5.84-24.54 8.33-5.365 1.713-10.718 3.46-16.075 5.2-4.977 1.613-9.44 3.7-14.658 4.74-.74.148-1.61.25-2.16-.264-.275-.308-.467-.68-.557-1.084C18.16 95.93-.21 40.62.636 40.343c18.33-5.977 36.59-12.585 55.11-17.965.798-.233 1.78-.214 2.325.416.23.306.396.655.485 1.027 5.314 17.002 10.814 33.944 16.25 50.907.986 3.078 2.263 6.244 3.143 9.25.01.034-.055.09-.19.167z"/><path d="M78.017 84.59c-4.643 2.61-9.723 4.163-14.764 5.547l-3.792 1.01c-1.26.342-2.508.722-3.754 1.103-2.48.76-4.95 1.647-7.428 2.477L40.82 97.15l-3.728 1.207c-1.233.398-2.458.833-3.685 1.276-2.453.888-4.918 1.812-7.466 2.53-.635.18-1.276.35-1.923.498-.32.08-.646.15-.97.216-.326.067-.647.144-1.012.187-.388.058-.784.048-1.17-.028-.454-.093-.86-.348-1.14-.717-.22-.323-.383-.68-.482-1.057l-.294-.927-4.79-14.882c-1.592-4.963-3.178-9.928-4.73-14.905-.764-2.49-1.596-4.96-2.387-7.445-.8-2.48-1.573-4.97-2.35-7.458-.773-2.49-1.533-4.983-2.28-7.48l-1.12-3.75-.537-1.885c-.188-.64-.34-1.293-.45-1.952-.008-.057-.01-.114-.007-.17 0-.06.014-.117.036-.17.165-.233.267-.19.237-.197l.233-.077.465-.154.932-.308 1.864-.605L7.79 37.67l7.44-2.482c4.974-1.613 9.854-3.504 14.827-5.126 4.956-1.673 9.92-3.32 14.907-4.905 2.494-.79 4.993-1.568 7.497-2.33l1.88-.564.94-.282c.34-.116.692-.196 1.05-.24.393-.043.792-.01 1.173.1.424.12.797.377 1.063.728.218.318.38.67.48 1.04l.3.932 2.327 7.463c.77 2.49 1.55 4.975 2.358 7.453l2.397 7.44c.793 2.483 1.614 4.957 2.37 7.45l2.313 7.468 2.404 7.44c.81 2.472 1.577 4.975 2.44 7.413l1.327 3.677c.22.616.436 1.234.644 1.857l.304.938.146.472.036.118.016.06c-.003.11.026-.182.017.33-.03.117-.093.22-.184.3-.033.028-.066.055-.1.08-.053.04-.1.067-.143.093zm-.514-.893l.06-.04c.006 0 .008-.005-.003.005-.012.028-.038-.006-.114.2-.002.475.002.145-.008.216l-.016-.058-.034-.115-.14-.463-.297-.922c-.202-.615-.413-1.227-.628-1.84L75.008 77c-.44-1.233-.836-2.488-1.233-3.723l-1.197-3.722-2.393-7.443-2.46-7.422c-.83-2.47-1.586-4.965-2.376-7.45l-2.334-7.46c-1.544-4.98-3.137-9.943-4.703-14.914l-.288-.933c-.063-.26-.167-.507-.308-.735-.324-.36-.813-.525-1.29-.433-.294.032-.583.095-.864.19l-.94.266-1.884.54-3.757 1.115-3.736 1.184c-4.975 1.596-9.932 3.25-14.882 4.93l-3.71 1.265c-1.242.408-2.492.79-3.737 1.19l-1.873.58-1.864.608-3.702 1.29-7.408 2.584-3.71 1.282-1.856.633-.933.3-.466.15-.234.075c-.123.002.03.108.337-.316.025-.054.04-.11.046-.17v-.006c0 .01 0 .018.002.027.04.294.097.585.168.872l.232.932.503 1.876c.347 1.25.694 2.506 1.085 3.747l2.342 7.453 2.355 7.452 1.172 3.728.594 1.862.627 1.85 1.25 3.705c.41 1.236.842 2.466 1.218 3.713l2.324 7.465c.752 2.496 1.59 4.964 2.395 7.442l2.32 7.47.29.936c.066.278.18.543.33.785.272.4.856.48 1.464.404 1.273-.21 2.532-.502 3.768-.874 2.495-.724 4.935-1.646 7.383-2.573 1.225-.46 2.455-.914 3.7-1.333l3.725-1.235 7.447-2.463c2.498-.776 4.973-1.604 7.503-2.32l3.787-1.05 3.767-1.082c2.503-.74 5.005-1.463 7.445-2.353 2.437-.863 4.796-1.93 7.052-3.193z"/></g><path d="M68.42 52.41c.342-.934-.28-1.696-2.523-2.073-3.542-.597-8.663 4.426-11.853 5.662-4.546 1.78-8.5 4.67-12.924.51-2.55-2.4-3.728-5.88-4.75-9.228-1.02-3.348-2.048-6.843-4.41-9.43 2.33 8 4.966 15.905 7.907 23.71-2.455.97-30.622 10.28-30.413 10.89.408 1.205 2.158 1.03 3.364.615l20.58-7.087c1.086-.373 2.226-.753 3.36-.567 4.212.69 7.29 9.254 8.623 12.68.607 1.554 6.272 15.388 5.66 15.99.496-.488.32-1.31.108-1.977-2.598-8.108-5.653-16.76-5.008-25.305.05-.645.19-1.424.797-1.66.704-.27 1.374.4 2.046.745 1.064.462 2.297.304 3.21-.412.89-.717 1.572-1.655 1.98-2.72.245-.732.625-1.413 1.12-2.006.55-.47 1.188-.824 1.878-1.04 1.746-.69 10.292-4.674 11.25-7.296z" fill="#8A7C71" fill-rule="nonzero" opacity=".3"/><path d="M29.923 30.112c.92 2.652 1.65 5.368 2.772 7.953.953 2.64 1.726 5.343 2.61 8.007l.65 2.003.618 2.013c.42 1.34.83 2.683 1.22 4.03.192.677.435 1.336.66 2 .223.666.43 1.337.647 2.004l.626 2.01c.21.67.458 1.328.686 1.99.455 1.33.86 2.674 1.307 4.004.383 1.352 1.044 2.61 1.456 3.953l2.793 7.945.617 2.013c.2.673.41 1.343.648 2.004l.687 1.99c.223.663.473 1.32.66 2l.603 2.017c.228.66.447 1.33.687 1.99l1.422 3.964c.063.173.028.367-.09.51-.12.14-.307.207-.49.173-.182-.033-.332-.16-.394-.335v-.004l-.006-.017-1.367-3.982-.684-1.99-.75-1.97c-.26-.654-.446-1.33-.666-1.997l-.624-2.01c-.405-1.345-.857-2.674-1.284-4.01-.728-2.717-1.764-5.33-2.69-7.98-.26-.654-.47-1.326-.63-2.01-.147-.69-.355-1.362-.622-2.013-.5-1.312-1.066-2.603-1.5-3.937-1.665-5.363-3.575-10.645-5.08-16.06-.744-2.712-1.84-5.306-2.756-7.96l-.615-2.013c-.107-.333-.195-.675-.318-1.004l-.378-.984c-.49-1.316-.938-2.647-1.41-3.97-.09-.266.052-.555.318-.65.265-.093.558.04.657.304v.004l.006.014z" fill="#D2CFC7" fill-rule="nonzero"/><path d="M9.642 71.306c1.22-.422 2.446-.82 3.677-1.206 1.273-.257 2.408-.926 3.614-1.39 2.417-.902 4.914-1.57 7.364-2.38l1.843-.588 1.857-.55 1.854-.555c.62-.186 1.247-.34 1.866-.523.626-.164 1.228-.395 1.84-.602.607-.213 1.228-.39 1.842-.59l1.853-.557c.617-.19 1.218-.427 1.825-.64 1.218-.424 2.46-.78 3.684-1.183 1.243-.35 2.375-1.028 3.61-1.404l7.283-2.62c1.228-.393 2.493-.68 3.703-1.127 1.217-.426 2.42-.897 3.658-1.26.624-.168 1.254-.318 1.866-.52.61-.214 1.223-.412 1.824-.642l3.63-1.344c.354-.12.738.063.867.41.13.35-.042.74-.388.878l-.01.003-.03.01-3.657 1.268c-.612.205-1.218.427-1.824.64-.605.222-1.194.494-1.793.735-1.21.45-2.455.793-3.692 1.16-1.242.354-2.46.78-3.692 1.16-.618.187-1.247.34-1.87.512-.622.173-1.226.4-1.832.62-1.213.435-2.405.937-3.624 1.366-.598.247-1.22.432-1.855.552-.32.045-.638.116-.948.214l-.906.34c-1.2.482-2.368 1.054-3.595 1.45-.62.18-1.26.293-1.867.517l-1.822.645c-.613.196-1.22.417-1.84.594-.627.156-1.24.356-1.84.596-.583.283-1.187.518-1.808.704-.615.192-1.257.306-1.885.464-.313.08-.628.156-.933.26-.305.1-.604.226-.913.315-.62.175-1.252.32-1.882.468-1.25.32-2.48.722-3.677 1.207-1.208.45-2.4.95-3.622 1.37-1.223.41-2.512.624-3.678 1.203-1.207.456-2.417.903-3.636 1.323-.233.08-.49.03-.677-.13-.185-.16-.27-.41-.224-.65.048-.24.22-.44.453-.52l.016-.004z" fill="#CCC8C2" fill-rule="nonzero"/><path d="M39.754 60.93c.81 1.32 1.504 2.684 2.162 4.022.344.665.743 1.3 1.192 1.9.453.626.868 1.28 1.242 1.955.81 1.4 1.253 2.985 1.286 4.604 0 .83-.15 1.654-.442 2.43-.294.8-.782 1.517-1.42 2.086-.178.166-.382.304-.603.408-.27.124-.57.165-.863.12-.455-.1-.877-.31-1.228-.615-.65-.482-1.224-1.056-1.704-1.705-.943-1.29-1.51-2.818-1.636-4.41-.09-.788-.062-1.585.085-2.363.157-.79.48-1.503.664-2.19.18-.71.26-1.444.236-2.178-.007-.746-.075-1.503-.047-2.277.008-.79.14-1.57.39-2.32.28-.75.717-1.43 1.282-1.997.53-.57 1.107-1.098 1.72-1.58.62-.45 1.24-.89 1.908-1.3.675-.43 1.406-.764 2.174-.993.815-.24 1.682-.246 2.5-.018.806.25 1.536.695 2.127 1.294.567.56 1.055 1.19 1.453 1.88.206.332.393.652.588.998.256.4.382.87.362 1.344-.062.462-.25.897-.546 1.258-.228.286-.44.584-.632.893-.37.603-.7 1.39-1.42 1.97-.702.52-1.567.772-2.44.71-.808-.04-1.606-.213-2.36-.508l-2.125-.84c-.703-.276-1.404-.548-2.106-.776-.175-.057-.35-.11-.525-.16l-.244-.062c-.05-.005-.098-.006-.147-.003-.143.01-.282.038-.415.086-.046.015-.09.037-.13.065-.03.018.04.006.065-.155l-1.032-.08c.013-.15.07-.29.16-.406.063-.08.136-.148.22-.205.116-.08.244-.142.378-.188.227-.078.464-.124.704-.137.14-.01.283 0 .423.027l.31.085c.19.056.378.115.562.177.74.25 1.45.534 2.156.823.708.288 1.404.582 2.097.845.636.268 1.323.395 2.014.373.32-.012.637-.068.94-.165.28-.096.54-.235.774-.412.457-.327.767-.952 1.197-1.64.11-.167.235-.348.363-.51l.354-.44c.185-.198.314-.442.373-.706-.004-.265-.088-.522-.24-.738-.18-.31-.38-.64-.575-.946-.196-.306-.4-.613-.618-.9-.203-.29-.426-.57-.667-.83-.45-.515-1.026-.905-1.673-1.13-.652-.172-1.34-.156-1.983.045-.678.212-1.324.516-1.92.903-.617.383-1.23.827-1.835 1.265-.63.365-1.22.796-1.76 1.286-.48.498-.832 1.104-1.028 1.767-.166.677-.24 1.373-.217 2.07.023.72.006 1.474-.022 2.252l-.063 1.184c-.033.406-.093.81-.18 1.208-.09.384-.202.763-.334 1.135-.112.334-.206.675-.28 1.02-.14.687-.18 1.39-.12 2.09.097.696.297 1.374.592 2.013.262.65.586 1.273.968 1.86.386.593.88 1.108 1.46 1.515.238.192.508.34.797.435.1.027.204.022.3-.014.137-.057.264-.135.376-.232.542-.445.964-1.02 1.226-1.672.237-.68.35-1.396.33-2.115-.112-1.453-.56-2.86-1.31-4.113-.7-1.292-1.462-2.604-2.254-3.926-.413-.645-.75-1.325-1.117-1.98-.365-.656-.734-1.302-1.136-1.924l.884-.547z" fill="#CCC8C2" fill-rule="nonzero"/><path d="M25.77 92.225c1.393-.48 2.828-.835 4.177-1.45 1.386-.5 2.81-.883 4.212-1.34.7-.227 1.406-.44 2.113-.645.706-.213 1.414-.42 2.125-.615.707-.207 1.398-.465 2.106-.67.708-.206 1.412-.422 2.105-.675.696-.237 1.405-.44 2.104-.672.713-.19 1.366-.563 2.073-.77l4.172-1.463c.703-.218 1.42-.395 2.114-.644.7-.232 1.388-.493 2.097-.697l1.065-.302c.35-.118.7-.232 1.045-.358l2.08-.747.218.652-2.092.712-1.047.355-1.033.4c-.692.253-1.403.448-2.11.66-.71.203-1.407.44-2.11.656-1.436.353-2.804.91-4.196 1.397-.67.313-1.444.32-2.116.634-.69.268-1.362.58-2.064.802-.354.102-.717.177-1.066.296l-1.045.36c-.352.112-.7.233-1.054.336-.357.094-.708.206-1.053.336-.677.295-1.384.518-2.11.663-.36.077-.705.21-1.056.32l-1.074.274c-1.43.368-2.786.96-4.18 1.44-1.43.37-2.79.95-4.19 1.413l-.213-.655zM26.327 93.96c1.146-.33 2.273-.725 3.373-1.186 1.12-.414 2.276-.71 3.41-1.077.565-.184 1.138-.35 1.71-.514.573-.17 1.146-.33 1.724-.483.573-.163 1.13-.378 1.705-.54.573-.16 1.143-.332 1.7-.542.565-.193 1.14-.35 1.705-.54.58-.147 1.098-.475 1.67-.642l3.37-1.197c.57-.175 1.154-.31 1.714-.514.564-.188 1.12-.406 1.694-.567l.863-.237c.282-.097.566-.187.844-.293l1.68-.616.22.652-1.69.58-.847.29-.83.34c-.56.198-1.136.358-1.71.523-.574.158-1.137.353-1.708.524-1.152.31-2.285.687-3.392 1.13-.54.27-1.178.235-1.717.505-.554.222-1.093.49-1.662.668-.287.08-.583.134-.864.232l-.844.295c-.285.09-.565.19-.853.27-.29.07-.574.162-.852.27-.542.252-1.116.43-1.706.532-.29.067-.577.152-.857.255l-.873.207c-1.163.28-2.252.783-3.377 1.175-1.162.283-2.255.776-3.386 1.152l-.213-.657z" fill="#CCC9C3" fill-rule="nonzero"/><path d="M27.563 43.366c.23.72.312 1.483.236 2.237l-.197 1.112-.148.55-.2.536c-.705 1.383-1.95 2.414-3.438 2.853-1.464.452-3.048.28-4.377-.477-.157-.1-.316-.196-.477-.288l-.454-.32c-.144-.12-.283-.242-.418-.37-.124-.138-.254-.27-.373-.412-.453-.584-.81-1.236-1.056-1.932-.22-.705-.297-1.447-.227-2.183.044-.74.224-1.467.53-2.144.68-1.364 1.87-2.407 3.315-2.902.73-.2 1.49-.27 2.245-.21.755.047 1.49.255 2.158.61l.475.302.444.343c.14.12.286.24.423.365l.39.402c.507.56.896 1.217 1.146 1.93zm-.657.21c-.21-.63-.544-1.215-.98-1.72-.11-.122-.23-.237-.345-.36l-.375-.322c-.137-.095-.282-.175-.42-.264l-.44-.223c-.59-.288-1.223-.48-1.875-.566-.66-.073-1.33-.008-1.965.19-.656.156-1.262.474-1.763.924-.496.448-.9.988-1.192 1.59l-.192.457c-.056.158-.122.31-.2.457-.068.154-.122.314-.162.477-.02.166-.04.333-.05.5.006.662.12 1.318.335 1.944.055.154.096.314.146.47.058.156.124.307.2.454.083.14.176.278.266.416.098.133.21.255.308.386.108.124.225.24.336.362.12.112.25.215.366.332.25.22.527.403.826.545.617.238 1.25.43 1.897.57.165.027.332.04.5.043.166-.012.334-.017.5-.034l.503-.044.502-.092c.666-.17 1.278-.503 1.78-.972.497-.462.903-1.01 1.2-1.62l.224-.45.18-.473c.042-.163.102-.323.128-.49.013-.17.034-.337.036-.507.033-.67-.06-1.34-.274-1.975h.002zM27.106 39.424c.3-.2.6-.41.924-.586.33-.18.647-.38.947-.607.704-.352 1.493-.5 2.277-.428.37.033.734.094 1.093.185.334.075.673.128 1.014.16.338-.008.673-.06.995-.16.338-.08.66-.218.948-.408.306-.172.602-.36.887-.562.308-.18.487-.523.778-.735.54-.51 1.138-.954 1.782-1.326.355-.14.72-.258 1.09-.353.367-.107.747-.165 1.13-.17.384.05.76.078 1.145.15.41.07.797.246 1.12.51l-.482.493c-.23-.187-.505-.316-.796-.375-.157-.036-.317-.058-.477-.065-.164.002-.328.018-.49.047-.327.015-.653.048-.976.1-.326.062-.642.166-.942.31-.668.187-1.163.713-1.685 1.188-.126.13-.274.238-.44.316-.17.072-.325.18-.452.315-.26.273-.555.513-.875.714-.366.126-.703.303-1.07.44-.187.064-.38.11-.575.137-.198.022-.397.02-.592.055-.382.078-.78.036-1.136-.12-.17-.05-.347-.085-.525-.1l-.504-.13c-.685-.15-1.34.176-1.943.47-.334.1-.647.26-.922.475l-.857.624-.39-.566zM29.355 46.442c.3-.2.6-.41.923-.586.33-.18.647-.382.947-.607.704-.354 1.493-.503 2.278-.43.368.033.733.094 1.092.185.334.075.673.128 1.015.16.336-.008.67-.06.993-.16.337-.08.658-.218.948-.408.307-.17.603-.358.888-.56.308-.18.486-.523.778-.736.54-.508 1.138-.953 1.78-1.325.357-.14.72-.26 1.092-.353.367-.108.747-.165 1.13-.17.384.05.76.077 1.145.15.41.07.797.245 1.12.51l-.482.492c-.23-.187-.503-.315-.795-.374-.157-.037-.317-.058-.477-.066-.164.002-.328.018-.49.048-.326.015-.653.048-.976.1-.326.06-.642.166-.94.31-.67.187-1.164.712-1.687 1.188-.126.13-.274.238-.44.315-.17.072-.325.18-.452.315-.26.274-.555.514-.875.715-.367.125-.703.303-1.07.44-.187.063-.38.11-.575.137-.198.02-.396.02-.592.055-.38.078-.778.037-1.134-.12-.172-.05-.348-.084-.526-.1l-.504-.128c-.685-.154-1.34.174-1.943.467-.334.1-.647.26-.923.476l-.856.623-.39-.564zM27.856 41.763c.3-.2.598-.41.923-.586.33-.178.646-.38.947-.606.703-.352 1.493-.5 2.277-.428.368.033.734.095 1.092.185.335.075.673.128 1.015.16.338-.007.672-.06.994-.16.338-.08.66-.218.948-.408.306-.17.602-.36.887-.562.307-.18.486-.522.777-.735.54-.51 1.138-.954 1.78-1.326.357-.14.722-.26 1.092-.353.367-.108.747-.165 1.13-.17.383.05.76.077 1.145.15.41.07.796.246 1.12.51l-.483.492c-.23-.187-.504-.315-.796-.374-.157-.036-.316-.058-.477-.066-.165.003-.33.018-.49.048-.327.015-.653.048-.977.1-.326.06-.642.166-.94.31-.67.187-1.164.712-1.687 1.188-.125.13-.274.238-.44.315-.17.072-.324.18-.45.315-.262.274-.556.514-.877.715-.367.126-.704.303-1.07.44-.188.063-.38.11-.575.137-.198.02-.397.02-.593.055-.382.077-.778.036-1.135-.12-.17-.052-.347-.085-.526-.1l-.503-.13c-.685-.152-1.34.176-1.943.47-.334.1-.647.26-.922.475l-.857.624-.39-.567zM28.605 44.103c.3-.2.6-.41.924-.587.33-.178.646-.38.946-.606.704-.354 1.493-.502 2.277-.43.37.033.734.095 1.093.186.334.075.673.128 1.014.16.337-.008.672-.062.994-.16.338-.08.66-.218.948-.41.306-.17.602-.356.887-.56.307-.178.486-.522.777-.734.54-.51 1.138-.954 1.78-1.327.357-.14.722-.258 1.092-.352.366-.108.746-.165 1.13-.17.382.05.76.077 1.144.15.41.07.797.245 1.12.51l-.482.492c-.23-.187-.505-.315-.797-.374-.156-.036-.316-.058-.477-.065-.164.002-.327.018-.488.047-.328.015-.654.05-.977.1-.326.062-.643.166-.942.31-.667.188-1.162.713-1.684 1.188-.126.132-.274.24-.44.316-.17.072-.325.18-.452.315-.26.275-.555.515-.875.716-.367.125-.704.302-1.072.44-.186.063-.38.11-.574.137-.198.02-.397.02-.592.054-.382.08-.78.037-1.136-.12-.17-.05-.347-.084-.525-.098l-.503-.13c-.685-.153-1.34.175-1.943.468-.335.1-.647.26-.922.476l-.857.623-.39-.564z" fill="#D2CFC7" fill-rule="nonzero"/><path d="M18.496 45.494c.122-1.25.832-2.37 1.912-3.017 1.08-.647 2.405-.745 3.568-.265M21.468 48.846c1.86.17 4.68-1.64 4.26-3.797" stroke="#D2CFC7" stroke-width="2"/><path d="M23.46 90.447c1.245-.677 2.49-1.338 3.675-2.074 1.192-.708 2.253-1.617 3.135-2.686.875-1.03 1.725-2.19 2.06-3.42.077-.3.105-.61.084-.92-.005-.245-.074-.485-.202-.696-.012-.013-.046-.032-.17-.002-.145.044-.286.103-.42.174-.302.144-.592.31-.868.498-1.11.774-1.975 1.847-2.496 3.093-.266.612-.417 1.267-.445 1.934-.043.632.178 1.253.61 1.717.23.19.524.284.82.26.335-.038.663-.114.98-.224.67-.183 1.32-.423 1.95-.715.612-.285 1.145-.716 1.55-1.256.408-.527.585-1.194.493-1.85l.184.17c-.36.01-.676.25-.78.594-.155.342-.12.74.094 1.05.466.617 1.46.688 2.18.36.76-.344 1.29-1.047 1.826-1.725.53-.75 1.218-1.376 2.014-1.836l.446-.22-.038.493c.036.46.403.82.864.853.104.013.21.002.308-.034.1-.035.192-.093.267-.168.188-.194.35-.41.482-.645.165-.294.384-.556.645-.77.163-.12.35-.2.55-.232.182-.023.367-.02.547.014.273.056.55.086.83.088.268-.005.537-.04.8-.1 1.094-.268 2.07-.887 2.78-1.76.717-.92 1.333-1.91 1.84-2.957l.395.46c-.633.264-.955.968-.742 1.616.13.317.392.56.717.672.32.122.674.107.982-.04.31-.153.597-.462 1.018-.693.41-.2.854-.316 1.308-.343.842-.073 1.68-.046 2.192-.476l.43.537c-.383.286-.838.46-1.315.507-.442.06-.86.06-1.252.096-.365.016-.724.104-1.055.26-.298.15-.586.463-1.035.696-.47.226-1.013.25-1.5.063-.495-.173-.902-.534-1.13-1.005-.214-.49-.213-1.048.004-1.538.2-.502.61-.894 1.12-1.076l1.08-.37-.544.993c-.546 1.087-1.212 2.11-1.985 3.048-.81.99-1.913 1.694-3.15 2.013-.317.07-.642.102-.967.094-.315-.014-.627-.058-.934-.13-.208-.066-.434-.035-.617.083-.202.162-.37.363-.49.59-.16.284-.357.544-.586.774-.285.273-.675.407-1.067.367-.374-.037-.725-.2-.995-.46-.292-.275-.453-.66-.44-1.06l.513.343c-.707.426-1.316.997-1.787 1.674-.286.35-.604.674-.952.965-.358.31-.752.575-1.173.793-.453.218-.958.306-1.458.255-.54-.045-1.04-.3-1.39-.713-.355-.468-.44-1.09-.22-1.636.096-.28.27-.526.505-.71.26-.204.585-.302.914-.275l.34.036.044.32c.08.81-.145 1.624-.63 2.282-.447.632-1.05 1.14-1.747 1.478-.658.322-1.348.574-2.058.752-.366.117-.74.195-1.122.232-.45.033-.895-.093-1.26-.357-.337-.27-.59-.63-.728-1.04-.14-.373-.203-.77-.19-1.168.033-.76.214-1.502.533-2.19.285-.682.662-1.32 1.12-1.902.478-.56 1.032-1.05 1.645-1.455.307-.2.63-.375.962-.526.17-.084.348-.155.53-.214.233-.08.49-.042.69.1.17.145.29.34.342.555.055.183.093.37.112.56.034.377.01.756-.07 1.126-.178.714-.47 1.394-.87 2.014-.38.614-.81 1.196-1.29 1.74-.494.525-1.027 1.013-1.594 1.46-.57.44-1.15.86-1.738 1.27-1.193.795-2.452 1.457-3.68 2.15l-.33-.6z" fill="#CCC9C3" fill-rule="nonzero"/><path fill="#D2CFC7" fill-rule="nonzero" d="M45.565 30.938l9.256-2.964 3.837 11.98-9.256 2.964z"/><path d="M59.12 40.19l-2.375.815c-.397.138-.843.23-1.223.38-.38.148-.752.31-1.125.48-.774.335-1.567.626-2.374.872-.815.254-1.63.5-2.442.735l-.025.006c-.302.088-.62-.083-.71-.384l-.904-3.013c-.276-1.01-.578-2.013-.842-3.03-.134-.507-.256-1.02-.427-1.513l-.247-.748-.224-.754c-.157-.5-.283-1.01-.435-1.51-.135-.507-.33-.998-.495-1.496-.053-.16.033-.332.193-.386l.008-.002c.768-.26 1.554-.466 2.324-.713.385-.126.777-.23 1.156-.373.38-.143.743-.338 1.125-.473l2.296-.796c.767-.264 1.538-.51 2.3-.79.248-.09.524.035.617.284v.003l.014.038c.183.507.36 1.02.52 1.533l.428 1.556c.29 1.032.662 2.057.982 3.092.177.518.285 1.03.405 1.534.128.508.306 1.024.463 1.537l1.02 3.114zm-.92-.473l-1.026-2.913c-.18-.485-.333-.965-.545-1.454-.21-.47-.395-.95-.555-1.44-.312-.95-.567-1.907-.867-2.87l-.447-1.45c-.137-.485-.254-.98-.382-1.475l.584.3c-.39.11-.774.238-1.156.374-.384.127-.764.27-1.143.412-.758.288-1.52.563-2.29.816-.383.132-.804.145-1.198.242-.387.12-.766.266-1.143.415-.75.31-1.494.647-2.268.884l.424-.824c.242 1.02.544 2.027.907 3.012l.236.75c.07.253.134.507.21.758.143.506.328 1 .552 1.474.384.978.442 2.06.82 3.04.298 1.005.446 2.058.79 3.05l-.396-.204c.753-.247 1.486-.534 2.218-.795.726-.282 1.468-.523 2.22-.723.39-.095.784-.19 1.164-.302.38-.11.705-.27 1.075-.385l2.216-.693z" fill="#D2CFC7" fill-rule="nonzero"/><g stroke="#232B35" fill-rule="nonzero" stroke-width="3" fill="#232B35" stroke-linecap="round"><path d="M47.463 30.295l.09.282M53.044 28.51l.09.28"/></g><g stroke="#232B35" fill-rule="nonzero" stroke-width="3" fill="#232B35" stroke-linecap="round"><path d="M52.675 41.76l.09.282M54.07 41.313l.09.283M55.465 40.866l.09.283M56.86 40.42l.09.283M58.256 39.973l.09.283"/></g><g stroke="#232B35" fill-rule="nonzero" stroke-width="3" fill="#232B35" stroke-linecap="round"><path d="M45.836 31.347l-.226.072M47.158 35.474l-.226.072M47.603 36.864l-.225.073M48.05 38.255l-.227.072M48.495 39.646l-.226.072M48.94 41.036l-.226.073M49.386 42.427l-.226.073"/></g><g stroke="#232B35" fill-rule="nonzero" stroke-width="3" fill="#232B35" stroke-linecap="round"><path d="M56.05 31.116l-.28.09M55.61 29.74l-.282.09M55.175 28.38l-.282.09M56.497 32.506l-.282.09M56.943 33.897l-.282.09M57.834 36.678l-.282.09"/></g><path d="M46.954 32.294c.335 1.25.88 2.437 1.106 3.718.027.16.13.298.168.456.02.078.004.167.025.245.013.08.087.143.096.224.088.31.153.628.25.936.136.296.06.655.253.935.048.154.055.32.09.478.04.157.09.31.15.46.103.306.197.615.276.93.04.156.095.308.167.453.065.148.142.28.22.29.127 0 .25-.034.36-.097.15-.064.305-.112.465-.142.31-.096.583-.29.89-.397.16-.034.315-.092.458-.17.15-.067.31-.108.474-.123.3-.125.625-.182.918-.33.16-.028.32-.065.477-.11.146-.07.302-.123.462-.156.162-.027.32-.078.465-.152.152-.06.308-.11.467-.15l.084.34c-.154.044-.31.083-.47.11-.16.013-.318.06-.46.135-.148.07-.304.114-.464.135-.153.055-.3.123-.442.203-.33.027-.61.21-.934.26-.075.028-.142.082-.215.117-.073.034-.15.06-.23.078-.16.027-.313.08-.456.156-.3.125-.628.168-.92.315-.133.096-.278.173-.432.23-.19.102-.412.123-.616.058-.116-.053-.207-.147-.257-.262-.036-.085-.057-.175-.063-.267-.008-.165-.05-.325-.126-.47-.14-.292-.254-.597-.337-.91-.012-.164-.048-.324-.107-.476-.085-.14-.158-.286-.22-.438-.02-.078.015-.173.005-.254-.018-.08-.054-.157-.105-.222-.09-.137-.146-.294-.163-.457-.063-.318-.168-.624-.243-.94-.034-.073.002-.168-.026-.244-.02-.08-.08-.146-.1-.224-.047-.155-.035-.326-.09-.48-.16-.624-.36-1.238-.577-1.847l-.115-.472c-.03-.16-.087-.313-.167-.455-.088-.31-.193-.616-.317-.914l.324-.106zM48.377 30.472c1.32-.44 2.6-1.04 3.99-1.243.175-.026.33-.125.5-.158.085-.02.18 0 .264-.016.09-.01.16-.08.25-.086.173-.033.337-.07.52-.096.217-.05.447.004.618.148.133.146.212.335.223.533.008.087.027.173.057.256.028.084.09.154.113.237.057.165.07.342.112.51.048.165.106.33.172.488.116.327.22.656.31.99.112.328.242.65.39.964.145.314.25.646.318.986.09.335.278.637.377.968.03.17.085.337.16.493.066.162.105.333.12.507.12.324.178.67.333.982.03.17.072.34.123.506.076.155.135.32.176.488.035.17.096.334.18.486.072.158.134.32.186.485l-.333.11c-.06-.163-.11-.328-.15-.496-.024-.173-.08-.34-.165-.492-.077-.156-.13-.323-.156-.495-.06-.163-.133-.322-.217-.475-.033-.353-.216-.656-.266-1.004-.087-.15-.152-.313-.192-.483-.024-.172-.075-.34-.15-.497-.12-.324-.15-.677-.293-.995-.17-.304-.294-.63-.37-.97-.05-.167-.087-.337-.11-.51-.015-.174-.064-.343-.144-.498-.15-.312-.276-.636-.372-.97-.02-.173-.062-.342-.128-.503-.09-.15-.17-.306-.24-.467-.008-.09-.01-.18-.008-.27-.023-.085-.063-.165-.118-.234-.072-.118-.136-.243-.19-.372-.06-.15-.486-.012-.807.038-.083.03-.18-.01-.262.014-.087.017-.162.074-.245.09-.168.042-.35.027-.515.076-.674.154-1.338.353-1.986.595l-.502.136c-.17.037-.333.102-.483.19-.33.107-.65.235-.963.383l-.125-.328z" fill="#F9FAFB" fill-rule="nonzero"/><path d="M54.082 36.2c-.108.016-.22.008-.324-.024l-.174-.055c-.11-.04-.222-.075-.336-.107-.12-.005-.236-.026-.35-.06-.108-.05-.224-.082-.343-.095-.236-.036-.476-.03-.714-.054-.236-.032-.47-.076-.704-.132-.122-.012-.238 0-.355-.015l-.352-.068c-.24-.06-.478-.102-.727-.175-.123-.044-.24-.057-.356-.094-.117-.027-.21-.123-.318-.17-.054-.026-.122-.018-.18-.038-.056-.02-.11-.045-.166-.068l-.168-.072-.046-.02-.012-.006-.026-.016c-.077-.05-.1-.152-.053-.23l.007-.01.007-.01.056-.07.464-.56c.137-.203.382-.307.525-.502.142-.197.322-.364.53-.49.187-.15.35-.33.53-.49.187-.15.373-.3.572-.443.21-.12.404-.26.582-.423l.537-.47c.09-.074.177-.15.26-.23.034-.04.084-.075.115-.11l.045-.042c.005 0 .016-.016.015-.01-.007.015-.004.034.008.046l.278-.085c.082.447.38.824.428 1.28.085.21.147.428.186.65 0 .114.016.227.045.336.04.106.067.216.082.327-.016.234.157.426.148.658.008.227.046.45.112.666.07.216.02.45.105.665.03.11.066.22.082.33.027.163.022.33-.015.49zm-.222-.27c-.06-.086-.104-.107-.104-.173-.013-.11-.02-.222-.022-.333.012-.23-.132-.43-.14-.653-.01-.222-.06-.442-.148-.648-.118-.2.014-.455-.127-.653-.035-.108-.05-.22-.05-.332-.017-.11-.053-.217-.106-.316-.068-.212-.118-.43-.15-.65-.194-.404-.172-.877-.403-1.27l.318-.096c.01.05.008.1-.005.15-.008.023-.018.047-.03.07-.015.04-.036.075-.06.107-.04.055-.087.106-.137.15-.096.085-.192.163-.29.238-.195.146-.402.274-.62.385-.222.09-.424.227-.592.4-.17.158-.348.32-.526.473-.2.13-.386.278-.56.44-.157.18-.227.438-.49.512-.102.065-.18.164-.217.28-.05.107-.122.203-.21.283-.17.164-.324.34-.464.53l-.054.07-.007.01c.03-.038.04-.084.036-.13-.005-.052-.033-.1-.075-.13-.038-.022-.017-.01-.02-.01l.007.003.034.016.16.07c.053.025.11.045.164.072.053.027.096.082.152.103.116.025.23.058.343.1.107.05.215.122.316.16.46.11.926.19 1.396.24.48.018.956.092 1.42.22.117.03.238.042.36.04.12.012.24.043.352.09l.358.066.17.042c.02-.005.002.028.024.076z" fill="#F9FAFB" fill-rule="nonzero"/><path d="M53.662 34.474c-.25-.064-.514-.055-.758.028-.262.028-.503.157-.672.36-.088.09-.184.172-.287.246-.095.084-.163.196-.194.32-.138.21-.223.454-.245.706.003.133.02.265.048.394.007.066-.03.137-.02.205-.002.07.062.128.06.197.022.264.078.525.166.775.046.12.13.197.185.316.033.057.078.105.132.14.057.033.13.03.185.064.118.048.23.127.362.167.132.034.27.045.405.033.27-.002.543-.024.81-.067.267-.06.516-.175.73-.34.103-.074.2-.155.29-.243.07-.094.165-.176.245-.282.108-.236.168-.49.176-.75.042-.124.045-.257.01-.382-.02-.128-.024-.26-.016-.388-.053-.257-.17-.496-.34-.697-.052-.12-.127-.23-.22-.326-.11-.07-.216-.148-.318-.23-.098-.092-.223-.148-.356-.16-.13-.03-.25-.06-.378-.083zm.06-.344c.15.027.294.073.43.137.068.034.133.07.196.112.067.033.136.062.207.087.072.026.14.065.195.116.052.056.1.116.155.165.102.11.23.195.337.307.15.262.26.545.324.84.02.07.062.138.085.21.017.075.023.15.02.227-.022.15-.03.3-.025.45-.056.293-.156.576-.295.84-.088.31-.315.564-.616.684-.134.07-.28.115-.428.136-.146.01-.29.044-.424.102-.274.11-.57.156-.864.136-.143-.04-.29-.07-.437-.084-.156.01-.313-.01-.462-.06-.07-.04-.113-.13-.17-.18-.064-.052-.136-.092-.214-.117-.078-.038-.145-.093-.198-.16-.043-.072-.08-.148-.106-.226-.09-.28-.154-.57-.186-.865-.023-.07.026-.15.01-.22-.007-.07-.053-.136-.056-.21-.014-.145.04-.293.038-.438.02-.295.1-.584.233-.848.07-.13.17-.24.245-.37.075-.13.18-.24.308-.323.252-.17.54-.23.805-.38.293-.068.595-.09.895-.07z" fill="#FFF" fill-rule="nonzero"/><g transform="translate(120 26)" fill-rule="nonzero"><path d="M46.167 23.63c0 6.09-2.41 11.928-6.697 16.234-4.29 4.305-10.104 6.724-16.17 6.724-3.195 0-19.39-3.415-15.328-9.614.795-1.213 2.355-1.72 3.802-1.677 1.446.043 2.832.54 4.224.935C22.172 37.98 29.743 37.3 33.66 32.2c2.97-3.864 3.012-9.554.62-13.803-2.39-4.248-6.902-7.06-11.672-8-3.393-.67-7.124-.544-9.964-2.526C6.007 3.24 20.58.673 23.3.673c6.065 0 11.88 2.418 16.17 6.724 4.288 4.305 6.697 10.145 6.697 16.234z" fill="#F9F7F5"/><path d="M46.68 23.63l-.137 2.298c-.097.76-.246 1.515-.377 2.27-.165.747-.412 1.473-.562 2.225-.19.744-.433 1.472-.732 2.18-.326.693-.744 1.34-1.063 2.033l-1.145 1.985-1.3 1.893c-.487.59-.98 1.18-1.484 1.762-.56.524-1.1 1.075-1.683 1.576-.616.463-1.252.898-1.893 1.316-.674.37-1.322.774-1.978 1.17-.68.348-1.338.757-2.04 1.07-.358.14-.72.273-1.084.393-.365.118-.722.263-1.095.355-.75.172-1.492.365-2.244.5l-2.276.276c-.764.033-1.525.05-2.286.1-.76-.036-1.52-.074-2.287-.077-.76-.052-1.524-.144-2.28-.27-.75-.162-1.456-.496-2.19-.687-.715-.258-1.478-.396-2.184-.695-.7-.307-1.378-.666-2.067-.998-.663-.378-1.303-.8-1.952-1.204-.615-.45-1.213-.928-1.82-1.39L6.83 40.163c-.508-.57-1.035-1.123-1.535-1.7-.458-.612-.88-1.252-1.285-1.896-.35-.68-.715-1.345-1.102-1.997-.325-.683-.77-1.316-1.063-2.02-.14-.355-.25-.72-.377-1.08-.13-.358-.24-.723-.334-1.092l-.46-2.233c-.08-.755-.23-1.497-.328-2.248l-.15-2.27c.017-.76.054-1.518.1-2.276.096-.75.227-1.5.34-2.25.162-.742.375-1.472.558-2.208.226-.723.533-1.418.795-2.13.306-.692.662-1.36.98-2.05.346-.67.736-1.32 1.102-1.988.413-.635.85-1.257 1.283-1.885L6.84 7.1c.552-.524 1.095-1.065 1.663-1.576.607-.463 1.205-.94 1.823-1.392.646-.408 1.294-.817 1.97-1.178.704-.3 1.398-.622 2.105-.9l1.077-.38c.358-.13.706-.292 1.07-.397.737-.19 1.46-.437 2.202-.624.75-.136 1.5-.287 2.257-.406C21.77.184 22.534.11 23.3.107c.766.07 1.525.16 2.29.168.76.077 1.517.195 2.28.284.38.05.748.17 1.12.257.374.088.742.198 1.11.307.722.258 1.403.626 2.113.9.347.156.685.335 1.028.497L34.28 3c.675.36 1.324.76 1.946 1.204.582.493 1.195.95 1.834 1.365.612.458 1.193.956 1.74 1.492l1.463 1.762.66.934c.223.31.46.608.67.924.403.645.84 1.273 1.224 1.933.36.673.682 1.367.96 2.08.225.73.48 1.447.732 2.166.194.735.458 1.457.644 2.2.156.748.278 1.507.386 2.266l.14 2.304zm-1.027 0l-.105-2.2c-.085-.732-.223-1.452-.292-2.186-.05-.365-.15-.72-.222-1.08-.07-.362-.155-.722-.247-1.08-.23-.7-.502-1.384-.813-2.052-.343-.652-.685-1.298-.985-1.967-.33-.653-.71-1.284-1.07-1.926-.427-.597-.89-1.168-1.35-1.738l-1.554-1.55c-.56-.473-1.08-.99-1.555-1.546-.533-.504-1.12-.947-1.75-1.322-.33-.164-.648-.344-.963-.53l-.922-.595c-.627-.38-1.28-.717-1.952-1.01-.346-.12-.697-.23-1.05-.33-.352-.102-.698-.216-1.052-.305-.714-.148-1.41-.37-2.117-.55-.717-.128-1.432-.3-2.158-.402-.728-.066-1.465-.064-2.195-.068-2.91.043-5.896.392-8.584 1.626-.658.33-1.285.72-1.924 1.07-.318.177-.615.395-.923.59l-.934.57c-.593.423-1.17.872-1.755 1.305-.54.49-1.09.968-1.642 1.45L6.034 9.402c-.45.577-.926 1.138-1.396 1.708-.42.603-.852 1.21-1.225 1.85-.324.665-.646 1.332-.904 2.025C1.515 17.76.99 20.683.947 23.632c.013.733-.002 1.47.003 2.21.073.735.182 1.466.328 2.19.085.36.193.712.323 1.058l.358 1.043c.285.678.573 1.348.822 2.033.28.67.455 1.397.734 2.084.355.645.766 1.258 1.227 1.832.5.536.97 1.097 1.408 1.682l1.425 1.66c.528.5 1.048 1.015 1.59 1.506.583.437 1.158.89 1.75 1.316.625.377 1.238.778 1.87 1.144.657.317 1.303.662 1.97.96.344.12.682.264 1.01.43.32.18.66.326 1.014.434.713.185 1.445.28 2.157.44.725.1 1.438.277 2.163.406.728.086 1.466.133 2.202.177 5.974.054 11.708-2.365 15.852-6.688l1.515-1.608c.447-.585.91-1.16 1.346-1.756l.59-.938c.205-.308.395-.625.568-.952.16-.335.305-.676.444-1.018.138-.343.29-.68.41-1.027.12-.348.224-.702.36-1.044.122-.346.296-.677.405-1.03.102-.353.195-.71.275-1.07.08-.36.185-.714.238-1.08l.27-2.192.08-2.204z" fill="#EAEAE6"/><path d="M32.804 38.243c-.02.294-.033.59-.063.88-.042.294-.12.585-.187.872-.096.284-.206.562-.275.856-.065.302-.195.586-.38.83-.097.122-.207.23-.307.345-.098.113-.228.2-.326.315-.108.103-.19.234-.305.332l-.336.3c-.228.198-.465.383-.712.556-.252.16-.513.308-.78.44-.27.124-.546.228-.83.314-.283.068-.573.11-.865.124-.285.027-.57.068-.85.125-.28.06-.557.158-.84.19-.563.053-1.13.05-1.695-.008-.56-.034-1.12-.07-1.68-.076-.28-.015-.56-.014-.842.003-.282.03-.567.032-.85.004-.283-.03-.55-.194-.83-.24-.274-.066-.583.033-.855-.064-.28-.063-.557-.152-.837-.227-.276-.094-.55-.197-.818-.312-.54-.246-1.05-.557-1.52-.923-.496-.352-.882-.84-1.113-1.404-.085-.293-.187-.567-.292-.836-.05-.136-.122-.266-.187-.4l-.1-.2c-.022-.07-.04-.14-.053-.214-.08-.574-.077-1.156.005-1.73.043-.28.043-.564.06-.846l.078-.85c.2-1.125.647-2.192 1.308-3.123.34-.452.654-.917.99-1.382.165-.236.35-.457.555-.66.197-.21.41-.41.633-.59.11-.094.218-.193.332-.282l.36-.247.36-.245.39-.2c.514-.275 1.077-.45 1.657-.515.563-.125 1.117-.27 1.69-.38.29-.036.578-.104.87-.115.294-.014.587-.004.878.03.28.09.568.15.86.187l.864.15c.145.025.287.066.423.123.14.046.276.102.407.168.27.12.487.346.74.483.476.32 1.07.476 1.452.94.1.107.21.2.315.298.105.1.222.188.348.258.13.07.252.153.37.244.1.104.196.214.286.328.086.118.172.236.254.356.072.13.15.25.225.374.157.242.314.482.455.73.368.45.64.97.803 1.527.063.285.156.555.238.83.073.278.227.54.294.822.076.283.135.57.176.86.027.29.037.584.056.876zm-1.028 0c-.015-.26-.036-.522-.043-.783-.013-.26-.067-.516-.076-.782 0-.533-.15-1.056-.432-1.507-.135-.223-.256-.455-.362-.694-.077-.252-.183-.493-.317-.72-.066-.113-.14-.222-.22-.326l-.266-.29c-.09-.094-.18-.19-.276-.28-.106-.078-.207-.16-.306-.245-.408-.3-.508-.977-1.06-1.133-.236-.112-.453-.26-.643-.44-.182-.192-.4-.346-.642-.453-.123-.05-.248-.09-.376-.123-.126-.037-.254-.068-.383-.092-.247-.077-.49-.168-.728-.27-.24-.104-.487-.192-.738-.265-.256-.057-.517-.082-.78-.074-.26.01-.52-.006-.778-.043l-.785-.032c-.264-.003-.527.016-.787.06-.263.025-.52.092-.764.197-.242.108-.476.234-.7.377l-.69.344c-.233.11-.46.233-.68.368-.11.065-.22.13-.337.19-.11.065-.214.14-.324.21-.222.136-.433.288-.633.455-.206.16-.428.307-.636.474-.448.3-.8.722-1.016 1.217-.226.48-.426.97-.6 1.468l-.228.75c-.056.253-.126.505-.21.752-.07.252-.156.504-.228.763-.05.26-.067.527-.05.792.07.534.31 1.028.386 1.51.02.25-.043.52-.015.785.077.243.22.46.414.627.103.072.2.152.29.24.04.04.08.085.116.132.038.042.085.08.122.125.08.086.15.183.223.275.08.09.167.173.257.252.7.688 1.72 1.006 2.73 1.272.133.02.262.064.38.13.115.076.246.124.383.14.268.036.544-.027.813-.002.272.03.54.08.802.153.27.05.54.083.813.104 1.09.055 2.183.03 3.27-.08.54-.005 1.08-.09 1.596-.255.26-.077.5-.206.755-.273.254-.073.497-.158.748-.236.244-.086.485-.18.728-.275l.343-.175c.12-.052.23-.12.33-.2.44-.273.776-.682.96-1.166.07-.105.104-.228.165-.337.06-.11.134-.215.204-.322.098-.236.167-.483.207-.736.016-.262.046-.516.07-.774l.006-.777z" fill="#EAEAE6"/><path d="M29.707 27.452c0 3.562-2.876 3.883-6.422 3.883-3.547 0-6.423-.32-6.423-3.883 0-3.56 2.875-6.448 6.423-6.448 3.547 0 6.422 2.887 6.422 6.448z" fill="#FFF"/><path d="M30.22 27.452c-.014.215-.023.427-.05.638-.04.214-.09.425-.15.633-.086.204-.157.414-.215.627-.036.23-.14.442-.294.614-.078.086-.168.16-.248.238-.094.064-.183.134-.267.21-.467.468-1.02.842-1.627 1.102-.197.08-.4.144-.61.19-.207.033-.417.042-.626.025-.204-.006-.408.01-.61.048-.195.057-.394.103-.596.137-.4.024-.803.002-1.2-.065-.39-.048-.786-.073-1.18-.078-.2-.008-.4 0-.597.023-.2.04-.402.053-.604.04-.202-.023-.393-.16-.59-.19-.102-.02-.208-.017-.31.01-.1.022-.206.02-.307-.007-.846-.144-1.647-.483-2.34-.988-.18-.136-.346-.287-.5-.45-.068-.092-.128-.19-.178-.29l-.076-.15c-.017-.055-.028-.112-.043-.167-.056-.22-.107-.424-.173-.623-.112-.183-.198-.38-.254-.59-.036-.206-.037-.42-.003-.627l.038-.31c.025-.098.044-.198.056-.3.036-.2.034-.4.065-.602.03-1.026.4-2.015 1.05-2.81.134-.15.258-.31.37-.476.12-.163.24-.327.35-.503.24-.337.524-.642.842-.908.315-.278.665-.513 1.042-.698.374-.197.787-.307 1.21-.323.406-.076.803-.188 1.217-.272.413-.105.842-.13 1.263-.068.198.077.406.128.617.152.204.05.417.064.628.102.208.046.41.12.6.218.186.107.336.283.513.386.33.256.783.328 1.035.693.127.168.287.306.47.406.1.042.193.097.278.164.074.075.142.154.205.238.117.176.224.357.32.544.11.177.215.355.317.533.28.31.48.687.58 1.093.04.205.092.406.16.602.054.198.183.38.238.584.062.202.11.408.14.617.027.21.033.422.048.632zm-1.026 0c-.01-.18-.03-.36-.03-.54-.003-.18-.044-.356-.044-.54.032-.372-.073-.742-.297-1.04-.107-.147-.195-.306-.263-.474l-.078-.263c-.034-.084-.074-.166-.118-.245-.047-.078-.098-.152-.154-.224l-.194-.193c-.067-.062-.132-.125-.203-.182l-.222-.158c-.068-.055-.13-.12-.18-.193-.044-.085-.085-.17-.12-.26-.065-.178-.214-.314-.398-.36-.17-.06-.324-.165-.442-.304-.113-.146-.26-.263-.428-.34-.176-.052-.355-.092-.537-.12-.172-.043-.338-.11-.494-.198-.164-.068-.326-.16-.5-.215-.176-.045-.358-.058-.54-.04-.18.005-.36-.008-.536-.038-.178-.027-.36-.033-.542-.05-.182-.02-.366-.014-.547.015-.09.013-.182.02-.272.036-.088.027-.174.06-.257.1-.166.083-.324.18-.473.292-.152.102-.322.15-.475.24-.315.158-.626.322-.937.497-.31.175-.582.406-.92.583-.163.095-.313.21-.448.34-.12.145-.218.305-.292.477-.06.176-.132.348-.214.516l-.186.517c-.058.172-.094.35-.158.516-.064.166-.083.347-.16.513-.186.323-.275.692-.258 1.063.026.186.08.368.16.54.067.16.116.33.146.5.003.094-.017.186-.057.27-.03.09-.044.182-.043.275.01.086.043.168.096.236.063.064.13.12.202.173.324.172.428.426.66.647.45.457 1.167.626 1.87.802.097.01.188.042.268.096.078.062.17.1.27.113.188.02.384-.068.572-.05.192.016.382.056.565.12.19.042.382.07.575.086.77.04 1.545.03 2.315-.024.383.025.766-.02 1.133-.133l.27-.095c.086-.038.174-.068.264-.092.18-.04.358-.07.532-.118.35-.067.69-.177 1.014-.33.152-.083.293-.187.42-.307.057-.064.107-.135.15-.21.034-.082.06-.167.1-.24.038-.073.07-.148.112-.22.046-.072.097-.14.153-.205.076-.156.124-.323.142-.496.005-.18.02-.353.034-.528l-.002-.538z" fill="#EAEAE6"/><path d="M27.65 18.713c0 2.42-1.955 2.843-4.368 2.843-2.413 0-4.368-.422-4.368-2.843.062-2.377 2-4.27 4.366-4.27 2.368 0 4.305 1.893 4.367 4.27h.003z" fill="#FFF"/><path d="M28.164 18.713c-.012.15-.018.3-.043.452-.03.152-.07.302-.12.45-.066.142-.116.292-.148.447-.006.167-.073.327-.187.45-.118.123-.26.213-.377.32-.103.12-.217.226-.33.34-.113.114-.234.212-.358.32-.126.093-.258.18-.395.258-.135.073-.278.13-.426.172-.15.027-.3.034-.45.02-.145-.008-.29.008-.43.047-.134.055-.272.1-.413.138-.28.025-.565.005-.84-.06-.273-.045-.547-.07-.823-.074-.14-.01-.278-.002-.416.022-.137.042-.28.055-.423.04-.14-.02-.268-.16-.405-.185-.073-.016-.15-.01-.22.018-.07.02-.147.02-.218-.003-.594-.133-1.15-.4-1.627-.78-.128-.096-.246-.205-.352-.325-.1-.128-.17-.28-.202-.44-.015-.154-.052-.305-.11-.45-.053-.133-.204-.252-.22-.4-.03-.296 0-.594.088-.878.043-.278.033-.558.048-.844.088-.564.32-1.095.675-1.54.185-.215.344-.452.472-.704.148-.254.334-.483.552-.68.103-.106.215-.203.337-.288l.18-.132.197-.105c.262-.15.56-.225.86-.216.563-.075 1.134-.425 1.747-.313.136.07.284.11.436.124.146.026.3.03.45.05.152.02.298.07.428.152.132.08.23.227.35.31.223.19.572.197.73.484.077.13.194.228.334.282.074.024.145.057.21.1.055.05.103.108.145.17.075.13.144.262.207.4.074.125.135.257.214.378.215.203.363.47.423.76.04.294.143.577.3.83.052.14.09.285.116.433.022.15.025.3.038.45zm-1.028 0c-.014-.238-.034-.47-.037-.712.012-.122.01-.245-.01-.367-.03-.123-.096-.233-.19-.316-.086-.084-.15-.187-.19-.3-.016-.12-.053-.238-.11-.345-.062-.104-.145-.194-.245-.263-.047-.04-.096-.075-.147-.108-.056-.026-.11-.054-.162-.086-.103-.073-.167-.19-.174-.316-.016-.132-.125-.233-.257-.238-.12-.02-.228-.09-.293-.195-.075-.1-.148-.218-.27-.244-.12-.027-.245-.04-.37-.038-.114-.022-.224-.067-.32-.133-.105-.063-.212-.12-.324-.167-.116-.03-.24-.034-.357-.008-.455.02-.97-.222-1.42.03-.106.073-.205.154-.295.244-.095.067-.196.125-.3.176l-.612.322c-.204.13-.416.25-.634.355-.247.083-.433.287-.495.54-.067.248-.156.47-.21.705-.024.116-.053.23-.09.344-.02.117-.055.23-.106.337l-.165.337c-.042.116-.05.242-.027.364.067.25.285.46.307.662 0 .107-.128.245-.135.37.003.12.118.19.232.24.106.018.203.072.275.152.05.08.107.158.168.23.33.303.74.507 1.18.587.065.01.126.042.17.09.054.054.108.11.172.106.128.018.263-.07.388-.056.132.016.26.056.376.117.126.042.255.07.387.086.52.04 1.045.03 1.564-.033.26.026.52-.017.755-.125.11-.064.224-.12.34-.172l.345-.095.343-.092c.11-.037.216-.084.318-.14.1-.056.19-.128.266-.214.063-.097.104-.207.12-.322.017-.05.037-.1.06-.15.035-.044.073-.086.114-.125.052-.1.08-.213.08-.326-.005-.12-.004-.235 0-.35-.016-.124-.012-.24-.014-.357zM20.33 25.567c-.096.06-.198.105-.306.134-.055.017-.114.028-.14.087-.007.033-.018.065-.034.095-.02.02-.046.033-.075.034-.062.006-.144-.018-.19.01-.046.035-.084.077-.114.124-.062.102-.114.22-.177.32-.03.047-.07.088-.114.122-.058.022-.12.03-.18.028-.06-.002-.114.028-.145.077-.023.06-.05.117-.08.172-.097.066-.21.102-.327.102-.113.017-.22.06-.313.123-.05.03-.088.076-.11.13-.023.062-.04.134-.095.15-.048.027-.16-.042-.214-.02-.033 0-.034.048-.038.09.004.034-.016.065-.047.077-.177.126-.41.172-.58.31-.092.06-.153.162-.318.114-.075-.012-.146-.02-.183.023-.04.04-.03.15-.073.183-.088.065-.246.027-.362.052-.115.025-.173.132-.243.223-.165.147-.355.262-.562.338-.115.03-.204.12-.234.237-.05.11-.112.21-.188.304-.06.095-.136.18-.222.254-.037.043-.086.073-.14.087l-.187.018c-.226.057-.23.438-.444.51-.15-.027-.204.087-.267.19-.03.05-.08.085-.137.09-.064.004-.152-.03-.214-.02-.13.007-.118.215-.28.172-.073-.008-.13.006-.135.094-.005.09-.035.142-.097.148-.12-.01-.24.018-.343.08-.04.044-.072.095-.094.15-.033.05-.09.077-.15.072-.058-.007-.117.015-.157.06-.032.056-.057.116-.075.178-.054.1-.134.183-.23.242-.226.136-.518.08-.676-.133-.158-.21-.13-.508.062-.687l.03-.03c.08-.076.18-.132.286-.16.06-.002.12-.012.178-.03.052-.022.072-.09.09-.16.002-.064.044-.118.104-.138.058-.01.13 0 .175-.034.087-.09.146-.205.17-.328.014-.026.038-.044.066-.05.043.005.085.018.125.037.1.05.132 0 .143-.08 0-.195.248-.025.31-.13.035-.042.038-.135.066-.19.032-.05.087-.08.146-.078.125-.01.26-.006.29-.156.14-.183.484-.066.59-.297l.054-.21c.02-.054.06-.1.11-.13.085-.07.183-.123.29-.156.11-.052.236-.07.358-.054.154.03.265 0 .3-.14.047-.108.11-.21.19-.3.06-.094.153-.164.26-.197.13-.01.287.032.335-.092.046-.124.022-.352.123-.398.052-.02.196.093.263.095.068.002.07-.092.07-.188-.006-.105.01-.177.058-.204.053-.02.11-.032.164-.05.237-.04.378-.22.59-.296.03-.02.07-.02.1 0 .048.02.095.04.112.016.046-.03.03-.147.077-.177.043-.037.115-.024.185-.02.06.003.12-.01.175-.033.193-.104.373-.228.54-.37.1-.047.213-.074.253-.21.016-.06.044-.12.08-.17.043-.037.09-.067.142-.087.105-.04.222-.062.33-.1.05-.018.1-.045.142-.08.04-.038.047-.123.074-.18.02-.065.08-.076.15-.072.06-.01.09-.063.12-.11.063-.097.137-.184.222-.26.145-.142.36-.187.55-.115.19.07.32.248.335.45.014.205-.09.398-.268.497l-.028.02zM29.716 25.03c.06.048.112.11.148.18.02.036.036.077.085.07.025-.008.05-.013.078-.015.02.006.034.023.037.043.013.046.006.123.035.146.034.02.073.032.112.034.088.004.188-.008.276-.003.04.002.078.014.11.035.03.023.035.083.048.13.012.045.036.077.08.08.048-.01.097-.014.146-.014.07.028.096.123.125.21.025.078.074.145.14.193.032.025.074.035.115.03.053-.01.112-.03.133.005.027.026-.01.146.013.176.004.028.043.007.075-.01.04-.023.053-.01.067.003.123.086.19.25.322.32.06.046.15.048.134.2 0 .065.004.124.042.135.04.01.123-.043.155-.026.063.04.054.183.09.263.036.08.128.078.21.092.137.064.256.165.34.292.036.08.115.096.22.077.088-.01.177-.007.264.01.08.006.16.026.23.062.034.016.072.028.086.072l.04.14c.075.152.375-.017.462.12 0 .132.097.12.185.125.042-.002.08.026.09.067.01.05-.002.134.013.177.023.1.185-.004.17.145.004.06.023.1.093.064.07-.036.116-.036.128.01.022.1.043.2.11.234.03.02.085.005.132.007.046.003.068.033.076.087.007.054.025.094.068.098.05 0 .102-.008.15-.02.082-.005.16.02.223.072.193.165.237.447.104.663-.133.217-.403.304-.637.205l-.056-.023c-.072-.03-.13-.083-.167-.153-.015-.044-.02-.103-.047-.13-.027-.027-.08-.016-.138.003-.06.02-.102.016-.122-.02-.02-.038-.02-.104-.05-.124-.063-.044-.175-.012-.282.012-.022 0-.043-.007-.05-.03 0-.038.004-.077.014-.115.025-.102-.018-.105-.083-.077-.154.09-.054-.184-.144-.185-.04-.01-.113.03-.16.033-.047.002-.067-.034-.08-.08-.025-.096-.04-.205-.16-.16-.164-.028-.118-.354-.315-.332l-.17.052c-.042.008-.084-.003-.117-.03-.068-.036-.124-.09-.163-.157-.06-.072-.092-.163-.09-.257.002-.136-.037-.21-.152-.176-.088.013-.177.008-.264-.013-.077-.02-.157-.035-.19-.117-.024-.098-.013-.243-.117-.224-.104.018-.28.14-.33.08-.023-.03.046-.195.038-.25-.007-.054-.08-.012-.157.03-.082.053-.14.072-.168.046-.023-.034-.043-.073-.063-.107-.063-.17-.224-.2-.312-.334-.013-.016-.027-.028-.012-.082.01-.046.02-.092-.002-.094-.028-.024-.12.043-.15.018-.033-.015-.034-.08-.04-.138-.004-.045-.022-.087-.05-.123-.09-.132-.25-.163-.365-.257-.05-.06-.085-.137-.198-.107-.047.015-.097.02-.146.013-.033-.018-.062-.043-.084-.074-.045-.066-.08-.148-.123-.215-.02-.03-.05-.057-.083-.076-.035-.014-.103.018-.152.023-.054.012-.07-.03-.076-.086-.015-.042-.062-.042-.104-.045-.08-.005-.16-.025-.232-.06-.202-.075-.338-.265-.344-.48-.007-.217.117-.415.314-.503.196-.088.426-.048.58.102l.04.035z" fill="#EAEAE6"/><path d="M25.387 17.43c.05.012.098.04.133.078.02.02.043.05.07.017.01-.02.026-.037.042-.054.012-.006.023.004.033.02.02.033.036.1.06.108.026 0 .052-.012.073-.03.05-.042.106-.103.158-.143.02-.018.047-.027.074-.028.022.006.043.054.06.086.018.03.043.05.068.027.025-.024.056-.073.08-.086.05-.012.09.056.13.116.027.05.075.083.13.094.024-.004.047.004.075-.034.027-.04.056-.083.078-.064.023.01.033.13.055.145.01.02.025-.015.043-.046.016-.043.027-.037.04-.034.092.01.174.117.27.11.022.002.046 0 .07 0 .024 0 .043.042.06.1.015.06.035.104.06.094.024-.01.058-.102.082-.102.046.003.08.13.12.178.042.05.095 0 .146-.028.098-.017.198.01.274.074.043.05.092.025.147-.043.044-.05.097-.094.156-.126.1-.06.205-.145.277.05.085.092.214-.206.3-.135.034.115.088.055.14.013.026-.02.05-.022.07.01.02.035.033.117.053.146.04.073.106-.098.138.035.02.05.04.075.07.008.012-.025.026-.048.044-.068.013-.008.023 0 .034.012.04.073.078.148.125.144.024 0 .052-.04.078-.06.027-.022.05-.008.068.034.02.04.04.068.065.048.026-.02.054-.066.08-.095.037-.043.094-.063.15-.052.223.065.376.274.37.508-.004.235-.165.437-.392.493l-.095.024c-.05.01-.103-.006-.137-.045-.02-.03-.038-.077-.06-.086-.024-.01-.05.025-.08.072-.03.046-.055.068-.076.043-.02-.025-.038-.08-.062-.08-.046-.003-.103.08-.16.156-.012.01-.025.017-.035 0-.01-.034-.02-.07-.023-.105-.012-.1-.038-.08-.068-.023-.065.155-.08-.13-.132-.086-.025.013-.057.086-.083.11-.028.026-.05.006-.07-.026-.038-.07-.076-.155-.134-.054-.1.06-.16-.242-.27-.123l-.085.133c-.027.04-.05.033-.074.037-.05.002-.1-.018-.135-.054-.06-.042-.104-.104-.12-.176-.034-.118-.077-.16-.134-.073-.056.08-.104.087-.155.125-.05.028-.1.048-.14-.002-.04-.07-.072-.2-.13-.13-.056.066-.124.263-.168.238-.02-.015-.025-.19-.042-.234-.018-.043-.05.03-.083.106-.034.086-.063.134-.086.126-.02-.017-.042-.04-.063-.06-.08-.11-.182-.056-.268-.123-.013-.007-.024-.01-.03-.064-.007-.042-.013-.09-.026-.08-.023-.003-.058.098-.08.095-.024-.003-.044-.05-.06-.1-.014-.03-.035-.058-.062-.078-.086-.07-.187-.012-.28-.032-.043-.028-.086-.073-.143.01-.028.034-.057.078-.08.085-.025.002-.05-.005-.07-.02-.042-.032-.085-.085-.128-.12-.02-.016-.043-.025-.068-.024-.025.007-.055.068-.082.098-.028.038-.048.01-.067-.034-.02-.03-.046-.006-.072.014-.043.035-.095.06-.15.07-.23.065-.478-.026-.61-.227-.135-.2-.124-.464.025-.653.15-.19.404-.26.628-.174l.07.03z" fill="#EAEAE6"/><g fill="#EAEAE6"><path d="M25.968 14.33l-1.15-5.48-5.637.522.76 5.902"/><path d="M25.465 14.435c-.022-.114-.03-.232-.045-.348-.015-.116.01-.24-.014-.355-.003-.118-.168-.202-.138-.328.01-.12.077-.255.034-.365-.13-.45-.595-.828-.41-1.344-.02-.12-.07-.234-.152-.326-.058-.105-.083-.224-.072-.344.03-.238.03-.478.005-.716-.014-.117-.047-.23-.1-.337-.07-.104-.165-.203-.137-.328.03-.125.152-.27-.002-.357-.066-.046-.058-.108-.07-.164-.015-.057-.024-.115-.03-.172l.53.392c-.237 0-.476-.014-.71-.002-.24-.004-.464.12-.715-.033-.107-.078-.25-.078-.356 0-.097.08-.23.106-.35.065-.12-.04-.24-.073-.364-.1-.118-.01-.238.004-.35.044-.228.07-.464.106-.7.11l-.356.01c-.118.003-.24-.027-.356-.016-.236.063-.466.145-.69.246-.224.08-.456.145-.692.19l.44-.554c.038.12.043.25.014.373-.04.12-.05.25-.026.378.043.244.223.472.28.713.06.12-.048.26-.024.38.03.122.072.242.124.358.018.06.024.123.02.185-.015.068-.038.134-.068.196-.06.117-.06.257.004.373.027.058.04.12.034.184-.01.063-.043.13-.053.194-.042.13.167.23.16.355-.017.253-.137.516-.02.753.073.106.102.237.08.364-.045.12-.042.255.01.374.144.213.23.46.25.718.026.27-.162.517-.43.56-.27.043-.525-.132-.584-.398l-.006-.03c-.06-.247-.06-.504 0-.75.007-.063-.002-.126-.026-.185-.034-.058-.07-.116-.112-.17-.07-.11-.083-.25-.033-.37.06-.26-.173-.48-.254-.718-.04-.12.207-.277.12-.39-.03-.06-.09-.114-.113-.173-.017-.064-.01-.132.02-.19.072-.117.064-.266-.022-.373-.04-.053-.077-.11-.104-.172-.016-.06-.02-.123-.013-.186.033-.126.052-.254.06-.383 0-.125-.135-.233-.114-.36.027-.25.04-.504.04-.756-.026-.13-.088-.253-.18-.35-.078-.104-.123-.23-.13-.36l-.096-.585.65-.108c.236-.027.475-.024.71.01.236-.026.496.228.726.162.116-.03.227-.113.343-.15l.345-.108c.228-.09.48-.09.71-.004.113.052.24.056.357.012.117-.074.228-.156.332-.247.052-.033.11-.053.172-.06.058-.005.123.058.188.12.13.146.244.083.35-.04.107-.133.22-.2.34-.172l.36.044c.238.013.47-.02.708-.03l.52-.023.075.465c.01.058.013.117.02.175.006.06.026.114-.028.184-.13.147.02.235.088.34.07.104.01.235-.018.36-.014.12-.014.24 0 .358.036.23.087.46.15.684.035.112.058.227.07.344-.002.118.022.235.068.344.395.392.19.913.285 1.37.015.116.13.21.188.318.08.102-.02.243.028.35.034.114.103.216.145.33.04.11.082.22.113.332.075.275-.086.56-.36.635-.274.074-.557-.088-.632-.363l-.01-.037v-.025z"/></g><path d="M16.7 15.162c-.034-.006.064.026.166.064.053.016.105.043.16.004.025-.024.052-.046.08-.064.03-.01.06-.006.087.008.058.027.125.086.183.082.06-.01.118-.03.172-.057l.33-.21c.053-.032.11-.053.172-.065.065.004.13.02.19.05.06.024.126.02.18-.013.052-.046.106-.088.163-.126.125-.024.255-.013.375.032.123.026.25.028.373.006.064-.01.123-.037.172-.077.052-.05.1-.112.164-.108.06-.007.146.098.207.096.034.01.056-.03.08-.07.013-.033.045-.055.08-.054.24-.054.5-.01.733-.083.12-.026.23-.1.378.004.07.037.14.068.197.043.058-.026.097-.134.156-.148.118-.034.265.058.395.074.127-.006.25-.05.35-.13.232-.084.477-.13.724-.132.13.01.26-.046.343-.147.098-.088.207-.164.323-.227.105-.07.218-.128.337-.17.056-.026.12-.038.18-.034l.202.043c.256.02.418-.344.67-.344.146.076.25-.018.356-.094.05-.04.116-.056.18-.044.066.018.145.077.213.086.134.034.21-.17.36-.075.07.03.136.036.178-.047.042-.082.095-.123.16-.11.125.047.26.058.39.032.06-.03.113-.068.16-.115.055-.036.123-.044.185-.02.06.023.13.02.188-.01.056-.043.107-.092.152-.147.097-.08.213-.136.337-.162.258-.055.517.098.596.352.08.255-.05.528-.295.63l-.033.015c-.115.05-.24.072-.366.067-.063-.018-.13-.027-.197-.027-.062.005-.11.063-.157.126-.033.063-.096.1-.166.1-.063-.02-.13-.026-.196-.022-.126.058-.234.148-.314.26-.025.022-.057.032-.09.028-.04-.018-.08-.044-.114-.075-.086-.077-.138-.042-.182.033-.08.187-.27-.055-.375.025-.057.03-.098.118-.15.162-.055.037-.122.047-.185.027-.134-.03-.274-.08-.367.055-.22.13-.53-.093-.74.093l-.143.183c-.048.045-.107.075-.172.086-.118.04-.242.058-.367.055-.136.013-.273-.01-.397-.068-.147-.08-.275-.086-.373.03-.098.09-.208.167-.327.226-.106.068-.23.103-.356.1-.136-.04-.283-.126-.386-.03-.103.097-.177.33-.303.335-.063 0-.162-.155-.232-.18-.067-.02-.113.054-.155.153-.04.098-.09.165-.15.172-.066 0-.13-.004-.194-.01-.25.003-.498.027-.744.07-.04.006-.08-.008-.104-.04-.04-.036-.078-.072-.106-.055-.06.01-.1.13-.16.137-.072.007-.142-.01-.2-.05-.064-.024-.13-.035-.197-.03-.247.02-.492.066-.73.135-.13-.022-.26.01-.363.092-.05.05-.107.093-.17.123-.062.016-.125.023-.188.02-.13-.01-.26-.04-.39-.052-.063-.006-.128-.004-.19.007-.063.016-.118.09-.182.126-.062.04-.14.034-.198-.01-.07-.013-.143-.004-.206.028-.075.03-.154.044-.234.043-.11.008-.223-.006-.33-.04-.17-.068-.293-.225-.318-.41-.024-.184.05-.367.2-.48.147-.112.343-.136.513-.062l.002.004z" fill="#EAEAE6"/><ellipse fill="#EAEAE6" cx="37.235" cy="20.977" rx="1" ry="1"/><ellipse fill="#EAEAE6" cx="42.45" cy="20.427" rx="1" ry="1"/><ellipse fill="#EAEAE6" cx="6.366" cy="25.142" rx="1" ry="1"/><ellipse fill="#EAEAE6" cx="6.581" cy="31.335" rx="1" ry="1"/><ellipse fill="#EAEAE6" cx="39.799" cy="14.377" rx="1" ry="1"/><ellipse fill="#EAEAE6" cx="34.206" cy="11.505" rx="1" ry="1"/><ellipse fill="#EAEAE6" cx="19.529" cy="4.481" rx="1" ry="1"/><ellipse fill="#EAEAE6" cx="27.682" cy="4.481" rx="1" ry="1"/><ellipse fill="#EAEAE6" cx="34.361" cy="17.024" rx="1" ry="1"/><ellipse fill="#EAEAE6" cx="40.997" cy="31.296" rx="1" ry="1"/><ellipse fill="#EAEAE6" cx="14.513" cy="19.859" rx="1" ry="1"/><ellipse fill="#EAEAE6" transform="rotate(-21.103 8.294 18.082)" cx="8.294" cy="18.082" rx="1" ry="1"/><ellipse fill="#EAEAE6" transform="rotate(-21.103 7.375 12.35)" cx="7.375" cy="12.351" rx="1" ry="1"/><ellipse fill="#EAEAE6" cx="12.197" cy="13.225" rx="1" ry="1"/><ellipse fill="#EAEAE6" cx="15.305" cy="8.884" rx="1" ry="1"/><ellipse fill="#EAEAE6" cx="3.502" cy="20.554" rx="1" ry="1"/><ellipse fill="#EAEAE6" cx="12.115" cy="24.879" rx="1" ry="1"/><ellipse fill="#EAEAE6" cx="40.728" cy="25.452" rx="1" ry="1"/><ellipse fill="#EAEAE6" cx="36.398" cy="25.452" rx="1" ry="1"/><g fill="#EAEAE6"><path d="M38.784 46.268H8.202l2.154-3.797H36.63"/><path d="M39.222 46.523l-3.86.043c-.64.013-1.322-.01-1.964-.003-.643.007-1.25.05-1.877.075-2.46.158-5.13.136-7.736.136-2.617-.015-5.21.024-7.82-.038-2.603-.012-5.193-.172-7.76-.118l-.62.013.316-.536 1.11-1.88.56-.936c.194-.31.358-.634.535-.952l.08-.14.17-.007c2.19-.074 4.38.115 6.57-.05.546-.047 1.094-.053 1.64-.06l1.643-.024 3.285-.053c.547-.012 1.095-.034 1.642-.038.547-.012 1.095-.014 1.642.01 1.095.025 2.19.08 3.284.05 1.096-.006 2.19-.042 3.285-.017l1.642.063c.548.024 1.095 0 1.643.005h.23l.12.203c.4.676.805 1.38 1.18 2.102.376.722.724 1.45 1.062 2.153zm-.874-.51l-1.165-1.646c-.367-.53-.7-1.063-1.025-1.626l.47.277c-.546.01-1.094-.003-1.64.027-.548.03-1.096.056-1.643.074-.548.032-1.095-.007-1.642-.007-.547-.006-1.095-.02-1.642-.037-1.094-.04-2.19-.04-3.284-.054-.547 0-1.094-.02-1.642-.05-.547-.027-1.095-.033-1.642-.05l-3.284.074-1.642.037c-.547.03-1.096.024-1.642-.018-.544-.08-1.094-.108-1.642-.08-.548.01-1.095.045-1.642.08-.548.037-1.095.075-1.643.09-.547.025-1.095.016-1.642-.027l.524-.305c-.193.31-.404.607-.573.93l-.528.955c-.344.645-.713 1.27-1.07 1.903l-.508-.876 1.88.04c.63.015 1.25-.042 1.873-.063 1.258-.03 2.517.008 3.77.114.64.05 1.26.03 1.89.038.625.002 1.27.06 1.908.086l1.92.08c.64.027 1.26.005 1.89.01 1.257 0 2.49-.032 3.73-.042l1.863-.01c.622 0 1.275.03 1.912.042.637.013 1.293.043 1.918.043.624 0 1.212-.027 1.84-.02l3.752.013z"/></g><g><path fill="#FFF" d="M43.963 51.07H3.073l.857-6.052 39.176.43"/><path d="M44.346 51.4l-5.15.03c-.87-.004-1.754-.03-2.6-.012l-2.516.093c-3.353.15-6.874.082-10.325.077l-5.18-.01-5.186-.067c-1.725-.012-3.453-.083-5.17-.1l-2.572.01-2.573-.027-.376-.004.056-.366.47-3.02.398-3.03.035-.27.274.004c3.265.057 6.53.172 9.795.03h9.794c3.266-.07 6.53.197 9.794.142 1.632.02 3.265-.017 4.897.065.816.026 1.632.068 2.448.08l2.45.012h.34l.06.35c.338 1.97.614 4.023.833 6.012zm-.767-.662c-.386-1.79-.74-3.472-1.008-5.207l.528.46-2.448-.012c-.817 0-1.633.036-2.45.043-.816.017-1.632.026-2.45-.003l-2.447-.057c-3.263-.132-6.53-.094-9.792-.258-1.632-.073-3.265-.02-4.897-.024l-4.898.02c-.818.006-1.635-.036-2.448-.124-.813-.06-1.632-.033-2.448-.028-1.633.036-3.266.11-4.9.117l.646-.556c-.134 1.01-.343 2.01-.508 3.014-.145 1.01-.278 2.018-.407 3.03l-.58-.672 2.527.003 2.53.044c.843 0 1.68-.047 2.515-.078.838-.02 1.68 0 2.53.04l2.552.114c.847.016 1.682-.01 2.535.025 1.706.066 3.43.15 5.124.156 3.4.022 6.672-.134 10.09-.056l2.57.05c.847.007 1.662-.025 2.494-.034l5.04-.002z" fill="#EAEAE6"/></g></g><g fill-rule="nonzero"><path d="M78.564 20.797c-.745-1.032-1.362-2.153-1.835-3.338-.1-.305-.17-.62-.283-.92l-.383-.882c-.283-.59-.512-1.207-.684-1.84-.283-1.304-.314-2.65-.093-3.967.22-1.315.632-2.59 1.223-3.782.3-.595.647-1.163 1.042-1.698.414-.52.874-1.003 1.376-1.44.503-.43 1.047-.808 1.623-1.13.574-.306 1.176-.548 1.8-.724.61-.183 1.21-.38 1.82-.53.305-.073.615-.125.927-.154.31-.044.62-.06.928-.085.62-.022 1.237-.003 1.847.022.61.024 1.22.006 1.83.026 1.217.095 2.424.296 3.608.602.3.065.6.147.898.23.3.083.613.128.928.19.64.13 1.25.38 1.798.738.58.345 1.112.77 1.58 1.26.472.508.862 1.09 1.153 1.72.292.628.504 1.29.63 1.97.067.337.112.677.137 1.02.016.34.008.68-.022 1.02-.036.334-.093.666-.172.994-.096.32-.18.645-.304.953-.222.624-.475 1.23-.755 1.824-.538 1.186-1.292 2.26-2.222 3.164-.478.425-1 .78-1.472 1.183l-1.424 1.187c-.952.778-1.93 1.5-2.9 2.21-.455.332-1.09.228-1.418-.232-.33-.46-.226-1.103.23-1.436l.023-.018.06-.04c.988-.67 1.948-1.35 2.874-2.045.464-.35.902-.72 1.322-1.103.397-.4.762-.83 1.092-1.287.73-.787 1.393-1.634 1.982-2.533.27-.458.48-.948.63-1.458.16-.506.272-1.025.33-1.552.095-.52.135-1.048.122-1.576-.03-.52-.176-1.027-.425-1.483-.478-.892-1.21-1.617-2.098-2.082-.47-.23-.92-.498-1.35-.797-.217-.18-.465-.315-.732-.4-.27-.078-.543-.134-.82-.17-1.12-.144-2.292-.006-3.426-.133-.555-.134-1.122-.214-1.692-.238-.56.007-1.12.047-1.674.12-.55.043-1.092.133-1.628.217-.27.036-.538.077-.804.134-.26.066-.513.165-.75.295-.47.272-.872.614-1.342.827-.474.225-.935.48-1.38.758-.22.153-.424.33-.606.53-.178.2-.31.442-.49.644-.172.21-.358.412-.522.636-.182.214-.35.438-.508.67-.613.963-.95 2.078-.976 3.222-.027.564-.012 1.13.045 1.69.062.563.17 1.115.257 1.668.088.553.16 1.117.27 1.68.065.278.15.552.25.82.117.262.255.515.412.755.28.5.536 1.005.84 1.486.304.482.628.947.956 1.41.32.46.214 1.094-.236 1.423-.45.33-1.077.233-1.41-.217l-.006-.01z" fill="#DC4A27"/><path d="M80.167 20.464c.064-.46.136-.914.21-1.366l.096-.678c.028-.225.043-.45.095-.674.326-.886-.067-1.81-.207-2.64-.105-.805-.275-1.6-.507-2.38-.237-.734-.643-1.4-1.184-1.944-.285-.274-.596-.518-.93-.728-.345-.24-.707-.458-1.082-.648-.388-.196-.794-.376-1.213-.546-.42-.17-.842-.375-1.266-.546-.425-.163-.865-.282-1.313-.356-.44-.087-.87-.21-1.308-.284-.433-.098-.87-.165-1.312-.197-.437-.017-.873.027-1.298.13-.846.103-1.664.372-2.408.792-.18.114-.353.24-.516.38-.158.145-.29.318-.387.51-.194.386-.442.692-.598 1.05-.16.343-.263.708-.31 1.083-.018.184-.022.368-.01.553.005.185.027.37.067.55.12.74.627 1.354 1.117 1.98.258.316.5.657.793.98.296.323.63.61.992.854.735.505 1.544.88 2.312 1.413.363.3.742.58 1.134.838.4.244.81.464 1.23.672l2.507 1.258c.503.253.708.87.46 1.38-.25.507-.86.715-1.363.463l-.036-.02-.078-.043c-.817-.456-1.64-.896-2.446-1.364-.403-.237-.817-.45-1.23-.673-.415-.213-.87-.358-1.302-.543-.864-.46-1.67-1.02-2.403-1.673-.192-.165-.384-.322-.573-.494-.194-.163-.387-.328-.573-.508-.38-.357-.737-.743-1.062-1.155-.314-.45-.57-.94-.76-1.454-.225-.515-.406-1.05-.538-1.597-.12-.573-.16-1.158-.12-1.742.06-.593.222-1.17.482-1.706.222-.54.607-.998 1.1-1.306.12-.077.247-.14.368-.21.114-.07.225-.15.332-.233.107-.08.204-.174.31-.258.104-.084.21-.164.315-.25.426-.347.88-.657 1.357-.927.487-.27 1.02-.442 1.57-.51.544-.036 1.075.086 1.592.067.512-.004 1.024.017 1.534.065.495.068.985.168 1.467.3.452.185.923.32 1.404.4.487.012.967.107 1.42.282.458.21.897.458 1.315.74.22.13.432.27.66.384.24.096.47.214.69.353.212.157.414.328.606.51.187.194.36.4.53.605.315.435.635.835.93 1.262.078.103.148.212.21.325l.21.326c.143.218.248.453.376.68.12.23.21.47.314.71.09.24.168.486.252.732l.194.745c.053.25.077.503.11.755.075 1.02-.262 1.985-.086 2.973.012.49-.043.975-.074 1.46l-.066.72-.098.713c-.084.555-.593.94-1.143.863-.55-.078-.938-.588-.87-1.146l.007-.06zM88.567 19.504c-.203-.523-.333-1.072-.387-1.63-.067-.548-.06-1.102.023-1.647.047-.27.15-.524.19-.787.03-.13.034-.266.053-.4.02-.133.045-.264.06-.4.054-.545.173-1.082.355-1.6.202-.507.47-.986.8-1.422.312-.43.662-.833 1.044-1.203.745-.712 1.554-1.353 2.416-1.915.42-.28.848-.537 1.282-.776.442-.232.887-.427 1.344-.628.458-.2.92-.38 1.396-.538.48-.15.967-.27 1.462-.354.25-.04.49-.102.74-.148.244-.063.493-.112.745-.152.51-.072 1.027-.08 1.54-.025.517.06 1.025.18 1.516.36.123.043.245.086.37.126.12.047.24.102.363.145.123.045.245.096.363.155.122.052.24.113.352.184.876.58 1.58 1.387 2.043 2.338.13.225.234.46.342.694.098.238.246.46.366.697.246.476.393 1 .43 1.536.114 1.068.01 2.148-.31 3.173-.29 1.02-.746 1.988-1.35 2.86-.328.41-.7.784-1.107 1.115-.406.327-.79.667-1.196.984-.784.674-1.68 1.202-2.648 1.558-.498.14-1.007.214-1.497.334-.49.12-.985.234-1.487.324-1.015.185-2.05.23-3.075.137-.54-.073-.928-.565-.877-1.114.05-.55.52-.962 1.066-.933l.03.004.09.013c.845.1 1.697.09 2.54-.025.42-.057.835-.15 1.24-.275.202-.07.398-.156.587-.255l.552-.32c.745-.368 1.515-.682 2.232-1.13.702-.466 1.324-1.044 1.84-1.712.29-.314.562-.644.815-.988.23-.36.396-.756.495-1.173.195-.797.234-1.625.114-2.437-.088-.39-.125-.788-.108-1.187.03-.21.008-.424-.065-.623-.084-.187-.187-.365-.308-.53-.51-.576-1.108-1.06-1.774-1.437-.255-.27-.57-.477-.92-.6-.368-.1-.748-.148-1.13-.14-.396-.02-.794-.014-1.19.022-.422-.02-.843.058-1.23.227-.193.107-.382.21-.57.322-.19.1-.39.182-.598.243-.412.13-.866.195-1.3.332-.217.062-.43.146-.633.25-.195.116-.38.252-.582.35l-.627.274c-.215.088-.43.17-.636.267-.82.388-1.533.978-2.068 1.718-.274.347-.52.715-.74 1.1-.21.383-.39.768-.573 1.152-.193.378-.403.752-.576 1.15-.078.2-.136.406-.174.618-.02.106-.023.214-.013.322 0 .107.017.218.025.32-.002.413.032.823.1 1.23.076.387.184.77.324 1.138.19.526-.07 1.108-.586 1.31-.515.203-1.095-.048-1.306-.565l-.007-.016z" fill="#B83718"/><path d="M74.297 19.388c-.32-.4-.63-.812-.93-1.238-.3-.425-.618-.84-.883-1.3-.387-1.006-1.3-1.683-1.857-2.655-.285-.484-.516-.998-.688-1.533-.184-.54-.323-1.097-.417-1.66-.177-1.16-.16-2.34.056-3.493.104-.576.264-1.14.477-1.683.236-.542.532-1.055.882-1.53.685-.982 1.662-1.718 2.79-2.102.53-.186 1.072-.34 1.62-.464.526-.088 1.057-.135 1.59-.14l1.54.007c.517.002 1.033-.058 1.555-.075 1.062.01 2.118.165 3.14.462.523.136 1.023.33 1.582.46.557.158 1.07.444 1.502.834.453.372.853.805 1.19 1.288.317.47.592.97.82 1.492.226.512.403 1.024.59 1.54.1.257.17.523.247.784.077.264.136.532.175.804.076.544.106 1.092.09 1.64-.01.548 0 1.09-.002 1.63.038 1.09-.073 2.18-.332 3.237-.167.522-.394 1.017-.56 1.53-.177.507-.336 1.022-.525 1.53-.376 1.025-.85 2.01-1.415 2.94-.298.476-.92.62-1.392.324-.473-.295-.623-.92-.337-1.403l.016-.027.05-.076c.516-.798.96-1.643 1.323-2.523.18-.44.336-.892.462-1.352.05-.235.097-.47.123-.707.02-.24.033-.48.06-.716.135-.932.348-1.85.447-2.8.014-.237.038-.475.043-.713l-.02-.715c-.034-.474-.06-.952-.136-1.422l-.03-.36c-.015-.117-.032-.236-.042-.356-.015-.242-.043-.482-.086-.72-.09-.47-.245-.925-.46-1.353-.364-.79-.91-1.483-1.595-2.015-.344-.23-.667-.49-.965-.78-.146-.174-.33-.31-.54-.397-.215-.072-.436-.123-.66-.153-.912-.124-1.854.07-2.798.02-.48-.097-.966-.145-1.455-.143-.488.02-.995.095-1.483.14-.49.02-.95.086-1.39.13-.427-.007-.847.103-1.215.32-.322.26-.58.533-.898.75-.163.104-.317.23-.493.342-.17.125-.33.265-.478.417l-.215.244c-.063.09-.12.184-.172.28-.102.195-.144.42-.252.614-.086.206-.21.402-.29.618-.106.21-.198.426-.272.65-.082.223-.144.454-.182.69-.03.235-.04.473-.033.71l.012.357.056.35c.038.233.09.464.158.69.296.913.68 1.794 1.15 2.63l.588 1.343c.11.22.235.436.372.642.15.2.317.388.498.562.326.377.62.783.946 1.166.327.383.645.778.957 1.18.35.445.277 1.092-.163 1.445-.44.353-1.08.28-1.428-.165l-.023-.025z" fill="#DC4A27"/><g fill="#DC4A27"><path d="M41.432 94.537H119.666c2.297 0 11.295 1.044 12.132-1.397.88-2.572-.247-7.33-.247-10.094v-51.36c0-1.305.547-13.646-.202-13.858-4.813-1.362-10.596-.72-15.606-.72H53.708c-2.233 0-11.09-1.203-12.23 1.318-1.34 2.966-.046 9.39-.046 12.646v63.465z"/><path d="M41.94 94.516c3.444-.068 6.873-.174 10.243-.282 3.37-.108 6.69-.188 10.043-.177l5.072.018c1.724.006 3.45-.03 5.173-.043l10.348-.116c6.898-.005 13.795-.03 20.693.007l10.347.034 5.174.014h.646c.228.004.45.01.668.02l1.3.07c.86.048 1.715.092 2.57.12 1.684.09 3.374.016 5.045-.222.39-.067.775-.17 1.147-.307.31-.1.588-.286.8-.537.05-.05.05-.104.087-.158l.078-.28c.052-.192.093-.386.123-.582.058-.408.093-.82.105-1.232-.018-1.722-.14-3.442-.363-5.15-.086-.872-.172-1.75-.178-2.664l.01-2.618.118-20.943.033-20.943.022-5.236c.007-.867-.004-1.752.034-2.626l.086-2.616c.06-1.74.086-3.486.088-5.227 0-.87-.01-1.74-.043-2.606-.017-.43-.04-.863-.08-1.287-.022-.21-.046-.423-.086-.616-.014-.085-.037-.168-.07-.248-.005-.02-.007-.012-.008-.02.008.01.015.03.086.06l-.135-.035c-3.293-.868-6.762-.87-10.192-.794-1.72.04-3.446.106-5.18.106l-5.168-.007c-6.897-.07-13.795.157-20.693.122l-20.694.06-10.346.032-5.176.018c-.903-.015-1.75-.087-2.612-.135-.864-.05-1.713-.095-2.566-.117-.852-.022-1.702-.035-2.544.006-.828.024-1.65.132-2.458.322-.37.087-.728.23-1.058.422-.074.042-.142.092-.206.148l-.093.08-.072.086c-.046.054-.086.114-.118.177-.037.07-.07.18-.105.266-.266.777-.42 1.59-.455 2.413-.064 1.72-.007 3.443.168 5.156.202 1.748.315 3.504.34 5.263l.02 10.47c0 3.49.03 6.98-.007 10.472l-.066 10.47.027 10.472.08 20.922zm-1.015.043l-.034-20.965-.015-10.47-.084-10.472c-.042-3.49.004-6.98.01-10.47l.043-10.473c-.013-1.727-.117-3.453-.31-5.17-.187-1.764-.25-3.54-.188-5.313.038-.93.212-1.85.516-2.73.048-.118.077-.222.14-.35.067-.135.15-.262.245-.378l.143-.168.156-.138c.1-.09.21-.17.324-.24.42-.25.874-.437 1.348-.552.876-.212 1.77-.334 2.67-.365.883-.043 1.758-.04 2.63-.015.872.026 1.738.087 2.6.147.864.058 1.734.14 2.553.162l5.17.033 5.173.02 5.174-.023 20.692-.092c6.897-.13 13.795.228 20.692.074l5.173-.043c1.71-.016 3.43-.1 5.158-.16 1.73-.058 3.47-.096 5.22-.01.875.033 1.753.115 2.63.225.88.126 1.752.308 2.61.544l.08.02c.04.01.08.02.118.034.15.055.278.154.368.284.038.057.072.117.1.18.06.145.105.296.132.452.043.236.075.475.094.714.04.457.06.9.073 1.345.027.885.02 1.763.012 2.64-.02 1.754-.087 3.502-.12 5.25l-.072 2.617-.016.65-.004.642.003 1.308.012 5.236-.014 10.47-.024 5.237-.01 2.62.025 2.617.045 5.235c.01 1.746.038 3.49.01 5.236l-.107 10.47-.03 2.62c.01.854.07 1.708.176 2.557.238 1.75.37 3.513.395 5.28-.012.457-.053.914-.125 1.366-.037.233-.088.463-.152.69l-.1.343c-.053.14-.123.275-.21.398-.323.417-.76.727-1.258.892-.432.158-.88.275-1.333.35-1.74.232-3.495.296-5.246.19-.867-.033-1.73-.085-2.592-.14l-1.287-.076c-.423-.025-.842-.025-1.28-.028-1.724-.024-3.448-.013-5.172-.005l-10.346.04L82.815 95l-10.347-.055c-1.726-.005-3.45-.03-5.174-.017l-5.263.036c-3.537.02-7.108-.05-10.64-.14l-10.468-.265z"/></g><path d="M41.89 61.44c.933-.012 1.867-.01 2.8 0 .935.01 1.87-.002 2.803.038 1.868.24 3.736-.168 5.604-.25 3.736-.13 7.472.107 11.208.13l2.802.04 2.802.102 2.8.096c.935.03 1.87.11 2.803.144l.7.034h.7l1.402-.01c.934-.015 1.868.028 2.802.04.933.03 1.868.072 2.802.09.933.018 1.867-.027 2.8-.04 1.87-.023 3.737.063 5.604.074.936.028 1.873-.014 2.803-.124.93-.1 1.866-.15 2.802-.15l11.206-.25c.934.013 1.868.064 2.802.115.935.05 1.868.054 2.802.043 1.868-.026 3.736-.124 5.604-.05.934.057 1.87.147 2.802.15.934-.012 1.868 0 2.802-.043l5.604-.18c.555-.01 1.014.434 1.032.995.017.56-.413 1.033-.967 1.06h-.065c-1.868.018-3.735.054-5.604.058-.934 0-1.868.026-2.802.04-.933.026-1.868.13-2.802.188-1.868.065-3.736-.043-5.604-.11-.934-.044-1.867-.06-2.802-.067l-2.802-.043c-.933-.03-1.867-.113-2.802-.164-.467-.02-.934-.027-1.4-.025l-1.4.032c-1.87.042-3.737.186-5.605.218-.936.065-1.875.03-2.803-.1-.462-.09-.93-.14-1.4-.148-.468.01-.935.036-1.403.053-.934.047-1.867.148-2.8.225-.468.05-.935.064-1.402.09l-.7.035c-.235.006-.468-.003-.702-.004-.466-.014-.933-.065-1.4-.107-.467-.032-.934-.06-1.4-.054-.935 0-1.87.042-2.803.054-.934-.014-1.868.01-2.802-.034-.933-.074-1.87-.083-2.802-.028-.93.125-1.866.172-2.802.14-.933-.02-1.867-.165-2.8-.24-.468-.034-.935-.077-1.402-.077-.467 0-.934.036-1.4.016-.468-.02-.935-.062-1.402-.096l-1.4-.133c-1.866-.142-3.738-.154-5.605-.037l-2.8.126c-.935.043-1.87.093-2.803.094-1.868 0-3.736-.31-5.604-.044-.934.058-1.868.06-2.802.092-.933.033-1.867.05-2.8.055-.555-.006-1.002-.46-1.007-1.02-.005-.56.434-1.02.987-1.036h.02zM131.552 53.548c-.934.012-1.87.01-2.803 0-.935-.01-1.868.002-2.802-.038-1.87-.24-3.736.17-5.605.25-3.735.13-7.47-.107-11.208-.13l-2.8-.04-2.803-.1-2.802-.098c-.934-.03-1.868-.108-2.802-.144l-.7-.034h-.7l-1.402.012c-.934.013-1.868-.03-2.802-.04-.934-.033-1.868-.074-2.802-.09-.934-.02-1.868.026-2.802.04-1.868.02-3.736-.065-5.604-.075-.936-.027-1.872.014-2.802.124-.93.102-1.866.152-2.802.15l-11.208.25c-.934-.012-1.868-.063-2.802-.115-.934-.053-1.868-.055-2.802-.045-1.868.027-3.736.124-5.604.05-.934-.057-1.868-.146-2.802-.15-.934.013-1.868.002-2.802.043l-5.604.18c-.555.01-1.014-.434-1.03-.995-.02-.56.41-1.033.965-1.06h.065c1.868-.018 3.736-.054 5.604-.058.934 0 1.868-.026 2.802-.04.934-.025 1.868-.13 2.802-.188 1.868-.064 3.736.044 5.604.11.934.044 1.868.06 2.802.068l2.802.043c.934.03 1.868.113 2.802.164.467.02.934.027 1.4.026l1.402-.032c1.868-.04 3.736-.186 5.604-.215.935-.064 1.874-.03 2.802.102.462.088.93.138 1.4.146.468-.008.935-.035 1.402-.053.934-.047 1.868-.148 2.802-.225.467-.05.934-.064 1.4-.09l.7-.035c.235-.005.468.003.702.005.467.014.934.065 1.4.107.468.032.935.06 1.402.054.934 0 1.868-.042 2.802-.054.934.014 1.868-.01 2.802.034.932.074 1.868.083 2.802.028.928-.125 1.865-.172 2.802-.14.934.02 1.868.165 2.802.24.467.034.934.077 1.4.077.467 0 .935-.036 1.402-.016.467.02.934.062 1.4.096l1.4.134c1.866.142 3.74.155 5.605.038l2.802-.127c.933-.042 1.867-.092 2.8-.093 1.87 0 3.737.31 5.606.043.934-.057 1.867-.06 2.8-.092.935-.032 1.87-.05 2.804-.054.553.005 1 .458 1.006 1.018.005.56-.434 1.022-.988 1.037l-.018-.002z" fill="#B83718"/><path d="M40.457 95.264c.975-13.692.763-26.507.6-39.05-.187-14.308.375-24.228-.537-34.828 3.09 3.873 7.06 3.903 12.4 5.198 2.36.572 4.877.522 7.254 1.035 6.263 1.348 10.488 6.354 12.606 11.474 2.117 5.12 2.683 10.614 4.714 15.756 1.894 4.677 4.8 8.865 8.503 12.255 4.634 4.31 12.94 5.727 19.636 5.42 3.18-.145 6.41-.714 9.51-.098 1.97.446 3.853 1.22 5.572 2.29 2.375 1.39 4.58 3.036 6.162 5.07 3.492 4.49 3.523 9.75 3.437 15.106" fill="#831802" opacity=".3"/><path d="M82.64 16.148c.013.82.01 1.638 0 2.457-.01.82.003 1.64-.036 2.458-.238 1.638.166 3.276.247 4.915.13 3.277-.105 6.554-.128 9.83l-.04 2.458-.1 2.457-.092 2.454c-.03.82-.108 1.638-.143 2.457l-.034.615v.614l.012 1.228c.013.82-.03 1.64-.04 2.458-.032.82-.072 1.638-.09 2.457-.017.82.027 1.638.04 2.458.022 1.638-.062 3.276-.073 4.915-.028.82.013 1.643.122 2.457.1.816.15 1.636.148 2.458l.248 9.83c-.013.82-.064 1.638-.115 2.457-.05.82-.054 1.64-.043 2.458.026 1.638.122 3.276.05 4.915-.057.82-.145 1.638-.15 2.458.013.82.003 1.638.043 2.457l.18 4.915c.02.568-.418 1.045-.98 1.065-.56.02-1.03-.422-1.05-.99v-.075c-.02-1.638-.055-3.276-.06-4.915 0-.82-.025-1.638-.04-2.457-.024-.82-.128-1.64-.184-2.458-.063-1.638.044-3.276.11-4.915.043-.82.06-1.64.066-2.458l.043-2.457c.03-.82.11-1.638.16-2.458.02-.41.027-.82.026-1.228l-.03-1.23c-.042-1.638-.185-3.277-.214-4.915-.064-.82-.03-1.646.1-2.458.087-.404.136-.815.145-1.228-.01-.41-.036-.82-.053-1.23-.046-.82-.146-1.638-.223-2.458-.047-.41-.062-.82-.087-1.228l-.035-.615c-.006-.205.003-.41.004-.615.015-.41.065-.82.106-1.23.033-.408.06-.818.054-1.227 0-.82-.043-1.64-.054-2.458.013-.82-.01-1.638.033-2.457.074-.817.083-1.64.03-2.458-.125-.812-.17-1.635-.138-2.457.02-.82.16-1.638.235-2.458.034-.41.077-.82.076-1.228 0-.41-.035-.82-.015-1.23.02-.41.062-.818.095-1.228l.133-1.228c.14-1.635.153-3.28.037-4.916l-.125-2.457c-.043-.82-.092-1.638-.093-2.458 0-1.638.307-3.276.043-4.915-.057-.82-.06-1.638-.09-2.457-.032-.82-.05-1.64-.054-2.458-.006-.567.444-1.032 1.004-1.038.56-.007 1.02.45 1.027 1.016l-.004.025zM90.44 94.788c-.012-.81-.01-1.618 0-2.428.01-.81-.003-1.618.037-2.427.238-1.618-.167-3.236-.248-4.855-.13-3.237.105-6.474.128-9.71l.04-2.428.1-2.427.095-2.427c.03-.81.107-1.62.142-2.428l.034-.607v-.605l-.013-1.214c-.013-.808.03-1.617.04-2.427.032-.81.073-1.618.09-2.427.018-.81-.026-1.618-.04-2.427-.02-1.62.063-3.238.074-4.857.028-.81-.012-1.623-.12-2.427-.1-.805-.15-1.616-.15-2.427l-.247-9.713c.012-.81.063-1.618.114-2.427.05-.81.054-1.618.043-2.428-.026-1.618-.122-3.236-.05-4.855.056-.81.145-1.618.15-2.427-.014-.81 0-1.618-.044-2.428l-.176-4.857c-.02-.567.416-1.044.977-1.065.56-.02 1.032.422 1.053.99v.075c.018 1.62.053 3.237.057 4.856 0 .81.026 1.62.04 2.428.025.81.13 1.618.185 2.427.064 1.62-.043 3.237-.11 4.856-.042.81-.058 1.62-.065 2.428l-.043 2.427c-.03.81-.11 1.62-.162 2.428-.02.405-.026.81-.025 1.214l.03 1.214c.042 1.62.185 3.237.216 4.856.064.81.03 1.625-.1 2.427-.087.4-.136.806-.144 1.214.007.405.034.81.05 1.214.047.81.148 1.62.224 2.43.048.403.063.808.088 1.212l.035.607c.005.202-.003.404-.004.606-.015.405-.065.81-.106 1.214-.033.405-.06.81-.054 1.214 0 .81.043 1.618.054 2.427-.013.81.01 1.62-.033 2.43-.073.806-.082 1.617-.028 2.426.124.803.17 1.616.137 2.427-.02.81-.16 1.62-.235 2.428-.034.405-.077.81-.077 1.215.002.405.037.81.017 1.214-.02.403-.062.808-.096 1.213l-.13 1.213c-.142 1.615-.155 3.24-.04 4.856l.126 2.427c.043.808.093 1.617.094 2.427 0 1.618-.307 3.236-.043 4.855.056.81.06 1.618.09 2.427.033.808.05 1.617.055 2.427-.004.56-.45 1.015-1.005 1.02-.554.007-1.01-.438-1.027-.998v-.022z" fill="#B83718"/><path d="M111.922 30.446c-.122-.21-.235-.42-.342-.637-.116-.213-.266-.404-.376-.622-.162-.49-.683-.7-1.055-.993-.694-.664-1.45-1.26-2.258-1.775-.207-.125-.42-.238-.64-.34-.218-.105-.423-.25-.65-.334-.447-.2-.907-.37-1.377-.543-.483-.102-.973-.17-1.465-.206-.246-.025-.494-.04-.743-.05-.248.008-.495.043-.736.103-.244.03-.484.087-.73.118-.243.026-.482.08-.713.16-.23.06-.436.19-.59.372-.145.188-.297.315-.4.472-.2.236-.225.578-.06.84.062.124.167.22.295.27.11.028.086-.018.11-.016.094-.023.175-.086.22-.174.046-.07.076-.148.092-.23.01-.082.01-.166 0-.248-.09-.347-.284-.658-.554-.89-.122-.168-.282-.304-.467-.397-.186-.083-.387-.124-.59-.12-.345-.003-.673.15-.895.415-.234.288-.652.335-.942.105-.29-.23-.346-.652-.126-.95.012-.017.025-.032.04-.047l.06-.067c.515-.526 1.23-.796 1.96-.74.333.026.662.1.977.215.076.032.158.052.237.08.08.028.153.068.233.098.162.062.316.142.46.238.605.456.97 1.168.99 1.93.01.386-.06.77-.2 1.127-.165.42-.48.76-.88.953-.232.1-.488.135-.738.097-.224-.04-.436-.13-.62-.26-.163-.11-.31-.238-.44-.384-.402-.425-.617-.998-.595-1.586.01-.11.03-.22.055-.328.028-.09.055-.182.09-.27.068-.175.16-.34.277-.487.187-.3.476-.522.813-.62.3-.064.588-.178.85-.337.257-.14.52-.267.79-.38.13-.057.265-.105.4-.15.135-.05.275-.08.417-.087.144.003.288.012.43.028.142.01.282.003.42 0 .28-.004.56-.044.84-.048.278.027.56.034.834.078.266.092.543.142.823.15.282-.024.566.008.835.095.26.114.51.25.747.406.125.06.243.136.37.192.13.042.258.092.382.15.24.142.465.308.67.497.106.086.216.168.33.244.106.084.218.16.335.23.113.073.23.14.35.2l.348.213c.237.135.467.284.688.444.233.15.45.323.645.518.396.396.583.948 1.048 1.286.183.21.345.435.507.665.15.236.295.478.43.723.184.327.072.743-.25.93-.322.187-.733.076-.92-.25l-.045-.077z" fill="#232B35"/><g transform="translate(103.218 26.55)"><g fill="#FAF9F5"><path d="M2.642.867L.772 14.49l13.69 19.115 16.662-13.832L15.652 1.73"/><path d="M3.066 1.393L2.68 4.708c-.13 1.103-.256 2.202-.443 3.27-.178 1.08-.223 2.228-.313 3.334l-.13 1.657-.193 1.635-.15-.613c1.148 1.59 2.255 3.207 3.374 4.815l3.37 4.817c1.14 1.596 2.22 3.233 3.335 4.844 1.123 1.606 2.177 3.264 3.3 4.868l-.654-.087c.7-.572 1.377-1.168 2.08-1.735l2.107-1.697 2.114-1.69 2.06-1.756c1.383-1.16 2.805-2.273 4.19-3.428.695-.577 1.408-1.13 2.07-1.746.656-.624 1.304-1.257 2-1.83l-.062.746-3.93-4.457-1.96-2.233c-.66-.737-1.324-1.473-1.973-2.22-.663-.735-1.28-1.512-1.908-2.277-.63-.766-1.247-1.54-1.887-2.297L15.17 2.154l.44.222c-1.047-.066-2.093-.21-3.147-.312-.53-.063-1.054-.1-1.58-.134l-1.57-.11c-2.088-.126-4.165-.268-6.247-.427zM2.22.34c2.216.086 4.454.162 6.712.274 1.124.04 2.256.12 3.38.13 1.126.025 2.263.023 3.398.11l.372.027.227.274 1.902 2.283 1.882 2.302c1.265 1.522 2.573 3.01 3.805 4.564.62.772 1.223 1.56 1.87 2.312.644.75 1.304 1.49 1.96 2.23 1.33 1.47 2.676 2.923 3.97 4.423l.51.59-.602.51-.516.435-.537.413-1.118.77c-.738.52-1.386 1.156-2.073 1.74-1.334 1.222-2.64 2.476-4.03 3.626-.7.566-1.45 1.076-2.15 1.647l-2.064 1.75c-.683.59-1.39 1.154-2.082 1.73-.692.58-1.42 1.114-2.115 1.69l-.61.503-.43-.64c-.548-.812-1.196-1.552-1.8-2.324-.594-.78-1.13-1.603-1.65-2.435l-.792-1.242c-.26-.416-.524-.83-.816-1.222l-.857-1.193-.797-1.237c-.538-.82-1.043-1.666-1.602-2.47-.27-.41-.555-.808-.842-1.205-.287-.397-.57-.797-.866-1.187L.313 14.83l-.134-.177.03-.244.214-1.76.287-1.745.292-1.737c.1-.576.197-1.15.25-1.752.11-1.202.285-2.378.455-3.552L2.22.34z"/></g><ellipse fill="#DC4A27" transform="rotate(-80.06 9.63 9.997)" cx="9.631" cy="9.997" rx="2.359" ry="2.387"/></g><path d="M112.582 36.48l-.688-.14-.677-.18c-.45-.123-.89-.282-1.317-.475-.828-.426-1.807-.525-2.63-.995-1.622-.933-3.102-2.1-4.39-3.468-.64-.674-1.232-1.39-1.777-2.145-.56-.74-.98-1.572-1.524-2.312-.5-.773-.938-1.583-1.316-2.423-.207-.41-.435-.808-.636-1.22-.2-.415-.354-.842-.52-1.286-.516-1.785-1.198-3.482-1.766-5.147-.286-.808-.67-1.577-1.14-2.29-.24-.32-.506-.62-.8-.89-.288-.25-.597-.478-.923-.676-.335-.203-.7-.346-1.083-.422-.406-.075-.82-.1-1.23-.078-.828.06-1.648.196-2.45.406-.783.163-1.476.62-1.94 1.28-.408.635-.552 1.408-.398 2.15.04.242-.047.487-.232.645-.185.158-.44.203-.667.12-.226-.084-.392-.284-.435-.525l-.002-.013-.01-.06c-.172-1.088.087-2.2.72-3.096.324-.428.714-.8 1.155-1.105.426-.285.872-.54 1.333-.763.92-.382 1.915-.548 2.908-.485.496.016.99.074 1.477.17.513.092 1.01.26 1.475.498.465.238.885.556 1.242.94.327.38.625.785.89 1.212.264.405.504.825.72 1.26.218.424.42.854.596 1.29.177.435.345.87.48 1.313.165.43.268.88.304 1.34.01.228.04.455.09.678.058.218.14.426.213.636.15.412.328.813.533 1.2.197.364.424.765.613 1.153.184.398.27.847.485 1.232.203.39.436.763.666 1.137.21.387.464.746.667 1.138.196.396.454.758.763 1.072.317.303.595.644.83 1.016.22.385.46.757.72 1.116.143.166.295.325.456.474.15.16.284.336.424.507 1.014 1.502 2.627 2.385 4.173 3.15.78.37 1.475.962 2.343 1.136.214.04.425.094.632.16l.627.162c.422.094.844.174 1.266.256h.01c.36.076.595.43.527.798-.068.367-.414.61-.778.55h-.008zM124.976 43.096c-.154.165-.318.32-.492.463-.248.063-.264.373-.404.555-.318.316-.665.6-1.037.85l-.265.204-.284.18c-.186.126-.382.238-.585.335-.097.056-.184.126-.26.208-.082.074-.17.14-.264.2-.2.097-.377.237-.52.408-.162.152-.36.257-.532.394-.2.105-.234.41-.415.535-.15.162-.31.312-.467.468-.166.144-.284.343-.453.48-.193.105-.374.23-.542.375-.138.17-.295.324-.466.46-.205.084-.382.226-.51.41l-.397.522c-.172.224-.49.265-.712.092-.222-.173-.264-.495-.094-.72l.03-.038.052-.057c.153-.165.3-.338.458-.498.082-.078.16-.16.23-.246.067-.1.127-.2.182-.303.156-.164.337-.302.535-.41.19-.12.352-.276.534-.406.094-.06.205-.102.305-.156.095-.058.18-.132.252-.217.15-.166.278-.358.432-.52.083-.073.143-.174.287-.174.12 0 .23-.068.285-.174.133-.187.215-.434.395-.564.1-.053.228-.068.305-.15.086-.068.152-.16.235-.233.08-.075.168-.142.26-.2.107-.04.198-.11.264-.2.056-.106.102-.222.204-.27.106-.05.216-.09.33-.12.052-.018.103-.044.148-.078.035-.043.074-.08.118-.115.104-.05.212-.094.323-.127.206-.086.382-.234.502-.424.142-.17.256-.37.41-.523.155-.153.424-.185.488-.436.126-.177.263-.348.41-.51.192-.206.513-.215.717-.02.204.194.213.52.02.726l-.014.02zM124.238 39.663c-.204.18-.416.352-.637.512-.286.082-.358.42-.54.627-.402.37-.827.715-1.272 1.03l-.32.257-.34.233c-.22.165-.453.317-.692.454-.114.077-.218.167-.31.27-.098.096-.216.174-.32.26-.235.143-.446.324-.625.534-.194.194-.43.342-.636.52-.237.147-.3.49-.522.654-.188.203-.38.4-.575.593-.205.183-.363.42-.573.597-.236.143-.46.305-.67.485-.185.204-.388.39-.607.56-.126.06-.247.13-.36.21-.108.087-.21.183-.302.285l-.575.602c-.195.204-.517.21-.718.013-.202-.198-.208-.523-.013-.728.008-.01.016-.017.025-.025l.06-.053c.2-.183.398-.37.605-.55.103-.086.198-.187.297-.28.09-.11.173-.22.25-.338.197-.19.416-.357.652-.495.232-.146.43-.337.65-.5.11-.08.24-.138.36-.21.112-.078.214-.17.304-.275.19-.198.347-.435.54-.627.102-.093.173-.218.34-.237.142-.022.266-.11.338-.236.136-.247.302-.476.494-.682.128-.057.248-.128.36-.213.102-.093.19-.2.287-.297.106-.087.202-.186.316-.264.124-.06.232-.15.316-.262.056-.132.145-.245.258-.33.125-.07.254-.132.387-.183.065-.028.125-.065.18-.108.046-.052.095-.1.15-.142.123-.072.25-.134.383-.187.25-.123.465-.305.63-.53.186-.206.35-.44.55-.625.21-.18.517-.24.64-.523.186-.206.38-.403.587-.59.21-.187.53-.167.716.045.186.212.167.537-.043.725l-.025.023z" fill="#232B35"/></g></g></svg>