<svg xmlns="http://www.w3.org/2000/svg" viewBox="0 0 711 700"><title>small-width</title><g opacity=".25"><path fill="#B7C3D9" d="M711.2 505.6c-.2.5-.3 1-.4 1.5v192.2H-.2V0h711v505.6h.4z"/><path fill="#F4F6F8" d="M710.8 183.6v202.7l-4.5 6.9-1.6 2.5-8.2 12.7-.2.2-.7 1.1-.3.4-.2.3-.2.3-.9 1.4-.5.7-.1.2-1 1.5L683 429c0 .1-.1.1-.1.1l-2.8 4.4v.1l-11.2 17.3-.9 1.4-2.2 3.4-5.3 8.2-1 1.5L652 477l-1 1.6-7.5 11.6-1 1.6-16.1 24.9-1 1.5-11.1 17.2-1.8 2.8-9.2 14.2-2.3 3.6-2.1 3.3-53.7 83-37.3 57.7H-.2V239.1l646.3-86.6 1-.1.6-.1 6.5-.9 3.2-.4 24.1-3.2 29.3 35.8z"/><g fill="#D8E1EC"><path d="M200.5 569.3l-2.8 3-.1.1-.1.1-66.6 69.8L75.8 700h-76V461.7l7.5-1.5 1.6-.3 2.3-.5 39.9-8 7.4-1.5 3.2-.6h.2l8.3-1.7 1.7-.3 1.3 1.1 13.3 11.1.2.1.2.2 4.8 4 .6.5 1.3 1.1 4.7 4 2 1.6 5 4.2.8.7 1.4 1.2 91.8 76.8 1.2 1 .1.1c.2.1.3.2.4.4 4.2 3.7 3.6 9.9-.5 13.9z"/><path d="M204.8 558.3c-.4-1.1-.9-2-1.7-2.9-.3-.4-.7-.8-1.1-1.2-.2-.2-.4-.3-.5-.4-.2-.2-.5-.4-.7-.5l-.5-.4-4-3.2-4.5-3.6c-1.5-1.2-3-2.3-4.4-3.6l-8.7-7.5c-2.9-2.5-5.9-4.8-8.9-7.2l-2.2-1.8-2.2-1.9-4.4-3.7c-2.9-2.5-5.7-5.1-8.6-7.6-1.5-1.2-2.9-2.5-4.4-3.7s-3.1-2.3-4.6-3.5l-2.2-1.8-2.2-1.9-4.3-3.8c-.7-.6-1.4-1.3-2.2-1.9l-2.2-1.8-4.4-3.6c-5.8-4.6-11-10-16.7-14.6-.2-.2-.4-.3-.6-.5l-.8-.7-.8-.7-5.7-4.6-1.6-1.3c-.1-.1-.2-.1-.3-.2-1.9-1.5-3.8-3.1-5.6-4.7-.3-.2-.5-.5-.8-.7-.2-.1-.3-.3-.5-.4l-1.6-1.4c-1.5-1.3-3-2.6-4.6-3.9-.1 0-.1-.1-.2-.1s-.1-.1-.2-.1c-1.3-1-2.6-2.1-3.9-3.1l-7.8-6.3-1.2-.9h-.1c-.3-.2-.7-.3-1.1-.2-.2 0-.5.1-.7.2-2.8.6-5.5 1.2-8.2 1.8-1.1.2-2.2.5-3.3.7-2.3.5-4.7.9-7 1.4l-.7.1c-6.3 1.1-12.5 2.1-18.8 3.5-6.5 1.4-12.9 2.7-19.4 4.1l-3.8.8c-.8.2-1.6.4-2.4.5-.5.1-1.1.2-1.6.4-1.9.4-3.9.8-5.8 1.3v2.7c3.3-.6 6.6-1.2 10-1.8l1.5-.3c.7-.1 1.5-.3 2.2-.4.2 0 .4-.1.6-.1 6.5-1.2 12.9-2.5 19.4-3.8 5.8-1.1 11.5-2.5 17.3-3.9.7-.2 1.4-.3 2-.5 1.7-.4 3.4-.8 5.1-1.1 1-.2 1.9-.4 2.9-.6h.1c3-.6 6.1-1.2 9.1-1.7l1.5-.3-.4-.4.5.1.7.2c-.2 0-.4.1-.7.1l1.4 1.2 6.8 5.9c2.5 2.2 5 4.3 7.5 6.4.1.1.1.1.2.1l.2.2c.3.2.6.5.9.7l2.7 2.1c.2.2.5.4.7.6.5.4 1.1.9 1.6 1.3 1.3 1 2.5 2.1 3.8 3.2l2.1 1.8c1.4 1.2 2.8 2.4 4.1 3.6.3.2.6.5.9.8.4.3.8.7 1.2 1l.4.4c5.7 5.2 12.2 9.4 17.8 14.6 2.8 2.6 5.6 5.2 8.7 7.6l4.6 3.5 2.2 1.8 2.1 1.9c1.4 1.3 2.7 2.7 4.2 4 1.4 1.3 2.9 2.5 4.4 3.7 3 2.4 6.1 4.7 9.1 7.1l4.5 3.6 2.2 1.8 2.2 1.9c2.9 2.5 5.8 5.1 8.7 7.5l4.5 3.5c1.5 1.2 3.1 2.3 4.5 3.5 1.5 1.2 2.9 2.5 4.4 3.7l4.4 3.8 3.6 3.2.7.6c.2.2.4.3.6.5.2.2.4.3.6.5.3.2.5.5.8.8.5.6.9 1.3 1.1 2 .5 1.5.5 3.2 0 4.7-.5 1.6-1.4 3-2.6 4.2l-3.9 4.1-.1.1-.1.1-14 14.8c-6 6.4-11.9 12.8-17.9 19.1-11.7 11.6-22.5 24.2-34 36l-2.1 2.1L91 682c-3.1 3.1-6 6.3-9 9.5l-7.8 8.4h4l6.1-6.2c3-3.2 6.1-6.3 9-9.5l35.8-38.3c1.1-1.3 2.3-2.5 3.4-3.7 10.8-11.5 22.3-22.3 32.8-34.1 6-6.4 12.1-12.6 18.2-18.8l17.7-18.4.1-.2.3-.3h.1c1.5-1.5 2.7-3.4 3.3-5.5.6-2.2.6-4.5-.2-6.6zM87.4 462.1c-.2-.6-.3-1.3-.5-1.9v-.1c-.1-.2-.1-.3-.2-.5l-.2-.1-13.3-11.1-1.3-1.1-1.7.3-8.3 1.7-.1.1c-.1.1-.2.3-.3.5-.1.1-.2.3-.3.4s-.1.1-.1.2l-.2.4c3-.6 6.1-1.2 9.1-1.7l1.5-.3-.4-.4.5.1.7.2c-.2 0-.4.1-.7.1l1.4 1.2 6.8 5.9c2.5 2.2 5 4.3 7.5 6.4.1.1.1.1.2.1-.1-.2-.1-.3-.1-.4z"/></g><path fill="#B7C3D9" d="M63.1 620.1l-1.2.9-2.2 1.7-25.9 19.7-34.1 25.9V514.8L28 561.9l.7 1.2.3.6 5.3 8.8.5.8.5.9.7 1.2.2.3.2.3 26 43.2.7.9z"/><g fill="#D8E1EC"><path d="M710.8 88.7v181.7c-11.2-6.6-21.3-14.8-30-24.5-27.4-30.5-35.7-66.6-33.7-93.6 1.2-16.7 6.3-30 13.2-36.2.6-.5 1.2-1 1.8-1.6 1.7-1.4 3.4-2.8 5.2-4.2 13.2-9.6 27.9-16.9 43.5-21.6z"/><path d="M709.8 87.4l-5.1 1.2c-1.7.4-3.3 1-5 1.6-1.6.6-3.2 1.3-4.8 2.1-6.3 3-12.3 6.4-18.1 10.2-2.5 1.6-5.1 3.2-7.6 4.9-1.9 1.3-3.8 2.7-5.7 4.1-1.3 1-2.5 1.9-3.7 3-1.4 1.2-2.7 2.5-3.8 3.9s-2.1 3-2.9 4.6c-.8 1.6-1.6 3.2-2.3 4.8-.7 1.6-1.2 3.3-1.7 5-1 3.4-1.7 6.8-2.2 10.2-.5 3.1-.7 6.3-.8 9.4 0 .3 0 .6-.1.9l-.2 5.2-.2 5.2v5.2c.1 1.7.2 3.5.4 5.2.3 3.5.9 6.9 1.5 10.3.3 1.7.7 3.4 1.1 5.1.4 1.7.9 3.4 1.3 5.1 1 3.3 2.1 6.6 3.3 9.9.7 1.6 1.3 3.2 2.1 4.8s1.6 3.1 2.4 4.6c.4.8.8 1.5 1.3 2.3s.8 1.5 1.2 2.3l2.5 4.5c.8 1.5 1.7 3 2.6 4.5s1.8 3 2.7 4.4c1.9 2.9 3.9 5.7 6 8.5 1.1 1.4 2.1 2.8 3.2 4.1 1.2 1.3 2.3 2.6 3.6 3.8l3.7 3.7c1.2 1.3 2.4 2.5 3.7 3.7 2.5 2.4 5.1 4.8 7.8 6.9 2.7 2.2 5.6 4.1 8.6 5.8 1.5.9 3 1.8 4.5 2.6l1.5 1v-3.3h-.1c-1.4-.9-2.8-1.9-4.2-2.9-2.7-2-5.4-4.1-8.1-6.2-2.7-2.1-5.3-4.1-7.9-6.4-1.3-1.1-2.5-2.3-3.7-3.4-1.2-1.2-2.4-2.4-3.4-3.7-2.2-2.6-4.4-5.1-6.6-7.7s-4.2-5.3-6.2-8c-1-1.4-2-2.8-2.9-4.2s-1.8-2.9-2.7-4.3c-.9-1.4-1.7-2.9-2.5-4.5-.8-1.5-1.5-3.1-2.1-4.6-.7-1.6-1.3-3.1-1.9-4.7-.6-1.6-1.3-3.1-1.8-4.7-1.2-3.1-2.3-6.4-3.3-9.6-2-6.5-3.5-13.1-4.5-19.9-1.1-6.7-1.5-13.6-1.2-20.4 0-.4.1-.9.1-1.3.2-3 .6-5.9 1.2-8.9.6-3.3 1.4-6.6 2.4-9.9 1-3.2 2.3-6.3 3.9-9.3 1.6-2.9 3.6-5.6 6.1-7.9l.2-.2c1.7-1.5 3.4-3 5.2-4.4 3.5-2.8 7.2-5.3 11-7.7 5.9-3.4 12-6.4 18.4-8.9 1.6-.7 3.2-1.3 4.8-1.9l4.8-1.9 4.8-1.8c.1 0 .2-.1.3-.1v-2.4l-.9.5z"/></g><path fill="#B7C3D9" d="M710.8 256.8v3.6c-.9-.6-1.9-1.3-2.8-2-2.6-1.9-4.9-4.2-7.4-6.2s-5.2-3.7-7.7-5.8c-2.5-2-4.9-4.1-7.2-6.4-2.3-2.3-4.4-4.7-6.2-7.4-.9-1.3-1.9-2.6-3-3.9s-2.2-2.4-3.2-3.7c-1.1-1.2-2-2.5-2.9-3.9-.8-1.4-1.1-3.1-1.7-4.6-.7-1.5-1.6-2.8-2.5-4.1-1-1.3-1.8-2.7-2.3-4.3-1.2-3-2.2-6.1-3.2-9.2s-1.9-6.2-2.7-9.3c-.4-1.6-.8-3.1-1-4.7-.1-.8-.1-1.6-.2-2.4 0-.4-.1-.8-.2-1.2l-.3-1.2c-.5-1.5-.8-3.1-1-4.7-.2-1.6-.2-3.2-.3-4.8-.4-6.4-.9-12.8-.7-19.2v-.1c.1-3.2.5-6.3.8-9.5l.3-4.8.3-2.4c.2-.8.3-1.6.5-2.4.7-3.1 1.7-6.2 2.8-9.2.5-1.5 1.1-3 1.7-4.5l.9-2.4c.2-.5.4-1 .5-1.5.1-.2.2-.4.2-.7.3-.8.6-1.5 1-2.2 0-.1.1-.2.1-.2.3-.6.7-1.2 1.1-1.8.9-1.3 1.6-2.8 2.5-4.2 1.7-2.8 3.6-5.5 5.7-7.9.6-.7 1.7-.8 2.4-.2.7.6.8 1.7.2 2.4v.1c-2.1 2.3-4 4.7-5.8 7.2l-.3.4c-.7 1-1.3 2-1.8 3l-.3.6c-.1.3-.2.5-.3.8-.5 1.2-1.1 2.3-1.8 3.4-.4.7-.8 1.3-1.1 2.1-.4.7-.7 1.4-1 2.1-.5 1.5-1 3-1.4 4.5-.8 3-1.4 6.1-1.9 9.2-.2.8-.3 1.5-.4 2.3-.2.8-.3 1.5-.5 2.3-.3 1.5-.7 3.1-.9 4.6-.5 2.9-.2 5.8-.4 8.8v.6l-.2 4.7c-.1 1.6-.1 3.1-.1 4.7 0 3.1.2 6.3.6 9.4.2 1.6.6 3.1.9 4.6.3 1.6.5 3.1.5 4.7 0 .4.1.8.1 1.2s.1.8.2 1.2c.2.8.6 1.5.8 2.2l1.1 4.6c.8 3.1 1.6 6.1 2.5 9.1s2.1 5.9 3.3 8.8c.3.7.6 1.4.9 2.2s.6 1.5.8 2.2.5 1.5.8 2.2.6 1.4 1 2.1.9 1.3 1.3 2c.5.6.9 1.3 1.3 2l2.3 4.1c1.5 2.8 3.3 5.4 5.4 7.7 2.1 2.4 4.4 4.6 6.5 6.9 2.2 2.3 4.5 4.5 6.9 6.6s4.7 4.3 7.2 6.2l1.9 1.4 2 1.3c1.3.8 2.7 1.7 4 2.5.6-.1 1 .2 1.4.4z"/><g fill="#A7B3CB"><path d="M550.6 101.9l-3.4.2-70.9 4.4-3.2.2-34.9 2.2-3.1.2-35.3 2.2-2.5.2-35.7 2.2-3.3.2-15.9 1-2.8.2-4.5.3-3.9.2-5.9.4-2.5.2-2.1.1-16.2 1-2.5.2-17.5 1.1-1.6.1-17.1 1.1-2.3.2-16.4 1-2.5.2-16.9 1.1-2.5.2-15.8 1-1.4.1-1.2.1h-.5l-1.3.1-4.5.3-1.7.1-9.7-.4-1.9-.1h-1l-61.3-2.4h-.7l-1.3-.1-20.3-.8H100.9l-1.3-.1-7-.3-2.3-.1-45.4-1.8-44.6-1.7V0H344l190.6 93.8 3.4 1.7 5.1 2.5 7.5 3.9z"/><path d="M200 123.5v.2c0 .4-.2.9-.5 1.2-.3.3-.8.5-1.2.5l-9.6-.4-1.2-.1h-1.7l-42.6-1.7c-6.1-.3-12.2-.6-18.3-.8h-.7c-.4 0-.8 0-1.3-.1-6.8-.3-13.5-.6-20.3-.9h-.6c-.4 0-.7 0-1.1-.1-.4 0-.9 0-1.3-.1-2.3-.1-4.7-.2-7-.3-.8 0-1.6-.1-2.4-.1l-2.2-.1c-14.2-.5-28.5-.7-42.7-1.2-4.1-.1-8.3-.3-12.5-.5-11-.5-22-1-32.9-1.5v-2.8c11 .4 22 .7 33.1 1.1 3.6.1 7.3.2 10.9.4 5.5.2 11.1.5 16.6.7l27.6 1.2c.5 0 1 0 1.5.1.8 0 1.5.1 2.3.1 2.3.1 4.7.2 7.1.2.4 0 .9 0 1.3.1H102l20.3.6h2c6.3.2 12.7.4 19 .6 14.2.5 28.5 1 42.7 1.5h1c.6 0 1.2 0 1.8.1 3.2.1 6.5.2 9.7.4.8.1 1.5.8 1.5 1.7zM552.3 102c0 .2-.1.5-.2.7-.4.8-1.4 1.2-2.3.8l-2.7-1.3-10-4.9-4.5-2.2-2.9-1.4L484.3 71l-32.8-16.3c-5.5-2.7-10.9-5.4-16.4-8l-16.5-8c-22-10.6-43.6-21.9-65.5-32.6L340.5 0h5.6l8.2 4.1c21.9 10.8 44 21.1 65.8 32 10.9 5.4 21.8 10.9 32.8 16.3l32.9 16 53.2 26 4.3 2.1 8 3.9c.7.3 1 .9 1 1.6z"/></g><g fill="#C6D0E2"><path d="M554.5 143l-367.8-16.9 2.1-46.1 98.2 4.5 146.8 6.7 65.1 3c12.3.6 47.2-1.6 54.4 6.8 8.4 10.1 1.7 30.8 1.2 42z"/><path d="M558.4 111.1c-.3-2.2-.9-4.4-1.8-6.5-.5-1-1-2-1.7-3-.3-.5-.7-.9-1-1.4-.4-.5-.8-.9-1.3-1.2-1.8-1.3-3.9-2.3-6.1-2.9-2.5-.8-5-1.3-7.5-1.7-1.6-.3-3.2-.4-4.9-.6h-.4c-1.3-.1-2.6-.2-3.9-.2-3-.1-6-.2-9-.2-4.3-.1-8.5-.2-12.8-.2-2.1 0-4.3-.1-6.4-.2s-4.2-.2-6.4-.4c-8.5-.8-17.1-.1-25.5-1l-6.4-.4c-2.1-.1-4.3-.2-6.4-.3-4.3-.2-8.5-.3-12.8-.5-4.3-.3-8.5-.7-12.8-1s-8.5-.4-12.8-.6c-8.5-.3-17-.5-25.5-1.2-2.1-.2-4.3-.3-6.4-.4l-6.4-.2-12.8-.4-12.8-.4c-4.3-.1-8.5-.2-12.8-.5-4.3-.2-8.5-.6-12.8-.8s-8.5-.5-12.8-.7c-8.5-.3-17-.7-25.6-.9-8.5-.3-17-.6-25.6-.7l-12.8-.3c-2.1-.1-4.3-.1-6.4-.2l-6.4-.3-12.3-.8-12.8-.6c-8.5-.4-17-.9-25.6-1.2-.4 0-.8.3-.8.7L187 103c-.2 3.8-.5 7.7-.7 11.5l-.5 6.9-.1 1.7-.1 1.7-.1 1.2c0 .6.4 1.1 1 1.1 3.8.2 7.7.5 11.5.6 2.5 0 5 0 7.5.1.9 0 1.7 0 2.6.1.5 0 .9 0 1.4.1.5 0 1 0 1.4.1h.8c1.7.1 3.3.2 5 .4h.1c2.5.2 4.9.4 7.4.6 1 .1 2 .2 3.1.2 1.8.1 3.5.2 5.3.3l10 .5h1l2.4.1 9.6.4 6.6.3 1.2.1 1.8.1 13.5.7c1 0 1.9.1 2.9.1l2.6.1c5.4.3 10.8.6 16.2.8l1.4.1H307.5c1.9 0 3.9.2 5.8.3 2.1.2 4.1.4 6.2.5.9.1 1.8.1 2.7.2.9.1 1.8.1 2.7.1 4.5.2 8.9.2 13.4.4 1 0 2 .1 3 .1l6.6.3c3.2.2 6.5.3 9.7.4.8 0 1.6.1 2.5.1 3.6.2 7.3.4 10.9.6l5.2.3 3.1.2 14.9.9c.4 0 .8.1 1.2.1 1 .1 1.9.1 2.9.1.6 0 1.1.1 1.7.1 1.9.1 3.8.1 5.7.2 2.9.1 5.7.1 8.6.2 1 0 1.9.1 2.9.1h.1c5.4.2 10.8.6 16.3.9.9.1 1.8.1 2.7.2 1.4.1 2.8.1 4.1.2 4 .2 8 .3 12 .4.9 0 1.9.1 2.8.1 2.7.1 5.4.2 8.1.2l8.4.3 2.4.1 12.1.4c1.5 0 3 .1 4.4.2l1.3.1 1.2.1c1.5.1 3.1.2 4.7.3 3.9.3 7.8.5 11.7.7l11.4.3 11.6.6c6.3.4 12.6.6 18.9.9l4.3.2c.2-.5.4-1 .5-1.6.1-.7.1-.8.1-1.1l.1-.9.1-.6.4-3.1.9-6.3c.6-3.5.9-7.1 1.1-10.7v-2.2c0-2.3-.2-4.5-.5-6.7zm-371 13.8l-.7-.7c.6 0 1.3 0 1.9.1v-1-1.7-6.9c0-1.9 0-3.8.1-5.8s.1-3.8.2-5.8l.3-5.8.4-5.8c.2-3.3.5-6.6.7-9.8-.6 0-1.1-.1-1.6-.1l1.7-1.6c0 .6-.1 1.1-.1 1.7 16.5.8 33 1.4 49.5 1.7 8.5.2 17 .8 25.5 1.5s17 1.1 25.5 1.6c17 .9 34 1.8 51.1 1.8 17 .5 34 2.1 51.1 2.6 8.5.2 17 .8 25.5 1.3 4.3.3 8.5.5 12.8.6s8.5.1 12.8.2 8.5.5 12.8.9c4.2.3 8.5.5 12.8.5 8.5-.2 17 1.6 25.5 1.5l3.2.1h3.2l6.4-.1c4.3-.1 8.5-.2 12.7-.1 4.2.2 8.5.4 12.7.8 1.2.1 2.5.3 3.7.4 1.8.2 3.7.5 5.5.8 1 .2 2.1.4 3.1.7 1.9.4 3.7 1.2 5.4 2.3.4.3.7.6 1 .9 0 .1.1.1.1.2.3.3.5.6.8 1 .6.8 1 1.7 1.4 2.6 1.1 2.9 1.6 6 1.6 9.1v2.9c0 .6-.1 1.3-.1 1.9-.3 3.5-.7 7-1.3 10.6l-1 6.3c-.2 1.1-.3 2.1-.4 3.2 0 .2 0 .5-.1.7 0 .3-.1.6-.1.9v.5h.4-.4c0 .1 0 0 0 0-7.4-.3-14.9-.7-22.3-.9l-11.4-.4-7.8-.5-3.8-.2c-4-.2-7.9-.3-11.9-.4-.8 0-1.6-.1-2.4-.1-1 0-2-.1-3-.1-1.8-.1-3.6-.1-5.5-.2l-7-.4-3.6-.2-2.8-.1-9.6-.5-6.4-.4-2.8-.1-13.8-.8c-.8 0-1.6-.1-2.4-.1-1 0-2.1-.1-3.1-.1-2-.1-3.9-.1-5.9-.1-3.3-.1-6.6-.2-10-.3-.5 0-1 0-1.4-.1l-1.7-.1-16.1-.8-2.8-.1-2.4-.1-13.1-.5-3.7-.2-6.1-.3c-3.3-.1-6.6-.3-9.9-.5l-2.8-.1-10.2-.6-5.8-.3-2.7-.2-3-.2-11.5-.8c-.5 0-1-.1-1.6-.1-1.1-.1-2.3-.1-3.4-.1-2.1-.1-4.3-.1-6.4-.1-1.9-.1-3.8-.1-5.7-.3-1.1-.1-2.2-.2-3.4-.3-.8-.1-1.6-.2-2.4-.2-.3 0-.6 0-.9-.1-5.2-.3-10.5-.6-15.7-.9l-3.6-.2-2.8-.1-12.4-.4-3.7-.2-6.9-.3c-2.9-.2-5.9-.3-8.8-.5-1.1-.1-2.2-.1-3.3-.2l-10.8-.6c-1.5-.1-3.1-.1-4.6-.2h-6.8l-5.7.1c-1.1 0-2.2 0-3.3-.1h-.1l-2.3-.1-1.1-.1-1.2-.1c-.7-.1-1.4-.1-2.1-.2h-.3l-5.4-.6-1.3-.2c-3.2-.4-6.4-.4-9.6-.5v2l-1.3-1.3z"/></g><g fill="#D8E1EC"><path d="M498.3 110.9c-9.5.6-19 1.6-28.3 3.1-18.1 2.8-35.7 7.2-53.9 9.6-42.5 5.8-78-9.9-119.5-13.4-23.3-2-46.9-.9-69.9 3.2-7.6 1.4-15.6 3.5-19.6 8.2-.8.9-1.4 2.1-.8 3.1.9 1.5 3.6 1.8 5.8 1.9 112.6 6.3 226.1 13.9 338.7 15.3.7.1 1.4 0 2.1-.2 1.1-.5 1.9-1.6 1.9-2.8l2.1-12.7c.5-3.1 1-6.4-1.1-9.2-1.9-2.7-5.8-4.4-9.8-5.3-14.6-2.9-32.8-1.7-47.7-.8z"/><path d="M558.9 120.2v-.3c-.2-1-.5-2-1-3-.1-.2-.2-.3-.3-.5-.4-.6-.9-1.2-1.5-1.8-.1-.1-.2-.3-.4-.4-1.6-1.4-3.5-2.4-5.5-3.1-1-.3-1.9-.6-2.9-.8-1-.2-2-.3-2.9-.5-7.7-.9-15.4-1.4-23.1-1.5-3.8-.1-7.7.1-11.5.3s-7.6.4-11.4.7c-7.3.6-14.7 1.3-21.9 2.4-.3.1-.6.1-.9.1l-2.1.3-3.6.6-5.7.9-5.7.9s-3.8.7-5.6 1.1c-3.7.8-7.4 1.8-11.2 2.5-1.5.3-2.9.6-4.4.8-.9.2-1.8.3-2.7.5l-4.2.7c-3.8.6-7.5 1.2-11.3 1.7l-.6.1-2.2.3-.5.1-2.3.2c-1.9.2-3.8.4-5.6.5l-5.7.2c-1.3.1-2.6.1-3.9 0h-1.8c-3.8.1-7.6 0-11.4-.2l-4.6-.3-1.1-.1-1.4-.1-.5-.1-1-.1-2.8-.4-2.8-.4-2.8-.4c-1.9-.3-3.8-.6-5.6-.9-.7-.1-1.3-.2-2-.4-.8-.1-1.7-.3-2.5-.4-5.1-.9-10.2-1.9-15.3-2.9l-3.1-.6c-1.5-.3-3-.6-4.6-.9-3.9-.8-7.8-1.5-11.7-2.3-1.1-.2-2.1-.4-3.2-.6l-2.6-.5c-7.5-1.2-15.1-2.7-22.8-3.3-3.1-.3-6.2-.2-9.3-.3-.8 0-1.5 0-2.2-.1h-.5c-.8 0-1.6-.1-2.4-.1l-2.9-.2c-1.9-.2-3.8-.2-5.8-.2-7.7 0-15.3.3-23 1-.5.1-.9.1-1.4.1l-3.3.3c-2.2.2-4.5.5-6.7.8-2.9.4-5.9.8-8.8 1.3-.9.1-1.7.3-2.6.4-.2 0-.4.1-.5.1-3.7.6-7.4 1.5-10.9 2.7-1.9.7-3.8 1.7-5.5 2.9-.9.6-1.7 1.3-2.4 2.1-.3.4-.6.7-.9 1.1-.1.1-.1.1-.1.2-.4.5-.7 1.1-.9 1.7-.1.3-.1.5-.2.8-.1.6 0 1.2.2 1.7s.5 1 1 1.4c.2.2.4.3.6.4.1.1.2.1.4.2.6.3 1.2.5 1.8.6.4.1.8.2 1.2.2.5.1 1 .1 1.5.2h1.5c.9 0 1.9.1 2.9.2.5 0 .9.1 1.4.1h.1c2.6.3 5.1.7 7.7 1 .7.1 1.5.1 2.2.2h.4c1.8.1 3.6.1 5.4.2 1.9.1 3.8.1 5.7.1h8c1.2 0 2.4.1 3.5.1 3.8.1 7.6.4 11.4.6l1.2.1 1.2.1 1.8.1 7.2.6 9 .6c1 .1 2 .1 3 .2 5.4.3 10.8.6 16.2.8.8 0 1.7.1 2.5.1 5 .2 10 .4 15 .5h1.3c1 0 1.9.1 2.9.1 5.4.2 10.8.6 16.2 1.1l2.4.2h.4c5.3.5 10.6.9 15.9 1.2 1.1.1 2.2.1 3.3.2 1.1.1 2.2.1 3.3.2 4.2.3 8.3.5 12.5.8 1.1.1 2.1.1 3.2.2 2.4.1 4.8.2 7.1.4l5.7.3 2.9.1 2.8.1h.4l11 .1c1.6 0 3.2.1 4.8.1 1.1 0 2.1.1 3.2.1 5.2.2 10.5.6 15.8.9 1.1.1 2.2.1 3.3.2 5.2.3 10.5.6 15.7.8 1 0 2 .1 3 .1h.3c5.2 0 10.5.3 15.7.6l3.3.2c1.2.1 2.4.1 3.6.2l5.7.3c1.9.1 3.8.1 5.7.1h4c2.5 0 5-.1 7.5 0 1.9 0 3.8.1 5.7.2l5.7.4c1.9.1 3.8.2 5.7.2h5.7c3.8-.1 7.6 0 11.4.3 3.8.4 7.6.5 11.4.5h4.5c.6 0 1.1-.1 1.6-.2 1.6-.3 2.9-1.5 3.3-3v-.2l.3-1.5.2-1.4.8-5.7.9-5.7c.5-1.4.6-3.5.4-5.5zm-5.5 19.6l-.3.6c-.2.2-.5.3-.8.4-.9.1-1.7 0-2.6 0l-2.9-.1c-1.9-.1-3.8-.2-5.7-.1-1.9 0-3.8.1-5.7.1-3.8.1-7.6 0-11.4-.2l-5.7-.3-5.7-.1h-1.2l-4.5-.1c-1.9-.1-3.8-.1-5.7-.2l-5.4-.3c-.8-.1-1.7-.1-2.5-.2-.9-.1-1.8-.1-2.6-.2-.3 0-.6 0-.9-.1-3.8-.2-7.6-.3-11.4-.4h-.4l-3.6-.1h-2.7c-5.4-.1-10.7-.2-16.1-.7h-.1c-1 0-2.1-.1-3.1-.1-5.4-.2-10.8-.3-16.1-.4l-2.6-.1c-5.3-.1-10.7-.2-16-.4h-.4c-1.1 0-2.2-.1-3.2-.1-1.4-.1-2.9-.1-4.3-.2H409.5l-11.1-.8h-.1l-2.6-.1-3-.2-5.7-.2c-2.5-.1-4.9-.2-7.4-.3-1-.1-2-.1-3-.1-4.1-.2-8.3-.4-12.4-.5l-3.8-.1-2.7-.1-5-.2-8.4-.3h-.3l-2.4-.1h-.5l-3.1-.1-8.3-.3c-2.5-.1-4.9-.3-7.4-.4l-2.9-.2c-.4 0-.8-.1-1.1-.1h-.5c-4.8-.3-9.6-.6-14.5-.9-.9-.1-1.8-.1-2.8-.2l-5.1-.3-11.2-.7h-.2l-2.4-.1c-3-.2-6-.3-9-.5l-7.1-.3-3.1-.1-1.2-.1c-3.8-.2-7.6-.4-11.4-.7-1.2-.1-2.3-.2-3.5-.3-.9-.1-1.9-.2-2.8-.2-5.2-.4-10.4-.9-15.6-1.2-.3 0-.6 0-.9-.1-.8-.1-1.7-.1-2.5-.1-3-.1-6-.1-8.9-.2-1.2-.1-2.3-.1-3.5-.2h-.1c-.7-.1-1.4-.1-2-.3l-1.2-.3c-.4-.1-.7-.3-1.1-.6-.2-.2-.4-.4-.5-.6 0-.2 0-.5.1-.7.1-.1.1-.3.2-.4.4-.5.8-1 1.3-1.4.1 0 .1-.1.1-.1.6-.5 1.3-1 2-1.4 1.5-.9 3.2-1.7 4.9-2.3 3.1-1.1 6.4-2 9.6-2.6.4-.1.8-.2 1.2-.2.6-.1 1.1-.2 1.7-.3 5.3-1 10.6-1.7 16-2.2.9-.1 1.7-.2 2.6-.3.7-.1 1.5-.1 2.2-.2 4.8-.4 9.7-.7 14.5-.9.9 0 1.8-.1 2.8-.1 1.8-.1 3.6-.1 5.4-.1 1.9 0 3.8 0 5.7-.1 1.5-.1 3-.1 4.6-.1h1.1c.7 0 1.4.1 2.1.1 3.1.2 6.1.7 9.2.9l6.9.6c1 .1 2 .2 2.9.2 4.3.3 8.5.9 12.7 1.7.9.1 1.9.3 2.8.5.9.2 1.9.3 2.8.5h.2c.7.1 1.5.3 2.2.4 1.1.2 2.1.4 3.2.6 3.7.7 7.4 1.6 11.2 2.4h.2c.8.2 1.6.4 2.4.5 2.9.6 5.7 1.3 8.6 1.9 2.4.5 4.8 1 7.3 1.5.9.2 1.9.3 2.8.5.4.1.8.1 1.2.2 1.9.3 3.8.5 5.7.8l2.9.4c1 .1 1.9.2 2.9.3 1.1.1 2.2.3 3.3.4 1.1.1 2.1.2 3.2.3 1.6.2 3.3.3 4.9.5 1.9.2 3.8.3 5.8.5 1 .1 1.9.2 2.9.2h5.5c3-.1 6-.3 9-.5 1.9-.2 3.8-.5 5.8-.7l.8-.1 2-.3 1.4-.2 1.4-.2c3.8-.6 7.5-1.3 11.3-2.1 1.2-.2 2.5-.5 3.7-.8.6-.1 1.3-.3 1.9-.4 1.9-.4 3.7-.8 5.6-1.1 3.7-.7 7.5-1.2 11.3-1.9l3.3-.6c.8-.1 1.6-.3 2.3-.4l5.6-1.2 2.8-.5 2.8-.4c1-.1 2-.3 3.1-.4.9-.1 1.7-.2 2.6-.3 7.5-.9 15.1-1.6 22.7-2.1 3.8-.3 7.6-.5 11.4-.8 3.8-.2 7.6-.3 11.4-.5 3-.1 6-.2 9-.1 2.2 0 4.4.2 6.6.4 2.3.2 4.7.6 7 1.1 1.8.3 3.6.8 5.3 1.4s3.2 1.4 4.6 2.5c1 .8 1.7 1.8 2.2 3 .1.4.2.7.3 1.1.2 1.8.2 3.6-.2 5.3l-1 5.6-1 5.6c-.1.8-.3 1.6-.6 2.5z"/></g><g fill="#B7C3D9"><ellipse transform="rotate(-87.374 532.594 121.082) scale(.99995)" cx="532.6" cy="121.1" rx="8.6" ry="8.6"/><path d="M543.2 121.5v-1c-.1-.3-.2-.7-.3-1l-.6-.9c-.1-.3-.2-.7-.1-1 0-.3-.1-.7-.3-.9-.3-.2-.5-.5-.7-.8s-.3-.6-.4-.9c-.2-.3-.2-.7-.4-1-.1-.1-.2-.3-.3-.4-.2-.1-.4-.1-.5-.2-.4 0-.6-.3-.8-.6-.1-.3-.4-.6-.8-.7-.3-.1-.7-.2-.9-.4l-.2-.2c-.2-.2-.4-.5-.6-.7-.3-.2-.6-.3-1-.3-.7.1-1.4 0-2.1-.3-.7-.1-1.4.1-2 .4-.3.2-.6.3-.9.4-.3.2-.6.3-1 .3-.3 0-.7 0-1.1.1-.3.1-.7.2-.9.4-.6.4-1 .9-1.4 1.5l-.5.9c-.2.3-.3.6-.4.9-.1.6-.4 1.2-.8 1.7s-.6 1.1-.8 1.7-.3 1.2-.2 1.9c.2.6.3 1.2.3 1.8-.2.6-.2 1.3-.1 2 .1.3.6.5.8.7.2.3.2.7.2 1 0 .4.1.7.3 1l.7.8c.9 1.1 1.9 1.9 3.1 2.6.2.1.3.1.5.1.2-.1.4-.1.5 0 .3.1.5.7.8.8.4.1.7.1 1.1-.1.3-.1.7-.1 1-.1s.7 0 1 .1c.3 0 .7.1 1 .1.4 0 .7.1 1.1.1.4 0 .7-.1 1-.2.3-.2.6-.5.8-.7.3-.2.6-.4 1-.4.4-.1.7-.2 1-.4s.5-.5.7-.8.4-.6.5-.9l.4-1c.1-.3.3-.6.4-.9.2-.3.5-.5.8-.7.1-.1.2-.3.2-.4v-.6c0-.3.1-.7.3-1 .4-.4.5-1.1.6-1.8zm-3.9-.2v.7c0 .2 0 .5.1.7 0 .2 0 .5-.1.7-.1.1-.2.2-.3.2-.1.1-.1.2-.1.3.1.3.1.5 0 .8-.1.2-.3.4-.5.6s-.4.3-.6.4c-.2.1-.4.2-.6.4-.2.1-.4.2-.5.4-.2.2-.3.4-.4.7-.1.2-.3.4-.5.5s-.5.1-.7.2c-.5.1-.9.3-1.4.4-.5.1-1 .1-1.5 0-.2-.1-.5-.2-.7-.3-.2-.2-.4-.4-.6-.5-.2-.1-.5.2-.8.2-.1 0-.2-.2-.2-.4 0-.1-.1-.3-.2-.3-.7-.6-1.5-.9-1.8-1.8-.1-.2-.2-.4-.2-.6s-.3-.2-.8-.2c-.4 0-.7-.1-.7-.4s.6-.7.5-.9c0-.4-.9-.6-1.2-1-.1-.2-.1-.5 0-.7s.3-.5.4-.7c.1-.2.2-.4.2-.6v-.7-.7-.8s0-.5.2-.7.5-.3.7-.4c.3 0 .5-.1.7-.3l.6-.3.6-.3c.2-.1.4-.2.5-.3.2-.1.4-.2.5-.4.1-.3.3-.5.4-.8.4-.3.9-.4 1.3-.2.2.1.5.1.7.2.2 0 .4.1.7 0 .2-.1.5-.2.7-.1s.4.3.6.4c.1.2.4.3.6.2.2-.1.5-.1.8-.2.5.1.3 1.2 1 .9.3-.1.5.1.5.5 0 .2-.1.3 0 .5 0 .1.1.2.2.2.2.1.5.1.7.2s.4.2.5.4c.1.2.1.5.1.7s.2.4.4.5c.2.2.5.3.5.6 0 .2-.1.5-.2.7-.1.5-.1 1-.1 1.4z"/></g><path fill="#B7C3D9" d="M210.2 94.3c0 .4-.1.8-.2 1.1-.1.2-.1.4-.1.6.1.1.1.2.2.3 0 .1 0 .2-.1.3-.1.2-.3.4-.3.5 0 .2 0 .4.1.6.1.4.3.8.5 1.1.1.2.1.4.1.6-.1.2-.1.4-.3.5-.1.2-.1.4-.1.6l.3.6c0 .4-.1.8-.4 1.1-.2.3-.3.7-.3 1.1 0 .2 0 .4.1.6s.3.4.2.6c0 .2-.4.4-.5.5s.1.2.1.3c.1.1.1.2.1.3 0 .7-.4 1.5-.3 2.2 0 .4.1.8-.3 1.1-.2.2-.3.4-.3.5s.3.4.3.6c0 .4-.4.7-.6 1.1-.1.4-.1.8.1 1.1.1.8 0 1.5-.2 2.2-.1.4-.1.8.1 1.1.2.4.3.7.4 1.1.1.4.2.7.2 1.1 0 .2 0 .4-.1.6s-.2.4-.3.5c-.3.7.7 1.5.4 2.3-.4.4-.2.7 0 1.1.1.2.1.4 0 .6s-.4.4-.5.5c-.2.4.3.8-.1 1.1-.2.2-.2.4 0 .6.1.1.2.2.2.3v.3c-.3.3-.4.7-.5 1.1 0 .2.1.4.2.6.1.2 0 .4-.1.6s-.2.4-.2.6l.3.6c.1.4.2.7.2 1.1-.1.9-.9 1.5-1.8 1.4-.8-.1-1.4-.7-1.4-1.5v-.1c0-.4 0-.8.1-1.1.1-.2.2-.4.3-.5 0-.2-.1-.4-.2-.6-.2-.1-.2-.4-.1-.6.1-.2.2-.4.3-.5-.1-.4-.2-.8-.5-1.1v-.3l.3-.3c.3-.2.3-.4.1-.6-.2-.1-.2-.3-.1-.5l.1-.1c.2-.2.3-.4.3-.5 0-.2-.3-.4-.4-.6-.1-.2 0-.4.1-.6.2-.4.5-.7.2-1.1-.2-.8.8-1.5.4-2.2-.1-.2-.3-.4-.4-.6-.1-.2-.1-.4-.1-.6 0-.4 0-.8.2-1.1.1-.4.3-.8.6-1.1.4-.4.5-.7.2-1.1-.2-.4-.3-.7-.4-1.1-.1-.4-.1-.8 0-1.1.2-.4.6-.7.4-1.1-.1-.2-.3-.4-.5-.6-.2-.1-.3-.4-.3-.6s.6-.3.7-.5-.1-.4-.3-.6-.4-.4-.4-.6c.1-.2.1-.4.2-.6.4-.7.2-1.5.4-2.2 0-.1.1-.2.2-.3.1-.1.3-.2.3-.3 0-.2-.3-.4-.3-.6s.2-.4.3-.5c.1-.2.2-.3.3-.5.1-.4.1-.7.1-1.1v-1.1c.1-.4.2-.7 0-1.1l-.3-.6c0-.2 0-.4.1-.6.1-.4.3-.7.4-1.1.1-.2.1-.4.1-.6s-.2-.4-.3-.6c0-.1-.1-.2-.1-.3 0-.1.1-.2.2-.3.1-.2 0-.4 0-.6-.1-.4-.2-.7-.2-1.1-.1-.9.5-1.7 1.4-1.8.9-.1 1.7.5 1.8 1.4v.4l-.3.3zM228.6 108.6c0 .2-.1.5-.2.7-.1.1-.1.2 0 .3l.2.2c0 .1 0 .1-.1.2s-.3.2-.3.3c0 .1 0 .2.1.4s.3.5.5.7c.1.1.1.2.1.4 0 .1-.2.2-.3.3s-.2.2-.1.3.2.2.3.4c0 .2-.2.5-.4.7s-.3.4-.3.7c0 .1 0 .3.1.4s.3.2.2.4c0 .1-.4.2-.5.3-.1.1.1.1.2.2s.1.1.1.2c0 .5-.3.9-.3 1.4v.4s-.1.2-.3.3c-.2.1-.3.2-.3.3s.3.2.3.4-.4.4-.5.7 0 .5.1.7v.7s-.1.5-.2.7c-.2.2-.1.5.2.7.2.2.3.5.4.7.2.5.5 1-.1 1.4-.3.5.7 1 .5 1.4-.4.2-.2.5 0 .7.1.1.1.3 0 .3-.1.1-.4.2-.4.3-.2.2.3.5-.1.7-.2.1-.2.2 0 .3.1.1.2.1.2.2v.2c-.2.2-.5.4-.4.7 0 .1.1.2.2.4.1.1 0 .3-.1.3-.1.1-.2.2-.1.3s.2.2.3.4.2.5.2.7c-.1.9-1 1.5-1.9 1.3-.7-.1-1.2-.6-1.3-1.3v-.2c0-.2 0-.5.1-.7l.3-.3c0-.1-.1-.2-.2-.4-.2-.1-.2-.2-.2-.4.1-.1.2-.2.2-.3 0-.2-.3-.5-.5-.7 0-.1-.1-.1 0-.2s.2-.1.3-.2c.3-.1.2-.2.1-.3-.2-.1-.2-.2 0-.4s.3-.2.3-.3c0-.1-.3-.2-.4-.4s0-.2.1-.3c.2-.2.5-.4.2-.7-.2-.5.7-.9.4-1.4l-.4-.4c-.1-.1-.1-.2-.1-.4s0-.5.2-.7c.1-.2.2-.5.5-.7s.5-.4.2-.7c-.2-.2-.3-.5-.4-.7-.1-.2-.1-.5 0-.7.2-.2.6-.4.4-.7s-.9-.5-.8-.7c0-.1.6-.2.7-.3s-.1-.2-.3-.4c-.3-.1-.4-.3-.4-.4.1-.1.1-.2.2-.3.3-.5.2-.9.4-1.4 0-.1 0-.1.2-.2.1-.1.3-.1.3-.2s-.3-.2-.3-.4c0-.1.2-.2.3-.3.1-.1.2-.2.2-.3.1-.2.1-.5.1-.7v-.7c.1-.2.2-.5 0-.7-.1-.1-.3-.2-.3-.4 0-.1 0-.2.1-.3.1-.2.3-.5.4-.7 0-.1.1-.2.1-.3 0-.1-.2-.2-.3-.4 0 0-.1-.1-.1-.2s.1-.1.2-.2 0-.2-.1-.4-.2-.5-.2-.7c-.2-.9.4-1.8 1.3-2s1.8.4 2 1.3v.7l-.8.4zM248.2 96.1c0 .4-.1.8-.2 1.1-.1.2-.1.4-.1.6.1.1.1.2.2.3 0 .1 0 .2-.1.3-.1.2-.3.4-.3.5 0 .2 0 .4.1.6.1.4.3.8.5 1.1.1.2.1.4.1.6-.1.2-.1.4-.3.5-.1.2-.1.4-.1.6l.3.6c0 .4-.1.8-.4 1.1-.2.3-.3.7-.3 1.1 0 .2 0 .4.1.6s.3.4.2.6c0 .2-.4.4-.5.5s.1.2.1.3c.1.1.1.2.1.3 0 .7-.4 1.5-.3 2.2 0 .4.1.8-.3 1.1-.2.2-.3.4-.3.5s.3.4.3.6c0 .4-.4.7-.6 1.1-.1.4-.1.8.1 1.1.1.8 0 1.5-.2 2.2-.1.4-.1.8.1 1.1.2.4.3.7.4 1.1.1.4.2.7.2 1.1 0 .2 0 .4-.1.6s-.2.4-.3.5c-.3.7.7 1.5.4 2.3-.4.4-.2.7 0 1.1.1.2.1.4 0 .6s-.4.4-.5.5c-.2.4.3.8-.1 1.1-.2.2-.2.4 0 .6.1.1.2.2.2.3v.3c-.3.3-.4.7-.5 1.1 0 .2.1.4.2.6.1.2 0 .4-.1.6-.1.2-.2.4-.2.6l.3.6c.1.4.2.7.2 1.1-.1.9-.9 1.5-1.8 1.4-.8-.1-1.4-.7-1.4-1.5v-.1c0-.4 0-.8.1-1.1.1-.2.2-.4.3-.5 0-.2-.1-.4-.2-.6-.2-.1-.2-.4-.1-.6.1-.2.2-.4.3-.5-.1-.4-.2-.8-.5-1.1v-.3l.3-.3c.3-.2.3-.4.1-.6-.2-.1-.2-.3-.1-.5l.1-.1c.2-.2.3-.4.3-.5 0-.2-.3-.4-.4-.6-.1-.2 0-.4.1-.6.2-.4.5-.7.2-1.1-.2-.8.8-1.5.4-2.2-.1-.2-.3-.4-.4-.6-.1-.2-.1-.4-.1-.6 0-.4 0-.8.2-1.1.1-.4.3-.8.6-1.1.4-.4.5-.7.2-1.1-.2-.4-.3-.7-.4-1.1-.1-.4-.1-.8 0-1.1.2-.4.6-.7.4-1.1-.1-.2-.3-.4-.5-.6-.2-.1-.3-.4-.3-.6s.6-.3.7-.5-.1-.4-.3-.6-.4-.4-.4-.6c.1-.2.1-.4.2-.6.4-.7.2-1.5.4-2.2 0-.1.1-.2.2-.3.1-.1.3-.2.3-.3 0-.2-.3-.4-.3-.6s.2-.4.3-.5c.1-.2.2-.3.3-.5.1-.4.1-.7.1-1.1v-1.1c.1-.4.2-.7 0-1.1l-.3-.6c0-.2 0-.4.1-.6.1-.4.3-.7.4-1.1.1-.2.1-.4.1-.6s-.2-.4-.3-.6c0-.1-.1-.2-.1-.3 0-.1.1-.2.2-.3.1-.2 0-.4 0-.6-.1-.4-.2-.7-.2-1.1-.1-.9.5-1.7 1.4-1.8.9-.1 1.7.5 1.8 1.4v.4l-.3.3zM266.6 110.3c0 .2-.1.5-.2.7-.1.1-.1.2 0 .3l.2.2c0 .1 0 .1-.1.2s-.3.2-.3.3c0 .1 0 .2.1.4s.3.5.5.7c.1.1.1.2.1.4 0 .1-.2.2-.3.3s-.2.2-.1.3.2.2.3.4c0 .2-.2.5-.4.7-.2.2-.3.4-.3.7 0 .1 0 .3.1.4s.3.2.2.4c0 .1-.4.2-.5.3-.1.1.1.1.2.2s.1.1.1.2c0 .5-.3.9-.3 1.4v.4s-.1.2-.3.3c-.2.1-.3.2-.3.3s.3.2.3.4-.4.4-.5.7 0 .5.1.7v.7s-.1.5-.2.7c-.2.2-.1.5.2.7.2.2.3.5.4.7.2.5.5 1-.1 1.4-.3.5.7 1 .5 1.4-.4.2-.2.5 0 .7.1.1.1.3 0 .3-.1.1-.4.2-.5.3-.2.2.3.5-.1.7-.2.1-.2.2 0 .4.1.1.2.1.2.2v.2c-.2.2-.5.4-.4.7 0 .1.1.2.2.4.1.1 0 .3-.1.3-.1.1-.2.2-.1.3s.2.2.3.4c.1.2.2.5.2.7-.1.9-1 1.5-1.9 1.3-.7-.1-1.2-.6-1.3-1.3v-.2c0-.2 0-.5.1-.7l.3-.3c0-.1-.1-.2-.2-.4-.2-.1-.2-.2-.2-.4.1-.1.2-.2.2-.3 0-.2-.3-.5-.5-.7 0-.1-.1-.1 0-.2s.2-.1.3-.2c.3-.1.2-.2.1-.3-.2-.1-.2-.2 0-.4s.3-.2.3-.3-.3-.2-.4-.4 0-.2.1-.3c.2-.2.5-.4.2-.7-.2-.5.7-.9.4-1.4l-.4-.4c-.1-.1-.1-.2-.1-.4s0-.5.2-.7c.1-.2.2-.5.5-.7s.5-.4.2-.7c-.2-.2-.3-.5-.4-.7s-.1-.5 0-.7c.2-.2.6-.4.4-.7s-.9-.5-.8-.7c0-.1.6-.2.7-.3s-.1-.2-.3-.4c-.3-.1-.4-.3-.4-.4s.1-.2.2-.3c.3-.5.2-.9.4-1.4 0-.1 0-.1.2-.2.1-.1.3-.1.3-.2s-.3-.2-.3-.4.2-.2.3-.3c.1-.1.2-.2.2-.3.1-.2.1-.5.1-.7v-.7c.1-.2.2-.5 0-.7-.1-.1-.3-.2-.3-.4 0-.1 0-.2.1-.3.1-.2.3-.5.4-.7 0-.1.1-.2.1-.3 0-.1-.2-.2-.3-.4 0 0-.1-.1-.1-.2s.1-.1.2-.2 0-.2-.1-.4-.2-.5-.2-.7c-.2-.9.4-1.8 1.3-2s1.8.4 2 1.3c0 .2.1.5 0 .7l-.7.3zM286.2 97.8c0 .4-.1.8-.2 1.1-.1.2-.1.4-.1.6.1.1.1.2.2.3 0 .1 0 .2-.1.3-.1.2-.3.4-.3.5 0 .2 0 .4.1.6.1.4.3.8.5 1.1.1.2.1.4.1.6-.1.2-.1.4-.3.5-.1.2-.1.4-.1.6l.3.6c0 .4-.1.8-.4 1.1-.2.3-.3.7-.3 1.1 0 .2 0 .4.1.6s.3.4.2.6c0 .2-.4.4-.5.5s0 .2.1.3c.1.1.1.2.1.3 0 .7-.4 1.5-.3 2.2 0 .4.1.8-.3 1.1-.2.2-.3.4-.3.5s.3.4.3.6c0 .4-.4.7-.6 1.1-.1.4-.1.8.1 1.1.1.8 0 1.5-.2 2.2-.1.4-.1.8.1 1.1.2.4.3.7.4 1.1s.2.7.2 1.1c0 .2 0 .4-.1.6s-.2.4-.3.5c-.3.7.7 1.5.4 2.3-.4.4-.2.7 0 1.1.1.2.1.4 0 .6s-.4.4-.5.5c-.2.4.3.8-.1 1.1-.2.2-.2.4 0 .6.1.1.2.2.2.3v.3c-.3.3-.4.7-.5 1.1 0 .2.1.4.2.6.1.2 0 .4-.1.6-.1.2-.2.4-.2.6l.3.6c.1.4.2.7.2 1.1-.1.9-.9 1.5-1.8 1.4-.8-.1-1.4-.7-1.4-1.5v-.1c0-.4 0-.8.1-1.1.1-.2.2-.4.3-.5 0-.2-.1-.4-.2-.6-.2-.1-.2-.4-.1-.6.1-.2.2-.4.3-.5-.1-.4-.2-.8-.5-1.1v-.3l.3-.3c.3-.2.3-.4.1-.6-.2-.1-.2-.3-.1-.5l.1-.1c.2-.2.3-.4.3-.5 0-.2-.3-.4-.4-.6s0-.4.1-.6c.2-.4.5-.7.2-1.1-.2-.8.8-1.5.4-2.2-.1-.2-.3-.4-.4-.6s-.1-.4-.1-.6c0-.4 0-.8.2-1.1.1-.4.3-.8.6-1.1.4-.4.5-.7.2-1.1-.2-.4-.3-.7-.4-1.1s-.1-.8 0-1.1c.2-.4.6-.7.4-1.1-.1-.2-.3-.4-.5-.6-.2-.1-.3-.4-.3-.6s.6-.3.7-.5-.1-.4-.3-.6-.4-.4-.4-.6c.1-.2.1-.4.2-.6.4-.7.2-1.5.4-2.2 0-.1.1-.2.2-.3.1-.1.3-.2.3-.3 0-.2-.3-.4-.3-.6s.2-.4.3-.5c.1-.2.2-.3.3-.5.1-.4.1-.7.1-1.1v-1.1c.1-.4.2-.7 0-1.1l-.3-.6c0-.2 0-.4.1-.6.1-.4.3-.7.4-1.1.1-.2.1-.4.1-.6s-.2-.4-.3-.6c0-.1-.1-.2-.1-.3 0-.1.1-.2.2-.3.1-.2 0-.4 0-.6-.1-.4-.2-.7-.2-1.1-.1-.9.5-1.7 1.4-1.8.9-.1 1.7.5 1.8 1.4v.4l-.3.3zM304.6 112c0 .2-.1.5-.2.7-.1.1-.1.2 0 .3l.2.2c0 .1 0 .1-.1.2s-.3.2-.3.3c0 .1 0 .2.1.4s.3.5.5.7c.1.1.1.2.1.4 0 .1-.2.2-.3.3s-.2.2-.1.3.2.2.3.4c0 .2-.2.5-.4.7-.2.2-.3.4-.3.7 0 .1 0 .3.1.4s.3.2.2.4c0 .1-.4.2-.5.3-.1.1.1.1.2.2s.1.1.1.2c0 .5-.3.9-.3 1.4v.4s-.1.2-.3.3c-.2.1-.3.2-.3.3s.3.2.3.4-.4.4-.5.7 0 .5.1.7v.7s-.1.5-.2.7c-.2.2-.1.5.2.7.2.2.3.5.4.7.2.5.5 1-.1 1.4-.3.5.7 1 .5 1.4-.4.2-.2.5 0 .7.1.1.1.3 0 .3-.1.1-.4.2-.5.3-.2.2.3.5-.1.7-.2.1-.2.2 0 .4.1.1.2.1.2.2v.2c-.2.2-.5.4-.4.7 0 .1.1.2.2.4.1.1 0 .3-.1.3-.1.1-.2.2-.1.3s.2.2.3.4c.1.2.2.5.2.7-.1.9-1 1.5-1.9 1.3-.7-.1-1.2-.6-1.3-1.3v-.2c0-.2 0-.5.1-.7l.3-.3c0-.1-.1-.2-.2-.4-.2-.1-.2-.2-.2-.4.1-.1.2-.2.2-.3 0-.2-.3-.5-.5-.7 0-.1-.1-.1 0-.2s.2-.1.3-.2c.3-.1.2-.2.1-.3-.2-.1-.2-.2 0-.4s.3-.2.3-.3-.3-.2-.4-.4 0-.2.1-.3c.2-.2.5-.4.2-.7-.2-.5.7-.9.4-1.4l-.4-.4c-.1-.1-.1-.2-.1-.4s0-.5.2-.7c.1-.2.2-.5.5-.7s.5-.4.2-.7c-.2-.2-.3-.5-.4-.7s-.1-.5 0-.7c.2-.2.6-.4.4-.7s-.9-.5-.8-.7c0-.1.6-.2.7-.3s-.1-.2-.3-.4c-.3-.1-.4-.3-.4-.4s.1-.2.2-.3c.3-.5.2-.9.4-1.4 0-.1 0-.1.2-.2.1-.1.3-.1.3-.2s-.3-.2-.3-.4c0-.1.2-.2.3-.3.1-.1.2-.2.2-.3.1-.2.1-.5.1-.7v-.7c.1-.2.2-.5 0-.7-.1-.1-.3-.2-.3-.4 0-.1 0-.2.1-.3.1-.2.3-.5.4-.7 0-.1.1-.2.1-.3 0-.1-.2-.2-.3-.4 0 0-.1-.1-.1-.2s.1-.1.2-.2 0-.2-.1-.4-.2-.5-.2-.7c-.2-.9.4-1.8 1.3-2s1.8.4 2 1.3v.7l-.7.3zM324.2 99.5c0 .4-.1.8-.2 1.1-.1.2-.1.4-.1.6.1.1.1.2.2.3 0 .1 0 .2-.1.3-.1.2-.3.4-.3.5 0 .2 0 .4.1.6.1.4.3.8.5 1.1.1.2.1.4.1.6-.1.2-.1.4-.3.5-.1.2-.1.4-.1.6l.3.6c0 .4-.1.8-.4 1.1-.2.3-.3.7-.3 1.1 0 .2 0 .4.1.6s.3.4.2.6c0 .2-.4.4-.5.5s0 .2.1.3c.1.1.1.2.1.3 0 .7-.4 1.5-.3 2.2 0 .4.1.8-.3 1.1-.2.2-.3.4-.3.5s.3.4.3.6c0 .4-.4.7-.6 1.1-.1.4-.1.8.1 1.1.1.8 0 1.5-.2 2.2-.1.4-.1.8.1 1.1.2.4.3.7.4 1.1s.2.7.2 1.1c0 .2 0 .4-.1.6s-.2.4-.3.5c-.3.7.7 1.5.4 2.3-.4.4-.2.7 0 1.1.1.2.1.4 0 .6-.1.2-.4.4-.5.5-.2.4.3.8-.1 1.1-.2.2-.2.4 0 .6.1.1.2.2.2.3v.3c-.3.3-.4.7-.5 1.1 0 .2.1.4.2.6.1.2 0 .4-.1.6-.1.2-.2.4-.2.6l.3.6c.1.4.2.7.2 1.1-.1.9-.9 1.5-1.8 1.4-.8-.1-1.4-.7-1.4-1.5v-.1c0-.4 0-.8.1-1.1.1-.2.2-.4.3-.5 0-.2-.1-.4-.2-.6-.2-.1-.2-.4-.1-.6.1-.2.2-.4.3-.5-.1-.4-.2-.8-.5-1.1v-.3l.3-.3c.3-.2.3-.4.1-.6-.2-.1-.2-.3-.1-.5l.1-.1c.2-.2.3-.4.3-.5 0-.2-.3-.4-.4-.6-.1-.2 0-.4.1-.6.2-.4.5-.7.2-1.1-.2-.8.8-1.5.4-2.2-.1-.2-.3-.4-.4-.6s-.1-.4-.1-.6c0-.4 0-.8.2-1.1.1-.4.3-.8.6-1.1.4-.4.5-.7.2-1.1-.2-.4-.3-.7-.4-1.1s-.1-.8 0-1.1c.2-.4.6-.7.4-1.1-.1-.2-.3-.4-.5-.6-.2-.1-.3-.4-.3-.6s.6-.3.7-.5-.1-.4-.3-.6-.4-.4-.4-.6c.1-.2.1-.4.2-.6.4-.7.2-1.5.4-2.2 0-.1.1-.2.2-.3.1-.1.3-.2.3-.3 0-.2-.3-.4-.3-.6s.2-.4.3-.5c.1-.2.2-.3.3-.5.1-.4.1-.7.1-1.1v-1.1c.1-.4.2-.7 0-1.1l-.3-.6c0-.2 0-.4.1-.6.1-.4.3-.7.4-1.1.1-.2.1-.4.1-.6s-.2-.4-.3-.6c0-.1-.1-.2-.1-.3 0-.1.1-.2.2-.3.1-.2 0-.4 0-.6-.1-.4-.2-.7-.2-1.1-.1-.9.5-1.7 1.4-1.8.9-.1 1.7.5 1.8 1.4v.4l-.3.3zM342.6 113.8c0 .2-.1.5-.2.7-.1.1-.1.2 0 .3l.2.2c0 .1 0 .1-.1.2s-.3.2-.3.3c0 .1 0 .2.1.4s.3.5.5.7c.1.1.1.2.1.4 0 .1-.2.2-.3.3s-.2.2-.1.3.2.2.3.4c0 .2-.2.5-.4.7-.2.2-.3.4-.3.7 0 .1 0 .3.1.4s.3.2.2.4c0 .1-.4.2-.5.3-.1.1.1.1.2.2s.1.1.1.2c0 .5-.3.9-.3 1.4v.4s-.1.2-.3.3c-.2.1-.3.2-.3.3s.3.2.3.4-.4.4-.5.7 0 .5.1.7v.7s-.1.5-.2.7c-.2.2-.1.5.2.7.2.2.3.5.4.7.2.5.5 1-.1 1.4-.3.5.7 1 .5 1.4-.4.2-.2.5 0 .7.1.1.1.3 0 .3-.1.1-.4.2-.5.3-.2.2.3.5-.1.7-.2.1-.2.2 0 .4.1.1.2.1.2.2v.2c-.2.2-.5.4-.4.7 0 .1.1.2.2.4.1.1 0 .3-.1.3-.1.1-.2.2-.1.3s.2.2.3.4c.1.2.2.5.2.7-.1.9-1 1.5-1.9 1.3-.7-.1-1.2-.6-1.3-1.3v-.2c0-.2 0-.5.1-.7l.3-.3c0-.1-.1-.2-.2-.4-.2-.1-.2-.2-.2-.4.1-.1.2-.2.2-.3 0-.2-.3-.5-.5-.7 0-.1-.1-.1 0-.2s.2-.1.3-.2c.3-.1.2-.2.1-.3-.2-.1-.2-.2 0-.4s.3-.2.3-.3-.3-.2-.4-.4 0-.2.1-.3c.2-.2.5-.4.2-.7-.2-.5.7-.9.4-1.4l-.4-.4c-.1-.1-.1-.2-.1-.4s0-.5.2-.7c.1-.2.2-.5.5-.7s.5-.4.2-.7c-.2-.2-.3-.5-.4-.7s-.1-.5 0-.7c.2-.2.6-.4.4-.7s-.9-.5-.8-.7c0-.1.6-.2.7-.3s-.1-.2-.3-.4c-.3-.1-.4-.3-.4-.4s.1-.2.2-.3c.3-.5.2-.9.4-1.4 0-.1 0-.1.2-.2.1-.1.3-.1.3-.2s-.3-.2-.3-.4.2-.2.3-.3c.1-.1.2-.2.2-.3.1-.2.1-.5.1-.7v-.7c.1-.2.2-.5 0-.7-.1-.1-.3-.2-.3-.4 0-.1 0-.2.1-.3.1-.2.3-.5.4-.7 0-.1.1-.2.1-.3 0-.1-.2-.2-.3-.4 0 0-.1-.1-.1-.2s.1-.1.2-.2 0-.2-.1-.4-.2-.5-.2-.7c-.2-.9.4-1.8 1.3-2s1.8.4 2 1.3c0 .2.1.5 0 .7l-.7.3zM362.2 101.3c0 .4-.1.8-.2 1.1-.1.2-.1.4-.1.6.1.1.1.2.2.3 0 .1 0 .2-.1.3-.1.2-.3.4-.3.5 0 .2 0 .4.1.6.1.4.3.8.5 1.1.1.2.1.4.1.6-.1.2-.1.4-.3.5-.1.2-.1.4-.1.6l.3.6c0 .4-.1.8-.4 1.1-.2.3-.3.7-.3 1.1 0 .2 0 .4.1.6s.3.4.2.6c0 .2-.4.4-.5.5s0 .2.1.3c.1.1.1.2.1.3 0 .7-.4 1.5-.3 2.2 0 .4.1.8-.3 1.1-.2.2-.3.4-.3.5s.3.4.3.6c0 .4-.4.7-.6 1.1-.1.4-.1.8.1 1.1.1.8 0 1.5-.2 2.2-.1.4-.1.8.1 1.1.2.4.3.7.4 1.1s.2.7.2 1.1c0 .2 0 .4-.1.6s-.2.4-.3.5c-.3.7.7 1.5.4 2.3-.4.4-.2.7 0 1.1.1.2.1.4 0 .6-.1.2-.4.4-.5.5-.2.4.3.8-.1 1.1-.2.2-.2.4 0 .6.1.1.2.2.2.3v.3c-.3.3-.4.7-.5 1.1 0 .2.1.4.2.6.1.2 0 .4-.1.6-.1.2-.2.4-.2.6l.3.6c.1.4.2.7.2 1.1-.1.9-.9 1.5-1.8 1.4-.8-.1-1.4-.7-1.4-1.5v-.1c0-.4 0-.8.1-1.1.1-.2.2-.4.3-.5 0-.2-.1-.4-.2-.6-.2-.1-.2-.4-.1-.6.1-.2.2-.4.3-.5-.1-.4-.2-.8-.5-1.1v-.3l.3-.3c.3-.2.3-.4.1-.6-.2-.1-.2-.3-.1-.5l.1-.1c.2-.2.3-.4.3-.5 0-.2-.3-.4-.4-.6-.1-.2 0-.4.1-.6.2-.4.5-.7.2-1.1-.2-.8.8-1.5.4-2.2-.1-.2-.3-.4-.4-.6s-.1-.4-.1-.6c0-.4 0-.8.2-1.1.1-.4.3-.8.6-1.1.4-.4.5-.7.2-1.1-.2-.4-.3-.7-.4-1.1s-.1-.8 0-1.1c.2-.4.6-.7.4-1.1-.1-.2-.3-.4-.5-.6-.2-.1-.3-.4-.3-.6s.6-.3.7-.5-.1-.4-.3-.6-.4-.4-.4-.6c.1-.2.1-.4.2-.6.4-.7.2-1.5.4-2.2 0-.1.1-.2.2-.3.1-.1.3-.2.3-.3 0-.2-.3-.4-.3-.6s.2-.4.3-.5c.1-.2.2-.3.3-.5.1-.4.1-.7.1-1.1v-1.1c.1-.4.2-.7 0-1.1l-.3-.6c0-.2 0-.4.1-.6.1-.4.3-.7.4-1.1.1-.2.1-.4.1-.6s-.2-.4-.3-.6c0-.1-.1-.2-.1-.3 0-.1.1-.2.2-.3.1-.2 0-.4 0-.6-.1-.4-.2-.7-.2-1.1-.1-.9.5-1.7 1.4-1.8.9-.1 1.7.5 1.8 1.4v.4l-.3.3zM380.5 119.2c0 .2-.1.4-.2.6-.1.1-.1.2 0 .3.1 0 .1.1.2.2 0 .1 0 .1-.1.1-.1.1-.3.2-.3.3 0 .1 0 .2.1.3.1.2.3.4.5.6.1.1.1.2.1.3 0 .1-.2.2-.3.3s-.2.2-.1.3l.3.3c0 .2-.2.4-.3.6-.2.2-.3.4-.3.6 0 .1 0 .2.1.3s.3.2.2.3c0 .1-.4.2-.5.3-.1 0 .1.1.2.2s.1.1.1.2c0 .4-.3.8-.3 1.2v.3s-.1.2-.3.3c-.2.1-.3.2-.3.3s.3.2.3.3c0 .2-.4.4-.5.6-.2.2 0 .4.1.6v.6c0 .2-.1.4-.2.6-.2.2-.1.4.2.6.2.2.3.4.4.6.2.4.5.8-.1 1.2-.3.4.7.8.5 1.2-.4.2-.2.4 0 .6.1.1.1.2 0 .3s-.4.2-.4.3c-.2.2.3.4-.1.6-.2.1-.2.2 0 .3.1 0 .2.1.2.2v.1c-.2.2-.5.4-.4.6 0 .1.1.2.2.3s0 .2-.1.3-.2.2-.1.3l.3.3c.1.2.2.4.2.6-.2.9-1 1.5-1.9 1.3-.6-.1-1.1-.6-1.3-1.2l-.1-.2c0-.2 0-.4.1-.6l.3-.3c0-.1-.1-.2-.2-.3-.2-.1-.2-.2-.2-.3.1-.1.2-.2.2-.3 0-.2-.3-.4-.5-.6 0-.1-.1-.1 0-.1.1-.1.2-.1.3-.1.3-.1.2-.2.1-.3-.2-.1-.2-.2 0-.3s.3-.2.3-.3-.3-.2-.4-.3 0-.2.1-.3c.2-.2.5-.4.1-.6-.2-.4.7-.7.3-1.2l-.4-.3c-.1-.1-.1-.2-.1-.3 0-.2 0-.4.1-.6.1-.2.2-.4.5-.6s.5-.4.2-.6c-.3-.2-.3-.4-.4-.6-.1-.2-.2-.4 0-.6.2-.2.6-.4.4-.6s-.9-.4-.8-.6c0-.1.6-.2.7-.3s-.1-.2-.4-.3c-.3-.1-.4-.2-.4-.3 0-.1.1-.2.2-.3.3-.4.1-.8.3-1.2 0 0 0-.1.2-.1.1 0 .3-.1.2-.1 0-.1-.3-.2-.3-.3 0-.1.2-.2.3-.3.1-.1.2-.2.2-.3.1-.2.1-.4.1-.6s-.1-.4 0-.6.2-.4-.1-.6c-.1-.1-.3-.2-.3-.3v-.3c.1-.2.3-.4.4-.6 0-.1.1-.2.1-.3 0-.1-.2-.2-.3-.3 0-.1-.1-.1-.1-.1 0-.1.1-.1.2-.1.1-.1 0-.2-.1-.3-.1-.2-.2-.4-.2-.6-.2-.9.3-1.8 1.2-2.1s1.8.3 2.1 1.2c.1.3.1.5 0 .8v-.2zM400.2 103c0 .4-.1.8-.2 1.1-.1.2-.1.4-.1.6.1.1.1.2.2.3 0 .1 0 .2-.1.3-.1.2-.3.4-.3.5 0 .2 0 .4.1.6.1.4.3.8.5 1.1.1.2.1.4.1.6-.1.2-.1.4-.3.5-.1.2-.1.4-.1.6l.3.6c0 .4-.1.8-.4 1.1-.2.3-.3.7-.3 1.1 0 .2 0 .4.1.6s.3.4.2.6c0 .2-.4.4-.5.5s0 .2.1.3c.1.1.1.2.1.3 0 .7-.4 1.5-.3 2.2 0 .4.1.8-.3 1.1-.2.2-.3.4-.3.5s.3.4.3.6c0 .4-.4.7-.6 1.1-.1.4-.1.8.1 1.1.1.8 0 1.5-.2 2.2-.1.4-.1.8.1 1.1.2.4.3.7.4 1.1s.2.7.2 1.1c0 .2 0 .4-.1.6s-.2.4-.3.5c-.3.7.7 1.5.4 2.3-.4.4-.2.7 0 1.1.1.2.1.4 0 .6-.1.2-.4.4-.5.5-.2.4.3.8-.1 1.1-.2.2-.2.4 0 .6.1.1.2.2.2.3v.3c-.3.3-.4.7-.5 1.1 0 .2.1.4.2.6.1.2 0 .4-.1.6-.1.2-.2.4-.2.6l.3.6c.1.4.2.7.2 1.1-.1.9-.9 1.5-1.8 1.4-.8-.1-1.4-.7-1.4-1.5v-.1c0-.4 0-.8.1-1.1.1-.2.2-.4.3-.5 0-.2-.1-.4-.2-.6-.2-.1-.2-.4-.1-.6.1-.2.2-.4.3-.5-.1-.4-.2-.8-.5-1.1v-.3l.3-.3c.3-.2.3-.4.1-.6-.2-.1-.2-.3-.1-.5l.1-.1c.2-.2.3-.4.3-.5 0-.2-.3-.4-.4-.6-.1-.2 0-.4.1-.6.2-.4.5-.7.2-1.1-.2-.8.8-1.5.4-2.2-.1-.2-.3-.4-.4-.6s-.1-.4-.1-.6c0-.4 0-.8.2-1.1.1-.4.3-.8.6-1.1.4-.4.5-.7.2-1.1-.2-.4-.3-.7-.4-1.1s-.1-.8 0-1.1c.2-.4.6-.7.4-1.1-.1-.2-.3-.4-.5-.6-.2-.1-.3-.4-.3-.6s.6-.3.7-.5-.1-.4-.3-.6-.4-.4-.4-.6c.1-.2.1-.4.2-.6.4-.7.2-1.5.4-2.2 0-.1.1-.2.2-.3.1-.1.3-.2.3-.3 0-.2-.3-.4-.3-.6s.2-.4.3-.5c.1-.2.2-.3.3-.5.1-.4.1-.7.1-1.1v-1.1c.1-.4.2-.7 0-1.1l-.3-.6c0-.2 0-.4.1-.6.1-.4.3-.7.4-1.1.1-.2.1-.4.1-.6s-.2-.4-.3-.6c0-.1-.1-.2-.1-.3 0-.1.1-.2.2-.3.1-.2 0-.4 0-.6-.1-.4-.2-.7-.2-1.1-.1-.9.5-1.7 1.4-1.8.9-.1 1.7.5 1.8 1.4v.4l-.3.3zM418.6 117.3c0 .2-.1.5-.2.7-.1.1-.1.2 0 .3l.2.2c0 .1 0 .1-.1.2s-.3.2-.3.3c0 .1 0 .2.1.4s.3.5.5.7c.1.1.1.2.1.4 0 .1-.2.2-.3.3s-.2.2-.1.3.2.2.3.4c0 .2-.2.5-.4.7-.2.2-.3.4-.3.7 0 .1 0 .3.1.4s.3.2.2.4c0 .1-.4.2-.5.3-.1.1.1.1.2.2s.1.1.1.2c0 .5-.3.9-.3 1.4v.4s-.1.2-.3.3c-.2.1-.3.2-.3.3s.3.2.3.4-.4.4-.5.7c-.1.3 0 .5.1.7v.7s-.1.5-.2.7c-.2.2-.1.5.2.7.2.2.3.5.4.7.2.5.5 1-.1 1.4-.3.5.7 1 .5 1.4-.4.2-.2.5 0 .7.1.1.1.3 0 .3-.1.1-.4.2-.5.3-.2.2.3.5-.1.7-.2.1-.2.2 0 .4.1.1.2.1.2.2v.2c-.2.2-.5.4-.4.7 0 .1.1.2.2.4.1.1 0 .3-.1.3-.1.1-.2.2-.1.3s.2.2.3.4c.1.2.2.5.2.7-.1.9-1 1.5-1.9 1.3-.7-.1-1.2-.6-1.3-1.3v-.2c0-.2 0-.5.1-.7l.3-.3c0-.1-.1-.2-.2-.4-.2-.1-.2-.2-.2-.4.1-.1.2-.2.2-.3 0-.2-.3-.5-.5-.7 0-.1-.1-.1 0-.2s.2-.1.3-.2c.3-.1.2-.2.1-.3-.2-.1-.2-.2 0-.4s.3-.2.3-.3-.3-.2-.4-.4 0-.2.1-.3c.2-.2.5-.4.2-.7-.2-.5.7-.9.4-1.4l-.4-.4c-.1-.1-.1-.2-.1-.4s0-.5.2-.7c.1-.2.2-.5.5-.7s.5-.4.2-.7c-.2-.2-.3-.5-.4-.7s-.1-.5 0-.7c.2-.2.6-.4.4-.7s-.9-.5-.8-.7c0-.1.6-.2.7-.3s-.1-.2-.3-.4c-.3-.1-.4-.3-.4-.4s.1-.2.2-.3c.3-.5.2-.9.4-1.4 0-.1 0-.1.2-.2.1-.1.3-.1.3-.2s-.3-.2-.3-.4.2-.2.3-.3c.1-.1.2-.2.2-.3.1-.2.1-.5.1-.7v-.7c.1-.2.2-.5 0-.7-.1-.1-.3-.2-.3-.4 0-.1 0-.2.1-.3.1-.2.3-.5.4-.7 0-.1.1-.2.1-.3 0-.1-.2-.2-.3-.4 0 0-.1-.1-.1-.2s.1-.1.2-.2 0-.2-.1-.4-.2-.5-.2-.7c-.2-.9.4-1.8 1.3-2s1.8.4 2 1.3c0 .2.1.5 0 .7l-.7.3zM438.2 104.8c0 .4-.1.8-.2 1.1-.1.2-.1.4-.1.6.1.1.1.2.2.3 0 .1 0 .2-.1.3-.1.2-.3.4-.3.5 0 .2 0 .4.1.6.1.4.3.8.5 1.1.1.2.1.4.1.6-.1.2-.1.4-.3.5-.1.2-.1.4-.1.6l.3.6c0 .4-.1.8-.4 1.1-.2.3-.3.7-.3 1.1 0 .2 0 .4.1.6s.3.4.2.6c0 .2-.4.4-.5.5s0 .2.1.3c.1.1.1.2.1.3 0 .7-.4 1.5-.3 2.2 0 .4.1.8-.3 1.1-.2.2-.3.4-.3.5s.3.4.3.6c0 .4-.4.7-.6 1.1-.1.4-.1.8.1 1.1.1.8 0 1.5-.2 2.2-.1.4-.1.8.1 1.1.2.4.3.7.4 1.1s.2.7.2 1.1c0 .2 0 .4-.1.6-.1.2-.2.4-.3.5-.3.7.7 1.5.4 2.3-.4.4-.2.7 0 1.1.1.2.1.4 0 .6-.1.2-.4.4-.5.5-.2.4.3.8-.1 1.1-.2.2-.2.4 0 .6.1.1.2.2.2.3v.3c-.3.3-.4.7-.5 1.1 0 .2.1.4.2.6.1.2 0 .4-.1.6-.1.2-.2.4-.2.6l.3.6c.1.4.2.7.2 1.1-.1.9-.9 1.5-1.8 1.4-.8-.1-1.4-.7-1.4-1.5v-.1c0-.4 0-.8.1-1.1.1-.2.2-.4.3-.5 0-.2-.1-.4-.2-.6-.2-.1-.2-.4-.1-.6.1-.2.2-.4.3-.5-.1-.4-.2-.8-.5-1.1v-.3l.3-.3c.3-.2.3-.4.1-.6-.2-.1-.2-.3-.1-.5l.1-.1c.2-.2.3-.4.3-.5 0-.2-.3-.4-.4-.6-.1-.2 0-.4.1-.6.2-.4.5-.7.2-1.1-.2-.8.8-1.5.4-2.2-.1-.2-.3-.4-.4-.6-.1-.2-.1-.4-.1-.6 0-.4 0-.8.2-1.1.1-.4.3-.8.6-1.1.4-.4.5-.7.2-1.1-.2-.4-.3-.7-.4-1.1s-.1-.8 0-1.1c.2-.4.6-.7.4-1.1-.1-.2-.3-.4-.5-.6-.2-.1-.3-.4-.3-.6s.6-.3.7-.5-.1-.4-.3-.6-.4-.4-.4-.6c.1-.2.1-.4.2-.6.4-.7.2-1.5.4-2.2 0-.1.1-.2.2-.3.1-.1.3-.2.3-.3 0-.2-.3-.4-.3-.6s.2-.4.3-.5c.1-.2.2-.3.3-.5.1-.4.1-.7.1-1.1v-1.1c.1-.4.2-.7 0-1.1l-.3-.6c0-.2 0-.4.1-.6.1-.4.3-.7.4-1.1.1-.2.1-.4.1-.6s-.2-.4-.3-.6c0-.1-.1-.2-.1-.3 0-.1.1-.2.2-.3.1-.2 0-.4 0-.6-.1-.4-.2-.7-.2-1.1-.1-.9.5-1.7 1.4-1.8.9-.1 1.7.5 1.8 1.4v.4l-.3.3zM456.6 119c0 .2-.1.5-.2.7-.1.1-.1.2 0 .3l.2.2c0 .1 0 .1-.1.2s-.3.2-.3.3c0 .1 0 .2.1.4s.3.5.5.7c.1.1.1.2.1.4 0 .1-.2.2-.3.3s-.2.2-.1.3.2.2.3.4c0 .2-.2.5-.4.7-.2.2-.3.4-.3.7 0 .1 0 .3.1.4s.3.2.2.4c0 .1-.4.2-.5.3-.1.1.1.1.2.2s.1.1.1.2c0 .5-.3.9-.3 1.4v.4s-.1.2-.3.3c-.2.1-.3.2-.3.3s.3.2.3.4-.4.4-.5.7 0 .5.1.7v.7s-.1.5-.2.7c-.2.2-.1.5.2.7.2.2.3.5.4.7.2.5.5 1-.1 1.4-.3.5.7 1 .5 1.4-.4.2-.2.5 0 .7.1.1.1.3 0 .3-.1.1-.4.2-.5.3-.2.2.3.5-.1.7-.2.1-.2.2 0 .4.1.1.2.1.2.2v.2c-.2.2-.5.4-.4.7 0 .1.1.2.2.4.1.1 0 .3-.1.3-.1.1-.2.2-.1.3s.2.2.3.4c.1.2.2.5.2.7-.1.9-1 1.5-1.9 1.3-.7-.1-1.2-.6-1.3-1.3v-.2c0-.2 0-.5.1-.7l.3-.3c0-.1-.1-.2-.2-.4-.2-.1-.2-.2-.2-.4.1-.1.2-.2.2-.3 0-.2-.3-.5-.5-.7 0-.1-.1-.1 0-.2s.2-.1.3-.2c.3-.1.2-.2.1-.3-.2-.1-.2-.2 0-.4s.3-.2.3-.3-.3-.2-.4-.4 0-.2.1-.3c.2-.2.5-.4.2-.7-.2-.5.7-.9.4-1.4l-.4-.4c-.1-.1-.1-.2-.1-.4s0-.5.2-.7c.1-.2.2-.5.5-.7s.5-.4.2-.7c-.2-.2-.3-.5-.4-.7s-.1-.5 0-.7c.2-.2.6-.4.4-.7s-.9-.5-.8-.7c0-.1.6-.2.7-.3s-.1-.2-.3-.4c-.3-.1-.4-.3-.4-.4s.1-.2.2-.3c.3-.5.2-.9.4-1.4 0-.1 0-.1.2-.2.1-.1.3-.1.3-.2s-.3-.2-.3-.4c0-.1.2-.2.3-.3.1-.1.2-.2.2-.3.1-.2.1-.5.1-.7v-.7c.1-.2.2-.5 0-.7-.1-.1-.3-.2-.3-.4 0-.1 0-.2.1-.3.1-.2.3-.5.4-.7 0-.1.1-.2.1-.3 0-.1-.2-.2-.3-.4 0 0-.1-.1-.1-.2s.1-.1.2-.2 0-.2-.1-.4-.2-.5-.2-.7c-.2-.9.4-1.8 1.3-2s1.8.4 2 1.3v.7l-.7.3zM476.2 106.5c0 .4-.1.8-.2 1.1-.1.2-.1.4-.1.6.1.1.1.2.2.3 0 .1 0 .2-.1.3-.1.2-.3.4-.3.5 0 .2 0 .4.1.6.1.4.3.8.5 1.1.1.2.1.4.1.6-.1.2-.1.4-.3.5-.1.2-.1.4-.1.6l.3.6c0 .4-.1.8-.4 1.1-.2.3-.3.7-.3 1.1 0 .2 0 .4.1.6s.3.4.2.6c0 .2-.4.4-.5.5s0 .2.1.3c.1.1.1.2.1.3 0 .7-.4 1.5-.3 2.2 0 .4.1.8-.3 1.1-.2.2-.3.4-.3.5s.3.4.3.6c0 .4-.4.7-.6 1.1-.1.4-.1.8.1 1.1.1.8 0 1.5-.2 2.2-.1.4-.1.8.1 1.1.2.4.3.7.4 1.1.1.4.2.7.2 1.1 0 .2 0 .4-.1.6-.1.2-.2.4-.3.5-.3.7.7 1.5.4 2.3-.4.4-.2.7 0 1.1.1.2.1.4 0 .6-.1.2-.4.4-.5.5-.2.4.3.8-.1 1.1-.2.2-.2.4 0 .6.1.1.2.2.2.3v.3c-.3.3-.4.7-.5 1.1 0 .2.1.4.2.6.1.2 0 .4-.1.6-.1.2-.2.4-.2.6l.3.6c.1.4.2.7.2 1.1-.1.9-.9 1.5-1.8 1.4-.8-.1-1.4-.7-1.4-1.5v-.1c0-.4 0-.8.2-1.1.1-.2.2-.4.3-.5 0-.2-.1-.4-.2-.6-.2-.1-.2-.4-.1-.6.1-.2.2-.4.3-.5-.1-.4-.2-.8-.5-1.1v-.3l.3-.3c.3-.2.3-.4.1-.6-.2-.1-.2-.3-.1-.5l.1-.1c.2-.2.3-.4.3-.5 0-.2-.3-.4-.4-.6-.1-.2 0-.4.1-.6.2-.4.5-.7.2-1.1-.2-.8.8-1.5.4-2.2-.1-.2-.3-.4-.4-.6-.1-.2-.1-.4-.1-.6 0-.4 0-.8.2-1.1.1-.4.3-.8.6-1.1.4-.4.5-.7.2-1.1-.2-.4-.3-.7-.4-1.1s-.1-.8 0-1.1c.2-.4.6-.7.4-1.1-.1-.2-.3-.4-.5-.6-.2-.1-.3-.4-.3-.6s.6-.3.7-.5-.1-.4-.3-.6-.4-.4-.4-.6c.1-.2.1-.4.2-.6.4-.7.2-1.5.4-2.2 0-.1.1-.2.2-.3.1-.1.3-.2.3-.3 0-.2-.3-.4-.3-.6s.2-.4.3-.5c.1-.2.2-.3.3-.5.1-.4.1-.7.1-1.1v-1.1c.1-.4.2-.7 0-1.1l-.3-.6c0-.2 0-.4.1-.6.1-.4.3-.7.4-1.1.1-.2.1-.4.1-.6s-.2-.4-.3-.6c0-.1-.1-.2-.1-.3 0-.1.1-.2.2-.3.1-.2 0-.4 0-.6-.1-.4-.2-.7-.2-1.1-.1-.9.5-1.7 1.4-1.8.9-.1 1.7.5 1.8 1.4v.4l-.4.3zM494.6 120.8c0 .2-.1.5-.2.7-.1.1-.1.2 0 .3l.2.2c0 .1 0 .1-.1.2s-.3.2-.3.3c0 .1 0 .2.1.3.1.2.3.5.5.7.1.1.1.2.1.3 0 .1-.2.2-.3.3s-.2.2-.1.3.2.2.3.4c0 .2-.2.4-.3.7-.2.2-.3.4-.3.7 0 .1 0 .2.1.3s.3.2.2.3c0 .1-.4.2-.5.3-.1.1.1.1.2.2s.1.1.1.2c0 .5-.3.9-.3 1.3v.3s-.1.2-.3.3c-.2.1-.3.2-.3.3s.3.2.3.4-.4.4-.5.7 0 .5.1.7v.7s-.1.5-.2.7c-.2.2-.1.4.2.7.2.2.3.4.4.7.2.5.5.9-.1 1.4-.3.4.7.9.5 1.4-.4.2-.2.4 0 .7.1.1.1.2 0 .3s-.4.2-.5.3c-.2.2.3.5-.1.7-.2.1-.2.2 0 .3.1.1.2.1.2.2v.2c-.2.2-.5.4-.4.7 0 .1.1.2.2.3s0 .3-.1.3c-.1.1-.2.2-.1.3s.2.2.3.4c.1.2.2.4.2.7-.1.9-1 1.5-1.9 1.3-.7-.1-1.2-.6-1.3-1.3v-.2c0-.2 0-.5.1-.7l.3-.3c0-.1-.1-.2-.2-.4-.2-.1-.2-.2-.2-.3.1-.1.2-.2.2-.3 0-.2-.3-.5-.5-.7 0-.1-.1-.1 0-.2s.2-.1.3-.2c.3-.1.2-.2.1-.3-.2-.1-.2-.2 0-.3s.3-.2.3-.3-.3-.2-.4-.4 0-.2.1-.3c.2-.2.5-.4.2-.7-.2-.5.7-.9.3-1.3l-.4-.4c-.1-.1-.1-.2-.1-.3 0-.2 0-.5.2-.7.1-.2.2-.4.5-.7s.5-.4.2-.7c-.2-.2-.3-.4-.4-.7-.1-.2-.1-.5 0-.7.2-.2.6-.4.4-.7s-.9-.5-.8-.7c0-.1.6-.2.7-.3s-.1-.2-.3-.4c-.3-.1-.4-.2-.4-.4 0-.1.1-.2.2-.3.3-.4.2-.9.4-1.3 0-.1 0-.1.2-.2.1-.1.3-.1.3-.2s-.3-.2-.3-.4c0-.1.2-.2.3-.3.1-.1.2-.2.2-.3.1-.2.1-.4.1-.7v-.7c.1-.2.2-.4 0-.7-.1-.1-.3-.2-.3-.4 0-.1 0-.2.1-.3.1-.2.3-.4.4-.7 0-.1.1-.2.1-.3 0-.1-.2-.2-.3-.4 0 0-.1-.1-.1-.2s.1-.1.2-.2 0-.2-.1-.3c-.1-.2-.2-.4-.2-.7-.2-.9.4-1.8 1.3-2s1.8.4 2 1.3c.1.2.1.5 0 .7l-.7.5z"/><g fill="#C6D0E2"><path d="M136.6 192.5c-.2.3-.5.6-.7.8-2.1 2.2-5.4 3.2-8.4 4-15.9 4.3-31.9 8.6-47.8 12.6-.3.1-.6.1-.9.2l-1.1.3c-1.4.4-2.8.7-4.1 1-.9.2-1.7.4-2.6.7-11.1 2.8-22.1 5.5-33.2 8.2-6.4 1.6-12.9 3.1-19.4 4.6l-2.3.5-5.1 1.2c-.6.1-1.2.3-1.9.4l-1.3.3c-2.7.6-5.3 1.2-7.9 1.9V0h96.2c.6 3.3 1.3 6.7 2.1 10.1l11.4 49.2c4.7 20 9.3 40 13.9 60 .1.5.2.9.3 1.4.1.5.2 1 .4 1.5l13.2 57c1 4.5 1.9 9.6-.8 13.3z"/><path d="M138.5 190.3c-.4 1.3-1.2 2.6-2.2 3.6s-2.1 1.8-3.4 2.3c-2.4 1-4.9 1.8-7.5 2.4l-29.9 7.9-14.9 4.1c-.3.1-.6.1-.8.2-.3.1-.6.2-.9.2l-1.1.3-4.2 1.1c-.8.2-1.6.4-2.4.7-1.8.5-3.6 1-5.5 1.4-10 2.6-20 5.2-30 7.7l-8.1 2-6.9 1.7-2 .5c-.7.2-1.5.4-2.2.5-1.8.4-3.5.9-5.3 1.3-.6.1-1.2.3-1.8.4-.4.1-.9.2-1.3.3-.8.2-1.7.4-2.5.6l-5.8 1.3v-3.3c1.7-.4 3.4-.8 5-1.3l2.4-.6 1.3-.3 2-.5 4.7-1.1 2.8-.7 16.9-4 18.4-4.4 11.7-2.8 5.3-1.2 3.1-.7 3.8-.9 1-.2.9-.2.8-.2c5-1.1 10.1-2.3 15.1-3.6 2.5-.6 5-1.3 7.5-2l7.4-2 14.9-4.3c2.4-.6 4.8-1.4 7.1-2.4 2-.9 3.6-2.6 4.3-4.7.6-2.3.6-4.6.1-6.9-.4-2.4-1.1-4.9-1.7-7.4l-3.5-15.1c-1.1-5-2.2-10.1-3.3-15.1-1.6-7.6-3.2-15.3-5.1-22.8-.1-.5-.2-1-.4-1.5-.1-.5-.2-.9-.3-1.4-.4-1.5-.7-2.9-1.1-4.4l-4-15c-.7-2.5-1.2-5-1.9-7.5-.3-1.3-.6-2.5-.9-3.8l-.8-3.8c-1-5.1-1.7-10.2-2.9-15.2-.5-2.5-1.2-5-1.8-7.5l-2.1-7.5c-2.9-9.9-5-20-7.2-30.1L96.2 9.5c-.7-3.2-1.3-6.3-1.9-9.5h3.2c.6 3 1.1 5.9 1.8 8.8l3.5 15.1c2.3 10 4.7 20.1 6.7 30.2 1.1 5 2.1 10.1 3.2 15.1s2.6 10 3.8 15c1.3 5 2.2 10.1 3.4 15.1l3.3 15.1c.4 1.6.7 3.3 1.1 4.9.1.5.2.9.3 1.4l.3 1.5c3.9 17.5 8.4 34.9 12.3 52.4.6 2.5 1.2 5 1.7 7.6.4 2.7.4 5.5-.4 8.1z"/></g><path fill="#B7C3D9" d="M61.3 189.9V195.6c0 .5 0 .9-.1 1.4v.6c0 .9-.1 1.7-.2 2.6-.3 4.2-.8 8.5-1.5 12.7-1.8.5-3.9 1.1-6.1 1.8-4.6 1.5-9.9 3.4-15.7 5.6-3.3 1.2-6.6 2.6-10.1 3.9-2.7 1.1-5.5 2.1-8.2 3.2-.9.3-1.8.7-2.7 1-1.6.7-3.3 1.3-4.9 1.9-.6.2-1.1.4-1.7.6-.4.2-.9.3-1.3.5-3.1 1.2-6.1 2.4-9 3.4V43.2c6.6 7.3 12 15.5 17.3 23.7 10.1 15.7 19.1 32.2 26.7 49.3.2.5.4.9.6 1.4.3.6.5 1.2.8 1.8 8.2 19.4 14 39.5 15.6 59.9.1.8.1 1.6.2 2.5.1 2.1.2 4.2.3 6.2v1.9z"/><g fill="#C6D0E2"><path d="M111.1 180.5c-.2.3-.4.5-.7.7-2 1.9-4.9 2.8-7.7 3.5-9 2.4-18.1 4.8-27.1 7.2-.5.1-.9.2-1.4.4-.6.2-1.3.3-1.9.5-3.7 1-7.4 1.9-11.1 2.8-18.4 4.7-36.8 9.2-55.2 13.5-.4.1-.9.2-1.3.3-.2.1-.5.1-.7.2-1.4.3-2.7.6-4.1 1V5.9C3.1 5 6.4 4.2 9.6 3.3l3.6-.9c2.5-.6 5-1.3 7.6-1.9.6-.2 1.3-.3 1.9-.5H73c2.8 8.6 3.7 17.2 5.8 26.1C82 40 85.2 53.9 88.4 67.7c3.9 17 7.9 33.9 11.8 50.9l.3 1.2c.1.5.2.9.3 1.4l11.1 48c.9 3.8 1.7 8.1-.8 11.3z"/><path d="M114 171.5c-.3-1.8-.7-3.4-1.1-5l-1.2-4.9c-1.6-6.6-3.1-13.1-4.7-19.6l-4.8-19.6c-.1-.3-.2-.7-.2-1-.1-.5-.2-.9-.3-1.4l-.3-1.2c-.5-2.1-.9-4.1-1.4-6.2l-2.2-9.8c-1.3-6.2-2.7-12.3-4.2-18.4-.5-2.1-1-4.1-1.5-6.2l-3.6-14.7L84 43.6l-3-13.9v-.1l-1.2-5.7c-.4-2.2-.9-4.5-1.3-6.7l-.1-.7c-.7-4.2-1.7-8.3-2.8-12.4-.4-1.4-.8-2.7-1.3-4.1h-2.8c.2.8.5 1.6.7 2.4l.6 2.4c1.4 6.5 2.3 13.1 3.8 19.8l4.9 19.6 2.4 9.8 2.3 9.8c3 13.1 5.7 26.3 9.1 39.4l2.4 9.8c.5 1.8.9 3.7 1.4 5.6l.3 1.2c.1.5.2.9.3 1.4.2.9.4 1.8.6 2.6l4.2 18.7c1.4 6.6 3 13.1 4.5 19.7l1.1 4.9c.4 1.6.8 3.3 1.1 4.8.6 3.1.4 6.2-1.6 8-1.1 1-2.4 1.7-3.8 2.2-1.5.6-3.1 1-4.7 1.4l-9.7 2.6-16 4.3-1.2.3-1.7.4-.6.2-9.8 2.6-.6.2-4.3 1.1-4.9 1.2c-6.5 1.6-13.1 3-19.6 4.8l-15.6 4-3.9 1c-2.4.6-4.9 1.2-7.3 1.8l-1.2.3c-.2.1-.4.1-.6.1s-.5.1-.7.2l-3.2.7v2.4c1.4-.4 2.9-.7 4.3-1.1.3-.1.5-.1.8-.2.5-.1 1-.2 1.5-.4 2.3-.6 4.6-1.1 7-1.7 3.3-.8 6.6-1.5 9.8-2.2l6.8-1.5 3.1-.7c4-.9 8-1.9 12-2.9l.3-.1c2.4-.6 4.9-1.3 7.3-1.9 2.8-.8 5.6-1.5 8.4-2.2 3.7-.9 7.4-1.8 11.2-2.8l.4-.1 1.9-.5c.5-.1.9-.2 1.4-.4 5.3-1.3 10.6-2.6 15.9-4.1l9.8-2.6c1.6-.4 3.3-.8 5-1.4 1.8-.6 3.5-1.6 4.9-2.8.8-.8 1.4-1.7 1.9-2.7.1-.1.1-.3.2-.4.1-.2.2-.5.2-.7s.1-.5.2-.7c.1-.2.1-.5.1-.7-.2-1.7-.2-3.6-.6-5.4zM5.6 6.2c.9-.2 1.9-.5 2.8-.8 1.4-.4 2.8-.8 4.1-1.2 3.7-1.1 7.5-2.1 11.2-3C25.4.8 27 .4 28.6 0H16.8c-.9.2-1.7.4-2.5.6-3.6.8-7.3 1.7-10.9 2.6l-3.6.9v3.7l4.5-1.2c.4-.2.8-.3 1.3-.4z"/></g><g fill="#D8E1EC"><path d="M111.1 180.5c-.2.3-.4.5-.7.7-2 1.9-4.9 2.8-7.7 3.5-9 2.4-18.1 4.8-27.1 7.2-.5.1-.9.2-1.4.4-.6.2-1.3.3-1.9.5-3.7 1-7.4 1.9-11.1 2.8-18.4 4.7-36.8 9.2-55.2 13.5-.4.1-.9.2-1.3.3-.2.1-.5.1-.7.2-1.4.3-2.7.6-4.1 1v-198c2.7-2.6 5.5-5 8.6-7.2.8-.6 1.6-1.1 2.4-1.6s1.6-1 2.4-1.4c1.6-.9 3.3-1.7 5.1-2.4H73c2.8 8.6 3.7 17.2 5.8 26.1C82 40 85.2 53.9 88.4 67.7c3.9 17 7.9 33.9 11.8 50.9l.3 1.2c.1.5.2.9.3 1.4l11.1 48c.9 3.8 1.7 8.1-.8 11.3z"/><path d="M114 171c-.3-1.8-.7-3.4-1.1-5.1-1.5-6.6-2.8-13.3-4.4-19.9l-6-24.8-.3-1.4-.3-1.2-3-12.2-4.8-19.8-.6-2.4c-.5-2.1-1-4.1-1.5-6.2-.9-3.7-1.7-7.5-2.5-11.2l-2.1-10c-.4-1.7-.7-3.3-1.1-5l-1.2-5-2.4-9.8c-.6-2.5-1.1-4.9-1.7-7.4v-.1c-.2-.8-.4-1.7-.6-2.5-.8-3.3-1.4-6.6-2-9.9l-.1-.7c-.6-3.1-1.1-6.2-1.8-9.4-.5-2.4-1.1-4.7-1.9-7.1h-3.2c.9 2.5 1.6 5.1 2.2 7.7 1.5 6.5 2.6 13.3 4.3 19.9l2.4 9.9 2.2 10 1.1 5c.4 1.7.8 3.3 1.2 4.9l2.5 9.9 2.4 9.9c.8 3.3 1.5 6.6 2.3 9.9l4.5 19.9c.9 3.8 1.7 7.7 2.6 11.5l.3 1.2c.1.5.2.9.3 1.4.2.9.4 1.8.6 2.6 1.7 7.7 3.4 15.3 5.2 23l4.9 19.8c.8 3.3 1.8 6.6 1.5 9.7-.2 1.5-.8 2.9-1.8 4-1.1 1.1-2.5 1.9-3.9 2.4-1.5.6-3.1 1-4.8 1.4l-4.9 1.3-9.8 2.6-11.2 2.9-1.2.3-1.8.4-5.5 1.4c-1.8.5-3.7.9-5.5 1.4-11.3 2.9-22.7 5.7-34.1 8.4-3.5.8-6.9 1.6-10.3 2.4-3.2.7-6.3 1.5-9.5 2.1l-1.8.4-1.2.3-.6.1-3.9.8v3c1.4-.4 2.9-.7 4.3-1.1l.8-.2c.5-.1 1-.3 1.6-.4.5-.1.9-.2 1.4-.4 3.3-.9 6.6-1.6 9.9-2.4l9.9-2.4 2.3-.5 15.1-3.6.3-.1 12.4-3 3.4-.8 6.3-1.5 5.4-1.4 1.9-.5 1.4-.4 11.1-2.8 9.8-2.7 4.9-1.4c1.6-.5 3.3-.9 5-1.6 1.8-.7 3.5-1.7 4.9-3.1.7-.7 1.2-1.6 1.6-2.5.1-.1.1-.3.2-.4.1-.2.2-.5.2-.7s.1-.5.2-.7c.1-.2.1-.5.1-.7 0-.1 0-.3.1-.4-.2-1.3-.2-3.1-.6-5zM6.5 8.5L8 7.3c1-.8 2.1-1.6 3.3-2.3.4-.2.8-.5 1.2-.7 1.9-1.1 3.8-2 5.8-2.9l2.4-.9c.5-.2.9-.3 1.4-.5h-6.7l-1.2.6c-1.6.8-3.2 1.7-4.7 2.7-1.3.9-2.6 1.9-3.9 2.9-.8.6-1.5 1.1-2.2 1.7C2.1 8.9 1 10-.2 11v3.7c1.6-1.7 3.3-3.3 5.1-4.9l1.6-1.3z"/></g><g fill="#C6D0E2"><path d="M80.9 219l-69.8 16.2-8-31.8 69.8-16.2"/><path d="M81.3 215.6c-.3-1.4-.8-2.8-1.2-4.2-.1-.2-.2-.5-.2-.7-.1-.3-.2-.5-.2-.8-.1-.4-.2-.9-.3-1.3s-.2-.9-.2-1.3c-.2-1.4-.5-2.7-.9-4.1-.9-2.7-1.5-5.4-1.9-8.2-.1-.5-.1-1-.2-1.5 0-.1-.1-.2-.1-.4-.1-.5-.2-.9-.4-1.4-.1-.3-.2-.6-.4-.9v-.1c0-.1-.1-.2-.1-.3-.5-1.2-.8-2.4-.8-3.7-.1-.6-.6-1-1.2-1h-.3c-1.5.2-2.9.6-4.4 1.1-.7.2-1.5.3-2.2.4-.8.1-1.5.1-2.2.2-.9.1-1.7.3-2.6.5-2 .7-4.1 1.2-6.1 1.6-.7.1-1.5.2-2.2.4l-2.2.6c-1.4.4-2.8.9-4.3 1.4-1.4.4-2.9.8-4.3 1.1-1.5.3-3 .4-4.4.7-2.9.6-5.8 1.4-8.7 2.3-1.4.4-2.9.8-4.3 1.3-1.4.4-2.8 1-4.3 1.4-1.4.4-2.9.7-4.4 1s-2.9.6-4.4.9c-1.5.3-2.9.6-4.4 1s-2.9.7-4.3 1.1h-.1c-.3.1-.5.5-.4.8.4 1.3.8 2.6 1.1 3.9l.2.8v.2l.2 1 .2 1.2v.3l.1.5c.1.7.2 1.4.3 2 .1.7.3 1.3.5 2l.8 1.9c.2.6.4 1.3.5 2 .2 1.4.3 2.8.6 4.1.1.7.3 1.4.5 2s.3 1.2.5 1.8v.1c.1.4.2.9.3 1.3l.6 2.7c.3 1.3.6 2.6.9 4 .2.8.9 1.3 1.7 1.1h.1l4.4-1c.9-.2 1.9-.5 2.7-.9.5-.2 1.1-.3 1.6-.4h.6c.6 0 1.2-.1 1.8-.1.4-.1.7-.2 1.1-.3s.7-.2 1.1-.3c1.4-.5 2.9-.9 4.3-1.3 2.9-.7 6-1.3 9-1.8 1.5-.3 3.1-.6 4.5-.9 1.5-.4 2.8-1 4.3-1.3 1.5-.4 3-.6 4.6-.9 1.5-.3 3-.7 4.4-1.1 2.9-.8 5.5-1.8 8.4-2.6 1.5-.4 3.1-.7 4.6-.9l1.2-.2c.4-.1.7-.2 1.1-.3l1.8-.6c.1 0 .2-.1.3-.1.9-.2 1.9-.4 2.8-.6.6-.1 1.1-.2 1.7-.4l4.5-1c-.6-1-1-2.4-1.3-3.8zM3.4 204.8l1.1-1.7c.1.5.1 1 .2 1.6 5.5-.9 10.7-3 16-4.3 1.5-.3 3-.3 4.5-.5s2.9-.5 4.4-.8c3-.5 5.9-1.2 8.7-1.9 1.4-.4 2.8-1.1 4.2-1.6.7-.2 1.4-.4 2.2-.6.7-.1 1.5-.3 2.2-.4l4.4-.7 2.2-.4c.7-.2 1.4-.4 2.2-.6 1.8-.5 3.6-.9 5.4-1.1 1.1-.2 2.2-.4 3.3-.7l2.1-.8c.7-.2 1.4-.4 2.2-.5 1-.1 2-.2 3-.4-.2-.6-.4-1.1-.6-1.6l2 1.2c-.5.2-.9.3-1.4.4 0 .1.1.1.1.2.2.6.2 1.2.2 1.9v.3c0 .4 0 .7.1 1.1 0 .2.1.4.2.6.1.2.1.5.2.7 0 .1.1.2.1.4.1.3.2.6.3.8 1 2.4 1.8 5 2.2 7.6.3 1.3.7 2.6 1.2 3.9.3.8.6 1.6.8 2.4.1.5.2.9.3 1.4v.1c0 .2.1.5.1.7.2 1 .4 2 .7 3 .3 1.3.7 2.5 1.1 3.8l-4.1 1h-.1c-.9.2-1.8.5-2.8.7-.5.1-.9.2-1.4.4-.7.2-1.5.3-2.3.4-.4.1-.7.1-1.1.2l-1 .3-2 .6c-.7.2-1.4.4-2.1.5-2.9.6-6 1.1-8.9 1.7-1.5.3-2.9.6-4.3 1s-2.7.9-4.1 1.3c-5.9 1.1-11.5 2.8-17.3 3.9-2.5.6-5.2.5-7.5 1.3-.4.1-.8.3-1.2.5-.5.2-1.1.3-1.7.3-.9 0-1.8.1-2.7.3l-2.6.6c.1.5.3 1.1.4 1.6l-2.1-1.3 1.7-.4-.6-2.7c-.2-.8-.3-1.5-.5-2.2-.1-.5-.2-.9-.3-1.4v-.1c-.1-.6-.2-1.2-.4-1.8-.1-.7-.3-1.4-.5-2.1-.5-1.3-1.1-2.6-1.7-3.8-.3-.6-.4-1.3-.4-2V215c-.2-1.4-.6-2.7-1.2-3.9-.1-.2-.1-.3-.2-.5 0-.1-.1-.1-.1-.2-.2-.4-.3-.8-.5-1.1-.1-.3-.3-.6-.4-1 0-.1-.1-.1-.1-.2-.1-.3-.2-.5-.2-.8-.2-.8-.4-1.6-.5-2.4-.2-.2-.6-.1-1.1-.1z"/></g><g fill="#A7B3CB"><path d="M711.2 505.6c-.2.5-.3 1-.4 1.5v193h-204l37.6-57.7 54.5-83.8 4.3-6.6 8.5-13 .7-.4 11.8-6.8 2.7-1.6 20.3-11.7 2.9-1.7 4.3-2.5 2.6-1.5 13.1-7.5 2.9-1.7 8.3-4.8 3.7-2.1 7.2-4.1 3-1.8 1.3-.8 2.4-1.4 11.9-6.9v24c.1-.1.3-.1.4-.1z"/><path d="M708.5 481.5c-3.5 2.1-6.9 4.2-10.3 6.2-.8.5-1.6.9-2.5 1.4-.4.2-.8.4-1.1.6-.5.3-1.1.6-1.6.9-1 .6-2.1 1.2-3.1 1.7l-4.8 2.7c-1.2.7-2.5 1.4-3.7 2.1 0 .2-.1.5-.1.7 0 .3 0 .6-.1.9l-8.3 4.8h-2.5l-2.9 1.7-.7.4c-2.3 1.4-4.7 2.6-7 3.9l-3.3 1.8c.2.5.4.9.6 1.3s.4.9.7 1.3c3.2-2 6.5-3.9 9.8-5.8 1.9-1.1 3.8-2.1 5.7-3.2 1-.5 2-1.1 3-1.6 1.7-.9 3.4-1.9 5.1-2.9 1.2-.6 2.3-1.3 3.5-2 1.1-.7 2.3-1.4 3.4-2l6.8-4.1h.1c.8-.5 1.6-.9 2.3-1.4.1-.1.2-.1.3-.2.7-.4 1.5-.9 2.2-1.3 3-1.7 6-3.2 8.9-4.8l2.1-1.2v-3.5c-1 .7-1.7 1.2-2.5 1.6zm0 0c-3.5 2.1-6.9 4.2-10.3 6.2-.8.5-1.6.9-2.5 1.4-.4.2-.8.4-1.1.6-.5.3-1.1.6-1.6.9-1 .6-2.1 1.2-3.1 1.7l-4.8 2.7c-1.2.7-2.5 1.4-3.7 2.1-.2.1-.5.3-.8.4l-10.2 6-2.9 1.7-.7.4c-2.3 1.4-4.7 2.6-7 3.9l-3.3 1.8-2.5 1.3-1.3.7-6 3.3c-1 .5-2 1.1-3 1.7-1.7.9-3.3 1.9-5 2.9l-13.9 8.1c-.4.2-.7.4-1.1.6-.9.5-1.9 1.1-2.8 1.7-2.2 1.3-4.4 2.6-6.7 3.9-1 .6-1.9 1.1-2.9 1.6-.1.1-.3.2-.4.2-.2.1-.4.3-.5.5-2.4 3.6-4.8 7.2-7.1 10.8-.7 1.1-1.4 2.2-2.1 3.2-.7 1-1.4 2.1-2.1 3.1l-.1.1-3.3 5-14.4 22.5-28.8 44.9c-3.2 4.9-6.4 9.7-9.6 14.6-1.7 2.6-3.4 5.2-5.1 7.7L523 672.3 505.1 700h3.9l16.9-25.9c6.8-10.5 13.4-21.2 20.1-31.8 2.8-4.4 5.6-8.9 8.5-13.2l29.3-44.6 14.7-22.3.4-.6 2.1-3.3 2.1-3.3 9.6-14.9c-.1.1-.2.1-.3.2l.5-.5-.2.3c4.4-2.7 9-5.1 13.5-7.7l1.3-.8 2.6-1.5 9.9-5.5c3.6-2 7.1-4.1 10.6-6.2.9-.5 1.8-1.1 2.7-1.6.5-.3 1-.6 1.6-1 .9-.6 1.8-1.1 2.7-1.7 3.2-2 6.5-3.9 9.8-5.8 1.9-1.1 3.8-2.1 5.7-3.2 1-.5 2-1.1 3-1.6 1.7-.9 3.4-1.9 5.1-2.9 1.2-.6 2.3-1.3 3.5-2 1.1-.7 2.3-1.4 3.4-2l6.8-4.1h.1c.8-.5 1.6-.9 2.3-1.4.1-.1.2-.1.3-.2.7-.4 1.5-.9 2.2-1.3 3-1.7 6-3.2 8.9-4.8l2.1-1.2v-3.5c-.8.5-1.5 1-2.3 1.4zm0 0c-3.5 2.1-6.9 4.2-10.3 6.2-.8.5-1.6.9-2.5 1.4-.4.2-.8.4-1.1.6-.5.3-1.1.6-1.6.9-1 .6-2.1 1.2-3.1 1.7l-4.8 2.7c-1.2.7-2.5 1.4-3.7 2.1 0 .2-.1.5-.1.7 0 .3 0 .6-.1.9l-8.3 4.8h-2.5l-2.9 1.7-.7.4c-2.3 1.4-4.7 2.6-7 3.9l-3.3 1.8c.2.5.4.9.6 1.3s.4.9.7 1.3c3.2-2 6.5-3.9 9.8-5.8 1.9-1.1 3.8-2.1 5.7-3.2 1-.5 2-1.1 3-1.6 1.7-.9 3.4-1.9 5.1-2.9 1.2-.6 2.3-1.3 3.5-2 1.1-.7 2.3-1.4 3.4-2l6.8-4.1h.1c.8-.5 1.6-.9 2.3-1.4.1-.1.2-.1.3-.2.7-.4 1.5-.9 2.2-1.3 3-1.7 6-3.2 8.9-4.8l2.1-1.2v-3.5c-1 .7-1.7 1.2-2.5 1.6z"/></g><g fill="#C6D0E2"><path d="M711.2 505.6c-.2.5-.3 1-.4 1.5v193H601V410.8h109.8v94.8h.4z"/><path d="M692.5 412.7c-.1-.1-.2-.2-.2-.3l-.1-.1c-.1-.2-.1-.3-.2-.5h-1.1l-.9 1.2h2.8l-.3-.3zm-91.5-4c-.8 0-1.6.5-1.9 1.2-.2.3-.2.6-.2 1V700h4.3V413h107.6v-4.3H601zm91.5 4c-.1-.1-.2-.2-.2-.3l-.1-.1c-.1-.2-.1-.3-.2-.5h-1.1l-.9 1.2h2.8l-.3-.3z"/></g><g fill="#D8E1EC"><path d="M600.3 409.8l.1 140.1 93.9-139.8"/><path d="M658.1 464l7.8-11.6h-1.6c-.1.2-.2.4-.4.6-1.9 3-3.7 5.9-5.5 9-.4.7-.8 1.4-1.2 2-.3.5-.6 1-1 1.6-1.1 1.8-2.2 3.6-3.4 5.3-1.5 2.1-3 4.2-4.4 6.3-.4.5-.8 1.1-1.1 1.7-.2.2-.3.4-.5.7-2.5 3.7-5 7.3-7.4 11-.3.5-.7 1-1 1.5-1.1 1.7-2.2 3.4-3.2 5.1-1.8 3-3.8 5.9-6 8.7s-4.3 5.6-6.2 8.5c-.5.9-1 1.7-1.5 2.6h1.1l16.7-24.9 1-1.5h2.2c.2-.3.3-.5.5-.8l2.9-4.4 2.8-4.5c.4-.7.8-1.3 1.3-2 .3-.5.7-1.1 1-1.6.2-.3.3-.5.5-.8l2.7-4.5c1.4-2.2 2.9-4.2 4.4-6.2H657l1.1-1.8zm0 0l7.8-11.6h-1.6c-.1.2-.2.4-.4.6-1.9 3-3.7 5.9-5.5 9-.4.7-.8 1.4-1.2 2-.3.5-.6 1-1 1.6-1.1 1.8-2.2 3.6-3.4 5.3-1.5 2.1-3 4.2-4.4 6.3-.4.5-.8 1.1-1.1 1.7-.2.2-.3.4-.5.7-2.5 3.7-5 7.3-7.4 11-.3.5-.7 1-1 1.5-1.1 1.7-2.2 3.4-3.2 5.1-1.8 3-3.8 5.9-6 8.7s-4.3 5.6-6.2 8.5c-.5.9-1 1.7-1.5 2.6h1.1l16.7-24.9 1-1.5h2.2c.2-.3.3-.5.5-.8l2.9-4.4 2.8-4.5c.4-.7.8-1.3 1.3-2 .3-.5.7-1.1 1-1.6.2-.3.3-.5.5-.8l2.7-4.5c1.4-2.2 2.9-4.2 4.4-6.2H657l1.1-1.8zm22.8-53.2s0 .1 0 0v.2c0 .1 0 .1-.1.2 0 .1-.1.2-.2.3l-.2.2H682.8c2.7 0 5.5-.1 8.2-.2.2-.3.4-.6.7-.9h-10.8v.2zm-3.6 0h-11.1c0 .1 0 .2-.1.2v.1s-.1.2-.1.3c1.7 0 3.4-.1 5.1-.1 2.1 0 4.2.1 6.3.3v-.4c-.1-.1-.1-.2-.1-.4zm-25.8 0v.4l-.1.2h2.5l2.8-.2c1 0 1.9-.1 2.9 0 1.1 0 2.2.1 3.2.2v-.5l-11.3-.1zm-14.7 0c0 .1-.1.1 0 0 3.6 0 7.4.2 11.1.4v-.4h-11.1zm-1.7 86.3c-1.8 3-3.8 5.9-6 8.7s-4.3 5.6-6.2 8.5c-.5.9-1 1.7-1.5 2.6-.3.6-.7 1.1-1 1.7 0 .1-.1.2-.2.3-1 1.5-2 2.8-3.1 4.2-2.2 2.7-4.2 5.6-6.1 8.6-2.5 3.9-5.2 7.7-7.8 11.5v2.7l18.3-27.2 1.1-1.7 16.7-24.9h-1c-1.1 1.5-2.2 3.2-3.2 5zm-4.7-86.1h2.8v-.1H624h.5c2 .1 4 .2 5.9.1zm66.1-2.5h-4.7c-3.1-.1-6.3-.4-9.4-.4h-1.9c-1 0-2.1.1-3.2.2h-.2c-2.2.2-4.4.3-6.6.2-1.4-.1-2.9-.2-4.4-.3H662.4c-1.3.1-2.6.2-3.9.2-1 0-2 0-3-.1l-3.1-.4c-.3 0-.7-.1-1-.1H647.6c-.4 0-.8 0-1.2.1-3.2.2-6.5.4-9.8.4H632.8c-1.4-.1-2.9-.1-4.3-.1-2 0-3.9.1-5.8.2l-.9.1c-.7 0-1.4.1-2 .1h-3.7l-5.3-.1c-2-.1-4 0-6 0h-5.9v8.9l.1 9c0 3-.3 5.7-.1 8.7.1 3 .3 6.1.3 9 0 5.9-.2 11.6-.4 17.4l.2 4.5v4.4c0 3 .3 6 .3 9 .1 5.9-.1 11.7 0 17.6 0 5.9.1 11.8 0 17.6-.1 2.9 0 5.9-.2 8.8-.1 1-.1 2-.2 2.9-.1 1.9-.2 3.9-.1 5.8l.1 1.3c.2 2.3.2 4.6 0 7 0 .2 0 .3-.1.5-.1 1.5-.2 2.9-.2 4.4v4.4l-.1 5.9.3-.5.1-.1 2.1-3 .9-1.3 1.2-1.8c2.7-3.9 5.4-7.9 8.1-11.8.9-1.2 1.8-2.5 2.7-3.7 1-1.4 2.1-2.8 3-4.3s1.8-3 2.5-4.6c.8-1.6 1.6-3.1 2.6-4.6.4-.5.8-1.1 1.3-1.5l.4-.5 1-1.1.8-.8c2.1-2.8 3.9-5.9 5.4-9 1.7-3.1 3.6-6 5.8-8.8 1.6-2 3.1-4.1 4.6-6.2.4-.5.7-1 1.1-1.6.2-.3.3-.5.5-.8l2.9-4.4 2.8-4.5c.4-.7.8-1.3 1.3-2 .3-.5.7-1.1 1-1.6.2-.3.3-.5.5-.8l2.7-4.5c1.4-2.2 2.9-4.2 4.4-6.2l1.2-1.5.6-.7c1.9-2.4 3.7-5 5.5-7.5.2-.3.5-.7.7-1 .6-.8 1.1-1.6 1.7-2.4.3-.5.6-.9 1-1.4.1-.2.3-.4.4-.6l2.9-4.4c2-2.9 3.9-5.8 5.6-8.9.6-1.2 1.3-2.3 2-3.4v-.1c.9-1.5 1.8-2.9 2.8-4.4l.1-.1c.2-.3.4-.6.7-.9 2.8-4.1 5.9-8 8.7-12.2.7-1 1.3-2 1.9-3 0-.1.1-.1.1-.2l.7-1.2c.1-.2.2-.3.3-.5l.1-.2v-.1l.1-.1 1.2-2.1.1-.2h-.4zM600.4 547l.6-.9c.4-.5.7-1 1.1-1.5 0-1.1 0-2.3-.1-3.4-.3-2.9-.2-5.8.2-8.7.1-2.9 0-5.8-.2-8.7-.1-2.9-.1-5.8-.1-8.7 0-5.8.3-11.5.4-17.2 0-2.9.1-5.7 0-8.6l-.2-4.4c0-1.5-.1-2.9-.1-4.4 0-2.9.2-5.7.2-8.5v-4.4l-.1-4.4c-.2-5.9-.5-11.8-.6-17.7 0-2.9.2-5.7.2-8.5 0-1.4 0-2.9-.1-4.4s-.2-3-.2-4.4l.1-8.6V411h5.8s3.9 0 5.7-.1l3.2-.1 2.4-.1h3.4c.7 0 1.3 0 2 .1h.5c2 .1 4 .2 5.9.2h3c.9 0 1.7 0 2.6-.1h.7c3.6 0 7.4.1 11.1.4h.4c.8 0 1.7.1 2.5.1h3l2.8-.2c1 0 1.9-.1 2.9 0 1.1 0 2.2.1 3.2.2h.4c.8 0 1.5.1 2.3.1h.7c1.7 0 3.4-.1 5.1-.1 2.1 0 4.2.1 6.3.3h.7c.8.1 1.5.1 2.3.2H682.8c2.7 0 5.5-.1 8.2-.2.2-.3.4-.6.7-.9.1-.2.2-.3.4-.5l.2-.2v-.1c.2-.3.5-.6.7-.9l.3.5.2.4.4.8.5.9H691l-.9 1.2c-3.1 4.5-5.7 9.2-8.6 13.8-3.6 6-8.3 11.3-11.9 17.3-1.5 2.3-3 4.6-4.4 6.9-.3.5-.6.9-.9 1.4-.1.2-.2.4-.4.6-1.9 3-3.7 5.9-5.5 9-.4.7-.8 1.4-1.2 2-.3.5-.6 1-1 1.6-1.1 1.8-2.2 3.6-3.4 5.3-1.5 2.1-3 4.2-4.4 6.3-.4.5-.8 1.1-1.1 1.7-.2.2-.3.4-.5.7-2.5 3.7-5 7.3-7.4 11-.3.5-.7 1-1 1.5-1.1 1.7-2.2 3.4-3.2 5.1-1.8 3-3.8 5.9-6 8.7s-4.3 5.6-6.2 8.5c-.5.9-1 1.7-1.5 2.6-.3.6-.7 1.1-1 1.7 0 .1-.1.2-.2.3-1 1.5-2 2.8-3.1 4.2-2.2 2.7-4.2 5.6-6.1 8.6-2.5 3.9-5.2 7.7-7.8 11.5-.4.5-.7 1-1.1 1.5V549.9l-1-.3-.3-.1-.3-.1-1.3-.4c.2-.7.7-1.3 1.1-2zm32.8-136.2H624h.5c2 .1 4 .2 5.9.2h2.8v-.2zm5.1 81.2c-1.1 1.7-2.2 3.4-3.2 5.1-1.8 3-3.8 5.9-6 8.7s-4.3 5.6-6.2 8.5c-.5.9-1 1.7-1.5 2.6-.3.6-.7 1.1-1 1.7 0 .1-.1.2-.2.3-1 1.5-2 2.8-3.1 4.2-2.2 2.7-4.2 5.6-6.1 8.6-2.5 3.9-5.2 7.7-7.8 11.5v2.7l18.3-27.2 1.1-1.7 16.7-24.9-1-.1zm9.6-81.2h-11.1v.1c3.6 0 7.4.1 11.1.4v-.5zm14.7 0h-11.1v.4l-.1.2h2.5l2.8-.2c1 0 1.9-.1 2.9 0 1.1 0 2.2.1 3.2.2-.2-.3-.2-.4-.2-.6zm14.7.5v-.5h-11.1c0 .1 0 .2-.1.2v.1s-.1.2-.1.3c1.7 0 3.4-.1 5.1-.1 2.1 0 4.2.1 6.3.3-.1-.1-.1-.2-.1-.3zm3.6-.5s0 .1 0 0v.2c0 .1-.1.1-.1.2-.1.1-.1.2-.2.3l-.2.2H682.8c2.7 0 5.5-.1 8.2-.2.2-.3.4-.6.7-.9h-10.8v.2z"/></g><path fill="#A7B3CB" d="M710.8 451.5v1c-1-.1-1.9-.1-2.9 0-1.9.1-3.9.4-5.8.4-1 0-1.9-.3-2.9-.4-1 0-1.9 0-2.9.2-1.9.2-3.9.3-5.8.1-1.9-.1-3.9-.1-5.8-.1l-5.8-.1c-1 .1-1.9-.2-2.9-.2s-1.9.2-2.9.2c-1.6 0-3.2-.2-4.8-.2h-4.1c-6.8 0-13.5 0-20.2.2l-5.8-.1c-1 0-1.9-.1-2.9 0-1 0-1.9.1-2.9.2h-2.9c-1-.1-1.9 0-2.9 0-1.9.1-3.9.1-5.8.1-.5 0-.9-.4-.9-.8 0-.5.4-.9.8-.9 14.8.3 29.6-.5 44.4 0l1.7.1h2.5c1.3-.1 2.6-.2 3.8-.1 1 0 1.9.2 2.9.2s1.9-.2 2.9-.1c3.9 0 7.8.1 11.6.1 1.9 0 3.9 0 5.8.1 1 .1 1.9.1 2.9.1s1.9-.2 2.9-.2c1.9 0 3.9.2 5.8.3 1-.1 1.9-.1 2.9-.1zM710.8 464.6v1.3h-.5c-1.8-.2-3.6-.2-5.4-.2-1.8.1-3.6.4-5.4.4-.9 0-1.8-.3-2.7-.4-.9 0-1.8 0-2.7.2-1.8.2-3.6.3-5.4.1-1.8-.1-3.6-.1-5.4-.1l-5.4-.1c-.9.1-1.8-.2-2.7-.2s-1.8.2-2.7.2c-1.8 0-3.6-.3-5.4-.2-2.6 0-5.1-.1-7.7 0h-3.3c-3.5 0-7 .1-10.5.2l-5.4-.1c-.9 0-1.8-.1-2.7 0-.9 0-1.8.1-2.7.2h-2.7c-.9-.1-1.8 0-2.7 0-1.8.1-3.6.1-5.4.1-.5 0-.9-.4-.9-.8 0-.5.4-.9.8-.9 11 .2 22-.2 33-.2H660.3c2.2 0 4.5.1 6.7.2 1.8.1 3.6-.2 5.4-.2.9 0 1.8.2 2.7.2s1.8-.2 2.7-.1c3.6 0 7.2.1 10.8.1 1.8 0 3.6 0 5.4.2.9.1 1.8.1 2.7.1s1.8-.2 2.7-.2c1.8 0 3.6.2 5.4.2h6zM710.8 477.9v1.1c-1.3-.1-2.6-.1-3.9-.1-1.9.1-3.8.4-5.8.4-1 0-1.9-.3-2.9-.4-1 0-1.9 0-2.9.2-1.9.2-3.8.3-5.8.1-1.9-.1-3.8-.1-5.8-.1l-5.7-.1c-1 0-1.9-.2-2.9-.2s-1.9.2-2.9.2c-1.9 0-3.8-.3-5.8-.2h-19.7l-3.5.1-5.7-.1c-1 0-1.9-.1-2.9 0-1 0-1.9.1-2.9.2s-1.9 0-2.9 0c-1-.1-1.9 0-2.9 0-1.9.1-3.8.1-5.8.1-.5 0-.9-.4-.9-.8 0-.5.4-.9.8-.9 9.2.2 18.4-.1 27.6-.1H651.4c3.6 0 7.2 0 10.8.1 1.3 0 2.6.1 3.9.1h.4c1.8 0 3.5-.2 5.3-.2 1 0 1.9.2 2.9.2s1.9-.2 2.9-.1c3.8 0 7.7.1 11.5.1 1.9-.1 3.8 0 5.8.1 1 .1 1.9.1 2.9.1s1.9-.2 2.9-.2c1.9 0 3.8.2 5.8.2 1.7.2 3 .2 4.3.2zM710.8 491v1h-2.3c-2 .1-3.9.4-5.8.4-.5 0-1.1-.1-1.6-.2-.4-.1-.9-.1-1.3-.2-.6 0-1.3 0-1.9.1-.3 0-.7.1-1 .1-.6.1-1.3.2-2 .2h-15.5c-1 0-2-.2-2.9-.2-1 0-2 .2-2.9.2-2 0-3.9-.3-5.8-.2-3.5 0-7-.1-10.5 0h-3.5c-3.1 0-6.3.1-9.4.1H638.6c-1 0-2-.1-2.9 0-1 0-2 .1-2.9.2h-2.9c-1-.1-2 0-2.9 0-2 .1-3.9.1-5.9.1-.5 0-.9-.4-.9-.8 0-.5.4-.9.8-.9 6.2.1 12.4.1 18.6 0h4.2c3.5 0 7.1-.1 10.6-.1h3.6c3.3 0 6.5.1 9.8.2 2 .1 3.9-.2 5.8-.2 1 0 2 .2 2.9.2 1 0 2-.2 2.9-.1h4.3c1.3 0 2.6 0 3.9.1h7.6c.6 0 1.1.1 1.7.1h.7c.7 0 1.5.1 2.2.1h.8c.7 0 1.4-.1 2.2-.1 2 0 3.9.2 5.8.3.7-.4 1.5-.4 2.2-.4zM710.8 503.9v1.8c-1.2.1-2.5 0-3.8 0-1.7-.1-3.4-.1-5-.1h-5.1c-.5 0-1 0-1.5-.1-.4-.1-.7-.1-1.1-.1-.8 0-1.7.2-2.5.2-1.7 0-3.4-.3-5-.2h-4.9c-2.9 0-5.9 0-8.8.1h-6.5l-5-.1c-.8 0-1.7-.1-2.5 0s-1.7.1-2.5.2h-5c-1.7.1-3.4.1-5 .1-.5 0-.9-.4-.9-.8 0-.5.4-.9.8-.9 1.9 0 3.8.1 5.6.1h3c5.1 0 10.1-.1 15.2-.2h5.7c1.8 0 3.7 0 5.5.1 1.2 0 2.4.1 3.5.1.6 0 1.2 0 1.7.1 1.7.1 3.4-.2 5-.2.8 0 1.7.2 2.5.2.7 0 1.4-.1 2.1-.1h3.3c2.4 0 4.8.1 7.2.1 1.5-.4 2.8-.4 4-.3zM710.8 517.4v1h-2.3c-2 .1-3.9.4-5.8.4-1 0-2-.3-2.9-.4h-.4c-.9 0-1.7.1-2.6.2-1.2.2-2.4.2-3.6.2-.8 0-1.5 0-2.3-.1-1.2 0-2.4-.1-3.6-.1h-8c-1 .1-2-.2-2.9-.2-1 0-2 .2-2.9.2-2 0-3.9-.3-5.8-.2h-11.5l-5.3.1c-1.2 0-2.3 0-3.5.1h-3.5l-5.3-.1c-1 0-2-.1-2.9 0-1 0-2 .1-2.9.2-1 .1-2 0-2.9 0-1-.1-2 0-2.9 0h-6.2c-.4-.1-.7-.6-.6-1.1.1-.4.4-.6.8-.6h5.5c6.8 0 13.5-.1 20.3-.2h12.5c2.8 0 5.6.1 8.5.2 2 .1 3.9-.2 5.8-.2 1 0 2 .2 2.9.2 1 0 2-.2 2.9-.1 2.1 0 4.3 0 6.4.1h9.2c.7 0 1.3.1 2 .1 1 .1 2 .1 2.9.1 1 0 2-.2 2.9-.2 2 0 3.9.2 5.8.3.7.1 1.5.1 2.2.1zM710.8 530.5v1h-2.3c-2 .1-3.9.4-5.8.4-.5 0-1-.1-1.5-.2s-1-.2-1.5-.2c-1 0-2 0-2.9.2-1.9.2-3.9.3-5.8.1-2-.1-3.9-.1-5.9-.1l-5.8-.1c-1 .1-2-.2-2.9-.2-.7 0-1.3.1-1.9.1h-1c-1.9 0-3.7-.2-5.6-.2h-.3c-7.8-.1-15.6 0-23.4.1l-5.9-.1c-1 0-2-.1-2.9 0-1 0-2 .1-2.9.2h-5.8c-.8 0-1.6.1-2.4.1l-3.3.1h-.2c-.5 0-.9-.4-.9-.8s.4-.9.8-.9h9.5c11.9 0 23.8-.5 35.7 0 .6 0 1.1 0 1.7.1 1.2 0 2.4 0 3.5-.1.8 0 1.5-.1 2.3-.1 1 0 2 .2 2.9.2 1 0 2-.2 2.9-.1 3.9 0 7.8.1 11.7.1 2 0 3.9 0 5.8.2 1 .1 2 .1 2.9.1 1 0 2-.2 2.9-.2 1.1 0 2.2.1 3.3.1.8 0 1.7.1 2.5.1 1 .2 1.8.2 2.5.1zM710.8 543.5v1.7h-.4c-.9 0-1.8-.3-2.7-.4-.9 0-1.8 0-2.7.2-1.8.2-3.6.3-5.4.1-1.8-.1-3.6-.1-5.4-.1l-5.4-.1c-.9.1-1.8-.2-2.7-.2s-1.8.2-2.7.2c-1.8 0-3.6-.3-5.4-.2-7.2-.1-14.5 0-21.7.1l-5.4-.1c-.9 0-1.8-.1-2.7 0-.9 0-1.8.1-2.7.2-.9.1-1.8 0-2.7 0-.9-.1-1.8 0-2.7 0-1.8.1-3.6.1-5.4.2-.5 0-.9-.4-.9-.8 0-.5.4-.9.8-.9 14.5.3 28.9-.6 43.4.1 1.8.1 3.6-.2 5.4-.2.9 0 1.8.2 2.7.2s1.8-.2 2.7-.1c3.6 0 7.2.1 10.8.1 1.8 0 3.6 0 5.4.2.9.1 1.8.1 2.7.1s1.8-.2 2.7-.2c.2-.1.3-.1.4-.1zM710.8 556.9v1h-2.1-.2c-2 .1-3.9.4-5.8.4-1 0-2-.3-2.9-.4-1 0-2 0-2.9.2-1.9.2-3.9.3-5.8.1-2-.1-3.9-.1-5.9-.1l-5.8-.1c-1 0-2-.2-2.9-.2-1 0-2 .2-2.9.2-2 0-3.9-.3-5.8-.2-7.8-.1-15.6 0-23.4.1l-5.9-.1c-1 0-2-.1-2.9 0-1 0-2 .1-2.9.2h-2.9c-1-.1-2 0-2.9 0-2 .1-3.9.1-5.9.2-.5 0-.9-.4-.9-.8 0-.5.4-.9.8-.9 15.6.3 31.2-.6 46.8.1 2 .1 3.9-.2 5.8-.2 1 0 2 .2 2.9.2 1 0 2-.2 2.9-.1 3.9 0 7.8.1 11.7.1 2-.1 3.9 0 5.8.2 1 .1 2 .1 2.9.1 1 0 2-.2 2.9-.2 2 0 3.9.2 5.8.3h1.2c.5-.1.9-.1 1.2-.1zM710.8 570.1v1h-2.3c-2 .1-3.9.4-5.8.4-1 0-2-.3-2.9-.4-1 0-2 0-2.9.2-1.9.2-3.9.3-5.8.1-2-.1-3.9-.1-5.9-.1l-5.8-.1c-1 0-2-.2-2.9-.2-1 0-2 .2-2.9.2-2 0-3.9-.3-5.8-.2-7.8-.1-15.6 0-23.4.1l-5.9-.1c-1 0-2-.1-2.9 0s-2 .1-2.9.2h-2.9c-1-.1-2 0-2.9 0-2 .1-3.9.1-5.9.1-.5 0-.9-.4-.9-.8s.4-.9.8-.9c15.6.3 31.2-.6 46.8.1 2 .1 3.9-.2 5.8-.2 1 0 2 .2 2.9.2 1 0 2-.2 2.9-.1 3.9 0 7.8.1 11.7.1 2-.1 3.9 0 5.8.2 1 .1 2 .1 2.9.1 1 0 2-.2 2.9-.2 2 0 3.9.2 5.8.3h2.4zM710.8 583.2v1.2c-2.2.1-4.4.1-6.6.1-1.7-.2-3.5-.2-5.2-.2-1.7.1-3.5.4-5.2.4-.9 0-1.7-.3-2.6-.4-.9 0-1.7 0-2.6.2-1.7.2-3.5.3-5.2.1-1.7-.1-3.5-.1-5.2-.1l-5.2-.1c-.9.1-1.7-.2-2.6-.2-.9 0-1.7.2-2.6.2-1.7 0-3.5-.3-5.2-.2-7-.1-13.9 0-20.9.1l-5.2-.1c-.9 0-1.7-.1-2.6 0-.9 0-1.7.1-2.6.2h-2.6c-.9-.1-1.7 0-2.6 0-1.7.1-3.5.1-5.2.1-.5 0-.9-.4-.9-.8s.4-.9.8-.9c13.9.3 27.8-.6 41.8.1 1.7.1 3.5-.2 5.2-.2.9 0 1.7.2 2.6.2.9 0 1.7-.2 2.6-.1 3.5 0 7 .1 10.4.1 1.7 0 3.5 0 5.2.2.9.1 1.7.1 2.6.1.9 0 1.7-.2 2.6-.2 1.7 0 3.5.2 5.2.3s3.5 0 5.2 0c1.7-.1 3.5 0 5.2 0 .5-.1 1-.1 1.4-.1zM710.8 596.4v1h-2.3c-2 .1-3.9.4-5.8.4-1 0-2-.3-2.9-.4-1 0-2 0-2.9.2-.9.1-1.8.2-2.7.2-1 0-1.9 0-2.9-.1h-.2c-2-.1-3.9-.1-5.9-.1l-5.8-.1h-.4c-.8 0-1.7-.2-2.5-.2-1 0-2 .2-2.9.2-2 0-3.9-.3-5.8-.2h-20.1l-3.3.1-2.7-.1-3.2-.1c-1 0-2-.1-2.9 0-1 0-2 .1-2.9.2h-2.9c-1-.1-2 0-2.9 0-2 .1-3.9.1-5.9.1-.5 0-.9-.4-.9-.8s.4-.9.8-.9c7.9.2 15.8 0 23.7-.1h16c1.3 0 2.7 0 4 .1h.4c.9 0 1.8.1 2.7.1h1.8c1.3 0 2.7-.2 4-.2 1 0 2 .2 2.9.2s1.8-.2 2.8-.2h.2c3.8 0 7.6.1 11.4.1h3.3s1.9 0 2.9.2c1 .1 2 .1 2.9.1 1 0 2-.2 2.9-.2 2 0 3.9.2 5.8.2.7.3 1.5.3 2.2.3zM710.8 609.5v1.2c-1.7-.2-3.5-.2-5.2-.2-1.8.1-3.6.4-5.4.4-.9 0-1.8-.3-2.7-.4-.9 0-1.8 0-2.7.2-1.8.2-3.6.3-5.4.1-1.8-.1-3.6-.1-5.4-.1l-5.4-.1c-.9.1-1.8-.2-2.7-.2s-1.8.2-2.7.2c-1.8 0-3.6-.3-5.4-.2-7.2-.1-14.5 0-21.7.1l-5.4-.1c-.9 0-1.8-.1-2.7 0-.9 0-1.8.1-2.7.2h-2.7c-.9-.1-1.8 0-2.7 0-1.8.1-3.6.1-5.4.1-.5 0-.9-.4-.9-.8 0-.5.4-.9.8-.9 14.5.3 29-.6 43.5.1 1.8.1 3.6-.2 5.4-.2.9 0 1.8.2 2.7.2s1.8-.2 2.7-.1c3.6 0 7.2.1 10.9.1 1.8 0 3.6 0 5.4.2.9.1 1.8.1 2.7.1s1.8-.2 2.7-.2c1.8 0 3.6.2 5.4.2 1.5.2 3.3.2 5 .1zM710.8 622.8v1h-2.3c-2 .1-3.9.4-5.8.4-1 0-2-.3-2.9-.4-1 0-2 0-2.9.2-1.9.2-3.9.3-5.8.1-2-.1-3.9-.1-5.9-.1l-5.8-.1c-1 0-2-.2-2.9-.2-1 0-2 .2-2.9.2-2 0-3.9-.3-5.8-.2-7.8-.1-15.6 0-23.4.1l-5.9-.1c-1 0-2-.1-2.9 0-1 0-2 .1-2.9.2h-2.9c-1-.1-2 0-2.9 0-2 .1-3.9.1-5.9.2-.5 0-.9-.4-.9-.8 0-.5.4-.9.8-.9 15.6.3 31.2-.6 46.8.1 2 .1 3.9-.2 5.8-.2 1 0 2 .2 2.9.2 1 0 2-.2 2.9-.1 3.9 0 7.8.1 11.7.1 2-.1 3.9 0 5.8.2 1 .1 2 .1 2.9.1 1 0 2-.2 2.9-.2 2 0 3.9.2 5.8.3.9-.1 1.7-.1 2.4-.1zM710.8 635.8v1.2c-1.4.2-2.9.3-4.3.3-.9 0-1.9-.3-2.8-.4-.9 0-1.9 0-2.8.2-1.9.2-3.8.3-5.6.1-1.9-.1-3.8-.1-5.6-.1l-5.7-.1c-.9 0-1.9-.2-2.8-.2-.9 0-1.9.2-2.8.2-1.9 0-3.8-.3-5.6-.2-7.5-.1-15 0-22.6.1l-5.6-.1c-.9 0-1.9-.1-2.8 0s-1.9.1-2.8.2h-2.8c-.9-.1-1.9 0-2.8 0-1.9.1-3.8.1-5.6.1-.5 0-.9-.4-.9-.8 0-.5.4-.9.8-.9 15 .3 30.1-.6 45.1.1 1.9.1 3.8-.2 5.6-.2.9 0 1.9.2 2.8.2.9 0 1.9-.2 2.8-.1 3.8 0 7.5.1 11.3.1 1.9-.1 3.8 0 5.6.2.9.1 1.9.1 2.8.1.9 0 1.9-.2 2.8-.2 1.4.1 2.9.2 4.3.2zM710.8 648.5v1.2c-1.7-.2-3.5-.2-5.2-.2-1.8.1-3.6.4-5.4.4-.9 0-1.8-.3-2.7-.4-.9 0-1.8 0-2.7.2-1.8.2-3.6.3-5.4.1-1.8-.1-3.6-.1-5.4-.1l-5.4-.1c-.9.1-1.8-.2-2.7-.2s-1.8.2-2.7.2c-1.8 0-3.6-.3-5.4-.2-7.2-.1-14.5 0-21.7.1l-5.4-.1c-.9 0-1.8-.1-2.7 0-.9 0-1.8.1-2.7.2h-2.7c-.9-.1-1.8 0-2.7 0-1.8.1-3.6.1-5.4.1-.5 0-.9-.4-.9-.8 0-.5.4-.9.8-.9 14.5.3 29-.6 43.5.1 1.8.1 3.6-.2 5.4-.2.9 0 1.8.2 2.7.2s1.8-.2 2.7-.1c3.6 0 7.2.1 10.9.1 1.8 0 3.6 0 5.4.2.9.1 1.8.1 2.7.1s1.8-.2 2.7-.2c1.8 0 3.6.2 5.4.2 1.5.2 3.3.2 5 .1zM710.8 661.8v1h-2.3c-2 .1-3.9.4-5.8.4-1 0-2-.3-2.9-.4-1 0-2 0-2.9.2-1.9.2-3.9.3-5.8.1-2-.1-3.9-.1-5.9-.1l-5.8-.1c-1 0-2-.2-2.9-.2-1 0-2 .2-2.9.2-2 0-3.9-.3-5.8-.2-7.8-.1-15.6 0-23.4.1l-5.9-.1c-1 0-2-.1-2.9 0-1 0-2 .1-2.9.2h-2.9c-1-.1-2 0-2.9 0-2 .1-3.9.1-5.9.2-.5 0-.9-.4-.9-.8 0-.5.4-.9.8-.9 15.6.3 31.2-.6 46.8.1 2 .1 3.9-.2 5.8-.2 1 0 2 .2 2.9.2 1 0 2-.2 2.9-.1 3.9 0 7.8.1 11.7.1 2-.1 3.9 0 5.8.2 1 .1 2 .1 2.9.1 1 0 2-.2 2.9-.2 2 0 3.9.2 5.8.3.9-.1 1.7-.1 2.4-.1zM710.8 674.8v1.2c-1.4.2-2.9.3-4.3.3-.9 0-1.9-.3-2.8-.4-.9 0-1.9 0-2.8.2-1.9.2-3.8.3-5.6.1-1.9-.1-3.8-.1-5.6-.1l-5.7-.1c-.9 0-1.9-.2-2.8-.2-.9 0-1.9.2-2.8.2-1.9 0-3.8-.3-5.6-.2-7.5-.1-15 0-22.6.1l-5.6-.1c-.9 0-1.9-.1-2.8 0s-1.9.1-2.8.2h-2.8c-.9-.1-1.9 0-2.8 0-1.9.1-3.8.1-5.6.1-.5 0-.9-.4-.9-.8 0-.5.4-.9.8-.9 15 .3 30.1-.6 45.1.1 1.9.1 3.8-.2 5.6-.2.9 0 1.9.2 2.8.2.9 0 1.9-.2 2.8-.1 3.8 0 7.5.1 11.3.1 1.9-.1 3.8 0 5.6.2.9.1 1.9.1 2.8.1.9 0 1.9-.2 2.8-.2 1.4.1 2.9.2 4.3.2z"/><path fill="#D8E1EC" d="M710.8 507v2.3c0-.2 0-.3-.1-.5 0-.6 0-1.2.1-1.8zM706.6 519.9c-2.4-.2-4.9-.7-7.2-1.4-.6-.1-1.1-.3-1.7-.4-1.5-.3-2.9-.9-4.1-1.9-.5-.4-1-.8-1.4-1.2.2-.2.5-.4.7-.6.6-.6 1.2-1.1 1.7-1.7 2-2.1 3.6-4.5 4.7-7.1.2-.4.3-.8.4-1.2.1-.2.1-.3.2-.5.5-1.4.9-2.8 1.3-4.2.4-1.6.6-3.3.4-5-.1-.8-.2-1.5-.5-2.2-.1-.5-.3-.9-.5-1.4s-.5-.9-.8-1.3-.5-.8-.8-1.1c-.2-.3-.5-.5-.7-.8-.7-.6-1.4-1.2-2.2-1.6s-1.6-.8-2.5-.9c-.9-.2-1.8-.3-2.8-.2-1.9.3-3.6 1.1-5 2.4-.6.6-1.2 1.3-1.6 2.1-.2.4-.3.7-.5 1-.2.4-.3.9-.5 1.4 0 .1-.1.2-.1.4-.2.7-.5 1.4-.8 2-.4.8-.7 1.6-.8 2.5v.3c0 .2-.1.5-.1.7 0 .3 0 .6-.1.9v1.9c0 1 .2 2 .4 2.9l.3 1.5c.2.6.4 1.3.6 1.9.3.8.6 1.6 1 2.4.3.8.7 1.6 1.2 2.3.4.7.9 1.5 1.4 2.2l.8 1 .7.7c-.6.4-1.1.9-1.7 1.3 0 0-.1.1-.2.1-.6.3-1.2.7-1.9.9l-1 .4c-.3.2-.6.3-1 .4h-.1c-1.4.5-2.6 1.4-4.1 1.5-.4.1-.7.1-1.1.2h-1.1c-.7 0-1.4 0-2.1-.1l-2.1-.3c-.7-.2-1.3-.4-2-.6l-.3-.1c-.9-.3-1.9.3-2.1 1.2-.3.9.3 1.9 1.2 2.1h.1c.8.2 1.7.5 2.5.6s1.7.2 2.6.3c.9 0 1.7 0 2.6-.1l1.3-.2 1.2-.3 1.2-.3 1.2-.3c.8-.2 1.6-.4 2.4-.8 1.5-.8 2.8-1.7 4.1-2.7.1-.1.2-.1.2-.2l1.8-1.2.4-.3c.1.1.2.2.4.2.8.4 1.6.7 2.4 1 .3.1.7.2 1 .4.5.2.9.4 1.3.6.8.4 1.5.9 2.2 1.4 1.4.9 3.1 1.4 4.9 1.4.8 0 1.7 0 2.5-.1.4 0 .8-.1 1.2-.1s.8 0 1.2-.1l4.2-.3v-2.1c-1.6.3-3 .4-4.4.4zm-21.1-14.8c-.1-.5-.3-.9-.3-1.4-.4-1.7-.5-3.4-.4-5.1 0-.5.1-1 .1-1.4 0-.2.1-.4.1-.6 0-.1 0-.3.1-.4.1-.4 0-.7.1-1.1 0-.7.3-1.4.7-2 .2-.3.3-.5.5-.8s.5-.6.8-1c.2-.2.3-.5.5-.7.2-.3.4-.6.7-.9.4-.5.8-1 1.3-1.4s1-.6 1.6-.7c1.2-.2 2.5.1 3.6.8.4.2.7.5 1 .7.6.5 1.1 1.1 1.5 1.7 0 .1.1.1.1.2s.1.1.1.2c.2.3.3.6.5 1 .3.9.5 1.8.6 2.7v2s0 1.4-.1 2.1-.2 1.4-.5 2.1-.6 1.4-.9 2c-.1.2-.3.5-.4.7-.3.5-.7 1.1-1 1.6l-.9 1.5c-.7 1.3-1.6 2.5-2.5 3.7-.4.6-.9 1.2-1.4 1.8-.2.2-.4.5-.6.7-2.4-2.3-4.1-5-4.9-8z"/><path fill="#C6D0E2" d="M618.7 410.5c-.3-3-.1-6.1.7-9 .4-1.5.9-2.9 1.5-4.4.7-1.4 1.5-2.8 2.5-4 .5-.7 1.1-1.3 1.7-1.8.7-.6 1.6-1.1 2.5-1.3 1.1-.3 2.2-.2 3.2.4.2.1.5.2.6.4.2.1.4.3.6.5.3.3.6.7.9 1 1.9 2.9 2.3 5.9 2.5 8.8s.2 5.8.5 8.7c.2 1.4.4 2.9.5 4.4s.1 2.9-.1 4.4c-.4 3-1.2 5.9-2.4 8.7-.7 1.6-1.7 2.9-3 4-1.6 1.2-3.7 1.5-5.6.8-.9-.3-1.4-1.2-1.1-2.1.3-.9 1.2-1.4 2.1-1.1l.3.1c.8.3 1.7.1 2.4-.4.8-.7 1.4-1.6 1.8-2.7 1-2.5 1.6-5.1 2.1-7.7.2-1.4.3-2.8.3-4.2v-4.2c-.1-2.8-.4-5.5-1-8.3-.1-.7-.3-1.3-.4-2-.2-.6-.3-1.3-.5-1.9-.2-1.2-.6-2.4-1-3.5-.1-.2-.2-.5-.4-.7l-.2-.2-.2-.2c-.3-.2-.7-.2-1-.1-1 .5-1.8 1.3-2.4 2.2-.6 1.1-1.9 1.9-2.3 3.2-.5 1.3-.9 2.6-1.1 4-.2 1.4-.4 2.7-.5 4.1s-.1 2.7-.1 4.1c.1.9-.6 1.8-1.6 1.8s-1.8-.6-1.8-1.6v-.2z"/><path fill="#C6D0E2" d="M633.4 410.5c-.3-3-.1-6.1.7-9 .4-1.5.9-2.9 1.5-4.4.7-1.4 1.5-2.8 2.5-4 .5-.7 1.1-1.3 1.7-1.8.7-.6 1.6-1.1 2.5-1.3 1.1-.3 2.2-.2 3.2.4.2.1.5.2.6.4.2.1.4.3.6.5.3.3.6.7.9 1 1.9 2.9 2.3 5.9 2.5 8.8s.2 5.8.5 8.7c.2 1.4.4 2.9.5 4.4s.1 2.9-.1 4.4c-.4 3-1.2 5.9-2.4 8.7-.7 1.6-1.7 2.9-3 4-1.6 1.2-3.7 1.5-5.6.8-.9-.3-1.4-1.2-1.1-2.1.3-.9 1.2-1.4 2.1-1.1l.3.1c.8.3 1.7.1 2.4-.4.8-.7 1.4-1.6 1.8-2.7 1-2.5 1.6-5.1 2.1-7.7.2-1.4.3-2.8.3-4.2v-4.2c-.1-2.8-.4-5.5-1-8.3-.1-.7-.3-1.3-.4-2-.2-.6-.3-1.3-.5-1.9-.2-1.2-.6-2.4-1-3.5-.1-.2-.2-.5-.4-.7l-.2-.2-.2-.2c-.3-.2-.7-.2-1-.1-1 .5-1.8 1.3-2.4 2.2-.6 1.1-1.9 1.9-2.3 3.2-.5 1.3-.9 2.6-1.1 4-.2 1.4-.4 2.7-.5 4.1s-.1 2.7-.1 4.1c.1.9-.6 1.8-1.6 1.8s-1.8-.6-1.8-1.6v-.2zM662.8 410.5c-.3-1.9-.3-3.9 0-5.9.1-1 .4-1.9.6-2.9.2-1 .8-1.8 1.1-2.8.7-1.9 1.7-3.6 2.8-5.3.6-.9 1.3-1.7 2.1-2.3 1-.8 2.2-1.2 3.4-1.1.6 0 1.3.2 1.8.6.3.1.5.3.7.5l.6.6c.6.8 1.2 1.7 1.7 2.5.2.4.5.9.8 1.3l.7 1.3c.4.9.7 1.8.8 2.8.2 1.9.2 3.8.3 5.7.1 1.9.2 3.8.5 5.6.1.9-.6 1.8-1.5 1.9s-1.8-.6-1.9-1.5v-.4c-.2-3.7-.7-7.2-.8-10.8 0-.4-.1-.9-.2-1.3l-.3-1.3-.4-1.2c-.2-.4-.3-.8-.5-1.1-.2-.3-.4-.7-.6-1-.2-.3-.4-.5-.7-.7-.1-.1-.2-.2-.3-.2s-.2-.1-.3-.1h-.4c-1.1.6-2 1.2-2.9 2l-.9.9c-.2.4-.4.7-.6 1.1-.1.4-.3.8-.4 1.2s-.2.8-.4 1.2c-.2.9-1.1 1.5-1.2 2.4-.1.4-.2.9-.2 1.3s-.1.9-.1 1.3c0 1.8-.1 3.6 0 5.3.1.9-.7 1.7-1.6 1.8-.9 0-1.6-.5-1.8-1.4h.1z"/><path fill="#C6D0E2" d="M648.1 410.5c-.3-3-.1-6.1.7-9 .4-1.5.9-2.9 1.5-4.4.7-1.4 1.5-2.8 2.5-4 .5-.7 1.1-1.3 1.7-1.8.7-.6 1.6-1.1 2.5-1.3 1.1-.3 2.2-.2 3.2.4.2.1.5.2.6.4.2.1.4.3.6.5.3.3.6.7.9 1 1.9 2.9 2.3 5.9 2.5 8.8s.2 5.8.5 8.7c.2 1.4.4 2.9.5 4.4s.1 2.9-.1 4.4c-.4 3-1.2 5.9-2.4 8.7-.7 1.6-1.7 2.9-3 4-1.6 1.2-3.7 1.5-5.6.8-.9-.3-1.4-1.2-1.1-2.1.3-.9 1.2-1.4 2.1-1.1l.3.1c.8.3 1.7.1 2.4-.4.8-.7 1.4-1.6 1.8-2.7 1-2.5 1.6-5.1 2.1-7.7.2-1.4.3-2.8.3-4.2v-4.2c-.1-2.8-.4-5.5-1-8.3-.1-.7-.3-1.3-.4-2-.2-.6-.3-1.3-.5-1.9-.2-1.2-.6-2.4-1-3.5-.1-.2-.2-.5-.4-.7l-.2-.2-.2-.2c-.3-.2-.7-.2-1-.1-1 .5-1.8 1.3-2.4 2.2-.6 1.1-1.9 1.9-2.3 3.2-.5 1.3-.9 2.6-1.1 4-.2 1.4-.4 2.7-.5 4.1s-.1 2.7-.1 4.1c.1.9-.6 1.8-1.6 1.8s-1.8-.6-1.8-1.6v-.2zM677.5 410.5c-.3-1.9-.3-3.9 0-5.9.1-1 .4-1.9.6-2.9.2-1 .8-1.8 1.1-2.8.7-1.9 1.7-3.6 2.8-5.3.6-.9 1.3-1.7 2.1-2.3 1-.8 2.2-1.2 3.4-1.1.6 0 1.3.2 1.8.6.3.1.5.3.7.5l.6.6c.6.8 1.2 1.7 1.7 2.5.2.4.5.9.8 1.3l.7 1.3c.4.9.7 1.8.8 2.8.2 1.9.2 3.8.3 5.7.1 1.9.2 3.8.5 5.6.1.9-.6 1.8-1.5 1.9s-1.8-.6-1.9-1.5v-.4c-.2-3.7-.7-7.2-.8-10.8 0-.4-.1-.9-.2-1.3l-.3-1.3-.4-1.2c-.2-.4-.3-.8-.5-1.1-.2-.3-.4-.7-.6-1-.2-.3-.4-.5-.7-.7-.1-.1-.2-.2-.3-.2s-.2-.1-.3-.1h-.4c-1.1.6-2 1.2-2.9 2l-.9.9c-.2.4-.4.7-.6 1.1-.1.4-.3.8-.4 1.2s-.2.8-.4 1.2c-.2.9-1.1 1.5-1.2 2.4-.1.4-.2.9-.2 1.3s-.1.9-.1 1.3c0 1.8-.1 3.6 0 5.3 0 .9-.7 1.7-1.6 1.8-.8 0-1.6-.5-1.7-1.4z"/><path fill="#A7B3CB" d="M710.8 393.9v8c0 .1 0 .2-.1.4-.2 1.4-.4 2.7-.5 4.1-.1.8-.1 1.5-.1 2.3V411.1c-.3.9-1.3 1.4-2.2 1.1-.6-.2-1-.7-1.1-1.3V410.6c-.1-.6-.1-1.2-.1-1.8 0-2.4.2-4.9.8-7.2.3-1.4.8-2.7 1.3-4 0-.1.1-.2.1-.3.5-1.3 1.2-2.4 1.9-3.4z"/><path fill="#C6D0E2" d="M680.7 411.3c.3 1 .4 2.1.4 3.1 0 .5-.1 1-.1 1.6s-.3 1-.4 1.5c-.3 1-.4 2-.6 3.1l-.3 1.5-.6 1.5c-.5.9-.9 1.9-1.1 3 0 .6-.1 1.2-.2 1.7-.1.6-.4 1.1-.8 1.6-.9.9-2.1 1.6-3.3 2-1.3.4-2.7.5-4 .2-.9-.2-1.5-1-1.3-2s1-1.5 2-1.3l.6.1c.6.1 1.2.1 1.7-.2.6-.3 1.2-.6 1.7-1 .6-.6 1-1.4 1.2-2.2.3-.9.4-1.8.5-2.7 0-1 .3-1.9 1-2.7.7-.9.3-1.9.4-2.9-.1-.5.6-.9.6-1.4s0-1-.1-1.5c-.2-1-.3-2-.3-3-.1-.9.6-1.7 1.5-1.8.7 0 1.4.4 1.7 1.1l-.2.7zM692.2 410.5c-.3-1.9-.3-3.9 0-5.9.1-1 .4-1.9.6-2.9.2-1 .8-1.8 1.1-2.8.7-1.9 1.7-3.6 2.8-5.3.6-.9 1.3-1.7 2.1-2.3 1-.8 2.2-1.2 3.4-1.1.6 0 1.3.2 1.8.6.3.1.5.3.7.5l.6.6c.6.8 1.2 1.7 1.7 2.5.2.4.5.9.8 1.3l.7 1.3c.4.9.7 1.8.8 2.8.2 1.9.2 3.8.3 5.7.1 1.9.2 3.8.5 5.6.1.9-.6 1.8-1.5 1.9s-1.8-.6-1.9-1.5v-.4c-.2-3.7-.7-7.2-.8-10.8 0-.4-.1-.9-.2-1.3l-.3-1.3-.4-1.2c-.2-.4-.3-.8-.5-1.1-.2-.3-.4-.7-.6-1-.2-.3-.4-.5-.7-.7-.1-.1-.2-.2-.3-.2s-.2-.1-.3-.1h-.4c-1.1.6-2 1.2-2.9 2l-.9.9c-.2.4-.4.7-.6 1.1-.1.4-.3.8-.4 1.2s-.2.8-.4 1.2c-.2.9-1.1 1.5-1.2 2.4-.1.4-.2.9-.2 1.3s-.1.9-.1 1.3c0 1.8-.1 3.6 0 5.3 0 .9-.7 1.7-1.6 1.8-.8 0-1.6-.5-1.7-1.4z"/><path fill="#A7B3CB" d="M710.2 411.3c.3 1 .4 2.1.4 3.1 0 .5-.1 1-.1 1.6s-.3 1-.4 1.5c-.3 1-.4 2-.6 3.1l-.3 1.5-.6 1.5c-.5.9-.9 1.9-1.1 3 0 .6-.1 1.2-.2 1.7-.1.6-.4 1.1-.8 1.6-.9.9-2.1 1.6-3.3 2-1.3.4-2.7.5-4 .2-.9-.2-1.5-1-1.3-2s1-1.5 2-1.3l.6.1c.6.1 1.2.1 1.7-.2.6-.3 1.2-.6 1.7-1 .6-.6 1-1.4 1.2-2.2.3-.9.4-1.8.5-2.7 0-1 .3-1.9 1-2.7.7-.9.3-1.9.4-2.9-.1-.5.6-.9.6-1.4s0-1-.1-1.5c-.2-1-.3-2-.3-3-.1-.9.6-1.7 1.5-1.8.7 0 1.4.4 1.7 1.1l-.2.7zM695.5 411.3c.3 1 .4 2.1.4 3.1 0 .5-.1 1-.1 1.6s-.3 1-.4 1.5c-.3 1-.4 2-.6 3.1l-.3 1.5-.6 1.5c-.5.9-.9 1.9-1.1 3 0 .6-.1 1.2-.2 1.7-.1.6-.4 1.1-.8 1.6-.9.9-2.1 1.6-3.3 2-1.3.4-2.7.5-4 .2-.9-.2-1.5-1-1.3-2s1-1.5 2-1.3l.6.1c.6.1 1.2.1 1.7-.2.6-.3 1.2-.6 1.7-1 .6-.6 1-1.4 1.2-2.2.3-.9.4-1.8.5-2.7 0-1 .3-1.9 1-2.7.7-.9.3-1.9.4-2.9-.1-.5.6-.9.6-1.4s0-1-.1-1.5c-.2-1-.3-2-.3-3-.1-.9.6-1.7 1.5-1.8.7 0 1.4.4 1.7 1.1l-.2.7z"/><path fill="#D8E1EC" d="M665.5 478.8h-3.9c-.4.5-.8 1-1.2 1.4s-.8.9-1.2 1.4-.8.9-1.2 1.4c-1.5 2-2.7 4.1-3.6 6.4-.1.4-.3.7-.4 1h3.6c.9-2 1.8-3.8 2.9-5.7 1-2.1 2.4-3.9 4.2-5.3.4-.2.7-.4.8-.6zm-8.4 13.1c.2-.4.3-.9.5-1.3 0-.1.1-.2.1-.2.9-2 1.8-3.8 2.9-5.7 1-2.1 2.4-3.9 4.2-5.3.3-.2.5-.4.8-.6.5-.4 1-.9 1.5-1.3.9-.8 1.9-1.6 2.9-2.4.9-.6 1.9-1.2 3-1.6.5-.2 1-.4 1.6-.6s1.1-.3 1.6-.5c2.1-.6 4-2.2 6.4-2.1 2.3 0 4.4-.8 6.7-.6.6 0 1.1.1 1.7.2.5.1 1.1.2 1.7.3 1.1.2 2.2.3 3.3.4 2.2.1 4.4.7 6.5 1.6.2.1.5.2.8.3.3.1.5.2.8.3.5.2 1.1.4 1.6.6 1 .5 2.1.8 3.1 1.3.7.3 1.5.7 2.2 1.1v-3.3c-.2-.1-.5-.3-.7-.4-2-1.4-4.2-2.5-6.5-3.2-2.4-.5-4.7-1.3-7-1.9l-1.8-.3c-.6-.1-1.2-.2-1.8-.2-1.2.1-2.5.2-3.7.3-.6.1-1.2.1-1.8 0-.6 0-1.2-.1-1.8-.1-1.2-.1-2.5.1-3.6.6s-2.4.7-3.6.8c-.6 0-1.2.1-1.9.2-.6.2-1.2.4-1.7.7-1.1.6-2.2 1.2-3.2 1.9-1.1.6-2 1.4-3.1 2l-3.1 1.9c-.5.4-1 .8-1.4 1.2-.5.4-.9.9-1.2 1.3-.4.5-.7 1-1.1 1.4-.4.5-.8 1-1.2 1.4s-.8.9-1.2 1.4-.8.9-1.2 1.4c-1.5 2-2.7 4.1-3.6 6.4-.1.4-.3.7-.4 1-.2.5-.4 1.1-.5 1.6-1 3.8-1.5 7.8-1.5 11.8v.1c.1.5.2 1 .2 1.5v.3c.1.6.3 1.2.4 1.8.2 1.2.4 2.4.7 3.6.1.6.3 1.3.5 1.9.1.5.3 1 .4 1.5.2.5.3 1 .5 1.5.1.3.2.6.4 1 .1.4.3.7.4 1.1.1.2.2.3.3.5 1 2 2.3 3.9 3.8 5.5.8.9 1.7 1.8 2.4 2.7.8.9 1.6 1.8 2.5 2.6.4.4.8.7 1.2 1 .6.5 1.3 1 2 1.4.9.6 1.9 1.2 3 1.6 2.2 1 4.6 1.7 7 2.1 1.2.2 2.4.4 3.5.7 1.2.3 2.3.4 3.5.5s2.4-.3 3.6-.2c.6 0 1.2.1 1.8.2.6.1 1.2.2 1.8.1 4.8-.2 9.6-1.1 14.3-2.4.6-.1 1.2-.3 1.8-.5s1.2-.4 1.7-.6c.3-.1.7-.3 1-.5v-3.8c-.3.1-.6.2-.8.3-.5.2-1.1.4-1.6.6-.8.3-1.5.6-2.3.9-.3.1-.5.2-.8.3-1.1.4-2.2.7-3.3 1l-.7.2c-.9.2-1.7.4-2.6.5-2.2.4-4.5.6-6.8.7-.6 0-1.1.1-1.7.2-.6.2-1.1.2-1.7.2-1.1-.1-2.3-.5-3.4-.5-1.1-.1-2.3 0-3.4 0-2.4 0-4.9-.4-7.2-1.2-.8-.3-1.7-.7-2.4-1.1-.3-.2-.6-.3-.9-.5-1.5-1-2.9-2.1-4.3-3.3-.9-.7-1.7-1.4-2.5-2.1-.8-.8-1.5-1.7-2.1-2.6l-.9-1.4c-.2-.5-.5-1-.8-1.5-.2-.3-.4-.5-.5-.8l-.9-1.5c-.1-.2-.2-.3-.3-.5-.4-.7-.8-1.4-1.2-2.2-.2-.4-.5-.9-.7-1.3s-.4-.9-.6-1.3c-.2-.4-.3-.8-.5-1.2-.2-.5-.3-1.1-.5-1.6s-.3-1.1-.3-1.6c-.1-.5-.1-1.1-.1-1.6s.1-1 .1-1.5v-.2c0-.6.1-1.1 0-1.7 0-.6-.1-1.1-.1-1.7 0-1.1.2-2.2.4-3.3.2-2.4.8-4 1.4-5.7zM710.8 554.2v12c-.6-.9-1-1.9-1.3-2.9-.2-.6-.2-1.2-.2-1.9 0-.1 0-.2.1-.3v.1l-1.2 1.5c-.3.5-.6 1.1-1 1.7-.2.3-.4.5-.6.7-.2.3-.5.5-.8.7-1.1 1-2.4 1.8-3.7 2.4-.9.3-1.8.4-2.7.3-.6-.1-1.1-.4-1.6-.7l-.6-.6c-.2-.2-.3-.5-.4-.7-.4-.8-.1-1.9.8-2.3.8-.4 1.8-.1 2.3.7v.1l.1.2c.1.2 0 .2.2.2.3.1.7 0 1 0 1-.2 1.9-.7 2.6-1.5.1-.2.3-.5.5-.7s.4-.5.7-.7c.4-.4 1-.8 1.4-1.2.5-.4.9-.9 1.2-1.4s.7-1 1-1.5c0-.1.1-.2.2-.2.2-.3.4-.7.6-1 .4-1.2.9-2.1 1.4-3zM696.3 588.8c.5.1 1 .3 1.6.4.5.1 1 .2 1.6.1 1 0 2.1-.2 3.1-.3s2.1.4 3.1.2c1 0 2.1-.2 3.1-.4.7-.1 1.3-.2 2-.2V586c-.7 0-1.3-.1-2-.2-1-.1-2.1-.3-3.1-.3-1-.1-2.1.3-3.1.2-1 0-2.1-.3-3.1-.4-.5 0-1 0-1.6.1-.5.1-1 .2-1.6.3-1 .2-2.1-.3-3.1-.4-.5 0-1.1.1-1.6.2s-1.1.1-1.6-.1h-.2c-.5-.1-1 .3-1.1.8l-.3 1.7c-.3 1.7 1 2.8 1.5 4.3.3.7.6 1.4.7 2.2 0 .5.1 1 .1 1.5 0 .3.1.5.2.8.1.3.2.7.4 1 .2.4.3.8.5 1.2.2.8.3 1.6.2 2.3 0 .8.1 1.6.2 2.4 0 .4.1.8.2 1.2.1.8.4 1.5.9 2.2.4.2.8.3 1.2.3H695.2l.7-.1 1.5-.2c1-.2 2-.4 2.9-.5 2 .5 3.9-.9 5.9-.7 1.6 0 3.1.1 4.7 0v-3.5c-1.6.3-3.3.7-4.9 1-1.9.6-4-.5-5.9.4-1 .1-2 .1-3 .1h-1.4c0 .1 0 .2.1.3-.2 0-.3 0-.4.1-.2-.2-.5-.4-.8-.4h-.1 1.3c0-.3-.1-.5-.2-.8-.2-.8-.4-1.5-.6-2.3-.3-.7-.5-1.5-.6-2.3v-.7c0-.6 0-1.1-.1-1.7v-.2c-.2-.7-.4-1.5-.7-2.2-.3-.8-.4-1.6-.6-2.3-.2-.9-.3-1.8-.5-2.7-.7-.2-1.5-.2-2.2-.1l1.2-1.8c.5.5.8 1.2 1 1.9.3.1.6.1.9.1.8.1 1.9.1 2.9.1zM633.8 598.3c.4.1.9.3 1.3.4.4.2.9.3 1.4.3.2-.1.5-.2.7-.2s.5.1.7.2c.5.1 1 .1 1.4-.1.4-.2.9-.5 1.3-.7.4-.3.8-.5 1.2-.8.5-.2.9-.3 1.4-.3.2-.1.4-.2.6-.4l.5-.6c.3-.4.7-.6 1.2-.8.4-.2.9-.4 1.3-.7.4-.3.7-.6 1-1 .1-.2.3-.4.3-.6 0-.2.1-.5.2-.7.1-.2.2-.4.5-.5.2-.1.5-.3.6-.5s-.1-.6 0-.8l.3-.6c.2-.4.3-.9.5-1.3.1-.4.3-.9.3-1.4l2.2 1.3c-.2.2-.4.3-.6.5l-.6.6c-.3.2-.6.3-.8.5s-.3.6-.2.9c.2.7-.2 1.1-.5 1.8-.3.6-.2 1.3.1 1.9.3.6.6 1.1.9 1.6.3.5.7 1 1.2 1.4.4.5 1 .8 1.6.9.6 0 1.3-.1 1.9-.2.6-.1 1.1-.3 1.7-.5.2-.1.5-.2.8-.3.2-.1.5-.2.8-.3.3 0 .6-.1.8-.3l.6-.6c.3-.5.5-1.2.9-1.9.2-.4.5-.7.8-.9.4-.2.8-.5 1.1-.8.4-.4.8-.7 1.3-.9.6-.3 1.3-.4 1.9-.2.5.2 1 .5 1.4 1 .4.3.8.6 1.2 1 .5.4.8 1.1.7 1.8s-.4 1.4-.8 2l-.9-2.2c.8-.7 1.6.1 2.4.1.4.1.8.1 1.2.1.4-.1.8-.2 1.2-.2s.8.3 1.2.3.8-.1 1.2-.2c.4-.1.8-.2 1.2-.2s.8-.1 1.2 0c.9.1 1.7.9 1.6 1.8-.1.9-.7 1.6-1.6 1.6h-1.3s-.8-.1-1.2-.2c-.4-.2-.8-.2-1.2-.2-.4.2-.8.3-1.2.4-.4 0-.8-.1-1.2-.2-.4-.1-.8-.1-1.2.1-.4.1-.8.2-1.2.4-.2.1-.4.1-.6 0-.2-.1-.4-.3-.6-.4l-2.6-1.8c-.4-.3-.5-.9-.2-1.3s.9-.5 1.3-.2c.1.1.2.2.3.4.1.1.1.1.1.2l-.1.1-.1.1c-.2.2 0 .3 0 .1.1-.2 0-.4-.2-.5-.2 0-.4.1-.5.2-.1.1-.1 0-.1-.1-.2-.1-.4-.1-.6 0-.2.1-.4.3-.5.6s-.3.5-.6.7c-1.3 1-2.4 2.1-3.3 3.5-1.4 1.2-3.3 1.6-5.1 1.2-.9-.2-1.7-.6-2.3-1.1-.3-.2-.7-.4-1.1-.5-.4-.1-.8-.2-1.2-.4-.8-.4-1.5-1-2.1-1.7-.3-.4-.5-.8-.7-1.2s-.2-.9-.2-1.3c.1-.9 0-1.7-.4-2.5-.2-.4-.3-.9-.4-1.4 0-.2 0-.5.1-.7s.3-.4.5-.5.4-.3.6-.5c.1-.2.2-.4.2-.6 0-.5 0-1 .1-1.5.2-.5.5-.8.9-1.1s.8-.6 1.2-.8l.5-.3c.9-.5 2-.2 2.5.7.2.4.3.9.2 1.4-.2.6-.3 1.2-.4 1.8-.2.6-.3 1.2-.5 1.7l-.4.8c-.1.3-.6.4-.7.6-.2.3-.2.6-.2.9 0 .3-.2.6-.4.8s-.5.4-.7.5l-.6.6-1.2 1.2-1.2 1.2c-.4.4-.9.7-1.3 1-.5.2-1 .5-1.4.9s-.9.8-1.3 1.1c-.5.2-1.1.4-1.7.5-.6.1-1.2.1-1.7.2-.6 0-1.2.1-1.7.4l-.9.3c-.3 0-.6-.1-.9-.1-.6-.1-1.2 0-1.8 0-.6-.1-1.2-.1-1.8-.2-.9-.2-1.6-1-1.4-2 .2-.9 1-1.6 2-1.4h.1l-.2-.2z"/><g fill="#FFF"><path d="M37.6 573.5c-.2.2-.3.5-.5.7l-.9 1.2s-.1.1-.1.2c-2.3 3.3-4.9 6.4-7.6 9.3-1.1 1.2-2.2 2.3-3.4 3.4-1 1-2.1 2-3.1 2.9-6.6 5.8-14.1 10.6-22.1 14.3V455.8c2.5 1 5 2 7.4 3.2.6.3 1.1.6 1.7.9.8.4 1.6.9 2.4 1.3 4 2.3 7.8 4.9 11.3 7.9 37 31.2 35.5 73.7 14.9 104.4z"/><path d="M53.1 522.2c-.1-1.3-.3-2.7-.4-4-.2-1.3-.5-2.7-.7-4-.3-1.3-.6-2.6-.8-4l-1.1-3.9c-1.6-5.2-3.8-10.2-6.5-14.9-.7-1.2-1.4-2.3-2.2-3.4-.9-1-1.7-2.1-2.4-3.3-.8-1.1-1.5-2.2-2.3-3.4-.8-1.1-1.6-2.2-2.5-3.2-1.8-2-3.7-3.9-5.8-5.7-.5-.4-1-.9-1.5-1.4s-1-.9-1.5-1.3c-1-.9-2-1.8-3.1-2.6-2.8-2.2-5.7-4.3-8.8-6.2-.7-.5-1.5-.9-2.2-1.4-.5-.3-1.1-.6-1.6-.9-.3-.2-.6-.3-.9-.5-2.4-1.3-4.8-2.5-7.3-3.5-.5-.2-1.1-.4-1.6-.6v3.1c2 .8 3.9 1.6 5.8 2.5.6.3 1.1.5 1.7.8.8.4 1.6.8 2.4 1.3 3.9 2.1 7.6 4.6 11 7.5 4.1 3.3 7.6 7.3 11 11.2l1.3 1.5 1.3 1.4 1.3 1.5 1.2 1.5c1.6 2.1 2.5 4.6 3.9 6.8 2.6 4.5 4.7 9.3 6.2 14.3l1.1 3.8c.3 1.3.6 2.5.8 3.8.5 2.6.8 5.1.9 7.7.1 2.6.1 5.2 0 7.8v1.9c0 .7-.1 1.3-.1 1.9 0 1.3-.1 2.6-.1 3.9-.1 2.6-.4 5.2-1.1 7.8-.4 1.3-.9 2.5-1.4 3.7-.2.6-.5 1.2-.8 1.8-.2.6-.5 1.2-.7 1.8-.5 1.2-.9 2.5-1.3 3.7-.5 1.2-.9 2.5-1.4 3.7-.9 2.5-2 4.9-3.2 7.2-.6 1.2-1.3 2.3-2 3.4-.4.7-.9 1.3-1.3 2-.2.2-.3.5-.5.7-.1.2-.3.4-.4.6-.2.3-.4.5-.6.8-.6.8-1.2 1.5-1.9 2.3-.3.3-.5.6-.8 1-.6.7-1.2 1.3-1.8 2-.9 1.1-1.9 2.1-2.8 3.1-1 1.1-2.1 2.2-3.2 3.3-5.4 5.3-11.3 10-17.7 14-2.2 1.4-4.5 2.6-6.9 3.7v1.7l.6-.3c2.5-1.1 4.8-2.3 7.2-3.6 4.7-2.6 9.2-5.6 13.3-9.1 0 0 .1 0 .1-.1 1-.9 2-1.7 3-2.6l.1-.1c.9-.9 1.9-1.7 2.8-2.7.5-.5 1-1 1.4-1.5 1.4-1.4 2.7-2.9 4-4.5.8-1 1.7-2.1 2.5-3.2l1.2-1.6.7-1 .1-.2.3-.5.6-.9.5-.7.1-.1 1.1-1.7 2.1-3.4c2.9-4.5 5.3-9.4 7.2-14.4.4-1.3.8-2.6 1.1-3.9l.9-3.9c.6-2.6 1.2-5.2 1.8-7.9.9-5.5 1.1-11 .6-16.4z"/></g><g fill="#F4F6F8"><path d="M28.9 563.1c-2 3.4-4.2 6.7-6.8 9.7-6.3 7.4-13.8 13.5-22.3 18.2V469.7c4.8 2.3 9.2 5.3 13.3 8.7 25 21.1 31.4 57.2 15.8 84.7z"/><path d="M38.6 527.3l-.2-3.4c-.8-9-3.4-17.8-7.5-25.9-.5-1-1-2-1.6-3s-1.4-1.8-2-2.8c-1.3-1.8-2.4-3.8-3.7-5.7-1.4-1.8-2.9-3.5-4.6-5l-2.5-2.3-2.6-2.2c-3.5-2.9-7.2-5.5-11.1-7.8-1-.5-1.9-1.1-2.9-1.6v3.1c4.5 2.2 8.6 5 12.4 8.3 3.4 2.8 6 6.3 8.8 9.6l2.1 2.5c.4.4.7.8 1 1.3.3.4.6.9.9 1.4.6.9.9 2 1.4 2.9.5 1 1 1.9 1.5 2.9 2 3.8 3.5 7.9 4.8 12l.8 3.1c.2 1 .5 2.1.7 3.2l.5 3.2.3 3.2.1 3.2c0 1.1 0 2.1.1 3.2 0 2.1.2 4.3.3 6.5 0 2.2-.3 4.3-1 6.4-.4 1-.7 2-1.1 3s-.6 2.1-.9 3.1c-1.1 4.1-2.2 8.4-4.3 12.2-2 3.9-5 7.1-7.8 10.4-5.7 6.6-12.3 12.3-19.7 17-.3.2-.6.3-.9.5v1.9c.6-.3 1.1-.6 1.7-.9 2-1.1 3.9-2.2 5.7-3.5 1.9-1.2 3.6-2.6 5.4-4 3.5-2.8 6.7-5.9 9.6-9.3 1.4-1.7 2.8-3.5 4-5.4.7-.9 1.2-1.9 1.8-2.8.4-.7.8-1.3 1.2-2 .2-.3.3-.6.5-.9 2.3-3.9 4.2-7.9 5.7-12.2.7-2.1 1.2-4.3 1.5-6.6.3-2.2.7-4.4 1-6.6.2-1.1.3-2.2.5-3.3.1-1.1.2-2.2.2-3.4 0-1.2 0-2.3-.1-3.5z"/></g><path fill="#D8E1EC" d="M2.4 493.4c-.5.5-1.2.6-1.8.3l-.2-.1c-.2-.1-.4-.3-.5-.5 0-.1-.1-.3-.1-.4v-3.4h.1c.1 0 .1.1.1.1.1.3.1.6.3.8.1.1.3 0 .4 0s.2.1.2.3c0 .2.1.3.2.3h.5c.3 0 .5.1.7.3.8.6.7 1.6.1 2.3z"/><g fill="#FFF"><path d="M60.8 621.1c-3.3 0-7.2-1.6-12.8-5.5-2.3-1.6-25.8-22.3-25.6-22.5 2.6-3.8 4.1-8.4 6.8-12.2s2-9 6.4-7.4c2.4.9 9.8 5.2 11.5 7.1 6.5 7.3 31.4 20.5 25.2 32.7-1.9 3.6-7.3 7.7-11.5 7.8z"/><path d="M74.6 608.4c-.1-.4-.3-.8-.4-1.2l-.6-2.4c-.4-1.7-1.7-2.8-2.3-4.2-.3-.7-.7-1.5-1.2-2.1s-1.1-1.2-1.7-1.7-1.2-1-1.7-1.6c-.6-.5-.9-1.2-1.5-1.8-2.3-2-5.3-3.2-7.4-5.5-.5-.6-1.1-1.1-1.7-1.6-.6-.5-1.2-.9-1.8-1.4l-3.7-2.6-1.8-1.3-.9-.7c-.3-.2-.6-.5-.9-.8-1.3-.9-2.5-1.8-3.8-2.7-1.2-.9-2.6-1.7-3.9-2.4-.4-.2-.9-.5-1.3-.7-.2-.1-.4-.2-.5-.3-.1 0-.1-.1-.2-.1-.3-.1-.6-.3-.9-.4-.4-.2-.9-.3-1.3-.4-.2 0-.4-.1-.6-.1-.3 0-.6 0-.8.1-.5.1-.9.3-1.3.7-.6.6-1 1.4-1.3 2.2-.6 1.4-1.3 2.7-2.1 3.9-.2.3-.4.6-.6.8-.2.3-.4.7-.6 1-.2.4-.3.8-.5 1.1s-.4.7-.6 1l-1.5 1.8c-.3.5-.6 1-.9 1.6-.1.1-.1.3-.2.4-.6 1.3-1.3 2.6-2.1 3.9 0 .1-.1.1-.1.2-.2.2-.3.5-.5.7l-.2.2-.1.1c-.2.2-.2.5-.2.8v.5l.2.4.3.3.2.2c.5.6 1.1 1.1 1.6 1.6.5.6 1.1 1.1 1.8 1.4.7.4 1.2 1 1.6 1.7.8 1.3 2.4 1.8 3.5 2.9 1.2 1 2.3 2 3.3 3.1s2 2.3 3.2 3.3c.6.5 1.2.9 1.9 1.3.6.4 1.2.9 1.8 1.4.5.6 1 1.2 1.5 1.7.6.5 1.2 1 1.8 1.4.6.5 1.3.9 1.9 1.3l1 .6.6.3.5.3c.7.4 1.4.8 2 1.1.7.4 1.3.9 1.9 1.4.6.5 1.4.8 2.1 1 .8.3 1.5.6 2.2.9 1.2.6 2.5.9 3.9 1.1.3 0 .7.1 1 0 1.7-.1 3.4-.6 4.9-1.6.7-.5 1.3-1 1.9-1.5s1.3-.9 2-1.3c.7-.5 1.3-1 1.8-1.7.2-.3.5-.7.7-1s.4-.7.7-1c.5-.7.8-1.5 1.2-2.2.4-.8.6-1.6.7-2.5.2 0 .1-.5 0-.9zm-3.3.3c-.1.3-.1.6-.1.9.1.6.1 1.2 0 1.8s-.3 1.2-.6 1.8c-.4.6-.8 1.1-1.4 1.5-.5.4-1 1-1.4 1.5-.2.3-.4.6-.7.8-.2.3-.5.5-.8.7-.6.4-1.2.7-1.9.9-.6.2-1.3.5-1.9.6-.6.2-1.2.3-1.8.3-1.3 0-2.7-.1-4-.5-.7-.1-1.4-.4-2-.8l-.9-.6c-.3-.2-.7-.3-1-.4-.7-.2-1.4-.5-2.1-.9-.6-.4-1.2-.8-1.8-1.3-1.1-.8-2.1-2-3.2-3-.6-.5-1.1-1-1.7-1.5-.6-.4-1.3-.8-1.9-1.2-1.2-.9-2.4-1.9-3.4-3-2.3-2-4.7-3.9-6.8-6-1.1-1-1.8-2.5-3.2-3.3-.7-.3-1.3-.8-1.7-1.5-.4-.7-.9-1.3-1.5-1.7-.3-.3-.6-.7-1-1-.2.2-.3.5-.5.8l-.2.3-.1.1c.2-.4.3-.9.2-1.4-.1-.3-.2-.4-.2-.5l.2.2.6.6c0-.1.1-.2.2-.3l2.4-4c.4-.6.8-1.3 1-2 0-.1.1-.2.1-.3.1-.5.1-.9.2-1.4 0-.2.1-.4.2-.5.1-.4.3-.7.5-1 .3-.3.6-.5.9-.7s.6-.4.8-.7c.3-.4.5-.8.7-1.2.3-.8.5-1.7.6-2.5.1-.7.2-1.4.5-2.2.1-.6.5-1 1-1.4.3-.1.4 0 .9.2.1 0 .2.1.3.1.4.1.8.3 1.2.5.1 0 .1 0 .2.1h.1l.3.1 1.6.7c1.3.6 2.7 1.3 4 2 .7.3 1.3.6 2 1 .6.4 1.2.9 1.6 1.4.1.1.2.3.3.4l.3.5c.2.3.5.7.7 1 .5.6 1 1.2 1.6 1.7 1.1 1.1 2.2 2.1 3.5 3.1.6.5 1.2.9 1.8 1.4.6.4 1.3.8 2 1.1 2.8 1.3 4.6 3.9 6.8 5.8.5.5 1.2.8 1.8 1.3.5.5 1 1.1 1.4 1.7.4.6.8 1.2 1.3 1.7s1.1 1 1.6 1.5.9 1.1 1.1 1.8.4 1.3.8 1.9c.5.5.7 1.1.7 1.8 0 .5-.1.9-.2 1.2z"/></g><path fill="#D8E1EC" d="M93 442.8c-.3-1-.7-2-1.2-2.9-.6-1.1-1.3-2.1-2.1-3.1l-1.2-1.8c-.1-.2-.2-.3-.2-.4s-.1-.2-.2-.3c-.1-.2-.2-.4-.3-.5-.4-.6-.8-1.1-1.3-1.6-.1-.1-.3-.2-.4-.3-.2-.1-.3-.2-.5-.3-.2-.2-.4-.5-.6-.6-.2 0-.5-.1-.7-.1-1.1 0-2.2.3-3.3.6-1.1.4-2.4.7-3.8 1s-2.6.9-3.7 1.7c-2.2 1.8-4.1 3.8-5.8 6-1.7 2.1-3.2 4.3-4.5 6.7-.5 1.1-1.2 2.2-1.9 3.3-.9 1-1.6 2.1-2.2 3.2-.9 2.5-1.3 5.2-1.2 7.9.1 2.3-1.6 4.2-3.8 4.4s-4.2-1.6-4.4-3.8v-.4-.4l.1-1.1c.1-1.6.3-3.1.6-4.7s.6-3.2 1.1-4.7c.5-1.6 1.3-3.1 2.4-4.3 1.1-1.2 1.8-2.7 2.8-4 1.9-2.5 4-4.9 6.2-7.1 2.1-2.2 4.4-4.3 6.8-6.2 1.2-1 2.4-2.2 3.6-3.2 1.3-1.2 2.9-2 4.6-2.4 1.9-.3 3.9-.3 5.8.1.5.1 1 .1 1.5.2.5 0 1-.1 1.5-.2 1.1.1 2.1.5 2.9 1.1 1.6 1.2 2.9 2.6 4.1 4.2.6.7 1.2 1.3 1.9 1.8.6.4 1.1 1 1.5 1.6 1 1.3 1.8 2.7 2.5 4.1.4.8.7 1.7 1 2.5.3.9.4 1.8.5 2.8.2 2.3-1.5 4.2-3.8 4.4-1.9.1-3.7-1.1-4.2-2.9l-.1-.3z"/><path fill="#D8E1EC" d="M95.7 424.2c.1-.1.2-.2.3-.4.5-.7.8-1.5.9-2.4.1-.8-.1-1.7-.4-2.5l-.1-.2c-.3-.5-.6-1-1.1-1.4l-.2-.2s-.3-.2-.4-.3c.1-.4.2-.7.1-1.1-.4-4.5-1.1-8.8-1.7-13.2-.3-2.2-.8-4.3-1.5-6.5-.7-2.1-1.6-4.1-2.7-6.1-2.2-3.8-4.7-7.5-7.3-11-.7-.9-1.3-1.8-2-2.6-.2-.3-.5-.5-.7-.8-.5-.6-.9-1.2-1.5-1.7-.7-.8-1.5-1.7-2.2-2.4-.4-.4-.8-.8-1.1-1.2l-1.2-1.2c-1.6-1.6-3.3-3-5.1-4.2-.9-.6-1.9-1.2-2.9-1.6s-2-.9-3.1-1.3c-2-.8-4-1.7-6-2.7-1-.5-1.9-1.1-2.9-1.6l-1.4-.8c-.5-.2-1-.5-1.5-.7-4-1.8-8.4-2.4-12.6-3.4-4.3-.9-8.5-2.3-12.9-2.9-4.4-.4-8.8-.3-13.1.5l-6.4 1c-1.8.3-3.6.5-5.4.7v8.2c.1 0 .3-.1.4-.1 2-.5 4-.9 6-1.1s4.1-.3 6.1-.2c2 0 4 .1 6 .1s4 .1 6 0c4-.1 8-.5 11.9.5s7.5 3.1 11.2 4.2c1.9.5 3.9 1 5.8 1.6 1.9.7 3.6 1.7 5.1 3.1 1.4 1.4 2.9 2.7 4.5 3.9l1.2.8c.4.2.8.5 1.2.8.8.5 1.7 1 2.5 1.6 1.7 1 3.2 2.2 4.7 3.5s2.9 2.6 4.1 4.1c1.3 1.5 2.4 3.1 3.3 4.8.2.4.5.9.7 1.3l.6 1.4c.4.9.8 1.8 1.1 2.7.7 1.8 1.4 3.6 2.2 5.4l1.2 2.7c.3.9.8 1.8 1.1 2.7 1 2.5 1.5 5.2 1.7 7.9-.4 0-.8.1-1.2.2-1.3.3-2.3 1.3-2.6 2.6l-.1.3c-.3 1.6-.1 3.2.6 4.6.1.2.3.5.4.7-.8.8-1.3 1.9-1.6 3 0 .1-.1.2-.1.4-.2 1.4 0 2.9.8 4.2.2.3.4.5.6.8.6.7 1.3 1.2 2 1.7.1.1.3.1.4.2 1.3.6 2.6.9 4 1h.1c.5 0 1 0 1.5-.1.7-.2 1.3-.5 1.8-1 .1-.1.2-.2.3-.4l.2-.2c.3-.4.5-.8.6-1.3 0-.1.1-.3.1-.4 0-.2.1-.4.1-.6 0-.3 0-.6-.1-.9 0-.1-.1-.3-.1-.4s-.1-.3-.1-.4c-.1-.1-.1-.2-.2-.4l-.6-.9.1-.1c.4-.1.5-.2.6-.3z"/><g fill="#FFF"><path d="M92.9 439.2c15.2-4.6 42-7.6 57.2-3 10.9 3.3 20.5 9.6 30 15.8l60.7 39.9c3 1.9 6.2 4.3 6.9 7.8.6 3.1-1.1 6.1-2.7 8.9-8.1 14-38.7 69.7-50.5 63.5-25.4-13.4-61.9-42.6-83.9-61.5-4.1-3.5-8.3-7.1-11.2-11.7-3.2-4.9-4.8-10.7-6.4-16.4l-8.7-31.7c-.6-1.6-.8-3.3-.5-5 .7-3 4.3-5.1 9.1-6.6z"/><path d="M99.4 437.5c-.6.1-1.2.3-1.7.4s-1.1.3-1.7.4c-1.1.3-2.1.6-3.1.9-.5.1-.9.3-1.3.4-.8.3-1.6.6-2.4 1-.2.1-.3.2-.5.2-.2.1-.4.2-.5.3l-1.5.9c-.1.1-.2.1-.3.2s-.2.1-.3.2c-.2.1-.3.3-.5.4-.1.1-.2.1-.2.2l-.1.1-.1.1c-.3.3-.5.6-.7.9h-.2c-.1.2-.2.4-.3.5-.5 1.1-.7 2.4-.4 3.6.2 1.2.5 2.3.9 3.5l1 3.4.4 1.3.8 2.9.2.1c.1.2.1.3.2.5v.1c.2.6.3 1.3.5 1.9 0 .1.1.2.1.2l.2.2-.2-.5-.6-2.2-.8-3-.5-1.7-.9-3.4c-.3-1.1-.6-2.3-.8-3.5-.2-1.1-.1-2.3.4-3.4.1-.2.3-.5.4-.7.5-.7 1-1.3 1.7-1.8l.1-.1c1-.7 2-1.3 3.1-1.7.7-.3 1.3-.5 2-.8.4-.1.9-.3 1.3-.4 2.2-.6 4.4-1.2 6.6-1.7-.2.2-.2.2-.3.1zm0 0c-.6.1-1.2.3-1.7.4s-1.1.3-1.7.4c-1.1.3-2.1.6-3.1.9-.5.1-.9.3-1.3.4-.8.3-1.6.6-2.4 1-.2.1-.3.2-.5.2-.2.1-.4.2-.5.3l-1.5.9c-.1.1-.2.1-.3.2s-.2.1-.3.2c-.2.1-.3.3-.5.4-.1.1-.2.1-.2.2l-.1.1-.1.1c-.3.3-.5.6-.7.9h-.2c-.1.2-.2.4-.3.5-.5 1.1-.7 2.4-.4 3.6.2 1.2.5 2.3.9 3.5l1 3.4.4 1.3.8 2.9.2.1c.1.2.1.3.2.5v.1c.2.6.3 1.3.5 1.9 0 .1.1.2.1.2l.2.2-.2-.5-.6-2.2-.8-3-.5-1.7-.9-3.4c-.3-1.1-.6-2.3-.8-3.5-.2-1.1-.1-2.3.4-3.4.1-.2.3-.5.4-.7.5-.7 1-1.3 1.7-1.8l.1-.1c1-.7 2-1.3 3.1-1.7.7-.3 1.3-.5 2-.8.4-.1.9-.3 1.3-.4 2.2-.6 4.4-1.2 6.6-1.7-.2.2-.2.2-.3.1zm148.3 61.6c-.3-1.2-.9-2.2-1.7-3.1-1.6-1.7-3.5-3.3-5.6-4.5l-6-3.9-11.9-7.8-23.8-15.6-23.8-15.7c-4-2.5-8.1-5-12.3-7.2-4.2-2.3-8.6-4-13.2-5.4-4.6-1.2-9.4-1.8-14.1-1.9-4.8-.2-9.5-.1-14.3.3-4.8.3-9.5 1-14.2 1.7-1.4.2-2.8.5-4.2.8l-2.7.6c-.2 0-.4.1-.6.1-2.2.5-4.4 1.1-6.5 1.7-.5.1-.9.3-1.4.5-.9.3-1.9.7-2.8 1.1-.8.4-1.6.9-2.4 1.4-.2.1-.4.3-.6.4-.6.5-1.1 1.1-1.5 1.7-.1.2-.2.4-.3.5-.5 1.1-.7 2.4-.4 3.6.2 1.2.5 2.3.9 3.5l1 3.4.4 1.3.8 2.9.7 2.6v.1l3.8 13.6.3 1.2.8 2.8.8 2.9c.6 2.3 1.3 4.6 2 6.9 1.4 4.6 3.7 8.8 6.7 12.5 3.1 3.7 6.8 6.7 10.4 9.8 7.2 6.3 14.5 12.2 21.9 18.2s15 11.7 22.6 17.3c7.6 5.7 15.4 11.1 23.5 16.2 2.2 1.3 4.3 2.7 6.5 4 .4.3.9.5 1.3.8.2.1.5.3.7.4 1.2.7 2.5 1.4 3.8 2.1l1.6.8c.5.3 1 .5 1.5.7h.1c.7.1 1.3.1 2 0 .5-.1 1-.2 1.6-.4.7-.3 1.5-.7 2.1-1.1 1.3-.9 2.6-1.8 3.8-2.9 3.5-3.3 6.6-6.8 9.5-10.6s5.6-7.7 8.2-11.6c5.2-7.9 10.2-16 15-24.2 2.4-4.1 4.7-8.3 7.1-12.4 1.3-2 2.3-4.2 3-6.5.2-1.2.2-2.4-.1-3.6zm-6.7 16.1l-3.6 6.1-7.2 12.3s-5.1 8-7.7 12c-2.7 3.9-5.4 7.8-8.2 11.6s-6 7.4-9.4 10.7c-1 .9-2 1.7-3.1 2.5-.9.6-1.8 1.1-2.7 1.5-.4.2-.8.3-1.3.4-.7.2-1.4.2-2.1 0-.6-.1-1.1-.4-1.6-.7l-1.6-.9c-1-.6-2.1-1.1-3.1-1.7l-.6-.3-.7-.4-1.3-.8-.5-.3c-2.1-1.2-4-2.5-6.1-3.7-8-5.1-15.8-10.6-23.5-16.2-7.7-5.6-15.1-11.5-22.6-17.4-7.4-5.9-14.7-12-22-18.2-3.7-3-7.1-6.3-10.3-9.8-1.5-1.8-2.9-3.8-3.9-5.9s-1.9-4.3-2.7-6.6c-1-3.2-2-6.5-2.9-9.8-.3-.9-.5-1.9-.8-2.8-1.3-4.8-2.6-9.5-3.9-14.2l-.2-.5-.6-2.2-.8-3-.5-1.7-.9-3.4c-.3-1.1-.6-2.3-.8-3.5-.2-1.1-.1-2.3.4-3.4.1-.2.3-.5.4-.7.5-.7 1-1.3 1.7-1.8l.1-.1c1-.7 2-1.3 3.1-1.7.7-.3 1.3-.5 2-.8.4-.1.9-.3 1.3-.4 2.2-.6 4.4-1.2 6.6-1.7l.5-.1 2.7-.6c1.3-.3 2.7-.5 4.1-.8 4.7-.8 9.4-1.4 14.1-1.7 4.7-.4 9.5-.5 14.2-.3 4.7.1 9.5.8 14.1 2 9.1 2.6 17.5 7.4 25.4 12.5l23.8 15.6 11.9 7.9 6 3.9 5.9 4 11.9 7.8 6 3.9c2 1.2 3.9 2.7 5.5 4.4.8.9 1.3 1.9 1.7 3 .3 1.1.3 2.3.1 3.4-.6 2.3-1.6 4.4-2.9 6.4-1 2.1-2.2 4.2-3.4 6.2zM99.4 437.5c-.6.1-1.2.3-1.7.4s-1.1.3-1.7.4c-1.1.3-2.1.6-3.1.9-.5.1-.9.3-1.3.4-.8.3-1.6.6-2.4 1-.2.1-.3.2-.5.2-.2.1-.4.2-.5.3l-1.5.9c-.1.1-.2.1-.3.2s-.2.1-.3.2c-.2.1-.3.3-.5.4-.1.1-.2.1-.2.2l-.1.1-.1.1c-.3.3-.5.6-.7.9h-.2c-.1.2-.2.4-.3.5-.5 1.1-.7 2.4-.4 3.6.2 1.2.5 2.3.9 3.5l1 3.4.4 1.3.8 2.9.2.1c.1.2.1.3.2.5v.1c.2.6.3 1.3.5 1.9 0 .1.1.2.1.2l.2.2-.2-.5-.6-2.2-.8-3-.5-1.7-.9-3.4c-.3-1.1-.6-2.3-.8-3.5-.2-1.1-.1-2.3.4-3.4.1-.2.3-.5.4-.7.5-.7 1-1.3 1.7-1.8l.1-.1c1-.7 2-1.3 3.1-1.7.7-.3 1.3-.5 2-.8.4-.1.9-.3 1.3-.4 2.2-.6 4.4-1.2 6.6-1.7-.2.2-.2.2-.3.1zm0 0c-.6.1-1.2.3-1.7.4s-1.1.3-1.7.4c-1.1.3-2.1.6-3.1.9-.5.1-.9.3-1.3.4-.8.3-1.6.6-2.4 1-.2.1-.3.2-.5.2-.2.1-.4.2-.5.3l-1.5.9c-.1.1-.2.1-.3.2s-.2.1-.3.2c-.2.1-.3.3-.5.4-.1.1-.2.1-.2.2l-.1.1-.1.1c-.3.3-.5.6-.7.9h-.2c-.1.2-.2.4-.3.5-.5 1.1-.7 2.4-.4 3.6.2 1.2.5 2.3.9 3.5l1 3.4.4 1.3.8 2.9.2.1c.1.2.1.3.2.5v.1c.2.6.3 1.3.5 1.9 0 .1.1.2.1.2l.2.2-.2-.5-.6-2.2-.8-3-.5-1.7-.9-3.4c-.3-1.1-.6-2.3-.8-3.5-.2-1.1-.1-2.3.4-3.4.1-.2.3-.5.4-.7.5-.7 1-1.3 1.7-1.8l.1-.1c1-.7 2-1.3 3.1-1.7.7-.3 1.3-.5 2-.8.4-.1.9-.3 1.3-.4 2.2-.6 4.4-1.2 6.6-1.7-.2.2-.2.2-.3.1z"/></g><g fill="#F4F6F8"><path d="M81.3 442.9c18.1-1.9 36.3-3 54.5-3.9 3-.3 5.9-.1 8.8.7 3.2 1 5.9 3.3 8.5 5.5 24.1 20.5 47.9 40.8 70 63.5 2.3 2.4 4.8 5.1 5.1 8.4.4 3.8-2.1 7.3-4.5 10.3-14.6 18.4-30.2 35.9-47 52.3-1.7 1.6-3.5 3.4-5.8 3.7-3.3.5-6.3-2-8.7-4.4l-67.5-65.1c-3.9-3.7-7.8-7.5-10.5-12.2-2.9-5.1-4.2-10.9-5.4-16.7l-6.9-31.9c-.5-1.6-.6-3.3-.2-5 1-3.7 5.7-4.8 9.6-5.2z"/><path d="M93 442.8c-.1-.2-.1-.4-.2-.6 0-.1-.1-.2-.1-.3-1.2.1-2.3.2-3.5.3l-2.7.3h-.3c-.2.1-.3.3-.5.4-.1.1-.2.1-.2.2l-.1.1-.1.1c-.3.3-.5.6-.7.9h.2l8.4-1-.2-.4zm0 0c-.1-.2-.1-.4-.2-.6 0-.1-.1-.2-.1-.3-1.2.1-2.3.2-3.5.3l-2.7.3h-.3c-.2.1-.3.3-.5.4-.1.1-.2.1-.2.2l-.1.1-.1.1c-.3.3-.5.6-.7.9h.2l8.4-1-.2-.4zm136.4 73.1c-.3-1.3-.8-2.6-1.6-3.7-.7-1.1-1.5-2.1-2.3-3-1.7-1.8-3.3-3.4-5-5.1l-5-5.1c-3.3-3.4-6.8-6.7-10.2-9.9-.8-.8-1.7-1.6-2.7-2.4-1-.7-1.9-1.5-2.7-2.3-1.7-1.6-3.2-3.5-5-5.1-1.7-1.6-3.6-3.1-5.4-4.6-1.8-1.5-3.6-3.1-5.4-4.6-7.1-6.2-13.9-12.9-21.1-19-1.8-1.5-3.7-2.9-5.6-4.4s-3.6-3-5.4-4.6c-3.7-3.8-8.9-5.6-14.2-5-4.8.3-9.5.8-14.2 1.2-2.4.2-4.7.4-7.1.5-2.4.2-4.8.1-7.1.2-2.4.1-4.7.3-7.1.6-.5.1-1.1.1-1.6.2-.7.1-1.3.1-2 .1l-3.6.2c-1.1.1-2.2.1-3.3.2-.8 0-1.5.1-2.3.2h-1c-2.5.2-5.1.4-7.6.7-2.6.2-5.1.9-7.4 2.1-.6.4-1.2.8-1.7 1.3-.4.4-.8.9-1.1 1.4-.1.1-.2.3-.2.5-.2.4-.3.7-.4 1.1-.1.3-.2.7-.2 1.1v.4c0 .6 0 1.2.1 1.8.2 1.2.5 2.4.8 3.6.3 1.1.6 2.3.9 3.4.6 2.3 1 4.6 1.4 7s.9 4.7 1.4 7l1.7 6.9.7 3.5.1.7.4 2.4.1.4c.4 2.3.8 4.7 1.4 7 .3 1.2.6 2.3 1.1 3.5.4 1.1 1 2.3 1.6 3.3 1.2 2.2 2.4 4.3 3.8 6.3 2.7 4.2 6.6 7 9.8 10.5 1.7 1.7 3.2 3.5 4.8 5.2l2.5 2.5c.9.8 1.7 1.6 2.6 2.4 3.6 3.1 7 6.4 10.2 9.8 1.6 1.7 3.4 3.3 5.1 4.9s3.5 3.2 5.3 4.7c1.8 1.6 3.5 3.2 5.3 4.8l2.6 2.4 2.5 2.5 4.9 5.1 2.5 2.5 2.6 2.4c3.4 3.2 6.9 6.5 10.4 9.7l5.2 4.8c1.8 1.8 4 3.1 6.4 3.8 1.3.3 2.7.2 3.9-.2 1.2-.5 2.3-1.1 3.2-2 1.8-1.6 3.4-3.3 5.2-5 2.7-2.6 5.4-5.3 8-8 0 0 .1 0 .1-.1l.1-.1c.6-.6 1.2-1.2 1.8-1.9l4.9-5.2c1.6-1.7 3.1-3.4 4.6-5.1.1 0 .1-.1.1-.2.3-.3.6-.7.9-1 .3-.4.6-.7.9-1.1 2.5-2.9 4.9-5.8 7.5-8.6 3.2-3.5 6.5-6.9 9.5-10.6 1.5-1.8 2.8-3.9 4.2-5.7 1.4-1.9 3.1-3.6 4.4-5.8.7-1.1 1.3-2.3 1.6-3.5.6-1.1.7-2.5.4-3.9zM216.5 533c-3.1 3.6-5.6 7.7-8.5 11.3-1.4 1.9-3 3.6-4.6 5.3l-3.1 3.1-1 1-.9.9-.2.2c-3.9 4.2-7.7 8.3-11.5 12.5l-.1.1-.1.1c-2.4 2.6-4.8 5.3-7.2 7.9-1.5 1.8-3.2 3.4-4.9 5-.8.7-1.7 1.2-2.7 1.5-.9.2-1.9.2-2.8-.1-1.9-.9-3.7-2.2-5.1-3.8l-5-5c-3.3-3.4-6.7-6.6-10.1-9.9l-2.6-2.5-2.6-2.4-5.4-4.6c-7-6.3-13.3-13.4-20.2-19.9-3.6-3.1-6.9-6.4-10.1-9.9-.8-.9-1.7-1.7-2.5-2.5s-1.7-1.7-2.6-2.4c-1.8-1.6-3.6-3-5.4-4.7-.9-.8-1.7-1.7-2.5-2.5-.8-.9-1.6-1.7-2.3-2.6l-2.3-2.6-2.3-2.5c-1.5-1.7-2.7-3.6-3.4-5.8-.6-2.2-1.3-4.3-1.9-6.5-.7-2.2-1.4-4.5-2-6.9l-.6-2.4c-.4-1.5-.7-2.9-1-4.4-.5-2.3-.9-4.6-1.3-7-.5-2.3-1-4.6-1.7-6.9s-1.3-4.6-1.7-6.9c-.2-1.2-.5-2.3-.7-3.5-.2-1.1-.4-2.2-.5-3.3v-.6c0-.5.1-1.1.3-1.6.2-.5.4-.9.8-1.2.4-.4.8-.8 1.3-1 1.9-.9 4-1.5 6.2-1.6l2.8-.3h.4l8.4-1 2.4-.3c1.9-.2 3.7-.4 5.6-.6.5 0 1-.1 1.4-.1 2.4 0 4.7-.2 7.1-.4 2.3-.2 4.7-.6 7.1-.8 2.4-.2 4.7-.2 7.1-.4 4.7-.2 9.5-.3 14.2-.4 2.2-.1 4.4.2 6.5.8 2.1.8 4 1.8 5.8 3.2 1.9 1.4 3.7 2.9 5.5 4.4s3.6 3.1 5.4 4.6c7.2 6.2 14.5 12.2 21.4 18.6l2.6 2.4c.9.8 1.7 1.6 2.5 2.5 1.7 1.7 3.3 3.4 5.1 4.9 1.7 1.6 3.7 2.9 5.4 4.6.9.8 1.7 1.7 2.4 2.6.8.9 1.6 1.8 2.5 2.5 3.4 3.2 6.8 6.6 10.1 9.9l5 5c.8.8 1.6 1.7 2.4 2.6s1.6 1.7 2.4 2.6c1.4 1.4 2.4 3.2 2.9 5.2.2.9.2 1.8.1 2.6-.1.5-.2 1-.3 1.4-.1.5-.3 1-.5 1.5-.9 2.1-2.2 4-3.7 5.7-1.7 2-3.7 3.5-5.2 5.3zM93 442.8c-.1-.2-.1-.4-.2-.6 0-.1-.1-.2-.1-.3-1.2.1-2.3.2-3.5.3l-2.7.3h-.3c-.2.1-.3.3-.5.4-.1.1-.2.1-.2.2l-.1.1-.1.1c-.3.3-.5.6-.7.9h.2l8.4-1-.2-.4zm0 0c-.1-.2-.1-.4-.2-.6 0-.1-.1-.2-.1-.3-1.2.1-2.3.2-3.5.3l-2.7.3h-.3c-.2.1-.3.3-.5.4-.1.1-.2.1-.2.2l-.1.1-.1.1c-.3.3-.5.6-.7.9h.2l8.4-1-.2-.4z"/></g><g fill="#D8E1EC"><path d="M112.2 462.6c1.6 14.2-17.7 22.4-20.2 6.5-1.3-8 7.3-21.9 16.5-14.5 2.3 1.9 3.4 5 3.7 8z"/><path d="M113.8 462.4c-.1-.8-.3-1.6-.6-2.4-.2-.4-.5-.7-.6-1.1-.2-.4-.3-.8-.3-1.2 0-.4-.2-.8-.5-1.2-.3-.3-.6-.6-.8-1-.5-.7-.9-1.4-1.4-2.2-.1-.2-.3-.3-.5-.4s-.4-.1-.6-.2c-.4-.1-.8-.3-1.1-.6-.6-.7-1.6-.6-2.4-.9-.3-.2-.7-.4-1-.5-.1 0-.2-.1-.2-.1-.5-.1-.9-.1-1.4 0-.3.1-.5.2-.8.3-.2.1-.3.1-.5.2-.2 0-.4.1-.7.2s-.5 0-.7.1c-.4.1-.8.3-1.2.6-.3.3-.7.6-.9.9-.5.7-1.1 1.3-1.7 1.8-.3.2-.7.5-1 .7-.3.3-.6.6-.8 1-.4.7-.8 1.4-1 2.2-.3.7-.5 1.5-.6 2.3 0 .3-.1.7-.1 1-.1.4-.2.9-.4 1.3l-.2.4c-.2.5-.3 1.1-.4 1.6-.2.9-.2 1.7-.1 2.6.2.8.4 1.5.5 2.3v1.2c0 .4.1.8.2 1.2.2.4.6.6.8 1 .2.4.3.8.4 1.2 0 .1 0 .2.1.3.3.7.8 1.3 1.4 1.8.3.2.5.4.8.6.4.3.9.6 1.4.9.8.4 1.7.7 2.6.8.2.1.5 0 .7-.1s.4-.2.7-.2c.4.1.9.2 1.3.3.4-.1.9-.2 1.2-.5.4-.2.8-.4 1.2-.5.4-.2.9-.4 1.3-.5.3-.1.7-.3 1-.4s.6-.2.8-.3c.5-.2 1-.5 1.4-.9l.1-.1c.2-.3.4-.6.6-1 .2-.3.5-.6.9-.9.4-.2.7-.5.9-.9.2-.3.4-.7.6-1.1.3-.8.5-1.6.6-2.5l.3-1.2.3-.6.3-.6c.1-.2.1-.4.2-.6 0-.2 0-.4-.1-.6 0-.4 0-.8.1-1.2-.1-.6 0-1.5-.1-2.3zm-7.1 11.7c-.4.4-.9.7-1.4 1.1s-1.1.6-1.7.8h-.2c-.3.1-.7.1-1 .1-.3-.1-.7-.1-1-.1s-.6.4-.9.4c-.2 0-.3-.1-.5-.2-.1-.1-.3-.2-.4-.2-.6-.1-1.1-.3-1.7-.5-.2-.1-.3-.2-.5-.3-.3-.2-.6-.5-.8-.8l-.2-.3c-.1-.1-.1-.3-.2-.4-.2-.2-.5-.4-.8-.5-.1 0-.2-.1-.3-.1-.2-.1-.4-.3-.4-.5-.1-.3.3-.9.2-1.2-.1-.3-.3-.6-.6-.8-.3-.2-.5-.5-.8-.9-.2-.3-.2-.7-.2-1 .1-.4.2-.7.2-1 0-.2 0-.4.1-.6v-1.4-.6-1.5-.6c.1-.5.4-1 .8-1.4.5-.5.9-1.1 1.3-1.7.4-.5.8-1.1 1.1-1.7.2-.3.4-.6.5-.9.1-.4.2-.7.3-1 .3-.6.9-1.1 1.5-1.3.6-.2 1.2-.5 1.7-.8.2-.2.4-.4.7-.4.3 0 .7 0 1 .1s.6.1.8 0c.3 0 .6-.3.9-.2.1 0 .2 0 .3.1h.1l.4.4c.2.3.5.4.8.3.4-.1.7.2.8.5 0 .2.1.4.2.5s.2.2.4.3c.6.1 1.2.5 1.6 1 .2.3.3.6.3.9.1.3.3.6.6.8.3.2.5.5.6.9.1.3.1.7 0 1 .1.7.1 1.4.3 2 .1.3.1.7.2 1s.1.7.2 1 .1.7 0 1c-.2.3-.3.6-.2 1 .1.3.1.7.1 1.1-.1.3-.2.7-.4 1-.3.6-.7 1.2-1.2 1.7-.2.3-.4.6-.6.8-.2.3-.2.7-.4 1-.3.7-.8 1.2-1.4 1.5-.1.5-.2.5-.2.6z"/></g><path fill="#FFF" d="M102.4 439.3c-.5.3-1.2.3-1.7 0-.2-.1-.4-.3-.5-.5-.2-.4-.4-.7-.6-1.1l-.1-.1-.1-.1c-.4-.7-.7-1.5-1-2.2s-.5-1.4-.8-2.1c-.2-.4-.3-.9-.4-1.4-.2-.5-.3-1.1-.4-1.6l-.3-1.5c0-.2-.1-.3-.1-.5 0-.1 0-.2-.1-.3-.1-.4-.1-.8-.2-1.2s-.1-.8-.2-1.1l-.1-.5-.1-.8v-.2c-.2-1.3-.2-2.6-.3-4-.1-.7-.1-1.4-.1-2v-.9c-.1-2-.2-4.1-.5-6.1-.6-4.6-.7-9-2-13.4-.6-2.2-1.4-4.3-2.4-6.4-.9-2.1-2-4.1-3.3-5.9-1.2-1.9-2.6-3.7-4-5.5-1.2-1.5-2.6-2.9-3.9-4.3-.2-.2-.4-.5-.7-.7-3.3-3.1-6.7-6-10.3-8.7-.9-.6-1.8-1.3-2.8-1.9s-1.9-1.2-2.9-1.8c-2-1.1-4-2.1-6.2-2.9-1.1-.4-2.1-.8-3.2-1.2-1.1-.4-2.1-.8-3.2-1.1-2.1-.8-4.3-1.5-6.5-2.1-4.4-1.2-8.9-2.1-13.4-2.7-4.5-.5-9.1-.7-13.7-.6-4.6.2-9.1.6-13.7 1.4l-2.7.3v-3.2c.8-.1 1.5-.3 2.3-.4 4.7-.5 9.4-.7 14.1-.7 4.7-.1 9.4.2 14 .7 4.7.5 9.3 1.3 13.8 2.4 9.2 2.2 17.7 6.4 25.7 11.3 1 .6 2 1.3 2.9 2s1.9 1.4 2.8 2.1c1.8 1.5 3.5 3.1 5.2 4.9 3.3 3.4 6.1 7.2 8.5 11.3 1.2 2 2.3 4.2 3.2 6.3.9 2.2 1.7 4.4 2.5 6.6.4 1.1.7 2.2 1.1 3.4.3 1.1.6 2.3.8 3.5.4 2.3.7 4.7.7 7 .1 2.3.1 4.7.4 7 0 .3.1.6.1.9.1.9.2 1.9.3 2.8.1.6.2 1.2.2 1.8.1.4.1.9.2 1.3l.2 1.2v.2c.1.4.2.8.2 1.2.1.5.2 1 .3 1.4.2.7.3 1.3.5 2 .1.4.2.8.4 1.2.3.9.7 1.9 1.1 2.8.3.7.7 1.4 1.1 2.1 0 0 0 .1.1.1 0 .1.1.1.1.1s0 .1.1.1c.5.9.3 1.8-.4 2.3z"/><path fill="#FFF" d="M104.2 451.6c.4 1.6.5 3.2.5 4.9 0 1.6-.4 3.2-.5 4.8-.1 1.6-.7 3.2-1.5 4.5-.4.7-.7 1.4-1 2.2s-.7 1.4-1 2.1c-1.3 2.9-3.2 5.6-5.6 7.7-.6.5-1.3.9-2 1.4s-1.3.9-2 1.4-1.3 1-1.9 1.4c-.7.5-1.4.8-2.1 1.1-1.5.6-3 1.1-4.6 1.4s-3.2.6-4.7.7c-1.6.2-3.2.1-4.8.2-.8 0-1.6 0-2.4-.2s-1.6-.6-2.3-1c-.4-.2-.7-.4-1.1-.5l-1.2-.3c-.4-.1-.8-.3-1.1-.5-.4-.2-.7-.4-1-.7-1.4-.9-2.6-2-3.6-3.3-2-2.5-3.6-5.4-4.5-8.5-.3-1.6-.4-3.2-.4-4.8.1-1.6-.6-3.1-.3-4.7.2-1.6.6-3.1 1.2-4.6.5-1.5 1.1-2.9 1.6-4.4l.4-1.1c.2-.4.3-.7.5-1 .4-.7.7-1.4 1.2-2 .4-.6.9-1.3 1.3-1.9l1.5-1.8c2-2.4 4.5-4.2 6.7-6.3 2.2-2.1 4.7-4 7.4-5.6 1.3-.8 2.7-1.6 4.1-2.2 1.5-.6 3-1 4.5-1.3 3-.8 6-1.8 9.3-2 .8-.1 1.6 0 2.5.1l2.4.6c1.6.3 3.2.8 4.7 1.5.7.4 1.1 1.2.9 2v.1c-.4 1.4-1.3 2.5-2.5 3.2-.6.3-1.2.5-1.8.7-.6.1-1.2.2-1.9.3-.7 0-1.3 0-2-.1-.7-.2-1.3-.5-1.8-.9s-.9-.9-1.2-1.5c-.3-.6-.5-1.1-.7-1.7s-.4-1.2-.5-1.8c-.1-.7-.1-1.3.1-2s.5-1.3 1-1.8 1-.9 1.6-1.2c.6-.3 1.1-.5 1.8-.7.6-.1 1.2-.2 1.8-.2.6 0 1.2.1 1.8.3.6.2 1.2.4 1.8.8.4.2.6.7.5 1.1v.2c-.2 1-.8 1.8-1.7 2.4-.8.5-1.7.8-2.6.8-.4 0-.9 0-1.3-.1s-.9-.2-1.3-.3c-.9-.3-1.7-.9-2.3-1.6-.1-.2-.2-.4-.2-.6v-.3c0-1.2.3-2.4.7-3.6.2-.6.5-1.1.7-1.7.3-.5.6-1.1 1-1.6.5-.7 1.5-.9 2.2-.4s.9 1.5.4 2.2c-.3.4-.5.8-.8 1.2-.2.4-.5.8-.7 1.3-.4.9-.7 1.8-.9 2.8l-.2-.9c.2.4.5.7.9.9.2.1.5.2.7.1.3 0 .5 0 .8-.1.4-.2.8-.4 1.2-.7.3-.2.5-.5.7-.8l.6 1.8c-.5-.5-1.2-.8-1.9-.7-.7 0-1.4.3-1.9.8-.4.4-.7 1-.8 1.5-.1.3-.3.5-.4.9-.1.3-.2.7-.1 1.1.1.3.3.7.6.9.3.2.5.4.8.6.2.2.5.4.7.5.3.2.6.3 1 .3s.7-.1 1.1-.2c.3-.2.6-.4.9-.7.4-.5.7-1 1-1.6l.9 2.1c-1.1-.8-2.4-1.4-3.7-1.8-.7-.1-1.4-.2-2.1-.2s-1.4-.1-2.1-.1c-1.4-.1-2.9-.1-4.3 0-.7.1-1.4.2-2.1.4-.7.1-1.4.4-2.1.7-1.3.6-2.6 1.5-3.9 2s-2.6 1.3-3.9 1.9c-2.7 1.3-5.1 2.9-7.8 4.3s-4.3 4.1-6.2 6.3c-.9 1.2-1.7 2.4-2.4 3.6l-1.1 1.8-1.2 1.8c-.8 1.2-1.4 2.6-1.6 4-.2 1.5 0 2.9 0 4.3.1 1.4-1.1 2.8-.7 4.2.3 1.4 1.2 2.7 1.5 4s.8 2.7 1.3 3.9c.6 1.2 1.3 2.4 2.3 3.4.9 1 1.9 2 3 2.8.6.4 1.2.7 1.7 1.2.3.3.5.5.8.7s.7.3 1 .4l2.1.3s1.4.3 2.1.5c1.4.3 2.9.5 4.3.3 2.9-.3 5.8-1.1 8.4-2.4 1.3-.6 2.6-1.3 3.9-2 .6-.4 1.2-.9 1.7-1.4s1-1.1 1.5-1.6c2.1-2 4-4.2 5.7-6.6.8-1.2 1.5-2.5 1.9-3.9.3-1.4.6-2.8 1.1-4.2.2-.7.3-1.4.3-2.1v-2.1c-.1-1.4-.3-2.8-.7-4.1-.2-.8.2-1.7 1.1-2 .8-.2 1.7.2 2 1.1-.7.1-.7.2-.7.2z"/><path fill="#B7C3D9" d="M101.9 167.2c-.1 1.4-.5 2.8-1.4 4-.8 1.2-1.9 2.1-3.2 2.8-1.1.6-2.4 1-3.6 1.3s-2.3.5-3.4.8c-4.5.9-9 1.8-13.6 2.7-4.5.9-9.1 1.7-13.6 2.6l-2.2.4-4.6.9c-2.3.5-4.5.9-6.8 1.5-4.5 1.1-8.9 2.3-13.5 3-2.3.3-4.6.6-6.8 1.1s-4.5 1.3-6.7 1.7L9 192.8l-6.8 1.4-2.5.5v-3.2l1.8-.4 6.8-1.4 13.5-2.8c2.3-.5 4.6-.6 6.9-1s4.5-1.1 6.7-1.6c4.5-1.2 9-1.8 13.6-2.6 3.9-.7 7.8-1.5 11.7-2.3l1.8-.4c9-1.8 18-3.9 27-5.8 2.2-.3 4.4-.9 6.4-1.7.9-.4 1.7-1 2.3-1.8.6-.8.9-1.8.9-2.7 0-2.2-.3-4.4-.9-6.6l-.7-3.4c-.2-1.1-.5-2.2-.7-3.4-.9-4.5-1.7-9-2.7-13.5-.9-4.5-1.9-9-2.9-13.5-.4-1.9-.9-3.9-1.3-5.8l-.3-1.4-.3-1.2c-.4-1.7-.9-3.4-1.4-5-1.4-4.4-2.7-8.8-3.7-13.3-.3-1.1-.5-2.2-.8-3.3l-1-3.3-2-6.6-3.9-13.2c-.2-.8.3-1.7 1.1-2 .8-.2 1.7.2 1.9 1 1.3 4.4 2.5 8.9 3.7 13.3l1.7 6.7c.6 2.2 1.1 4.5 1.8 6.7 1.4 4.4 2.5 8.9 3.4 13.4.4 1.9.9 3.8 1.4 5.7l.3 1.2c.1.5.2.9.4 1.4.5 1.7.9 3.4 1.4 5.2 2.4 8.9 4.8 17.9 6.4 27 .4 2.3.7 4.6 1 6.9l.4 3.5c.5 1.1.6 2.4.5 3.7zM17.9 233.7c-.3-1.7-.4-3.7-1.3-5.4-.1-.5 0-1-.1-1.5s-.3-.9-.5-1.4l-1.2-2.7s-.6-2-.5-3c.1-.5.1-1 0-1.5s-.3-1-.4-1.5c-.1-1.1 0-2.1.4-3.1.3-1 .6-2 1-3 .2-.4.5-.8.9-.9.8-.2 1.6-.5 2.3-.9.4-.2.7-.4 1.1-.4h1.3c.2 0 .4 0 .6-.1s.4-.2.5-.3c.4-.2.7-.3 1.1-.4.8-.2 1.6-.4 2.4-.5s1.6-.3 2.4-.5 1.6-.4 2.3-.7c.8-.2 1.6-.3 2.5-.2.4 0 .8-.1 1.2-.2.4-.2.7-.4 1.1-.6.8-.2 1.6-.4 2.4-.4.8 0 1.6-.2 2.4-.4.8-.3 1.5-.6 2.3-.8l2.3-.6 2.4-.6c.8-.1 1.6-.3 2.4-.5.8-.3 1.5-.6 2.2-1 .7-.3 1.5-.6 2.3-.9 1.5-.7 3-1.2 4.6-1.5.8 0 1.6-.1 2.4-.3.8-.2 1.6-.5 2.6-.8.5-.1 1-.2 1.5-.2s1 .1 1.5.2c1.1.2 1.8 1.1 2.6 1.6s1.5 1.2 2.1 2c.5.8.7 1.7.8 2.6.2.9.8 1.6.9 2.5 0 .4.1.9 0 1.3 0 .4.1.9.3 1.2.1.2.2.4.2.6 0 .2.1.4.1.6v1.2c0 .8 0 1.6.2 2.4.3.8.5 1.5.7 2.3 0 .8.1 1.6.3 2.4.3.8.7 1.5 1 2.2.3.8.5 1.5.7 2.3.2.9-.3 1.7-1.2 1.9-.8.2-1.6-.3-1.9-1.1l-.6-2.4c-.2-.8-.1-1.6-.3-2.4-.2-.8-.5-1.6-.9-2.3-.2-.8-.3-1.6-.3-2.5l-.3-1.2c-.1-.4-.3-.8-.4-1.2-.2-.4-.3-.8-.4-1.2 0-.2-.1-.4 0-.6 0-.2.1-.4.2-.6.2-.4.2-.8.1-1.1-.1-.4-.4-.7-.5-1-.2-.7 0-1.5-.3-2.2s-1.1-1.1-1.3-1.7c-.3-.6-.6-1.1-1-1.7-.2-.2-.5-.4-.8-.5-.3 0-.6-.1-.9-.2-.3-.1-.6-.2-.9-.2-.3-.1-.6-.1-1-.2-.7-.1-1.5 0-2.2.3-.8.3-1.5.7-2.2 1.2-1.5.6-3.1 1-4.7 1.3-.8.2-1.6.3-2.4.4-.8 0-1.7 0-2.5.1-.8.3-1.5.6-2.2 1-.7.3-1.5.6-2.3.9-.8.3-1.5.5-2.3.7-.8.1-1.6.2-2.5.2-.8.1-1.6.4-2.3 1-.6.6-1.4.9-2.2 1.1-.4 0-.9-.2-1.3-.3-.4 0-.8.1-1.1.4-.4.2-.7.6-1 .8s-.7.4-1.1.4l-2.4.4-2.4.6-2.4.6c-.4.1-.8.2-1.2.1-.2-.1-.4-.1-.6-.1s-.4.1-.6.2c-.3.2-.7.4-1.1.6-.4.1-.8.2-1.2.2-.8 0-1.6.1-2.4.3l.7-.7c-.6 1.7-.8 3.5-.7 5.3-.1.9 0 1.9.4 2.7.4.9.6 1.8.7 2.7s.2 1.9.4 2.8c.1.5.2.9.4 1.4.2.4.5.8.7 1.3.2 1.9 1.3 3.6 1.7 5.7.2.9-.4 1.7-1.2 1.9-.9.2-1.7-.4-1.9-1.2l-.2-.5z"/></g></svg>