<svg xmlns="http://www.w3.org/2000/svg" viewBox="0 0 1066 650"><path fill="none" d="M0 0h1066v650H0z"/><path fill="#EDF1F6" d="M1119.9 157.3l-236.2 27-399.5-24.4L1.3 216.1V103.2L1157.5 2.1"/><path fill="#E8EDF4" d="M911.1 28.7L538.2 63l-44.4 94.5 386.1-43.7-16.2-36.7 82.8-12"/><path fill="#DFE6EF" d="M1208 .2l-2.9.4-13.3 1.7-3.4.4-2.6.3-6.1.8-228 28.7-17.7 2.3-2.3.3-10.6 1.3-31.1 4.1-2.5.3-17.2 2.2-1.8.3-17.1 2.2-2.3.3-16 2.1-2.9.3-9.7 1.2-6.7.8h-2.9L720 61.6l-7.8 1-7.8 1-16.5 2.1-3.8.5-3.5.4-16.8 2.2-1.2.2-1.2.2-33.6 4.2h-.3l-1.8.3-1.6.2-.4.1-4.3.6-1.5.2-5.5.7-1.6.2-4.3.6-.7.1-1.4.2-.4.1-2.1.3-74.9 9.1-9.7 1.3-99.2 12.4-22.2 2.8-223.1 28.1-1.8.3-7.3.9-7.6 1-79.5 10h-.1l-14.7 1.8-10.5 1.3-6.1.8-1.2.2h-.3l-1.2.2-5 .7-1.5.2-6.2.8-12.8 1.7-15.8 2.1V.6H44c.4-.2.8-.3 1.3-.4H1208z"/><g fill="#F4F6F8"><path d="M391.7 47.2c-.2.3-.4.7-.6.9-1.9 2.4-5 3.8-7.9 5-15.4 6-30.7 11.9-46.3 17.7-.3.1-.6.2-.8.3-.3.2-.7.3-1 .4-1.3.5-2.7 1-4 1.5-.8.3-1.7.6-2.4.9-3.8 1.4-7.5 2.8-11.2 4.1-6.7 2.4-13.5 5-20.2 7.3-6.5 2.3-12.9 4.6-19.4 6.9-.8.3-1.4.5-2.2.8-1.7.6-3.3 1.2-5 1.8-.6.3-1.2.4-1.8.7-.4.2-.8.3-1.3.4-34.5 12.2-69.2 24-103.8 35.8-1.3.4-2.4.8-3.6 1.3-23.6 8.1-47.1 16.2-70.7 24.4-18.9 6.6-28.8 9.7-35.9 11.8-.3.1-.7.2-1 .3-.4.1-.8.3-1.2.3-1.3.4-2.6.8-3.9 1.1-.9.3-1.9.5-2.8.8-8.5 2.4-17.5 5-43.3 14l-.1-1.7V.6h42.8c.4-.2.8-.3 1.3-.4h333.8c.1.2.1.3.2.4 3.9 11.2 7.7 22.2 11.6 33.3 1.5 4.3 3 9.2.7 13.3z"/><path d="M393.3 44.7c-.3 1.4-.9 2.6-1.8 3.8-.9 1.1-1.9 2-3.1 2.6-1.2.7-2.3 1.3-3.5 1.8-1.3.5-2.4 1-3.6 1.4l-14.4 5.5c-4.9 1.8-9.7 3.6-14.4 5.5L338.1 71c-.3.1-.6.3-.8.3-.3.1-.6.3-.8.3-.3.2-.7.3-1.1.4-1.4.6-2.7 1.1-4.1 1.7-.8.3-1.5.6-2.3.9-1.8.7-3.5 1.4-5.4 2.1l-6.4 2.4-8.1 3-7.1 2.6-7.4 2.8-.9.3-6.4 2.3-7.2 2.6c-.7.3-1.3.5-1.9.7-.7.3-1.4.5-2.1.8-1.8.7-3.4 1.3-5.2 1.8l-1.8.6c-.4.2-.8.3-1.3.4-.8.3-1.7.6-2.4.8-5.3 1.8-10.6 3.5-15.7 5.3-4.5 1.5-9.1 2.9-13.5 4.6-4.9 1.8-9.7 3.4-14.6 5.2l-6 2.2-8.6 3.1c-4.9 1.8-9.7 3.4-14.6 5.2-3.4 1.3-7 2.4-10.6 3.6-1.4.4-2.7.9-4.1 1.3-2.3.8-4.5 1.5-6.7 2.3-.7.3-1.3.4-1.9.7-6.8 2.4-13.7 4.9-20.5 7.2-4.9 1.8-9.7 3.4-14.7 5s-9.9 3-14.8 4.7c-9.8 3.1-19.4 7-29.1 10.2l-3.7 1.2c-.7.2-1.3.4-1.8.6-.6.3-1.3.4-1.8.7-2.4.9-4.8 2-7.2 2.8-1.3.4-2.4.8-3.7 1.3-1.3.4-2.4.8-3.7 1.1-2.4.8-5 1.4-7.4 2.2-1.3.3-2.4.8-3.7 1.1l-3 .9-.7.2-.4.1-1.2.3-4.1 1.3-1.8.6c-.2.1-.3.1-.6.2-1.1.3-2.1.6-3.1.9l-3.7 1c-2.4.7-5 1.3-7.4 2.1-.6.2-1.3.4-1.8.6l-1.8.7-1.8.7-1.8.7-3.6 1.3-3.6 1.3c-2.4.9-4.9 1.8-7.2 2.5l-3.6 1.3-3.6 1.3c-.2.1-.4.1-.6.1v-3.1l3.2-1.2 3.6-1.3c2.4-.8 4.9-1.7 7.3-2.4 1.3-.4 2.4-.8 3.7-1.2l3.7-1.1c1.3-.4 2.4-.8 3.7-1.2l1.8-.6 1.8-.7c.6-.3 1.3-.4 1.8-.6l1.8-.7 3.7-1.3c1.3-.4 2.4-.8 3.7-1.2 1-.3 2.1-.6 3-.8.3-.1.4-.1.7-.2l1.8-.4 2-.5c.7-.2 1.4-.3 2.1-.5.3-.1.8-.2 1.1-.3.2-.1.4-.1.6-.2.1 0 .3-.1.3-.1 1.1-.3 2.3-.7 3.3-1 1.3-.4 2.4-.8 3.6-1.3 1.3-.4 2.4-.8 3.6-1.3l1.8-.7 1.8-.7c1.3-.5 2.4-.9 3.6-1.3 1.3-.4 2.4-.8 3.6-1.3 1.3-.4 2.4-.7 3.7-1l1.9-.5c.7-.2 1.3-.3 1.8-.6 2.4-.8 4.9-1.8 7.2-2.7 9.7-3.6 19.6-6.4 29.3-9.9 2.4-.9 4.9-1.8 7.2-2.7l7.2-2.7c1.3-.4 2.4-.9 3.6-1.3 1.3-.4 2.4-.8 3.6-1.3 2.4-.8 4.9-1.7 7.3-2.4.8-.3 1.7-.6 2.4-.8 2.1-.7 4-1.3 6.1-2 6.9-2.3 13.9-4.5 20.7-7 4.9-1.8 9.7-3.4 14.6-5.1 4.9-1.7 9.8-3.3 14.7-4.9l14.7-4.9c4.9-1.7 9.7-3.3 14.7-5 9.7-3.4 19.3-7.2 29-10.8l2.4-.8 1.3-.4 1.9-.7 4.6-1.7 2.6-.9 12.5-4.4 3.9-1.4 14.6-5.1L317 76l5.3-1.9c1.8-.6 3.4-1.3 5.2-1.8 1-.3 2-.7 2.9-1.1 1.3-.4 2.4-.9 3.8-1.3.3-.1.7-.3 1-.3.3-.1.6-.2.8-.3.3-.1.6-.2.8-.3 4.9-1.7 9.7-3.3 14.6-5.1 2.4-.9 4.9-1.8 7.2-2.7 2.4-.9 4.8-1.9 7.1-2.9l7.1-2.9 7.1-2.9c2.4-1 4.8-1.8 6.7-3.1 1-.6 1.8-1.3 2.5-2.3.7-.8 1.1-1.8 1.3-2.9.4-2.2 0-4.5-.7-6.9-.3-1.2-.8-2.4-1.3-3.5l-1.1-3.8c-1.8-4.9-3.4-9.7-5.1-14.6-1.8-4.9-3.3-9.7-5-14.7 0-.1-.1-.3-.1-.3-.1-.2-.1-.3-.2-.4h2.2l.2.3c1.8 4.7 3.4 9.5 5.1 14.2l5.1 14.6 1.3 3.6c.4 1.3.8 2.4 1.3 3.7.4 1.3.7 2.5.8 3.9.8 1.8.8 3.1.4 4.4z"/></g><path fill="#E3EAF2" d="M317.3 76.1c0 .6-.1 1.2-.1 1.8 0 .4-.1.8-.1 1.3v.3c-2.8 1.1-7.9 2.9-14.6 5.3-2.7 1-5.7 2.1-8.9 3.1-4.8 1.8-10.1 3.5-15.6 5.5-.7.3-1.3.5-2.1.8-1.8.6-3.4 1.3-5.2 1.8l-1.8.6c-.4.2-.8.3-1.3.4l-18.2 6.4c-11.5 4-23.3 8.1-34.1 11.9-13.3 4.7-25.3 8.9-33.7 11.8-3.9 1.4-6.9 2.4-9.2 3.3-.4.2-.8.3-1.2.4l-2.4.4-9.1 1.5-10.1 1.8-97.1 16.2-1.2.2-4.2.8-1.1.3-1.8.3-18.6 3.1c-1.7-.2-1.8-.8-.6-1.8 1.3-1.2 4.2-2.7 8.2-4.6.9-.4 1.8-.8 2.8-1.3 2.4-1.1 5-2.3 7.9-3.4 1.8-.8 3.7-1.6 5.7-2.4 1-.4 2.1-.8 3.1-1.3 37.9-15.4 98.9-37.1 88-34.9-31.8 6.5-63 15.6-93.3 27.2-5.9 2.3-11.7 4.6-17.5 7-2.2.8-4.2 1.9-6.3 3-1.2.8-2.3 1.6-3.2 2.4-1.4 1.4-2.5 2.9-3.4 4.7-.7 1.3-1.3 2.6-1.8 4-.2.5-.3.9-.5 1.4-.2.5-.3 1-.5 1.6-.3.8-.5 1.7-.8 2.4-.5 1.7-1.1 3.3-1.8 4.8-.1.3-.2.4-.3.7 0 .1-.1.2-.1.3-.5 1.2-1 2.3-1.6 3.3-2.3 4.4-5.2 8.3-8.6 11.8V.6h43c.4-.2.8-.3 1.3-.4H300c.1.2.1.3.2.4 6.2 13.6 11.2 27.7 14 42.1.2.8.3 1.5.4 2.3.4 2.1.8 4.2 1.1 6.3l.3 1.8c.1.6.2 1.2.3 1.7.2 1.3.3 2.6.4 3.9.1.7.2 1.3.2 2 .1.8.2 1.7.2 2.4.3 4.3.4 8.7.2 13z"/><path fill="#E8EDF4" d="M365 38c-.2.3-.3.6-.6.8-1.8 2.2-4.6 3.3-7.2 4.4-8.7 3.4-17.5 6.7-26.2 10.1-.4.2-.9.3-1.3.5-.6.3-1.3.5-1.8.7-3.7 1.4-7.3 2.8-11.1 4.1-17.6 6.6-35.3 13-53.1 19.3-.4.2-.8.3-1.3.4-.3.1-.4.2-.7.3-12.9 4.6-25.9 9.2-39 13.7-44.2 15.4-88.7 30.3-132.9 45.8-1.6.6-3.2 1.2-4.8 1.7-2.9 1-5.7 2-8.6 2.9-8.3 2.9-16.5 5.7-24.9 8.4-1.3.4-2.7.9-4 1.3l-1.2.4c-.5.2-1.1.3-1.6.5-1.9.7-3.7 1.3-5.6 1.9-5.6 1.9-11.2 3.8-16.9 5.6-3.4 1.2-7 2.3-10.5 3.4-3.5 1.2-7 2.3-10.6 3.5V.2h354.2c.1.2.1.3.2.4 3 8.6 6.1 17.4 9.2 26 1.3 3.7 2.4 7.9.3 11.4z"/><path fill="#EDF1F6" d="M365 38c-.2.3-.3.6-.6.8-1.8 2.2-4.6 3.3-7.2 4.4-8.7 3.4-17.5 6.7-26.2 10.1-.4.2-.9.3-1.3.5-.6.3-1.3.5-1.8.7-3.7 1.4-7.3 2.8-11.1 4.1-17.6 6.6-35.3 13-53.1 19.3-.4.2-.8.3-1.3.4-.3.1-.4.2-.7.3-12.9 4.6-25.9 9.2-39 13.7-44.2 15.4-88.7 30.3-132.9 45.8-1.6.6-3.2 1.2-4.8 1.7-2.8 1-5.6 2-8.5 2.9-7.9 2.8-15.9 5.5-23.9 8.2-1.8.6-3.4 1.2-5.1 1.8-.4.2-.8.3-1.2.4-.5.2-1.1.3-1.6.6-1.8.6-3.5 1.3-5.4 1.8-8.7 2.9-17.4 6-26.1 8.9-.7.3-1.3.4-1.9.7l-1.8.6c-.8.3-1.6.6-2.4.8-.9.3-1.8.7-2.8.9-.9.3-1.8.6-2.6.9-.3.1-.5.2-.8.3V140c23.1-6.4 44.5-17.7 62.7-33.2 12.3-10.4 22.8-22.5 31.6-36 1.5-2.3 2.9-4.7 4.3-7.1.3-.6.7-1.2 1-1.8.3-.4.5-.8.8-1.3 8.1-14.8 14.8-30.7 21.7-46.4.3-.8.8-1.6 1.1-2.4 0-.1.1-.2.1-.3.3-.7.7-1.4.9-2.1.2-.4.4-.9.6-1.3.3-.6.6-1.3.8-1.8.3-.8.8-1.6 1.1-2.4.6-1.3 1.2-2.4 1.8-3.6.1-.2.1-.3.2-.4h225.8c.1.2.1.3.2.4 3 8.6 6.1 17.4 9.2 26 1.2 4 2.3 8.2.2 11.7z"/><g fill="#DFE6EF"><path d="M205.2 22.9c-.1.3-.3.5-.5.8-.5.5-1.1.8-1.7 1.2-28.4 15.5-63 23.5-93.4 34.1-2.9 1.1-6 2.1-8.8 3.1-9.7 3.4-19.5 6.7-29 10.2-5.6 2-11.2 7.6-16.8 5.2-8.7-4-10.2-21.2-12.9-29-2.4-6.8-17-36.4-10.7-41.3 3.7-2.8 9.4-4.8 15.4-6.5.4-.2.9-.3 1.3-.4H198c.1.2.1.3.2.4.5 1.5 1.1 2.9 1.6 4.4 1 3.2 6.6 15.2 5.4 17.8z"/><path d="M206.7 19.9c-.3-1.3-.7-2.4-1.1-3.7-.8-2.4-1.8-4.6-2.8-6.8-.5-1.2-1.1-2.3-1.6-3.3l-.3-.8c-.1-.3-.3-.5-.3-.8-.3-.6-.4-1.2-.7-1.8-.3-.7-.5-1.4-.8-2.1-.1-.2-.1-.3-.2-.4h-2.4c.1.2.1.3.2.4.3.9.7 1.9 1 2.8l.6 1.8.3.9.3.9c.4 1.2.8 2.3 1.3 3.4.8 2.3 1.8 4.5 2.4 6.7.3 1.1.7 2.3.9 3.3.1.5.2 1 .2 1.5v.4c-.1.1-.1.3-.2.3-.3.3-.7.6-1.1.8l-1.6.8-3.2 1.8-6.5 3.3c-1.1.5-2.3 1.1-3.3 1.6l-1.7.8c-.6.3-1.2.5-1.8.7-1.2.4-2.3.8-3.4 1.3-1.2.4-2.3.9-3.4 1.4-1.2.5-2.3 1-3.3 1.5l-1.7.8-1.8.7c-1.2.4-2.3.8-3.4 1.3l-3.4 1.2c-1.2.4-2.3.8-3.4 1.1l-3.4 1.1c-2.3.8-4.7 1.4-7 2.2l-3.4 1.1c-1.2.3-2.3.8-3.4 1.1-1.2.4-2.3.8-3.4 1.2l-3.4 1.3c-2.3.8-4.6 1.7-6.9 2.3l-7 2.2-1.8.6-1.8.6-3.4 1.2-6.9 2.4c-2.4.8-4.7 1.7-7.1 2.4-2.3.8-4.5 1.6-6.7 2.3l-3.4 1.2c-1.2.4-2.3.8-3.4 1.1l-3.5 1-1.8.6c-.6.2-1.2.3-1.8.6-2.3.8-4.5 1.9-6.8 2.7-.6.3-1.2.4-1.8.6l-.9.3c-.3.1-.7.2-1 .3-1.3.4-2.4.9-3.5 1.6-2.2 1.2-4.3 2.4-6.4 3-1 .3-2 .5-2.9.5-.5 0-.9-.1-1.4-.3-.3-.1-.4-.2-.7-.3s-.4-.3-.7-.3c-1.8-1-3.1-2.8-4.2-4.7-.6-1-1-2.1-1.4-3.1-.4-1.1-.8-2.3-1.1-3.3-.7-2.3-1.2-4.6-1.8-7-.6-2.4-1.3-4.8-2.2-7.1-.3-.6-.5-1.2-.8-1.8-.3-.6-.6-1.2-.8-1.8-.5-1.2-1-2.3-1.5-3.4-.8-2.3-1.3-4.8-2.3-7-.9-2.3-1.9-4.4-2.9-6.7-.5-1.1-1-2.3-1.5-3.3-.3-.6-.5-1.1-.8-1.7l-.7-1.8c-.8-2.3-1.4-4.5-1.8-6.9-.2-1.2-.3-2.3-.3-3.4s.1-2.1.4-3c.1-.3.3-.7.6-.9l.2-.2c.1-.1.3-.2.3-.3.3-.2.5-.3.8-.5.5-.3 1-.7 1.5-.9l.8-.4c.3-.2.5-.3.8-.4 1.1-.9 2.2-1.4 3.2-1.9 1.1-.4 2.3-.9 3.4-1.3 2.9-1.1 5.9-1.9 8.8-2.8.4-.2.8-.3 1.3-.4h-7.6c-.4.2-.8.3-1.3.4-.7.2-1.3.4-1.9.6-2.4.8-4.7 1.7-6.9 2.7-.3.2-.6.3-.8.4l-.8.5c-.6.3-1.1.6-1.7 1l-.8.6c-.2.1-.3.2-.4.3-.2.1-.3.3-.4.4-.5.6-.8 1.2-1.1 1.9-.2.7-.3 1.3-.3 2V13c.1 1.3.3 2.4.6 3.7.5 2.4 1.2 4.8 1.8 7.1.8 2.4 1.4 4.7 2.2 7 .4 1.2.8 2.3 1.3 3.4.4 1.2.8 2.3 1.3 3.4.3.6.5 1.2.8 1.7l.8 1.7c.6 1.1 1.1 2.2 1.6 3.3.5 1.1.9 2.3 1.3 3.4.2.6.4 1.2.5 1.8.2.6.3 1.2.4 1.8l.7 3.5c.1.6.3 1.3.3 1.8.2.6.3 1.3.4 1.8.6 2.4 1.3 4.8 2 7.1.8 2.4 1.8 4.8 2.9 7 .6 1.2 1.3 2.3 2.3 3.2.9 1.1 1.9 2 3.1 2.6 1.3.8 2.6 1.3 4.1 1.3 1.4 0 2.8-.2 4.1-.7 2.5-.9 4.7-2.3 6.7-3.3l3-1.7c.3-.2.5-.3.8-.3.3-.1.6-.3.8-.3.6-.3 1.2-.4 1.8-.7 2.3-.8 4.7-1.3 7.1-2.1l1.8-.6c.6-.3 1.2-.4 1.8-.7l3.4-1.4c1.2-.4 2.3-.9 3.4-1.3l3.4-1.3c1.4-.5 2.9-1 4.3-1.5 3.2-1.1 6.5-2.2 9.7-3.1 4.7-1.4 9.3-2.8 13.9-4.4 1.2-.4 2.3-.8 3.4-1.3 1.2-.4 2.3-.8 3.4-1.3 2.3-.8 4.6-1.5 7-2.2l3.5-.9c1.2-.3 2.4-.7 3.5-1 1.2-.3 2.3-.8 3.4-1.2l3.4-1.2c1.2-.4 2.3-.8 3.4-1.3l3.4-1.3L165 42l6.9-2.5c.6-.3 1.2-.4 1.8-.6l1.8-.6c1.2-.4 2.3-.8 3.4-1.2s2.3-.8 3.4-1.3c1.2-.5 2.3-1.1 3.3-1.6 2.3-1 4.4-2 6.7-2.9 2.3-1 4.5-2 6.7-3 1.1-.6 2.3-1.1 3.3-1.7l1.7-.8c.7-.3 1.3-.8 1.9-1.3.3-.3.6-.8.8-1.3.1-.2.1-.3.2-.4 0-.2.1-.3.1-.4 0-.3.1-.4.1-.7-.2-.4-.2-1.1-.4-1.8z"/></g><g fill="#F4F6F8"><path d="M54.6 175.1l-5.1 1.8-2.7.9-45.5 16v-33.5l13.6-4.8 18.4-6.5 4.3-1.5 6-2 .5 1.2 2 5.3.2.8.1.2 5.7 15.2.4 1.2.3 1"/><path d="M54.6 171.9c-.3-.6-.5-1.3-.8-1.8-.2-.3-.3-.7-.4-.9-.2-.4-.3-.8-.5-1.2 0-.1-.1-.1-.1-.2-.6-1.2-1-2.4-1.4-3.7-.2-.7-.3-1.3-.5-1.9-.2-.7-.4-1.3-.7-1.9l-.8-1.9c-.3-.7-.5-1.3-.8-1.9-.3-.7-.4-1.3-.6-1.9-.2-.7-.4-1.3-.6-1.9 0-.1 0-.2-.1-.3-.1-.3-.1-.4-.2-.7-.3-1.1-.6-2.1-1.1-2.9-.3-.6-.7-1.3-1-1.8-.1-.2-.1-.3-.2-.4-.2-.5-.3-1.1-.4-1.6-.1-.3-.3-.7-.8-.8-.2-.1-.3-.1-.5 0l-.3.1c-1.5.3-2.9.9-4.2 1.5-.7.3-1.4.5-2.2.7-.8.2-1.5.3-2.3.4-1.5.3-2.9.8-4.2 1.5-.2.1-.3.1-.4.2-1.3.6-2.4 1-3.8 1.4-.8.2-1.5.3-2.2.6-.8.3-1.4.5-2.1.8-1.4.6-2.7 1.3-4.1 1.8-.7.3-1.4.6-2.1.8-.2.1-.3.1-.4.2-.6.3-1.1.4-1.7.6-1.4.4-2.9.8-4.4 1.2-2.7.9-5.5 2-8.1 3.1v3l.7-.2c3.1-.9 5.9-1.9 8.7-2.9.7-.3 1.3-.7 2.1-1l1.3-.3c.3-.2.6-.3.9-.4.1 0 .1 0 .2-.1.7-.3 1.4-.6 2.1-.8.8-.3 1.4-.5 2.2-.7l4.3-1.3c.8-.3 1.4-.4 2.1-.7.8-.3 1.4-.6 2.1-.9 1.4-.6 2.8-1 4.3-1.3 1.5-.3 2.9-.8 4.2-1.4.7-.3 1.3-.7 2.1-1 .7-.3 1.4-.5 2.2-.7l1.1-.3c.3-.1.8-.2 1.1-.3l.5-.2c.1 0 .2-.1.3-.1-.1-.3-.2-.4-.3-.7v-.1c-.2-.3-.3-.6-.4-.8l1.7.8.3.2c-.3.2-.7.3-1 .5-.1 0-.2.1-.3.1 0 .1.1.2.1.2.2.7.3 1.3.3 1.9.2 1 .5 1.9 1 2.7.2.3.3.6.4.8.1.1.1.2.1.3 0 .1.1.2.1.3.3.4.4.8.7 1.3.3.6.6 1.2.8 1.8.3.6.5 1.2.7 1.8.2.6.3 1.2.5 1.8.2.6.4 1.3.8 1.8.3.6.7 1.3.9 1.8.6 1.2 1.1 2.3 1.4 3.6.1.3.2.7.3 1.1s.3.9.5 1.4c.1.3.3.7.3 1 0 .1 0 .1.1.2.4 1.2.9 2.4 1.4 3.6-1.3.5-2.5.9-3.9 1.4-.1 0-.2.1-.2.1-.9.3-1.8.8-2.7 1.1-.4.2-.8.3-1.3.5-.7.3-1.5.4-2.3.7-.8.2-1.4.4-2.1.8l-1.9.8c-.7.3-1.3.6-2.1.8-1.4.5-2.9.9-4.3 1.3-1.5.4-2.9.8-4.4 1.3-.8.3-1.4.5-2.2.7-.7.3-1.4.5-2.1.8-1.3.6-2.5 1.3-3.9 1.8s-2.8.9-4.2 1.4l-4.2 1.5-4.2 1.5c-1.4.5-2.8 1-4.2 1.4l-2.1.6v2.8c.4-.2.8-.3 1.2-.5.7-.3 1.4-.5 2.2-.8 2.8-1.1 5.8-1.9 8.8-2.7 1.5-.4 2.9-.9 4.4-1.4 1.4-.6 2.6-1.3 4-1.8 1.4-.6 2.9-.9 4.4-1.3.8-.3 1.5-.5 2.2-.8.7-.3 1.4-.6 2.1-.8 1.4-.6 2.7-1.2 4-1.8 1.3-.6 2.6-1.2 4-1.8.8-.3 1.4-.6 2.2-.8l2.3-.7c.8-.2 1.5-.5 2.2-.8.7-.3 1.3-.6 2-.8.2-.1.4-.2.6-.2.4-.2.9-.3 1.4-.5.8-.3 1.7-.5 2.4-.8 1.5-.5 2.9-1 4.4-1.5-.4-1.9-.9-3.2-1.4-4.5z"/></g><g fill="#ECF1F5"><path d="M339.2 79.5l-67.6 23.7-11.3-30.7 67.5-23.7"/><path d="M267.1 87.4c-.3-.6-.6-1.3-.7-1.9-.1-.7-.1-1.4-.3-2.1-.2-.7-.4-1.3-.7-1.9-.3-.4-.4-.8-.7-1.3-.1-.2-.2-.3-.3-.5l-1-1.8c-.4.2-.8.3-1.3.4l.8 2 2.9 7.9 1.5-.2c.1-.2-.1-.4-.2-.6zm-2.5-7.8l-1-1.7c-.4.2-.8.3-1.3.4l.8 2 1.8-.2c0-.2-.2-.4-.3-.5zm74.6-3.5c-.3-.8-.7-1.7-1-2.4-.3-.6-.5-1.1-.8-1.7-.1-.3-.3-.4-.3-.7-.1-.3-.3-.5-.3-.8-.2-.4-.3-.8-.5-1.3-.2-.4-.3-.8-.4-1.3-.2-.7-.3-1.3-.6-2-.1-.3-.3-.7-.3-1-.2-.3-.3-.7-.4-1-.6-1.3-1.2-2.6-1.7-3.9l-1.2-3.9c-.3-1.1-.6-2.1-1-3-.2-.3-.3-.6-.5-.8-.2-.3-.3-.7-.5-.9-.2-.3-.3-.7-.4-1-.3-.7-.4-1.3-.6-2.1-.2-.6-.8-.9-1.3-.8l-.3.1c-1.5.3-2.8 1-4.2 1.6-.8.3-1.4.5-2.2.7-.8.2-1.5.3-2.3.4-1 .3-2 .6-2.9 1-1.8.8-3.5 1.7-5.5 2.1-.8.2-1.5.3-2.2.6-.7.3-1.4.6-2.1.8l-4.1 1.8c-.3.2-.7.3-1 .4-.3.2-.7.3-1.1.4-.7.3-1.4.5-2.2.8-1.4.4-2.9.8-4.4 1.2-2.8 1-5.6 2.1-8.4 3.2-1.4.6-2.8 1.2-4.1 1.8-1.4.6-2.7 1.3-4.1 1.8-.7.3-1.4.5-2.1.8-.8.3-1.4.4-2.2.7-1.4.4-2.8.9-4.3 1.4l-4.2 1.5c-1.4.5-2.8 1-4.2 1.6h-.1c-.3.2-.5.5-.3.8l.8 1.9c.3.7.5 1.3.8 1.9.3.7.4 1.3.6 2 .2.6.3 1.3.5 1.8v.1c.2.7.3 1.3.6 2 .2.7.4 1.3.8 1.9.3.6.7 1.3 1 1.8.3.6.5 1.3.7 1.9v.2c.3 1.3.5 2.6 1 3.9.2.7.5 1.3.7 1.9v.1l.7 1.8.1.2c.2.3.3.7.4 1.1 0 .1.1.2.1.3.8 2.2 1.5 4.3 2.3 6.5.3.8 1.1 1.1 1.8.9h.1l2.2-.7 2.2-.8c1-.3 1.8-.8 2.6-1.2.5-.3 1-.4 1.6-.5l.5-.1.6-.1 1.2-.3c.8-.3 1.4-.5 2.2-.8.7-.3 1.3-.7 2.1-.9.7-.3 1.4-.5 2.2-.8 2.9-1 5.8-1.9 8.8-2.7 1.5-.4 2.9-.9 4.4-1.4 1.4-.6 2.6-1.3 4.1-1.8 1.4-.6 2.9-.9 4.4-1.3.8-.3 1.5-.5 2.2-.8.7-.3 1.4-.6 2.1-.8 1.4-.6 2.7-1.2 4-1.8s2.6-1.2 4-1.8c.8-.3 1.4-.5 2.2-.8l2.3-.7c.8-.2 1.5-.5 2.2-.8.6-.3 1.2-.6 1.8-.8.1 0 .2-.1.2-.1.9-.3 1.8-.7 2.7-.9.6-.2 1.1-.3 1.7-.5h.1c1.5-.5 2.9-1 4.4-1.5-.7-1.7-1.2-2.9-1.7-4.4zm-78.5-2.2l.8-1.8c.2.5.3 1 .4 1.5l.9-.3c.8-.3 1.4-.5 2.2-.8 1.4-.5 2.8-1.1 4.2-1.7 1.4-.6 2.8-1.2 4.1-1.8.7-.3 1.4-.7 2.1-.9.7-.3 1.4-.5 2.2-.8 1.4-.4 2.9-.7 4.4-1 .8-.2 1.5-.4 2.2-.6l2.2-.7c2.9-.8 5.7-1.8 8.5-2.9.7-.3 1.3-.7 2.1-1 .7-.3 1.3-.8 2.1-1 .7-.3 1.4-.6 2.1-.8.3-.2.8-.3 1.1-.3.3-.1.8-.3 1.1-.3l4.3-1.3c.8-.3 1.4-.4 2.2-.7.8-.3 1.4-.6 2.1-.9 1.6-.8 3.2-1.2 5-1.6 1.3-.3 2.4-.7 3.6-1.2l2-1c.7-.3 1.4-.6 2.1-.8.8-.2 1.5-.3 2.3-.5.3-.1.5-.2.8-.3-.1-.3-.3-.4-.3-.7l-.5-.9 2.2 1.1c-.4.3-.8.4-1.3.5 0 .1.1.2.1.3.1.3.3.7.3.9.1.3.1.7.2 1 0 .4.1.8.3 1.3.3.8.7 1.7 1.1 2.4.7 1.2 1.3 2.4 1.8 3.6.3.6.5 1.3.8 1.8.3.6.3 1.3.6 1.8.2.7.4 1.3.7 1.8.3.6.7 1.3 1 1.9.4.8.8 1.5 1.1 2.3.2.4.3.9.4 1.3 0 .1 0 .1.1.2.1.3.2.4.3.7l.6 1.8c.2.4.3.8.5 1.3.4 1.3 1 2.4 1.5 3.7-1.4.5-2.7 1-4 1.5-.9.3-1.8.7-2.6 1.1-.4.2-.9.3-1.3.5-.7.3-1.4.4-2.2.7h-.1c-.8.2-1.4.4-2.1.8l-1.9.8c-.7.3-1.3.5-2.1.8-1.4.5-2.9.9-4.3 1.3-1.5.4-2.9.8-4.4 1.3-.8.3-1.4.5-2.2.7-.7.3-1.4.5-2.1.8-1.3.6-2.5 1.3-3.9 1.8s-2.8.9-4.2 1.4l-4.2 1.5-4.2 1.5c-1.4.5-2.8 1-4.2 1.4-.8.3-1.4.4-2.2.7-.8.2-1.5.3-2.3.5-.8.2-1.4.4-2.2.7-.3.1-.6.3-.9.4 0 0-.1 0-.1.1l-1 .5c-.5.3-1.1.4-1.7.5-.9.2-1.9.3-2.7.6l-2.1.7-.5.2.6 1.6-2.2-1 1.6-.6c-.6-1.7-1.2-3.2-1.8-4.9 0-.1-.1-.2-.1-.3-.1-.4-.3-.8-.3-1.2v-.3l-.6-1.8v-.1c-.2-.7-.4-1.3-.7-1.9-.4-1.1-1.2-2-1.8-2.9-.2-.3-.3-.4-.3-.7-.3-.6-.6-1.3-.7-1.9-.1-.7-.1-1.4-.3-2.1-.2-.7-.4-1.3-.7-1.9-.3-.4-.4-.8-.7-1.3-.1-.2-.2-.3-.3-.5l-1-1.8v.2c-.2-.3-.3-.6-.5-.9l-.4-.9c-.3-.8-.6-1.6-.8-2.4-1 0-1.4.1-1.9.2.1 0 0 0 0 0zm6.4 13.5c-.3-.6-.6-1.3-.7-1.9-.1-.7-.1-1.4-.3-2.1-.2-.7-.4-1.3-.7-1.9-.3-.4-.4-.8-.7-1.3-.1-.2-.2-.3-.3-.5l-1-1.8c-.4.2-.8.3-1.3.4l.8 2 2.9 7.9 1.5-.2c.1-.2-.1-.4-.2-.6zm0 0c-.3-.6-.6-1.3-.7-1.9-.1-.7-.1-1.4-.3-2.1-.2-.7-.4-1.3-.7-1.9-.3-.4-.4-.8-.7-1.3-.1-.2-.2-.3-.3-.5l-1-1.8c-.4.2-.8.3-1.3.4l.8 2 2.9 7.9 1.5-.2c.1-.2-.1-.4-.2-.6z"/></g><g fill="#E8EDF4"><path d="M147.9.2c-.3.2-.5.3-.8.4-.3.1-.5.3-.8.3-2.2 1-4.4 2-6.5 2.9L137.1 5c-2.3.9-4.4 1.8-6.6 2.6-.9.3-1.8.8-2.8 1.1-.8.3-1.7.6-2.5.9-.8.3-1.8.6-2.5.9-.9.3-1.9.7-2.9 1-2.4.8-4.9 1.7-7.3 2.4-.8.3-1.7.5-2.5.8-2.4.8-4.7 1.4-7.1 2.1-.8.3-1.7.5-2.5.7-2.3.6-4.4 1.2-6.7 1.8-1.1.3-2.2.6-3.3.8-1.9.5-3.9.9-5.9 1.4-1.1.3-2.3.5-3.3.8-1.6.3-3.1.8-4.7 1.1-1 .3-2 .4-2.9.7-1.7.3-3.3.8-5 1.1-.4.1-.8.2-1.3.3-.8.2-1.5.5-2.2.9-.4.3-.8.7-1.1 1.2-.6 1-.5 2.3-.3 3.4.8 6.8 2.4 13.7 4.5 20.2 1.1 3.4-.8 7.1-4.2 8.4l-2 .8c-3.5 1.3-7.3-.7-8.6-4.1 0-.1 0-.1-.1-.2-4.1-12.5-10.9-26-12.7-39C39.8 10.8 65 5.5 70.8 3.4c2.7-1 5.5-1.9 8.1-2.9.3-.2.8-.3 1.1-.4l67.9.1zM188.1 16.2l-2.1.8c-3.5 1.3-7.3-.7-8.6-4.1 0-.1 0-.1-.1-.2-1.3-4-2.4-8.1-4-11.9-.1-.2-.1-.3-.2-.4h16.5c.1.2.1.3.2.4.8 2.3 1.7 4.6 2.4 6.9 1.3 3.4-.5 7.2-4.1 8.5z"/><path d="M194.1 8.5c-.1-.3-.2-.7-.3-.9l-.1-.6-.1-.3-.6-1.5c-.6-1.6-1.3-3.1-1.9-4.7-.1-.2-.1-.3-.2-.4h-2.5c.1.2.1.3.1.4.6 1.9 1.2 3.7 1.8 5.6.2.5.3 1 .5 1.5l.2.3.1.3c.1.2.1.4.2.6.1.8.1 1.7-.3 2.4-.5 1.6-1.7 2.8-3.2 3.4l-1.2.4-.8.3c-.1 0-.2.1-.3.1-.6.2-1.3.3-1.8.3-1.3-.1-2.4-.6-3.4-1.4-.5-.4-.9-.9-1.2-1.5-.1-.2-.2-.3-.3-.4-.1-.2-.2-.3-.2-.5l-.4-1.2c-.6-1.5-1.1-2.9-1.6-4.5-.5-1.5-.9-3.1-1.4-4.6l-.3-.8-.1-.1c0-.1-.1-.2-.1-.3h-3c0 .1.1.2.1.3 0 .1.1.1.1.2.1.3.3.7.3.9l.5 1c.6 1.5 1.3 2.9 1.8 4.4s1 3 1.4 4.5l.3 1.2c.1.2.2.4.3.7s.2.4.3.7c.4.9 1 1.7 1.7 2.4 1.4 1.4 3.3 2.3 5.2 2.3 1 .1 2-.1 2.9-.3.1 0 .3-.1.3-.1l.3-.1.6-.2 1.2-.4c2.4-.9 4.4-2.9 5.1-5.4.1-1.4.2-2.8 0-4zM144.7.2l-.3.2c-.2.1-.3.2-.5.3-.3.2-.6.3-.9.5l-1.3.7-2.4 1.3-.3.1-1.4.7c-.3.2-.6.3-.9.4l-.5.3-2.9 1.2c-1 .4-2.1.8-3 1.2-.9.3-1.8.7-2.8 1h-.1c-.5.2-1 .3-1.4.5-1.1.4-2.2.8-3.1 1.2-.4.2-.8.3-1.2.4-.7.3-1.3.5-2.1.8-2.3.8-4.5 1.6-6.8 2.3-1.1.3-2.2.7-3.3 1-2.2.7-4.3 1.3-6.5 1.8-1.1.3-2.3.6-3.3.8-.7.2-1.3.3-2 .5-1 .3-2.1.5-3 .7l-2.1.4-1 .2c-.8.2-1.4.3-2.1.4-1.3.3-2.6.7-3.9 1.1-.7.2-1.3.4-2 .6-1 .3-2 .6-2.9.8-.3.1-.8.2-1.1.2l-1.4-.2c-.5.1-1.1.1-1.6.3-.3.1-.6.1-.8.2-.8.2-1.5.3-2.3.4l-.7.3-2.5.5c-1 .3-2 .4-3 .7h-.1c-.6.2-1.2.4-1.8.7-.1 0-.2.1-.3.1-.6.3-1.1.7-1.5 1.2-.6.6-1 1.3-1.2 2.1-.2.7-.3 1.4-.3 2.1 0 .6.1 1.2.2 1.8l.2 1.6c.2 1.1.3 2.1.5 3.1.3 2.1.8 4.2 1.2 6.3.4 2.1.9 4.1 1.5 6.2.2.5.3 1 .4 1.6.2.5.3 1 .5 1.5.1.2.1.3.1.3l.1.3c0 .2.1.3.1.6 0 .2.1.3.1.6v.6c0 .4-.1.8-.2 1.2-.1.4-.3.8-.4 1.2-.3.8-.9 1.4-1.7 1.8-.2.1-.3.3-.6.3l-.3-.3-.3.2c-.5.2-1 .3-1.5.5l-.4.1-.3.1c-.2 0-.4.1-.7.1-.4 0-.8-.1-1.3-.2-.8-.3-1.4-.5-2.1-1-.7-.4-1.2-.9-1.6-1.5-.1-.1-.1-.2-.2-.3v-.2c-.1-.2-.2-.3-.3-.5l-.6-1.4c-.4-1-.8-2-1.3-2.9-1.8-3.8-3.4-7.6-4.7-11.6-.3-1-.7-2-1-2.9-.3-1-.6-2-.9-2.9-.6-2-1.3-3.9-1.9-5.9-.6-2-1.2-3.9-1.7-6-.3-1-.5-2-.7-2.9l-.3-1.5V17v-.1-.3c.1-.3.3-.6.4-.8.3-.3.6-.7.9-.9.8-.6 1.6-1.2 2.4-1.7 1.8-1.1 3.6-1.9 5.5-2.6 1.9-.8 3.9-1.3 6-1.8 2-.5 4-.9 6.1-1.4l2.9-.8c1-.3 2.1-.5 3-.8.5-.2 1-.3 1.6-.4l1.5-.5 2.9-1 2.9-1 2.9-1c1.1-.3 2.2-.8 3.2-1.2.3-.2.8-.3 1.1-.4h-9.4c-.3.2-.7.3-1 .4-.3.1-.4.2-.7.3l-2.9 1.1c-1 .6-1.8.9-2.9 1.2l-6 1.9c-2 .7-3.9 1.3-6 2s-3.9 1.4-6 2.1-3.9 1.5-5.9 2.4c-1 .5-1.9 1.1-2.8 1.8-.5.3-.9.8-1.3 1.2-.4.5-.8 1.1-.9 1.7-.1.3-.1.7-.1 1v.5l.1.4.3 1.6c.2 1.1.4 2.1.7 3.1.3 1 .5 2.1.8 3l.4 1.5.5 1.5c.3 1 .7 2 1 2.9.3 1 .8 2 1.1 2.9.8 2 1.6 3.9 2.3 5.9 1.6 3.9 3 7.7 4.3 11.8.3 1 .6 2 .9 2.9l.3.8.1.4c0 .1.1.3.2.4.1.3.2.6.3.8l.2.4c.1.2.2.3.3.4 1.3 2.2 3.5 3.4 6 3.4.3 0 .6 0 .9-.1.3 0 .6-.1.9-.2.3-.1.6-.2.8-.3l.4-.2.3-.2c.5-.2 1-.3 1.5-.5l.3-.2.4-.2c.3-.1.6-.3.8-.3 1.1-.6 2-1.3 2.7-2.3.8-1 1.3-2.1 1.5-3.3.2-.9.2-1.8 0-2.7l.3-.4c0-.2-.1-.3-.1-.4-.3-1-.6-2-.9-2.9-.6-2-1.2-3.9-1.7-6-.5-2-.9-4-1.3-6-.2-1-.3-2.1-.4-3l-.2-1.6v-1.4c0-.4 0-.8.2-1.2 0-.1 0-.1.1-.2.1-.3.3-.4.4-.6.6-.5 1.3-.8 2.1-1 .9-.3 2-.4 2.9-.7l2.9-.7h.1c1-.3 2-.4 2.9-.7h.2c.5-.2 1-.3 1.5-.4l1.5-.5c.7-.2 1.4-.3 2.1-.5.9-.2 1.8-.3 2.8-.5l1.3-.2c1.7-.3 3.3-.6 5-1.1 1-.3 2-.6 2.9-.9 1.4-.4 2.8-.9 4.3-1.3l2.6-.8.3-.1c.8-.3 1.5-.4 2.3-.7.3-.1.5-.2.8-.2l3-.8c1-.3 2-.6 3-.8l.3-.1 2.5-.7h.2l3-.8c1.7-.5 3.3-.9 5-1.5.3-.1.7-.3 1.1-.3l1.8-.6c.1 0 .2-.1.3-.1 1.3-.4 2.5-.9 3.9-1.4.4-.2.8-.3 1.1-.4.6-.3 1.3-.5 1.8-.8.3-.1.6-.3.9-.4.7-.3 1.3-.6 2-.9l2.9-1.3c.3-.2.8-.3 1.1-.4.2-.1.3-.1.3-.2l1.5-.6 1.3-.5 1.6-.7 1.5-.6c.5-.3 1-.4 1.5-.7.7-.3 1.3-.6 1.9-.9.9-.4 1.8-.9 2.6-1.3.3-.2.6-.3.8-.4.1-.1.2-.1.3-.2.2-.1.3-.2.4-.3l-7.5.4z"/></g><path fill="#E3EAF2" d="M354.3 24.2c-.1-.8-.3-1.7-.5-2.4s-.4-1.5-.6-2.3c-.8-3-1.6-6-2.4-9.1L349.6 6c-.4-1.5-.9-2.9-1.3-4.4-.1-.3-.2-.6-.3-.8 0-.2-.1-.3-.1-.4h-3.4l.1.4.6 1.8c.9 2.9 1.8 6 2.8 8.9.9 2.9 1.9 6 2.7 8.9.4 1.5.9 2.9 1.2 4.4.3 1.4.2 2.8-.4 3.9-.6 1.2-1.8 2-3 2.6-1.4.7-2.8 1.2-4.2 1.6l-17.6 6c-2.9 1-5.9 2-8.8 2.9l-3.3 1.1-1.2.4-4.4 1.4c-6 1.9-12 3.3-17.8 5.4-2.9 1.1-5.8 2.3-8.8 3-1.5.4-3 .7-4.5 1.2l-4.5 1.3c-2.9.9-6 1.9-8.9 2.9l-8.8 2.7-1.1.3-.6.2c-.2.1-.5.2-.7.3-.9.4-1.8.9-2.4 1.7-2.3 2.1-3.1 5.2-2.4 8.1.1.5.3 1 .5 1.4.1.3.3.4.3.7 0 .1 0 .2-.1.3-.1.3-.3.6-.3.9-.2.3-.3.8-.5 1.3 0 .1-.1.2-.1.3-1.7.6-3.3 1.1-5 1.7-2.1.8-4 1.5-6 2.4-1 .4-2 .9-2.9 1.3-1 .4-2 .8-2.9 1.3-.2.1-.3.1-.3.2-1.9.8-3.8 1.3-5.8 1.8-2.1.5-4.2 1-6.3 1.7-2.1.7-4 1.4-6.1 2.3l-6 2.4-2.9 1.3-3 1.2c-.8.3-1.4.5-2.2.8-.3.1-.6.3-.9.3-1 .3-2.1.7-3 1-2.1.7-4.1 1.3-6.2 1.9-4.1 1.3-8.2 2.5-12.3 4-4 1.4-8.1 2.9-12.2 4.4-4 1.5-8.1 2.9-12.1 4.5-2 .8-4 1.6-6 2.3-2.1.8-4 1.5-6.1 2.1-4.1 1.3-8.2 2.4-12.3 3.7-1 .3-2.1.7-3 1l-3 1-6.2 2-6.2 2-6.1 2.1-6.1 2.2c-2.1.8-4 1.4-6.1 2.3l-6 2.4-2.9 1.3-3 1.2c-2.1.8-4 1.4-6.1 2.2l-3 1.1-2.9.4c-4 1.3-8.1 2.5-12.1 3.9H55l-.1-.1c-.3-.3-.4-.6-.5-.9-.3-.7-.4-1.5-.7-2.3-.1-.3-.2-.6-.3-.8-.3-1.3-.7-2.4-1.2-3.5-.3-.7-.7-1.3-1.2-1.8-.6-.7-1.3-1.2-2.1-1.4-.3-.1-.5-.1-.7-.2-.2 0-.3-.1-.4-.1-.3-.1-.7-.1-1-.1-.7 0-1.3 0-1.9.1-1.3.2-2.4.4-3.6.7-2.3.6-4.5 1.3-6.7 2.2-2.3.8-4.3 1.6-6.5 2.4-2.2.8-4.3 1.7-6.5 2.4l-3.2 1.3c-1.1.4-2.2.8-3.2 1.2-2.2.8-4.4 1.3-6.7 2s-4.4 1.3-6.5 2.3v3l.9-.3c1.1-.3 2.3-.7 3.3-1.1 1-.4 2.2-.8 3.3-1.2 2.2-.8 4.4-1.6 6.5-2.3 1.1-.3 2.3-.7 3.3-1.1l3.4-1c.7-.2 1.3-.4 1.9-.6 1.6-.5 3.1-1 4.7-1.6 1.1-.4 2.2-.8 3.3-1.3l3.2-1.3c2.1-.9 4.2-1.7 6.4-2.3 1.1-.3 2.1-.6 3.1-.7.5-.1 1-.1 1.6-.1.3 0 .5 0 .8.1.2 0 .4.1.6.1.3.1.5.3.8.5.3.3.5.8.6 1.1.3 1 .6 2.1.8 3 .1.4.2.9.3 1.4 0 .1.1.3.1.3.2.7.3 1.3.6 1.8.3.6.6 1.2 1 1.8.1.1.2.3.3.3.4.4.9.7 1.4.8.5.2 1.1.2 1.7.1h.1c.1 0 .2 0 .3-.1l3-1.1 3-1.2.8-.3 5.3-2 3-1.2 3-1.1c2.1-.8 4-1.5 6.1-2.2 4.1-1.4 8.2-2.5 12.3-3.9 2.1-.7 4.1-1.4 6.1-2.1l6.1-2.2 6.1-2.3 6.1-2.3c4-1.5 8.1-2.9 12.1-4.4s8.1-3.1 12.1-4.5c2-.8 4-1.5 6.1-2.2l6.1-2.1c4.1-1.3 8.1-2.7 12.3-4.1 4.1-1.4 8.1-2.8 12.2-4.2 4-1.4 8.1-2.8 12.2-4.4 4-1.5 8.1-2.9 12.2-4.3 1.8-.6 3.4-1.2 5.2-1.7 6.5-2 13-3.9 19.3-6.6 2-.8 4-1.5 6.1-2.2 1-.3 2.1-.7 3.1-.9l3.1-.9c1-.3 2.1-.6 3-.9h.1c1.1-.3 2.1-.7 3-1 2.1-.7 4-1.4 6.1-2.2l1.6-.6c.1-.1.3-.2.3-.3.2-.3.1-.7-.2-.8-.3-.2-.7-.1-.8.2 0-.2 0-.3.1-.5.1-.3.3-.7.3-1 .2-.4.3-.8.4-1.3.2-.6.3-1.2.1-1.8-.1-.2-.1-.4-.2-.6-.1-.1-.1-.2-.2-.3l-.1-.1c-.1-.2-.2-.3-.3-.4-.2-.3-.3-.6-.3-.9-.2-.6-.3-1.3-.2-1.8.1-.7.3-1.3.5-1.8.3-.6.7-1.1 1.1-1.5.4-.4 1-.8 1.6-1 .2-.1.3-.1.4-.2l.6-.2 1.1-.3 17.7-5.7 4.4-1.4c1.5-.5 2.9-1.1 4.4-1.7 1.5-.6 2.9-1 4.4-1.4l4.5-1.2c1.5-.4 2.9-.9 4.4-1.4 1.5-.5 2.9-1 4.4-1.6 2.9-1.1 5.9-2.2 8.8-3l4.4-1.5.9-.3 3.5-1.2c2.9-1 6-1.8 8.9-2.8 6-1.8 11.9-3.5 17.8-5.6.8-.3 1.5-.5 2.3-.8.8-.3 1.6-.7 2.3-1.1.8-.4 1.6-1 2.3-1.6.8-.7 1.3-1.5 1.8-2.3.4-.9.8-1.8.8-2.8-.9-.1-.9-.9-1-1.8zM249.2 74c-.1-.1-.1-.1 0 0z"/><path fill="#DFE6EF" d="M108 .2c-.4.1-.8.3-1.2.4l-.6.3c-.2.1-.3.2-.4.3-.7.4-1.3.8-2 1.1-.3.2-.7.3-1 .4h-1.1c-.4-.1-.8-.1-1.2-.1-.3.1-.8.2-1 .3 0 .1-.2.1-.3.2-.5.4-1 .8-1.6 1.1-.3.2-.8.3-1.2.4-.3.1-.7.2-.9.3l-2.3.5c-.8.2-1.4.4-2.1.6l-1.8.6c-.8.3-1.6.5-2.3.8h-.1c-.7.2-1.3.5-2.2.4-.8 0-1.3.5-2 .9-.6.3-1.3.6-1.9.8h-.2c-.3.1-.8.2-1.1.3-.2-.1-.5.1-.9.2-.3.1-.6.2-.8.3-.1 0-.2.1-.3.1-.3.2-.7.3-1 .4-.7.3-1.3.6-2 .9-.5.3-.9.5-1.4.7-.8.4-1.7.8-2.4 1.3-.2.1-.3.2-.4.2-.5.3-1.1.5-1.6.8-.6.3-1.2.7-1.7 1.2-.4.4-.8.9-.9 1.4-.1.2-.2.4-.3.7v.9c0 .7.1 1.3.3 1.9.2.8.3 1.5.3 2.3.1.3.1.8.2 1.1.1.4.2.8.2 1.2 0 .2.1.3.2.5.2.5.3.9.5 1.4 0 .1.1.2.1.3.1.3.2.8.3 1.1 0 .3.1.8.1 1.1 0 .3.1.8.2 1.1.1.3.2.8.3 1.1.3.7.4 1.4.6 2.1l.6 2.1c.3.8-.3 1.7-1.1 1.9s-1.7-.3-1.9-1.1c-.2-.8-.3-1.5-.5-2.3-.2-.8-.3-1.5-.3-2.3-.1-.4-.1-.8-.2-1.1 0-.3-.1-.8-.3-1.1-.2-.3-.3-.7-.3-1.1V29c-.1-.3-.1-.7-.1-1v-1.1s0-.8-.1-1.1c-.1-.3-.1-.5-.2-.8-.1-.5-.3-.9-.4-1.3-.3-.7-.5-1.3-.8-2-.3-.8-.6-1.6-.7-2.4-.1-.5-.1-1.1 0-1.6.1-.6.3-1.1.6-1.6.6-.8 1.3-1.5 2.2-2 .8-.5 1.4-.8 2.1-1.3.6-.5 1.3-.9 1.9-1.3.7-.3 1.3-.7 2.1-.9l2.2-.8c.3-.2.7-.3 1.1-.4.3-.2.7-.3 1.1-.4.7-.3 1.4-.6 2.1-.8 1.4-.5 2.4-1.8 4-1.9.5-.3 1.3-.3 1.9-.8.6-.5 1.3-.7 2-.9 1.4-.5 2.8-.9 4.2-1.3s2.8-.8 4.2-1.3c.7-.3 1.4-.5 2.2-.6.8-.2 1.5-.2 2.3-.3.3-.1.7-.2 1-.3h.1c.3-.1.5-.3.8-.3l7.1-.3zM170.9 2.8c-.7.5-1.6.3-2.2-.3-.5-.6-.9-1.3-1.3-1.9-.1-.2-.2-.3-.2-.4h3.6c.1.2.2.3.3.4v.1c.7.6.5 1.6-.2 2.1z"/><path fill="#DFE6EF" d="M73.7 12.7c0 .1 0 .2-.1.3 0 .1-.1.2-.2.3-.1.1-.2.2 0 .3.1 0 .1.1.2.1 0 0 0 .1-.1.1-.1.1-.3.2-.3.3 0 .1.1.2.2.3.2.2.4.3.5.4.1.1.1.2.2.3 0 .1-.2.2-.3.3-.1.1-.1.2 0 .3.1.1.3.1.3.2.1.2-.1.3-.3.5-.1.1-.1.2-.2.3v.3c0 .1 0 .2.2.3.2.1.3.1.3.2s-.3.3-.3.3v.1H74.1v.1c.1.3-.2.7 0 1 0 .1.1.2.1.3s-.1-.5-.2-.3c-.2.1-.3.3-.2.3.1.1.3.1.4.2 0 .1 0 .2-.1.3l-.3.3c0 .1 0 .2.1.3.1.1.2.1.3.2.1.2.2.3.2.4.1.2.1.3 0 .5s.1.3.3.4c.3.1.4.2.6.3.2.1.3.2.4.3.1.1.1.2.1.3 0 .1-.2.3-.2.3 0 .2.2.3.4.3.1 0 .3.1.3.1.1 0 .1 0 .1.1 0 0 .1.1 0 .1 0 .1-.1.1-.1.2v.1c.1.1.2.1.3.1.1 0 .2.1.1.3 0 .1-.1.2-.2.3-.2-.1-.2 0-.2 0-.1.1.1.2.2.2s.2.1 0 .3c-.1.2-.1.3.2.2h.3l.1.1c-.1.3-.2.5-.1.6.1.1.3.1.3.1s.1.1.1.3c-.1.2-.1.3 0 .3h.4c.2 0 .3.1.4.3.4.8.1 1.8-.8 2.2-.6.3-1.2.3-1.7-.2l-.1-.2c-.2-.1-.3-.3-.3-.5 0-.1.1-.3 0-.3 0-.1-.1-.1-.1-.1h-.3c-.2 0-.3 0-.3-.2 0-.1.1-.3 0-.3-.1-.2-.4-.2-.8-.2-.1 0-.1-.1-.1-.1.1-.1.1-.2.2-.3.1-.1.2-.2.1-.3h-.2c-.3 0-.3-.1-.2-.3 0-.1.1-.2.1-.3v-.2c-.1-.1-.3 0-.4-.1-.1 0-.1-.2-.1-.3.1-.1.1-.3.1-.3s0-.1-.1-.1-.2 0-.2-.1c-.1 0-.1-.1-.1-.1v-.2c0-.1 0-.3.1-.3V24c0-.1-.1-.2-.2-.2-.2 0-.3 0-.5-.1-.2 0-.2-.1-.3-.2-.1-.2-.2-.3-.1-.5 0-.3.1-.5.3-.7.1-.1.2-.3.2-.3s-.1-.2-.3-.2c-.1 0-.3-.1-.3-.2l-.3-.2c-.1-.1-.2-.2-.2-.3-.1-.1-.1-.2 0-.3.1-.1.2-.3.3-.3.1-.1.1-.2 0-.3h-.1c-.2-.1-.3-.1-.6-.1-.2 0-.3-.1-.3-.2l.1-.1.2-.2c.1-.1.3-.2.3-.3.1-.1-.2-.2-.4-.2s-.4-.1-.5-.2c0-.1 0-.1.1-.2v-.2c.3-.4-.1-.8 0-1.1v-.1s.1-.1.2-.1.1-.1.2-.1.1-.1 0-.1c0-.1-.3-.1-.3-.2s.1-.2.3-.3c.1-.1.2-.2.2-.3.1-.2 0-.3 0-.5-.1-.2-.1-.3-.2-.5 0-.1.1-.2.1-.3s.1.2 0 .1c-.2-.1-.3-.2-.3-.3v-.3c.1-.2.3-.3.3-.6 0-.1.1-.2 0-.3 0-.1-.3-.2-.3-.3v.1c0-.1.1-.1.2-.2s0-.2-.1-.3c-.1-.1-.2-.2-.2-.3-.1-.1-.1-.2-.1-.3-.3-.8.3-1.8 1.1-2 .8-.3 1.8.3 2 1.1.1.2.1.3.1.6l.1.8zM81.4 10.2c0 .1 0 .2-.1.3 0 .1-.1.2-.2.3-.1.1-.2.2 0 .3.1 0 .1.1.2.1 0 0 0 .1-.1.1-.1.1-.3.2-.3.3 0 .1.1.2.2.3.2.2.4.3.5.4.1.1.1.2.2.3 0 .1-.2.2-.3.3-.1.1-.1.2 0 .3.1.1.3.1.3.2.1.2-.1.3-.3.5-.1.1-.1.2-.2.3v.3c0 .1 0 .2.2.3.2.1.3.1.3.2s-.3.3-.3.3v.1H81.8v.1c.1.3-.2.7 0 1 0 .1.1.2.1.3 0 .1-.1.2-.3.3-.2-.1-.3.1-.2.2.1.1.3.1.4.2 0 .1 0 .2-.1.3l-.3.3c0 .1 0 .2.1.3.1.1.2.1.3.2.1.2.2.3.2.4.1.2.1.3 0 .5s.1.3.3.4c.3.1.4.2.6.3.2.1.3.2.4.3.1.1.1.2.1.3 0 .1-.2.3-.2.3 0 .2.2.3.4.3.1 0 .3.1.3.1s.1 0 .1.1c0 0 .1.1 0 .1s0-.6 0-.5v.1c.1.1.2.1.3.1.1 0 .2.1.1.3 0 .1-.1.2-.2.3-.1.1-.1.2-.1.2-.1.1.1.2.2.2s.2.1 0 .3c-.1.2-.1.3.2.2h.3c.1 0 .1.1.1.1-.1.3-.2.5-.1.6.1.1.3.1.3.1.1 0 .1.1.1.3-.1.2-.1.3 0 .3h.4c.2 0 .3.1.4.3.4.8.1 1.8-.8 2.2-.6.3-1.2.3-1.7-.2l-.2-.3c-.2-.1-.3-.3-.3-.5 0-.1.1-.3 0-.3.1 0 0 0 0 0h-.3c-.2 0-.3 0-.3-.2 0-.1.1-.3 0-.3-.1-.2-.4-.2-.8-.2-.1 0-.1-.1-.1-.1.1-.1.1-.2.2-.3.1-.1.2-.2.1-.3h-.2c-.3 0-.3-.1-.2-.3 0-.1.1-.2.1-.3v-.2c-.1-.1-.3 0-.4-.1-.1 0-.1-.2-.1-.3.1-.1.1-.3.1-.3s0-.1-.1-.1-.2 0-.2-.1c-.1 0-.1-.1-.1-.1v-.2c0-.1 0-.3.1-.3v-.3c0-.1-.1-.2-.2-.2-.2 0-.3 0-.5-.1-.2 0-.2-.1-.3-.2-.1-.2-.2-.3-.1-.5 0-.3.1-.5.3-.7.1-.1.2-.3.2-.3s-.1-.2-.3-.2c-.1 0-.3-.1-.3-.2l-.3-.2c-.1-.1-.2-.2-.2-.3-.1-.1-.1-.2 0-.3.1-.1.2-.3.3-.3.1-.1.1-.2 0-.3h-.1c-.2-.1-.3-.1-.6-.1-.2 0-.3-.1-.3-.2l.1-.1.2-.2c.1-.1.3-.2.3-.3.1-.1-.2-.2-.4-.2s-.4-.1-.5-.2c0-.1 0-.1.1-.2V16c.3-.4-.1-.8 0-1.1v-.1s.1-.1.2-.1.1-.1.2-.1.1-.1 0-.1c0-.1-.3-.1-.3-.2s.1-.2.3-.3c.1-.1.2-.2.2-.3.1-.2 0-.3 0-.5 0 0 0-.2-.1-.3 0-.1.1-.2.1-.3 0-.1-.1-.2-.2-.3-.2-.1-.3-.2-.3-.3v-.3c.1-.2.3-.3.3-.6 0-.1.1-.2 0-.3 0-.1-.3-.2-.3-.3-.1-.1-.1-.1-.1-.2s.1-.1.2-.2 0-.2-.1-.3c-.1-.1-.2-.2-.2-.3-.1 0-.1-.1-.1-.2-.3-.8.3-1.8 1.1-2 .8-.3 1.8.3 2 1.1.1.2.1.3.1.6l.2 1.2zM90.5 8.2c0 .1 0 .2-.1.3 0 .1-.1.2-.2.3-.1.1-.2.2 0 .3.1 0 .1.1.2.1 0 0 0 .1-.1.1-.1.1-.3.2-.3.3 0 .1.1.2.2.3.2.2.4.3.5.4.1.1.1.2.2.3 0 .1-.2.2-.3.3-.1.1-.1.2 0 .3.1.1.3.1.3.2.1.2-.1.3-.3.5-.1.1-.1.2-.2.3v.3c0 .1 0 .2.2.3.2.1.3.1.3.2s-.3.3-.3.3v.1H90.9v.1c.1.3-.2.7 0 1 0 .1.1.2.1.3 0 .1-.1.2-.3.3-.2.1-.3.3-.2.3.1.1.3.1.4.2 0 .1 0 .2-.1.3l-.3.3c0 .1 0 .2.1.3.1.1.2.1.3.2.1.2.2.3.2.4.1.2.1.3 0 .5s.1.3.3.4c.3.1.4.2.6.3.2.1.3.2.4.3.1.1.1.2.1.3s-.3.1-.3.2c0 .2.2.3.4.3.1 0 .3.1.3.1.1 0 .1 0 .1.1 0 0 .1.1 0 .1 0 .1-.1.1-.1.2v.1c.1.1.2.1.3.1.1 0 .2.1.1.3 0 .1-.1.2-.2.3-.1.1-.1.2-.1.2-.1.1.1.2.2.2s.2.1 0 .3c-.1.2-.1.3.2.2h.3c.1 0 .1.1.1.1-.1.3-.2.5-.1.6.1.1.3.1.3.1s.1.1.1.3c-.1.2-.1.3 0 .3h.4c.2 0 .3.1.4.3.4.8.1 1.8-.8 2.2-.5.3-1.2.3-1.7-.2l.1-1.3c-.2-.1-.3-.3-.3-.5 0-.1.1-.3 0-.3 0-.1-.1-.1-.1-.1h-.3c-.2 0-.3 0-.3-.2s.1-.3 0-.3c-.1-.2-.4-.2-.8-.2-.1 0-.1-.1-.1-.1.1-.1.1-.2.2-.3.1-.1.2-.2.1-.3h-.2c-.3 0-.3-.1-.2-.3 0-.1.1-.2.1-.3v-.2c-.1-.1-.3 0-.4-.1-.1 0-.1-.2-.1-.3.1-.1.1-.3.1-.3 0-.1 0-.1-.1-.1s-.2 0-.2-.1c-.1 0-.1-.1-.1-.1v-.2s0-.3.1-.3v-.3c0-.1-.1-.2-.2-.2-.2 0-.3 0-.5-.1-.2 0-.2-.1-.3-.2-.1-.2-.2-.3-.1-.5 0-.3.1-.5.3-.7.1-.1.2-.3.2-.3 0-.1-.1-.2-.3-.2-.1 0-.3-.1-.3-.2v.3c-.1-.1-.2-.2-.2-.3-.1-.1-.1-.2 0-.3.1-.1.2-.3.3-.3.1-.1.1-.2 0-.3h-.1c-.2-.1-.3-.1-.6-.1-.2 0-.3-.1-.3-.2l.1-.1.2-.2c.1-.1.3-.2.3-.3.1-.1-.2-.2-.4-.2s-.4-.1-.5-.2c0-.1 0-.1.1-.2v-.2c.3-.4-.1-.8 0-1.1v-.1s.1-.1.2-.1.1-.1.2-.1.1-.1 0-.1c0-.1-.3-.1-.3-.2s.1-.2.3-.3c.1-.1.2-.2.2-.3.1-.2 0-.3 0-.5-.1-.2-.1-.3-.2-.5 0-.1.1-.2.1-.3 0-.1-.1-.2-.2-.3-.2-.1-.3-.2-.3-.3v-.3c.1-.2.3-.3.3-.6 0-.1.1-.2 0-.3 0-.1-.3-.2-.3-.3-.4.6-.4.6-.4.5s.1-.1.2-.2 0-.2-.1-.3c-.1-.1-.2-.2-.2-.3-.1-.1-.1-.2-.1-.3-.3-.8.3-1.8 1.1-2 .8-.3 1.8.3 2 1.1.1.2.1.3.1.6l.3.7zM99.7 4.5c0 .1 0 .2-.1.3 0 .1-.1.2-.2.3-.1.1-.2.2 0 .3.1 0 .1.1.2.1 0 0 0 .1-.1.1-.1.1-.3.2-.3.3 0 .1.1.2.2.3.2.2.4.3.5.4.1.1.1.2.2.3 0 .1-.2.2-.3.3s-.1.2 0 .3c.1.1.3.1.3.2.1.2-.1.3-.3.5-.1.1-.1.2-.2.3v.3c0 .1 0 .2.2.3.2.1.3.1.3.2s-.3.3-.3.3H100.1v.1c.1.3-.2.7 0 1 0 .1.1.2.1.3s-.1.2-.3.3c-.2.1-.3.3-.2.3.1.1.3.1.4.2 0 .1 0 .2-.1.3l-.3.3c0 .1 0 .2.1.3.1.1.2.1.3.2.1.2.2.3.2.4.1.2.1.3 0 .5s.1.3.3.4c.3.1.4.2.6.3.2.1.3.2.4.3.1.1.1.2.1.3 0 .1-.2.3-.2.3 0 .2.2.3.4.3.1 0 .3.1.3.1.1 0 .1 0 .1.1 0 0 .1.1 0 .1s-.1.1-.1.2v.1c.1.1.2.1.3.1.1 0 .2.1.1.3 0 .1-.1.2-.2.3-.1.1-.1.2-.1.2-.1.1.1.2.2.2s.2.1 0 .3c-.1.2-.1.3.2.2h.3l.1.1c-.1.3-.2.5-.1.6s.2.1.3.1c.1 0 .1.1.1.3s-.1.3 0 .3h.4s.3.1.4.3c.4.8.1 1.8-.8 2.2-.6.3-1.2.3-1.7-.2l-.1-.1c-.2-.1-.3-.3-.3-.5 0-.1.1-.3 0-.3 0-.1-.1-.1-.1-.1h-.3c-.2 0-.3 0-.3-.2s.1-.3 0-.3c-.1-.2-.4-.2-.8-.2-.1 0-.1-.1-.1-.1.1-.1.1-.2.2-.3.1-.1.2-.2.1-.3h-.2c-.3 0-.3-.1-.2-.3 0-.1.1-.2.1-.3v-.2c-.1-.1-.3 0-.4-.1-.1 0-.1-.2-.1-.3.1-.1.1-.3.1-.3s0-.1-.1-.1-.2 0-.2-.1c-.1 0-.1-.1-.1-.1v-.2c0-.1 0-.3.1-.3v-.3c0-.1-.1-.2-.2-.2-.2 0-.3 0-.5-.1-.2 0-.2-.1-.3-.2-.1-.2-.2-.3-.1-.5 0-.3.1-.5.3-.7.1-.1.2-.3.2-.3 0-.1-.1-.2-.3-.2-.1 0-.3-.1-.3-.2l-.3-.2c-.1-.1-.2-.2-.2-.3-.1-.1-.1-.2 0-.3.1-.1.2-.3.3-.3.1-.1.1-.2 0-.3h-.1c-.2-.1-.3-.1-.6-.1-.2 0-.3-.1-.3-.2l.1-.1.2-.2c.1-.1.3-.2.3-.3.1-.1-.2-.2-.4-.2s-.4-.1-.5-.2c0-.1 0-.1.1-.2v-.2c.3-.4-.1-.8 0-1.1v-.4s.1-.1.2-.1.1-.1.2-.1.1-.1 0-.1c0-.1-.3-.1-.3-.2s.1-.2.3-.3c.1-.1.2-.2.2-.3.1-.2 0-.3 0-.5-.1-.2-.1-.3-.2-.5 0-.1.1-.2.1-.3s.2-.1.1-.2c-.2-.1-.3-.2-.3-.3v-.3c.1 0 .3-.2.3-.4 0-.1.1-.2 0-.3 0-.1-.3-.2-.3-.3.2.1.2 0 .2 0 0-.1.1-.1.2-.2-.1 0-.1-.1-.2-.2s-.2-.2-.2-.3c-.1-.1-.1-.2-.1-.3-.3-.8.3-1.8 1.2-2 .9-.3 1.8.3 2 1.2.1.2.1.3.1.6l-.2.3zM113.4 17.7c-.6.3-1.2.3-1.7-.2l-.1-.1c-.2-.1-.3-.3-.3-.5 0-.1.1-.3 0-.3 0-.1-.1-.1-.1-.1h-.3c-.2 0-.3 0-.3-.2 0-.1.1-.3 0-.3-.1-.1-.1-.1-.2-.1-.2 0-.3-.1-.6-.1-.1 0-.1-.1-.1-.1.1-.1.1-.2.2-.3.1-.1.2-.2.1-.3 0-.1-.1 0-.3 0-.3 0-.3-.1-.2-.3 0-.1.1-.2.1-.3 0-.1 0-.1-.1-.2h-.4c-.1-.1-.1-.2-.1-.3.1-.1.1-.3.1-.3 0-.1 0-.1-.1-.1s-.2 0-.2-.1h-.1s-.1 0-.1-.1v-.2c0-.1 0-.3.1-.3v-.3c0-.1-.1-.2-.2-.2-.2 0-.3 0-.5-.1-.2 0-.2-.1-.3-.2-.1-.2-.2-.3-.1-.5 0-.3.1-.5.3-.7.1-.1.2-.3.2-.3s-.1-.2-.3-.2c-.1 0-.3-.1-.3-.2l-.3-.2c-.1-.1-.2-.2-.2-.3-.1-.1-.1-.2 0-.3.1-.1.2-.3.3-.3.1-.1.1-.2 0-.3h-.1c-.2-.1-.3-.1-.6-.1-.2 0-.3-.1-.3-.2l.1-.1.2-.2c.1-.1.3-.2.3-.3.1-.1-.2-.2-.4-.2s-.4-.1-.5-.2v-.2s0-.1.1-.2c.3-.4-.1-.8 0-1.1v1s.1-.1.2-.1.1-.1.2-.1.1-.1 0-.1c0-.1-.3-.1-.3-.2s.1-.2.3-.3c.1-.1.2-.2.2-.3.1-.2 0-.3 0-.5-.1-.2-.1-.3-.2-.5 0-.1.1-.2.1-.3 0-.1-.1-.2-.2-.3-.2-.1-.3-.2-.3-.3v-.3c.1-.2.3-.3.3-.6 0-.1.1-.2 0-.3 0-.1-.3-.2-.3-.3-.1 0-.1-.1-.1-.2s.1-.1.2-.2 0-.2-.1-.3c0 .4-.1.3-.1.2-.1-.1-.1-.2-.1-.3-.1-.3-.1-.7.1-1 .1-.3.3-.5.5-.7h2.1c.2.1.3.3.3.4.1.2.2.3.2.4.1.2.1.3.1.6v.3c0 .1 0 .2-.1.3 0 .1-.1.2-.2.3-.1.1-.2.2 0 .3.1 0 .1.1.2.1 0 0 0 .1-.1.1-.1.1-.3.2-.3.3 0 .1.1.2.2.3.2.2.4.3.5.4.1.1.1.2.2.3 0 .1-.2.2-.3.3-.1.1-.1.2 0 .3.1.1.3.1.3.2.1.2-.1.3-.3.5-.1.1-.1.2-.2.3V6c0 .1 0 .2.2.2.2.1.3.1.3.2s-.3.3-.3.3v.1H109.6v.1c.1.3-.2.7 0 1 0 .1.1.2.1.3s-.1.2-.3.3c-.2.1-.3.3-.2.3.1.1.3.1.4.2 0 .1 0 .2-.1.3l-.3.3c0 .1 0 .2.1.3.1.1.2.1.3.2.1.2.2.3.2.4.1.2.1.3 0 .5s.1.3.3.4c.3.1.4.2.6.3.2.1.3.2.4.3.1.1.1.1.1.3 0 .1-.2.3-.2.3 0 .2.2.3.4.3.1 0 .3.1.3.1.1 0 .1 0 .1.1 0 0 .1.1 0 .1 0 .1-.1.1-.1.2v.1c.1.1.2.1.3.1.1 0 .1.1.1.1v.1c0 .1-.1.2-.2.3-.1.1-.1.2-.1.2-.1.1.1.2.2.2s.2.1 0 .3c0 0 0 .1-.1.1 0 .1 0 .1.2.1h.3c.1 0 .1.1.1.1-.1.3-.2.5-.1.6.1.1.2.1.3.1.1 0 .1.1.1.3 0 .1-.1.2 0 .3h.5c.2 0 .3.1.4.3.9-.3.6.6-.3 1zM124.2 14.2c-.3.3-.7.3-1 .3-.3 0-.4-.1-.7-.2l-.2-.1c-.2-.1-.3-.3-.3-.4v-.3s-.1-.1-.2-.1-.2 0-.3.1c-.2.1-.3 0-.3-.1-.1-.1.1-.3 0-.3-.2-.1-.4-.1-.8-.1-.1 0-.1 0-.1-.1s.1-.3.2-.3c.1-.2.1-.2.1-.3h-.2c-.3.1-.3 0-.2-.2 0-.1.1-.2.1-.3 0-.1 0-.1-.1-.1-.1-.1-.3 0-.4 0-.1 0-.2-.1-.1-.2 0-.1.1-.3.1-.3 0-.1 0-.1-.1-.1h-.2c-.1 0-.1 0-.1-.1v-.2-.2-.2-.3c0-.1-.1-.2-.3-.2h-.5c-.2 0-.2-.1-.3-.2-.1-.2-.2-.3-.2-.5 0-.3 0-.5.2-.7.1-.1.2-.3.2-.4 0-.1-.1-.2-.3-.2-.1 0-.3 0-.3-.1l-.3-.2c-.1-.1-.2-.1-.3-.2-.3-.1-.3-.2-.3-.3 0-.1.2-.3.2-.4.1-.1 0-.2-.1-.3h-.7c-.2 0-.3 0-.3-.1 0 0 0-.1.1-.1l.2-.2.3-.3c.1-.2-.2-.2-.4-.1-.3 0-.5 0-.5-.1v-.2-.2c.2-.4-.2-.7-.2-1.1 0-.1.1-.1.1-.1.1-.1.1-.1.2-.1 0 0 .1-.1 0-.1 0-.1-.3-.1-.4-.2-.1-.1.1-.3.2-.3.1-.1.1-.2.1-.3s0-.3-.1-.5-.2-.3-.3-.5c0-.1.1-.2 0-.3 0-.1-.1-.2-.3-.2-.2-.1-.3-.1-.3-.2s-.1-.2 0-.3c0-.2.2-.4.2-.6V0c-.1-.1-.1-.1-.2-.1h-.1l-.1-.1c0-.1.1-.1.1-.2h2.4c0 .1.1.2.2.2.1.1.2.1.3.2s.3.1.3.2c.1.1.2.1.2.2s-.1.2-.2.3c-.1.1-.1.2 0 .3.1.1.3.1.3.2.1.2 0 .3-.2.5-.1.1-.1.2-.1.3v.3c.1.1.1.2.2.2.2 0 .3.1.3.2s-.3.3-.3.3v.1H118.4v.1c.2.3-.1.7.2 1 0 .1.1.2.1.3s0 .2-.2.3c-.1.2-.2.3-.2.3.1.1.3 0 .4.1 0 .1 0 .2-.1.3-.1.1-.2.3-.2.3s0 .2.1.3c.1.1.2.1.3.2.1.1.3.3.3.4.1.2.1.3.1.5 0 .3.2.3.4.3s.4.1.6.2c.2.1.3.2.5.3.1.1.1.1.1.3 0 .1-.1.3-.1.3 0 .2.3.3.5.3.1 0 .3 0 .3.1.1 0 .1 0 .2.1 0 0 .1.1 0 .1 0 .1 0 .1-.1.2 0 .1 0 .1.1.1s.2.1.3.1c.1 0 .1.1.2.1v.3c0 .1-.1.2-.1.3 0 .1-.1.2-.1.3 0 .1.1.2.2.2s.2.1.1.3v.2c0 .1.1.1.2 0 .1 0 .2-.1.3-.1.1 0 .1.1.1.1-.1.3-.1.5 0 .6.1.1.3 0 .3 0 .1 0 .2.1.1.3-.1.2 0 .3.1.3.2 0 .3 0 .4-.1h.3c.1 0 .2.1.2.1l.1.1c.6.1.4 1.1-.2 1.6zM131.6 10.7c-.5.3-1.2.4-1.7.1l-.2-.1c-.2-.1-.3-.3-.3-.4V10v-.2c0-.1-.1-.1-.2-.1h-.3c-.2.1-.3 0-.3-.1s.1-.3 0-.3c-.1-.2-.4-.1-.8-.1-.1 0-.1 0-.1-.1s.1-.3.2-.3c.1-.1.1-.2.1-.3h-.5v-.2s.1-.2.1-.3c0-.1 0-.1-.1-.2s-.3 0-.4 0c-.1 0-.2-.1-.1-.3v-.2-.2s0-.1-.1-.1h-.2c-.1 0-.1 0-.1-.1v-.2-.3-.3c0-.1-.1-.2-.2-.2h-.5c-.2 0-.2-.1-.3-.2-.2.1-.3-.1-.3-.3-.1-.3 0-.5.2-.8.1-.1.2-.3.2-.4 0-.1-.1-.2-.3-.2-.1 0-.3 0-.3-.1l-.3-.2c-.1-.1-.2-.1-.3-.2-.1-.1-.1-.2-.1-.3 0-.1.2-.3.2-.4.1-.1 0-.2 0-.3h-.7c-.2 0-.3 0-.3-.1 0 0 0-.1.1-.1l.2-.2.3-.3c0-.1-.2-.1-.5-.1s-.5 0-.5-.1v-.2-.2c.2-.4-.2-.7-.2-1.1v.1c0-.1.1-.1.1-.1l.2-.2s.1-.1 0-.1c0-.1-.3-.1-.4-.2 0-.1.1-.2.2-.3 0 0 0-.1.1-.1h2.8v.4s0 .3.1.4c0 .1.1.2.1.2 0 .1 0 .2-.2.3s-.2.3-.2.3c.1.1.3 0 .4.1 0 .1 0 .2-.1.3-.1.1-.2.3-.2.3 0 .1 0 .2.1.3.1.1.2.1.3.2.1.1.3.3.3.4.1.2.1.3.1.5s.2.3.4.3h.2c.2 0 .3.1.4.2.2.1.3.2.5.3.2 0 .2 0 .2.2 0 .1-.1.3-.1.3 0 .2.3.3.5.3.1 0 .3 0 .3.1.1 0 .1 0 .2.1 0 0 .1.1 0 .1 0 .1-.1.2-.1.2 0 .1 0 .1.1.1s.2.1.3.1c.1 0 .2.1.2.2s-.1.2-.1.3-.1.2-.1.3.1.2.2.2c0 0 .1 0 .1.1v.2c-.1.2-.1.3.2.2.1 0 .2-.1.3-.1l.1.1c-.1.2-.1.3-.1.5 0 .1 0 .1.1.2s.3 0 .3 0c.1 0 .2.1.1.3 0 .2 0 .3.1.3.2 0 .3 0 .4-.1.2 0 .3.1.5.2.1.2.2.3.2.4.3 1.1 0 1.8-.5 2.2zM141 7.3c-.5.3-1.2.4-1.7.1l-.2-.1c-.2-.1-.3-.3-.3-.4v-.3c0-.1-.1-.1-.2-.1s-.2 0-.3.1c-.2.1-.3 0-.3-.1s.1-.3 0-.3c0-.2-.3-.2-.7-.1-.1 0-.1 0-.1-.1s.1-.3.2-.3c.1-.2.1-.2.1-.3h-.2c-.3.1-.3 0-.2-.2v-.1c0-.1 0-.1.1-.2 0-.1 0-.1-.1-.1-.1-.1-.3 0-.4 0-.1 0-.2-.1-.1-.3 0-.1.1-.3.1-.3 0-.1 0-.1-.1-.1h-.2c-.1 0-.1 0-.1-.1v-.2-.3-.3c0-.1-.1-.2-.3-.2h-.5c-.2 0-.2-.1-.3-.2-.1-.2-.2-.3-.2-.5-.1-.3 0-.5.2-.7.1-.1.2-.3.2-.4 0-.1-.1-.2-.3-.2-.1 0-.3 0-.3-.1l-.7-.2c-.1-.1-.2-.1-.3-.2.2.2.2.1.2.1V.5c.1-.1.1-.3.2-.3h2.3v.2s0 .2.1.3.3.1.3.1c.3 0 .4.1.6.2.2.1.3.2.5.3.1.1.1.1.1.3 0 .1-.1.3-.1.3 0 .2.3.3.5.3.1 0 .3 0 .3.1.1 0 .1 0 .2.1 0 0 .1.1 0 .1 0 .1-.1.2-.1.2 0 .1 0 .1.1.1s.2.1.3.1c.1 0 .2.1.2.2s-.1.2-.1.3V3c0 .1-.1.1-.1.2s.1.2.2.2.2.1.1.3c-.1.2-.1.3.2.2.1 0 .2-.1.3-.1s.1.1.1.1V4c0 .3-.1.4.1.5.1.1.3 0 .3 0s.2.1.1.3c0 .2 0 .3.1.3.2 0 .3 0 .4-.1.2 0 .3.1.5.2.1.6-.2 1.6-.7 2.1zM149.9 2.8c-.5.3-1.2.4-1.7.1l-.2-.1c-.2-.1-.3-.3-.3-.4v-.1V2c0-.1-.1-.1-.2-.1s-.2 0-.3.1c-.2.1-.3 0-.3-.1s.1-.3 0-.3c-.1-.2-.4-.1-.8-.1-.1 0-.1 0-.1-.1s.1-.3.2-.3c.1-.2.1-.2.1-.3h-.2c-.3.1-.3 0-.2-.2 0-.1.1-.1.1-.2s0-.1-.1-.1c-.1-.1-.3 0-.4 0s-.2-.1-.1-.3h3.8c0 .2 0 .3.1.3.2 0 .3 0 .4-.1.2 0 .3 0 .4.2v.1c.1.1.2.3.2.4.3.9.1 1.5-.4 1.9z"/><path fill="#E3EAF2" d="M278.3 101c-.5-1.7-.8-3.6-1.9-5.2-.1-.5-.1-1-.3-1.5-.1-.3-.2-.4-.3-.7-.1-.3-.3-.4-.3-.7-.5-.8-1-1.8-1.5-2.6-.1-.3-.3-.5-.3-.7-.1-.3-.2-.5-.3-.8-.2-.5-.3-1-.3-1.5s-.1-1-.2-1.5c-.2-.5-.4-1-.5-1.5-.2-1.1-.2-2.1.1-3.1.2-1.1.4-2.1.7-3 .1-.4.4-.8.8-.9.8-.3 1.5-.7 2.2-1.1.3-.3.7-.4 1.1-.6.4-.1.8-.2 1.3-.2.2 0 .4-.1.6-.2s.3-.3.5-.4c.2-.2.3-.3.5-.3l.6-.3c.8-.3 1.5-.6 2.3-.8.8-.3 1.6-.5 2.3-.8.8-.3 1.5-.6 2.3-.9.4-.2.8-.3 1.2-.3.4-.1.8-.1 1.3-.2l1.2-.3c.3-.2.7-.5 1-.8.8-.3 1.6-.6 2.4-.7.8-.1 1.6-.3 2.3-.7.8-.3 1.4-.8 2.2-1.1l2.3-.9c.8-.3 1.5-.6 2.3-.8.8-.3 1.6-.5 2.3-.8.8-.3 1.4-.8 2.2-1.3.8-.4 1.4-.8 2.2-1.2 1.4-.8 2.9-1.5 4.4-2 .4-.1.8-.2 1.3-.3l1.2-.3 1.2-.5c.4-.2.8-.3 1.3-.5s.9-.3 1.4-.3c.5-.1 1.1-.1 1.6 0s1 .3 1.5.6c.4.3.9.5 1.3.8.9.4 1.7 1 2.3 1.8.3.3.6.8.8 1.3.2.4.3.9.4 1.3.3.8.9 1.5 1.2 2.3.1.4.2.8.2 1.3.1.4.3.8.5 1.3.1.2.3.4.3.6.1.2.1.3.2.6.1.4.1.8.1 1.2 0 .4.1.8.2 1.2l.3 1.2c.3.8.8 1.4 1 2.3.2.8.2 1.7.6 2.3.3.8.9 1.4 1.3 2.2s.7 1.5.9 2.3c.3.8-.2 1.7-1 2-.8.3-1.6-.1-1.9-.8-.3-.8-.6-1.5-.8-2.3-.3-.8-.3-1.7-.6-2.4-.1-.4-.3-.8-.5-1.2-.3-.3-.5-.7-.7-1.1-.4-.8-.3-1.7-.6-2.4-.1-.4-.3-.8-.4-1.2-.2-.4-.3-.8-.6-1.2-.3-.4-.4-.8-.6-1.2-.1-.3-.1-.4-.1-.7 0-.2.1-.4.1-.6.1-.2.1-.4.1-.6 0-.2-.1-.4-.2-.6-.2-.3-.5-.7-.6-1-.3-.7-.2-1.6-.6-2.2-.3-.3-.5-.6-.8-.8-.3-.3-.5-.4-.8-.8-.1-.2-.2-.3-.3-.4-.1-.2-.2-.3-.3-.4-.2-.3-.4-.5-.7-.8s-.6-.3-.8-.4h-.5c-.2 0-.3-.1-.4-.1-.6-.2-1.3-.3-1.9-.3-.8 0-1.5.2-2.2.5-.3.2-.8.4-1.1.7-.3.3-.7.5-1 .8-.3.3-.8.4-1.1.6l-1.2.5-1.2.4-1.2.3-1.2.3c-.4.1-.8.3-1.2.3-.4.1-.8.1-1.3.2-.4.1-.8.2-1.3.3-.8.3-1.4.8-2.2 1.3l-2.2 1.2c-.8.3-1.5.7-2.3 1-.4.2-.8.3-1.2.3-.4.1-.8.1-1.3.3-.8.2-1.6.6-2.2 1.2-.7.6-1.3 1.2-2.1 1.3-.4 0-.9-.2-1.3-.1s-.8.3-1.1.5c-.3.3-.6.7-.9.9-.3.3-.7.4-1.1.6-.4.1-.8.3-1.2.3l-1.2.3c-.8.3-1.6.5-2.3.8-.8.3-1.5.6-2.3.8l-.6.2c-.2.1-.4.1-.6.1h-.7l-.6.3c-.3.3-.7.5-1 .7-.4.2-.8.3-1.2.3-.8.1-1.7.3-2.4.6l.6-.8c-.3.9-.3 1.8-.3 2.6 0 .9.1 1.8.2 2.7 0 .3 0 .5.1.7 0 .3.1.5.1.7.1.5.3.9.5 1.3.3.4.4.8.6 1.3.2.4.3.9.3 1.3.2.9.4 1.8.7 2.7.1.3.2.4.3.7.1.3.2.4.3.7.3.4.6.8.8 1.2.4 1.9 1.7 3.4 2.3 5.5.3.8-.3 1.7-1.1 1.9-.6.1-1.4-.4-1.7-1.1z"/><path fill="#EDF1F6" d="M49.5 176.9c0 .4-.1.9-.4 1.3-.2.2-.4.3-.7.4-.3.1-.4.1-.7 0-.4-.1-.8-.3-1.1-.7-.1-.1-.1-.2-.2-.3l-.3-.6c-.2-.6-.3-1.2-.5-1.7-.1-.4-.1-.8-.2-1.3l-.3-1.2c-.1-.1-.1-.2-.2-.3-.2-.3-.3-.5-.5-.8-.1-.1-.1-.2-.1-.3-.1-.3-.2-.6-.2-.8s0-.5-.1-.8c0-.2-.1-.3-.1-.4-.2-.4-.3-.8-.5-1.2-.2-.4-.4-.8-.6-1.1-.2-.3-.3-.8-.2-1.2.2-.3.2-.8.1-1.2-.1-.2-.2-.3-.3-.5-.1-.2-.3-.3-.3-.5-.2-.3-.3-.7-.3-1 0-.3-.1-.8-.3-1.1-.2-.3-.3-.7-.7-.8-.3-.3-.6-.4-.8-.7s-.4-.5-.6-.8c-.2-.3-.3-.5-.6-.8-.2-.3-.4-.4-.8-.6-.3-.1-.6-.2-.9-.2-.3 0-.6-.1-.8-.2-.3-.1-.6-.1-.9-.2-.7-.1-1.4 0-2.1.3-.8.2-1.5.6-2.1 1.1-.3.3-.7.5-1 .8-.3.2-.7.3-1.1.5-1.5.6-2.9 1.2-4.4 1.5-.4.1-.8.3-1.2.3-.4.1-.8.1-1.3.2-.8.1-1.6.3-2.3.8-.3.3-.7.4-1 .7-.3.2-.7.4-1.1.6-.7.3-1.4.8-2.1 1.1-.8.3-1.5.6-2.3.8-.4.1-.8.1-1.2.2l-1.2.3c-.8.3-1.3.9-2 1.4-.2.2-.4.3-.6.4-.2.1-.3.2-.4.3-.2.1-.4.2-.6.2-.3 0-.4 0-.7-.1s-.4-.1-.7-.1c-.2 0-.4.1-.6.2-.3.2-.7.5-1 .8-.3.3-.6.6-1 .8-.3.2-.8.3-1.1.4-.8.3-1.6.4-2.3.7-.2.1-.3.1-.5.2v-3.2c.3-.1.5-.2.8-.3.3-.1.5-.3.8-.3.6-.3 1.3-.5 1.9-.6h.4c.8 0 1.6-.3 2.3-.8l.2-.2c.6-.4 1.3-.7 2-.8.1 0 .3-.1.3-.1.6-.1 1.1-.2 1.7-.3.1 0 .3-.1.3-.1.6-.3 1.2-.5 1.7-.8.2-.1.3-.2.5-.3.7-.3 1.4-.7 2.2-.9.8-.3 1.5-.6 2.3-.8.8-.3 1.5-.5 2.3-.8.7-.2 1.3-.4 1.8-.8.1-.1.3-.2.3-.2l1-.7c.3-.3.7-.4 1.1-.6 1.4-.8 2.8-1.5 4.2-2.1.3-.2.8-.3 1.1-.4l1.2-.3 1.2-.3s.8-.3 1.2-.5.8-.3 1.2-.5c.4-.2.9-.3 1.3-.4.5-.1 1-.2 1.5-.2s1 .1 1.5.3c.1.1.3.1.3.2.1.1.3.2.3.2.3.2.4.3.6.4.4.3.8.5 1.3.8.8.4 1.6 1.1 2.1 1.9.5.8.6 1.8 1 2.4.4.8.9 1.4 1.1 2.3 0 .4.1.8.2 1.3.2.4.3.8.6 1.2.2.3.3.8.3 1.2v1.2c0 .6.2 1.1.3 1.6.1.3.2.4.3.7s.3.5.3.8c0 .1.1.2.1.3.1.3.1.6.1.9v.3c.1.4.3.8.4 1.1.2.3.4.7.6 1 .3.5.4 1 .6 1.4.1.3.2.5.3.8.9 0 .9.1.9.2z"/><g><path fill="#E8EDF4" d="M564 .2c0 .2-.1.3-.1.4-2.3 8.4-5.1 16.4-5.1 16.4l-21.3 46.2-9.9 21.3-.8 1.6-15.8 34.2-17.2 37.3-.2.3c-2.3 4.7-7.7 6.7-12.4 4.5L476 160l-58-26.9-21.2-9.8c-4.7-2.2-6.7-7.7-4.5-12.4l3.9-8.2.5-1.2L408.9 75 443.4.7l.2-.4L564 .2z"/><path fill="#E8EDF4" d="M566.9.2l-.2.4L538.2 63l-9.7 21.3-1 .1-9.2 1.2-.5.1-94.4 12.1-7 .9-20 2.5-1.6.3L407.3 75 442.7.6l.2-.4"/><path fill="#F4F6F8" d="M536.6 45.1L527.9 64l-.1.1-10 21.6-.2.6-.4.9-15.9 34.4-6.6 14.2-21.9-10.4-54.5-25.8-1.9-.9h-.1l-9.1-4.3 9.3-20.1 34-73.7.2-.4H506l.2.4 22.6 33.1 2 2.9 5.6 8.1"/><path fill="#EDF1F6" d="M556.1.2l-.2.4-19.5 44.1-8.5 19.3-.1.1-9.5 21.5-.3.6-.4.1-94.2 11.5-7.1.9h-.1l-9.4-3.8 9.5-20.6L450.2.6l.2-.4"/><path fill="#DFE6EF" d="M479.7 18c.1.4.2.9.3 1.3s.1.9.2 1.3c.1.3.2.4.3.6.2.2.2.4.2.7 0 .3-.1.5-.1.8 0 .3 0 .5.1.7.2.4.3.8.6 1.3.3.4.5.8.7 1.3.1.2.2.4.3.7.1.3.2.4.2.7-.1.5 0 .9.1 1.4.1.3.2.4.3.6.2.2.3.4.3.6.2.4.3.9.3 1.3 0 .9.1 1.8.3 2.7.1.3.2.4.3.7.1.3.3.4.3.6.2.2.3.4.3.7 0 .3 0 .5-.1.8-.1.3-.1.5.1.7l.3.3c.1.1.1.2.2.3.1.4.3.9.3 1.3l-2-1c.8-.3 1.6-.5 2.3-.8l.6-.3c.2-.1.3-.2.6-.3.4-.1.9 0 1.3-.1.3 0 .4-.2.6-.3l.5-.5c.4-.2.8-.3 1.3-.3s.8-.1 1.3-.3c.3-.2.8-.4 1.1-.7.8-.4 1.5-.8 2.3-1 .4-.2.8-.3 1.2-.4s.8-.3 1.2-.5c.3-.3.7-.6 1-.8.3-.3.7-.5 1-.8.7-.5 1.4-.9 2.2-1.3.4-.1.8-.2 1.3-.2.2 0 .4-.1.6-.3.2-.1.3-.2.5-.3.7-.5 1.3-1.3 2.1-1.4.3 0 .4 0 .7-.1l.6-.3c.3-.3.7-.5 1.1-.7s.9 0 1.3-.1c.2 0 .4-.1.6-.3.2-.2.3-.3.5-.3.3-.3.9 0 1.3-.3.2-.2.3-.3.4-.5.2-.2.3-.3.6-.3.3-.1.4 0 .7-.1.3 0 .4-.1.6-.2.4-.1.8-.3 1.1-.6.3-.3.7-.5 1.2-.5.3 0 .4-.1.7-.1.2-.1.3-.2.5-.3l.5-.5c.2-.2.3-.3.5-.3.3-.3.8-.4 1.1-.6l1.3 2.8c-.3.2-.8.3-1.2.5-.2.1-.4.2-.6.2-.3 0-.4.1-.7.1-.2 0-.4.1-.6.3l-.5.5c-.2.2-.3.3-.5.4-.2.1-.4.2-.6.2-.4 0-.8.2-1.2.5-.2.2-.3.3-.5.4l-.5.5c-.2.2-.4.3-.6.2-.3-.1-.5-.2-.8-.2-.3.1-.4.2-.5.4-.1.2-.3.3-.5.3h-.7c-.3 0-.4.1-.6.2-.3.3-.6.8-1 .8-.4.2-.8.3-1.3.3-.2 0-.4.1-.6.2-.2.1-.3.3-.5.4-.7.5-1.6.4-2.4.7-.4.1-.8.3-1.1.6-.3.3-.6.7-.9 1-.8.4-1.5.8-2.3.9-.4.1-.8.3-1.3.3s-.9-.1-1.3 0-.8.3-1.1.6c-.3.3-.7.6-1 .8-.7.5-1.4.9-2.3 1.2-.4 0-.8.1-1.3.2-.2.1-.4.2-.5.3-.2.2-.3.3-.4.6-.2.4-.6.8-1 .9-.3 0-.5-.1-.8-.3-.3-.1-.5-.1-.7.1-.3.3-.5.9-.8 1.2-.2.1-.3.2-.6.3-.2.1-.4.1-.6.2l-1.2.3c-.4.2-.8.3-1.2.5h-.1c-.8.3-1.8-.1-2.2-.9 0-.1-.1-.2-.1-.3-.1-.4-.2-.9-.3-1.3v-.3c.1-.2.1-.3.2-.4v-.3c-.1-.1-.1-.3-.2-.3-.2-.2-.3-.4-.4-.6-.1-.3-.1-.5 0-.7.1-.3.1-.5.1-.8s0-.5-.1-.7c-.2-.9-.3-1.8-.7-2.6-.1-.3-.2-.4-.2-.7-.1-.3-.2-.4-.2-.7-.1-.4-.2-.9-.3-1.3-.2-.4-.4-.8-.8-1.3-.1-.2-.2-.4-.3-.7-.1-.3-.1-.4-.2-.7l-.3-2.7c0-.3-.1-.4-.3-.7-.2-.2-.3-.4-.4-.6-.2-.2-.2-.4-.2-.7v-.7c-.2-.4-.4-.8-.6-1.3-.2-.4-.3-.8-.5-1.3l2.8-.5z"/><g fill="#DFE6EF"><path d="M441.1 121.5c.1 0 .2 0 .3-.1.1 0 .3 0 .3.1.1 0 .3.1.3-.1 0-.1.1-.2.1-.3h.2l.3.3c.1 0 .2-.1.3-.2.2-.2.3-.4.5-.6.1-.1.2-.1.3-.2.1 0 .3.2.3.3.1.1.2.2.3.1.1-.1.2-.3.3-.3.2-.1.4.2.6.3.1.1.2.2.3.2.1.1.2.1.3.1.1 0 .2 0 .3-.1.1-.1.3-.3.3-.2.1.1.1.4.2.5h.1l.1-.1c0-.1.1-.1.1-.1h.1c.4.1.7.5 1 .6.1 0 .2.1.3.1.1.1.2.2.2.4s.1.3.2.3.3-.3.4-.2c.1.1.2.2.2.3s.1.3.1.4c0 .1.1.2.3.2h.3c.2.1.3.2.4.3l.2.2c.1.1.1.2.2.3.1.3.3.3.5.3.3 0 .5 0 .7.1.3 0 .4.2.6.3.1.1.2.1.2.3 0 .1-.1.3-.1.4 0 .3.3.3.5.3.1 0 .3.1.3.1s.1.1.2.1.1.1.1.2-.1.2-.1.2c0 .1 0 .1.1.2s.2.2.3.2c.1.1.2.2.1.3 0 .1-.1.2-.2.3-.1.1-.1.2-.2.3-.1.1.1.2.2.3.1.1.1.2 0 .3-.1.2-.2.3.1.3.1 0 .2 0 .3.1 0 0 .1.1 0 .2-.2.3-.3.5-.3.7 0 .1.2.2.3.3.1.1.1.2 0 .3-.1.1-.2.3-.1.3.1.1.3.2.3.3.2.2.3.3.3.6l-3.1.2c-.1-.2-.1-.3.1-.4l.3-.3c0-.1 0-.1-.1-.1s-.2-.1-.3-.1c-.2 0-.3-.1-.2-.2.1-.1.2-.2.2-.3 0-.2-.3-.2-.6-.3-.1 0-.1-.1 0-.1.1-.1.2-.2.3-.2.3-.2.2-.2 0-.2-.3 0-.3-.1-.1-.2l.2-.2v-.1c-.1-.1-.3 0-.4 0-.1 0-.1-.1 0-.2s.1-.2.2-.3c0-.1 0-.1-.1-.1h-.2s-.1 0-.1-.1v-.1c0-.1 0-.2.1-.3v-.3c0-.1-.1-.2-.2-.1-.2 0-.3.1-.5.1-.1 0-.2 0-.3-.1-.1-.1-.2-.3-.2-.3-.1-.3 0-.4.1-.7.2-.3.1-.5-.2-.4-.1.1-.3.1-.3.1h-.6c-.1 0-.1-.1-.2-.2v-.4c0-.1-.1-.2-.2-.1-.2.1-.3.2-.4.3-.2.2-.3.3-.3.2v-.1l.1-.3c0-.1.1-.3.1-.4 0-.2-.2 0-.3.3-.2.3-.3.3-.3.3s0-.1-.1-.1l-.1-.1c-.2-.4-.4-.3-.7-.5l-.1-.1v-.2-.2c0-.1 0-.1-.1-.1s-.2.3-.3.3c-.1 0-.1-.2-.2-.3 0-.1-.1-.2-.2-.3-.1-.1-.3-.1-.4-.1s-.3.1-.4.1c-.2-.1-.3-.2-.4.1-.1.1-.1.3-.2.3h-.3c-.2-.1-.3-.3-.5-.3h-.3c-.1.1-.1.3-.2.3 0 .1-.1.1-.1.1-.1 0-.1-.1-.2-.1-.1-.1-.2.1-.2.1 0 .1-.1.2-.2.3l-.2.2-.9-3.5zM447.8 139.9c-.1 0-.3.1-.3.1H446.9c-.1 0-.2 0-.2.1s-.1.2-.2.3h-.2c-.2-.1-.3-.3-.4-.3-.1 0-.3.1-.3.2-.3.2-.4.4-.7.6-.1.1-.3.1-.3.2-.2 0-.3-.2-.3-.3-.1-.1-.3-.2-.3-.1-.2.1-.3.3-.4.3-.3 0-.5-.2-.7-.4-.2-.2-.4-.3-.7-.4h-.4c-.2.1-.3.2-.4.1-.1-.1-.1-.4-.2-.5 0-.1-.2 0-.3.1 0 0-.1.1-.2.1h-.1c-.5-.2-.8-.7-1.2-.8-.1-.1-.2-.1-.3-.2-.1-.1-.2-.3-.2-.4 0-.2 0-.3-.2-.4-.1 0-.4.1-.5.1-.2-.2-.2-.6-.2-.8 0-.1-.1-.2-.3-.3-.1-.1-.3-.1-.3-.2l-.3-.3c-.1-.1-.2-.2-.2-.3-.2-.2-.3-.4-.3-.7s-.3-.4-.5-.5c-.3-.1-.5-.3-.8-.4-.2-.2-.4-.3-.5-.6-.1-.1-.2-.3-.1-.3 0-.2.2-.3.2-.4 0-.1 0-.3-.1-.3l-.3-.3c-.1-.1-.3-.2-.3-.3-.1-.1-.1-.1-.1-.2v-.2c.1-.1.1-.2.2-.2v-.2c-.1-.1-.2-.3-.3-.3-.1-.1-.1-.3 0-.3.1-.2.3-.3.4-.4.1-.1 0-.3-.1-.3-.1-.1-.1-.3.2-.3.2-.1.3-.3 0-.3l-.2-.2c0-.1 0-.2.1-.2.3-.3.5-.4.5-.7 0-.1-.1-.3-.2-.4 0-.2.1-.3.2-.3.2-.1.3-.2.3-.3-.1-.2-.1-.3-.2-.4-.1-.3 0-.5.1-.8l2.8 1.3c0 .2-.1.3-.3.4-.1.1-.3.1-.3.2-.1.1 0 .2.2.3s.2.3.1.3c-.1.1-.3.1-.3.2 0 .2.3.4.4.6 0 .1.1.1 0 .1s-.3.1-.3.1c-.3.1-.3.2-.1.3s.2.2 0 .3c-.1 0-.2.1-.2.1-.1 0-.1.1 0 .2s.3.2.3.3c0 0 .1.1 0 .1 0 .1 0 .1-.1.2l-.3.3v.2c.1 0 .1.1.2.1.1.1.1.2.1.3-.1.1-.1.2-.2.3-.1.2-.2.4.1.5.2.1.3.1.5.1s.2.1.3.2c.1.2.1.3.1.5 0 .3-.1.5-.2.7-.3.3-.2.6.2.5.1 0 .3 0 .3.1.1 0 .2.1.3.1.1 0 .2.1.3.2.1.1.1.2.1.3 0 .1-.1.3-.1.4 0 .2.1.2.2.2.2 0 .3-.1.5-.2s.3-.2.3-.1c.1.1-.3.6-.3.7 0 .2.2 0 .4-.2s.3-.3.4-.3c.1.1.1.2.1.3.2.4.5.4.8.7l.1.1v.4c0 .1 0 .1.1.1s.3-.3.3-.3.1.2.2.3c0 .1.1.3.2.3.1.1.2.1.3.2.1 0 .2.1.3.1h.6c.2.1.3.3.5-.1.1-.1.2-.3.3-.3h.3c.2.1.3.3.6.3h.3c.1-.1.2-.3.2-.3l.1-.1c.1 0 .1.1.2.1.1.1.2-.1.3-.2.1-.1.1-.2.2-.3.1-.1.2-.1.3-.2l1 2.3z"/></g><path fill="#DFE6EF" d="M527.7 46.8c-.2.3-.4.7-.7 1-.3.3-.5.7-.8.9s-.5.7-.6 1.1c0 .2-.1.4-.3.6-.1.2-.3.3-.4.4-.2.2-.3.3-.5.4-.2.2-.3.3-.4.5-.3.3-.4.7-.6 1.1-.3.8-.7 1.5-1.2 2.2-.1.2-.3.3-.3.5l-.4.4c-.3.3-.7.5-1 .8-.2.2-.3.3-.4.5-.1.2-.2.3-.3.6-.2.3-.4.7-.8.9-.6.5-1.4.8-2.1 1.3-.3.3-.7.4-1 .7-.3.3-.6.5-.9.8-.3.3-.5.7-.8 1-.2.2-.3.3-.6.3-.3.1-.4.1-.7.2-.1 0-.2.1-.3.1-.1.1-.2.2-.2.3-.1.1-.1.3-.2.3-.1.1-.2.2-.3.2-.3.3-.7.4-1 .6-.8.4-1.5.7-2.2 1.1-.8.3-1.4.8-2.2 1.1-.8.3-1.8-.1-2.4.5-.6.7-1.4.8-2.3.8-.8 0-1.6.2-2.3.5-.8.3-1.5.6-2.3.7-.8.2-1.6.3-2.4.3h-1.2c-.4 0-.8.1-1.2.3-.4.1-.8.3-1.2.3-.4.1-.8.1-1.2.2-.8.2-1.6.2-2.4.2-.4 0-.8-.1-1.3-.2s-.8-.3-1.2-.4c-.8-.2-1.6-.3-2.4-.3-.8 0-1.7-.1-2.4-.3-.4-.2-.8-.4-1.1-.6l-1.2-.3c-2.9-1.1-5.8-2.6-8.6-4.1-.6-.5-1.3-.9-2.1-1.3-.4-.1-.8-.3-1.1-.5-.3-.3-.6-.6-.9-.8-.3-.3-.7-.5-1-.7-.4-.2-.8-.3-1.2-.5-.3-.3-.7-.5-1-.7-.3-.3-.7-.6-.9-.8l2.3-2.2c.3.3.6.5.8.8l.8.8c.3.3.5.6.8.8.3.3.6.5.9.7.2.1.4.1.6.2.2 0 .4.1.6.2.2.1.3.2.5.3l.4.4c.3.3.6.5.9.7.3.2.8.3 1.1.3.3.1.8.1 1.2.3.1 0 .2.1.3.1.1 0 .2.1.3.2.2.2.3.3.4.5.1.2.3.3.4.4.2.1.3.2.6.2.2 0 .4 0 .6.1.2.1.3.2.5.3.3.3.6.5.9.8.3.2.8.3 1.2.3.8-.1 1.5.3 2.2.8.3.3.7.4 1 .5.4.1.8.1 1.2.1.8.2 1.4.4 2.2.8.3.2.7.3 1.1.4.2.1.3.1.6.1h.6c.4-.1.8-.3 1.2-.3.3-.1.8 0 1.1 0s.8.1 1.1.1c.3.1.8.1 1.1.2.3.1.8.1 1.1.2.4.1.8.3 1.2.4.3.2.8.2 1.2.1.4-.1.8-.3 1.1-.4.3-.2.8-.3 1.1-.3.3-.1.8-.3 1.1-.3.3-.1.8-.2 1.1-.3.4-.1.8-.1 1.2 0s.8 0 1.2-.1c.3-.2.7-.4 1-.8.3-.3.6-.6.9-.8.2-.1.3-.2.6-.1s.5.2.7.3.4 0 .6-.1c.2-.1.3-.3.4-.4.2-.2.3-.4.3-.6.1-.2.3-.3.4-.4.2-.1.3-.2.5-.2l.5-.2c.3-.1.8-.3 1.1-.3.3-.2.7-.3 1-.5s.7-.4 1-.6.7-.3 1-.5c.2-.1.4-.2.6-.1.2 0 .4-.1.5-.3.1-.2.3-.3.3-.5s.3-.3.4-.4c.3-.2.8-.3 1.1-.4 1.4-.7 2.4-1.8 3.4-2.9.5-.6 1.3-.9 1.7-1.6.2-.3.3-.7.5-1.1.2-.3.4-.7.7-.9l.4-.4.4-.4.8-.8c.5-.6 1.1-1.1 1.2-1.9.1-.2.1-.3.3-.6.1-.2.3-.3.4-.4.2-.1.3-.3.3-.4.1-.2.2-.3.3-.5.2-.3.3-.8.4-1.1.2-.3.3-.7.5-1l2.5.5z"/><path fill="#DFE6EF" d="M467.7.2h3.4c-.1 0-.1.1-.2.1-.3.1-.4.3-.7.3-.6.3-1.1.6-1.6.9-.3.3-.7.6-.9.8-.3.3-.5.7-.8 1.1s-.4.8-.7 1.1c-.2.2-.3.3-.4.5l-.4.5c-.5.7-1.8.8-2.3 1.4-.3.3-.5.8-.6 1.2-.2.4-.3.8-.4 1.3-.3.8-.9 1.4-1.3 2.1-.5.7-1 1.3-1.4 2.1-.8 1.5-1.5 2.9-2.1 4.5-.2.4-.3.8-.5 1.2l-.3.6c-.1.2-.3.3-.4.6-.5.8-.3 1.7-.4 2.4-.1.4-.2.8-.3 1.3s-.3.8-.4 1.3c-.2.4-.3.8-.3 1.3-.1.4-.2.8-.3 1.3-.2 1.7-.3 3.4-.2 5.1l.1 1.3c.1.4.1.8.1 1.3 0 .8.1 1.8.3 2.5.1.4.3.8.3 1.3.2.4.3.8.5 1.3.3.8.4 1.7.7 2.4.1.4.2.8.3 1.3.1.4.2.8.3 1.3.3.8.5 1.7.8 2.4.2.4.3.8.6 1.2.3.3.5.8.8 1 .6.6 1.1 1.3 1.4 2.1.2.4.4.8.7 1.1.3.3.6.7.8.9.5.5 1 1.1 1.6 1.6.1.1.2.1.3.2.2.1.3.3.4.3.2.2.3.3.4.5 0 .1.1.1.1.2.1.2.2.4.3.7l-1.5.3-1.5.3c0 .1.1.2.1.3 0 0-.1 0 0 0l-.5-.3c-.6-.7-1.2-1.4-1.7-2.2-.5-.8-1-1.5-1.6-2.3-.3-.3-.6-.7-.8-1.1-.3-.4-.4-.8-.5-1.3-.2-.4-.3-.9-.5-1.3s-.4-.8-.7-1.2c-.9-1.6-1.8-3.2-2.4-4.9-.3-.8-.6-1.8-.8-2.6-.1-.9-.1-1.8-.2-2.7-.1-.9-.4-1.8-.6-2.6-.2-.9-.2-1.8-.1-2.7l.3-2.7.2-1.3c.1-.4.1-.9.2-1.3.1-.9.3-1.8.3-2.6v-1.4c0-.4.1-.9.3-1.3.3-.8 1-1.7 1-2.5V20c0-.3.1-.4.2-.7.2-.4.3-.8.4-1.3.7-1.7 1.5-3.3 2.4-4.9.4-.8.9-1.6 1.3-2.3.3-.4.5-.8.8-1.2.3-.4.6-.8.8-1.1.7-.7 1.4-1.2 2-1.8s.9-1.6 1.5-2.3c.3-.3.7-.6 1-.9.3-.3.8-.5 1.1-.8.6-.3 1.1-.8 1.7-1.2.2-1 .3-1.2.5-1.3zM531.8 25.6v1.3c0 .4-.1.9-.1 1.3 0 .9-.2 1.8-.3 2.6-.3 1.8-.4 3.5-.8 5.3 0 .1 0 .2-.1.3-.1.8-.1 1.7-.4 2.4-.2.4-.4.8-.6 1.3s-.3.8-.5 1.3c-.1.4-.2.9-.3 1.3 0 .3-.1.4-.2.7-.1.3-.1.4-.2.7l-.2.7c0 .1 0 .1-.1.2 0 .1-.1.2-.1.3-.1.2-.2.3-.2.4l-.3.5c0 .1-.1.1-.1.2v-.1-.2-.3l-1.8.2-1.1.1v-.3-.2c0-.1 0-.2.1-.3l.1-.3.1-.2c.1-.2.2-.3.3-.5.2-.3.3-.4.3-.6l.1-.2v-.2l.3-.6.3-.6.3-.6c.3-.3.4-.8.6-1.2.2-.4.3-.8.3-1.3.1-.4.1-.8.1-1.3l.3-1.2c.2-.4.3-.8.3-1.3.1-.4.3-.8.3-1.3.1-.3.1-.6.2-.9 0-.1 0-.3.1-.3.2-.8.2-1.7.3-2.4.1-1.7 0-3.4-.2-5-.3-1.7-.5-3.3-.8-4.9-.3-1.7-.3-3.3-.8-5-.4-1.7-1.3-3-2.2-4.4-.8-1.4-1.6-2.9-2.4-4.3s-1.9-2.7-3.2-3.8c-.3-.3-.7-.6-1-.8s-.7-.5-1-.8c-.6-.4-1.2-.8-1.8-1.3-.1-.1-.2-.1-.3-.2s-.2-.2-.3-.2h5.2l.2.2c.1.1.2.2.2.3l.8.8c1.3 1.3 2.4 2.7 3.4 4.1 1.2 1.4 2.2 2.9 2.9 4.5.8 1.7 1.3 3.4 1.9 5s1.3 3.4 1.7 5.1c.1.4.2.9.3 1.3s.1.9.1 1.3.1.9.1 1.3c.2 1.3.3 1.7.2 2.1z"/></g><g><path fill="#EDF1F6" d="M950.1 49.5c-.8 3.9-1.8 7.5-2.4 10.8-.3 1.5-.6 2.9-.8 4.2 0 .3-.1.5-.1.8l-16.6-2.2-1.4-.2-3.8-.5-37.4-4.8-2.5-.3-15.6-2-2.8-.3-15.4-2-3.4-.4-15.2-2-2.8-.3-3.2-.4-.8-.1-.8-.1-4.4-.6-6.1-.8-3.4-.4-15.3-2.3-2.8-.3-15.7-1.8-2.9-.3-9-1.2-6.6-.8-2.8-.3-15.4-2-3.4-.4-15.1-2.1-2.8-.3-15.4-2-3.4-.4-15.1-1.8-2.8-.3-15.4-2-3.4-.4-15.2-2-2.8-.3-15.4-1.8-3.4-.4-15.2-2-2.8-.3-18.2-2.3s1.2-9 2.4-19c0-.2 0-.3.1-.4h200.1c1 .2 2 .3 2.9.4l37.2 4.8 63 8.1c11.8 1.5 46 2.2 52.2 11 1.7 2.3 2.5 5 2.9 8.1.6 4.7-.3 10.6-1.6 16.4z"/><g fill="#DFE6EF"><path d="M950.8 34.2c1.4 10.7-3 22.5-4.1 31L820.9 50.3l129.9-16.1z"/><path d="M951 34.2V34l-17.2 2.2-.6.1-13.1 1.7h-.1l-29.7 3.7-2.9.3-17 2.1-2.4.3-16.7 2.1-1.8.3-16.5 2.1-3.1.4-4.9.6-5.6.7 10.7 1.3 2.3.3 15.6 1.9 2.9.3 15.9 1.9 2.3.3 15.8 1.9 2.8.3 39.6 4.7 2.9.3 15 1.8 1.9.3v-.2c.2-1.6.5-3.2.9-5l.9-3.9c.5-2.2 1-4.4 1.4-6.7V50c.7-5.6 1.4-10.8.7-15.8zM929.9 63l-1.3-.2-3.4-.4-.5-.1-37.4-4.4-2.7-.3-15.6-1.9-2.9-.3-15.7-1.9-2.4-.3-15.8-1.9-2.4-.3-7.1-.8 3.8-.5 3.4-.4 3.1-.4 15.7-2 2.4-.3 16.5-2.1 2.9-.3 17-2.1 2.9-.3 29.5-3.6.7-.1 13.1-1.7h.2l17-2.1c.9 7.1-.8 14.9-2.4 21.7-.3 1.4-.7 2.8-.9 4.1-.3 1.7-.7 3.2-.8 4.7L929.9 63z"/></g><path fill="#DFE6EF" d="M615.3.2c-.1.2-.3.3-.4.4-.1 0-.1.1-.2.2s0 .2.2.3c.1 0 .1.1.1.2v.2c-.1.8-.5 1.4-.5 2.2 0 .2 0 .3-.1.6-.1.2-.2.4-.3.5s-.3.3-.3.4.3.4.3.6c0 .2-.2.3-.3.5-.2.2-.3.3-.4.5-.1.2-.1.3-.1.6 0 .2.1.4.1.6 0 .3 0 .8-.1 1.1l-.1.5c0 .2-.1.3-.2.5-.2.3-.2.8.1 1.1.2.3.3.8.3 1.2.1.3.2.8.1 1.1 0 .2 0 .3-.1.6-.1.2-.3.3-.3.5-.1.3-.1.8.1 1.1.1.2.2.4.2.6v.3s0 .2-.1.3c-.1.1-.2.2-.2.3-.1.1-.1.2-.1.3 0 .2.1.4.2.6.1.2 0 .4-.1.6-.1.2-.4.3-.5.5-.1.2-.1.3 0 .6.1.2 0 .4-.2.5-.2.2-.3.3-.1.6.1.1.2.2.2.3 0 .1 0 .2-.1.3-.3.3-.5.7-.5 1 0 .2 0 .3.1.4 0 .1 0 .1.1.2.1.2 0 .4-.2.5-.2.2-.3.3-.2.5l.3.6c.1.3.2.8.1 1.1-.2.8-1 1.4-1.9 1.3-.8-.2-1.3-.8-1.3-1.6V25c0-.3.1-.8.3-1.1.2-.2.3-.3.3-.5 0-.3 0-.4-.2-.6-.2-.2-.2-.4-.1-.6 0-.1.1-.1.1-.2.1-.1.2-.3.3-.4 0-.4-.2-.8-.4-1.2v-.3c.1-.1.3-.2.3-.3.3-.2.3-.3.1-.6-.1-.1-.1-.2-.1-.3 0-.1.1-.2.2-.3l.3-.3c.1-.1.1-.2.1-.3 0-.2-.3-.4-.3-.6 0-.2 0-.4.2-.5.2-.2.3-.3.3-.5 0-.1.1-.2 0-.3 0-.1-.1-.2-.1-.3 0-.1-.1-.2 0-.3 0-.1.1-.2.1-.3.1-.2.2-.3.3-.5s.2-.3.3-.5.1-.4 0-.6c-.1-.2-.3-.4-.3-.6-.1-.2-.1-.3-.1-.6s.1-.8.3-1.1c.1-.4.3-.8.7-1 .2-.2.3-.3.4-.5.1-.2 0-.4-.1-.6s-.2-.3-.2-.6l-.1-.6c0-.2-.1-.3-.1-.6 0-.2.1-.3.2-.5s.3-.3.4-.5c.1-.2.2-.3.1-.6s-.3-.4-.4-.6c-.2-.2-.3-.3-.3-.6.1-.2.7-.3.8-.4.2-.2 0-.4-.3-.6-.3-.3-.4-.4-.3-.6.1-.2.2-.3.3-.5.4-.7.3-1.4.6-2.2 0-.1 0-.1.1-.2s.1-.1.2-.1.1-.1.2-.1c.1-.1.2-.1.1-.2 0-.1 0-.2-.1-.3l2.3.8zM633.2 5.9c0 .1-.1.3-.1.3 0 .1-.1.3-.2.3-.1.1-.2.3-.1.3.1.2.1.2.2.2 0 .1 0 .2-.1.2-.1.1-.3.2-.3.3 0 .1 0 .3.1.3.1.3.3.5.4.8.1.1.1.3.1.3s-.2.3-.3.3c-.1.1-.2.3-.1.3.1.2.3.3.3.4 0 .3-.2.4-.4.7l-.3.3c-.1.1-.1.3-.1.3s0 .3.1.3c.1.2.3.3.2.3-.1.1-.4.2-.5.3-.1.1 0 .1.2.2.1 0 .1.1.1.1v.1c-.1.4-.4.8-.4 1.3v.3c0 .1-.2.3-.3.3-.2.1-.3.2-.3.3 0 .1.3.3.3.4s-.1.3-.3.3c-.2.1-.3.2-.3.3-.1.1-.1.3-.1.3l.1.3c0 .3 0 .5-.1.7l-.1.3c0 .1-.1.3-.2.3-.2.3-.1.4.1.7.2.3.3.5.3.8.1.3.2.5.2.8 0 .1 0 .3-.1.3s-.3.2-.3.3c-.2.3 0 .5.2.8.1.1.2.3.3.4 0 .1.1.1.1.2s0 .2-.1.2c-.1.1-.2.1-.2.2s-.1.1-.1.2c0 .2.1.3.2.3.1.1 0 .3-.1.3s-.4.2-.5.3c-.1.1-.1.3 0 .3.1.1 0 .3-.2.3-.2.1-.3.2-.1.3l.2.2c0 .1 0 .1-.1.2-.3.2-.5.4-.5.7 0 .1.1.3.2.3.1.1 0 .3-.2.3-.2.1-.3.2-.2.3 0 .1.2.3.3.4.2.3.2.5.1.8-.3.8-1.1 1.4-1.9 1.2-.7-.2-1.2-.8-1.3-1.4v-.2c0-.3 0-.5.2-.7.1-.1.3-.2.3-.3.1-.1-.1-.3-.3-.4-.2-.2-.2-.3-.1-.3s.3-.2.3-.3c0-.3-.3-.5-.4-.8v-.2c.1-.1.3-.1.3-.2.3-.1.3-.2.1-.3s-.2-.3 0-.3c.1-.1.2-.1.3-.2.1 0 .1-.1.1-.2s-.3-.3-.3-.4c-.1-.2 0-.3.1-.3s.3-.2.3-.3c0-.1.1-.1 0-.2 0-.1-.1-.2-.2-.2 0-.1-.1-.1 0-.2 0-.1.1-.1.1-.2.1-.1.2-.3.3-.3.1-.1.2-.2.2-.3.1-.1 0-.3-.1-.3-.1-.2-.3-.3-.4-.4-.1-.1-.1-.3-.1-.3 0-.3.1-.5.2-.7.2-.3.2-.4.6-.6.2-.1.3-.2.4-.3.1-.1 0-.3-.1-.3-.1-.1-.2-.3-.3-.4l-.2-.3c-.1-.1-.1-.3-.1-.3 0-.1 0-.3.1-.3.1-.1.3-.2.4-.3.1-.1.2-.3.1-.3-.2-.2-.3-.3-.5-.4-.2-.2-.3-.3-.3-.4s.6-.2.8-.3c.1-.1-.1-.3-.3-.4-.3-.2-.4-.3-.3-.4.1-.1.2-.3.2-.3.4-.4.3-.9.5-1.3 0 0 0-.1.1-.1s.1-.1.2-.1.2-.1.2-.1c.1 0 .1-.1.1-.1 0-.1-.3-.3-.3-.4 0-.1.2-.3.3-.3l.3-.3c.1-.3.2-.4.2-.7v-.7c.1-.1.1-.3.2-.3 0-.2 0-.3-.2-.3-.1-.2-.3-.3-.3-.4 0-.1 0-.3.1-.3.1-.3.3-.4.4-.7.1-.1.1-.3.1-.3 0-.1-.2-.3-.3-.4.4.3.4.2.4.1l.2-.2v-.3c-.5-.3-.6-.3-.6-.5 0-.1-.1-.3-.1-.3-.1-.9.7-1.7 1.5-1.8.9-.1 1.7.7 1.8 1.5v.7zM652.4 1.3l.3.6c-.1.4-.2.8-.4 1.1-.1.2-.2.3-.3.5-.1.2-.1.3-.2.5 0 .2 0 .4.1.6.1.2.3.4.2.6s-.4.3-.5.5c-.1.1 0 .2.2.3.1 0 .1.1.1.2v.2c-.1.8-.5 1.4-.5 2.2 0 .2 0 .3-.1.6-.1.2-.2.4-.3.5-.2.2-.3.3-.3.5s.3.4.3.6c0 .2-.2.4-.3.5-.2.2-.3.3-.4.5-.1.2-.1.3-.1.6 0 .2.1.4.1.6 0 .3 0 .8-.1 1.1l-.1.5c0 .2-.1.3-.2.5-.2.3-.2.8.1 1.1.2.3.3.8.3 1.2.1.3.2.8.1 1.1 0 .2 0 .3-.1.5s-.3.3-.3.5c-.1.3-.1.8.1 1.1.1.2.2.4.2.6v.3s0 .2-.1.3c-.1.1-.2.2-.2.3-.1.1-.1.2-.1.3 0 .2.1.4.2.6.1.2 0 .4-.1.6-.1.2-.4.3-.5.5-.1.2-.1.3 0 .6.1.2 0 .4-.2.5-.2.2-.3.3-.1.6.1.1.2.2.2.3 0 .1 0 .2-.1.3-.3.3-.5.7-.5 1 0 .2 0 .3.1.4 0 .1 0 .1.1.2 0 .2 0 .4-.2.5-.2.2-.3.3-.2.5l.3.6c.1.3.2.8.1 1.1-.2.8-1 1.4-1.9 1.3-.8-.2-1.3-.8-1.3-1.6v-.1c0-.3.1-.8.3-1.1.2-.2.3-.3.3-.5 0-.3 0-.4-.2-.6-.2-.2-.2-.4-.1-.6 0-.1.1-.1.1-.1.1-.1.2-.3.3-.4 0-.4-.2-.8-.4-1.2v-.3c.1-.1.3-.2.3-.3.3-.2.3-.3.1-.5-.1-.1-.1-.2-.1-.3 0-.1.1-.2.2-.3l.3-.3s.1-.2.1-.3c0-.2-.3-.4-.3-.6-.1-.2 0-.4.2-.5.2-.2.3-.3.3-.5 0-.1.1-.2 0-.3 0-.1-.1-.2-.1-.3V21s.1-.2.1-.3c.1-.2.2-.3.3-.5.1-.2.2-.3.3-.5.1-.2.1-.4 0-.6-.1-.2-.3-.4-.3-.6-.1-.2-.1-.3-.1-.6s.1-.8.3-1.1c.1-.4.3-.8.7-1 .2-.2.3-.3.4-.5.1-.2 0-.4-.1-.6s-.7-.5-.7-.7l-.1-.6c0-.2-.1-.3 0-.6 0-.2.1-.3.2-.5s.3-.3.4-.5c.1-.2.2-.3.1-.6s-.3-.4-.4-.6-.3-.3-.3-.6c.1-.2.7-.3.8-.4.2-.2-.1-.4-.3-.6-.3-.3-.4-.4-.3-.6s.2-.3.3-.5c.4-.7.3-1.4.6-2.2 0-.1 0-.1.1-.2s.1-.1.2-.1c.2-.1.3-.2.3-.3 0-.2-.3-.4-.3-.6s.2-.3.3-.5c.2-.2.3-.3.3-.5.1-.3.2-.8.2-1.1s0-.8.1-1.1c.1-.2.1-.3.2-.5V.5c0-.1-.1-.2-.1-.3 0 0 0-.1-.1-.1h3.1c-.1.2-.2.3-.3.4 0 0 0 .1-.1.1-.5.2-.6.4-.5.7zM669.8 10.6c0 .1-.1.3-.1.3 0 .1-.1.3-.2.3-.1.1-.2.3-.1.3l.2.2c0 .1 0 .2-.1.2-.1.1-.3.2-.3.3 0 .1 0 .3.1.3.1.3.3.5.4.8.1.1.1.3.1.3 0 .1-.2.3-.3.3-.1.1-.2.3-.1.3.1.2.3.3.3.4 0 .3-.2.4-.4.7l-.3.3c-.1.1-.1.3-.1.3 0 .1 0 .3.1.3.1.2.3.3.2.3-.1.1-.4.2-.5.3-.1.1 0 .1.2.2.1 0 .1.1.1.1v.1c-.1.4-.4.8-.4 1.3v.3s-.2.3-.3.3c-.2.1-.3.2-.3.3 0 .1.3.3.3.4 0 .2-.1.3-.3.3s-.3.2-.3.3c-.1.1-.1.3-.1.3 0 .1.1.3.1.3 0 .3 0 .5-.1.7l-.1.3c0 .1-.1.3-.2.3-.2.3-.1.4.1.7s.3.5.3.8c.1.3.2.5.2.8 0 .1 0 .3-.1.3-.1.1-.3.2-.3.3-.2.3 0 .5.2.8.1.1.2.3.3.4 0 .1.1.1.1.2s0 .2-.1.2c-.1.1-.2.1-.2.2s-.1.1-.1.2c0 .2.1.3.2.3.1.1 0 .3-.1.3-.1.1-.4.2-.5.3-.1.1-.1.3 0 .3.1.1 0 .3-.2.3-.2.1-.3.2-.1.3l.2.2c0 .1 0 .1-.1.2-.3.2-.5.4-.5.7 0 .1.1.3.2.3.1.1 0 .3-.2.3s-.3.2-.2.3c0 .1.2.3.3.4.2.3.2.5.1.8-.3.8-1.1 1.4-1.9 1.2-.7-.2-1.2-.8-1.3-1.4v-.2c0-.3 0-.5.2-.7.1-.1.3-.2.3-.3.1-.1-.1-.3-.3-.4-.2-.2-.2-.3-.1-.3.1-.1.3-.2.3-.3 0-.3-.3-.5-.4-.8v-.2c.1-.1.3-.1.3-.2.3-.1.3-.2.1-.3-.2-.2-.2-.3 0-.3.1-.1.2-.1.3-.2.1 0 .1-.1.1-.2s-.3-.3-.3-.4c-.1-.2 0-.3.1-.3.1-.1.3-.2.3-.3 0-.1.1-.1 0-.2 0-.1-.1-.2-.2-.2 0-.1-.1-.1 0-.2 0-.1.1-.1.1-.2.1-.1.2-.3.3-.3.1-.1.2-.2.2-.3.1-.1 0-.3-.1-.3-.1-.2-.3-.3-.4-.4-.1-.1-.1-.3-.1-.3 0-.3.1-.5.2-.7.2-.3.2-.4.6-.6.2-.1.3-.2.4-.3.1-.1 0-.3-.1-.3-.1-.1-.2-.3-.3-.4l-.2-.3c-.1-.1-.1-.3-.1-.3 0-.1 0-.3.1-.3.1-.1.3-.2.4-.3.1-.1.2-.3.1-.3-.2-.2-.3-.3-.5-.4-.2-.2-.3-.3-.3-.4.1-.1.6-.2.8-.3.1-.1-.1-.3-.3-.4-.3-.2-.4-.3-.3-.4.1-.1.2-.3.2-.3.4-.4.3-.9.5-1.3 0 0 0-.1.1-.1s.1-.1.2-.1.2-.1.2-.1c.1 0 .1-.1.1-.1 0-.1-.3-.3-.3-.4 0-.1.2-.3.3-.3l.3-.3c.1-.3.2-.4.2-.7v-.7c.1-.1.1-.3.2-.3 0-.2 0-.3-.2-.3-.1-.2-.3-.3-.3-.4 0-.1 0-.3.1-.3.1-.3.3-.4.4-.7.1-.1.1-.3.1-.3 0-.1-.2-.3-.3-.4-.1-.1-.1-.1-.1-.2s.1-.1.2-.2 0-.3 0-.3c-.1-.1-.1-.3-.2-.3 0-.1-.1-.3-.1-.3-.1-.9.7-1.7 1.5-1.8.8-.1 1.7.7 1.8 1.5v.4l.1.4zM689.8.2c0 .1-.1.2-.1.3v.1c-.1.2-.1.3-.2.4-.1.2-.2.3-.1.6.1.1.1.2.2.3 0 .1 0 .2-.1.3-.1.2-.3.3-.4.5 0 .2 0 .4.1.6.1.4.3.8.3 1.2.1.2.1.3.1.6-.1.2-.2.3-.3.5s-.2.3-.2.5l.3.6c-.1.4-.2.8-.4 1.1-.1.2-.2.3-.3.5-.1.2-.1.3-.2.5 0 .2 0 .4.1.6.1.2.3.4.2.6s-.4.3-.5.5c-.1.1 0 .2.2.3.1.1.1.1.1.2v.2c-.1.8-.5 1.4-.5 2.2 0 .2 0 .3-.1.6s-.2.4-.3.5c-.2.2-.3.3-.3.5s.3.4.3.6-.2.3-.3.5c-.2.2-.3.3-.4.5-.1.2-.1.3-.1.6 0 .2.1.4.1.6 0 .3 0 .8-.1 1.1l-.1.5c0 .2-.1.3-.2.5-.2.3-.2.8.1 1.1.2.3.3.8.3 1.2.1.3.2.8.1 1.1 0 .2 0 .4-.1.6-.1.2-.3.3-.3.5-.1.3-.1.8.1 1.1.1.2.2.4.2.6v.3c0 .1 0 .2-.1.3-.1.1-.2.2-.2.3-.1.1-.1.2-.1.3 0 .2.1.4.2.6.1.2 0 .4-.1.6s-.4.3-.5.5c-.1.2-.1.3 0 .6.1.2 0 .4-.2.5-.2.2-.3.3-.1.6.1.1.2.2.2.3 0 .1 0 .2-.1.3-.3.3-.5.7-.5 1 0 .2 0 .3.1.4 0 .1 0 .1.1.2.1.2 0 .4-.2.5-.2.2-.3.3-.2.5l.3.6c.1.3.2.8.1 1.1-.2.8-1 1.4-1.9 1.3-.8-.2-1.3-.8-1.3-1.6v-.2c0-.3.1-.8.3-1.1.2-.2.3-.3.3-.5 0-.3 0-.4-.2-.6s-.2-.3-.1-.6c0-.1.1-.1.1-.2.1-.1.2-.3.2-.4 0-.4-.2-.8-.4-1.2v-.3c.1-.1.3-.2.3-.3.3-.2.3-.3.1-.5-.1-.1-.1-.2-.1-.3 0-.1.1-.2.2-.3l.3-.3c.1-.1.1-.2.1-.3 0-.2-.3-.4-.3-.6 0-.2 0-.4.2-.5.2-.2.3-.3.3-.5 0-.1.1-.2 0-.3 0-.1-.1-.2-.1-.3 0-.1-.1-.2 0-.3 0-.1.1-.2.1-.3.1-.2.2-.3.3-.5.1-.2.2-.3.3-.5.1-.2.1-.4 0-.6-.1-.2-.3-.4-.3-.6-.1-.2-.1-.3-.1-.6s.1-.8.3-1.1c.1-.4.3-.8.7-1 .2-.2.3-.3.4-.5.1-.2 0-.4-.1-.6s-.2-.3-.2-.6l-.1-.6c0-.2-.1-.3-.1-.6 0-.2.1-.3.2-.5s.3-.3.4-.5c.1-.2.2-.3.1-.6s-.3-.4-.4-.6-.3-.3-.3-.6c.1-.2.7-.3.8-.4.1-.2 0-.3-.3-.6s-.4-.4-.3-.6.2-.3.3-.5c.4-.7.3-1.4.6-2.2 0-.1 0-.1.1-.2s.1-.1.2-.1c.2-.1.3-.2.3-.3 0-.2-.3-.4-.3-.6s.2-.3.3-.5c.2-.2.3-.3.3-.5.1-.3.2-.8.2-1.1s0-.8.1-1.1c.1-.2.2-.3.2-.5s0-.4-.1-.6-.2-.3-.3-.6c0-.2.1-.3.1-.6.1-.3.3-.7.5-1.1.1-.2.1-.3.1-.5s-.2-.4-.3-.6c0-.1-.1-.2 0-.3.1-.1.1-.2.2-.3.1-.2.1-.4 0-.6v.2c0-.1-.1-.3-.1-.4h2.3zM706.5 15.3c0 .1-.1.3-.1.3 0 .1-.1.3-.2.3s-.2.3-.1.3.1.1.2.2c0 .1 0 .2-.1.2-.1.1-.3.2-.3.3 0 .1 0 .3.1.3.1.3.3.5.4.8.1.1.1.3.1.3s-.2.3-.3.3c-.1.1-.2.3-.1.3.1.2.3.3.3.4 0 .3-.2.4-.4.7l-.3.3c-.1.1-.1.3-.1.3s0 .3.1.3c.1.2.3.3.2.3-.1.1-.4.2-.5.3-.1.1 0 .1.2.2.1 0 .1.1.1.1v.1c-.1.4-.4.8-.4 1.3v.3c0 .1-.2.3-.3.3s-.3.2-.3.3c0 .1.3.3.3.4 0 .2-.1.3-.3.3-.2.1-.3.2-.3.3-.1.1-.1.3-.1.3l.1.3c0 .3 0 .5-.1.7l-.1.3c0 .1-.1.3-.2.3-.2.3-.1.4.1.7.2.3.3.5.3.8.1.3.2.5.2.8 0 .1 0 .3-.1.3-.1.1-.3.2-.3.3-.2.3 0 .5.2.8.1.1.2.3.3.4 0 .1.1.1.1.2s0 .2-.1.2c-.1.1-.2.1-.2.2s-.1.1-.1.2c0 .2.1.3.2.3.1.1 0 .3-.1.3-.1.1-.4.2-.5.3-.1.1-.1.3 0 .3s0 .3-.2.3c-.2.1-.3.2-.1.3l.2.2c0 .1 0 .1-.1.2-.3.2-.5.4-.5.7 0 .1.1.3.2.3.1.1 0 .3-.2.3-.2.1-.3.2-.2.3 0 .1.2.3.3.4.2.3.2.5.1.8-.3.8-1.1 1.4-1.9 1.2-.7-.2-1.2-.8-1.3-1.4v-.2c0-.3 0-.5.2-.7.1-.1.3-.2.3-.3.1-.1-.1-.3-.3-.4s-.2-.3-.1-.3c.1-.1.3-.2.3-.3 0-.3-.3-.5-.4-.8v-.2c.1-.1.3-.1.3-.2.3-.1.3-.2.1-.3s-.2-.3 0-.3c.1-.1.2-.1.3-.2.1 0 .1-.1.1-.2s-.3-.3-.3-.4c-.1-.2 0-.3.1-.3.1-.1.3-.2.3-.3 0-.1.1-.1 0-.2 0-.1-.1-.2-.2-.2 0-.1-.1-.1 0-.2 0-.1.1-.1.1-.2.1-.1.2-.3.3-.3.1-.1.2-.2.2-.3.1-.1 0-.3-.1-.3-.1-.2-.3-.3-.4-.4-.1-.1-.1-.3-.1-.3 0-.3.1-.5.2-.7.2-.3.2-.4.6-.6.2-.1.3-.2.4-.3.1-.1 0-.3-.1-.3-.1-.1-.2-.3-.3-.4l-.2-.3c-.1-.1-.1-.3-.1-.3 0-.1 0-.3.1-.3s.3-.2.4-.3c.1-.1.2-.3.1-.3-.2-.2-.3-.3-.5-.4-.2-.2-.3-.3-.3-.4.1-.1.6-.2.8-.3.1-.1-.1-.3-.3-.4-.3-.2-.4-.3-.3-.4.1-.1.2-.3.2-.3.4-.4.3-.9.5-1.3 0 0 0-.1.1-.1s.1-.1.2-.1.2-.1.2-.1c.1 0 .1-.1.1-.1 0-.1-.3-.3-.3-.4 0-.1.2-.3.3-.3l.3-.3c.1-.3.2-.4.2-.7v-.7c.1-.1.1-.3.2-.3 0-.2 0-.3-.2-.3-.1-.2-.3-.3-.3-.4 0-.1 0-.3.1-.3.1-.3.3-.4.4-.7.1-.1.1-.3.1-.3s-.2-.3-.3-.4c-.1-.1-.1-.1-.1-.2l.2-.2c.1-.1 0-.3 0-.3-.1-.1-.1-.3-.2-.3 0-.1-.1-.3-.1-.3-.1-.9.7-1.7 1.5-1.8.8-.1 1.7.7 1.8 1.5v.4l.1.4zM726.6 4.7c0 .2-.1.3-.2.5s-.1.3-.2.5-.2.3-.1.6c.1.1.1.2.2.3 0 .1 0 .2-.1.3-.1.2-.3.3-.4.5 0 .2 0 .4.1.6.1.4.3.8.3 1.2.1.2.1.3.1.6-.1.2-.2.3-.3.5-.2.2-.2.3-.2.5l.3.6c-.1.4-.2.8-.4 1.1-.1.2-.2.3-.3.5s-.1.3-.2.5c0 .2 0 .4.1.6s.3.4.2.6c-.1.2-.4.3-.5.5-.1.1 0 .2.2.3.1 0 .1.1.1.2v.2c-.1.8-.5 1.4-.5 2.2 0 .2 0 .3-.1.6s-.2.4-.3.5c-.2.2-.3.3-.3.5s.3.4.3.6c0 .2-.2.4-.3.5-.2.2-.3.3-.4.5-.1.2-.1.3-.1.6 0 .2.1.4.1.6 0 .3 0 .8-.1 1.1l-.1.5c0 .2-.1.3-.2.5-.2.3-.2.8.1 1.1.2.3.3.8.3 1.2.1.3.2.8.1 1.2 0 .2 0 .3-.1.5s-.3.3-.3.5c-.1.3-.1.8.1 1.1.1.2.2.4.2.6v.3s0 .2-.1.3-.2.2-.2.3c-.1.1-.1.2-.1.3 0 .2.1.4.2.6.1.2 0 .4-.1.6s-.4.3-.5.5c-.1.2-.1.3 0 .6.1.2 0 .4-.2.5-.2.2-.3.3-.1.6.1.1.2.2.2.3 0 .1 0 .2-.1.3-.3.3-.5.7-.5 1 0 .2.1.4.2.6.1.2 0 .4-.2.5-.2.2-.3.3-.2.5l.3.6c.1.3.2.8.1 1.1-.2.8-1 1.4-1.9 1.3-.8-.2-1.3-.8-1.3-1.6v.1c0-.3.1-.8.3-1.1.2-.2.3-.3.3-.5 0-.3 0-.4-.2-.6-.2-.2-.2-.4-.1-.6.1-.2.3-.3.3-.5 0-.4-.2-.8-.4-1.2v-.3c.1-.1.3-.2.3-.3.3-.2.3-.3.1-.5-.1-.1-.1-.2-.1-.3 0-.1.1-.2.2-.3l.3-.3c.1-.1.1-.2.1-.3 0-.2-.3-.4-.3-.6 0-.2 0-.4.2-.5.2-.2.3-.3.3-.5 0-.1.1-.2 0-.3 0-.1-.1-.2-.1-.3 0-.1-.1-.2 0-.3 0-.1.1-.2.1-.3.1-.2.2-.3.3-.5.1-.2.2-.3.3-.5s.1-.4 0-.6c-.1-.2-.3-.4-.3-.6-.1-.2-.1-.3-.1-.6s.1-.8.3-1.1c.1-.4.3-.8.7-1 .2-.2.3-.3.4-.5.1-.2 0-.4-.1-.6-.1-.2-.2-.4-.2-.6l-.1-.6c0-.2-.1-.3 0-.6 0-.2.1-.3.2-.5s.3-.3.4-.5c.1-.2.2-.3.1-.6s-.3-.4-.4-.6c-.2-.2-.3-.3-.3-.6.1-.2.7-.3.8-.4.2-.2 0-.4-.3-.6-.3-.3-.4-.4-.3-.6.1-.2.2-.3.3-.5.4-.7.3-1.4.6-2.2 0-.1 0-.1.1-.2s.1-.1.2-.1c.2-.1.3-.2.3-.3 0-.2-.3-.4-.3-.6 0-.2.2-.3.3-.5s.3-.3.3-.5c.1-.3.2-.8.2-1.1s0-.8.1-1.1c.1-.2.2-.3.2-.5s0-.4-.1-.6l-.3-.6c0-.2 0-.3.1-.6s.3-.7.5-1.1c.1-.2.1-.3.1-.5s-.2-.4-.3-.6c-.1-.1-.1-.2 0-.3.1-.1.1-.2.2-.3.1-.2.1-.4 0-.6s-.1-.3-.1-.6v-.6c0-.9.8-1.6 1.7-1.6s1.6.8 1.6 1.7c-.9 0-.9.1-1 .3zM743.3 20.1c0 .1-.1.3-.1.3s-.1.3-.2.3c-.1.1-.2.3-.1.3s.1.1.2.2c0 .1 0 .2-.1.2-.1.1-.3.2-.3.3 0 .1 0 .3.1.3.1.3.3.5.4.8.1.1.1.3.1.3s-.2.3-.3.3c-.1.1-.2.3-.1.3.1.2.3.3.3.4 0 .3-.2.4-.4.7l-.3.3c-.1.1-.1.3-.1.3 0 .1 0 .3.1.3.1.2.3.3.2.3-.1.1-.4.2-.5.3-.1.1 0 .1.2.2.1 0 .1.1.1.1v-.1c-.1.4-.4.8-.4 1.3v.3c0 .1-.2.3-.3.3-.2.1-.3.2-.3.3 0 .1.3.3.3.4 0 .2-.1.3-.3.3-.2.1-.3.2-.3.3-.1.1-.1.3-.1.3 0 .1.1.3.1.3 0 .3 0 .5-.1.7l-.1.3c0 .1-.1.3-.2.3-.2.3-.1.4.1.7.2.3.3.5.3.8.1.3.2.5.2.8 0 .1 0 .3-.1.3s-.3.2-.3.3c-.2.3 0 .5.2.8.1.1.2.3.3.4 0 .1.1.1.1.2s0 .2-.1.2c-.1.1-.2.1-.2.2s-.1.1-.1.2c0 .2.1.3.2.3.1.1 0 .3-.1.3-.1.1-.4.2-.5.3-.1.1-.1.3 0 .3.1.1 0 .3-.2.3-.2.1-.3.2-.1.3l.2.2c0 .1 0 .1-.1.2-.3.2-.5.4-.5.7 0 .1.1.3.2.3.1.1 0 .3-.2.3-.2.1-.3.2-.2.3 0 .1.2.3.3.4.2.3.2.5.1.8-.3.8-1.1 1.4-1.9 1.2-.7-.2-1.2-.8-1.3-1.4v-.2c0-.3 0-.5.2-.7.1-.1.3-.2.3-.3.1-.1-.1-.3-.3-.4-.2-.2-.2-.3-.1-.3.1-.1.3-.2.3-.3 0-.3-.3-.5-.4-.8v-.2c.1-.1.3-.1.3-.2.3-.1.3-.2.1-.3s-.2-.3 0-.3c.1-.1.2-.1.3-.2.1 0 .1-.1.1-.2s-.3-.3-.3-.4c-.1-.2 0-.3.1-.3s.3-.2.3-.3c0-.1.1-.1 0-.2 0-.1-.1-.2-.2-.2 0-.1-.1-.1 0-.2 0-.1.1-.1.1-.2.1-.1.2-.3.3-.3.1-.1.2-.2.2-.3.1-.1 0-.3-.1-.3-.1-.2-.3-.3-.4-.4-.1-.1-.1-.3-.1-.3 0-.3.1-.5.2-.7.2-.3.2-.4.6-.6.2-.1.3-.2.4-.3.1-.1 0-.3-.1-.3-.1-.1-.2-.3-.3-.4l-.2-.3c-.1-.1-.1-.3-.1-.3 0-.1 0-.3.1-.3.1-.1.3-.2.4-.3.1-.1.2-.3.1-.3-.2-.2-.3-.3-.5-.4-.2-.2-.3-.3-.3-.4 0-.2.6-.2.8-.3.1-.1-.1-.3-.3-.4-.3-.2-.4-.3-.3-.4.1-.1.2-.3.2-.3.4-.4.3-.9.5-1.3 0 0 0-.1.1-.1s.1-.1.2-.1.2-.1.2-.1c.1 0 .1-.1.1-.1 0-.1-.3-.3-.3-.4 0-.1.2-.3.3-.3l.3-.3c.1-.3.2-.4.2-.7v-.7c.1-.1.1-.3.2-.3 0-.2 0-.3-.2-.3-.1-.2-.3-.3-.3-.4 0-.1 0-.3.1-.3.1-.3.3-.4.4-.7.1-.1.1-.3.1-.3 0-.1-.2-.3-.3-.4-.1-.1-.1-.1-.1-.2s.1-.1.2-.2 0-.3 0-.3c-.1-.1-.1-.3-.2-.3 0-.1-.1-.3-.1-.3-.1-.9.7-1.7 1.5-1.8.8-.1 1.7.7 1.8 1.5v.4l.1.6zM763.3 9.4c0 .2-.1.3-.2.5s-.1.3-.2.5-.2.3-.1.6c.1.1.1.2.2.3 0 .1 0 .2-.1.3-.1.2-.3.3-.4.5 0 .2 0 .4.1.6.1.4.3.8.3 1.2.1.2.1.3.1.6-.1.2-.2.3-.3.5-.2.2-.2.3-.2.5l.3.6c-.1.4-.2.8-.4 1.1-.1.2-.2.3-.3.5-.1.2-.1.3-.2.5 0 .2 0 .4.1.6.1.2.3.4.2.6-.1.2-.4.3-.5.5-.1.1 0 .2.2.3.1 0 .1.1.1.2v.2c-.1.8-.5 1.4-.5 2.2 0 .2 0 .3-.1.6s-.2.4-.3.5c-.2.2-.3.3-.3.5s.3.4.3.6c0 .2-.2.4-.3.5-.2.2-.3.3-.4.5-.1.2-.1.3-.1.6 0 .2.1.4.1.6 0 .3 0 .8-.1 1.1l-.1.5c0 .2-.1.3-.2.5-.2.3-.2.8.1 1.1.2.3.3.8.3 1.2.1.3.2.8.1 1.2 0 .2 0 .3-.1.5s-.3.3-.3.5c-.1.3-.1.8.1 1.1.1.2.2.4.2.6v.3c0 .1 0 .2-.1.3-.1.1-.2.2-.2.3-.1.1-.1.2-.1.3 0 .2.1.4.2.6.1.2 0 .4-.1.6-.1.2-.4.3-.5.5s-.1.3 0 .6c.1.2 0 .4-.2.5-.2.2-.3.3-.1.6.1.1.2.2.2.3 0 .1 0 .2-.1.3-.3.3-.5.7-.5 1 0 .2.1.4.2.6 0 .2 0 .4-.2.5-.2.2-.3.3-.2.5l.3.6c.1.3.2.8.1 1.1-.2.8-1 1.4-1.9 1.3-.8-.2-1.3-.8-1.3-1.6v-.1c0-.3.1-.8.3-1.1.2-.2.3-.3.3-.5 0-.3 0-.4-.2-.6-.2-.2-.2-.4-.1-.6.1-.2.3-.3.3-.5 0-.4-.2-.8-.4-1.2v-.3c.1-.1.3-.2.3-.3.3-.2.3-.3.1-.5-.1-.1-.1-.2-.1-.3 0-.1.1-.2.2-.3l.3-.3s.1-.2.1-.3c0-.2-.3-.4-.3-.6 0-.2 0-.4.2-.5.2-.2.3-.3.3-.5 0-.1.1-.2 0-.3 0-.1-.1-.2-.1-.3 0-.1-.1-.2 0-.3 0-.1.1-.2.1-.3.1-.2.2-.3.3-.5.1-.2.2-.3.3-.5.1-.2.1-.4 0-.6s-.3-.4-.3-.6c-.1-.2-.1-.3-.1-.6s.1-.8.3-1.1c.1-.4.3-.8.7-1 .2-.2.3-.3.4-.5.1-.2 0-.4-.1-.6-.1-.2-.2-.4-.2-.6l-.1-.6c0-.2-.1-.3 0-.6 0-.2.1-.3.2-.5s.3-.3.4-.5c.1-.2.2-.3.1-.6s-.3-.4-.4-.6c-.2-.2-.3-.3-.3-.6.1-.2.7-.3.8-.4.2-.2 0-.4-.3-.6-.3-.3-.4-.4-.3-.6.1-.2.2-.3.3-.5.4-.7.3-1.4.6-2.2 0-.1 0-.1.1-.2s.1-.1.2-.1c.2-.1.3-.2.3-.3 0-.2-.3-.4-.3-.6 0-.2.2-.3.3-.5.2-.2.3-.3.3-.5.1-.3.2-.8.2-1.1s0-.8.1-1.1c.1-.2.2-.3.2-.5s0-.4-.1-.6l-.3-.6c0-.2 0-.3.1-.6s.3-.7.5-1.1c.1-.2.1-.3.1-.5s-.2-.4-.3-.6c-.1-.1-.1-.2 0-.3.1-.1.1-.2.2-.3.1-.2.1-.4 0-.6-.1-.2-.1-.3-.1-.6v-.6c0-.9.8-1.6 1.7-1.6.9 0 1.6.8 1.6 1.7V9c-.9.2-.9.2-1 .4zM779.7 28.3c0 .1-.1.2-.1.3s-.1.2-.2.3c-.1.1-.2.2-.1.3l.2.2c0 .1 0 .1-.1.2s-.3.2-.3.3c0 .1 0 .3.1.3.1.2.3.4.4.7.1.1.1.2.1.3 0 .1-.2.2-.3.3s-.2.2-.1.3l.3.3c0 .2-.2.3-.4.5l-.3.3c-.1.1-.1.2-.1.3 0 .1 0 .3.1.3s.3.3.2.3c-.1.1-.4.2-.5.3v.1s.1.1.2.1.1.1.1.1v.1c0 .4-.4.8-.4 1.1v.3c0 .1-.2.2-.3.3s-.3.2-.3.3c0 .1.3.3.3.3 0 .1-.1.2-.3.3-.2.1-.3.2-.3.3-.1.1-.1.2-.1.3 0 .1.1.2.2.3 0 .2 0 .4-.1.6v.3c0 .1-.1.2-.2.3-.2.2-.1.4.1.6.2.2.3.4.3.7.1.2.2.4.2.6 0 .1 0 .2-.1.3-.1.1-.3.2-.3.3-.2.2 0 .4.2.6l.3.3c0 .1.1.1.1.2s0 .1-.1.2-.2.1-.2.1-.1.1-.1.2.1.3.2.3c.1.1.1.3-.1.3-.1.1-.2.1-.3.1s-.2.1-.3.1c-.1.1-.1.2 0 .3.1.1 0 .2-.2.3-.2.1-.3.2 0 .3.1.1.2.1.2.2s0 .1-.1.2c-.3.2-.5.3-.5.5 0 .1.1.3.2.3.1.1 0 .2-.1.3-.2.1-.3.2-.2.3 0 .1.2.3.3.3.2.2.2.4.2.6-.3.8-1.1 1.3-2 1.2-.6-.2-1.1-.7-1.2-1.3v-.3c0-.2 0-.4.2-.6.1-.1.3-.2.3-.3v-.2l-.2-.2c-.2-.1-.2-.3-.2-.3 0-.1.3-.2.3-.3 0-.2-.3-.4-.5-.7 0-.1-.1-.1 0-.2s.3-.1.3-.1c.2 0 .3-.1.3-.1 0-.1-.1-.1-.2-.2-.2-.1-.2-.3 0-.3.1 0 .2-.1.3-.1s.1-.1.1-.2-.3-.3-.3-.3c-.1-.1 0-.2.1-.3.1-.1.3-.2.3-.3 0 0 .1-.1 0-.2 0-.1-.1-.1-.2-.2 0 0-.1-.1 0-.2 0-.1.1-.1.1-.2l.3-.3c.1-.1.2-.2.2-.3.1-.1 0-.3-.1-.3-.1-.1-.3-.3-.4-.3s-.1-.2-.1-.3.1-.4.2-.6c.2-.2.2-.3.6-.5.2-.1.3-.2.3-.3.1-.1 0-.2-.1-.3l-.3-.3-.2-.3c-.1-.1-.1-.2-.1-.3 0-.1 0-.2.1-.3.1-.1.3-.2.4-.3.1-.1.1-.2.1-.3v-.1c-.2-.2-.3-.3-.5-.3s-.3-.3-.3-.3l.1-.1.3-.1c.2 0 .3-.1.4-.1.1-.1-.1-.2-.3-.3-.3-.2-.4-.3-.4-.3 0-.1.1-.1.1-.2s.1-.1.1-.2c.3-.3.2-.8.4-1.1 0 0 0-.1.1-.1s.1-.1.2-.1.2 0 .2-.1c.1 0 .1-.1.1-.1 0-.1-.3-.3-.3-.3 0-.1.2-.2.3-.3l.3-.3c.1-.2.2-.3.2-.6v-.6c0-.1.1-.2.2-.3 0-.1 0-.3-.2-.3l-.3-.3c0-.1 0-.2.1-.3.1-.2.3-.3.4-.5.1-.1.1-.2.1-.3s-.2-.3-.3-.3c-.1-.1-.1-.1-.1-.2l.2-.2c.1-.1 0-.2 0-.3-.1-.1-.1-.2-.2-.3 0-.1-.1-.2-.1-.3-.1-.9.6-1.7 1.5-1.8.9-.1 1.7.6 1.8 1.5v.5l.1.5zM800.1 14.2c0 .2-.1.3-.2.5s-.1.3-.2.5-.2.3-.1.6c.1.1.1.2.2.3 0 .1 0 .2-.1.3-.1.2-.3.3-.4.5 0 .2 0 .4.1.6.1.4.3.8.3 1.2.1.2.1.3.1.6-.1.2-.2.3-.3.5-.2.2-.2.3-.2.5l.3.6c-.1.4-.2.8-.4 1.1-.1.2-.2.3-.3.5-.1.2-.1.3-.2.5 0 .2 0 .4.1.6.1.2.3.4.2.6s-.4.3-.5.5c-.1.1 0 .2.2.3.1 0 .1.1.1.2v.2c-.1.8-.5 1.4-.5 2.2 0 .2 0 .3-.1.6s-.2.4-.3.5c-.2.2-.3.3-.3.5s.3.4.3.6c0 .2-.2.4-.3.5-.2.2-.3.3-.4.5-.1.2-.1.3-.1.6 0 .2.1.4.1.6 0 .3 0 .8-.1 1.1l-.1.5c0 .2-.1.3-.2.5-.2.3-.2.8.1 1.1.2.3.3.8.3 1.2.1.3.2.8.1 1.2 0 .2 0 .3-.1.5s-.3.3-.3.5c-.1.3-.1.8.1 1.1.1.2.2.4.2.6v.3c0 .1 0 .2-.1.3-.1.1-.2.2-.2.3-.1.1-.1.2-.1.3 0 .2.1.4.2.6.1.2 0 .4-.1.6-.1.2-.4.3-.5.5-.1.2-.1.3 0 .6.1.2 0 .4-.2.5-.2.2-.3.3-.1.6.1.1.2.2.2.3 0 .1 0 .2-.1.3-.3.3-.5.7-.5 1 0 .2.1.4.2.6.1.2 0 .4-.2.5-.2.2-.3.3-.2.5l.3.6c.1.3.2.8.1 1.1-.2.8-1 1.4-1.9 1.3-.8-.2-1.3-.8-1.3-1.6v-.1c0-.3.1-.8.3-1.1.2-.2.3-.3.3-.5 0-.3 0-.4-.2-.6-.2-.2-.2-.4-.1-.6.1-.2.3-.3.3-.5 0-.4-.2-.8-.4-1.2v-.3c.1-.1.3-.2.3-.3.3-.2.3-.3.1-.5-.1-.1-.1-.2-.1-.3 0-.1.1-.2.2-.3l.3-.3c.1-.1.1-.2.1-.3 0-.2-.3-.4-.3-.6 0-.2 0-.4.2-.5.2-.2.3-.3.3-.5 0-.1.1-.2 0-.3 0-.1-.1-.2-.1-.3 0-.1-.1-.2 0-.3 0-.1.1-.2.1-.3.1-.2.2-.3.3-.5.1-.2.2-.3.3-.5.1-.2.1-.4 0-.6-.1-.2-.3-.4-.3-.6-.1-.2-.1-.3-.1-.6s.1-.8.3-1.1c.1-.4.3-.8.7-1 .2-.2.3-.3.4-.5.1-.2 0-.4-.1-.6-.1-.2-.2-.4-.2-.6l-.1-.6c0-.2-.1-.3 0-.6 0-.2.1-.3.2-.5s.3-.3.4-.5c.1-.2.2-.3.1-.6s-.3-.4-.4-.6c-.2-.2-.3-.3-.3-.6.1-.2.7-.3.8-.4.2-.2 0-.4-.3-.6-.3-.3-.4-.4-.3-.6.1-.2.2-.3.3-.5.4-.7.3-1.4.6-2.2 0-.1 0-.1.1-.2s.1-.1.2-.1c.2-.1.3-.2.3-.3 0-.2-.3-.4-.3-.6 0-.2.2-.3.3-.5.2-.2.3-.3.3-.5.1-.3.2-.8.2-1.1s0-.8.1-1.1c.1-.2.2-.3.2-.5s0-.4-.1-.6l-.3-.6c0-.2 0-.3.1-.6s.3-.7.5-1.1c.1-.2.1-.3.1-.5s-.2-.4-.3-.6c-.1-.1-.1-.2 0-.3.1-.1.1-.2.2-.3.1-.2.1-.4 0-.6s-.1-.3-.1-.6v-.6c0-.9.8-1.6 1.7-1.6s1.6.8 1.6 1.7c-.9.2-.9.3-1 .5zM816.8 29.5c0 .1-.1.3-.1.3 0 .1-.1.3-.2.3s-.2.3-.1.3l.2.2c0 .1 0 .2-.1.2-.1.1-.3.2-.3.3 0 .1 0 .3.1.3.1.3.3.5.4.8.1.1.1.3.1.3s-.2.3-.3.3c-.1.1-.2.3-.1.3.1.2.3.3.3.4 0 .3-.2.4-.4.7l-.3.3c-.1.1-.1.3-.1.3 0 .1 0 .3.1.3.1.2.3.3.2.3-.1.1-.4.2-.5.3s0 .1.2.2c.1 0 .1.1.1.1v.1c-.1.4-.4.8-.4 1.3v.3s-.2.3-.3.3c-.2.1-.3.2-.3.3 0 .1.3.3.3.4s-.1.3-.3.3-.3.2-.3.3c-.1.1-.1.3-.1.3l.1.3c0 .3 0 .5-.1.7l-.1.3c0 .1-.1.3-.2.3-.2.3-.1.4.1.7.2.3.3.5.3.8.1.3.2.5.2.8 0 .1 0 .3-.1.3s-.3.2-.3.3c-.2.3 0 .5.2.8.1.1.2.3.3.4 0 .1.1.1.1.2s0 .2-.1.2c-.1.1-.2.1-.2.2s-.1.1-.1.2c0 .2.1.3.2.3.1.1 0 .3-.1.3-.1.1-.4.2-.5.3-.1.1-.1.3 0 .3s0 .3-.2.3c-.2.1-.3.2-.1.3l.2.2c0 .1 0 .1-.1.2-.3.2-.5.4-.5.7 0 .1.1.3.2.3.1.1 0 .3-.2.3-.2.1-.3.2-.2.3 0 .1.2.3.3.4.2.3.2.5.1.8-.3.8-1.1 1.4-1.9 1.2-.7-.2-1.2-.8-1.3-1.4v-.2c0-.3 0-.5.2-.7.1-.1.3-.2.3-.3.1-.1-.1-.3-.3-.4s-.2-.3-.1-.3c.1-.1.3-.2.3-.3 0-.3-.3-.5-.4-.8v-.2c.1-.1.3-.1.3-.2.3-.1.3-.2.1-.3-.2-.2-.2-.3 0-.3.1-.1.2-.1.3-.2.1 0 .1-.1.1-.2s-.3-.3-.3-.4 0-.3.1-.3.3-.2.3-.3c0-.1.1-.1 0-.2 0-.1-.1-.2-.2-.2 0-.1-.1-.1 0-.2 0-.1.1-.1.1-.2.1-.1.2-.3.3-.3s.2-.2.2-.3c.1-.1 0-.3-.1-.3-.1-.2-.3-.3-.4-.4-.1-.1-.1-.3-.1-.3 0-.3.1-.5.2-.7.2-.3.2-.4.6-.6.2-.1.3-.2.4-.3.1-.1 0-.3-.1-.3s-.2-.3-.3-.4l-.2-.3c-.1-.1-.1-.3-.1-.3 0-.1 0-.3.1-.3s.3-.2.4-.3c.1-.1.2-.3.1-.3-.2-.2-.3-.3-.5-.4-.2-.2-.3-.3-.3-.4.1-.1.6-.2.8-.3.1-.1-.1-.3-.3-.4-.3-.2-.4-.3-.3-.4.1-.1.2-.3.2-.3.4-.4.3-.9.5-1.3 0 0 0-.1.1-.1s.1-.1.2-.1.2-.1.2-.1c.1 0 .1-.1.1-.1 0-.1-.3-.3-.3-.4 0-.1.2-.3.3-.3l.3-.3c.1-.3.2-.4.2-.7V33c.1-.1.1-.3.2-.3 0-.2 0-.3-.2-.3-.1-.2-.3-.3-.3-.4 0-.1 0-.3.1-.3.1-.3.3-.4.4-.7.1-.1.1-.3.1-.3 0-.1-.2-.3-.3-.4-.1-.1-.1-.1-.1-.2l.2-.2c.1-.1 0-.3 0-.3-.1-.1-.1-.3-.2-.3 0-.1-.1-.3-.1-.3-.1-.9.7-1.7 1.5-1.8s1.7.7 1.8 1.5v.4l.1.4zM836.8 18.9c0 .2-.1.3-.2.5s-.1.3-.2.5-.2.3-.1.6c.1.1.1.2.2.3 0 .1 0 .2-.1.3-.1.2-.3.3-.4.5 0 .2 0 .4.1.6.1.4.3.8.3 1.2.1.2.1.3.1.6-.1.2-.2.3-.3.5-.2.2-.2.3-.2.5l.3.6c-.1.4-.2.8-.4 1.1-.1.2-.2.3-.3.5-.1.2-.1.3-.2.5 0 .2 0 .4.1.6.1.2.3.4.2.6-.1.2-.4.3-.5.5-.1.1 0 .2.2.3.1 0 .1.1.1.2v.2c-.1.8-.5 1.4-.5 2.2 0 .2 0 .3-.1.6s-.2.4-.3.5c-.2.2-.3.3-.3.5s.3.4.3.6c0 .2-.2.4-.3.5-.2.2-.3.3-.4.5-.1.2-.1.3-.1.6 0 .2.1.4.1.6 0 .3 0 .8-.1 1.1l-.1.5c0 .2-.1.3-.2.5-.2.3-.2.8.1 1.1.2.3.3.8.3 1.2.1.3.2.8.1 1.2 0 .2 0 .3-.1.5s-.3.3-.3.5c-.1.3-.1.8.1 1.1.1.2.2.4.2.6v.3s0 .2-.1.3c-.1.1-.2.2-.2.3-.1.1-.1.2-.1.3 0 .2.1.4.2.6s0 .4-.1.6-.4.3-.5.5c-.1.2-.1.3 0 .6.1.2 0 .4-.2.5-.2.2-.3.3-.1.6.1.1.2.2.2.3 0 .1 0 .2-.1.3-.3.3-.5.7-.5 1 0 .2.1.4.2.6 0 .2 0 .4-.2.5-.2.2-.3.3-.2.5l.3.6c.1.3.2.8.1 1.1-.2.8-1 1.4-1.9 1.3-.8-.2-1.3-.8-1.3-1.6v-.1c0-.3.1-.8.3-1.1.2-.2.3-.3.3-.5 0-.3 0-.4-.2-.6s-.2-.4-.1-.6c.1-.2.3-.3.3-.5 0-.4-.2-.8-.4-1.2v-.3c.1-.1.3-.2.3-.3.3-.2.3-.3.1-.5-.1-.1-.1-.2-.1-.3 0-.1.1-.2.2-.3l.3-.3c.1-.1.1-.2.1-.3 0-.2-.3-.4-.3-.6 0-.2 0-.4.2-.5.2-.2.3-.3.3-.5 0-.1.1-.2 0-.3 0-.1-.1-.2-.1-.3 0-.1-.1-.2 0-.3 0-.1.1-.2.1-.3.1-.2.2-.3.3-.5s.2-.3.3-.5c.1-.2.1-.4 0-.6-.1-.2-.3-.4-.3-.6-.1-.2-.1-.3-.1-.6s.1-.8.3-1.1c.1-.4.3-.8.7-1 .2-.2.3-.3.4-.5.1-.2 0-.4-.1-.6-.1-.2-.2-.4-.2-.6l-.1-.6c0-.2-.1-.3 0-.6 0-.2.1-.3.2-.5s.3-.3.4-.5c.1-.2.2-.3.1-.6s-.3-.4-.4-.6-.3-.3-.3-.6c.1-.2.7-.3.8-.4.2-.2 0-.4-.3-.6-.3-.3-.4-.4-.3-.6s.2-.3.3-.5c.4-.7.3-1.4.6-2.2 0-.1 0-.1.1-.2s.1-.1.2-.1c.2-.1.3-.2.3-.3 0-.2-.3-.4-.3-.6 0-.2.2-.3.3-.5.2-.2.3-.3.3-.5.1-.3.2-.8.2-1.1s0-.8.1-1.1c.1-.2.2-.3.2-.5s0-.4-.1-.6l-.3-.6c0-.2 0-.3.1-.6s.3-.7.5-1.1c.1-.2.1-.3.1-.5s-.2-.4-.3-.6c-.1-.1-.1-.2 0-.3.1-.1.1-.2.2-.3.1-.2.1-.4 0-.6-.1-.2-.1-.3-.1-.6v-.6c.1-.9.8-1.6 1.7-1.5.8 0 1.6.8 1.5 1.7-.8.1-.8.2-.9.4zM853.6 34.2c0 .1-.1.3-.1.3 0 .1-.1.3-.2.3-.1.1-.2.3-.1.3s.1.1.2.2c0 .1 0 .2-.1.2-.1.1-.3.2-.3.3 0 .1 0 .3.1.3.1.3.3.5.4.8.1.1.1.3.1.3s-.2.3-.3.3c-.1.1-.2.3-.1.3.1.2.3.3.3.4 0 .3-.2.4-.4.7l-.3.3c-.1.1-.1.3-.1.3s0 .3.1.3c.1.2.3.3.2.3-.1.1-.4.2-.5.3-.1.1 0 .1.2.2.1 0 .1.1.1.1v.3c-.1.4-.4.8-.4 1.3v.3c0 .1-.2.3-.3.3-.2.1-.3.2-.3.3 0 .1.3.3.3.4 0 .2-.1.3-.3.3-.2.1-.3.2-.3.3-.1.1-.1.3-.1.3 0 .1.1.3.1.3 0 .3 0 .5-.1.7l-.1.3c0 .1-.1.3-.2.3-.2.3-.1.4.1.7.2.3.3.5.3.8s.2.5.2.8c0 .1 0 .3-.1.3-.1.1-.3.2-.3.3-.2.3 0 .5.2.8.1.1.2.3.3.4 0 .1.1.1.1.2s0 .2-.1.2c-.1.1-.2.1-.2.2s-.1.1-.1.2c0 .2.1.3.2.3.1.1 0 .3-.1.3-.1.1-.4.2-.5.3s-.1.3 0 .3c.1.1 0 .3-.2.3-.2.1-.3.2-.1.3l.2.2c0 .1 0 .1-.1.2-.3.2-.5.4-.5.7 0 .1.1.3.2.3.1.1 0 .3-.2.3s-.3.2-.2.3c0 .1.2.3.3.4.2.3.2.5.1.8-.3.8-1.1 1.4-1.9 1.2-.7-.2-1.2-.8-1.3-1.4v-.2c0-.3 0-.5.2-.7.1-.1.3-.2.3-.3.1-.1-.1-.3-.3-.4s-.2-.3-.1-.3c.1-.1.3-.2.3-.3 0-.3-.3-.5-.4-.8v-.2c.1-.1.3-.1.3-.2.3-.1.3-.2.1-.3s-.2-.3 0-.3c.1-.1.2-.1.3-.2.1 0 .1-.1.1-.2s-.3-.3-.3-.4c-.1-.2 0-.3.1-.3.1-.1.3-.2.3-.3 0-.1.1-.1 0-.2 0-.1-.1-.2-.2-.2 0-.1-.1-.1 0-.2 0-.1.1-.1.1-.2.1-.1.2-.3.3-.3s.2-.2.2-.3c.1-.1 0-.3-.1-.3-.1-.2-.3-.3-.4-.4-.1-.1-.1-.3-.1-.3 0-.3.1-.5.2-.7.2-.3.2-.4.6-.6.2-.1.3-.2.4-.3.1-.1 0-.3-.1-.3-.1-.1-.2-.3-.3-.4l-.2-.3c-.1-.1-.1-.3-.1-.3s0-.3.1-.3.3-.2.4-.3c.1-.1.2-.3.1-.3-.2-.2-.3-.3-.5-.4-.2-.2-.3-.3-.3-.4.1-.1.6-.2.8-.3.1-.1-.1-.3-.3-.4-.3-.2-.4-.3-.3-.4.1-.1.2-.3.2-.3.4-.4.3-.9.5-1.3 0 0 0-.1.1-.1s.1-.1.2-.1.2-.1.2-.1c.1 0 .1-.1.1-.1 0-.1-.3-.3-.3-.4 0-.1.2-.3.3-.3l.3-.3c.1-.3.2-.4.2-.7v-.7c.1-.1.1-.3.2-.3 0-.2 0-.3-.2-.3-.1-.2-.3-.3-.3-.4 0-.1 0-.3.1-.3.1-.3.3-.4.4-.7.1-.1.1-.3.1-.3s-.2-.3-.3-.4c-.1-.1-.1-.1-.1-.2s.1-.1.2-.2 0-.3 0-.3c-.1-.1-.1-.3-.2-.3 0-.1-.1-.3-.1-.3-.1-.9.7-1.7 1.5-1.8.9-.1 1.7.7 1.8 1.5v.4l.1.2zM873.6 23.6c0 .2-.1.3-.2.5s-.1.3-.2.5-.2.3-.1.6c.1.1.1.2.2.3 0 .1 0 .2-.1.3-.1.2-.3.3-.4.5 0 .2 0 .4.1.6.1.4.3.8.3 1.2.1.2.1.3.1.6-.1.2-.2.3-.3.5-.2.2-.2.3-.2.5l.3.6c-.1.4-.2.8-.4 1.1-.1.2-.2.3-.3.5-.1.2-.1.3-.2.5 0 .2 0 .4.1.6s.3.4.2.6c-.1.2-.4.3-.5.5-.1.1 0 .2.2.3.1 0 .1.1.1.2v.2c-.1.8-.5 1.4-.5 2.2 0 .2 0 .3-.1.6s-.2.4-.3.5c-.2.2-.3.3-.3.5s.3.4.3.6-.2.4-.3.5c-.2.2-.3.3-.4.5-.1.2-.1.3-.1.6 0 .2.1.4.1.6 0 .3 0 .8-.1 1.1l-.1.5c0 .2-.1.3-.2.5-.2.3-.2.8.1 1.1.2.3.3.8.3 1.2.1.3.2.8.1 1.2 0 .2 0 .3-.1.5s-.3.3-.3.5c-.1.3-.1.8.1 1.1.1.2.2.4.2.6v.3c0 .1 0 .2-.1.3-.1.1-.2.2-.2.3-.1.1-.1.2-.1.3 0 .2.1.4.2.6.1.2 0 .4-.1.6-.1.2-.4.3-.5.5-.1.2-.1.3 0 .6.1.2 0 .4-.2.5-.2.2-.3.3-.1.6.1.1.2.2.2.3 0 .1 0 .2-.1.3-.3.3-.5.7-.5 1 0 .2.1.4.2.6s0 .4-.2.5c-.2.2-.3.3-.2.5l.3.6c.1.3.2.8.1 1.1-.2.8-1 1.4-1.9 1.3-.8-.2-1.3-.8-1.3-1.6v-.1c0-.3.1-.8.3-1.1.2-.2.3-.3.3-.5 0-.3 0-.4-.2-.6-.2-.2-.2-.4-.1-.6s.3-.3.3-.5c0-.4-.2-.8-.4-1.2V54c.1-.1.3-.2.3-.3.3-.2.3-.3.1-.5-.1-.1-.1-.2-.1-.3 0-.1.1-.2.2-.3l.3-.3c.1-.1.1-.2.1-.3 0-.2-.3-.4-.3-.6 0-.2 0-.4.2-.5.2-.2.3-.3.3-.5 0-.1.1-.2 0-.3 0-.1-.1-.2-.1-.3 0-.1-.1-.2 0-.3 0-.1.1-.2.1-.3.1-.2.2-.3.3-.5.1-.2.2-.3.3-.5.1-.2.1-.4 0-.6-.1-.2-.3-.4-.3-.6-.1-.2-.1-.3-.1-.6s.1-.8.3-1.1c.1-.4.3-.8.7-1 .2-.2.3-.3.4-.5s0-.4-.1-.6c-.1-.2-.2-.4-.2-.6l-.1-.6c0-.2-.1-.3 0-.6 0-.2.1-.3.2-.5s.3-.3.4-.5c.1-.2.2-.3.1-.6s-.3-.4-.4-.6c-.2-.2-.3-.3-.3-.6.1-.2.7-.3.8-.4.2-.2 0-.4-.3-.6-.3-.3-.4-.4-.3-.6s.2-.3.3-.5c.4-.7.3-1.4.6-2.2 0-.1 0-.1.1-.2s.1-.1.2-.1c.2-.1.3-.2.3-.3 0-.2-.3-.4-.3-.6 0-.2.2-.3.3-.5.2-.2.3-.3.3-.5.1-.3.2-.8.2-1.1s0-.8.1-1.1c.1-.2.2-.3.2-.5s0-.4-.1-.6l-.3-.6c0-.2 0-.3.1-.6s.3-.7.5-1.1c.1-.2.1-.3.1-.5s-.2-.4-.3-.6c-.1-.1-.1-.2 0-.3s.1-.2.2-.3c.1-.2.1-.4 0-.6-.1-.2-.1-.3-.1-.6V23c0-.9.8-1.6 1.7-1.6s1.6.8 1.6 1.7c-.9.2-1 .3-1 .5z"/></g><g><g fill="#E8EDF4"><path d="M632.6 69.1l-10-2.1c-1-.2-1.6-1.1-1.5-2.1l1.1-8.1c.2-1 1-1.7 2-1.6l10.2.7-1.8 13.2z"/><path d="M635 56.1v-.4c0-.1-.1-.2-.1-.3-.2-.2-.3-.3-.6-.3-.3.1-.8.1-1.1.1s-.8-.1-1.1-.2c-.3-.1-.8-.2-1.1-.1h-2.2c-.3 0-.5.1-.7.1-.2 0-.3 0-.4.1h-.4c-.6 0-1.2-.2-1.8-.2-.3 0-.4-.1-.7-.1h-.8c-.3 0-.4 0-.7.1-.2.1-.3.1-.4.2-.3.2-.4.3-.7.4-.1 0-.1.1-.1.1-.3.3-.5.6-.7.9-.1.2-.2.4-.2.6v.6c.1.3 0 .8-.3 1.1-.2.3-.3.7-.3 1.1-.1.3-.1.8-.2 1.1-.2.7-.3 1.4-.4 2.1-.1.2-.1.3 0 .6.1.2.1.3 0 .5s-.2.3-.3.5c0 .2-.1.4 0 .7.1.5.3 1 .5 1.4.3.4.6.8 1.1 1 .1.1.3.1.3.2.1.1.3.1.3.2.2.1.3.2.6.2.3.2.8.2 1.2.2h.6s.4.1.6.2c.3.2.8.3 1.2.3.8.1 1.5 0 2.2.1.2 0 .3 0 .6.1.2.1.4.1.6.2.2.1.4.2.6.2h.5c.3.1.7.1 1 .3h.1l1.2.3c.1-.3.1-.6.2-.8 0-.3.1-.7.1-.9v-.9c.1-.3.2-.5.3-.8.1-.3.1-.6.1-.9 0-.3.1-.6.2-.8.1-.2.1-.3.2-.5l.1-.3c.1-.3.2-.6.1-.9v-.1c0-.3 0-.4.1-.7 0 0 0-.1.1-.1.1-.3.2-.6.2-.8s.1-.6.2-.8c.2-.3.3-.5.3-.8.1-.6 0-1.3.2-1.8.1-.2.1-.3.2-.4 0-.2.1-.3.1-.4-.6-1-.6-1.2-.6-1.5zm-1.5-.2l.7.8.1.1h-.1c-.3-.1-.5-.1-.8-.2v.1c0 .2-.1.3-.1.4v.4c0 .6-.3 1-.3 1.5 0 .3 0 .6.1.8 0 .3 0 .5-.2.8s-.2.5-.1.8c.1.3.1.6-.1.8-.2.2-.3.5-.2.8 0 .3.1.6.1.9 0 .3 0 .5-.1.8-.1.3-.2.5-.2.8s.1.7.1.9-.1.5-.2.8c-.1.3-.1.5-.2.8 0 .3-.1.4-.1.7v.2c-.3-.1-.7-.1-.9-.2-.3 0-.7-.1-.9-.2-.2-.1-.4-.2-.5-.2-.2 0-.3-.1-.5 0h-.5c-.2 0-.3-.1-.5-.2-.7-.2-1.4-.5-2-.7-.3-.1-.7-.1-1-.1s-.7-.1-1-.2-.7-.2-1-.3l-.5-.1c-.2 0-.3-.1-.4-.1-.3-.1-.4-.3-.6-.5-.1-.1-.1-.3-.1-.3 0-.2 0-.3.1-.3.1-.2.1-.3.2-.4 0-.2 0-.3-.1-.6 0-.2 0-.4.2-.5.1-.2.2-.3.2-.5.2-.7.3-1.4.3-2.1.1-.3.2-.7.3-1.1.1-.2.1-.3.1-.5s0-.4-.1-.6c-.2-.4-.3-.8.1-1.1.2-.2.3-.3.3-.5v-.5c-.1-.1-.1-.3-.1-.3 0-.2 0-.3.1-.3.2-.2.4-.3.7-.2h2c.8 0 1.5-.3 2.2-.1.3.2.7.3 1.1.3.3.1.8.2 1.1.2.3.1.8.1 1.1.1.3 0 .8 0 1.1-.1.4-.2.8-.2 1.3-.2-.3-.1-.3-.3-.2-.6z"/></g><g fill="#EDF1F6"><path d="M632.8 71.4l24.9 11.8 4.4-34.2-26.9 4.1"/><path d="M639.5 73.2c-.1.1-.1.2-.1.3l.7-.1c-.2-.1-.5-.1-.6-.2zm18.4-3.7c-.1.3-.1.5-.2.8l-.2 1v.1c-.1.3-.1.8-.1 1.1 0 .2.1.4.1.6 0 .2 0 .3-.1.6s-.3.8-.4 1c-.3.7-.4 1.4-.3 2.2 0 .3.1.8.1 1.1 0 .3-.1.8-.1 1.1-.1.7-.2 1.3-.3 1.8.4.3.9.5 1.3.8l1.4-10.5.3-1.7h-1.5zm5.2-18v-.2c.2-.7.5-1.4.7-2.1 0-.2.1-.3.1-.4 0-.8-.7-1.4-1.5-1.4h-.4c-.3 0-.8 0-1.1.1-.8.1-1.6.3-2.3.5l-1.7.4c-.5.2-.9.3-1.4.5-.1 0-.2.1-.3.1-.3.1-.7.2-1 .2h-.7c-.6-.1-1.2-.2-1.8-.2-1 0-1.9.1-2.8.2l-.6.1c-.2 0-.4.1-.6.1-.4.1-.8.1-1.2.2-.6.1-1.2.2-1.7.4-.6.3-1.1.6-1.7.8-.4.1-.8.3-1.2.3-.2 0-.3 0-.5.1h-1.8c-.6 0-1.2 0-1.8.1-.3 0-.6.1-.8.2-.3.1-.6.2-.8.3-.6.2-1.2.2-1.8.1-.5 0-1 .3-1.2.8l-.3.7c-.2.4-.3.8-.4 1.3 0 .2-.1.3-.1.5s0 .4.1.6v.1c0 .2.1.3.1.6V57.3c0 .1-.1.2-.1.3l-.2.3-.3.6s-.1.4-.1.6.1.4.1.6c.1.4 0 .9-.3 1.3-.8.9-.4 1.7-.3 2.4 0 .4.1.8.1 1.2 0 .4-.1.8-.3 1.3-.1.3-.2.4-.2.7-.1.2-.1.4-.1.6 0 .2 0 .4.1.6l.1.5v.3c0 .3 0 .4-.1.7v.4c0 .2-.1.3-.1.4-.1.2-.1.3-.2.5 0 .1-.1.3-.1.3-.2.8-.3 1.6-.3 2.4.3.2.7.3 1 .5.3.1.4.2.7.3.6.3 1.1.5 1.7.8.3.1.5.2.7.3.3.2.7.3 1 .4.5.3 1 .5 1.4.8.4.3.8.4 1.3.5.8.2 1.5.4 2.2.8.8.4 1.6.8 2.3 1.3.3.2.5.3.8.4l.7.4.8.5c.5.3 1 .6 1.6.8.9.4 1.8.8 2.7 1 .3.1.5.2.7.3.3.1.6.3.8.3.3.1.5.3.8.4.5.3 1 .6 1.6.8.6.3 1.1.5 1.7.8.5.3 1.1.5 1.6.7h.1c.1 0 .2.1.3.1.5.1 1-.3 1.1-.8.1-.8.2-1.4.3-2.2l.2-1.1c.1-.3.2-.8.3-1.1.1-.3.2-.8.3-1.1.1-.3.3-.7.3-1.1.3-.7.4-1.4.3-2.2-.1-.3-.1-.8-.1-1.1 0-.2.1-.3.2-.5s.2-.3.3-.5c.2-.3.3-.7.3-1.1l.2-1v-.1c.1-.5.2-1.1.3-1.6.2-.9.3-1.8.4-2.7s.3-1.7.6-2.5c.2-.6.3-1.2.3-1.8v-.6s-.1-.3-.1-.5l-.3-1.2c-.1-.3-.1-.8 0-1.1.1-.3.3-.8.5-1 .2-.3.3-.4.4-.7.1-.1.1-.3.1-.3 0-.3.1-.5.1-.8v-.3c0-.8-.3-1.5-.3-2.3-.1-.5-.1-1 0-1.5.5-.8.6-1 .6-1.2zM656 83c.1-.2.1-.3.2-.5.2-.7.3-1.3.4-1.9-.2-.1-.3-.3-.6-.3-.2-.1-.3-.2-.5-.3-1-.4-2.3-.6-3.1-1.1-.2-.1-.3-.2-.5-.3l-.9-.6c-.1-.1-.3-.2-.3-.3-.3-.3-.8-.4-1.1-.5-.5-.3-1.1-.4-1.6-.6l-1.7-.5c-.4-.1-.8-.3-1.2-.3-.2-.1-.3-.1-.6-.2l-.8-.3h-.1l-.8-.3c-1.1-.4-1.7-1.3-2.8-1.6-.1 0-.2-.1-.3-.1-.2-.1-.4-.1-.6-.2l-.9-.3c-.3-.1-.4-.3-.7-.3-.3-.2-.5-.3-.8-.4h-.1c-.4-.3-.9-.5-1.4-.8s-1-.5-1.5-.8c.2-.7.2-1.4.3-2.2 0-.3-.1-.7-.1-1s0-.8.1-1.1c.1-.4.3-.8.4-1.2 0-.2.1-.3.1-.6v-.5c0-.3 0-.8.1-1.1 0-.2.1-.4.2-.6.1-.2.1-.4.2-.6l.3-.6c.1-.2.2-.3.2-.6.1-.2.1-.3.1-.6 0-.2-.1-.3-.2-.5-.1-.3-.1-.8.1-1.1l.3-.6s.1-.3.1-.6v-1.1c0-.2.1-.4.2-.6s.2-.3.3-.5c.3-.3.3-.7.4-1.1-.5.1-.9.2-1.4.3l.3-.3.5-.5.6-.6v1.1h.3l.9.1c.3 0 .6-.1.8-.1.4-.1.8-.2 1.1-.3.2-.1.3-.1.6-.2.1 0 .2-.1.2-.1.4-.2.8-.3 1.3-.4h.2c.6-.2 1.1-.3 1.7-.3.6 0 1.2 0 1.8.1.3 0 .7 0 .9-.1.3-.1.5-.1.8-.2h.1c.5-.1 1-.3 1.5-.3h.1c1.1-.3 2.3-.6 3.3-.9.6-.2 1.1-.4 1.7-.6h.1c.5-.2 1.1-.3 1.6-.3h.1c.6-.1 1.1-.1 1.7-.1l1.8-.2c.3 0 .8-.1 1.1-.2.2 0 .4-.1.6-.1l.8-.1c0-.3 0-.6.1-.8v-.3l.2.2.5.5.2.2c-.1 0-.2 0-.3.1-.3.1-.4.1-.6.2h-.1c0 .4 0 .8-.1 1.2 0 .2 0 .4-.1.6 0 .2-.1.3-.1.5-.1.3-.2.8-.3 1.1-.3.7-.4 1.4-.7 2.1-.3.7-.3 1.4-.2 2.2.1.8.1 1.5-.3 2.2-.2.3-.3.7-.4 1-.2.3-.3.7-.3 1.1-.2.8-.2 1.4-.3 2.2s-.2 1.4-.3 2.2c-.2 1.2-.4 2.4-.7 3.5-.1.3-.1.5-.2.8l-.2 1v.1c-.1.3-.1.8-.1 1.1 0 .2.1.4.1.6 0 .2 0 .3-.1.6s-.3.8-.4 1c-.3.7-.4 1.4-.3 2.2 0 .3.1.8.1 1.1 0 .3-.1.8-.1 1.1-.1.7-.2 1.3-.3 1.8.4.3.9.5 1.3.8.2.1.3.2.5.3l-.6.3-1.3.7-.5.1zm-16.5-9.8c-.1.1-.1.2-.1.3l.7-.1c-.2-.1-.5-.1-.6-.2zm18.2-2.1c-.1.4-.1.8-.1 1.2 0 .2.1.4.1.6s0 .3-.1.6-.3.8-.4 1c-.3.7-.4 1.4-.3 2.2 0 .3.1.8.1 1.1s-.1.8-.1 1.1c-.1.7-.2 1.3-.3 1.8.4.3.9.5 1.3.8l1.4-10.5-1.6.1zm0 0c-.1.4-.1.8-.1 1.2 0 .2.1.4.1.6s0 .3-.1.6-.3.8-.4 1c-.3.7-.4 1.4-.3 2.2 0 .3.1.8.1 1.1s-.1.8-.1 1.1c-.1.7-.2 1.3-.3 1.8.4.3.9.5 1.3.8l1.4-10.5-1.6.1z"/></g><g fill="#E3EAF2"><path d="M879.7 111.8c-7.6 1.2-22.2-2.4-26.7-2.9-12.8-1.5-25.4-3.4-38.1-5L657.7 83.2l4.4-34.1 45.8 6 103.6 13.5 44.7 5.9c6.5.8 27.5.7 32.2 4.7 3 2.6-2.2 21.2-2.6 24.9-.3 2.2-.6 4.4-2 6-.9.9-2.3 1.5-4.1 1.7z"/><path d="M662.7 57.8c-.3.3-.4.7-.5 1-.1.3-.1.8 0 1.1l.3 1.2c0 .2.1.3.1.5l.6-4.4c-.1.1-.3.4-.5.6zm0 0c-.3.3-.4.7-.5 1-.1.3-.1.8 0 1.1l.3 1.2c0 .2.1.3.1.5l.6-4.4c-.1.1-.3.4-.5.6zm-1 8.5c-.2.9-.3 1.8-.4 2.7-.1.5-.2 1.1-.3 1.6v.1h.3l.3-1.7.7-5.2c-.2.9-.5 1.7-.6 2.5zm1-8.5c-.3.3-.4.7-.5 1-.1.3-.1.8 0 1.1l.3 1.2c0 .2.1.3.1.5l.6-4.4c-.1.1-.3.4-.5.6zm226.9 19.9c-1.8-1.5-4.8-2.4-8.8-3.1-3.7-.7-8.3-1-13.3-1.3-1.2-.1-2.3-.2-3.5-.2-3.1-.2-5.9-.3-7.5-.5L753.6 59.1l-6.5-.8-62.6-8.3-2-.3-20.1-2.6c-1.1-.2-2.1.7-2.3 1.8l-.1.6-.1.8-.3 1.6-.1.5-2.2 17.1-.3 1.7-1.2 9.1-.3 2v1.1c0 .3.2.8.4 1 .3.4.8.7 1.3.8l63.2 8.3 93.9 12.3c4.4.6 9.1 1.3 13.4 1.8 6.4.9 12.9 1.8 19.5 2.6 1.8.3 3.5.4 5.3.7 1.1.2 2.9.5 5.1.8 5.2 1 12.6 2.3 18.4 2.3.8 0 1.7 0 2.4-.1.5 0 .9-.1 1.3-.2 2.4-.3 4.1-1.2 5.2-2.4 1.8-2.1 2.3-4.8 2.4-6.8v-.3c.1-.8.5-2.6.9-4.7 3.3-12.8 4.2-19.4 1.4-21.8zm-5.9 26.1c-.1.4-.1.9-.2 1.3-.3 1.5-.6 2.7-1.3 3.6-.3.3-.5.4-.8.5-.7.3-1.3.5-2.1.6-.3.1-.8.1-1.1.2-4.6.4-11.4-.8-17-1.7-1-.2-1.9-.3-2.7-.5-2.3-.4-4.1-.8-5.4-.9-8.2-1-16.5-2.2-24.6-3.2-4.4-.6-9-1.3-13.5-1.8l-79.3-10.5-75.7-10 1.4-10.8.3-1.7.7-5.2.3-2.3.6-4.4.2-1.1.6-4.1.1-.5v-.2l.6.1 2.1.3 64.9 8.7 6.5.8L850 75.9l6.1.8c1.8.3 4.6.4 7.8.6 7.6.4 20.2 1.1 23.3 3.6.1.3.7 1.5-.1 6.9-.5 3.7-1.4 7.8-2.2 11.2-.7 2.2-1.1 3.8-1.2 4.8zm-222-37.5c-.2.9-.3 1.8-.4 2.7-.1.5-.2 1.1-.3 1.6v.1h.3l.3-1.7.7-5.2c-.2.9-.5 1.7-.6 2.5zm1-8.5c-.3.3-.4.7-.5 1-.1.3-.1.8 0 1.1l.3 1.2c0 .2.1.3.1.5l.6-4.4c-.1.1-.3.4-.5.6zm0 0c-.3.3-.4.7-.5 1-.1.3-.1.8 0 1.1l.3 1.2c0 .2.1.3.1.5l.6-4.4c-.1.1-.3.4-.5.6z"/></g><g fill="#F4F6F8"><path d="M695.9 77.7c1.1 1.1 2.5 1.8 4 2.1 47.3 8.1 94.2 17.8 142.2 20.3 3.7.2 7.6.3 11.2-2.1 3.4-2.4 6-8.1 4.5-12.5-1.4-3.9-5.2-5-8.5-5.5-21.2-3.5-42.6-6.4-64.1-8.6-20.7-.9-40.8-5.2-61.3-7.1-5-.5-18.2-1.3-23.3-.4-3.2.3-11.5 7-4.7 13.8z"/><path d="M857.4 82.9c-.7-.8-1.4-1.5-2.3-2-.8-.5-1.8-.9-2.7-1.2-.9-.3-1.8-.5-2.8-.6l-2.7-.4c-3.1-.5-6.4-.8-9.5-1.3-.5-.1-1-.2-1.4-.2-.9-.2-1.8-.3-2.7-.4-.9-.2-1.8-.3-2.7-.5-1.8-.3-3.6-.7-5.5-1-3.6-.6-7.2-1.2-10.9-1.7l-5.5-.8c-1.8-.3-3.6-.5-5.5-.7-1.8-.2-3.7-.3-5.5-.4l-2.7-.3-1.4-.2-1.4-.2c-1.8-.2-3.6-.4-5.5-.7l-1.4-.2c-.5-.1-.9-.1-1.4-.1l-2.7-.2-2.7-.3c-.5-.1-.9-.1-1.4-.2l-1.4-.1c-1.8-.1-3.6-.3-5.5-.4-1.8-.3-3.6-.5-5.5-.8-.9-.2-1.8-.3-2.7-.4-.8-.2-1.8-.3-2.7-.3-1.8-.3-3.6-.3-5.5-.6-1.8-.2-3.6-.5-5.5-.8-1.8-.3-3.6-.7-5.5-.8-1.8-.2-3.6-.4-5.5-.8L736 64l-.9-.3-.7-.1c-.9-.2-1.8-.3-2.7-.3-1.8-.2-3.7-.3-5.5-.4-1.8-.2-3.4-.3-5.2-.4h-.3c-1.8-.2-3.7-.3-5.5-.4-.8-.1-1.6-.1-2.4-.2-1.1-.1-2.1-.1-3.1-.1-1.8 0-3.7.1-5.5.2-.9.1-1.9.2-2.8.3-.3 0-.5.1-.8.1-.3 0-.5.1-.8.2-.5.1-1 .3-1.4.5-.6.3-1.1.6-1.7.9-.8.6-1.6 1.3-2.3 1.9-.3.3-.5.5-.7.8-.6.8-1.1 1.7-1.4 2.6-.3 1-.5 2-.3 3 .1 1 .4 2 .9 2.9.5.8 1.1 1.7 1.8 2.4.8.7 1.6 1.3 2.5 1.7.5.2.9.3 1.4.4.5.1.9.2 1.4.3 1.8.3 3.6.6 5.5.8 1.8.3 3.6.6 5.5.9.9.2 1.8.4 2.7.5.9.2 1.8.3 2.7.4 1.8.3 3.6.5 5.5.8 1.8.3 3.6.7 5.5 1l10.8 2.1c1.8.3 3.6.7 5.5 1 1.8.3 3.6.5 5.5.8l2.1.3c.3 0 .4.1.7.1l2.7.5 5.5.9L782 94c3.6.6 7.2 1.4 10.9 1.8 1.8.2 3.7.3 5.5.7l1.3.3c.5.1.9.2 1.4.3l2.7.3c3.6.5 7.3.9 11 1.3 1.8.2 3.6.3 5.5.6 1.8.2 3.6.4 5.5.6l2.7.3c.9.1 1.8.2 2.7.2 1.8.1 3.7 0 5.5.1.9.1 1.8.1 2.7.2.9.1 1.8.3 2.7.3.9.2 1.9.3 2.8.3 1 0 1.9-.1 2.9-.3 1-.2 1.9-.4 2.8-.8.9-.4 1.8-.8 2.5-1.5.8-.6 1.5-1.3 2.2-2.1.3-.4.6-.8.8-1.2.3-.4.5-.8.8-1.3.9-1.8 1.5-3.5 1.7-5.5.6-2 0-4.1-1.2-5.7zm-.9 10.8c-.4.8-.9 1.6-1.5 2.3-.6.7-1.3 1.3-2 1.8-1.5.9-3.2 1.5-5 1.7-1.8.2-3.6.3-5.5.2-1.8 0-3.7-.2-5.5-.3-1.8-.2-3.6-.3-5.5-.6-1.8-.2-3.6-.3-5.5-.5-14.7-1.2-29.1-3.4-43.7-5.3-1.8-.3-3.6-.6-5.5-.8l-2.7-.4-2.7-.5-10.9-2c-1.5-.3-3-.5-4.5-.7l-.9-.2c-.9-.1-1.8-.3-2.7-.4-.8-.2-1.8-.3-2.7-.5-1.8-.3-3.6-.8-5.5-1.1-1.8-.3-3.6-.7-5.5-.9-3.6-.6-7.2-1.1-10.9-1.7l-5.5-.9c-1.8-.3-3.6-.8-5.5-1.1-.9-.2-1.8-.3-2.7-.5-.9-.2-1.8-.3-2.7-.4-1.8-.3-3.6-.7-5.5-.9-1.8-.3-3.6-.7-5.5-1-.4-.1-.9-.2-1.3-.3-.4-.1-.8-.3-1.2-.4-.8-.3-1.4-.8-2-1.3-1.3-1.3-2.2-2.7-2.3-4.3-.2-1.7.4-3.2 1.4-4.6.5-.8 1.2-1.4 1.8-2 .7-.6 1.3-1.1 2.1-1.5.3-.2.8-.3 1.2-.5.2-.1.4-.1.7-.1s.4-.1.7-.1c.9-.1 1.8-.2 2.7-.2 3.2-.1 6.4.1 9.6.3h1.4c1.8.1 3.6.2 5.5.3l2.7.3 2.7.3c1.8.3 3.6.5 5.5.8 1.8.3 3.6.5 5.5.6 1.8.2 3.6.5 5.5.8.9.2 1.8.3 2.7.4l2.7.3c1.8.3 3.6.5 5.5.8 1.8.3 3.6.7 5.5 1 1.8.3 3.6.5 5.5.7s3.6.4 5.5.6c1.9.2 3.6.5 5.5.7l1.4.2c.5 0 .9.1 1.4.1l2.8.2c3.7.1 7.3.4 11 .8l1.4.2 1.4.2c.9.1 1.8.3 2.7.3 1.8.3 3.6.6 5.5.8l11 1.3 11 1.3c1.8.3 3.6.4 5.5.7 1.4.2 2.8.3 4.2.6.4.1.8.2 1.3.2 3.6.6 7.2 1.3 10.9 1.8 1.8.3 3.6.5 5.4 1.1 1.8.5 3.3 1.4 4.4 2.8.5.7.9 1.5 1.2 2.3.3.8.3 1.8.3 2.6-.6 1.3-1 3.1-1.8 4.6z"/></g><path fill="#E8EDF4" d="M740.3 80.1c.6.1 1.3.3 1.8.4.6.2 1.3.3 1.8.4.3.1.6.2.9.2.3.1.7.1.9.1.3 0 .7-.1.9-.1h.9c.7.1 1.3.3 1.9.3.3 0 .7 0 .9-.1.3 0 .7-.1.9-.2.7-.1 1.3-.3 1.8-.4.6-.2 1.3-.3 1.8-.5 1.2-.4 2.4-.7 3.6-.8.7-.1 1.3-.2 1.8-.4.3-.1.6-.3.8-.4.3-.2.6-.3.8-.5 1-.6 2-1 2.5-1.5.2-.2.3-.3.3-.4.1-.2.2-.3.2-.5.1-.3 0-.8-.2-1.1l-.3-.3c-.1 0-.3-.1-.3 0-.4.2-.8.4-1.2.7-.3.2-.5.3-.8.4-.3.1-.6.2-.8.3-.3.1-.6.2-.8.3-.3.2-.4.4-.5.7-.1.3-.3.4-.4.7-.2.2-.3.4-.3.6-.1.3-.2.4-.3.7-.1.3-.1.4-.1.7 0 .4.1.8.3 1.2.3.3.6.7.9.8.3.1.5.2.8.3l.8.2.8.1c.3 0 .6.1.9.1.6.1 1.2.3 1.8.3.6.1 1.3-.1 1.8-.4 1.1-.8 2.2-1 3.3-1.5 1.2-.5 2.2-1.3 2.8-2.4v.8c-.3-.3-.8-.4-1.3-.3-.5.2-1 .4-1.3.8l-.3.3c-.1.1-.2.3-.2.3-.1.3-.2.4-.2.7 0 .6.2 1.1.5 1.6s.8.9 1.3 1.3c.5.3 1.1.6 1.8.6s1.3 0 1.8-.2c.6-.1 1.3-.3 1.8-.5.7-.2 1.3-.4 1.9-.6.7-.3 1.3-.4 2-.6s1.4-.3 2.1-.4c.3-.1.7-.1 1.1-.1h1.1c1.4.1 2.8 0 4.2-.3.4-.1.8-.1 1.3-.1.6 0 1.1.2 1.6.4.5.3.9.7 1.3 1.2.3.4.4.8.6.9.1.1.1.2.2.3 0 .1 0 .1.1.2 0 .2.1.3.3.3.2.1.4.1.6.1.3 0 .6-.1.8-.2l.9-.3c.3-.1.8-.2 1.1-.2.8-.1 1.7 0 2.4.3.8.2 1.4.3 2.2.5.7.1 1.4.3 2.1.5.3.2.6.3.9.4.3.2.7.3 1 .3h1c.3 0 .7.1 1 .2.3.1.7.3.9.3.3.2.7.3 1 .3.7.2 1.3.3 2 .5.3.1.7.1 1 .1h1c.7 0 1.3.1 2 .3.3.1.7.2 1 .3.3.1.7.1 1 .1.7 0 1.3-.1 2-.3 1.3-.2 2.6-.3 3.9-.3.8 0 1.5.7 1.5 1.4 0 .8-.6 1.4-1.3 1.5-1.4.1-2.8.1-4.1-.1l-1.1-.2c-.3-.1-.7-.1-1.1-.2h-1.1l-1.1.1c-.7.1-1.4 0-2.1-.2-.3-.1-.7-.2-1-.3-.3-.1-.7-.2-1-.2-.7-.1-1.4-.1-2.1-.2-.8 0-1.4 0-2.2-.1-.3-.1-.7-.2-1-.3l-.9-.6c-.3-.2-.7-.3-1-.3-.3-.1-.8-.1-1.1-.1-.7-.1-1.3-.3-1.8-.7-.6-.3-1.2-.4-1.8-.3-.6.1-1.2.3-1.7.3-.2 0-.3 0-.4.1l-.5.1c-.3 0-.8.1-1.1.1-.9 0-1.8-.1-2.6-.3-.5-.2-1.1-.4-1.5-.8-.3-.2-.4-.3-.6-.6-.2-.2-.3-.4-.4-.6l-.6-1.2c-.1-.1-.3-.2-.3-.3-.3-.1-.6-.1-.8-.2-1.3-.2-2.6 0-3.9.4l-1 .3-.5.2-.5.1c-.7.1-1.3.3-1.9.3-.7.1-1.3.3-1.9.3-.7.1-1.3.3-2.1.3-.8.1-1.5.2-2.3.1s-1.6-.3-2.3-.5c-.8-.3-1.5-.6-2.2-.9-.8-.3-1.5-.8-2-1.5-.6-.8-.9-1.7-1-2.5-.1-1.1.3-2.1 1-2.9l.5-.5c.2-.2.4-.3.6-.4.4-.3.9-.4 1.4-.5.6-.1 1.2 0 1.7.2.6.3 1 .6 1.4 1.1l.2.3c.3.4.3 1-.1 1.3l-.8.8-.8.8c-.5.5-1 1.1-1.5 1.7-.5.6-1.1 1.1-1.8 1.4-.2.1-.3.2-.5.3-.2.1-.3.1-.6.2h-.6l-.6-.1h-1.1c-.3.1-.7.2-1 .3-.7.3-1.4.6-2.2.8h-1.2c-.4-.1-.8-.2-1.1-.3-.3-.1-.8-.2-1.1-.3-.4-.2-.8-.3-1.2-.5-.4-.2-.8-.4-1.2-.8-.4-.3-.8-.7-1.1-1.1-.3-.4-.5-.8-.7-1.3-.2-.4-.3-.9-.3-1.3 0-.9.2-1.8.5-2.5.2-.4.4-.8.7-1.2.3-.3.5-.7.8-.8.3-.2.7-.3 1-.6.3-.3.6-.5.8-.8.3-.3.5-.5.8-.7.3-.2.6-.3.9-.4 1.2 0 2-.2 2.8-.2 1 0 1.9.5 2.4 1.4.7 1.1.9 2.4.5 3.6-.2.4-.3.8-.6 1.1-.5.6-1 1.2-1.7 1.6-.6.4-1.3.8-1.9.9-1.3.4-2.5.9-3.7 1.5-1.3.6-2.5.9-3.9 1.1-1.3.2-2.6.2-3.9.3-.7 0-1.3 0-2 .1s-1.3.3-2 .3h-1c-.3-.1-.7-.2-1-.2-.7-.1-1.3-.1-2-.1h-1c-.3 0-.7-.1-1-.1-.7-.1-1.3-.2-2-.3-.8-.2-1.3-.9-1.3-1.8 1.1-1 1.9-1.5 2.7-1.3z"/><path fill="#DFE6EF" d="M656.1 45.9c-.1.4-.2.8-.3 1.1-.1.2-.1.3-.1.6 0 .1 0 .2.1.3 0 .1 0 .2-.1.3-.1.2-.2.3-.3.6v.6c0 .4.1.8.1 1.2v.6c-.1.2-.1.4-.2.6-.1.2-.1.3-.1.6 0 .2.1.4.1.6-.1.4-.2.8-.3 1.1-.1.3-.2.8-.3 1.1v.6c.1.2.1.4.1.6 0 .2-.3.3-.3.6 0 .1 0 .2.1.3.1.1.1.2 0 .3-.1.8-.3 1.5-.3 2.3l-.1.6c0 .2-.1.4-.3.6-.1.2-.2.3-.2.6 0 .2.2.4.1.6-.1.4-.3.8-.4 1.1-.1.4-.1.8-.1 1.2 0 .8-.2 1.5-.3 2.3-.1.4-.1.8 0 1.2.1.4.1.8.1 1.2v1.2c0 .2 0 .4-.1.6l-.3.6c-.1.4-.1.8 0 1.2.1.4.1.8 0 1.2l-.1.3c0 .1-.1.2-.1.3v.6s0 .4-.1.6c-.1.2-.3.3-.3.6-.1.2-.1.4-.1.6 0 .2 0 .4-.2.6-.1.2-.2.4-.1.6 0 .1.1.2.1.3 0 .1 0 .2-.1.3-.2.3-.3.8-.3 1.1v.6s0 .4-.2.6c-.1.2-.2.3-.2.6 0 .2 0 .4.1.6 0 .4 0 .8-.1 1.2-.1.4-.5.8-.9.7-.4-.1-.7-.4-.7-.8v-.1c0-.4.1-.8.3-1.1.1-.2.2-.3.3-.6 0-.2 0-.4-.1-.6-.1-.2-.1-.4 0-.6.1-.2.2-.3.2-.6 0-.4 0-.8-.1-1.2v-.3c.1-.1.1-.2.2-.3.2-.2.2-.3.1-.6-.1-.2-.1-.4.1-.6.1-.1.1-.2.2-.3 0-.1.1-.2.1-.3 0-.2-.1-.4-.1-.6 0-.2 0-.4.1-.6.1-.2.2-.3.2-.6.1-.2.1-.4 0-.6 0-.8.5-1.5.4-2.3-.1-.2-.1-.4-.2-.6v-.6c0-.4.1-.8.2-1.2.1-.4.2-.8.4-1.1.3-.3.3-.8.3-1.2-.1-.4-.1-.8-.1-1.2 0-.4 0-.8.1-1.2.1-.2.2-.3.3-.6.1-.2.1-.4.1-.6-.1-.2-.1-.4-.2-.6s-.1-.4-.1-.6.3-.3.4-.5c.1-.2 0-.4-.1-.6s-.2-.4-.2-.6c0-.2.1-.4.2-.6.3-.8.3-1.5.4-2.3 0-.1.1-.2.2-.3.1-.1.2-.2.2-.3 0-.2-.1-.4-.1-.6 0-.2.1-.4.2-.6.1-.2.2-.3.2-.6.2-.8.2-1.5.3-2.3.1-.3.2-.8.1-1.2-.1-.2-.1-.4-.1-.6 0-.2.1-.4.1-.6.1-.4.3-.8.3-1.1.1-.2.1-.4.1-.6 0-.2 0-.4-.1-.6v-.3c0-.1.1-.2.1-.3.1-.2.1-.4.1-.6 0-.4 0-.8.1-1.2 0-.4.4-.8.8-.8s.8.4.8.8v.2zM649.5 46.8c-.1.3-.2.7-.3 1-.1.2-.1.3-.1.5 0 .1.1.2.1.3 0 .1 0 .2-.1.3-.1.2-.2.3-.3.5v.5c0 .3.1.7.1 1.1v.5c-.1.2-.1.3-.2.5s-.1.3-.1.5.1.3.1.5c-.1.3-.2.7-.3 1-.1.3-.3.7-.3 1v.5c.1.2.1.3.1.5s-.3.3-.3.5c0 .1 0 .2.1.3 0 .1.1.2 0 .3-.1.7-.3 1.3-.4 2l-.1.5c0 .2-.1.3-.3.5-.1.2-.2.3-.2.5s.1.3.1.5c-.1.3-.3.7-.4 1-.1.3-.1.7-.1 1-.1.7-.2 1.3-.3 2-.1.3-.2.7-.1 1 .1.3.1.7.1 1.1v1c0 .2 0 .3-.1.5l-.3.5c-.3.7.2 1.4 0 2.1l-.1.3c0 .1-.1.2-.1.3v.5c0 .2 0 .3-.1.5s-.3.3-.3.5c-.2.3.1.7-.2 1-.1.2-.2.3-.1.5 0 .1.1.2.1.3 0 .1 0 .2-.1.3-.2.3-.3.7-.3 1v.5c0 .2 0 .3-.1.5s-.2.3-.2.5.1.3.1.5v1c-.1.4-.5.8-.9.7-.4-.1-.7-.4-.7-.8 0-.3.1-.7.2-1 .1-.2.2-.3.2-.5s0-.3-.1-.5-.1-.3 0-.5.2-.3.2-.5c0-.3 0-.8-.2-1.1V75c.1-.1.1-.2.2-.3.2-.1.2-.3.1-.5s-.1-.3.1-.5l.2-.3c0-.1.1-.2.1-.3 0-.2-.1-.3-.1-.5s0-.3.1-.5.2-.3.2-.5c.1-.2.1-.3 0-.5 0-.7.5-1.3.4-2-.1-.2-.1-.3-.2-.5v-.5c0-.3.1-.7.2-1 .1-.3.2-.7.4-1 .3-.3.3-.7.3-1-.1-.3-.1-.7-.1-1.1 0-.3 0-.7.1-1 .1-.2.2-.3.3-.5.1-.2.1-.3.1-.5s-.1-.3-.2-.6c-.1-.2-.1-.3-.1-.5s.3-.3.4-.5c.1-.2 0-.4-.1-.5-.1-.2-.2-.3-.2-.5.1-.2.1-.3.2-.5.3-.7.3-1.3.4-2 0-.1.1-.2.2-.3.1-.1.2-.2.2-.3 0-.2-.1-.3-.1-.5s.1-.3.3-.5c.1-.2.2-.3.2-.5.2-.7.3-1.3.3-2 .1-.3.2-.7.1-1-.1-.2-.1-.3-.1-.5s.1-.3.1-.5c.1-.3.3-.7.3-1 .1-.2.1-.3.1-.5s-.1-.3-.1-.5v-.3c0-.1.1-.2.1-.3.1-.2.1-.3 0-.5v-1c0-.4.4-.8.8-.8s.8.4.8.8c.3 0 .3.1.3.1zM642.6 49c0 .3-.1.6-.2.8-.1.2-.1.3-.1.4 0 .1.1.2.1.3s0 .2-.1.3c-.1.2-.2.3-.2.4v.4c.1.3.1.6.2.9v.4c0 .2-.1.3-.2.4s-.1.3-.1.4.1.3.1.4c0 .3-.1.6-.3.8-.1.3-.2.6-.3.8v.4c.1.2.1.3.1.4 0 .2-.3.3-.3.4 0 .1 0 .2.1.3s.1.2 0 .3c-.1.6-.3 1.2-.3 1.8l-.1.4c0 .2-.1.3-.2.4-.1.1-.2.3-.2.4s.2.3.1.4c-.1.3-.2.6-.3.8-.1.3-.1.6-.1.9 0 .6-.2 1.2-.3 1.8-.1.3-.1.6 0 .9s.1.6.1.9v.9c0 .2 0 .3-.1.4-.1.2-.2.3-.2.4-.2.6.3 1.2.1 1.8 0 .1-.1.2-.1.2v.3c0 .2 0 .3.1.4 0 .2 0 .3-.1.4-.1.2-.3.3-.3.4-.2.3.1.6-.2.8-.1.1-.2.3-.1.4 0 .1.1.2.1.3v.3c-.2.3-.3.6-.3.8 0 .2 0 .3.1.4 0 .2 0 .3-.1.4-.1.2-.1.3-.1.4 0 .2.1.3.1.4.1.3.1.6 0 .9-.1.4-.5.8-.9.7-.4-.1-.7-.4-.7-.8 0-.3.1-.6.2-.8.1-.2.2-.3.2-.4 0-.2 0-.3-.1-.4-.1-.2-.1-.3 0-.4.1-.2.2-.3.2-.4 0-.3-.1-.6-.2-.9v-.3c.1-.1.1-.2.2-.2.2-.1.2-.3.1-.4-.1-.2-.1-.3 0-.4l.2-.2c0-.1.1-.2.1-.3 0-.2-.1-.3-.2-.4 0-.2 0-.3.1-.4.1-.2.2-.3.2-.4v-.4c0-.6.5-1.1.3-1.8-.1-.2-.1-.3-.2-.5V67c0-.3.1-.6.2-.8.1-.3.2-.6.3-.8.3-.3.3-.6.2-.8-.1-.3-.1-.6-.1-.9 0-.3 0-.6.1-.8.1-.2.2-.3.3-.4s.1-.3.1-.4c-.1-.2-.1-.3-.2-.5s-.1-.3-.1-.4c0-.2.3-.3.4-.4s0-.3-.2-.4c-.1-.2-.2-.3-.2-.5.1-.2.1-.3.2-.4.3-.6.2-1.2.3-1.8 0-.1.1-.2.1-.2l.2-.2c0-.2-.2-.3-.1-.4 0-.2.1-.3.2-.4.1-.2.2-.3.2-.4l.3-1.8c.1-.3.2-.6.1-.8-.1-.2-.1-.3-.1-.4 0-.2 0-.3.1-.4.1-.3.2-.6.3-.8 0-.2.1-.3.1-.4s-.1-.3-.1-.4v-.3s.1-.2.1-.3c.1-.2.1-.3 0-.4 0-.3-.1-.6 0-.9 0-.4.3-.8.8-.8.4 0 .8.3.8.8-.2-.3-.2-.3-.2-.2z"/></g></svg>