<svg xmlns="http://www.w3.org/2000/svg" viewBox="0 0 711 700"><path fill="#EDF1F6" d="M1119.9 157.4l-236.4 26.9L483.8 160 .5 216.1V103.2L1157.5 2"/><path fill="#E8EDF4" d="M910.9 28.6L537.8 62.9l-44.5 94.6 386.4-43.7-16.2-36.7L946.4 65"/><path fill="#DFE6EF" d="M1208 .2l-3 .4-13.3 1.6-3.4.4-2.6.3-6.1.7-228.1 28.8-17.7 2.2-2.3.3-10.6 1.3-31.2 4-2.6.3-17.1 2.2-1.7.2-17.2 2.1-2.3.3-16.1 2.1-2.9.3-9.7 1.2-6.8.8-2.6.3-91 11.5-7.8 1-7.8 1-16.6 2.1-3.8.5-3.5.4-16.8 2.1-1.2.2-1.2.2-33.6 4.2h-.2l-1.7.2-1.6.2-.4.1-4.3.6-1.5.2-5.5.7-1.6.2-4.3.6-.7.1-1.4.2-.4.1-2.1.2-75.1 9.5-9.6 1.2-99.3 12.5-22.3 2.8-223.2 28.1-1.8.2-7.3.9-7.7 1-79.6 10h-.2L61 144.5l-10.5 1.3-6.1.7-1.1.2H43l-1.2.2-5 .7-1.5.2-6.2.7-12.9 1.6-15.8 2.1V.5h42.9c.4-.2.8-.2 1.2-.4L1208 .2z"/><g fill="#F4F6F8"><path d="M391.2 47.1c-.2.3-.4.7-.6.9-1.9 2.5-5 3.8-7.9 4.9-15.3 6-30.8 12-46.3 17.7-.2.1-.6.2-.8.3-.3.2-.7.2-1 .4-1.3.5-2.7 1-4 1.5-.8.3-1.6.6-2.5.9-3.8 1.4-7.5 2.8-11.3 4.1-6.8 2.5-13.5 4.9-20.3 7.3-6.4 2.3-12.9 4.6-19.4 6.9-.7.2-1.4.5-2.1.7-1.6.6-3.3 1.2-5 1.7-.6.2-1.2.4-1.8.7-.4.2-.8.2-1.2.4-34.5 12.2-69.2 24-103.8 35.9l-3.6 1.2c-23.6 8.1-47.2 16.2-70.7 24.4-18.9 6.6-28.8 9.7-36 11.9-.3.1-.7.2-1 .3-.4.1-.7.2-1.2.3-1.3.4-2.6.7-3.9 1.1-.9.2-1.9.5-2.8.7-8.5 2.4-17.5 4.9-43.4 14L.5 184V.5h42.9c.4-.2.8-.2 1.2-.4h334l.2.4c3.9 11.1 7.8 22.2 11.6 33.3 1.6 4.3 3.1 9.3.8 13.3z"/><path d="M392.8 44.7c-.3 1.4-.9 2.6-1.8 3.8-.9 1.1-1.9 2-3.1 2.6-1.2.7-2.3 1.2-3.5 1.7-1.2.5-2.4 1-3.6 1.4l-14.4 5.5c-4.9 1.8-9.6 3.6-14.4 5.5L337.4 71c-.2.1-.6.2-.8.3-.2.1-.6.2-.8.3-.3.2-.7.2-1.1.4-1.4.6-2.7 1.1-4.1 1.6-.7.3-1.5.6-2.3.9-1.8.7-3.5 1.4-5.4 2.1l-6.3 2.4-8.1 3.1-7.1 2.6-7.4 2.8-.9.3-6.3 2.3-7.3 2.6c-.7.2-1.3.5-1.9.7-.7.2-1.4.5-2.1.7-1.7.7-3.5 1.2-5.2 1.8-.6.2-1.2.4-1.7.6-.4.2-.8.2-1.2.4-.8.3-1.6.6-2.5.8-5.3 1.8-10.6 3.5-15.7 5.3-4.5 1.5-9.1 3-13.5 4.6-4.9 1.7-9.7 3.5-14.6 5.2l-5.9 2.1-8.6 3.1c-4.9 1.7-9.7 3.5-14.6 5.2-3.5 1.2-7 2.5-10.6 3.6-1.4.4-2.7.9-4.1 1.3-2.3.7-4.5 1.5-6.8 2.2-.7.2-1.2.4-1.9.7-6.8 2.4-13.7 4.9-20.5 7.3-4.9 1.7-9.7 3.4-14.7 5-4.9 1.6-9.9 3.1-14.8 4.7-9.8 3.1-19.4 7-29.2 10.1l-3.7 1.2c-.7.2-1.2.4-1.8.6-.6.2-1.2.4-1.8.7-2.4.9-4.8 2-7.3 2.8-1.2.4-2.5.8-3.7 1.2s-2.5.7-3.7 1.1c-2.5.7-4.9 1.4-7.4 2.1-1.2.3-2.5.7-3.7 1.1l-3.1.9-.7.2-.4.1-1.2.3-4.1 1.2-1.7.6c-.2.1-.3.1-.6.2-1.1.3-2.1.6-3.1.9l-3.7 1c-2.5.7-4.9 1.3-7.4 2.1l-1.8.6-1.8.7-1.8.7-1.8.7-3.6 1.3-3.6 1.3c-2.4.9-4.9 1.7-7.3 2.6L5 185.6l-3.6 1.2c-.3.2-.6.2-.7.2v-3.1l3.2-1.2 3.6-1.2c2.5-.8 4.9-1.6 7.3-2.5 1.2-.4 2.5-.8 3.7-1.2l3.7-1.1c1.2-.4 2.5-.7 3.7-1.2l1.8-.6 1.8-.7 1.8-.6 1.8-.7 3.7-1.2c1.2-.4 2.5-.7 3.7-1.2 1-.2 2.1-.6 3.1-.8.2-.1.4-.1.7-.2l1.7-.4 2-.5c.7-.2 1.4-.3 2.1-.5.3-.1.7-.2 1.1-.3.2-.1.4-.1.6-.2.1 0 .2-.1.3-.1 1.1-.3 2.2-.7 3.3-1 1.2-.4 2.5-.8 3.6-1.2 1.2-.4 2.4-.8 3.6-1.3l1.8-.7 1.8-.7c1.2-.5 2.4-.9 3.6-1.3l3.6-1.2c1.2-.4 2.5-.7 3.7-1l1.9-.5c.7-.2 1.2-.3 1.8-.6 2.5-.7 4.9-1.8 7.3-2.7 9.6-3.6 19.6-6.3 29.4-9.9 2.4-.9 4.9-1.8 7.3-2.7l7.3-2.7c1.2-.4 2.4-.9 3.6-1.3 1.2-.4 2.5-.8 3.6-1.2 2.5-.8 4.9-1.6 7.3-2.5.8-.2 1.6-.6 2.5-.8 2.1-.7 4-1.3 6.1-2 6.9-2.2 13.9-4.5 20.8-7 4.9-1.7 9.7-3.5 14.6-5.1 4.9-1.6 9.8-3.3 14.7-4.9l14.7-4.9c4.9-1.6 9.7-3.3 14.7-5 9.7-3.4 19.3-7.3 29-10.8l2.4-.8 1.2-.4 1.9-.7 4.6-1.6 2.6-.9 12.5-4.5 3.9-1.4 14.6-5.1 9.2-3.3 5.3-1.9c1.7-.6 3.5-1.2 5.2-1.8 1-.3 2-.7 3-1.1 1.2-.4 2.5-.9 3.8-1.3.3-.1.7-.2 1-.3.2-.1.6-.2.8-.2.2-.1.6-.2.8-.3 4.9-1.6 9.7-3.3 14.6-5.1 2.4-.9 4.9-1.8 7.3-2.7 2.4-.9 4.8-1.9 7.2-2.9l7.2-3 7.2-2.9c2.4-1 4.8-1.8 6.8-3.1 1-.6 1.8-1.3 2.6-2.2.7-.8 1.1-1.8 1.3-2.9.4-2.1 0-4.5-.7-6.9-.3-1.2-.7-2.4-1.2-3.5l-1.3-3.6c-1.7-4.9-3.5-9.7-5.1-14.6-1.7-4.9-3.3-9.7-4.9-14.7 0-.1-.1-.2-.1-.3l-.2-.4h2.1l.2.3c1.7 4.7 3.4 9.5 5.1 14.2l5.1 14.6 1.3 3.6c.4 1.2.8 2.5 1.2 3.7.4 1.3.7 2.6.8 3.9.2 1.6.2 3-.2 4.3z"/></g><path fill="#E3EAF2" d="M316.8 76.1c0 .6-.1 1.2-.1 1.8 0 .4-.1.8-.1 1.2v.3c-2.8 1.1-7.9 2.9-14.6 5.3-2.7 1-5.7 2.1-8.9 3.1-4.8 1.7-10.1 3.5-15.6 5.5-.7.2-1.3.5-2.1.7-1.7.6-3.5 1.2-5.2 1.8-.6.2-1.2.4-1.7.6-.4.2-.8.2-1.2.4l-18.2 6.3c-11.5 4-23.3 8.2-34.1 12-13.4 4.7-25.3 8.9-33.7 11.9-3.9 1.4-6.9 2.5-9.2 3.3-.4.2-.8.3-1.2.4l-2.5.4-9.1 1.5-10.1 1.7L52 150.9l-1.2.2-4.2.7-1.3.2-1.8.3-18.5 3.2c-1.6-.2-1.7-.7-.6-1.8 1.3-1.2 4.2-2.7 8.2-4.6.9-.4 1.8-.8 2.8-1.3 2.4-1.1 5-2.2 7.9-3.5 1.8-.7 3.7-1.6 5.7-2.4 1-.4 2.1-.8 3.1-1.2 37.9-15.4 98.9-37.1 88.1-35-31.8 6.4-63.1 15.6-93.3 27.2-5.9 2.2-11.7 4.6-17.5 7-2.1.8-4.2 1.9-6.3 3.1-1.2.7-2.2 1.6-3.2 2.5-1.4 1.4-2.6 3-3.5 4.7-.7 1.3-1.2 2.6-1.8 4-.2.5-.3.9-.5 1.4-.2.5-.3 1-.5 1.6-.2.8-.5 1.6-.7 2.5-.5 1.6-1.1 3.3-1.7 4.8-.1.2-.2.4-.2.7 0 .1-.1.2-.1.2-.5 1.2-1 2.2-1.6 3.3C7 173 4.1 177 .7 180.4V.5h42.9c.4-.2.8-.2 1.2-.4h255l.2.4c6.2 13.6 11.1 27.7 14 42.1.2.7.3 1.5.4 2.3.4 2.1.7 4.2 1.1 6.3.1.6.2 1.2.2 1.7.1.6.2 1.2.2 1.6.2 1.3.3 2.6.4 3.9.1.7.2 1.3.2 2 .1.8.2 1.6.2 2.5.2 4.5.3 8.9.1 13.2z"/><path fill="#E8EDF4" d="M364.5 38c-.2.2-.3.6-.6.8-1.7 2.1-4.6 3.3-7.3 4.4-8.7 3.4-17.5 6.8-26.2 10.1-.4.2-.9.3-1.3.5-.6.2-1.2.5-1.8.7-3.7 1.4-7.3 2.8-11 4.1-17.6 6.6-35.4 13-53.2 19.3-.4.2-.8.3-1.2.4-.2.1-.4.2-.7.2-12.9 4.6-26 9.2-39 13.7-44.3 15.3-88.7 30.3-133 45.8-1.6.6-3.2 1.2-4.8 1.6-2.9 1-5.7 2-8.6 3-8.3 2.9-16.6 5.7-24.9 8.4-1.3.4-2.7.9-4 1.3l-1.2.4c-.5.2-1.1.3-1.6.5-1.9.7-3.7 1.2-5.6 1.9-5.6 1.9-11.3 3.8-16.9 5.6-3.5 1.2-7 2.3-10.5 3.5-3.5 1.2-7 2.3-10.6 3.5V.2H355l.2.4c3.1 8.7 6.1 17.4 9.2 26.1 1.1 3.6 2.2 7.8.1 11.3z"/><path fill="#EDF1F6" d="M364.5 38c-.2.2-.3.6-.6.8-1.7 2.1-4.6 3.3-7.3 4.4-8.7 3.4-17.5 6.8-26.2 10.1-.4.2-.9.3-1.3.5-.6.2-1.2.5-1.8.7-3.7 1.4-7.3 2.8-11 4.1-17.6 6.6-35.4 13-53.2 19.3-.4.2-.8.3-1.2.4-.2.1-.4.2-.7.2-12.9 4.6-26 9.2-39 13.7-44.3 15.3-88.7 30.3-133 45.8-1.6.6-3.2 1.2-4.8 1.6-2.8 1-5.6 2-8.5 3-7.9 2.8-15.9 5.5-23.9 8.2-1.7.6-3.4 1.2-5.1 1.7-.4.2-.7.2-1.2.4s-1.1.3-1.6.6c-1.8.6-3.5 1.2-5.4 1.8-8.7 3-17.4 5.9-26.1 8.9-.7.2-1.2.4-1.9.7-.6.2-1.2.4-1.7.6-.8.2-1.6.6-2.4.8-.9.3-1.8.7-2.8.9-.9.3-1.8.6-2.6.9-.2.1-.5.2-.7.2V140c23.1-6.3 44.5-17.7 62.8-33.2 12.3-10.4 22.8-22.5 31.6-36 1.5-2.3 2.9-4.7 4.3-7.1.3-.6.7-1.2 1-1.8.2-.4.5-.8.7-1.2 8.2-14.8 14.8-30.8 21.7-46.4.3-.8.7-1.6 1.1-2.4 0-.1.1-.2.1-.2.3-.7.7-1.4.9-2.1.2-.4.4-.9.6-1.3.2-.6.6-1.2.8-1.8.3-.8.7-1.6 1.1-2.4.6-1.2 1.2-2.4 1.7-3.6l.2-.4H355l.2.4c3.1 8.7 6.1 17.4 9.2 26.1 1.1 3.7 2.2 7.9.1 11.4z"/><g fill="#DFE6EF"><path d="M204.6 22.9c-.1.2-.2.5-.5.7-.5.5-1.1.8-1.6 1.2-28.4 15.5-63 23.5-93.5 34.1-3 1.1-5.9 2.1-8.8 3.1-9.7 3.4-19.5 6.8-29.1 10.2-5.6 2-11.3 7.7-16.8 5.2-8.7-4-10.2-21.3-12.9-29C38.8 41.6 24.2 12 30.6 7.1 34.3 4.3 40 2.2 46 .5c.4-.2.9-.2 1.3-.4h150l.2.4c.5 1.5 1.1 3 1.6 4.5 1.1 3.3 6.7 15.2 5.5 17.9z"/><path d="M206.1 19.8c-.2-1.2-.7-2.5-1.1-3.7-.8-2.4-1.8-4.6-2.8-6.8-.5-1.2-1.1-2.2-1.6-3.3l-.3-.8c-.1-.2-.2-.5-.3-.8-.2-.6-.4-1.2-.7-1.7-.2-.7-.5-1.4-.7-2.1l-.2-.4H196l.2.4c.3.9.7 1.9 1 2.8.2.6.4 1.2.6 1.7.1.2.2.6.3.9l.3.9c.4 1.2.8 2.3 1.2 3.5.8 2.3 1.7 4.5 2.5 6.8.3 1.1.7 2.2.9 3.3.1.5.2 1 .2 1.5V22.3c-.1.1-.1.2-.2.3-.3.3-.7.6-1.1.8l-1.6.8-3.2 1.7-6.5 3.3c-1.1.5-2.2 1.1-3.3 1.6l-1.6.7c-.6.2-1.2.5-1.7.7-1.2.4-2.3.8-3.4 1.2-1.2.4-2.2.9-3.4 1.4-1.2.5-2.2 1-3.3 1.5l-1.6.7-1.7.7c-1.2.4-2.3.8-3.5 1.2l-3.5 1.2c-1.2.4-2.3.7-3.5 1.1l-3.5 1.1c-2.3.7-4.7 1.4-7 2.1l-3.5 1.1c-1.2.3-2.3.7-3.5 1.1-1.2.4-2.3.7-3.5 1.2l-3.5 1.2c-2.3.8-4.6 1.6-6.9 2.3l-7 2.1-1.7.6-1.7.6-3.5 1.2-6.9 2.4c-2.4.8-4.7 1.6-7.1 2.5-2.2.7-4.5 1.6-6.8 2.3l-3.3 1c-1.2.4-2.3.7-3.5 1.1l-3.5 1c-.6.2-1.2.4-1.7.6-.6.2-1.2.3-1.7.6-2.3.8-4.5 1.9-6.8 2.7-.6.2-1.2.4-1.7.6-.3.1-.6.2-.9.2-.3.1-.7.2-1 .2-1.2.4-2.4.9-3.5 1.6-2.1 1.2-4.3 2.4-6.3 3.1-1 .3-2 .5-3 .5-.5 0-.9-.1-1.4-.2-.2-.1-.4-.2-.7-.2-.2-.1-.4-.2-.7-.3-1.7-1-3.1-2.8-4.2-4.7-.6-1-1-2.1-1.4-3.1-.4-1.1-.7-2.2-1.1-3.3-.7-2.3-1.2-4.6-1.7-7-.6-2.4-1.2-4.8-2.1-7.1-.2-.6-.5-1.2-.7-1.8-.2-.6-.6-1.2-.8-1.7-.5-1.2-1-2.2-1.5-3.4-.8-2.3-1.3-4.8-2.2-7-.9-2.2-1.9-4.5-3-6.7l-1.5-3.3c-.2-.6-.5-1.1-.7-1.6l-.7-1.7c-.8-2.2-1.4-4.5-1.8-6.9-.2-1.2-.2-2.3-.2-3.5 0-1.1.1-2.1.4-3.1.1-.3.3-.7.6-.9l.2-.2c.1-.1.2-.2.3-.2.2-.2.5-.3.7-.5.5-.3 1-.7 1.5-.9l.7-.4c0-.5.3-.5.6-.7 1.1-.5 2.1-1 3.2-1.5 1.1-.4 2.2-.9 3.4-1.2C45.2 2 48.2 1.2 51.1.3c.4-.2.8-.2 1.3-.4h-7.6c-.4.1-.8.2-1.2.4-.7.2-1.3.4-1.9.6-2.4.7-4.7 1.6-6.9 2.7-.3.1-.6.2-.8.4l-.8.5c-.6.3-1.1.6-1.6 1l-.8.5c-.2.1-.2.2-.4.2s-.2.2-.4.4c-.5.6-.8 1.2-1.1 1.9-.2.7-.3 1.3-.3 2v1.9c.1 1.2.3 2.5.6 3.7.5 2.4 1.2 4.8 1.8 7.2.7 2.4 1.4 4.7 2.1 7 .4 1.2.7 2.3 1.2 3.5s.8 2.3 1.3 3.5c.2.6.5 1.2.7 1.6l.8 1.6c.6 1.1 1.1 2.1 1.6 3.3.5 1.1.9 2.2 1.3 3.4.2.6.4 1.2.5 1.7.2.6.3 1.2.4 1.7l.7 3.5.3 1.8c.2.6.2 1.2.4 1.8.6 2.4 1.2 4.8 2 7.2.7 2.4 1.7 4.8 2.9 7 .6 1.2 1.3 2.2 2.2 3.2.9 1.1 1.9 2 3.1 2.6 1.2.7 2.6 1.2 4.1 1.3 1.4 0 2.8-.2 4.1-.7 2.6-.9 4.7-2.2 6.8-3.3l3.1-1.6c.2-.2.5-.2.7-.3.2-.1.6-.2.8-.3.6-.2 1.2-.4 1.7-.7 2.3-.7 4.7-1.2 7.1-2.1.6-.2 1.2-.4 1.7-.6.6-.2 1.2-.4 1.7-.7l3.4-1.4c1.2-.4 2.3-.9 3.5-1.3l3.5-1.2c1.4-.5 2.9-1 4.3-1.5 3.2-1.1 6.4-2.1 9.6-3.1 4.7-1.4 9.3-2.8 13.9-4.4 1.2-.4 2.3-.8 3.5-1.2 1.2-.4 2.3-.8 3.5-1.2 2.3-.8 4.6-1.5 7-2.1l3.5-.9c1.2-.3 2.4-.7 3.5-1 1.2-.3 2.3-.7 3.5-1.2l3.5-1.2c1.2-.4 2.3-.8 3.5-1.2l3.5-1.2 6.8-2.6 6.9-2.6c.6-.2 1.2-.4 1.7-.6l1.7-.6c1.2-.4 2.3-.7 3.5-1.2 1.2-.4 2.3-.8 3.5-1.3 1.2-.5 2.2-1.1 3.3-1.6 2.2-1 4.5-2 6.8-3 2.2-1 4.5-2 6.7-3.1 1.1-.6 2.2-1.1 3.3-1.6l1.6-.8c.7-.3 1.3-.8 1.9-1.3.3-.3.6-.7.8-1.2l.2-.4c0-.2.1-.2.1-.4s.1-.4.1-.7c-.1-.3-.2-1-.3-1.8z"/></g><g fill="#F4F6F8"><path d="M53.8 175.2l-5 1.7-2.8 1-45.5 16v-33.6l13.6-4.8 18.5-6.5 4.3-1.5 6-2 .5 1.2 2 5.3.2.8.1.3 5.6 15.1.5 1.3.3 1"/><path d="M53.8 171.9c-.2-.6-.5-1.2-.7-1.8-.2-.3-.2-.7-.4-.9-.2-.4-.3-.7-.5-1.2 0-.1-.1-.1-.1-.2-.6-1.2-1-2.4-1.4-3.7-.2-.7-.3-1.2-.5-1.9s-.4-1.3-.7-1.9l-.8-1.9c-.2-.7-.5-1.2-.7-1.9-.2-.7-.4-1.3-.6-1.9-.2-.7-.4-1.3-.6-1.9 0-.1 0-.2-.1-.2-.1-.2-.1-.4-.2-.7-.2-1.1-.6-2.1-1.1-3-.3-.6-.7-1.2-1-1.8l-.2-.4c-.2-.5-.3-1.1-.4-1.6-.1-.3-.3-.7-.7-.7-.2-.1-.3-.1-.5 0l-.3.1c-1.5.2-2.9.9-4.2 1.5-.7.2-1.4.5-2.1.7-.7.2-1.5.3-2.2.4-1.5.3-2.9.8-4.2 1.5l-.4.2c-1.2.6-2.5 1-3.8 1.4-.7.2-1.5.3-2.1.6-.7.2-1.4.5-2.1.8-1.4.6-2.7 1.2-4.1 1.8-.7.3-1.4.6-2.1.8-.2.1-.3.1-.4.2-.6.2-1.1.4-1.6.6-1.4.4-2.9.7-4.4 1.2-2.7.9-5.4 2-8.1 3.1v3.1l.7-.2c2.9-.8 5.7-1.8 8.5-2.9.7-.3 1.3-.7 2.1-1l1-.5c.3-.2.6-.3.9-.4.1 0 .1 0 .2-.1.7-.3 1.4-.6 2.1-.8.7-.2 1.4-.5 2.1-.7l4.3-1.2c.7-.2 1.4-.4 2.1-.7.7-.2 1.4-.6 2.1-.9 1.4-.6 2.8-1 4.3-1.3 1.5-.3 2.9-.8 4.2-1.4.7-.3 1.3-.7 2.1-1 .7-.3 1.4-.5 2.1-.7l1.1-.2c.3-.1.7-.2 1.1-.2l.5-.2c.1 0 .2-.1.2-.1-.1-.2-.2-.4-.2-.7v-.1c-.2-.3-.3-.6-.4-.8l1.4.8.3.2c-.3.2-.7.3-1 .5-.1 0-.2.1-.2.1 0 .1.1.2.1.2.2.7.2 1.2.3 1.9.2 1 .5 1.9 1 2.7.2.2.3.6.4.8.1.1.1.2.1.2 0 .1.1.2.1.2.2.4.4.8.7 1.3.2.6.6 1.2.8 1.8.2.6.5 1.2.7 1.8.2.6.3 1.2.5 1.8.2.6.4 1.2.7 1.8.2.6.7 1.2.9 1.8.6 1.2 1.1 2.3 1.4 3.6.1.3.2.7.3 1.1.2.4.3.9.5 1.4.1.3.2.7.3 1 0 .1 0 .1.1.2.4 1.2.9 2.4 1.4 3.6-1.3.5-2.6.9-3.9 1.4-.1 0-.2.1-.2.1-.9.3-1.8.7-2.7 1.1-.4.2-.8.3-1.3.5-.7.2-1.5.4-2.2.7-.7.2-1.4.4-2.1.7l-1.9.8c-.7.3-1.3.6-2.1.7-1.4.5-2.9.9-4.3 1.3-1.5.4-2.9.8-4.4 1.3-.7.2-1.4.5-2.1.7-.7.2-1.4.5-2.1.7-1.3.6-2.6 1.2-4 1.7s-2.8.9-4.2 1.4l-4.2 1.5-4.2 1.5c-1.4.5-2.8 1-4.2 1.4l-2.1.6v2.8c.4-.2.7-.3 1.2-.5.7-.3 1.4-.5 2.1-.8 2.8-1.1 5.8-1.9 8.8-2.7 1.5-.4 3-.9 4.4-1.4 1.4-.6 2.6-1.2 4-1.8 1.4-.6 3-.9 4.5-1.3.7-.2 1.5-.5 2.1-.7.7-.2 1.4-.6 2.1-.8 1.4-.6 2.7-1.2 4-1.7 1.3-.6 2.6-1.2 4-1.7.7-.2 1.4-.6 2.1-.7l2.3-.7c.7-.2 1.5-.5 2.1-.7.7-.3 1.3-.6 2-.8.2-.1.4-.2.6-.2.4-.2.9-.3 1.4-.5.8-.2 1.6-.5 2.5-.8 1.5-.5 2.9-1 4.4-1.5 0-2-.5-3.3-1-4.7z"/></g><g fill="#ECF1F5"><path d="M338.7 79.5L271 103.2l-11.3-30.7 67.6-23.7"/><path d="M266.6 87.3c-.3-.6-.6-1.2-.7-1.9-.1-.7-.1-1.4-.2-2.1s-.4-1.3-.7-1.9c-.2-.4-.4-.8-.7-1.3-.1-.2-.2-.3-.3-.5l-1-1.7c-.4.2-.8.3-1.2.4l.7 2 2.9 7.9 1.5-.2c-.1-.2-.2-.4-.3-.7zm-2.6-7.7l-1-1.7c-.4.2-.8.3-1.2.4l.7 2 1.8-.2c0-.2-.2-.3-.3-.5zm74.7-3.5c-.3-.8-.7-1.6-1-2.5-.2-.6-.5-1.1-.7-1.6-.1-.2-.2-.4-.3-.7-.1-.2-.2-.5-.3-.7-.2-.4-.3-.8-.5-1.2-.2-.4-.2-.8-.4-1.3-.2-.7-.3-1.3-.6-2-.1-.3-.2-.7-.3-1-.2-.3-.2-.7-.4-1-.6-1.3-1.2-2.6-1.6-4-.4-1.3-.8-2.6-1.2-4-.2-1.1-.6-2.1-1-3.1-.2-.3-.3-.6-.5-.8-.2-.3-.3-.7-.5-.9-.2-.3-.2-.7-.4-1-.2-.7-.4-1.3-.6-2.1-.2-.6-.7-.9-1.3-.8l-.3.1c-1.5.3-2.8 1-4.2 1.6-.7.2-1.4.5-2.1.7-.7.2-1.5.2-2.2.4-1 .2-2 .6-3 1-1.8.7-3.5 1.6-5.4 2.1-.7.2-1.5.3-2.1.6-.7.2-1.4.6-2.1.8l-4.1 1.8c-.3.2-.7.3-1 .4-.3.2-.7.2-1.1.4-.7.2-1.4.5-2.1.7-1.4.4-2.9.7-4.4 1.2-2.8 1-5.6 2.1-8.4 3.2-1.4.6-2.8 1.2-4.1 1.7-1.4.6-2.7 1.3-4.1 1.8-.7.3-1.4.5-2.1.7-.7.2-1.4.4-2.1.7-1.4.4-2.8.9-4.3 1.4l-4.2 1.5c-1.4.5-2.8 1-4.2 1.6h-.1c-.3.2-.5.5-.3.8l.8 1.9c.2.7.5 1.3.7 1.9.2.7.4 1.3.6 2 .2.6.3 1.2.5 1.8v.1c.2.7.3 1.3.6 2 .2.7.4 1.3.7 1.9.3.6.7 1.2 1 1.8.3.6.5 1.2.7 1.9v.2c.3 1.3.5 2.6 1 3.9.2.7.5 1.3.7 1.9v.1l.7 1.7.1.2c.2.3.2.7.4 1.1 0 .1.1.2.1.2.7 2.1 1.5 4.3 2.2 6.4.2.7 1.1 1.1 1.7.9h.1l2.1-.7 2.1-.7c1-.2 1.8-.7 2.6-1.2.5-.2 1-.4 1.6-.5l.5-.1.6-.1c.4-.1.7-.2 1.2-.2.7-.2 1.4-.5 2.1-.8.7-.3 1.3-.7 2.1-.9.7-.2 1.4-.5 2.1-.8 2.9-1 5.8-1.9 8.8-2.7 1.5-.4 3-.9 4.4-1.4 1.4-.6 2.6-1.2 4.1-1.8 1.4-.6 3-.9 4.5-1.3.7-.2 1.5-.5 2.1-.7.7-.2 1.4-.6 2.1-.8 1.4-.6 2.7-1.2 4-1.7 1.3-.6 2.6-1.2 4-1.7.7-.2 1.4-.5 2.1-.7l2.3-.7c.7-.2 1.5-.5 2.1-.7.6-.2 1.2-.6 1.8-.8.1 0 .2-.1.2-.1.9-.3 1.8-.7 2.7-.9.6-.2 1.1-.3 1.6-.5h.1c1.5-.5 2.9-1 4.4-1.5-.4-1.6-.9-3-1.3-4.4zm-78.6-2.3l.8-1.8c.2.5.2 1 .4 1.5.3-.1.6-.2.9-.2.7-.2 1.4-.5 2.1-.7 1.4-.5 2.8-1.1 4.2-1.6 1.4-.6 2.8-1.2 4.1-1.7.7-.3 1.4-.7 2.1-.9.7-.2 1.4-.5 2.1-.7 1.4-.4 3-.7 4.4-1 .7-.2 1.5-.4 2.1-.6l2.1-.7c2.9-.8 5.7-1.8 8.5-2.9.7-.2 1.3-.7 2.1-1 .7-.3 1.3-.7 2.1-1 .7-.3 1.4-.6 2.1-.8.3-.2.7-.2 1.1-.3.3-.1.7-.2 1.1-.3l4.3-1.2c.7-.2 1.4-.4 2.1-.7.7-.2 1.4-.6 2.1-.9 1.6-.7 3.2-1.2 4.9-1.6 1.2-.2 2.5-.7 3.6-1.2l2-1c.7-.3 1.4-.6 2.1-.7.7-.2 1.5-.3 2.2-.5.2-.1.5-.2.8-.2-.1-.2-.2-.4-.3-.7l-.5-.9 2.1 1.1c-.4.2-.8.4-1.3.5 0 .1.1.2.1.2.1.3.2.7.2.9.1.3.1.7.2 1 0 .4.1.8.2 1.2.2.8.7 1.6 1.1 2.4.7 1.2 1.2 2.4 1.7 3.6.2.6.5 1.2.7 1.8.2.6.3 1.2.6 1.8.2.7.4 1.2.7 1.8.2.6.7 1.2 1 1.9.4.7.7 1.5 1.1 2.3.2.4.3.9.4 1.3 0 .1 0 .1.1.2.1.2.2.4.2.7.2.6.4 1.2.6 1.7.2.4.3.8.5 1.2.4 1.2 1 2.5 1.5 3.7-1.4.5-2.7 1-4 1.5-.9.3-1.7.7-2.6 1.1-.4.2-.9.3-1.3.5-.7.2-1.4.4-2.1.7h-.1c-.7.2-1.4.4-2.1.7l-1.9.8c-.7.2-1.3.5-2.1.7-1.4.5-2.9.9-4.3 1.3-1.5.4-2.9.8-4.4 1.3-.7.2-1.4.5-2.1.7-.7.2-1.4.5-2.1.7-1.3.6-2.6 1.2-4 1.7s-2.8.9-4.2 1.4l-4.2 1.5-4.2 1.5c-1.4.5-2.8 1-4.2 1.4-.7.2-1.4.4-2.1.7-.7.2-1.5.3-2.2.5-.7.2-1.4.4-2.1.7-.3.1-.6.2-.9.4 0 0-.1 0-.1.1l-1 .5c-.5.2-1.1.4-1.6.5-.9.2-1.9.2-2.7.6l-2.1.7-.5.2.6 1.6-2.1-1 1.6-.6c-.6-1.6-1.2-3.2-1.7-4.9 0-.1-.1-.2-.1-.2-.1-.4-.2-.7-.3-1.2v-.1l-.6-1.7V93c-.2-.7-.4-1.3-.7-1.9-.4-1.1-1.2-2-1.7-3-.2-.2-.2-.4-.3-.7-.3-.6-.6-1.2-.7-1.9-.1-.7-.1-1.4-.2-2.1s-.4-1.3-.7-1.9c-.2-.4-.4-.8-.7-1.3-.1-.2-.2-.3-.3-.5l-1-1.7v-.1c-.2-.3-.3-.6-.5-.9l-.4-.9c-.3-.7-.6-1.6-.7-2.4-.7 0-1.1 0-1.6.1.1 0 0 0 0 0zm6.5 13.5c-.3-.6-.6-1.2-.7-1.9-.1-.7-.1-1.4-.2-2.1s-.4-1.3-.7-1.9c-.2-.4-.4-.8-.7-1.3-.1-.2-.2-.3-.3-.5l-1-1.7c-.4.2-.8.3-1.2.4l.7 2 2.9 7.9 1.5-.2c-.1-.2-.2-.4-.3-.7zm0 0c-.3-.6-.6-1.2-.7-1.9-.1-.7-.1-1.4-.2-2.1s-.4-1.3-.7-1.9c-.2-.4-.4-.8-.7-1.3-.1-.2-.2-.3-.3-.5l-1-1.7c-.4.2-.8.3-1.2.4l.7 2 2.9 7.9 1.5-.2c-.1-.2-.2-.4-.3-.7z"/></g><g fill="#E8EDF4"><path d="M147.3.2c-.2.2-.5.2-.8.4-.2.1-.5.2-.7.3-2.1 1-4.4 2-6.5 3l-2.7 1.2c-2.2.9-4.5 1.8-6.6 2.6-.9.3-1.8.7-2.8 1.1-.8.3-1.6.6-2.6.9-.8.3-1.7.6-2.6.9-.9.3-1.9.7-2.9 1-2.5.8-4.9 1.6-7.3 2.4-.8.2-1.6.5-2.6.7-2.4.7-4.7 1.4-7.1 2.1-.8.2-1.6.5-2.6.7-2.2.6-4.5 1.2-6.8 1.7-1.1.2-2.1.6-3.3.8-1.9.5-3.9.9-5.9 1.4-1.1.2-2.2.5-3.3.7-1.6.3-3.1.7-4.7 1.1-1 .2-2 .4-2.9.7-1.6.3-3.3.7-4.9 1.1l-1.2.3c-.7.2-1.5.5-2.1.9-.4.3-.8.7-1.1 1.2-.6 1-.5 2.3-.3 3.5.8 6.8 2.4 13.7 4.5 20.3 1.1 3.5-.7 7.2-4.2 8.4l-2 .8c-3.5 1.2-7.3-.7-8.6-4.1 0-.1 0-.1-.1-.2C48.6 43.5 41.8 30 40 16.9c-.9-6.2 24.2-11.4 30.1-13.5 2.7-1 5.4-1.9 8.2-2.9.3-.2.7-.2 1.1-.4l67.9.1zM187.5 16.1l-2.1.7c-3.5 1.2-7.3-.7-8.6-4.1 0-.1 0-.1-.1-.2-1.3-4-2.5-8.1-4-12l-.2-.4H189l.2.4 2.4 6.9c1.3 3.6-.5 7.5-4.1 8.7z"/><path d="M193.4 8.4c-.1-.3-.2-.7-.2-.9L193 7v-.3l-.6-1.5c-.6-1.6-1.2-3.1-1.9-4.7l-.2-.4h-2.6c.1.2.1.2.1.4.6 1.9 1.2 3.7 1.7 5.6.2.5.3 1 .5 1.5l.2.3.1.3c.1.2.1.4.2.6.1.8.1 1.6-.2 2.4-.5 1.6-1.6 2.8-3.2 3.4l-1.2.4-.8.3c-.1 0-.2.1-.2.1-.6.2-1.2.3-1.8.2-1.2-.1-2.5-.6-3.4-1.4-.5-.4-.9-.9-1.2-1.5-.1-.2-.2-.2-.2-.4-.1-.2-.2-.3-.2-.5l-.4-1.2c-.6-1.5-1.1-3-1.6-4.5s-.9-3.1-1.4-4.6l-.4-1-.1-.1c0-.1-.1-.2-.1-.2H171c0 .1.1.2.1.2 0 .1.1.1.1.2.1.3.2.7.3.9l.5 1c.6 1.5 1.2 2.9 1.7 4.4s1 3.1 1.4 4.5l.3 1.2c.1.2.2.4.2.7.1.2.2.4.2.7.4.9 1 1.6 1.6 2.4 1.4 1.4 3.3 2.2 5.2 2.3 1 .1 2-.1 2.9-.3.1 0 .2-.1.3-.1l.2-.1.6-.2 1.2-.4c2.5-.9 4.4-2.9 5.1-5.4.6-1.2.7-2.5.5-3.8zM144.1.2l-.2.2c-.2.1-.3.2-.5.2-.3.2-.6.3-.9.5l-1.3.7-2.6 1.2-.3.2-1.4.7c-.3.2-.6.2-.9.4l-.5.2-2.9 1.2c-1 .4-2.1.8-3.1 1.2-.9.3-1.8.7-2.8 1h-.1c-.5.2-1 .3-1.4.5-1.1.4-2.1.7-3.1 1.2-.4.2-.7.2-1.2.4-.7.2-1.3.5-2.1.7-2.3.7-4.5 1.6-6.8 2.2-1.1.3-2.1.7-3.3 1-2.1.7-4.3 1.2-6.4 1.8-1.1.3-2.2.6-3.3.8-.7.2-1.3.3-2 .5-1 .2-2.1.5-3.1.7l-2 .3-1 .2c-.7.2-1.4.3-2.1.4-1.3.3-2.6.7-4 1.1-.7.2-1.3.4-2 .6-1 .3-2 .6-3 .7-.3.1-.7.2-1.1.2l-1.6.2c-.5.1-1.1.1-1.6.2-.2.1-.6.1-.8.2-.7.2-1.5.3-2.2.4l-.7.2-2.6.5c-1 .2-2 .4-3.1.7H66c-.6.2-1.2.4-1.7.7-.1 0-.2.1-.2.1-.6.2-1.1.7-1.5 1.2-.6.6-1 1.2-1.2 2.1-.2.7-.2 1.4-.2 2.1 0 .6.1 1.2.2 1.7l.2 1.6c.2 1.1.3 2.1.5 3.1.3 2.1.7 4.2 1.2 6.3.4 2.1.9 4.1 1.5 6.2.2.5.2 1 .4 1.6.2.5.3 1 .5 1.5.1.2.1.2.1.3l.1.2c0 .2.1.3.1.6 0 .2.1.3.1.6v.4c0 .4-.1.7-.2 1.2-.1.4-.2.7-.4 1.2-.3.7-.9 1.4-1.6 1.8-.2.1-.3.2-.6.3l-.3.2-.3.2c-.5.2-1 .3-1.5.5l-.4.1-.3.1c-.2 0-.4.1-.7.1-.4 0-.8-.1-1.2-.2-.7-.2-1.4-.5-2.1-1-.7-.4-1.2-.9-1.6-1.5-.1-.1-.1-.2-.2-.2l-.2-.2c-.1-.2-.2-.3-.2-.5l-.6-1.4c-.4-1-.8-2-1.3-2.9-1.8-3.8-3.4-7.7-4.7-11.6-.3-1-.7-2-1-3l-.9-3c-.6-2-1.3-4-1.9-5.9-.6-2-1.2-4-1.6-5.9-.2-1-.5-2-.7-3l-.2-1.5-.1-.4V17.1 17v-.3c.1-.3.2-.6.4-.8.2-.3.6-.7.9-.9.7-.6 1.6-1.2 2.4-1.6 1.7-1.1 3.6-1.9 5.5-2.6s3.9-1.3 5.9-1.8c2-.5 4-.9 6.1-1.4l3-.8c1-.2 2.1-.5 3.1-.8.5-.2 1-.2 1.6-.4l1.5-.5 3-1 3-1 3-1c1.1-.3 2.1-.7 3.2-1.2.3-.2.7-.2 1.1-.4h-9.6c-.3.2-.7.2-1 .4-.2.1-.4.2-.7.2l-2.9 1.1c-1 .4-1.9.7-3 1.1l-5.9 1.9c-2 .7-4 1.3-5.9 2-2 .7-4 1.4-5.9 2.1-2 .7-4 1.5-5.9 2.5-1 .5-1.9 1.1-2.8 1.7-.5.3-.9.7-1.2 1.2-.4.5-.7 1.1-.9 1.6-.1.3-.1.7-.1 1v.4l.1.4.2 1.6c.2 1.1.4 2.1.7 3.1.2 1 .5 2.1.7 3.1l.4 1.5.5 1.5c.3 1 .7 2 1 3 .3 1 .7 2 1.1 3 .7 2 1.6 3.9 2.3 5.9 1.6 3.9 3.1 7.8 4.3 11.8l.9 3 .2.7.1.4c0 .1.1.2.2.4s.2.6.3.8l.2.4c.1.2.2.2.2.4 1.2 2.1 3.5 3.5 6 3.5.3 0 .6 0 .9-.1.3 0 .6-.1.9-.2.2-.1.6-.2.8-.2l.4-.2.3-.2c.5-.2 1-.3 1.5-.5l.4-.1.4-.2c.2-.1.6-.2.8-.3 1.1-.6 2-1.3 2.7-2.2.7-1 1.2-2.1 1.5-3.3.2-.9.2-1.8 0-2.7l-.1-.4c0-.2-.1-.3-.1-.4-.2-1-.6-2-.9-3-.6-2-1.2-4-1.6-5.9s-.9-4-1.2-6c-.2-1-.3-2.1-.4-3.1l-.2-1.6c-.1-.5-.1-.9-.1-1.4 0-.4 0-.7.2-1.2 0-.1 0-.1.1-.2.1-.2.2-.4.4-.6.6-.5 1.3-.8 2.1-1 .9-.2 2-.4 3-.7l3-.7h.1c1-.2 2-.4 2.9-.7h.2c.5-.2 1-.2 1.5-.4l1.5-.5c.7-.2 1.4-.3 2.1-.5.9-.2 1.8-.3 2.8-.5l1.3-.2c1.6-.2 3.3-.6 4.9-1.1 1-.2 2-.6 3-.9 1.4-.4 2.8-.9 4.3-1.3l2.6-.7.3-.1c.7-.2 1.5-.4 2.3-.7.2-.1.5-.2.7-.2l3.1-.8c1-.2 2-.6 3.1-.8l.3-.1 2.6-.7h.2l3.1-.8c1.6-.5 3.3-.9 5-1.5.3-.1.7-.2 1.1-.3l1.8-.6c.1 0 .2-.1.3-.1 1.3-.4 2.6-.9 3.9-1.4.4-.2.7-.3 1.1-.4.6-.2 1.2-.5 1.8-.7.3-.1.6-.2.9-.4.7-.3 1.3-.6 2-.9l2.9-1.2c.3-.2.7-.2 1.1-.4.2-.1.2-.1.3-.2l1.5-.6 1.3-.5 1.6-.7 1.5-.6c.5-.2 1-.4 1.5-.7.7-.2 1.2-.6 1.9-.9.9-.4 1.8-.9 2.6-1.3.2-.2.6-.2.8-.4.1-.1.2-.1.2-.2.2-.1.2-.2.4-.2l-7.7-.4z"/></g><path fill="#E3EAF2" d="M353.7 24.1c-.1-.8-.3-1.6-.5-2.5-.2-.7-.4-1.5-.6-2.3-.7-3.1-1.6-6-2.4-9.1L349 5.9c-.4-1.5-.9-3-1.3-4.5-.1-.2-.2-.6-.2-.8 0-.2-.1-.2-.1-.4H344l.1.4.6 1.8c.9 3 1.8 5.9 2.8 8.9.9 3 1.9 5.9 2.7 8.9.4 1.5.9 3 1.2 4.4.2 1.4.2 2.8-.4 4-.6 1.2-1.7 2-3.1 2.6-1.4.7-2.8 1.2-4.2 1.6L326 38.7c-3 1-5.9 2-8.8 2.9l-3.3 1.1-1.2.4-4.5 1.4c-5.9 1.9-12 3.3-17.8 5.4-2.9 1.1-5.8 2.3-8.8 3.1-1.5.4-3.1.7-4.5 1.2l-4.5 1.3c-3 .9-5.9 1.9-8.9 2.9l-8.8 2.9-1.1.3-.6.2c-.2.1-.5.2-.7.2-.9.4-1.7.9-2.5 1.6-2.2 2.1-3.1 5.2-2.4 8.2.1.5.2 1 .5 1.4.1.2.2.4.3.7 0 .1 0 .2-.1.2l-.3.9c-.2.3-.3.7-.5 1.2 0 .1-.1.2-.1.2-1.6.6-3.3 1.1-5 1.6-2.1.7-4 1.5-6 2.4-1 .4-2 .9-3 1.3l-3 1.2c-.2.1-.2.1-.3.2-1.9.7-3.8 1.3-5.8 1.8-2.1.5-4.2 1-6.3 1.6s-4 1.4-6.1 2.2l-6 2.5-3 1.2c-1 .4-2 .8-3.1 1.2-.7.2-1.4.5-2.1.7l-.9.3c-1 .3-2.1.7-3.1 1-2.1.7-4.1 1.2-6.2 1.9-4.1 1.2-8.2 2.6-12.3 4-4 1.4-8.2 2.9-12.2 4.4-4 1.5-8.1 3-12.1 4.5-2 .8-4 1.6-6 2.3-2.1.7-4 1.5-6.1 2.1-4.1 1.3-8.2 2.5-12.4 3.7-1 .3-2.1.7-3.1 1l-3.1 1-6.2 2-6.2 2-6.1 2.1-6.1 2.1c-2.1.7-4 1.4-6.1 2.2-2 .7-4 1.6-6 2.4l-3 1.2c-1 .4-2 .7-3.1 1.2-2.1.7-4 1.4-6.1 2.1l-3.1 1.1-3.1 1c-4 1.3-8.1 2.6-12.1 4h-.1l-.1-.1c-.2-.2-.4-.6-.5-.9-.2-.7-.4-1.5-.7-2.3-.1-.2-.2-.6-.2-.8-.3-1.2-.7-2.4-1.2-3.5-.3-.7-.7-1.2-1.2-1.8-.6-.7-1.3-1.2-2.1-1.4-.2-.1-.5-.1-.7-.2-.2 0-.3-.1-.4-.1-.3-.1-.7-.1-1-.1-.7 0-1.3 0-1.9.1-1.2.2-2.4.4-3.6.7-2.3.6-4.5 1.3-6.8 2.1-2.2.8-4.3 1.6-6.4 2.4-2.1.7-4.3 1.6-6.4 2.5l-3.2 1.3c-1.1.4-2.1.8-3.2 1.2-2.1.7-4.5 1.3-6.7 2s-4.4 1.3-6.5 2.2v3.1l.9-.2c1.1-.3 2.2-.7 3.3-1.1s2.1-.7 3.3-1.2c2.1-.8 4.4-1.6 6.5-2.3 1.1-.3 2.2-.7 3.3-1.1l3.4-1c.7-.2 1.3-.4 1.9-.6 1.6-.5 3.1-1 4.7-1.6 1.1-.4 2.1-.8 3.3-1.2l3.2-1.3c2.1-.9 4.2-1.6 6.3-2.3 1.1-.3 2.1-.6 3.1-.7.5-.1 1-.1 1.6-.1.2 0 .5 0 .7.1.2 0 .4.1.6.1.2.1.5.2.7.5.2.3.5.7.6 1.1.3 1 .6 2.1.7 3.1.1.4.2.9.3 1.4 0 .1.1.2.1.3.2.7.3 1.2.6 1.8.2.6.6 1.2 1 1.7l.3.3c.4.4.9.7 1.4.8.5.2 1.1.2 1.6.1h.1c.1 0 .2 0 .2-.1l3.1-1.1 3.1-1.2.7-.2 5.3-2 3.1-1.2 3.1-1.1c2.1-.7 4-1.5 6.1-2.1 4.1-1.4 8.2-2.6 12.4-3.9 2.1-.7 4.1-1.4 6.1-2.1l6.1-2.1 6.1-2.2 6.1-2.2c4-1.5 8.1-3 12.1-4.5s8.1-3.1 12.1-4.5c2-.7 4-1.5 6.1-2.1l6.1-2.1c4.1-1.3 8.2-2.7 12.3-4.1s8.2-2.8 12.2-4.2c4-1.4 8.2-2.8 12.2-4.4 4-1.5 8.1-3 12.2-4.3 1.7-.6 3.5-1.2 5.2-1.6 6.5-2 13-3.9 19.3-6.6 2-.8 4-1.5 6.1-2.1 1-.3 2.1-.7 3.1-.9l3.1-.9c1-.3 2.1-.6 3.1-.9h.1c1.1-.3 2.1-.7 3.1-1 2.1-.7 4-1.4 6.1-2.1l1.6-.6c.1-.1.2-.2.3-.2.2-.2.1-.7-.2-.8-.2-.2-.7-.1-.8.2 0-.2 0-.3.1-.5.1-.3.2-.7.3-1 .2-.4.3-.8.4-1.2.2-.6.2-1.2.1-1.7-.1-.2-.1-.4-.2-.6-.1-.1-.1-.2-.2-.2l-.1-.1c-.1-.2-.2-.2-.2-.4-.2-.2-.2-.6-.3-.9-.2-.6-.2-1.2-.2-1.8.1-.7.2-1.2.5-1.8.2-.6.7-1.1 1.1-1.5.4-.4 1-.7 1.6-1l.4-.2.6-.2 1.1-.3 17.7-5.7 4.5-1.4c1.5-.5 2.9-1.1 4.4-1.6s3-1 4.5-1.4l4.5-1.2c1.5-.4 3-.9 4.5-1.4s3-1 4.4-1.6c2.9-1.1 5.9-2.1 8.8-3.1l4.5-1.5.9-.2 3.5-1.2c3-1 5.9-1.8 8.9-2.8 5.9-1.8 12-3.5 17.8-5.6.7-.2 1.5-.5 2.2-.8.8-.3 1.6-.7 2.3-1.1.8-.4 1.6-1 2.2-1.6.7-.7 1.3-1.5 1.7-2.3.4-.9.7-1.8.7-2.8.4-1.1.4-2 .2-2.9zM248.6 73.9c-.1-.1-.1-.1 0 0z"/><path fill="#DFE6EF" d="M107.4.2c-.4.1-.8.2-1.2.4-.2.1-.4.2-.6.2-.2.1-.2.2-.4.2-.7.4-1.3.7-2 1.1-.3.2-.7.3-1 .4h-1.1c-.4-.1-.7-.1-1.2-.1-.3.1-.7.2-1 .3-.1.1-.2.1-.3.2-.5.4-1 .7-1.6 1.1-.3.2-.7.3-1.2.4-.3.1-.7.2-.9.2l-2.2.5-2.1.6c-.6.2-1.2.4-1.7.6-.7.2-1.6.5-2.3.7h-.1c-.7.2-1.3.5-2.1.4-.7 0-1.3.5-2 .9-.4.5-1.1.7-1.8.9h-.2c-.3.1-.7.2-1.1.2s-.7.2-1.1.3c-.2.1-.6.2-.8.2-.1 0-.2.1-.2.1-.3.2-.7.2-1 .4-.7.2-1.3.6-2 .9-.5.2-.9.5-1.4.7-.8.4-1.6.8-2.5 1.3-.2.1-.2.2-.4.2-.5.2-1.1.5-1.6.7-.6.3-1.2.7-1.6 1.2-.4.4-.7.9-.9 1.4-.1.2-.2.4-.2.7v.9c0 .7.1 1.3.2 1.9.2.7.2 1.5.3 2.2.1.3.1.7.2 1.1.1.4.2.7.2 1.2 0 .2.1.3.2.5.2.5.3.9.5 1.4 0 .1.1.2.1.2.1.3.2.7.2 1.1 0 .3.1.7.1 1.1 0 .3.1.7.2 1.1.1.3.2.7.2 1.1l.6 2.1.6 2.1c.2.8-.2 1.6-1.1 1.9-.8.2-1.6-.2-1.9-1.1-.2-.7-.3-1.5-.5-2.2-.2-.7-.2-1.5-.3-2.2-.1-.4-.1-.7-.2-1.1 0-.3-.1-.7-.2-1.1-.2-.3-.2-.7-.3-1.1v-.1c-.1-.3-.1-.7-.1-1v-1.1c0-.3 0-.7-.1-1.1-.1-.2-.1-.5-.2-.7-.1-.5-.2-.9-.4-1.3-.2-.7-.5-1.3-.7-2-.3-.7-.6-1.6-.7-2.5-.1-.5-.1-1.1 0-1.6.1-.6.2-1.1.6-1.6.6-.8 1.3-1.5 2.1-2 .7-.5 1.4-.8 2.1-1.3.6-.5 1.2-.9 1.9-1.2.7-.3 1.3-.7 2.1-.9l2.1-.7c.3-.2.6-.3 1.1-.5.3-.2.7-.2 1.1-.4.7-.2 1.4-.6 2.1-.8 1.4-.5 2.5-1.7 4-1.9.7-.1 1.6-.2 2.1-.6.6-.5 1.3-.7 2-.9 1.4-.5 2.8-.9 4.2-1.3s2.8-.8 4.2-1.3c.7-.2 1.4-.5 2.1-.6.8-.2 1.5-.2 2.2-.3.3-.1.7-.2 1-.2h.1c.2-.1.5-.2.7-.3l7.1-.2zM170.3 2.7c-.7.5-1.6.3-2.1-.3s-.9-1.2-1.2-1.9c-.1-.2-.2-.2-.2-.4h3.6c.1.2.2.2.2.4v.1c.5.7.3 1.6-.3 2.1z"/><path fill="#DFE6EF" d="M73 12.6c0 .1 0 .2-.1.2 0 .1-.1.2-.2.2-.1.1-.2.2 0 .2.1 0 .1.1.2.1 0 0 0 .1-.1.1l-.2.2c0 .1.1.2.2.2.2.2.4.2.5.4.1.1.1.2.2.2 0 .1-.2.2-.2.2-.1.1-.1.2 0 .2.1.1.2.1.3.2.1.2-.1.3-.2.5-.1.1-.1.2-.2.2v.2s0 .2.2.2c.2.1.3.1.2.2 0 .1-.3.2-.3.3v.1H73.6v.1c.1.3-.2.7 0 1 0 .1.1.2.1.2 0 .1-.1.2-.2.3-.2.1-.2.2-.2.3.1.1.3.1.4.2 0 .1 0 .2-.1.2s-.2.2-.2.3c0 .1 0 .2.1.2.1.1.2.1.2.2.1.2.2.2.2.4.1.2.1.3 0 .5s.1.3.3.4c.2.1.4.2.6.2.2.1.3.2.4.3.1.1.1.2.1.2s-.2.2-.2.3c0 .2.2.2.4.3.1 0 .2.1.3.1.1 0 .1 0 .1.1 0 0 .1.1 0 .1s-.1.1-.1.2v.1c.1.1.2.1.2.1s.2.1.1.2c0 .1-.1.2-.2.2-.1.1-.1.2-.1.2-.1.1.1.2.2.2s.2.1 0 .2c-.1.2-.1.2.2.2h.2c.1 0 .1.1.1.1-.1.2-.2.5-.1.6.1.1.2.1.3.1s.1.1.1.2c-.1.2-.1.2 0 .2h.4s.3.1.4.2c.4.7.1 1.7-.7 2.1-.6.2-1.2.2-1.6-.2l-.3.8c-.2-.1-.2-.3-.2-.5 0-.1.1-.2 0-.3 0-.1-.1-.1-.1-.1h-.2c-.2 0-.2 0-.2-.2 0-.1.1-.2 0-.3-.1-.2-.4-.2-.7-.2-.1 0-.1-.1-.1-.1.1-.1.1-.2.2-.2.1-.1.2-.2.1-.2h-.2c-.2 0-.2-.1-.2-.2s.1-.2.1-.2v-.2c-.1-.1-.3 0-.4-.1-.1 0-.1-.2-.1-.2.1-.1.1-.2.1-.3 0-.1 0-.1-.1-.1s-.2 0-.2-.1c-.1 0-.1-.1-.1-.1v-.2c0-.1 0-.2.1-.3v-.3c0-.1-.1-.2-.2-.2-.2 0-.3 0-.5-.1-.2 0-.2-.1-.2-.2-.1-.2-.2-.3-.1-.5 0-.2.1-.5.2-.7.1-.1.2-.2.2-.3 0-.1-.1-.2-.2-.2s-.2-.1-.3-.2l-.2-.2-.2-.2c-.1-.1-.1-.2 0-.2.1-.1.2-.2.2-.3s.1-.2 0-.2h-.1c-.2-.1-.3-.1-.6-.1-.2 0-.3-.1-.3-.2l.1-.1.2-.2c.1-.1.2-.2.3-.2.1-.1-.2-.2-.4-.2s-.4-.1-.5-.2c0-.1 0-.1.1-.2v-.2c.2-.4-.1-.7 0-1.1v-.1s.1-.1.2-.1.1-.1.2-.1.1-.1 0-.1c0-.1-.3-.1-.3-.2s.1-.2.2-.3c.1-.1.2-.2.2-.3.1-.2 0-.3 0-.5-.1-.2-.1-.3-.2-.5 0-.1.1-.2.1-.2 0-.1-.1-.2-.2-.2-.2-.1-.2-.2-.3-.2v-.2c.1-.2.2-.3.2-.6 0-.1.1-.2 0-.2 0-.1-.2-.2-.3-.2-.1-.1-.1-.1-.1-.2s.1-.1.2-.2 0-.2-.1-.2l-.2-.2c-.1-.1-.1-.2-.1-.2-.2-.8.2-1.7 1.1-2 .8-.2 1.7.2 2 1.1.1.2.1.3.1.6v.2zM80.6 10.2c0 .1 0 .2-.1.2 0 .1-.1.2-.2.2-.1.1-.2.2 0 .2.1 0 .1.1.2.1 0 0 0 .1-.1.1l-.2.2s.1.2.2.2c.2.2.4.2.5.4.1.1.1.2.2.2 0 .1-.2.2-.2.2-.1.1-.1.2 0 .2.1.1.2.1.3.2.1.2-.1.3-.2.5-.1.1-.1.2-.2.2v.2c0 .1 0 .2.2.2.2.1.3.1.2.2 0 .1-.3.2-.3.3v.1H81.2v.1c.1.3-.2.7 0 1 0 .1.1.2.1.2s-.1.2-.2.3c-.2.1-.2.2-.2.3.1.1.3.1.4.2 0 .1 0 .2-.1.2-.1.1-.2.2-.2.3 0 .1 0 .2.1.2s.2.1.2.2c.1.2.2.2.2.4.1.2.1.3 0 .5s.1.3.3.4c.2.1.4.2.6.2.2.1.3.2.4.3.1.1.1.2.1.2 0 .1-.2.2-.2.3 0 .2.2.2.4.3.1 0 .2.1.3.1s.1 0 .1.1c0 0 .1.1 0 .1 0 .1-.1.1-.1.2v.1c.1.1.2.1.2.1.1 0 .2.1.1.2 0 .1-.1.2-.2.2s-.1.2-.1.2c-.1.8 0 .8.1.8s.2.1 0 .2c-.1.2-.1.2.2.2h.2c.1 0 .1.1.1.1-.1.2-.2.5-.1.6.1.1.2.1.3.1.1 0 .1.1.1.2-.1.2-.1.2 0 .2h.4c.2 0 .3.1.4.2.4.7.1 1.7-.7 2.1-.6.2-1.2.2-1.6-.2l-.1-.1c-.2-.1-.2-.3-.2-.5 0-.1.1-.2 0-.3 0-.1-.1-.1-.1-.1h-.2c-.2 0-.2 0-.2-.2 0-.1.1-.2 0-.3-.1-.2-.4-.2-.7-.2-.1 0-.1-.1-.1-.1.1-.1.1-.2.2-.2.1-.1.2-.2.1-.2h-.2c-.2 0-.2-.1-.2-.2s.1-.2.1-.2v-.2c-.1-.1-.3 0-.4-.1-.1 0-.1-.2-.1-.2.1-.1.1-.2.1-.3 0-.1 0-.1-.1-.1s-.2 0-.2-.1c-.1 0-.1-.1-.1-.1v-.2c0-.1 0-.2.1-.3v-.3c0-.1-.1-.2-.2-.2-.2 0-.3 0-.5-.1-.2 0-.2-.1-.2-.2-.1-.2-.2-.3-.1-.5 0-.2.1-.5.2-.7.1-.1.2-.2.2-.3 0-.1-.1-.2-.2-.2s-.2-.1-.3-.2l-.4.1-.2-.2c-.1-.1-.1-.2 0-.2s.2-.2.2-.3c.1-.1.1-.2 0-.2h-.1c-.2-.1-.3-.1-.6-.1-.2 0-.3-.1-.3-.2l.1-.1.2-.2c.1-.1.2-.2.3-.2.1-.1-.2-.2-.4-.2s-.4-.1-.5-.2c0-.1 0-.1.1-.2v-.2c.2-.4-.1-.7 0-1.1v-.1s.1-.1.2-.1.1-.1.2-.1.1-.1 0-.1c0-.1-.3-.1-.3-.2s.1-.2.2-.3c.1-.1.2-.2.2-.3.1-.2 0-.3 0-.5-.1-.2-.1-.3-.2-.5 0-.1.1-.2.1-.2 0-.1-.1-.2-.2-.2-.2-.1-.2-.2-.3-.2v-.2c.1-.2.2-.3.2-.6 0-.1.1-.2 0-.2 0-.1-.2-.2-.3-.2s-.1-.1-.1-.2.1-.1.2-.2 0-.2-.1-.2l-.2-.2c-.1-.1-.1-.2-.1-.2-.2-.8.2-1.7 1.1-2 .8-.2 1.7.2 2 1.1.1.2.1.3.1.6l.1.2zM89.8 8.2c0 .1 0 .2-.1.2 0 .1-.1.2-.2.2-.1.1-.2.2 0 .2.1 0 .1.1.2.1 0 0 0 .1-.1.1l-.2.2c0 .1.1.2.2.2.1.4.4.4.4.6.1.1.1.2.2.2 0 .1-.2.2-.2.2-.1.1-.1.2 0 .2.1.1.2.1.3.2.1.2-.1.3-.2.5-.1.1-.1.2-.2.2v.2s0 .2.2.2c.2.1.3.1.2.2 0 .1-.3.2-.3.3v.1H90.3v.1c.1.3-.2.7 0 1 0 .1.1.2.1.2 0 .1-.1.2-.2.3-.2.1-.2.2-.2.3.1.1.3.1.4.2 0 .1 0 .2-.1.2-.1.1-.2.2-.2.3 0 .1 0 .2.1.2.1.1.2.1.2.2.1.2.2.2.2.4.1.2.1.3 0 .5s.1.3.3.4c.2.1.4.2.6.2.2.1.3.2.4.3.1.1.1.2.1.2 0 .1-.2.2-.2.3 0 .2.2.2.4.3.1 0 .2.1.3.1.1 0 .1 0 .1.1 0 0 .1.1 0 .1s-.1.1-.1.2v.1c.1.1.2.1.2.1.1 0 .2.1.1.2 0 .1-.1.2-.2.2-.1.1-.1.2-.1.2-.1.1.1.2.2.2s.2.1 0 .2c-.1.2-.1.2.2.2h.2c.1 0 .1.1.1.1-.1.2-.2.5-.1.6.1.1.2.1.3.1.1 0 .1.1.1.2-.1.2-.1.2 0 .2h.4c.2 0 .3.1.4.2.4.7.1 1.7-.7 2.1-.5.2-1.2.2-1.6-.2l-.1-.1c-.2-.1-.2-.3-.2-.5 0-.1.1-.2 0-.3 0-.1-.1-.1-.1-.1h-.2c-.2 0-.2 0-.2-.2 0-.1.1-.2 0-.3-.1-.2-.4-.2-.7-.2-.1 0-.1-.1-.1-.1.1-.1.1-.2.2-.2.1-.1.2-.2.1-.2h-.2c-.2 0-.2-.1-.2-.2s.1-.2.1-.2v-.2c-.1-.1-.3 0-.4-.1-.1 0-.1-.2-.1-.2.1-.1.1-.2.1-.3s0-.1-.1-.1-.2 0-.2-.1c-.1 0-.1-.1-.1-.1v-.2c0-.1 0-.2.1-.3v-.3c0-.1-.1-.2-.2-.2-.2 0-.3 0-.5-.1-.2 0-.2-.1-.2-.2-.1-.2-.2-.3-.1-.5 0-.2.1-.5.2-.7.1-.1.2-.2.2-.3 0-.1-.1-.2-.2-.2s-.2-.1-.3-.2l-.2-.2-.2-.2c-.1-.1-.1-.2 0-.2.1-.1.2-.2.2-.3.1-.1.1-.2 0-.2h-.1c-.2-.1-.3-.1-.6-.1-.2 0-.3-.1-.3-.2l.1-.1.2-.2c.1-.1.2-.2.3-.2.1-.1-.2-.2-.4-.2s-.4-.1-.5-.2c0-.1 0-.1.1-.2v-.2c.2-.4-.1-.7 0-1.1v-.1s.1-.1.2-.1.1-.1.2-.1.1-.1 0-.1c0-.1-.3-.1-.3-.2s.1-.2.2-.3c.1-.1.2-.2.2-.3.1-.2 0-.3 0-.5-.1-.2-.1-.3-.2-.5 0-.1.1-.2.1-.2 0-.1-.1-.2-.2-.2-.2-.1-.2-.2-.3-.2v-.2c.1-.2.2-.3.2-.6 0-.1.1-.2 0-.2 0-.1-.2-.2-.3-.2s-.3.5-.3.4.1-.1.2-.2 0-.2-.1-.2-.2-.2-.2-.2c-.1-.1-.1-.2-.1-.2-.2-.8.2-1.7 1.1-2 .8-.2 1.7.2 2 1.1.1.2.1.3.1.6l.1.3zM99 4.5c0 .1 0 .2-.1.2 0 .1-.1.2-.2.2-.1.1-.2.2 0 .2.1 0 .1.1.2.1 0 0 0 .1-.1.1l-.2.2c0 .1.1.2.2.2.2.2.4.2.5.4.1.1.1.2.2.2 0 .1-.2.2-.2.2-.1.1-.1.2 0 .2.1.1.2.1.3.2.1.2-.1.3-.2.5-.1.1-.1.2-.2.2v.2s0 .2.2.2c.2.1.3.1.2.2 0 .1-.3.2-.3.3V9H99.6v.1c.1.3-.2.7 0 1 0 .1.1.2.1.2 0 .1-.1.2-.2.3-.2.1-.2.2-.2.3.1.1.3.1.4.2 0 .1 0 .2-.1.2-.1.1-.2.2-.2.3 0 .1 0 .2.1.2.1.1.2.1.2.2.1.2.2.2.2.4.1.2.1.3 0 .5s.1.3.3.4c.2.1.4.2.6.2.2.1.3.2.4.3.1.1.1.2.1.2 0 .1-.2.2-.2.3 0 .2.2.2.4.3.1 0 .2.1.3.1.1 0 .1 0 .1.1 0 0 .1.1 0 .1 0 .1-.1.1-.1.2v.1c.1.1.2.1.2.1s.2.1.1.2c0 .1-.1.2-.2.2-.1.1-.1.2-.1.2-.1.1.1.2.2.2s.2.1 0 .2c-.1.2-.1.2.2.2h.2l.1.1c-.1.2-.2.5-.1.6.1.1.2.1.3.1.1 0 .1.1.1.2-.1.2-.1.2 0 .2h.4s.3.1.4.2c.4.7.1 1.7-.7 2.1-.6.2-1.2.2-1.6-.2l-.1-.1c-.2-.1-.2-.3-.2-.5 0-.1.1-.2 0-.3 0-.1-.1-.1-.1-.1h-.2c-.2 0-.2 0-.2-.2s.1-.2 0-.3c-.1-.2-.4-.2-.7-.2-.1 0-.1-.1-.1-.1.1-.1.1-.2.2-.2.1-.1.2-.2.1-.2h-.2c-.2 0-.2-.1-.2-.2s.1-.2.1-.2V17c-.1-.1-.3 0-.4-.1-.1 0-.1-.2-.1-.2.1-.1.1-.2.1-.3 0-.1 0-.1-.1-.1s-.2 0-.2-.1c-.1 0-.1-.1-.1-.1v-.2c0-.1 0-.2.1-.3v-.3c0-.1-.1-.2-.2-.2-.2 0-.3 0-.5-.1-.2 0-.2-.1-.2-.2-.1-.2-.2-.3-.1-.5 0-.2.1-.5.2-.7.1-.1.2-.2.2-.3 0-.1-.1-.2-.2-.2s-.2-.1-.3-.2l-.2-.2-.2-.2c-.1-.1-.1-.2 0-.2.1-.1.2-.2.2-.3.1-.1.1-.2 0-.2h-.1c-.2-.1-.3-.1-.6-.1-.2 0-.3-.1-.3-.2l.1-.1.2-.2c.1-.1.2-.2.3-.2s-.2-.2-.4-.2-.4-.1-.5-.2c0-.1 0-.1.1-.2v-.2c.2-.4-.1-.7 0-1.1v.5s.1-.1.2-.1.1-.1.2-.1.1-.1 0-.1c0-.1-.3-.1-.3-.2s.1-.2.2-.3c.1-.1.2-.2.2-.3.1-.2 0-.3 0-.5-.1-.2-.1-.3-.2-.5 0-.1.1-.2.1-.2s-.4-.2-.5-.3c-.2-.1-.2-.2-.3-.2v-.2c.1-.2.2-.3.2-.6 0-.1.1-.2 0-.2 0-.1-.2-.2-.3-.2.2.1.2 0 .2 0 0-.1.1-.1.2-.2s0-.2-.1-.2l-.2-.2c-.1-.3-.1-.4-.1-.4-.2-.8.2-1.7 1.2-2 .8-.2 1.7.2 2 1.2.1.2.1.3.1.6l-.3.1zM112.7 17.7c-.6.2-1.2.2-1.6-.2l-.1-.1c-.2-.1-.2-.3-.2-.5 0-.1.1-.2 0-.3 0-.1-.1-.1-.1-.1h-.2c-.2 0-.2 0-.2-.2s.1-.2 0-.3c-.1-.1-.1-.1-.2-.1-.2 0-.3-.1-.6-.1-.1 0-.1-.1-.1-.1.1-.1.1-.2.2-.2.1-.1.2-.2.1-.2 0-.1-.1 0-.2 0-.2 0-.2-.1-.2-.2s.1-.2.1-.2c0-.1 0-.1-.1-.2h-.4c-.1-.1-.1-.2-.1-.2.1-.1.1-.2.1-.3s0-.1-.1-.1-.2 0-.2-.1h-.1s-.1 0-.1-.1v-.2c0-.1 0-.2.1-.3v-.3c0-.1-.1-.2-.2-.2-.2 0-.3 0-.5-.1-.2 0-.2-.1-.2-.2-.1-.2-.2-.3-.1-.5 0-.2.1-.5.2-.7.1-.1.2-.2.2-.3 0-.1-.1-.2-.2-.2s-.2-.1-.3-.2l-.2-.2-.2-.2c-.1-.1-.1-.2 0-.2.1-.1.2-.2.2-.3.1-.1.1-.2 0-.2h-.1c-.2-.1-.3-.1-.6-.1-.2 0-.3-.1-.3-.2l.1-.1.2-.2c.1-.1.2-.2.3-.2.1-.1-.2-.2-.4-.2s-.4-.1-.5-.2v-.2c0-.1 0-.1.1-.2.2-.4-.1-.7 0-1.1 0 0 .1-.1.2-.1s.1-.1.2-.1.1-.1 0-.1c0-.1-.3-.1-.3-.2s.1-.2.2-.3c.1-.1.2-.2.2-.3.1-.2 0-.3 0-.5-.1-.2-.1-.3-.2-.5 0-.1.1-.2.1-.2s-.1-.2-.2-.2c-.2-.1-.2-.2-.3-.2V4c.1-.2.2-.3.2-.6 0-.1.1-.2 0-.2 0-.1-.2-.2-.3-.2-.1 0-.1-.1-.1-.2s.1-.1.2-.2 0-.2-.1-.2l-.2-.2c-.1-.1-.1-.2-.1-.2-.1-.3-.1-.7.1-1 .1-.2.2-.5.5-.7h2.1c.2.1.2.2.3.4.1.2.2.2.2.4.1.2.1.3.1.6v.2c0 .1 0 .2-.1.2 0 .1-.1.2-.2.2-.1.1-.2.2 0 .2.1 0 .1.1.2.1 0 0 0 .1-.1.1l-.2.2c0 .1.1.2.2.2.2.2.4.2.5.4.1.1.1.2.2.2 0 .1-.2.2-.2.2-.1.1-.1.2 0 .2.1.1.2.1.3.2.1.2-.1.3-.2.5-.1.1-.1.2-.2.2v.2c0 .1 0 .2.2.2.2.1.3.1.2.2 0 .1-.3.2-.3.3V6H109.4v.1c.1.3-.2.7 0 1 0 .1.1.2.1.2s-.1.2-.2.3c-.2.1-.2.2-.2.3.1.1.3.1.4.2 0 .1 0 .2-.1.2-.1.1-.2.2-.2.3 0 .1 0 .2.1.2.1.1.2.1.2.2.1.2.2.2.2.4.1.2.1.3 0 .5s.1.3.3.4c.2.1.4.2.6.2.2.1.3.2.4.3.1.1.1.1.1.2s-.2.2-.2.3c0 .2.2.2.4.3.1 0 .2.1.3.1.1 0 .1 0 .1.1 0 0 .1.1 0 .1 0 .1-.1.1-.1.2v.1c.1.1.2.1.2.1.1 0 .1.1.1.1v.1c0 .1-.1.2-.2.2-.1.1-.1.2-.1.2-.1.1.1.2.2.2s.2.1 0 .2c0 0 0 .1-.1.1 0 .1 0 .1.2.1h.2c.1 0 .1.1.1.1-.1.2-.2.5-.1.6.1.1.2.1.3.1.1 0 .1.1.1.2s-.1.2 0 .2h.5c.2 0 .3.1.4.2.5 1.4.1 2.4-.7 2.8zM123.5 14.1c-.3.2-.7.3-1 .2-.2 0-.4-.1-.7-.2l-.2-.1c-.2-.1-.2-.2-.3-.4v-.3s-.1-.1-.2-.1-.2 0-.2.1c-.2.1-.2 0-.3-.1-.1-.1.1-.2 0-.3-.2-.1-.4-.1-.7-.1-.1 0-.1 0-.1-.1s.1-.2.2-.3l.1-.2h-.2c-.2.1-.2 0-.2-.2 0-.1.1-.2.1-.2s0-.1-.1-.1c-.1-.1-.3 0-.4 0-.1 0-.2-.1-.1-.2v-.1c0-.1.1-.2.1-.3 0-.1 0-.1-.1-.1h-.2c-.1 0-.1 0-.1-.1v-.2-.2-.2-.3c0-.1-.1-.2-.2-.2h-.5c-.2 0-.2-.1-.2-.2-.1-.2-.2-.3-.2-.5s0-.5.2-.7c.1-.1.2-.2.2-.4 0-.1-.1-.2-.2-.2s-.2 0-.3-.1l-.2-.2c-.1-.1-.2-.1-.2-.2-.3-.1-.3-.2-.3-.3 0-.1.2-.2.2-.4.1-.1 0-.2-.1-.2h-.7c-.2 0-.3 0-.3-.1 0 0 0-.1.1-.1l.2-.2.2-.2c.1-.2-.2-.2-.4-.1-.2 0-.5 0-.5-.1v-.2-.2c.2-.4-.2-.7-.2-1.1v.4c0-.1.1-.1.1-.1.1-.1.1-.1.2-.1 0 0 .1-.1 0-.1 0-.1-.3-.1-.4-.2-.1-.1.1-.2.2-.3.1-.1.1-.2.1-.3 0-.2 0-.3-.1-.5s-.2-.3-.2-.5c0-.1.1-.2 0-.2 0-.1-.1-.2-.2-.2-.2-.1-.3-.1-.3-.2s-.1-.2 0-.2c0-.2.2-.4.2-.6V.8c-.1-.1-.1-.1-.2-.1s-.2-.1-.2-.1c-.1 0-.1-.1-.1-.1 0-.1.1-.1.1-.2h2.5c0 .1.1.2.2.2.1.1.2.1.2.2.1.1.2.1.3.2.1.1.2.1.2.2s-.1.2-.2.2c-.1.1-.1.2 0 .2.1.1.2.1.3.2.1.2 0 .3-.2.5-.1.1-.1.2-.1.2v.2c.1.1.1.2.2.2.2 0 .3.1.2.2 0 .1-.3.2-.3.3v.1H118.3v.1c.2.2-.1.7.2 1 0 .1.1.2.1.2 0 .1 0 .2-.2.3-.1.2-.2.2-.2.3.1.1.3 0 .4.1 0 .1 0 .2-.1.3-.1.1-.2.2-.2.3 0 .1 0 .2.1.2.1.1.2.1.2.2.1.1.2.2.2.4.1.2.1.3.1.5s.2.3.4.3.4.1.6.2c.2.1.3.2.5.2.1.1.1.1.1.2s-.1.2-.1.3c0 .2.2.2.5.2.1 0 .2 0 .3.1.1 0 .1 0 .2.1 0 0 .1.1 0 .1 0 .1 0 .1-.1.2 0 .1 0 .1.1.1s.2.1.3.1c.1 0 .1.1.2.1v.1c0 .1-.1.2-.1.2l-.1.2s.1.2.2.2.2.1.1.2v.2c0 .1.1.1.2 0 .1 0 .2-.1.2-.1.1 0 .1.1.1.1-.1.2-.1.5 0 .6.1.1.2 0 .3 0 .1 0 .2.1.1.2-.1.2 0 .2.1.2.2 0 .2 0 .4-.1h.2c.1 0 .2.1.2.1l.1.1c.4.9.3 1.9-.4 2.4zM130.9 10.7c-.5.3-1.2.4-1.6.1l-.2-.1c-.2-.1-.2-.2-.3-.4v-.2-.2c0-.1-.1-.1-.2-.1h-.2c-.2.1-.2 0-.3-.1 0-.1.1-.2 0-.3-.1-.2-.4-.1-.7-.1-.1 0-.1 0-.1-.1s.1-.2.2-.3c.1-.1.1-.2.1-.2h-.4v-.2c0-.1.1-.2.1-.2s0-.1-.1-.2-.3 0-.4 0c-.1 0-.2-.1-.1-.2v-.2-.2c0-.1 0-.1-.1-.1h-.2c-.1 0-.1 0-.1-.1v-.2-.3-.3c0-.1-.1-.2-.2-.2h-.5c-.2 0-.2-.1-.2-.2-.3.1-.4-.1-.4-.2-.1-.2 0-.5.2-.7.1-.1.2-.2.2-.4 0-.1-.1-.2-.2-.2s-.2 0-.3-.1l-.2-.2c-.1-.1-.2-.1-.2-.2-.1-.1-.1-.2-.1-.2 0-.1.2-.2.2-.4.1-.1 0-.2 0-.2h-.7c-.2 0-.3 0-.3-.1 0 0 0-.1.1-.1l.2-.2.2-.2c0-.1-.2-.1-.5-.1-.2 0-.5 0-.5-.1v-.2-.2c.2-.4-.2-.7-.2-1.1 0-.1.1-.1.1-.1l.2-.2s.1-.1 0-.1c0-.1-.3-.1-.4-.2 0-.1.1-.2.2-.3 0 0 0-.1.1-.1h2.8v.4s0 .2.1.4c0 .1.1.2.1.2 0 .1 0 .2-.2.3-.2.2-.2.2-.2.3.1.1.3 0 .4.1 0 .1 0 .2-.1.3-.1.1-.2.2-.2.3 0 .1 0 .2.1.2.1.1.2.1.2.2.1.1.2.2.2.4.1.2.1.3.1.5s.2.3.4.3h.2c.2 0 .3.1.4.2.2.1.3.2.5.2.1.1.1.1.1.2s-.1.2-.1.3c0 .2.2.2.5.2.1 0 .2 0 .3.1.1 0 .1 0 .2.1 0 0 .1.1 0 .1 0 .1-.1.2-.1.2 0 .1 0 .1.1.1s0 .4.1.4.2.1.2.2-.1.2-.1.2-.1.1-.1.2.1.2.2.2c0 0 .1 0 .1.1v.2c-.1.2-.1.2.2.2.1 0 .2-.1.2-.1l.1.1c-.1.2-.1.3-.1.5 0 .1 0 .1.1.2s.2 0 .3 0 .2.1.1.2c0 .2 0 .2.1.2.2 0 .2 0 .4-.1.2 0 .3.1.5.2.1.2.2.2.2.4.3.6 0 1.3-.5 1.8zM140.3 7.2c-.5.3-1.2.4-1.6.1l-.2-.1c-.2-.1-.2-.2-.3-.4v-.3c0-.1-.1-.1-.2-.1s-.2 0-.2.1c-.2.1-.2 0-.3-.1 0-.1.1-.2 0-.3 0-.2-.3-.2-.7-.1-.1 0-.1 0-.1-.1s.1-.2.2-.3l.1-.2h-.2c-.2.1-.2 0-.2-.2v-.1c0-.1 0-.1.1-.2 0-.1 0-.1-.1-.1-.1-.1-.3 0-.4 0-.1 0-.2-.1-.1-.2 0-.1.1-.2.1-.3 0-.1 0-.1-.1-.1h-.2c-.1 0-.1 0-.1-.1v-.2-.3-.3c0-.1-.1-.2-.2-.2h-.5c-.2 0-.2-.1-.2-.2-.1-.2-.2-.3-.2-.5-.1-.2 0-.5.2-.7.1-.1.2-.2.2-.4 0-.1-.1-.2-.2-.2s-.2 0-.3-.1l-.7-.2c-.1-.1-.2-.1-.2-.2s-.1-.2-.1-.2V.3c.1-.1.1-.2.2-.3h2.2v.2s0 .2.1.2c.1.1.2.1.3.1.2 0 .4.1.6.2s.3.2.5.2c.1.1.1.1.1.2s-.1.2-.1.3c0 .2.2.2.5.2.1 0 .2 0 .3.1.1 0 .1 0 .2.1 0 0 .1.1 0 .1 0 .1-.1.2-.1.2 0 .1 0 .1.1.1s.2.1.3.1c.1 0 .2.1.2.2s-.1.2-.1.2V3c0 .1-.1.1-.1.2s.1.2.2.2.2.1.1.2c-.1.2-.1.2.2.2.1 0 .2-.1.2-.1l.1.1v.1c0 .2-.1.4.1.5.1.1.2 0 .3 0s.2.1.1.2c0 .2 0 .2.1.2.2 0 .2 0 .4-.1.2 0 .3.1.5.2.1.8-.2 1.8-.8 2.3zM149.2 2.7c-.5.3-1.2.4-1.6.1l-.2-.1c-.2-.1-.2-.2-.3-.4v-.1-.3c0-.1-.1-.1-.2-.1s-.2 0-.2.1c-.2.1-.2 0-.3-.1 0-.1.1-.2 0-.3-.1-.2-.4-.1-.7-.1-.1 0-.1 0-.1-.1s.1-.2.2-.3l.1-.2h-.2c-.2.1-.2 0-.2-.2 0-.1.1-.1.1-.2s0-.1-.1-.1c-.1-.1-.3 0-.4 0-.1 0-.2-.1-.1-.2h3.8c0 .2 0 .2.1.2.2 0 .2 0 .4-.1.2 0 .3 0 .4.2v.1c.1.1.2.2.2.4.1.8-.2 1.4-.7 1.8z"/><path fill="#E3EAF2" d="M277.7 100.9c-.5-1.6-.8-3.6-1.9-5.2-.1-.5-.1-1-.2-1.5-.1-.2-.2-.4-.3-.7-.1-.2-.2-.4-.3-.7-.5-.8-1-1.7-1.5-2.6-.1-.2-.2-.5-.3-.7-.1-.2-.2-.5-.2-.7-.2-.5-.2-1-.2-1.5s-.1-1-.2-1.5c-.2-.5-.4-1-.5-1.5-.2-1.1-.2-2.1.1-3.1.2-1.1.4-2.1.7-3.1.1-.4.4-.7.8-.9.7-.2 1.5-.7 2.1-1.1.3-.2.7-.4 1.1-.6.4-.1.8-.2 1.2-.2.2 0 .4-.1.6-.2.2-.1.3-.2.5-.4s.3-.2.5-.3l.6-.2c.7-.3 1.5-.6 2.3-.8.7-.2 1.6-.5 2.3-.8.7-.3 1.5-.6 2.2-.9.4-.2.7-.2 1.2-.3.4-.1.8-.1 1.2-.2l1.2-.3c.3-.2.7-.5 1-.7.7-.3 1.6-.6 2.4-.7.8-.1 1.6-.3 2.3-.7.7-.3 1.4-.7 2.1-1.1l2.2-.9c.7-.2 1.5-.6 2.3-.8.7-.2 1.6-.5 2.3-.7.7-.3 1.4-.7 2.1-1.2.7-.4 1.4-.7 2.1-1.2 1.4-.8 2.9-1.5 4.5-2 .4-.1.8-.2 1.2-.2l1.2-.3 1.2-.5c.4-.2.8-.3 1.2-.5.5-.2.9-.2 1.4-.3.5-.1 1.1-.1 1.6 0s1 .2 1.5.6c.4.3.9.5 1.3.7.9.4 1.6 1 2.3 1.7.3.3.6.7.7 1.2.2.4.2.9.4 1.3.3.8.9 1.5 1.2 2.3.1.4.2.8.2 1.3.1.4.2.8.5 1.2l.3.6.2.6c.1.4.1.8.1 1.2 0 .4.1.8.2 1.2.1.4.2.7.3 1.2.2.7.7 1.4 1 2.2.2.7.2 1.6.6 2.3.3.7.9 1.4 1.2 2.1.3.7.7 1.5.9 2.2.2.8-.2 1.6-1 2-.7.2-1.6-.1-1.9-.8-.3-.7-.6-1.5-.8-2.3-.2-.7-.3-1.6-.6-2.4-.1-.4-.3-.7-.5-1.2-.2-.3-.5-.7-.7-1.1-.4-.7-.3-1.6-.6-2.4-.1-.4-.2-.8-.4-1.2-.2-.4-.3-.7-.6-1.2s-.4-.7-.6-1.2c-.1-.2-.1-.4-.1-.7 0-.2.1-.4.1-.6.1-.2.1-.4.1-.6 0-.2-.1-.4-.2-.6-.2-.3-.5-.7-.6-1-.3-.7-.2-1.6-.6-2.1-.2-.3-.5-.6-.7-.7-.2-.2-.5-.4-.7-.7-.1-.2-.2-.2-.3-.4-.1-.2-.2-.2-.2-.4-.2-.2-.4-.5-.7-.7-.2-.2-.6-.3-.8-.4h-.5c-.2 0-.3-.1-.4-.1-.6-.2-1.2-.2-1.9-.2s-1.5.2-2.1.5c-.3.2-.7.4-1.1.7-.3.2-.7.5-1 .7-.3.2-.7.4-1.1.6l-1.2.5-1.2.4-1.2.3-1.2.3c-.4.1-.8.2-1.2.2-.4.1-.8.1-1.2.2-.4.1-.8.2-1.2.2-.7.2-1.4.8-2.1 1.2l-2.1 1.2c-.7.3-1.5.7-2.2 1-.4.2-.8.2-1.2.2-.4.1-.8.1-1.2.2-.8.2-1.6.6-2.1 1.2-.7.6-1.3 1.2-2.1 1.3-.4 0-.9-.2-1.3-.1s-.8.2-1.1.5c-.3.2-.6.7-.9.9s-.7.4-1.1.6c-.4.1-.7.2-1.2.3l-1.2.3c-.7.2-1.6.5-2.3.8-.7.3-1.5.6-2.3.8l-.6.2c-.2.1-.4.1-.6.1h-.7c-.2.1-.4.2-.6.2-.3.2-.7.5-1 .7-.4.2-.7.2-1.2.3-.8.1-1.6.3-2.4.6l.6-.7c-.2.9-.3 1.7-.3 2.6 0 .9.1 1.8.2 2.7 0 .2 0 .5.1.7 0 .2.1.5.1.7.1.5.2.9.5 1.3l.6 1.2c.2.4.2.9.3 1.3.2.9.4 1.8.7 2.7.1.2.2.4.2.7.1.2.2.4.2.7.2.4.6.8.8 1.2.4 1.9 1.6 3.5 2.3 5.4.2.8-.2 1.6-1.1 1.9-.7.8-1.5.3-1.8-.6z"/><path fill="#EDF1F6" d="M48.8 176.9c0 .4-.1.9-.4 1.2-.2.2-.4.3-.7.4s-.4.1-.7 0c-.4-.1-.8-.3-1.1-.7-.1-.1-.1-.2-.2-.2-.1-.2-.2-.4-.2-.6-.2-.6-.3-1.2-.5-1.6-.1-.4-.1-.8-.2-1.2-.1-.4-.2-.7-.3-1.2-.1-.1-.1-.2-.2-.2-.2-.2-.3-.5-.5-.8-.1-.1-.1-.2-.1-.3-.1-.2-.2-.6-.2-.8s0-.5-.1-.7c0-.2-.1-.3-.1-.4-.2-.4-.2-.7-.5-1.2-.2-.4-.4-.7-.6-1.1-.2-.3-.2-.7-.2-1.2.2-.3.2-.7.1-1.2-.1-.2-.2-.3-.2-.5-.1-.2-.2-.3-.3-.5-.2-.3-.3-.7-.3-1 0-.3-.1-.7-.2-1.1-.2-.3-.3-.7-.7-.8-.2-.2-.6-.4-.8-.7s-.4-.5-.6-.7c-.2-.2-.3-.5-.6-.7-.2-.2-.4-.4-.7-.6-.2-.1-.6-.2-.9-.2-.2 0-.6-.1-.8-.2-.3-.1-.6-.1-.9-.2-.7-.1-1.4 0-2.1.2-.7.2-1.5.6-2.1 1.1-.3.2-.7.5-1 .7-.3.2-.7.3-1.1.5-1.5.6-3 1.2-4.5 1.5-.4.1-.7.2-1.2.2-.4.1-.8.1-1.2.2-.8.1-1.6.3-2.2.7-.3.2-.7.4-1 .7-.3.2-.7.4-1.1.6-.7.3-1.4.7-2.1 1.1-.7.3-1.5.6-2.2.8-.4.1-.8.1-1.2.2-.4.1-.7.2-1.2.3-.7.3-1.3.9-2 1.4-.2.2-.4.3-.6.4-.2.1-.2.2-.4.2-.2.1-.4.2-.6.2-.2 0-.4 0-.7-.1s-.4-.1-.7-.1c-.2 0-.4.1-.6.2-.3.2-.7.5-1 .7-.2.3-.6.6-1 .7-.3.2-.7.3-1.1.4-.7.2-1.6.4-2.3.7-.2.1-.3.1-.5.2v-3.2c.2-.1.5-.2.7-.3.2-.1.5-.2.7-.3.6-.3 1.2-.5 1.9-.6h.4c.8 0 1.6-.2 2.2-.7l.2-.2c.6-.4 1.3-.7 2-.7.1 0 .2-.1.3-.1.6-.1 1.1-.2 1.6-.3.1 0 .2-.1.3-.1.6-.2 1.2-.5 1.6-.7.2-.1.3-.2.5-.2.7-.3 1.4-.7 2.1-.9s1.5-.6 2.2-.8c.7-.2 1.5-.5 2.2-.7.7-.2 1.2-.4 1.8-.8.1-.1.2-.2.3-.2l1-.7c.3-.2.7-.4 1.1-.6 1.4-.7 2.8-1.5 4.2-2.1.3-.2.7-.3 1.1-.4.4-.1.7-.2 1.2-.2s.7-.2 1.2-.3c.4-.2.7-.3 1.2-.5.4-.2.7-.3 1.2-.5.4-.2.9-.3 1.3-.4.5-.1 1-.2 1.5-.2s1 .1 1.5.2c.1.1.2.1.3.2.1.1.2.2.3.2.2.2.4.2.6.4.4.2.8.5 1.2.7.8.4 1.6 1.1 2.1 1.9.5.8.6 1.7 1 2.5.4.7.9 1.4 1.1 2.3 0 .4.1.8.2 1.2.2.4.3.8.6 1.2.2.3.2.7.2 1.2v1.2c0 .6.2 1.1.3 1.6.1.2.2.4.3.7.2.2.2.5.3.8 0 .1.1.2.1.2.1.2.1.6.1.9v.3c.1.4.2.7.4 1.1.2.3.4.7.6 1 .2.5.4 1 .6 1.4.1.2.2.5.2.7 1.4-.1 1.4 0 1.4.1z"/><g><path fill="#E8EDF4" d="M563.6.2c0 .2-.1.2-.1.4-2.3 8.3-5.1 16.3-5.1 16.3L537 63.1l-9.9 21.4-.7 1.6-15.8 34.3-17.2 37.3-.2.3c-2.2 4.7-7.8 6.8-12.5 4.5l-5.2-2.4-58-27-21.2-9.8c-4.7-2.1-6.8-7.8-4.5-12.5l3.9-8.2.5-1.2L408.4 75 442.9.6l.2-.4h120.5z"/><path fill="#E8EDF4" d="M566.5.2l-.2.3-28.5 62.4-9.7 21.4-1 .1-9.2 1.2-.5.1-94.5 12.1-7 .9-19.9 2.6-1.7.2 12.5-26.4L442.2.5l.2-.3"/><path fill="#F4F6F8" d="M536.2 45l-8.7 18.9-.1.2-10 21.6-.2.6-.4.9-16 34.4-6.6 14.2-21.8-10.4-54.7-25.8-1.8-.9h-.1l-9.1-4.3 9.3-20.2L450.1.5l.1-.3h55.3l.3.3 22.6 33.1 2 3 5.6 8.1"/><path fill="#EDF1F6" d="M555.7.2l-.2.3L536 44.7l-8.5 19.2-.1.2-9.5 21.5-.3.6-.4.1-94.3 11.5-7.1.9h-.1l-9.4-3.9 9.5-20.6 34-73.7.2-.3"/><path fill="#DFE6EF" d="M479.2 18c.1.4.2.9.2 1.3s.1.9.2 1.3l.3.6s.2.4.2.7-.1.5-.1.7 0 .5.1.7c.2.4.3.8.6 1.2.2.4.5.8.7 1.2.1.2.2.4.2.7s.2.4.2.7c-.1.5 0 .9.1 1.4l.3.6c.2.2.2.4.3.6.2.4.2.9.2 1.3 0 .9.1 1.8.2 2.7.1.2.2.4.2.7l.3.6c.2.2.2.4.2.7s0 .5-.1.7c-.1.2-.1.5.1.7l.2.2c.1.1.1.2.2.3.1.4.2.9.2 1.3l-2-1c.8-.2 1.6-.5 2.3-.8l.6-.2c.2-.1.3-.2.6-.2.4-.1.9 0 1.3-.1.2 0 .4-.2.6-.3.2-.2.2-.3.5-.5.4-.2.8-.2 1.2-.2s.8-.1 1.2-.2c.3-.2.7-.4 1.1-.7.7-.4 1.5-.7 2.2-1 .4-.2.7-.3 1.2-.4.4-.1.8-.2 1.2-.5.3-.2.7-.6 1-.8.3-.2.7-.5 1-.7.7-.5 1.4-.9 2.1-1.2.4-.1.8-.2 1.2-.2.2 0 .4-.1.6-.2.2-.1.3-.2.5-.3.7-.5 1.2-1.2 2.1-1.4.2 0 .4 0 .7-.1l.6-.3c.3-.2.7-.5 1.1-.7.4-.2.9 0 1.3-.1.2 0 .4-.1.6-.2.2-.2.3-.2.5-.3.3-.2.9 0 1.2-.2.2-.2.3-.3.4-.5.2-.2.3-.2.6-.2.2-.1.4 0 .7-.1.2 0 .4-.1.6-.2.4-.1.8-.2 1.1-.6.3-.3.7-.5 1.2-.5.2 0 .4-.1.7-.1.2-.1.3-.2.5-.3l.5-.5s.3-.2.5-.3c.3-.2.7-.4 1.1-.6l1.2 2.8c-.3.2-.7.3-1.2.5-.2.1-.4.2-.6.2-.2 0-.4.1-.7.1-.2 0-.4.1-.6.2-.2.2-.3.2-.5.5-.2.2-.3.3-.5.4-.2.1-.4.2-.6.2-.4 0-.8.2-1.2.5-.2.2-.3.2-.5.4l-.5.5c-.2.2-.4.2-.6.2-.2-.1-.5-.2-.7-.2-.2.1-.4.2-.5.4-.1.2-.3.3-.5.3h-.7c-.2 0-.4.1-.6.2-.3.2-.6.7-1 .8-.4.2-.8.2-1.2.2-.2 0-.4.1-.6.2-.2.1-.3.2-.5.4-.7.5-1.6.4-2.4.7-.4.1-.7.3-1.1.6-.2.3-.6.7-.9 1-.7.4-1.5.7-2.3.9l-1.2.3c-.4.1-.9-.1-1.3 0s-.8.2-1.1.6c-.3.3-.7.6-1 .7-.7.5-1.4.9-2.2 1.2-.4 0-.8.1-1.3.2-.2.1-.4.2-.5.3-.2.2-.3.3-.4.6-.2.4-.6.7-1 .9-.2 0-.5-.1-.7-.2-.2-.1-.5-.1-.7.1-.3.2-.5.9-.8 1.2-.2.1-.3.2-.6.2-.2.1-.4.1-.6.2l-1.2.3c-.4.2-.7.3-1.2.5h-.1c-.8.3-1.8-.1-2.1-.9 0-.1-.1-.2-.1-.2-.1-.4-.2-.9-.2-1.3v-.3l.2-.4v-.3c-.1-.1-.1-.2-.2-.3-.2-.2-.3-.4-.4-.6-.1-.2-.1-.5 0-.7.1-.2.1-.5.1-.7s0-.5-.1-.7c-.2-.9-.3-1.7-.7-2.6-.1-.2-.2-.4-.2-.7-.1-.2-.2-.4-.2-.7-.1-.4-.2-.9-.2-1.3-.2-.4-.4-.8-.7-1.2-.1-.2-.2-.4-.2-.7-.1-.2-.1-.4-.2-.7l-.3-2.7c0-.2-.1-.4-.2-.7-.2-.2-.3-.4-.4-.6-.2-.2-.2-.4-.2-.7v-.7l-.6-1.2s-.3-.8-.5-1.2l3.2-1.2z"/><g fill="#DFE6EF"><path d="M440.6 121.5c.1 0 .2 0 .3-.1.1 0 .2 0 .3.1.1 0 .2.1.2-.1 0-.1.1-.2.1-.2h.2c.1.1.2.2.3.2.1 0 .2-.1.2-.2.2-.2.3-.4.5-.6.1-.1.2-.1.2-.2.1 0 .2.2.3.2.1.1.2.2.3.1l.3-.3c.2-.1.4.2.6.3l.2.2c.1.1.2.1.2.1s.2 0 .3-.1c.1-.1.2-.2.3-.2.1.1.1.4.2.5h.1l.1-.1c0-.1.1-.1.1-.1h.1c.4.1.7.5 1 .6.1 0 .2.1.2.1.1.1.2.2.2.4s.1.3.2.3.3-.2.4-.2c.1.1.2.2.2.3s.1.2.1.4c0 .1.1.2.2.2h.3c.2.1.3.2.4.2l.2.2c.1.1.1.2.2.2.1.2.2.2.5.2.2 0 .5 0 .7.1.2 0 .4.2.6.2.1.1.2.1.2.2s-.1.2-.1.4.2.2.5.3c.1 0 .2.1.3.1.1 0 .1.1.2.1s.1.1.1.2-.1.2-.1.2c0 .1 0 .1.1.2s.2.2.3.2c.1.1.2.2.1.2 0 .1-.1.2-.2.2-.1.1-.1.2-.2.2-.1.1.1.2.2.2.1.1.1.2 0 .3-.1.2-.2.2.1.2.1 0 .2 0 .2.1 0 0 .1.1 0 .2-.2.2-.3.5-.2.7 0 .1.2.2.2.2s.1.2 0 .3c-.1.1-.2.2-.1.3.1.1.2.2.3.2.2.2.2.3.2.6l-3.1.2c-.1-.2-.1-.3.1-.4l.2-.2c0-.1 0-.1-.1-.1s-.2-.1-.2-.1c-.2 0-.2-.1-.2-.2l.2-.2c0-.2-.3-.2-.6-.2-.1 0-.1-.1 0-.1l.2-.2c.2-.2.2-.2 0-.2s-.2-.1-.1-.2l.2-.2v-.1c-.1-.1-.3 0-.4 0-.1 0-.1-.1 0-.2s.1-.2.2-.3c0-.1 0-.1-.1-.1h-.2c-.1 0-.1 0-.1-.1v-.1c0-.1 0-.2.1-.2v-.2c0-.1-.1-.2-.2-.1-.2 0-.3.1-.5.1-.1 0-.2 0-.2-.1-.1-.1-.2-.2-.2-.3-.1-.2 0-.4.1-.7.2-.3.1-.5-.2-.4-.1.1-.2.1-.3.1h-.4l-.2-.2v-.4c0-.1-.1-.2-.2-.1-.2.1-.3.2-.4.3-.2.2-.2.2-.3.2v-.1l.1-.2c0-.1.1-.2.1-.4s-.2 0-.3.2c-.2.2-.2.3-.3.3 0 0 0-.1-.1-.1l-.1-.1c-.2-.4-.4-.2-.7-.5l-.1-.1v-.2-.2c0-.1 0-.1-.1-.1s-.2.2-.2.2-.1-.2-.2-.3c0-.1-.1-.2-.2-.2-.1-.1-.2-.1-.4-.1s-.2.1-.4.1c-.2-.1-.3-.2-.4.1-.1.1-.1.2-.2.3h-.2c-.2-.1-.3-.2-.5-.2h-.2c-.1.1-.1.2-.2.3 0 .1-.1.1-.1.1-.1 0-.1-.1-.2-.1-.1-.1-.2.1-.2.1 0 .1-.1.2-.2.2l-.2.2-.5-2.7zM447.3 140c-.1 0-.2.1-.3.1H446.4c-.1 0-.2 0-.2.1s-.1.2-.2.2h-.2c-.2-.1-.3-.2-.4-.2-.1 0-.2.1-.3.2-.2.2-.4.4-.7.6-.1.1-.2.1-.3.2-.2 0-.2-.2-.3-.2-.1-.1-.2-.2-.3-.1-.2.1-.2.2-.4.2s-.5-.2-.7-.4c-.2-.2-.4-.3-.7-.4h-.4c-.2.1-.3.2-.4.1-.1-.1-.1-.4-.2-.5 0-.1-.2 0-.2.1 0 0-.1.1-.2.1h-.1c-.5-.2-.7-.7-1.2-.8-.1-.1-.2-.1-.3-.2-.1-.1-.2-.2-.2-.4s0-.3-.2-.4c-.1 0-.4.1-.5.1-.2-.2-.2-.6-.2-.8 0-.1-.1-.2-.2-.2-.1-.1-.2-.1-.3-.2l-.2-.2-.2-.2c-.2-.2-.2-.4-.2-.7 0-.2-.2-.4-.5-.5-.2-.1-.5-.2-.7-.4-.2-.2-.4-.3-.5-.6-.1-.1-.2-.2-.1-.3 0-.2.2-.3.2-.4 0-.1 0-.2-.1-.3l-.3-.3-.3-.3c-.1-.1-.1-.1-.1-.2v-.2c.1-.1.1-.2.2-.2v-.2c-.1-.1-.2-.2-.2-.3-.1-.1-.1-.2 0-.3.1-.2.3-.2.4-.4.1-.1 0-.2-.1-.3-.1-.1-.1-.2.2-.3.2-.1.2-.2 0-.3l-.2-.2c0-.1 0-.2.1-.2.2-.2.5-.4.5-.7 0-.1-.1-.2-.2-.4 0-.2.1-.2.2-.3.2-.1.2-.2.2-.3-.1-.2-.1-.3-.2-.4-.1-.2 0-.5.1-.7l2.8 1.3c0 .2-.1.3-.2.4-.1.1-.2.1-.3.2-.1.1 0 .2.2.3.2.2.2.2.1.2-.1.1-.2.1-.2.2 0 .2.2.4.4.6 0 .1.1.1 0 .1s-.2.1-.3.1c-.3.1-.2.2-.1.2.2.1.2.2 0 .2-.1 0-.2.1-.2.1-.1 0-.1.1 0 .2s.2.2.3.2c0 0 .1.1 0 .1 0 .1 0 .1-.1.2l-.2.2v.2c.1 0 .1.1.2.1.1.1.1.2.1.2-.1.1-.1.2-.2.3-.1.2-.2.4.1.5.2.1.3.1.5.1s.2.1.2.2c.1.2.1.3.1.5s-.1.5-.2.7c-.2.3-.2.6.2.5.1 0 .2 0 .3.1.1 0 .2.1.3.1.1 0 .2.1.2.2.1.1.1.2.1.2s-.1.3-.1.4c0 .2.1.2.2.2.2 0 .3-.1.5-.2s.3-.2.3-.1c.1.1-.2.6-.2.7 0 .2.2 0 .4-.2s.3-.2.4-.2c.1.1.1.2.1.2.2.4.5.4.7.7l.1.1v.4c0 .1 0 .1.1.1s.2-.2.3-.2c.1 0 .1.2.2.3 0 .1.1.2.2.2.1.1.2.1.2.2.1 0 .2.1.2.1h.6c.2.1.3.2.5-.1l.2-.2h.2c.2.1.3.2.6.2h.2c.1-.1.2-.2.2-.3s.1-.1.1-.1c.1 0 .1.1.2.1.1.1.2-.1.2-.2.1-.1.1-.2.2-.2.1-.1.2-.1.2-.2l1.1 2.5z"/></g><path fill="#DFE6EF" d="M527.3 46.8c-.2.3-.4.7-.7 1s-.5.7-.7.9c-.2.2-.5.7-.6 1.1 0 .2-.1.4-.2.6-.1.2-.2.3-.4.4-.2.2-.3.2-.5.4s-.2.2-.4.5-.4.7-.6 1.1c-.3.7-.7 1.5-1.2 2.1-.1.2-.2.3-.3.5-.2.2-.2.3-.4.4-.3.2-.7.5-1 .7-.2.2-.2.2-.4.5-.1.2-.2.3-.3.6-.2.3-.4.7-.7.9-.6.5-1.4.8-2.1 1.3-.3.2-.7.4-1 .7s-.6.5-.9.8c-.2.3-.5.7-.7 1-.2.2-.3.2-.6.2-.2.1-.4.1-.7.2-.1 0-.2.1-.2.1l-.2.2c-.1.1-.1.2-.2.3l-.2.2c-.3.2-.7.4-1 .6-.7.4-1.5.7-2.1 1.1-.7.3-1.4.7-2.1 1.1-.7.3-1.7-.1-2.4.5-.6.7-1.4.8-2.2.8s-1.6.2-2.3.5c-.7.3-1.5.6-2.3.7-.7.2-1.6.2-2.4.2h-1.2c-.4 0-.8.1-1.2.2-.4.1-.7.2-1.2.3s-.8.1-1.2.2c-.8.2-1.6.2-2.4.2-.4 0-.8-.1-1.2-.2-.4-.1-.7-.3-1.2-.4-.7-.2-1.6-.2-2.4-.2s-1.6-.1-2.4-.2c-.4-.2-.7-.4-1.1-.6-.4-.1-.7-.2-1.2-.2-3-1.1-5.8-2.6-8.6-4.1-.6-.5-1.3-.9-2.1-1.2-.4-.1-.7-.3-1.1-.5-.3-.2-.6-.6-.9-.8-.3-.2-.7-.5-1-.7-.4-.2-.7-.3-1.2-.5-.3-.2-.7-.5-1-.7-.3-.2-.7-.6-.9-.8l2.2-2.1c.2.2.6.5.8.7l.7.7c.2.2.5.6.7.8.2.2.6.5.9.7.2.1.4.1.6.2.2 0 .4.1.6.2.2.1.3.2.5.3l.4.4c.2.2.6.5.9.7.3.2.7.2 1.1.3.3.1.8.1 1.2.2.1 0 .2.1.2.1.1 0 .2.1.2.2.2.2.2.3.4.5.1.2.2.3.4.4s.3.2.6.2c.2 0 .4 0 .6.1s.3.2.5.2c.3.2.6.5.9.7.3.2.7.2 1.2.2.8-.1 1.5.3 2.1.7.3.2.7.4 1 .5.4.1.7.1 1.2.1.7.2 1.4.4 2.1.7.3.2.7.2 1.1.4.2.1.3.1.6.1h.6c.4-.1.7-.2 1.2-.2.3-.1.7 0 1.1 0 .3 0 .7.1 1.1.1.3.1.7.1 1.1.2.3.1.7.1 1.1.2.4.1.7.2 1.2.4.3.2.7.2 1.2.1.4-.1.7-.2 1.1-.4.3-.2.7-.2 1.1-.3.3-.1.7-.2 1.1-.3.3-.1.7-.2 1.1-.2.4-.1.7-.1 1.2 0 .4.1.7 0 1.2-.1.3-.2.7-.4 1-.7.2-.3.6-.6.9-.7.2-.1.3-.2.6-.1.2.1.5.2.7.2.2.1.4 0 .6-.1.2-.1.3-.2.4-.4.2-.2.2-.4.3-.6.1-.2.2-.2.4-.4.2-.1.3-.2.5-.2l.5-.2c.3-.1.7-.2 1.1-.3.3-.2.7-.3 1-.5.3-.2.7-.4 1-.6.3-.2.7-.3 1-.5.2-.1.4-.2.6-.1.2 0 .4-.1.5-.2.1-.2.2-.3.3-.5.1-.2.2-.2.4-.4.3-.2.7-.2 1.1-.4 1.4-.7 2.4-1.8 3.5-2.9.5-.6 1.2-.9 1.6-1.6.2-.3.3-.7.5-1.1.2-.3.4-.7.7-.9l.4-.4.4-.4.8-.8c.5-.6 1.1-1.1 1.2-1.9.1-.2.1-.3.2-.6.1-.2.2-.3.4-.4.2-.1.2-.2.3-.4.1-.2.2-.3.2-.5.2-.3.2-.7.4-1.1s.3-.7.5-1l2.4 1z"/><path fill="#DFE6EF" d="M467.2.2h3.5c-.1 0-.1.1-.2.1-.2.1-.4.2-.7.3-.6.2-1.1.6-1.6.9-.3.2-.7.6-.9.8-.2.3-.5.7-.7 1.1-.2.4-.4.7-.7 1.1-.2.2-.2.3-.4.5l-.4.5c-.5.7-1.7.7-2.2 1.4-.2.3-.5.7-.6 1.2-.2.4-.2.8-.4 1.2-.3.8-.9 1.4-1.3 2.1-.5.7-1 1.3-1.4 2.1-.8 1.5-1.5 3-2.1 4.5-.2.4-.3.7-.5 1.2-.1.2-.2.4-.2.6-.1.2-.2.3-.4.6-.5.7-.3 1.6-.4 2.5l-.3 1.2s-.3.8-.4 1.2c-.2.4-.2.8-.3 1.2-.1.4-.2.8-.2 1.2-.2 1.6-.2 3.4-.2 5.1l.1 1.2c.1.4.1.8.1 1.2 0 .8.1 1.7.2 2.6l.3 1.2c.2.4.3.8.5 1.2.2.8.4 1.6.7 2.4l.3 1.2.3 1.2c.2.8.5 1.6.8 2.4.2.4.3.7.6 1.2.2.3.5.7.7 1 .6.6 1.1 1.3 1.4 2.1.2.4.4.7.7 1.1.2.3.6.7.8.9.5.5 1 1.1 1.6 1.6.1.1.2.1.2.2.2.1.3.2.4.3.2.2.3.3.4.5 0 .1.1.1.1.2.1.2.2.4.2.7l-1.5.3-1.5.3c0 .1.1.2.1.2s-.1 0 0 0l-.5-.3c-.6-.7-1.2-1.4-1.6-2.1-.5-.8-1-1.5-1.6-2.2-.3-.3-.6-.7-.8-1.1-.2-.4-.4-.8-.5-1.2-.2-.4-.3-.9-.5-1.3s-.4-.8-.7-1.2c-.9-1.6-1.7-3.2-2.5-4.9-.3-.8-.6-1.7-.7-2.6-.1-.9-.1-1.8-.2-2.7-.1-.9-.4-1.7-.6-2.6-.2-.9-.2-1.8-.1-2.7l.3-2.7.2-1.3c.1-.4.1-.9.2-1.3.1-.9.2-1.8.2-2.6v-1.4c0-.4.1-.9.2-1.3.3-.8 1-1.6 1-2.6v-.7c0-.2.1-.4.2-.7.2-.4.3-.8.4-1.3.7-1.6 1.5-3.3 2.4-4.9.4-.8.9-1.6 1.3-2.3.2-.4.5-.7.7-1.2.2-.4.6-.7.8-1.1.7-.7 1.4-1.2 2-1.8s.9-1.6 1.5-2.2c.3-.3.7-.6 1-.9.3-.2.7-.5 1.1-.7.6-.3 1.1-.7 1.6-1.2.4-.5.5-.6.7-.7zM531.4 25.6v1.3c0 .4-.1.9-.1 1.3 0 .9-.2 1.8-.2 2.6-.2 1.7-.4 3.5-.7 5.3 0 .1 0 .2-.1.3-.1.7-.1 1.6-.4 2.4l-.6 1.2c-.2.4-.3.8-.5 1.2-.1.4-.2.9-.2 1.3 0 .2-.1.4-.2.7-.1.2-.1.4-.2.7l-.2.7c0 .1 0 .1-.1.2 0 .1-.1.2-.1.2-.1.2-.2.2-.2.4l-.3.5c0 .1-.1.1-.1.2V46v-.2-.2l-1.8.2-1.2.2v-.2-.2s0-.2.1-.2l.1-.2.1-.2c.1-.2.2-.3.2-.5.2-.2.2-.4.3-.6l.1-.2v-.2l.2-.6c.1-.2.2-.4.2-.6l.3-.6c.2-.3.4-.7.6-1.2.2-.4.2-.8.3-1.2.1-.4.1-.8.1-1.2l.3-1.2c.2-.4.2-.8.3-1.2l.3-1.2c.1-.3.1-.6.2-.9 0-.1 0-.2.1-.3.2-.8.2-1.6.2-2.5.1-1.6 0-3.4-.2-5s-.5-3.3-.7-4.9c-.3-1.6-.2-3.3-.7-4.9-.4-1.6-1.3-3.1-2.1-4.5s-1.6-2.9-2.5-4.3c-.8-1.4-1.9-2.7-3.2-3.8-.3-.2-.7-.6-1-.8-.3-.2-.7-.5-1-.7L515 .7c-.1-.1-.2-.1-.2-.2l-.2-.2h5.2l.2.2.2.2c.2.2.5.5.7.8 1.2 1.3 2.4 2.7 3.5 4.1 1.2 1.4 2.1 3 2.9 4.5.7 1.6 1.2 3.4 1.9 5s1.3 3.4 1.6 5.1c.1.4.2.9.2 1.3.1.4.1.9.1 1.3s.1.9.1 1.3c.2.6.3 1.1.2 1.5z"/></g></svg>