<svg xmlns="http://www.w3.org/2000/svg" xmlns:xlink="http://www.w3.org/1999/xlink" viewBox="0 0 968.693 637.736"><defs><path id="a" d="M-62.873.412H964.322v613.394H-62.873z"/></defs><clipPath id="b"><use xlink:href="#a" overflow="visible"/></clipPath><g clip-path="url(#b)"><path fill="#E8EAF2" d="M194.14-.217c17.937 13.022 36.885 24.72 56.06 35.903 19.17 11.227 38.958 21.37 58.958 31.02C349.164 86 390.363 102.87 432.59 116.684c21.114 6.898 42.46 13.088 64.002 18.51 21.545 5.412 43.286 10.04 65.166 13.896 43.78 7.57 88.15 11.878 132.59 12.41l16.663.067 16.662-.326c5.556-.046 11.1-.414 16.65-.647l8.324-.39c2.775-.13 5.54-.39 8.312-.577 22.188-1.336 44.235-4.316 66.192-7.617 43.918-6.76 87.177-17.506 129.36-31.404l15.754-5.408c2.618-.922 5.27-1.756 7.862-2.75l7.794-2.94c5.188-1.978 10.41-3.872 15.57-5.92l15.388-6.388c2.558-1.08 5.142-2.1 7.68-3.227l7.592-3.425 15.184-6.855 14.975-7.3 7.49-3.645c2.497-1.213 4.936-2.542 7.408-3.807l14.785-7.68c2.48-1.25 4.897-2.62 7.32-3.974l7.273-4.065 7.257-4.09c2.413-1.376 4.86-2.693 7.218-4.16l14.27-8.606 7.133-4.303 7.012-4.498 14.003-9.03 3.5-2.26 3.433-2.356 6.87-4.715 13.737-9.428.907 1.287-13.77 9.424-6.885 4.713-3.444 2.356-3.507 2.26-14.038 9.024-7.025 4.502-7.147 4.305-14.295 8.612c-2.364 1.467-4.815 2.786-7.232 4.16l-7.27 4.095-7.262 4.112c-2.418 1.374-4.828 2.763-7.304 4.034l-14.756 7.802c-2.467 1.285-4.902 2.634-7.396 3.868l-7.51 3.645-15.024 7.272-15.233 6.825-7.618 3.41c-2.546 1.122-5.138 2.138-7.704 3.21l-15.43 6.363c-5.17 2.06-10.397 3.967-15.593 5.957l-7.804 2.956c-2.597 1-5.25 1.84-7.874 2.768l-15.778 5.443c-42.36 13.627-85.65 24.502-129.652 31.3l-8.242 1.317-8.274 1.096-8.28 1.036c-2.762.344-5.52.7-8.293.934l-16.614 1.595c-5.538.523-11.09.897-16.634 1.354-2.775.2-5.545.473-8.323.616l-8.334.432c-5.557.26-11.11.66-16.675.735l-16.688.415c-5.564.01-11.13.002-16.694-.05-2.783.007-5.564-.088-8.344-.184l-8.342-.28c-2.78-.106-5.562-.162-8.34-.31l-8.333-.458c-5.555-.303-11.116-.538-16.66-1.025l-8.32-.64c-2.772-.228-5.55-.39-8.316-.705-22.172-1.977-44.215-5.16-66.158-8.842l-8.233-1.368-8.202-1.546-8.2-1.55c-2.74-.494-5.445-1.15-8.166-1.727-10.884-2.317-21.706-4.914-32.493-7.635-5.38-1.424-10.776-2.77-16.144-4.23-5.358-1.49-10.734-2.923-16.078-4.466-5.327-1.602-10.66-3.178-15.973-4.825l-15.883-5.112c-21.094-7.063-42.03-14.602-62.664-22.914-20.633-8.31-41.005-17.276-61.046-26.94-9.98-4.91-19.906-9.935-29.72-15.174-4.903-2.623-9.792-5.276-14.66-7.965-4.886-2.656-9.728-5.394-14.568-8.134-9.652-5.532-19.178-11.284-28.59-17.22-9.392-5.975-18.685-12.08-27.702-18.663l.947-1.26z"/><path fill="#E8EAF2" d="M8.618-.292c20.312 9.816 41.266 18.39 62.33 26.552 5.265 2.047 10.557 4.028 15.85 6.005 5.31 1.935 10.634 3.824 15.98 5.657 10.674 3.71 21.412 7.232 32.182 10.65 43.045 13.774 86.715 25.63 130.892 35.215 5.53 1.166 11.048 2.377 16.584 3.505L299.06 90.6l16.66 3.13 16.7 2.912c22.293 3.74 44.676 6.932 67.12 9.615 5.613.668 11.223 1.355 16.85 1.87 5.626.54 11.244 1.165 16.876 1.634l16.893 1.442 16.91 1.196c22.558 1.475 45.154 2.4 67.76 2.646 22.606.2 45.215-.108 67.805-.992l16.934-.85c5.645-.267 11.275-.785 16.912-1.178 5.636-.42 11.273-.817 16.897-1.378l16.883-1.52c11.23-1.266 22.482-2.344 33.678-3.897l8.407-1.09 4.203-.544 4.192-.622 16.763-2.515c2.798-.396 5.58-.893 8.364-1.368l8.353-1.43 8.353-1.43c2.788-.46 5.552-1.05 8.328-1.57l16.642-3.213 16.574-3.547c88.394-18.927 174.465-48.677 255.766-88.2l.687 1.417c-20.44 9.708-40.986 19.22-61.947 27.76l-7.843 3.243c-2.617 1.073-5.217 2.192-7.867 3.183l-15.834 6.116c-2.645 1.002-5.26 2.085-7.922 3.044l-7.978 2.897-15.96 5.782-16.1 5.387-8.057 2.666-8.117 2.484-16.234 4.962-16.34 4.605-8.17 2.296-8.215 2.13-16.435 4.246-16.52 3.893-8.263 1.94-8.302 1.764c-22.1 4.893-44.43 8.634-66.745 12.36l-16.782 2.53-4.197.626-4.208.548-8.415 1.096c-11.208 1.562-22.474 2.65-33.717 3.925-45.068 4.172-90.33 6.222-135.596 5.894l-16.97-.397-4.24-.103-4.24-.174-8.48-.318-8.482-.3-8.475-.438-8.475-.44-4.238-.22-4.233-.29c-22.593-1.356-45.118-3.618-67.605-6.13l-8.436-.93-8.42-1.052c-5.612-.726-11.236-1.356-16.824-2.248-5.593-.854-11.198-1.625-16.78-2.548l-16.747-2.753-16.716-2.93-16.687-3.094-16.632-3.368c-5.537-1.15-11.058-2.384-16.588-3.572-22.073-4.96-44.092-10.168-65.955-15.992-21.86-5.833-43.583-12.18-65.14-19.053-21.53-6.96-42.832-14.604-64.016-22.554C59.85 23.586 49.35 19.373 38.91 15 28.48 10.606 18.123 6.07 7.913 1.115l.706-1.408zM877.468 143.29c5.298 6.292 10.39 12.755 15.934 18.842 5.33 6.265 10.47 12.688 15.73 19.013 2.63 3.16 5.218 6.357 7.814 9.548 2.604 3.184 5.188 6.383 7.757 9.597 2.64 3.153 5.278 6.31 7.87 9.5l3.908 4.776 3.988 4.708-.85.266 1.11-11.886c.204-1.98.27-3.97.396-5.957.09-1.99.3-3.968.444-5.953l1.92-23.8c.383-3.96.854-7.913 1.147-11.882.35-3.964.61-7.936 1.04-11.892.203-1.98.438-3.956.617-5.938l.483-5.95.924-11.903 1.568.137-.998 11.896-.5 5.948-.4 5.958c-.118 1.987-.326 3.966-.515 5.947l-.59 5.94c-.418 3.958-.757 7.923-1.134 11.884-.388 3.96-.9 7.91-1.17 11.88l-.913 11.904c-.175 1.982-.26 3.972-.508 5.947-.275 1.974-.6 3.943-.673 5.934l-.773 11.916-.162 2.49-1.6-1.938c-1.31-1.586-2.59-3.194-3.867-4.808-1.302-1.59-2.647-3.147-3.97-4.723l-3.95-4.737c-1.297-1.596-2.577-3.206-3.907-4.774l-4.06-4.648-3.833-4.836-1.906-2.427-1.978-2.37c-1.322-1.574-2.555-3.223-3.837-4.832-5.056-6.494-10.59-12.59-15.894-18.875-5.113-6.446-10.586-12.59-15.87-18.894l1.208-1.01zM784.178 160.16l-34.973 93.42-40.996-89.498M1023.152 97.08l77.563 68.686L1096.7 61.02"/><path fill="#E8EAF2" d="M990.298 32.484l.636 98.44-71.466-72.196M857.2 77.903L843.934 178.02l-58.567-83.94M690.304 109.617c-2.303 8.053-4.904 16.02-6.9 24.163-2.28 8.06-4.774 16.058-7.15 24.09-1.184 4.018-2.4 8.026-3.633 12.028l-3.7 12.008-3.58 12.044c-1.223 4.006-2.45 8.01-3.565 12.048l-.33 1.19-.545-1.114-5.538-11.302c-1.77-3.805-3.94-7.412-5.75-11.197l-11.334-22.477c-1.83-3.775-3.577-7.592-5.477-11.332-1.862-3.76-3.79-7.486-5.594-11.274l-2.697-5.687-2.828-5.622-5.69-11.226 1.41-.698 5.624 11.26 2.812 5.63 2.905 5.583c1.91 3.736 3.694 7.534 5.514 11.314 1.8 3.79 3.67 7.545 5.503 11.32 3.483 7.637 7.414 15.054 11.183 22.55 2.047 3.668 3.394 7.682 5.477 11.333 1.912 3.735 3.94 7.413 5.78 11.182l-1.82.16c.594-2.01 1.29-3.987 1.86-6.002l1.73-6.04c.598-2.006 1.167-4.02 1.79-6.02.61-2.005 1.263-3.995 1.77-6.03.548-2.02 1.05-4.055 1.684-6.052l1.923-5.983c.677-1.984 1.22-4.006 1.82-6.013l1.925-5.982c2.578-7.973 4.613-16.105 6.927-24.155l1.843-6.006c.635-1.997 1.2-4.014 1.72-6.043l3.416-12.092 1.514.442zM97.49 38.46l-3.012 95.475 63.566-74.92M237.867 29.563c-1.336 7.86-2.97 15.666-3.993 23.58-1.31 7.865-2.842 15.69-4.25 23.537-.698 3.924-1.435 7.842-2.184 11.758-.737 3.918-1.48 7.834-2.256 11.745l-2.125 11.768-1.105 5.877c-.36 1.96-.67 3.93-1.007 5.894l-.792-.424 8.674-8.17c2.937-2.674 5.592-5.645 8.506-8.344l17.148-16.548c2.9-2.713 5.87-5.353 8.717-8.123 2.88-2.736 5.705-5.527 8.63-8.215l4.39-4.028 4.29-4.133 8.555-8.295 1.084 1.14-8.607 8.242-4.303 4.12-4.232 4.195c-2.84 2.778-5.778 5.45-8.69 8.153-2.926 2.686-5.796 5.43-8.698 8.143-5.94 5.28-11.544 10.914-17.263 16.427-1.43 1.38-2.824 2.794-4.357 4.063-1.548 1.254-2.963 2.648-4.364 4.056-2.837 2.78-5.6 5.638-8.478 8.374l-2.19 2.08.54-2.966c.358-1.96.8-3.907 1.143-5.87l1.003-5.895 1.062-5.884c.365-1.96.786-3.91 1.053-5.887.302-1.97.568-3.948.947-5.904l1.2-5.86c.437-1.948.748-3.917 1.1-5.88l1.2-5.858c1.623-7.81 2.68-15.718 4.025-23.576 1.596-7.814 2.7-15.714 4.075-23.567l1.552.273zM288.604 89.6l15.085 96.174 51.803-83.182M457.892 125.45l5.02 99.15 59.558-81.895"/></g><path fill="#E8EAF2" d="M834.552 437.26c1.278-.635 2.52-1.336 3.747-2.074 1.353-.57 2.157-1.9 3.196-2.845.996-1.01 2.06-1.942 3.016-2.992.975-1.032 1.877-2.138 2.667-3.32l1.038-1.557 1.058 1.52c.967 1.387 1.793 2.87 2.637 4.33.882 1.443 1.48 3.048 2.407 4.455.445.716.798 1.483 1.187 2.23.357.763.705 1.53 1.084 2.28.397.74.83 1.466 1.182 2.23l1.007 2.314.27.625-.603.23c-.615.235-1.21.52-1.796.82-.586.303-1.06.81-1.612 1.156-1.107.7-2.17 1.46-3.193 2.264-1.022.805-2.017 1.65-2.903 2.6-.455.462-.89.94-1.347 1.4-.452.463-.935.9-1.394 1.36l-.924.932-.703-.895c-.784-.998-1.695-1.88-2.518-2.845l-1.24-1.442c-.395-.495-.73-1.037-1.063-1.58-.33-.544-.715-1.045-1.104-1.544-.373-.51-.77-1.004-1.16-1.504-.778-1-1.536-2.018-2.27-3.054l1.988-1.273c.682 1.027 1.395 2.034 2.115 3.035.36.5.722 1 1.105 1.484.375.488.76.97 1.202 1.406.918.845 1.65 1.827 2.39 2.812.748.978 1.48 1.975 2.316 2.88l-1.96.043c.46-.523.938-1.028 1.426-1.524.5-.483 1.05-.914 1.59-1.35.56-.416 1.07-.878 1.582-1.344l1.57-1.362c1.052-.91 2.177-1.74 3.383-2.44.603-.357 1.38-.374 1.982-.71.604-.338 1.22-.65 1.817-1.02l-.62 1.603c-.44-.708-.908-1.4-1.304-2.123-.45-.696-.636-1.524-.966-2.284-.36-.743-.78-1.456-1.2-2.167-.378-.735-.817-1.434-1.16-2.19-.57-1.584-2.048-2.617-2.602-4.212-.352-.753-.648-1.55-1.132-2.22-.518-.65-.88-1.402-1.257-2.15l1.537-.028c-1.048 1.135-1.94 2.34-2.856 3.556-.93 1.198-1.9 2.392-3.023 3.43-1.104 1.078-2.577 1.648-3.665 2.745-1.212.935-2.523 1.748-3.896 2.436l-1.028-2.126zM846.05 349.52c2.187-.592 4.228-1.69 6.058-3.085.402-.418.78-.855 1.147-1.295.323-.484.668-.937 1.013-1.387l.975-1.395.908-1.438c1.14-1.958 2.01-4.117 2.344-6.375.324-2.248.325-4.564-.242-6.786l.566.648c-.495-.255-1.073-.322-1.698-.182-.608.156-1.26.494-1.71 1.03-.475.517-.762 1.17-.926 1.798-.16.64-.075 1.276.214 1.842l-.278-.267c.802.408 1.66.828 2.587.795.455.056.91-.057 1.364-.103.227-.035.447-.123.67-.18.222-.058.452-.09.668-.19 1.762-.624 3.416-1.77 4.717-3.23 1.1-1.642 2.286-3.18 3.125-4.942.84-1.698 1.555-3.646 2.312-5.548.74-1.922 1.78-3.75 3.006-5.48 1.164-1.753 2.54-3.495 4.427-4.75l.348-.238.385-.183c.257-.118.51-.245.773-.35.55-.15 1.086-.336 1.64-.423.555-.084 1.074-.224 1.72-.248.612 0 1.208.083 1.778.238 1.135.316 2.223.853 3.09 1.826.423.482.815 1.09.945 1.856.143.758-.024 1.577-.37 2.228l-2.043-1.182c.117-.255.153-.46.116-.686-.027-.225-.183-.496-.408-.753-.443-.526-1.2-.956-1.95-1.175-1.45-.524-3.192.422-4.585 1.32-1.456.91-2.79 2.235-3.872 3.82-1.06 1.597-1.95 3.355-2.93 5.105-.975 1.773-1.478 3.7-2.416 5.675-.44.975-.978 1.905-1.593 2.784-.29.45-.62.88-.988 1.27-.385.38-.85.688-1.253 1.04-1.54 1.454-3.043 3.122-5.23 4.068-.528.254-1.13.39-1.72.495-.617.017-1.22.058-1.83-.056-1.222-.085-2.387-.47-3.478-.968l-.27-.123-.245-.37c-.655-.99-.782-2.284-.548-3.352.217-1.095.825-1.99 1.513-2.732.707-.727 1.476-1.438 2.52-1.882.263-.103.544-.18.824-.242.292-.032.59-.063.886-.062.3.042.6.09.89.152.284.098.567.202.833.33l.695.337.07.54c.342 2.63.76 5.264.016 7.78-.638 2.473-1.245 4.927-2.39 7.228l-.918 1.686-1.107 1.577c-.437.474-.883.938-1.35 1.38-.5.405-1 .807-1.477 1.232-1.856 1.77-4.163 3.14-6.693 3.854l-.62-2.277zM653.143 235.068c.286-.503.56-1.02.91-1.484l.585-.66c.192-.224.387-.444.65-.593.53-.286.958-.664 1.45-1 .238-.175.464-.4.728-.537.26-.155.54-.27.814-.404.565-.22 1.166-.31 1.76-.382.594.01 1.198-.033 1.775.09.584.085 1.157.202 1.703.408.56.16 1.083.407 1.605.652.526.235.99.59 1.48.892.417.405.873.757 1.233 1.207.36.45.74.876 1 1.392.144.245.275.498.392.754l.273.805c.196.525.334 1.058.488 1.596.098.268.112.54.132.807l.067.803c-.037.547-.014 1.083-.113 1.626-.057.27-.033.543-.084.815l-.146.82c-.29 1.084-.95 2.062-1.753 2.834-.838.69-1.6 1.682-2.736 1.98-1.067.402-2.2.575-3.32.563-1.113-.05-2.255-.104-3.323-.488-1.064-.402-1.962-1.11-2.9-1.72-.914-.65-1.814-1.436-2.35-2.487-.134-.26-.237-.535-.314-.82-.078-.28-.202-.54-.264-.823-.21-.54-.294-1.106-.423-1.67-.175-1.14-.11-2.297.098-3.417l2.28.62c-.19.87-.25 1.733-.17 2.564.066.41.16.814.317 1.194.164.378.43.704.705 1 .47.636.93 1.316 1.57 1.9.63.593 1.445.974 2.26 1.314.2.102.408.19.617.276.208.09.416.197.636.255.22.057.442.118.668.136l.68.02c.908-.012 1.77-.285 2.547-.57.203-.056.382-.155.566-.242.19-.08.386-.123.61-.15.483.007.793-.326 1.03-.654.498-.682.605-1.49.85-2.22.056-.19.156-.373.25-.564.084-.193.113-.41.133-.622.07-.42-.05-.873-.054-1.304-.06-.436-.09-.915-.166-1.32-.074-.408-.05-.874-.356-1.207l-.388-.505c-.144-.156-.265-.32-.35-.51-.18-.375-.363-.768-.59-1.154-.196-.423-.63-.608-.95-.908-.174-.135-.34-.286-.513-.436-.167-.16-.33-.34-.528-.455-.375-.277-.792-.51-1.25-.6-.44-.162-.914-.166-1.373-.174-.46-.04-.913.084-1.355.116-.43.136-.865.207-1.27.354-.41.125-.853.18-1.253.366-.193.1-.423.15-.583.306-.172.14-.293.343-.436.504-.315.292-.53.685-.804 1.007-.222.37-.396.772-.624 1.136l-2.123-1.032zM900.654 521.366c.597 1.352.7 2.938 1.87 4.037.416.62.706 1.298.998 1.98.335.66.643 1.34 1.007 1.988l.58.953.524.996c.398.63.78 1.28 1.133 1.96.185.333.465.59.71.875.256.277.462.595.696.892.453.604.925 1.202 1.518 1.677.57.497 1.052 1.084 1.595 1.61.51.57 1.403.68 1.935 1.207.64.4 1.266.81 1.883 1.23.627.41 1.34.68 1.953 1.1.627.395 1.164.963 1.847 1.273.684.307 1.398.538 2.03.948 1.2.98 2.766 1.144 4.188 1.543l-.717 2.25c-.753-.243-1.515-.47-2.264-.73-.366-.157-.742-.282-1.114-.423-.376-.128-.792-.172-1.186-.27-1.473-.633-2.72-1.683-4.083-2.477-.313-.247-.593-.544-.89-.81-.3-.258-.647-.45-.993-.642-.66-.43-1.394-.767-2.052-1.214-.305-.25-.678-.425-.84-.85-.154-.432-.492-.637-.833-.847-.66-.44-1.458-.756-2.014-1.33-.234-.33-.4-.72-.686-.994-.273-.287-.584-.54-.867-.82-.246-.31-.524-.596-.74-.93-.222-.334-.41-.69-.746-.928-.315-.255-.672-.483-.844-.852-.222-.332-.328-.747-.496-1.11-.078-.188-.146-.38-.257-.544-.116-.16-.253-.305-.343-.482-.175-.358-.302-.745-.433-1.125-.228-.782-.67-1.42-1.152-2.05-.422-.662-.92-1.292-1.296-1.988-.315-.73-.3-1.585-.897-2.19-.35-.71-.683-1.432-.97-2.17l2.244-.74zM812.59 26.73c.15.536.26 1.087.34 1.635-.224.586.313 1.07.454 1.642.088.56.005 1.13-.06 1.687-.124.55-.28 1.088-.382 1.63-.29 1.07-.79 2.07-1.436 2.947-.18.21-.27.46-.378.704-.108.244-.26.465-.406.685-.366.4-.715.79-.905 1.302-.308.43-.722.775-1.06 1.174-.443.297-.47 1.01-.884 1.362-.368.393-.772.753-1.167 1.128-.446.304-.815.74-1.284 1.03-.507.232-1.095.273-1.55.58-.497.22-.982.51-1.525.618-.29-.004-.58-.04-.846.012-.266.05-.527.13-.79.225l-1.632.35-.045-2.36c.45-.064.89-.144 1.336-.184.218-.053.435-.113.646-.194.212-.08.4-.243.594-.354.392-.22.84-.254 1.298-.327.435-.128.834-.347 1.263-.508.21-.096.45-.142.677-.22.228-.078.403-.236.582-.384.318-.353.585-.754.898-1.086.158-.168.253-.393.57-.404.328-.004.454-.214.573-.42.198-.454.234-1.004.548-1.332.165-.16.426-.26.528-.47.13-.19.2-.417.32-.61.102-.205.203-.41.344-.595.153-.177.334-.35.35-.594-.008-.256-.055-.518.092-.702.116-.197.344-.356.513-.544.07-.098.15-.194.176-.307.024-.114.018-.236.07-.34.115-.21.28-.41.443-.616.284-.423.273-.92.25-1.392-.058-.48-.206-.944-.21-1.4.318-.958-.366-1.81-.564-2.663l2.26-.7zM19.2 52.414c.152.535.26 1.086.34 1.634-.223.586.313 1.07.454 1.642.088.56.005 1.13-.06 1.687-.124.55-.28 1.088-.382 1.63-.29 1.07-.79 2.07-1.436 2.947-.18.21-.27.46-.378.703-.108.244-.26.465-.406.685-.366.4-.716.792-.905 1.303-.307.43-.722.775-1.06 1.174-.443.296-.47 1.01-.885 1.36-.368.394-.772.754-1.167 1.13-.446.303-.815.74-1.284 1.03-.506.23-1.094.272-1.548.58-.498.22-.983.51-1.526.617-.29-.004-.58-.04-.846.012-.268.05-.528.13-.79.224l-1.633.35-.045-2.36c.45-.065.89-.145 1.336-.185.22-.054.436-.114.648-.195s.4-.243.594-.354c.392-.22.842-.253 1.298-.326.436-.13.834-.348 1.263-.51.21-.095.45-.14.677-.22.228-.077.403-.235.582-.383.32-.352.585-.753.9-1.085.157-.168.252-.393.57-.404.327-.003.453-.213.572-.418.197-.455.233-1.005.547-1.333.163-.16.425-.26.527-.47.13-.19.2-.418.32-.61.102-.206.203-.41.344-.596.154-.178.335-.35.352-.595-.01-.257-.056-.52.09-.703.117-.197.345-.356.514-.544.07-.098.15-.194.176-.307.023-.114.017-.236.07-.34.114-.21.28-.41.442-.616.284-.423.273-.92.25-1.392-.058-.48-.205-.944-.21-1.4.318-.958-.366-1.81-.564-2.662l2.26-.702zM586.354 53.208c-.048.248-.115.49-.19.73-.052.247-.074.498-.156.744-.034.124-.11.248-.107.378.01.13.038.26.077.386.12.256.244.5.323.74.248.96.262 2.008.68 2.988.21.482.412.972.617 1.478l.73 1.49c.133.248.34.437.535.63.207.185.364.418.554.622.183.21.36.43.557.63.198.2.457.322.693.47.473.3.886.7 1.368 1 .44.386 1.172.213 1.644.513l1.603.544c.53.203 1.116.236 1.647.426.528.2 1.01.58 1.584.666.563.123 1.146.158 1.685.378.266.13.524.296.804.37.28.073.568.118.86.145l1.755.17-.496 2.31c-.58-.104-1.164-.19-1.743-.312-.29-.066-.585-.102-.878-.15-.297-.04-.616.01-.922.002-.6-.07-1.154-.343-1.715-.576-.554-.26-1.143-.405-1.704-.644-1.012-.793-2.27-.857-3.452-1.287-.28-.134-.607-.184-.78-.522-.165-.352-.46-.45-.76-.55-.595-.203-1.3-.286-1.8-.69-.376-.585-.897-.943-1.416-1.333-.222-.233-.46-.45-.658-.706-.178-.275-.32-.57-.606-.748-.283-.18-.584-.362-.726-.66-.16-.285-.207-.646-.31-.956-.058-.152-.087-.32-.17-.456-.085-.134-.194-.255-.252-.405-.108-.304-.14-.645-.186-.967-.03-.33-.106-.634-.233-.918-.098-.295-.236-.578-.374-.866-.24-.585-.518-1.19-.608-1.84-.06-.664.296-1.29.044-1.96-.013-.66.057-1.33.233-1.98l2.25.714zM365.944 33.702c.185.618.458 1.203.827 1.743.385.532.863 1.012 1.398 1.448.554.414 1.126.84 1.746 1.227.64.354 1.35.58 2.074.76l4.475.925c1.543.382 3.12.84 4.667 1.508 1.54.667 3.076 1.577 4.338 2.887.64.66 1.15 1.38 1.568 2.27.467.928.54 1.966.442 2.908-.23 1.898-1.136 3.556-2.526 4.78-.682.617-1.6 1.074-2.616 1.173-1.03.128-2.05-.29-2.817-.858l-.058-.042-.05-.06c-.756-.91-1.332-2.02-1.477-3.21-.193-1.183.04-2.355.41-3.417.36-1.076.93-2.042 1.555-2.958.624-.92 1.422-1.727 2.344-2.357.9-.665 1.946-1.12 3.02-1.44 1.102-.35 2.18-.322 3.28-.428 1.097-.133 2.22-.1 3.294.134 1.083.198 2.13.518 3.154.876 2.05.728 3.945 1.74 5.814 2.74.94.492 1.844 1.036 2.738 1.556l2.606 1.662c1.72 1.12 3.613 1.887 5.492 2.487.948.28 1.905.462 2.854.662.95.192 1.927.31 2.893.202l-.698.436c.344-.58.656-1.17.81-1.744.153-.578.124-1.074-.064-1.353-.032-.06-.138-.19-.117-.14l.045.04c.02.005-.134.03-.275.138-.142.09-.27.277-.25.275.033-.024.07-.16-.013-.415-.073-.106-.08-.172-.167-.22-.017-.028-.028-.042-.052-.042l-.86 2.2c-.185-.086-.362-.177-.535-.298-.198-.19-.392-.347-.513-.64-.288-.59-.148-1.127-.014-1.495.316-.686.734-1.037 1.21-1.348.48-.282 1.074-.53 1.87-.41.384.06.814.26 1.092.535.333.308.427.495.585.765.572 1.078.42 2.224.17 3.052-.266.856-.636 1.585-1.035 2.263l-.315.534-.65.07c-1.14.126-2.292.216-3.445.155-1.148-.086-2.25-.403-3.31-.753-2.13-.715-4.016-1.824-5.884-2.852-.92-.538-1.83-1.084-2.71-1.66-.868-.6-1.705-1.208-2.567-1.77-1.753-1.075-3.62-1.93-5.51-2.547-.948-.294-1.89-.574-2.834-.76-.47-.106-.947-.142-1.41-.262-.465-.12-.934-.26-1.414-.33-.48-.077-.962-.005-1.432.072l-.702.13c-.218.062-.425.152-.635.225-.827.343-1.585.833-2.26 1.424-.673.59-1.302 1.217-1.93 1.87-.636.652-1.062 1.488-1.29 2.328-.075.21-.122.42-.145.632-.022.21-.096.422-.082.63l-.04.618.057.6c.15.772.393 1.524.902 2.173l-.17-.16c.39.328.828.376 1.212.228.385-.145.822-.377 1.28-.742.887-.69 1.852-1.855 1.89-3.13-.027-.613.01-1.217-.2-1.77-.2-.59-.565-1.24-1.008-1.778-.91-1.1-2.256-1.837-3.665-2.33-1.418-.497-2.913-.822-4.437-1.11-.752-.164-1.53-.293-2.317-.512-.78-.21-1.54-.514-2.293-.828l-2.255-1c-.766-.328-1.54-.697-2.224-1.234-.688-.53-1.337-1.142-1.885-1.865-.537-.734-.957-1.566-1.236-2.446l2.28-.628zM146.32 209.756c.745 2.338 1.22 4.77 1.284 7.215-.128 2.435.155 4.887-.222 7.342-.8 4.883-3.184 9.416-6.362 13.154l-.603.7c-.23.23-.448.474-.688.69-.475.435-.963.85-1.483 1.213-1.043.723-2.152 1.32-3.303 1.806-2.297.952-4.83 1.527-7.408 1.097-.64-.108-1.273-.3-1.898-.53-.61-.278-1.214-.61-1.72-1.083-1.043-.93-1.573-2.277-1.786-3.535-.195-1.283-.078-2.535.12-3.737.228-1.194.41-2.512 1.39-3.62.463-.555 1.215-.965 1.976-1.01.758-.057 1.446.147 2.05.42 1.21.568 2.14 1.432 2.953 2.362.807.944 1.448 1.984 2.127 3.03.667 1.06 1.065 2.275 1.294 3.53.227 1.253.25 2.578-.028 3.88-.076.322-.18.64-.27.96-.128.307-.25.625-.39.922-.303.565-.6 1.137-.983 1.653-1.478 2.11-3.496 3.73-5.62 4.936-4.353 2.188-8.973 3.467-12.52 6.11-1.905 1.156-3.56 2.805-4.52 4.735-.476.955-.836 1.964-.89 2.973-.07 1.006.1 1.99.466 2.914l-2.204.85c-.48-1.27-.68-2.666-.543-4.023.115-1.37.608-2.637 1.22-3.78.618-1.15 1.38-2.186 2.236-3.112.817-.967 1.714-1.855 2.685-2.656 1.976-1.564 4.387-2.54 6.544-3.37 2.206-.837 4.325-1.753 6.31-2.802 1.013-.49 1.968-1.054 2.865-1.69.897-.64 1.622-1.46 2.222-2.336.32-.43.553-.906.787-1.38l.265-.697c.055-.244.126-.48.175-.723.187-.98.123-2-.042-3.01-.167-1.024-.587-1.98-.84-3.032-.156-.517-.34-1.038-.64-1.49-.31-.443-.65-.864-1.02-1.25-.732-.758-1.633-1.38-2.46-1.64-.41-.12-.778-.176-1.02-.124-.236.066-.36.157-.577.357-.456.37-.932 1.363-1.04 2.4-.16 1.064-.168 2.132.026 3.073.166.95.56 1.74 1.137 2.338.575.594 1.447 1.038 2.44 1.068.492.022.997-.03 1.502-.105.506-.06 1.014-.143 1.535-.22 1.03-.188 2.11-.37 3.14-.748.512-.195 1.027-.398 1.5-.678.468-.286.91-.608 1.357-.918.93-.6 1.762-1.227 2.542-2.086 1.615-1.613 2.813-3.617 3.687-5.72.89-2.104 1.467-4.316 1.864-6.54.44-2.2.946-4.488.536-6.75-.23-2.253-.642-4.48-1.4-6.594l2.245-.74zM130.337 462.645c.11.755-.32 1.617.408 2.286.195.353.218.734.27 1.122.094.375.154.77.278 1.143l.22.55c.06.19.096.396.16.59.16.368.297.757.4 1.183.07.2.226.345.36.5.138.154.235.34.34.52.21.362.44.727.805.948.328.255.564.612.867.903.27.34.894.196 1.186.476.383.158.742.344 1.105.518.365.172.796.19 1.145.375.357.157.66.5 1.062.568.4.062.805.044 1.174.217.73.528 1.594.152 2.348.057l.146 2.357c-.482.023-.97.065-1.457.067-.242-.022-.483-.042-.73-.038-.244.003-.504.09-.762.126-.494-.04-.952-.272-1.4-.47-.433-.243-.894-.383-1.328-.596-.698-.784-1.672-.88-2.568-1.295-.194-.138-.442-.21-.504-.526-.052-.328-.274-.417-.5-.515-.43-.21-1-.3-1.336-.654-.13-.214-.172-.504-.354-.66-.16-.178-.37-.31-.535-.486-.15-.186-.298-.377-.41-.593-.103-.223-.18-.46-.403-.594-.215-.14-.456-.277-.525-.52-.096-.226-.09-.51-.137-.755-.024-.122-.023-.257-.08-.36s-.145-.193-.176-.31c-.054-.238-.06-.495-.068-.745.033-.52-.195-.915-.448-1.326-.185-.43-.453-.853-.586-1.313-.07-.482.235-.985-.137-1.426-.093-.47-.167-.955-.187-1.44l2.36.115zM926.73 370.61c.11.756-.32 1.618.407 2.287.195.352.218.734.27 1.12.094.376.154.77.278 1.144l.22.55c.062.19.096.397.16.59.16.37.297.758.4 1.184.072.2.226.345.36.5.138.154.234.34.34.52.21.362.44.727.806.948.33.255.565.612.868.903.27.34.894.197 1.186.477.382.158.74.344 1.104.518.365.172.796.19 1.145.375.357.158.66.502 1.062.57.4.06.805.043 1.173.216.73.53 1.594.153 2.348.058l.146 2.357c-.482.024-.97.066-1.457.068-.24-.022-.483-.042-.73-.038-.244.004-.504.09-.762.127-.494-.04-.953-.272-1.4-.47-.434-.242-.895-.382-1.33-.595-.697-.784-1.67-.88-2.567-1.295-.194-.138-.442-.21-.504-.526-.052-.327-.274-.416-.5-.514-.43-.21-1-.3-1.336-.654-.128-.215-.172-.505-.354-.66-.16-.18-.37-.312-.535-.487-.15-.185-.298-.376-.41-.592-.103-.224-.18-.46-.403-.595-.215-.14-.456-.277-.525-.52-.097-.226-.09-.51-.137-.755-.024-.123-.023-.258-.08-.36s-.145-.194-.176-.31c-.054-.24-.06-.496-.068-.746.032-.52-.197-.915-.45-1.326-.184-.43-.452-.852-.585-1.312-.07-.482.235-.985-.137-1.426-.093-.47-.167-.956-.187-1.44l2.36.113zM174.06 567.442c.006-1.428.036-2.856.124-4.282.3-1.423-.24-2.86-.24-4.288-.076-1.43.044-2.855.103-4.283.084-1.428.163-2.855.204-4.282l.04-1.34 1.293.097 4.214.315c.704.05 1.41.067 2.115.123.706.052 1.414.108 2.12.108 1.412-.07 2.822-.14 4.24-.153 1.42.02 2.816-.258 4.22-.41l.735-.078.058.715c.128 1.592.14 3.195.43 4.77.238.78.388 1.568.474 2.362l.318 2.376c.193 1.586.377 3.172.625 4.752.107.792.203 1.585.208 2.386.01.802.01 1.604.1 2.398l.136 1.214-1.26-.078-3.277-.203c-.548-.027-1.094-.064-1.635-.157-.54-.1-1.08-.23-1.623-.292-2.177-.222-4.375-.206-6.563-.305l.197-2.353 3.276.216c1.09.085 2.182.168 3.277.2.548.012 1.102-.04 1.65-.05.55.004 1.094.058 1.638.118 1.087.13 2.17.302 3.256.453l-1.45 1.466c-.073-1.597-.306-3.18-.255-4.788.006-.803-.02-1.602-.148-2.392-.093-.793-.223-1.583-.362-2.37-.127-.79-.28-1.578-.36-2.372-.042-.397-.115-.79-.13-1.19-.01-.4.092-.812.13-1.217.008-1.605-.577-3.153-.824-4.733l1.635 1.316c-.705.186-1.436.164-2.165.127-.727-.013-1.44.11-2.158.178-1.434.185-2.883.186-4.327.154-.72.01-1.438.224-2.16.264-.723.038-1.446-.068-2.167-.19-.72-.12-1.437-.244-2.16-.206-.72.006-1.435-.143-2.147-.283l.973-.91c-.282 1.425-.29 2.853-.212 4.282.057 1.43.186 2.86.2 4.287.053 1.43-.413 2.85-.125 4.282.082 1.43.114 2.858.114 4.286l-2.358-.04zM535.752 202.314c1.355-.45 2.718-.878 4.097-1.252 1.443-.172 2.632-1.142 3.985-1.6 1.33-.528 2.72-.87 4.09-1.272 1.38-.377 2.756-.76 4.12-1.176l1.283-.392.322 1.256 1.05 4.094c.18.683.387 1.356.56 2.043.177.686.35 1.374.576 2.044.52 1.313 1.037 2.626 1.502 3.965.435 1.353 1.146 2.587 1.74 3.87l.31.67-.66.283c-1.468.63-2.983 1.154-4.384 1.933-.662.477-1.36.87-2.085 1.206l-2.15 1.062c-1.44.69-2.885 1.372-4.302 2.112-.716.355-1.436.7-2.194.96-.756.266-1.516.522-2.24.86l-1.105.52-.33-1.22-.856-3.17c-.148-.526-.288-1.055-.373-1.598-.08-.544-.126-1.096-.242-1.63-.485-2.135-1.203-4.212-1.81-6.317l2.293-.566.845 3.172c.268 1.06.54 2.12.86 3.17.163.522.39 1.03.573 1.548.172.52.296 1.054.412 1.59.226 1.07.41 2.152.612 3.23l-1.854-.906c1.49-.58 2.914-1.307 4.455-1.773.763-.25 1.512-.53 2.22-.903.72-.342 1.427-.718 2.13-1.102.708-.373 1.405-.77 2.13-1.1.364-.167.714-.362 1.088-.504.376-.138.8-.172 1.195-.264 1.522-.507 2.802-1.557 4.22-2.296l-.724 1.97c-.4-.608-.615-1.308-.812-2.01-.22-.693-.564-1.33-.86-1.99-.634-1.3-1.098-2.67-1.53-4.05-.24-.678-.673-1.29-.94-1.96-.268-.673-.4-1.393-.515-2.114-.115-.722-.228-1.44-.494-2.11-.238-.682-.325-1.408-.42-2.127l1.173.63c-1.44.19-2.794.638-4.123 1.17-1.336.51-2.65 1.09-3.998 1.56-1.337.508-2.832.52-4.097 1.253-1.328.535-2.67 1.023-4.024 1.48l-.718-2.25zM106.03 364.638c-.237-.896-.655-1.732-1.174-2.533-.37-.952-1.448-1.307-2.27-1.754-1.663-.952-3.396-1.853-5.46-2.08-.52-.09-1.036-.133-1.55-.19-.515-.07-1.024-.117-1.532-.143-1.003-.027-2 .037-2.804.322-.413.136-.658.447-.782.757-.122.316-.196.708-.135 1.156.035.447.17.93.367 1.392.19.468.515.882.814 1.303.608.84 1.217 1.712 1.955 2.483.673.846 1.796 1.196 2.574 1.9.863.612 1.75 1.186 2.655 1.71.894.544 1.89.88 2.81 1.268.905.394 1.833.893 2.738.835.44-.002.843-.104 1.142-.26.308-.15.51-.35.74-.623.24-.262.473-.65.564-1.1.045-.463.094-.945.018-1.445-.105-.994-.384-1.998-.67-2.997zm2.296-.56c.282 1.11.537 2.25.596 3.468.034.604.028 1.242-.047 1.897-.095.66-.172 1.396-.55 2.13-.38.724-1.126 1.332-1.896 1.627-.782.296-1.543.335-2.226.285-1.367-.13-2.535-.47-3.625-.956-.54-.255-1.03-.587-1.513-.904-.49-.307-.997-.568-1.502-.84-.995-.557-2.023-1.083-2.94-1.773-.45-.352-.958-.648-1.234-1.198-.16-.247-.295-.52-.51-.705l-.652-.558c-.89-.724-1.875-1.43-2.545-2.446-.298-.535-.485-1.13-.77-1.692-.268-.572-.563-1.162-.698-1.883-.106-.705-.128-1.575.278-2.377.4-.81 1.112-1.33 1.7-1.762.602-.434 1.248-.79 1.903-.825.646-.104 1.273.014 1.87.07.59.12 1.17.055 1.744.1.57.093 1.128.242 1.67.42 1.08.31 2.248.488 3.366.783 1.116.313 2.254.7 3.253 1.364.998.695 1.617 1.744 2.578 2.513.804.92 1.393 2.054 1.748 3.264zM56.573 547.492c.156.553.27 1.123.353 1.69-.224.604.313 1.108.456 1.698.086.58 0 1.17-.065 1.744-.13.568-.29 1.125-.397 1.685-.303 1.103-.822 2.136-1.484 3.045-.186.217-.28.475-.394.726-.114.252-.282.474-.423.708-.375.417-.738.82-.942 1.346-.322.443-.75.8-1.102 1.21-.46.306-.496 1.04-.938 1.39-.387.4-.794.785-1.21 1.163-.465.312-.853.755-1.34 1.05-.524.238-1.13.282-1.603.596-.517.22-1.022.515-1.584.622-.296-.002-.596-.04-.872.01-.277.05-.548.13-.82.224l-1.692.338-.02-2.362c.468-.06.93-.138 1.393-.175.228-.047.45-.13.675-.194.222-.078.42-.244.625-.352.41-.227.878-.258 1.35-.343.457-.12.87-.353 1.318-.516.216-.1.466-.15.7-.23.23-.09.42-.243.604-.4.347-.35.616-.777.96-1.103.166-.172.258-.414.585-.426.334-.01.468-.224.595-.435.21-.47.262-1.033.59-1.373.174-.163.43-.278.545-.49.132-.2.22-.426.34-.63.122-.205.212-.427.358-.62.158-.185.344-.364.366-.617-.003-.265-.046-.535.106-.727.12-.205.353-.372.526-.567.074-.1.15-.204.18-.32.025-.12.024-.244.078-.353.115-.218.285-.425.45-.64.29-.44.28-.955.267-1.445-.06-.498-.206-.982-.208-1.457-.048-.463.26-.992-.09-1.428-.197-.45-.37-.89-.49-1.34l2.253-.7zM371.605 210.666c-.632-1.236-1.063-2.563-1.3-3.917l-.14-1.02-.068-1.027c-.007-.686.073-1.367.17-2.04.176-1.344.33-2.707.732-4.047.395-1.338 1.088-2.59 1.96-3.71 1.794-2.21 4.284-3.735 6.928-4.526 2.64-.786 5.52-.95 8.19-.127l.68.21.147.6c.403 1.64.52 3.308.253 4.994-.143.84-.407 1.693-.893 2.47-.474.773-1.193 1.48-2.07 1.842-.432.182-.872.325-1.345.386-.47.043-.942.024-1.397-.066-.91-.184-1.704-.658-2.348-1.237-.647-.58-1.173-1.28-1.523-2.07-.327-.79-.564-1.59-.638-2.42-.184-1.64.008-3.318.633-4.813.62-1.493 1.51-2.844 2.578-4.027.53-.597 1.116-1.117 1.69-1.653.58-.522 1.105-1.122 1.708-1.62 1.212-.987 2.515-1.816 3.762-2.677 1.25-.86 2.494-1.683 3.615-2.616 1.144-.91 2.13-1.977 2.98-3.086 1.66-2.183 2.96-4.864 1.937-7.453-.4-1.265-1.194-2.384-2.176-3.11-.94-.702-2.236-1.268-3.29-.732-1.1.44-1.932 1.62-2.248 2.796-.15.596-.15 1.196.003 1.676.153.484.447.828.864 1.083l-1.256 2c-.883-.545-1.59-1.486-1.847-2.494-.27-1.007-.192-2.01.062-2.912.56-1.767 1.716-3.357 3.564-4.19.45-.222.966-.32 1.47-.423l.787-.053c.25.006.487.037.732.06.967.13 1.923.478 2.716 1.036 1.54 1.172 2.535 2.803 3 4.517.243.858.37 1.744.354 2.638-.002.875-.11 1.826-.368 2.635-.484 1.66-1.333 3.177-2.443 4.392-1.102 1.222-2.31 2.27-3.507 3.303-1.23 1.002-2.482 1.94-3.733 2.82-1.248.888-2.49 1.725-3.693 2.557-.63.376-1.325.67-1.888 1.13-.555.465-1.036 1.015-1.482 1.55-.852 1.115-1.423 2.403-1.86 3.65-.346 1.262-.875 2.5-.705 3.772.07.62.284 1.228.544 1.75.275.5.64.978 1.068 1.354.882.732 1.893 1.143 2.792.677.425-.226.684-.637.88-1.12.204-.48.4-1.04.535-1.658.274-1.234.403-2.702-.018-4.01l.775.758c-1.12-.222-2.244-.533-3.43-.577-1.18-.07-2.397.047-3.53.44-2.282.75-4.27 2.27-5.633 4.135-.697.928-1.233 1.958-1.732 3.01-.49 1.056-.884 2.2-.93 3.388l.018.885c.02.294.063.586.06.877l.084.87.143.86c.23 1.135.624 2.23 1.17 3.23l-2.095 1.08zM843.578 250.275c-.132.423-.306.832-.505 1.235-.426.316-.135.908-.224 1.365-.204.904-.832 1.642-1.28 2.457l-.374.596c-.14.19-.312.363-.455.55-.297.37-.633.713-1.02 1.008-.193.148-.312.35-.446.544-.138.19-.323.343-.496.5-.388.285-.773.546-1.048.945-.353.33-.807.526-1.217.76-.204.123-.422.208-.56.468-.146.245-.38.326-.587.463-.43.24-.894.414-1.368.567-.48.113-.953.354-1.467.376-.517.003-1.014-.232-1.52-.216-.506-.028-1.048-.037-1.525-.28-.432-.36-.867-.598-1.362-.8-.233-.124-.463-.262-.698-.398l-.65-.496 1.767-1.566.384.324c.145.085.28.18.414.276.15.075.293.16.456.204.173.03.363-.002.538-.016.327.032.614.223.955.35.34.125.705.114 1.073.14.186.013.383.106.58.127.2.022.385-.038.566-.11.36-.154.676-.408 1-.594.17-.083.302-.228.565-.117.27.113.422-.028.555-.174.266-.315.365-.777.66-.973.172-.088.43-.092.552-.246.138-.138.23-.32.36-.462.123-.152.252-.295.41-.42.16-.12.354-.226.395-.444.03-.226.037-.46.205-.584.138-.147.38-.23.562-.358.083-.07.186-.128.233-.22.046-.093.07-.198.138-.278.147-.155.344-.286.532-.426.385-.278.5-.704.59-1.132.11-.42.132-.876.276-1.28.157-.398.658-.67.518-1.19.075-.436.163-.868.298-1.286l2.22.81zM203.528 164.504c-.595-.245-1.178-.537-1.738-.848-.387-.59-1.172-.533-1.78-.84-.55-.355-.997-.85-1.44-1.322-.384-.527-.74-1.066-1.13-1.573-.692-1.075-1.16-2.275-1.416-3.498-.04-.314-.172-.59-.284-.876-.113-.286-.17-.59-.25-.884-.05-.62-.1-1.223-.348-1.797-.095-.603-.055-1.22-.106-1.822.11-.603-.38-1.213-.312-1.837.002-.62.037-1.244.08-1.87.132-.61.128-1.262.294-1.876.7-1.1.99-2.34 1.72-3.406.25-.22.523-.412.72-.656.2-.244.375-.508.545-.78l1.25-1.47 1.484 1.837c-.362.38-.71.765-1.084 1.12-.16.204-.29.434-.436.648-.135.224-.192.497-.295.73-.18.488-.535.865-.855 1.287-.274.448-.442.948-.677 1.423-.094.247-.248.482-.37.73-.11.25-.154.52-.18.787-.012.548.084 1.1.062 1.627.003.27.108.534-.116.8-.23.27-.176.548-.115.815.192.537.563 1.027.58 1.555 0 .266-.088.557-.01.815.057.262.164.51.233.768.07.257.18.5.227.766.034.27.044.555.22.772.206.205.448.382.495.65.08.252.054.56.092.847.028.137.064.27.135.385.08.11.18.205.232.33.1.254.152.544.216.836.17.553.603.93 1.012 1.288.458.317.962.554 1.364.898.432.284.694.89 1.296.922.525.145 1.025.3 1.502.506l-.816 2.214z"/><g><g fill="#3E4166"><path d="M782.707 615.31H300.284V297.166c0-7.34 5.95-13.293 13.293-13.293h455.837c7.34 0 13.293 5.95 13.293 13.293V615.31z"/><path d="M784.707 617.31H298.284V297.166c0-8.433 6.86-15.293 15.293-15.293h455.837c8.433 0 15.293 6.86 15.293 15.293V617.31zm-482.423-4h478.423V297.166c0-6.227-5.066-11.293-11.293-11.293H313.577c-6.227 0-11.293 5.066-11.293 11.293V613.31z"/></g><path fill="#2F3155" d="M303.066 623.038l479.64-.87v-103.46l-467.095 47.38"/><g fill="#C8D0E5"><path d="M834.203 635.44H248.788c-5.2 0-9.413-4.214-9.413-9.413h604.24c0 5.2-4.213 9.413-9.412 9.413z"/><path d="M834.203 637.44H248.788c-6.293 0-11.413-5.12-11.413-11.413v-2h608.24v2c0 6.293-5.12 11.413-11.412 11.413zm-592.554-9.413c.874 3.12 3.744 5.413 7.138 5.413h585.415c3.395 0 6.264-2.294 7.14-5.413H241.648z"/></g><g fill="#E1E4F1"><path d="M239.376 610.08h604.24v12.957h-604.24z"/><path d="M845.617 625.037h-608.24V608.08h608.24v16.957zm-604.24-4h600.24v-8.956h-600.24v8.957z"/></g><path fill="#FFF" d="M325.076 315.262h432.84v283.016h-432.84z"/><path fill="#F16B42" d="M636.197 315.262h121.72v283.016h-121.72zM324.392 315.262h121.72v283.016h-121.72zM482.352 438.733c10 19.76 22.778 38.11 37.843 54.343-6.265 4.456-12.53 8.91-18.794 13.367 1.044-.742 9.085 1.998 10.653 2.277 4.278.76 8.587 1.342 12.912 1.763 2.346.228 19.887-1.19 19.776.587l-1.404 22.315c1.582.348 3.188-.788 3.922-2.23s.8-3.123.852-4.742l.396-12.444c.02-.64.054-1.32.42-1.842.35-.5.944-.767 1.525-.955 6.087-1.96 14.4-.978 20.848-1.845 4.94-.664 9.856-1.507 14.732-2.538 2.204-.466 11.37-4.004 12.843-3.177-6.568-3.68-14.926-4.025-22.22-6.58-6.407-2.243-4.735-3.446-.732-7.387 11.584-11.405 21.315-27.45 26.263-42.786-5.78 1.777-11.695 7.526-18.193 6.585 1.15-2.208 11.402-10.11 9.84-12.736-1.06-1.78-12.128 3.532-13.67 4.277-.693.336-1.438.66-2.206.585s-1.538-.69-1.502-1.46c.018-.387.225-.735.43-1.063 2.626-4.2 5.932-8.69 5.088-13.57.56 3.237-6.376 7.066-8.443 8.832-4.398 3.757-8.768 7.018-14.213 9.148-.144-12.18-.67-24.357-1.58-36.504-.295-3.96-.667-8.043-2.528-11.55-.363.54-.734 1.08-1.11 1.612-2.64 3.732-5.61 7.23-8.863 10.442-.12-7.775-1.725-15.524-4.702-22.707-2.462 6.265-4.153 12.833-5.02 19.51.25-1.934-9.087-6.242-10.372-6.67 1.707.568-.63 33.372-.687 36.8-.016 1.005-.36 2.35-1.367 2.32-.43-.012-.794-.306-1.12-.587-5.396-4.63-10.634-9.443-15.7-14.43-1.77-1.74-3.764-3.614-6.244-3.715l3.157 9.096c.355 1.023.494 2.52-.54 2.842-5.137-2.92-9.293-6.006-15.27-7.635 1.858.507 6.198 9.182 7.23 11.024 1.506 2.682 2.165 6.05 4.098 8.438-4.264-4.2-11.08-4.63-16.343-7.012z"/><path fill="#FFF" d="M757.876 598.275c-.087.76-40.77.003-43.084.003H401.416c-10.457 0-73.244 4.65-69.772-8.314l.01-.034c8.23-29.99 30.428-54.917 57.09-70.925s57.54-23.808 88.414-27.55c17.285-2.095 34.757-2.992 51.792-6.592 30.533-6.45 59.15-21.722 81.51-43.494 23.605-22.988 39.81-52.393 60.765-77.82 20.843-25.29 51.906-51.035 86.847-48.283-.008.203-.427 1.186-.156 1.538 6.023 7.82 0 44.306 0 53.852v96.31c0 8.135.043 130.578-.04 131.308z" opacity=".1"/></g><g><g fill="#F16B42"><path d="M138.712 284.76l120.878-29.927 15.88 95.133-116.51 19.94"/><path d="M159.13 370.892l-.338-1.97 115.527-19.774-15.54-93.084-119.828 29.666-.48-1.94 121.926-30.187 16.222 97.18"/></g><g fill="#FFF"><path d="M227.567 262.792l16.305 93.65-53.46 9.41-15.51-90.54"/><path d="M189.595 367.013l-15.838-92.457 54.612-12.982 16.658 95.68-55.433 9.76zm-13.55-90.945l15.182 88.626 51.49-9.063-15.953-91.62-50.72 12.058z"/></g><path fill="#F16B42" d="M187.693 310.32c4.786 6.322 10.46 11.97 16.806 16.724l-5.767 5.91c.32-.327 3.328.124 3.898.122 1.557-.006 3.112-.076 4.662-.204.84-.07 6.93-1.69 7.004-1.058.31 2.65.62 5.3.932 7.95.58.022 1.073-.48 1.24-1.036.165-.555.08-1.15-.004-1.725-.22-1.47-.437-2.94-.656-4.41-.034-.225-.065-.467.03-.675.09-.2.283-.33.476-.434 2.02-1.08 5.01-1.265 7.226-1.983 1.698-.55 3.376-1.16 5.028-1.835.747-.305 3.75-2.137 4.32-1.94-2.548-.877-5.514-.465-8.247-.898-2.4-.38-1.888-.91-.73-2.556 3.35-4.758 5.753-11.032 6.516-16.75-1.923.995-3.64 3.398-5.988 3.482.264-.85 3.37-4.29 2.652-5.116-.487-.56-4.046 2.02-4.542 2.38-.223.164-.465.325-.74.348s-.586-.145-.623-.42c-.018-.136.032-.272.084-.4.656-1.648 1.533-3.442.924-5.106.404 1.104-1.794 2.897-2.41 3.65-1.308 1.606-2.64 3.034-4.42 4.132-.83-4.282-1.795-8.538-2.89-12.76-.358-1.375-.75-2.79-1.63-3.906-.094.214-.19.427-.29.64-.69 1.482-1.513 2.905-2.453 4.244-.54-2.73-1.6-5.36-3.107-7.7-.467 2.365-.643 4.787-.52 7.195-.036-.697-3.6-1.618-4.08-1.686.637.09 1.91 11.796 2.11 13.007.058.355.023.85-.333.905-.152.022-.3-.058-.433-.136-2.197-1.286-4.35-2.647-6.454-4.08-.734-.5-1.557-1.032-2.437-.91l1.694 3.003c.19.338.335.856-.01 1.036-1.995-.7-3.657-1.522-5.867-1.713.687.06 2.77 2.838 3.253 3.42.7.85 1.15 1.993 1.983 2.712-1.773-1.204-4.2-.92-6.207-1.422z"/><path fill="#0C1238" d="M137.454 281.073l2.926-.663 45.72 201.772-2.925.663z"/><g><path fill="#3E4166" d="M234.017 529.758c16.273 19.21 37.846 32.862 64.278 34.672 2.942.202 6.384.03 8.125-2.35 1.116-1.526 1.195-3.556 1.126-5.444-.483-13.3-6.154-25.993-13.88-36.83-6.34-8.892-15.276-15.493-21.735-24.065-4.825-6.404-6.704-13.798-13.25-19.183-5.517-4.54-12.85-7.23-16.57-13.33-2.026-3.322-2.708-7.26-3.936-10.95-2.448-7.36-25.5-21.89-33.08-14.548-4.928 4.77-6.3 8.47-5.21 15.242 4.29 26.682 15.877 55.234 34.133 76.786z"/><path fill="#3E4166" d="M167.266 411.356c-2.795 3.58-3.742 8.704-2.915 13.284 1.103 6.106 4.725 11.43 8.497 16.357 10.498 13.71 22.918 26 37.07 35.893 3.824 2.672 8.003 5.247 12.663 5.514 23.688 1.347 19.218-35.142 16.282-48.28-1.103-4.938-2.758-9.96-6.24-13.63-9.888-10.424-32.972-10.632-46.092-12.988-5.323-.956-11.162-1.83-15.85.863-1.346.77-2.482 1.793-3.414 2.986z"/><path fill="#2F3155" d="M216.25 508.76c-5.838-9.724-10.315-20.22-13.282-30.678-2.908-10.25-11.926-16.445-18.94-23.78-2.4-2.508-15.612-17.99-4.437-16.94 13.743 1.29 29.45 10.47 35.076 23.615 5.208 12.168 6.832 21.814 15.873 32.727 14.62 17.65 29.24 33.543 40.147 54.168.023 3.22-4.812 3.42-7.824 2.283-19.722-7.44-35.592-23.044-46.612-41.396zM484.768 517.682c1.264 3.407 2.853 6.693 4.738 9.8.576.95 1.188 1.892 1.996 2.654 1.714 1.616 4.107 2.247 6.393 2.82 6.22 1.563 12.86 1.088 18.714-1.708.976-.467 2.003-1.018 3.08-.872 4.86.663-.88 10.397-1.938 12.25-12.447 21.81-50.535 15.023-66.075 2.8"/><path fill="#0C1238" d="M333.43 537.998l2 24.312c1.02 12.398 4.512 25.89-.4 37.388-.473 1.105-.97 4.622-1.848 5.44-1.342 1.25-3.298 1.516-5.12 1.723-4.656.53-24.7.975-26.823-4.744-1.637-4.405 2.162-7.8 2.995-11.758.826-3.92-.09-8.615-2.467-11.84l-33.045-44.827M349.568 537.852l48.242 44.36c4.054 3.727 1.706 11.647-2.17 15.56-3.205 3.24-1.104 8.745 3.444 9.025 7.89-.002 16.353 2.072 24.12-.104 8.955-2.51 9.04-11.912 10.763-19.706 3.216-14.552 6.43-29.104 9.647-43.656"/><path fill="#5053AB" d="M265.208 477.33c.567 2.903-3.374 4.208-6.187 5.127-23.964 7.832-14.597 37.592-7.742 54.48 11.228 27.66 46.375 29.68 72.73 32.065 55.26 5.002 121.634 10.285 148.592-49.544"/><path fill="#3E4166" d="M314.406 539.968l2 24.312c1.018 12.398 4.51 25.89-.402 37.388-.472 1.105-.968 2.244-1.847 3.063-1.342 1.25-3.298 1.516-5.12 1.723-4.655.528-24.7 3.352-26.823-2.367-1.635-4.403 2.16-7.797 2.996-11.756 3.042-14.406-14.184-31.1-20.394-43.148-9.075-17.608-15.976-36.338-20.45-55.636M385.105 538.69s60.324 47.95 60.442 48.042c8.363 6.577-4.334 9.52-3.316 16.765 1.235 8.78 8.447 6.1 22.158 5.492 15.02-.667 22.258-10.705 20.483-21.22-1.72-10.203-3.778-12.79-5.858-23.757-3.348-17.65-4.317-35.303-7.665-52.955-.022-.116-2.422-.233-2.444-.35"/><path fill="#2F3155" d="M444.802 517.89c4.478 2.786 8.804 5.854 13.102 8.907 15.576 11.065-1.3 16.913-8.92 24.417-1.73 1.702-2.98 4.13-2.528 6.513.993 5.25 9.292 7.57 8.59 12.867-.376 2.834-3.417 4.88-3.437 7.74-.026 3.568 4.292 5.23 7.723 6.207s7.55 3.666 6.4 7.044c-.324.955-1.046 1.72-1.814 2.374-4.092 3.48-10.014 4.717-13.235 9.22-1.355 1.895-.302 4.373-3.26 5.12-2.186.55-4.575-1.59-5.02-3.606-.597-2.72.845-5.48 2.615-7.63 7.043-8.554-1.88-11.477-7.982-16.56-8.295-6.91-16.778-13.594-25.436-20.043-2.986-2.225-5.91-4.646-6.75-8.437-.99-4.488.508-6.75-3.777-10.375-8.035-6.795-18.133-10.543-28.498-11.84-12.93-1.62-34.388 9.353-43.91-3.416-20.95-28.1 61.242-22.777 73.725-21.577 9.49.912 19.038 2.28 27.943 5.69 5.074 1.944 9.852 4.514 14.467 7.385z"/><path fill="#7581CE" d="M429.28 408.28c11.31 8.287 21.125 18.59 28.666 30.42 7.092 11.128 12.387 23.36 16.675 35.81 1.863 5.408 4.246 11.152 5.398 16.713 1.19 5.747.382 10.985 5.29 15.37.922.822 1.962 1.513 2.808 2.413 8.83 9.387-1.66 21.357-9.677 26.413-21.847 13.778-53.61 16.334-78.85 18.97-43.206 4.515-87.862 1.534-125.076-23.508-20.144-13.556-51.893-39.018-35.853-65.853 2.678-4.48 7.274-7.044 10.657-10.867 3.35-3.786 5.876-7.99 9.297-11.818 8.298-9.282 15.73-19.308 24.283-28.367 37.98-40.236 103.51-37.106 146.384-5.697z"/><path fill="#5663B6" d="M291.408 518.698l-2.46-1.035c-1.625-.71-3.97-1.775-6.86-3.35-1.447-.778-3.025-1.7-4.66-2.832-.808-.577-1.67-1.15-2.525-1.798-.42-.334-.88-.632-1.336-.952l-1.36-1.02c-1.822-1.414-3.71-3.01-5.518-4.903-1.773-1.925-3.475-4.105-4.912-6.63-2.872-5.034-4.644-11.278-4.416-17.924.114-3.313.763-6.73 2.127-9.974 1.344-3.258 3.562-6.21 6.288-8.596 2.722-2.376 5.83-4.258 9.034-5.895 1.6-.825 3.263-1.642 5.036-2.252 1.76-.634 3.673-1.062 5.646-.966 1.99.072 3.878.842 5.515 1.788 1.654.95 3.13 2.1 4.602 3.196 2.943 2.274 5.858 4.597 8.59 7.165 5.403 5.168 9.72 11.68 11.517 18.976.253.902.394 1.828.568 2.748.122.927.21 1.86.216 2.793.055 1.865-.08 3.735-.443 5.558-.34 1.826-.885 3.617-1.685 5.288-.773 1.68-1.765 3.263-2.988 4.635-1.148 1.395-2.618 2.633-4.227 3.534-1.6.92-3.537 1.478-5.406 1.42-1.962-.075-3.674-.69-5.24-1.43-.77-.357-1.525-.83-2.2-1.24-.69-.436-1.427-.917-2.074-1.404-1.327-.976-2.57-2.024-3.707-3.146-1.13-1.128-2.174-2.302-3.157-3.492-1.933-2.408-3.492-4.988-4.634-7.625-.143-.343-.282-.628-.425-1.015-.116-.334-.243-.614-.348-.994-.23-.728-.4-1.413-.525-2.115-.27-1.396-.285-2.808-.125-4.18.17-1.368.563-2.72 1.297-3.9.718-1.187 1.845-2.104 3.05-2.613l.222-.103.055-.026.095-.032.1-.032.403-.127c.338-.078.685-.158.992-.18.63-.072 1.253-.05 1.842.045 1.186.174 2.236.603 3.18 1.088.938.5 1.76 1.098 2.486 1.734.69.613 1.34 1.297 1.887 1.953 2.196 2.668 3.137 5.295 3.6 7.073.23.898.34 1.604.405 2.08l.083.723-2.355.18-.067-.626c-.054-.412-.142-1.024-.34-1.807-.39-1.548-1.194-3.856-3.095-6.2-.48-.583-.99-1.13-1.627-1.71-.602-.534-1.288-1.038-2.046-1.45-1.503-.815-3.373-1.267-4.948-.544-1.626.672-2.522 2.528-2.688 4.735-.095 1.103.028 2.272.203 3.458.092.59.24 1.203.397 1.746.06.26.208.624.31.936.082.238.24.59.355.88 1.02 2.44 2.394 4.867 4.14 7.147 1.746 2.28 3.908 4.37 6.39 6.15.627.463 1.23.85 1.905 1.27.705.426 1.34.787 2.036 1.145 1.347.706 2.81 1.244 4.215 1.348 1.487.09 2.944-.274 4.332-1.002.68-.376 1.325-.84 1.934-1.356.31-.264.59-.526.87-.81.32-.312.543-.595.82-.918 1.077-1.222 1.947-2.636 2.63-4.145.705-1.5 1.193-3.118 1.492-4.78.676-3.335.37-6.81-.08-10.26-.106-.87-.29-1.73-.52-2.582-.26-.83-.526-1.626-.932-2.475l-.28-.63-.07-.156c.003.014-.043-.08-.062-.116l-.153-.295-.618-1.183c-.462-.763-.92-1.527-1.437-2.258-2.02-2.95-4.498-5.57-7.067-8.1-1.273-1.28-2.578-2.544-3.95-3.742-1.384-1.182-2.85-2.276-4.31-3.345-3.01-2.12-5.87-4.332-9.033-4.5-1.58-.134-3.23.196-4.826.755-1.583.628-3.092 1.466-4.604 2.375-3.015 1.82-6.047 3.428-8.597 5.57-2.616 2.05-4.42 4.865-5.736 7.748-1.345 2.903-2.033 6.05-2.203 9.145-.216 6.228 1.688 12.068 4.472 16.655 1.402 2.3 3.005 4.36 4.64 6.203 1.612 1.873 3.328 3.492 5.007 4.935 1.656 1.478 3.403 2.625 5.04 3.63 1.666.963 3.176 1.877 4.596 2.61 2.82 1.493 5.13 2.51 6.693 3.172l2.458 1-.902 2.183zM338.055 465.386c-2.005-.27-4.09-.616-6.104-1.062-1.01-.238-2.032-.444-3.02-.788-.992-.322-1.966-.697-2.965-1.006-1.983-.65-4.013-1.302-5.894-2.32-.934-.512-1.843-1.082-2.717-1.703-.44-.306-.85-.652-1.267-.992l-.312-.255-.194-.163-.14-.13-.56-.52c-.364-.326-.75-.757-1.127-1.167-.394-.408-.72-.832-1.058-1.254-.348-.414-.653-.858-.96-1.302-.316-.436-.594-.897-.867-1.362-1.09-1.854-1.967-3.835-2.557-5.917-.57-2.08-.886-4.28-.648-6.48.1-1.1.35-2.19.706-3.243.16-.53.433-1.028.648-1.54l.043-.094.02-.047.06-.11.102-.162.2-.325.403-.65c1.256-1.9 3.073-3.317 5.025-4.223 1.968-.893 4.037-1.49 6.144-1.69 2.105-.202 4.21-.092 6.264.243 2.052.332 4.086.74 6.082 1.312 1.993.597 3.875 1.413 5.758 2.255 1.883.828 3.698 1.794 5.525 2.734.92.46 1.875.864 2.775 1.368.912.484 1.775 1.05 2.647 1.6 1.733 1.118 3.43 2.3 5.058 3.57l.325.254.056.425c.15 1.14.093 2.313-.18 3.433-.27 1.123-.758 2.18-1.38 3.135-1.237 1.923-3.074 3.406-5.184 4.277-.28.094-.516.186-.835.278l-.75.195c-.57.13-1.12.224-1.657.295-1.086.137-2.168.163-3.233.126-2.13-.083-4.212-.282-6.25-.6-1.023-.156-2.024-.304-3.063-.493-1.034-.183-2.09-.426-3.117-.825-1.035-.406-1.993-.934-2.933-1.638-.38-.274-.885-.737-1.258-1.12-.397-.403-.752-.846-1.076-1.313-.63-.944-1.114-2.014-1.315-3.205-.1-.594-.098-1.222 0-1.843l.045-.233.023-.117.007-.03.03-.1.016-.046.12-.364c.14-.33.34-.71.54-.953.827-1.093 2.1-1.72 3.44-1.79 1.338-.117 2.833.565 3.645 1.736l-1.952 1.33c-.376-.502-.93-.793-1.616-.748-.67.02-1.362.372-1.724.87-.117.146-.124.2-.2.307l-.125.362-.015.045-.004.01c.058-.184.016-.045.028-.084l-.003.017-.012.067-.026.133c-.06.357-.074.735-.013 1.124.11.78.463 1.574.952 2.284.25.352.526.69.832.996.15.146.33.305.48.408.13.104.344.25.563.393.688.424 1.56.79 2.423 1.04.874.27 1.79.504 2.748.71.955.2 1.973.378 2.963.554 1.98.357 3.94.7 5.875.734.965.02 1.92-.025 2.85-.154.47-.07.923-.153 1.344-.25l.728-.2c.168-.05.41-.145.61-.213 1.682-.6 3.294-1.675 4.326-3.18 1.02-1.507 1.465-3.343 1.166-5.083l.427.76c-1.604-1.205-3.28-2.304-4.947-3.405l-2.535-1.6c-.824-.565-1.604-1.216-2.457-1.748-1.74-.996-3.596-1.782-5.475-2.47l-2.818-.983c-.98-.345-1.89-.592-2.818-.932-.93-.294-1.845-.67-2.8-.898-.47-.144-.95-.234-1.436-.304-.483-.08-.964-.172-1.45-.212-1.94-.213-3.886-.27-5.783-.082-1.882.188-3.798.497-5.393 1.438-.39.24-.788.47-1.12.776-.34.294-.715.543-1.016.868l-.477.46c-.183.138-.318.294-.445.45l-.41.464c-.135.146-.29.296-.43.53l-.43.634-.214.316-.11.157-.013.02.034-.063-.02.038-.038.075c-.19.408-.456.79-.597 1.23-.326.855-.583 1.767-.597 2.71-.016.468-.054.935-.03 1.41-.014.472-.03.948.02 1.427.016.48.06.96.143 1.438.057.482.144.96.262 1.435.406 1.917 1.234 3.746 2.293 5.408 1.078 1.668 2.37 3.143 3.835 4.44 1.49 1.288 3.123 2.39 4.833 3.353 1.697.98 3.437 1.948 5.31 2.628.928.364 1.908.58 2.88.798.98.2 1.942.46 2.924.645 1.974.396 3.917.682 5.953.92l-.33 2.34zM353.18 521.633l-1.796.235c-1.292.066-3.138.193-5.426-.173-.573-.083-1.168-.222-1.796-.34-.626-.13-1.256-.37-1.92-.57-1.3-.5-2.697-1.04-4.16-1.72-1.47-.667-2.942-1.59-4.404-2.7-1.442-1.136-2.768-2.597-3.886-4.3-.584-.845-1.04-1.763-1.503-2.756l-.286-.69-.285-.776c-.173-.515-.338-1.023-.472-1.55-.564-2.096-.83-4.317-.847-6.577-.025-2.243.185-4.594.627-6.877.46-2.328 1.232-4.656 2.412-6.86 1.178-2.183 2.788-4.276 4.936-5.746.144-.1.233-.175.424-.296l.39-.237c.264-.158.506-.32.818-.47.59-.328 1.19-.58 1.783-.825 1.197-.49 2.446-.844 3.718-1.086 2.553-.44 5.186-.34 7.716.18 1.274.258 2.495.63 3.74 1.063 1.172.403 2.41.926 3.55 1.486 2.317 1.132 4.405 2.64 6.423 4.167 2.03 1.53 3.863 3.224 5.875 4.732 2 1.633 3.66 3.606 4.842 5.947.57 1.174 1.002 2.475 1.038 3.878.052 1.396-.41 2.86-1.25 3.967l-.312.42c-.157.182-.217.235-.33.36-.254.254-.543.502-.803.7-.544.41-1.127.733-1.715 1-1.177.538-2.376.85-3.54 1.087-.588.114-1.17.197-1.714.282-.578.08-1.152.155-1.716.215-1.134.104-2.26.134-3.366.147-2.218.035-4.364-.166-6.436-.327-2.072-.2-4.055-.46-5.99-.964-1.914-.498-3.813-1.292-5.23-2.652-1.46-1.375-2.273-3.16-2.432-4.948-.094-.892.022-1.803.34-2.613.165-.413.343-.773.618-1.144l.304-.42.443-.478c1.175-1.14 2.552-1.6 3.733-1.867 2.397-.457 4.217-.225 5.438-.115 1.22.142 1.858.262 1.858.262l-.443 2.32s-.602-.12-1.723-.264c-1.106-.12-2.795-.323-4.707.03-.927.19-1.924.568-2.604 1.228-.07.075-.143.146-.22.215l-.3.406c-.116.15-.25.412-.334.637-.184.473-.26 1.02-.193 1.602.125 1.17.88 2.388 1.904 3.24 1.12.862 2.536 1.587 4.226 2.066 1.676.473 3.587.812 5.546 1.064 1.964.256 4.018.323 6.124.288 1.054-.02 2.12-.09 3.2-.167.543-.03 1.08-.074 1.62-.12.57-.06 1.11-.11 1.644-.187 1.072-.165 2.127-.396 3.09-.784.472-.212.91-.474 1.297-.773.205-.16.358-.3.518-.46.083-.093.235-.25.262-.29l.206-.296c1.17-1.54.94-3.64-.058-5.59-.95-1.99-2.668-3.655-4.146-5.444l-.633-.688c-.176-.203-.435-.425-.655-.63-.45-.426-.934-.81-1.422-1.19-.965-.773-1.956-1.514-2.987-2.19-2.05-1.368-4.163-2.592-6.294-3.695-1.082-.59-2.05-1.103-3.254-1.593-1.058-.408-2.255-.695-3.406-.9-2.333-.376-4.7-.434-6.974-.082-1.138.16-2.246.456-3.297.868-.514.242-1 .515-1.43.796-.214.117-.473.32-.717.495l-.368.272-.27.24c-1.65 1.41-3.154 3.012-4.274 4.937-1.217 1.88-1.69 4.105-2.232 6.21-.534 2.164-.798 4.296-.843 6.42.006 2.11.333 4.15.9 6.026.14.47.313.927.482 1.37.172.43.36.864.58 1.316.43.805.868 1.626 1.406 2.34 1.05 1.448 2.207 2.73 3.47 3.776 1.22 1.083 2.482 2.025 3.778 2.727.63.383 1.28.685 1.914.954.646.24 1.284.43 1.893.61l1.783.4c.573.095 1.114.213 1.634.28 2.09.298 3.735.14 4.793.082l1.79-.266.314 2.34zM307.68 523.447l3.86 1.222c1.254.322 2.652 1.056 4.424 1.314 1.77.263 3.737.615 5.867 1.134 1.067.244 2.162.57 3.314.828l3.567.807c1.226.278 2.495.51 3.795.733 1.296.254 2.62.514 3.965.78 1.352.237 2.732.433 4.12.723.696.138 1.397.266 2.106.36.712.063 1.428.128 2.146.193 2.868.297 5.78.74 8.717.773 1.466.022 2.928.16 4.39.22 1.46.06 2.915.17 4.36-.026 1.446-.192 2.876-.107 4.29-.212l4.18-.167c1.373-.06 2.72-.172 4.038-.287 1.318-.095 2.608-.167 3.868-.185 1.258-.056 2.49-.02 3.667-.147 1.18-.124 2.317-.245 3.41-.362 1.093-.117 2.138-.25 3.14-.285 1.005-.036 1.96-.062 2.846-.173 1.775-.2 3.314-.453 4.577-.688l3.972-.7.35 2.335-4.018.616c-1.278.205-2.838.392-4.624.64-.893.12-1.834.34-2.83.54-1 .176-2.067.21-3.174.293-2.215.17-4.625.205-7.163.37-.634.027-1.277.077-1.93.087l-1.985-.04c-1.34-.074-2.697.057-4.082.14-1.386.09-2.795.18-4.22.274-.715.052-1.433.068-2.156.073-.722.02-1.45.01-2.176-.16-.363-.06-.727-.14-1.092-.163-.365-.023-.73-.004-1.098.01-.734.024-1.47.04-2.21.09-1.477.086-2.966.19-4.447.112-.74-.068-1.47-.25-2.208-.317-.737-.073-1.476-.098-2.214-.137-1.477-.026-2.94-.2-4.388-.38-.723-.103-1.44-.233-2.16-.29-.722-.046-1.446-.05-2.164-.073-1.437-.047-2.815-.428-4.17-.757-.68-.144-1.346-.35-2.023-.436-.678-.08-1.345-.19-1.993-.366-1.306-.296-2.554-.73-3.794-1.008-1.238-.29-2.456-.497-3.64-.67-1.185-.182-2.316-.42-3.412-.608-1.095-.196-2.14-.397-3.126-.635-.978-.276-1.885-.614-2.745-.897-.862-.276-1.68-.49-2.464-.604-.776-.132-1.448-.36-2.072-.525-2.485-.684-3.892-1.116-3.892-1.116l.705-2.253z"/></g></g></svg>