<svg xmlns="http://www.w3.org/2000/svg" viewBox="0 0 377.447 389.685"><title>Small-flag-America</title><path fill="#E8EAF2" d="M248.043 286.773c.258-.56.65-1.05 1.14-1.422.295-.112.557-.294.766-.53.214-.255.477-.47.774-.624.598-.243 1.257-.296 1.887-.152.895.177 1.738.553 2.467 1.1.215.208.416.43.6.665.38.453.632 1 .73 1.584.07.276.153.535.24.8.063.257.088.522.074.787-.03.27-.056.528-.112.794-.042.26-.042.536-.08.816-.168.55-.49 1.04-.93 1.41-.097.102-.202.197-.314.282-.102.11-.196.226-.28.35-.182.24-.434.42-.722.515-.532.22-1.103.337-1.68.343-.57.032-1.14-.026-1.69-.173-.498-.286-.975-.603-1.43-.95-.525-.296-.953-.736-1.235-1.267-.107-.293-.137-.612-.224-.89s-.162-.567-.242-.86c-.114-.58-.13-1.178-.05-1.765l2.28.62c-.047.302-.054.608-.02.912.02.135.064.266.134.383.096.11.218.196.356.247.166.216.316.444.447.683.224.235.494.42.794.542.144.093.288.222.45.315.163.073.345.095.52.064.32-.067.626-.194.9-.373.136-.048.2-.17.418-.048.24.133.336-.013.38-.147.1-.3-.09-.612.008-.8.073-.1.273-.2.25-.366.03-.143-.064-.318-.06-.472-.03-.165-.043-.332-.044-.5.01-.144.074-.33-.094-.42-.15-.1-.322-.14-.346-.282s-.02-.333-.06-.514c-.01-.088-.05-.167-.116-.226-.07-.046-.152-.068-.2-.14-.114-.12-.19-.323-.316-.482-.106-.165-.276-.28-.47-.313-.18-.055-.374-.06-.557-.013-.178.027-.352.07-.522.128-.145.077-.297.144-.452.2-.147.04-.323.013-.487.05-.08.013-.157.044-.225.09-.048.077-.085.16-.107.248l-.235.4c-.05.148-.114.29-.19.427l-2.122-1.024zm111.012 82.11c.15.536.263 1.082.342 1.633-.224.586.312 1.07.453 1.642.056.562.036 1.13-.06 1.687-.124.55-.28 1.088-.382 1.63-.293 1.063-.78 2.062-1.436 2.947-.16.214-.287.45-.378.7-.115.24-.25.47-.406.685-.382.37-.688.812-.9 1.3-.308.43-.722.775-1.06 1.174-.443.3-.47 1.013-.885 1.364-.368.393-.772.753-1.167 1.128-.446.3-.815.74-1.284 1.03-.53.152-1.05.346-1.55.582-.484.26-.995.468-1.525.617-.282-.024-.565-.02-.846.01-.267.056-.53.13-.79.227l-1.63.35-.046-2.36c.45-.065.89-.145 1.336-.185.22-.05.435-.115.646-.193.207-.104.405-.22.594-.355.41-.186.85-.297 1.3-.327.435-.13.834-.348 1.263-.51.208-.1.45-.14.676-.22.214-.09.41-.22.58-.383.32-.353.586-.754.9-1.086.16-.17.253-.394.57-.4s.454-.215.573-.42c.2-.455.233-1 .547-1.333.166-.16.427-.26.53-.47.128-.19.2-.417.32-.61.094-.21.21-.408.343-.595.18-.155.302-.364.35-.595-.05-.237-.02-.484.092-.7.155-.196.326-.378.513-.544.078-.09.137-.193.176-.306.008-.116.032-.23.07-.34.13-.217.28-.423.442-.616.234-.423.322-.912.25-1.39-.095-.464-.164-.93-.21-1.4.318-.958-.366-1.81-.564-2.663l2.253-.702zM74.333 128.814c-.557.02-1.114.005-1.67-.047-.517-.354-1.113.055-1.7.06-.56-.076-1.106-.227-1.626-.45-.506-.25-.993-.525-1.5-.75-.965-.532-1.823-1.237-2.532-2.08-.173-.206-.375-.385-.6-.532-.206-.168-.397-.353-.572-.553-.27-.46-.63-.862-1.058-1.183-.347-.4-.586-.882-.9-1.3-.186-.5-.874-.69-1.12-1.177-.3-.45-.552-.926-.825-1.4-.193-.5-.53-.965-.7-1.488-.024-.552-.092-1.1-.206-1.64-.14-.533-.224-1.08-.246-1.63.088-.267.15-.544.185-.824.01-.272-.002-.546-.035-.82l.04-1.67 2.306.5c-.042.454-.067.9-.132 1.345-.002.226.01.45.038.675.052.224.122.445.207.66.086.44.09.894.017 1.338.024.453.145.892.2 1.347.045.224.034.47.058.71.038.23.12.452.238.654.27.39.6.743.847 1.125.127.193.323.338.26.65-.048.253.06.51.276.653.4.3.923.46 1.17.84.116.2.153.476.332.624.156.17.36.29.52.454.182.14.35.3.5.472.138.19.263.406.5.48.25.05.517.065.66.25.156.197.293.406.41.626.07.097.158.18.26.243.11.034.216.083.314.146.18.177.347.368.5.572.357.327.814.526 1.3.566.47.017.942.057 1.41.123.857.53 1.845.063 2.72.07l.152 2.36zM265.51 7.607c-.23.368-.407.765-.53 1.18-.112.447-.165.906-.158 1.366.026.478.05.98.094 1.5.11.517.3 1.012.566 1.47.56.94 1.085 1.807 1.64 2.865.543 1.084.993 2.214 1.343 3.375.388 1.27.524 2.604.4 3.927-.073.71-.267 1.402-.573 2.047-.335.713-.87 1.313-1.54 1.73-1.207.775-2.66 1.073-4.077.835-.757-.112-1.458-.465-2-1.005-.555-.58-.876-1.345-.9-2.148v-.073l.014-.076c.14-.906.54-1.754 1.152-2.437.6-.645 1.354-1.127 2.19-1.4.79-.276 1.61-.452 2.444-.524.83-.096 1.67-.026 2.472.205.812.215 1.58.575 2.264 1.063.657.492 1.267 1.045 1.823 1.65 1.188 1.13 2.073 2.54 2.573 4.1.524 1.49.938 3.017 1.24 4.568.34 1.478.57 2.98.686 4.49.188 1.442.583 2.848 1.172 4.176.284.646.633 1.243.938 1.86.287.628.684 1.2 1.17 1.69l-.782-.253c.444-.058.878-.177 1.29-.354.363-.178.55-.4.57-.536.006-.017.02-.134 0-.036-.005.068.006.136.03.2.06.1.03.057-.052.05s-.193.013-.082 0c.083-.01.26-.09.42-.365.054-.107.08-.223.077-.34.01-.048.005-.097-.014-.14l-2.24.75c-.05-.17-.082-.347-.1-.526-.007-.252.043-.503.148-.733.2-.426.574-.746 1.026-.88.5-.144 1.032-.128 1.522.044.536.165.993.52 1.285 1 .187.314.276.675.26 1.04-.01.274-.07.545-.176.8-.35.785-.997 1.4-1.8 1.708-.588.242-1.203.415-1.83.515l-.62.107-.465-.458c-.64-.59-1.24-1.22-1.8-1.884-.49-.7-.888-1.46-1.18-2.26-.498-1.54-.87-3.12-1.12-4.72-.126-.773-.246-1.54-.327-2.306-.055-.77-.085-1.524-.16-2.268-.21-1.45-.612-2.867-1.192-4.212-.29-.65-.576-1.286-.906-1.88-.158-.3-.362-.57-.492-.884s-.24-.65-.4-.954c-.177-.29-.41-.542-.686-.74l-.395-.31c-.13-.087-.273-.147-.406-.22-.562-.25-1.16-.413-1.772-.48l-1.832-.2c-.614-.067-1.236.045-1.79.322-.26.117-.51.264-.737.438l-.33.24-.275.278c-.337.387-.59.84-.743 1.33l.015-.232c-.017.235.133.45.36.512.2.06.45.166.815.26.8.277 1.685.18 2.407-.265.3-.24.572-.513.808-.816.27-.394.462-.835.568-1.3.17-1.035.03-2.097-.4-3.053-.425-1.017-.927-2-1.5-2.943-.263-.493-.566-.984-.814-1.535-.24-.55-.437-1.12-.592-1.7-.167-.583-.306-1.173-.5-1.762-.227-.598-.362-1.227-.4-1.866-.043-.675.005-1.353.143-2.016.162-.69.444-1.344.833-1.936l1.93 1.333zM87.6 24.98c.65 1.974 1.012 4.03 1.08 6.108-.15 2.058.16 4.133-.144 6.22-.752 4.135-2.624 7.987-5.41 11.134l-.514.593c-.2.2-.384.4-.59.587-.397.373-.82.718-1.266 1.032-.884.603-1.83 1.113-2.818 1.522-1.977.89-4.167 1.2-6.313.892-.554-.105-1.098-.26-1.625-.46-.542-.228-1.043-.542-1.484-.93-.84-.814-1.378-1.886-1.53-3.044-.13-1.058-.09-2.13.115-3.175.1-1.127.51-2.2 1.19-3.1.438-.516 1.06-.834 1.733-.886.614-.03 1.225.097 1.776.367.97.49 1.825 1.177 2.513 2.017.65.82 1.258 1.675 1.82 2.56.57.912.952 1.93 1.124 2.992.21 1.096.207 2.224-.014 3.32-.064.276-.152.55-.23.825-.11.264-.214.538-.333.793-.245.49-.524.963-.837 1.413-1.256 1.74-2.882 3.18-4.76 4.218-.926.466-1.86.885-2.792 1.257s-1.862.726-2.75 1.146c-.88.4-1.806.8-2.604 1.238-.82.433-1.59.953-2.36 1.462-3.224 1.793-5.454 5.737-4.08 8.71l-2.2.85c-.423-1.105-.585-2.292-.474-3.47.123-1.142.48-2.247 1.046-3.247.52-.963 1.157-1.857 1.9-2.66.693-.82 1.45-1.584 2.263-2.284 1.693-1.227 3.565-2.185 5.55-2.838 1.81-.664 3.578-1.44 5.29-2.327.836-.392 1.64-.852 2.4-1.375.725-.524 1.347-1.18 1.835-1.93.248-.36.462-.74.64-1.14l.208-.568.135-.588c.12-.814.1-1.643-.057-2.45-.136-.838-.5-1.613-.67-2.5-.1-.44-.267-.862-.5-1.247-.26-.36-.547-.7-.86-1.017-.557-.593-1.253-1.04-2.024-1.3-.24-.08-.495-.104-.746-.072-.126.054-.24.133-.333.23-.497.507-.796 1.175-.842 1.883-.136.835-.126 1.685.03 2.514.106.69.414 1.33.884 1.845.235.247.512.452.82.606.35.15.73.23 1.11.24.83-.05 1.658-.15 2.477-.294.883-.12 1.754-.312 2.606-.572.432-.144.85-.327 1.248-.548.39-.238.75-.51 1.124-.762.775-.483 1.492-1.053 2.137-1.7 1.35-1.357 2.4-2.98 3.085-4.768.704-1.762 1.212-3.597 1.515-5.47.53-1.826.684-3.74.457-5.628-.195-1.867-.595-3.707-1.194-5.487l2.247-.735zm195.635 306.564c.11.755-.32 1.617.408 2.286.16.353.252.734.27 1.12.094.376.154.77.278 1.144l.22.55c.063.19.1.4.163.59.168.38.302.777.4 1.183.088.188.21.358.36.5.132.162.245.336.34.52.185.38.462.705.806.948.303.285.593.585.866.9.27.34.894.2 1.186.477.383.158.742.344 1.1.518s.8.19 1.146.375c.357.157.66.5 1.062.57.4.014.795.087 1.173.216.73.53 1.595.154 2.35.06l.145 2.356c-.482.024-.97.066-1.457.068-.497-.08-1.006-.05-1.49.09-.49-.08-.964-.238-1.4-.472-.434-.24-.896-.38-1.33-.594-.7-.784-1.67-.88-2.567-1.295-.194-.137-.442-.208-.5-.525s-.274-.416-.5-.514c-.48-.14-.932-.36-1.337-.653-.13-.214-.172-.504-.354-.66-.16-.18-.37-.31-.536-.485-.156-.182-.294-.38-.41-.592-.068-.236-.208-.444-.4-.595-.216-.14-.457-.277-.525-.52-.07-.246-.117-.5-.137-.755-.01-.124-.036-.245-.08-.36-.073-.096-.132-.2-.176-.31-.046-.247-.07-.496-.068-.746 0-.48-.16-.945-.45-1.326-.22-.424-.417-.862-.585-1.31-.07-.483.235-.986-.137-1.427-.1-.475-.16-.957-.187-1.44l2.356.116zm-91.845-69.66c-.475-1.1-.93-2.21-1.33-3.344-.207-1.213-1.186-2.1-1.67-3.2-.512-1.087-.963-2.202-1.35-3.34-.4-1.13-.815-2.26-1.26-3.373l-.487-1.225 1.213-.447c1.1-.407 2.24-.743 3.354-1.14.56-.192 1.11-.41 1.675-.594s1.132-.37 1.677-.6c1.06-.53 2.12-1.054 3.213-1.524 1.075-.504 2.114-1.082 3.11-1.728l.644-.365.334.633c.57 1.215 1.214 2.395 1.927 3.532.46.5.86 1.05 1.193 1.64l1.054 1.715c.686 1.153 1.365 2.31 2.1 3.437.364.563.684 1.155.958 1.768.252.624.538 1.233.857 1.825l.62 1.1-1.194.388c-.875.286-1.717.663-2.583.97-.43.163-.87.3-1.317.41-.452.1-.915.165-1.355.3-1.753.554-3.43 1.334-5.144 2l-.758-2.235 2.592-.94c.868-.3 1.736-.6 2.587-.958.425-.18.83-.42 1.247-.62.423-.18.858-.333 1.3-.46.882-.26 1.78-.478 2.668-.716l-.744 1.925c-.58-1.21-1.3-2.346-1.776-3.615-.236-.63-.537-1.234-.9-1.8-.34-.58-.713-1.14-1.093-1.695s-.76-1.11-1.09-1.695c-.166-.292-.36-.568-.5-.873-.115-.326-.206-.66-.273-1-.65-1.182-1.413-2.3-2.274-3.34l2.025.555c-.493.368-1.05.643-1.64.81-.555.25-1.092.54-1.607.863-1.05.613-2.152 1.136-3.293 1.56-.554.25-1.022.685-1.566.963-.556.258-1.143.445-1.747.554-.603.103-1.19.285-1.746.542-.567.227-1.16.387-1.764.475l.53-1.224c.247 1.182.67 2.32 1.252 3.376.536 1.076 1.134 2.126 1.636 3.216.52 1.08.58 2.355 1.328 3.344.56 1.067 1.07 2.153 1.553 3.25l-2.18.9zM330.064 8.78c.77-.264 1.55-.5 2.346-.69.86.013 1.465-.77 2.234-1.04.76-.302 1.54-.54 2.34-.713.794-.19 1.587-.386 2.368-.617l1.266-.375.34 1.24c.21.766.337 1.558.516 2.34.083.39.193.775.265 1.174.062.396.15.79.26 1.18.312.737.586 1.493.82 2.26.11.388.254.765.43 1.128.21.342.393.7.553 1.07l.26.7-.61.253c-.866.29-1.705.656-2.506 1.094-.337.322-.724.587-1.146.784l-1.21.642c-.813.412-1.634.808-2.423 1.276-.397.227-.82.407-1.258.536-.445.11-.88.256-1.3.436l-1.15.533-.28-1.23c-.14-.61-.373-1.194-.537-1.8-.09-.3-.152-.606-.19-.917-.006-.317-.03-.633-.074-.947-.26-1.222-.754-2.387-1.136-3.58l2.293-.564.507 1.8c.156.6.314 1.21.522 1.8.108.3.278.575.406.865.11.29.19.592.244.9.113.614.184 1.24.275 1.86l-1.853-.9c.838-.367 1.698-.68 2.576-.936.45-.09.883-.253 1.283-.48.41-.2.8-.437 1.193-.68s.78-.49 1.192-.68c.2-.11.407-.208.618-.294.24-.043.483-.06.726-.055.906-.206 1.548-1 2.34-1.463l-.73 1.984c-.234-.353-.377-.76-.417-1.183-.118-.4-.283-.787-.493-1.148-.373-.746-.66-1.53-.852-2.343-.192-.378-.405-.745-.637-1.1-.14-.402-.21-.823-.21-1.248.007-.424-.067-.844-.22-1.238-.123-.403-.178-.825-.162-1.246l1.173.63c-.826.027-1.636.235-2.37.61-.753.326-1.485.715-2.247 1.006-.756.31-1.665.144-2.347.687-.744.347-1.5.65-2.273.92l-.72-2.244zm-316.54.67c-.163-.54-.397-1.055-.693-1.534-.137-.66-.95-.75-1.46-.99-1.033-.65-2.18-1.105-3.377-1.34-.335-.06-.666-.1-1-.137s-.65-.11-.972-.136c-.573-.048-1.15-.024-1.72.074-.19.037-.346.18-.4.37-.074.192-.104.4-.085.607.028.63.287 1.228.728 1.68.38.566.793 1.11 1.235 1.63.41.58 1.26.677 1.746 1.15.572.38 1.155.737 1.743 1.065.587.296 1.195.55 1.818.76.494.33 1.063.53 1.655.583.21 0 .417-.058.6-.165.116-.076.224-.164.322-.263.19-.142.324-.346.38-.576.046-.295.043-.595-.01-.89-.12-.643-.288-1.276-.507-1.892zm2.296-.56c.225.772.37 1.565.427 2.366.03.447.022.895-.02 1.34-.027.553-.15 1.097-.364 1.607-.326.586-.85 1.036-1.48 1.268-.538.19-1.112.256-1.68.19-.88-.094-1.737-.33-2.542-.7-.35-.194-.683-.42-1-.67-.323-.21-.662-.397-1.013-.562-.702-.33-1.38-.707-2.03-1.13-.3-.236-.668-.41-.806-.836-.144-.37-.41-.68-.754-.88-.712-.404-1.338-.943-1.844-1.587-.187-.385-.28-.818-.485-1.212-.23-.427-.405-.882-.518-1.355-.118-.62-.04-1.26.222-1.83.34-.545.79-1.01 1.326-1.364.377-.357.858-.586 1.373-.654.443-.018.886.028 1.315.137.197.047.398.076.6.085.195-.015.39-.013.586.006.384.086.757.21 1.116.368.744.24 1.504.422 2.276.545.797.16 1.56.45 2.26.86.692.486 1.035 1.28 1.77 1.75.6.64 1.035 1.42 1.27 2.265zm358.27 118.747c.153.555.27 1.12.353 1.69-.224.6.313 1.108.456 1.7.052.58.03 1.167-.067 1.743-.13.568-.29 1.125-.4 1.685-.308 1.096-.81 2.128-1.484 3.046-.166.224-.3.47-.396.728-.127.244-.268.48-.422.708-.393.387-.712.844-.94 1.346-.323.444-.75.8-1.1 1.212-.46.305-.5 1.04-.94 1.39-.386.4-.793.785-1.21 1.163-.463.312-.852.755-1.338 1.05-.548.157-1.083.356-1.6.596-.504.265-1.036.473-1.585.623-.29-.023-.584-.02-.874.01-.278.054-.552.13-.82.224l-1.692.34-.02-2.363c.468-.06.93-.138 1.393-.175.23-.05.452-.13.676-.196.216-.102.425-.22.625-.35.427-.19.883-.305 1.348-.344.458-.12.87-.354 1.32-.517.215-.1.465-.15.7-.23.22-.1.424-.234.6-.4.346-.35.615-.777.958-1.1.167-.174.26-.416.586-.428.266-.017.497-.187.594-.435.123-.486.322-.95.59-1.372.174-.163.43-.278.545-.49.132-.2.22-.426.34-.63.107-.213.227-.42.357-.62.184-.16.313-.377.367-.617-.05-.246-.014-.502.1-.726.16-.204.335-.393.526-.567.08-.095.14-.203.182-.32.01-.12.037-.24.077-.353.13-.225.28-.44.45-.64.235-.442.33-.947.265-1.445-.096-.482-.166-.97-.208-1.458-.046-.464.26-.993-.09-1.43-.196-.433-.36-.88-.49-1.34l2.262-.705zm-55.196 154.42c-.047-1.383.114-2.765.478-4.1l.3-.984.37-.958c.294-.617.634-1.212 1.017-1.778.7-1.18 1.492-2.304 2.372-3.357.947-1.046 2.08-1.905 3.344-2.533 5.204-2.36 11.3-1.515 15.668 2.17l.528.48-.12.605c-.31 1.655-.95 3.23-1.88 4.633-.49.736-1.12 1.37-1.854 1.862-.782.534-1.71.81-2.656.794-.468-.007-.933-.08-1.38-.215-.443-.156-.86-.375-1.24-.65-.71-.55-1.264-1.28-1.6-2.113-.344-.794-.516-1.653-.504-2.52.022-.838.172-1.668.444-2.462.508-1.565 1.405-2.976 2.607-4.1 1.19-1.077 2.557-1.944 4.04-2.56.73-.318 1.483-.542 2.23-.785.746-.228 1.475-.55 2.232-.746 1.515-.384 3.047-.584 4.542-.838s2.972-.472 4.382-.844c1.393-.347 2.738-.863 4.006-1.537 2.426-1.28 4.737-3.16 4.9-5.937.173-1.284-.057-2.59-.658-3.74-.557-1.033-1.492-2.093-2.674-2.054-1.255.02-2.435.6-3.217 1.583-.368.433-.61.958-.705 1.52-.065.473.05.954.325 1.346l-1.983 1.282c-.58-.9-.802-1.984-.62-3.04.185-.97.63-1.874 1.286-2.613 1.26-1.45 3.08-2.284 5-2.293.512.015 1.02.096 1.512.24l.735.284c.224.11.425.24.638.364.833.525 1.527 1.24 2.026 2.087.854 1.65 1.14 3.535.812 5.363-.3 1.765-1.074 3.415-2.242 4.772-1.115 1.28-2.507 2.287-4.07 2.948-1.492.6-3.02 1.104-4.575 1.512-1.537.388-3.07.71-4.574.977s-2.985.513-4.428.758c-.734.023-1.466.098-2.19.226-.687.2-1.357.46-2 .78-1.2.666-2.29 1.516-3.228 2.52-.944.883-1.703 1.944-2.233 3.122-.185.586-.27 1.2-.246 1.815.04.58.174 1.148.4 1.68.49 1.036 1.235 1.836 2.247 1.794.487-.056.938-.284 1.272-.643.433-.387.83-.814 1.184-1.276.866-1.048 1.443-2.303 1.677-3.642l.383 1.015c-.9-.733-1.858-1.392-2.865-1.97-1.045-.584-2.195-.956-3.384-1.096-2.37-.262-4.764.216-6.852 1.37-1.01.568-1.963 1.238-2.84 2-.928.732-1.7 1.642-2.275 2.676l-.358.81c-.107.275-.19.557-.316.82l-.292.824-.233.84c-.27 1.118-.373 2.272-.3 3.42l-2.364.097zM154.35 17.047c-.112.358-.256.705-.43 1.036-.4.25-.085.776-.148 1.168-.257.746-.628 1.445-1.1 2.074l-.324.5c-.123.16-.277.3-.4.46-.262.315-.564.595-.9.83-.154.13-.283.285-.38.46-.125.158-.27.3-.427.423-.35.2-.66.473-.9.8-.32.255-.67.47-1.043.636-.2.08-.365.227-.466.417-.115.228-.316.3-.49.42-.37.204-.762.372-1.166.5-.407.155-.828.27-1.258.343-.447 0-.874-.234-1.31-.21-.452.022-.903-.058-1.32-.236-.34-.312-.737-.552-1.17-.708-.2-.1-.408-.22-.615-.335l-.574-.42 1.77-1.566.307.25c.114.064.224.134.33.21.115.066.237.117.364.154.15.003.297-.016.44-.056.266.053.52.155.75.3.278.087.57.132.862.134.15.016.31.11.474.137.16.017.32-.014.46-.09.278-.16.545-.337.8-.53.138-.067.237-.2.47-.073s.358.005.46-.123c.207-.28.248-.7.49-.85.145-.064.376-.045.473-.175.114-.113.18-.27.285-.387.1-.128.213-.243.342-.34.14-.093.31-.17.33-.36s0-.4.146-.5c.16-.107.328-.197.505-.27.074-.054.168-.1.207-.174.025-.084.063-.16.112-.233.15-.126.31-.237.482-.333.303-.22.487-.568.5-.942.045-.365.11-.727.192-1.085.13-.333.607-.54.44-.992.044-.37.12-.733.224-1.09l2.21.82z"/><path fill="#F16B42" d="M342.82 78.72c-.46 5.8-1.25 11.6-2.17 17.4-.77 4.88-1.63 9.75-2.46 14.61-.54 3.13-1.07 6.26-1.55 9.39-.24 1.56-.47 3.12-.69 4.69-.66 4.68-1.21 9.36-1.65 14.07v.01c-.47 4.98-.806 9.966-1.01 14.96-.13 3.19-.19 6.37-.2 9.56v.06c0 5.01.14 10.02.46 15 .22 3.47.53 6.94.92 10.39v.01c.42 3.76.954 7.506 1.6 11.24.48 2.84 1.04 5.67 1.66 8.48.13.6.26 1.2.4 1.8.53 2.27 1.45 4.79.42 6.88-4.01 8.14-28.2 28.44-52.7 28.42-21.87-.01-43.04-5.61-61.48-17.43-7.98-5.11-15.36-11.29-24-15.2-25.57-11.57-49.52 2.23-72.15 13.73-5.78 2.94-11.86 5.83-18.35 5.93-1.387.103-2.776-.185-4.01-.83-1.89-1.17-2.62-3.53-3.07-5.71-.04-.18-.07-.36-.1-.54-.793-4.238-1.247-8.532-1.36-12.84-.14-3.55-.11-7.11-.07-10.66.03-2.37.07-4.75.13-7.12v-.01c.09-4.468.218-8.93.38-13.39.17-5.19.4-10.39.67-15.57.25-4.87.538-9.74.86-14.61h.01c.3-4.43.634-8.864 1-13.3.09-1.22.2-2.45.3-3.67.2-2.29.46-5.86.78-10.18.29-3.96.63-8.54 1.02-13.32.37-4.39.77-8.95 1.21-13.34.35-3.45.72-6.79 1.11-9.87v-.01c.477-4.3 1.238-8.563 2.28-12.76.2-.74.457-1.463.77-2.16 1.39-2.92 4.01-5.08 6.72-6.85 8.28-5.4 18.07-8.09 27.87-9.32 16.89-2.11 35.12.79 51.05 6.78 9.57 3.6 18.57 8.58 28.13 12.19 37.71 14.23 83.63 4.93 111.26-24.46.546-.727 1.328-1.24 2.21-1.45 1.9-.21 2.88 2.17 3.17 4.05.536 3.503.863 7.036.98 10.58v.01c.163 4.788.047 9.583-.35 14.36z"/><path fill="#FFF" d="M333.29 153.85c-.13 3.19-.115 11.345-.115 11.345s-41.744 35.965-111.864-.5c-54.57-28.37-111.39-2.33-118.87 1.35.267-5.16.48-8.793.86-14.61h.01c9.02-4.02 67.6-27.76 125.84 4.53 53.96 29.924 100.17.535 104.14-2.116z"/><path fill="#FFF" d="M335.95 124.81c-.632 4.488-1.25 10.046-1.65 14.07v.01c-5.87 4.65-48.49 35.31-115.19 2.21-.2-.1-.41-.21-.62-.31l-.18-.09c-.51-.26-1.03-.51-1.54-.75-.4-.21-.8-.4-1.2-.58-9.148-4.35-18.783-7.592-28.7-9.66-1.17-.25-2.33-.47-3.49-.68-5.557-1.01-11.176-1.65-16.82-1.92-1.21-.07-2.42-.11-3.61-.14-5.348-.132-10.7.05-16.03.55-1.22.1-2.42.23-3.6.37-6.088.706-12.127 1.795-18.08 3.26-.48.11-.96.23-1.43.35-.67.18-1.32.35-1.96.52h-.02c-.16.05-.32.09-.48.13-5.823 1.56-11.52 3.563-17.04 5.99.09-1.22.2-2.45.3-3.67.2-2.29.46-5.86.78-10.18 1.09-.56 2.84-1.43 5.2-2.46 1.02-.43 2.14-.9 3.38-1.39h.01c26.285-10.148 55.217-11.17 82.15-2.9.3.09.59.18.89.28 6.458 2.013 12.756 4.506 18.84 7.46.55.27 1.1.54 1.66.82.19.09.38.19.57.29h.01c.48.24.97.49 1.45.74.53.28 1.07.56 1.6.84 58.63 31.29 105.64 3.06 114.8-3.16z"/><path fill="#FFF" d="M340.65 96.12c-.728 4.62-1.415 8.5-2.46 14.61-6.7 4.86-54.33 36.51-118.88 5.8-7.21-3.438-14.69-6.27-22.37-8.47-.19-.06-.39-.12-.58-.17-18.614-5.196-38.06-6.724-57.26-4.5-1.28.14-2.53.3-3.74.47-6.314.862-12.567 2.13-18.72 3.8-.103.037-.21.067-.32.09-5.02 1.39-8.45 2.66-9.91 3.22.37-4.39.77-8.95 1.21-13.34 5.443-1.854 11.024-3.272 16.69-4.24 1.41-.26 2.9-.51 4.47-.75h.01c5.63-.838 11.303-1.37 16.99-1.59 1.26-.05 2.55-.09 3.86-.11 6.25-.1 12.5.154 18.72.76 1.14.11 2.29.23 3.46.37 4.9.58 10 1.4 15.27 2.52 1.14.24 2.3.49 3.46.77 5.744 1.337 11.415 2.97 16.99 4.89 1.19.4 2.39.83 3.6 1.27 4.92 1.8 9.924 3.892 15.01 6.28 54.57 25.7 107-6.72 114.5-11.68z"/><path fill="#FFF" d="M342.82 78.72c-8.11 7.19-57.22 47.01-120.94 18.49-.86-.38-1.71-.77-2.57-1.18-.36-.17-.72-.34-1.08-.5-5.41-2.522-10.96-4.735-16.62-6.63h-.01c-1.3-.43-2.58-.85-3.86-1.23-5.13-1.576-10.34-2.88-15.61-3.91-1.17-.23-2.32-.44-3.47-.63-5.79-.997-11.632-1.654-17.5-1.97-1.29-.08-2.56-.13-3.81-.17-6.16-.185-12.33 0-18.47.55l-.89.09c-7.18.675-14.3 1.912-21.29 3.7-.094.017-.187.04-.28.07-4.41 1.15-7.1 2.13-7.69 2.35.477-4.3 1.238-8.563 2.28-12.76.84-.29 2.25-.76 4.18-1.32 1.3-.37 2.83-.79 4.59-1.22h.01c16.3-3.804 33.12-4.842 49.76-3.07.44.04.89.09 1.34.14 13.89 1.56 27.51 4.962 40.5 10.12.047.01.09.026.13.05h.01c2.668 1.05 5.358 2.2 8.07 3.45.07.02.138.05.2.09 1.44.66 2.89 1.35 4.35 2.07 60.81 30.09 113.93-16.3 119.02-20.94.242 4.788.125 9.588-.35 14.36zm-8.35 110.14v.01c-4.96 5.02-44.74 41.75-111.16.83-52.65-32.43-114.35.97-121.92 5.31.113-5.583.14-7.1.38-13.39 6.99-3.85 68.34-35.69 127.38-1.65 56.12 32.35 97.49 3.83 104.4-1.5.232 3.397.68 8.142.92 10.39z"/><path fill="#FFF" d="M337.73 208.59c-3.95 4.04-50.95 49.73-116.42 3.11-49.74-35.41-109.88 7.32-118.62 13.94-.9-4.222-1.356-8.525-1.36-12.84 8.81-6.2 69.73-46.17 125.82-8.83 58.14 38.72 103.7.8 108.92-3.86.52 3.002 1.207 6.355 1.66 8.48z"/><path fill="#5053AB" d="M223.59 153.06s-51.643-28.417-120.29-1.6c.013-.094.02-.187.02-.28.38-5.57.81-11.14 1.29-16.71.97-11.25 3.45-53.83 7.17-61.64 1.39-2.92 4.01-5.08 6.72-6.85 8.28-5.4 18.07-8.09 27.87-9.32 16.89-2.11 35.12.79 51.05 6.78 7.76 2.92 15.14 6.74 22.75 10.01 1.78.76 3.574 1.486 5.38 2.18 1.59.6 3.198 1.156 4.82 1.67-3.24 13.62-7.21 38.17-6.78 75.76z"/><path fill="#FFF" d="M137.213 61.677l.933 2.108 2.265.426-1.714 1.54.295 2.286-1.993-1.156-2.083.986.484-2.254-1.582-1.676 2.293-.236m24.012-4.402l.933 2.107 2.265.426-1.716 1.54.295 2.287-1.996-1.157-2.083.986.485-2.253-1.582-1.676 2.293-.237m-41.712 8.737l.933 2.107 2.265.426-1.716 1.54.295 2.285-1.992-1.157-2.083.987.484-2.253-1.583-1.676 2.292-.237m.395 12.995l.933 2.108 2.265.426-1.715 1.536.294 2.286-1.993-1.156-2.085.987.484-2.254-1.583-1.677 2.292-.236m23.014-6.4l.934 2.106 2.265.426-1.716 1.537.295 2.286-1.994-1.157-2.083.987.484-2.253-1.584-1.675 2.292-.237m22.015-5.402l.934 2.108 2.265.426-1.716 1.538.295 2.286-1.992-1.156-2.083.987.484-2.254-1.583-1.674 2.292-.236m22.234-.444l.933 2.108 2.265.426-1.716 1.54.295 2.284-1.992-1.156-2.082.987.483-2.254-1.583-1.674 2.293-.236m3.43-18.443l.934 2.107 2.265.426-1.718 1.54.295 2.285-1.994-1.157-2.082.987.484-2.253-1.582-1.676 2.293-.237m40.085 12.66l.932 2.107 2.265.426-1.716 1.538.297 2.288-1.993-1.156-2.083.988.484-2.254-1.582-1.676 2.294-.236m-.606 11.994l.934 2.107 2.265.426-1.718 1.54.295 2.287-1.994-1.157-2.083.986.485-2.253-1.582-1.676 2.293-.237m-17.18-25.143l.933 2.107 2.263.426-1.716 1.54.295 2.285-1.994-1.157-2.084.987.484-2.253-1.582-1.676 2.293-.237m-.7 14.174l.933 2.108 2.265.426-1.716 1.538.295 2.286-1.994-1.156-2.083.987.484-2.254-1.582-1.678 2.292-.236M128.68 73.844l.934 2.108 2.265.426-1.718 1.538.295 2.286-1.993-1.156-2.083.986.485-2.253-1.583-1.678 2.293-.236m19.15-6.63l.934 2.107 2.263.426-1.716 1.537.295 2.286-1.994-1.157-2.084.987.484-2.253-1.582-1.675 2.293-.237m24.64-3.173l.933 2.108 2.265.426-1.716 1.536.295 2.286-1.994-1.156-2.083.986.484-2.253-1.582-1.677 2.293-.236m42.297 9.41l.933 2.107 2.265.426-1.716 1.54.295 2.285-1.996-1.157-2.083.987.485-2.253-1.582-1.676 2.292-.237m-19.388-8.38l.933 2.107 2.265.426-1.716 1.538.293 2.288-1.994-1.156-2.084.988.484-2.254-1.58-1.676 2.292-.236m-74.945 26.418l.934 2.108 2.267.426-1.716 1.54.296 2.284-1.994-1.156-2.082.987.484-2.252-1.582-1.676 2.292-.235m23.7-5.203l.934 2.107 2.265.428-1.716 1.54.295 2.284-1.994-1.155-2.083.987.484-2.254-1.584-1.676 2.292-.236m22.578-5.836l.933 2.108 2.263.426-1.716 1.538.295 2.286-1.993-1.156-2.084.987.483-2.252-1.583-1.676 2.293-.235m20.376.787l.933 2.107 2.263.428-1.716 1.54.295 2.284-1.994-1.155-2.083.987.483-2.254-1.582-1.676 2.293-.236m42.313 7.257l.933 2.107 2.265.426-1.714 1.54.295 2.285-1.992-1.157-2.083.987.483-2.253-1.582-1.676 2.293-.237m-19.797-6.532l.933 2.108 2.265.426-1.714 1.536.295 2.286-1.993-1.156-2.083.986.484-2.253-1.582-1.677 2.293-.236M126.992 90.37l.933 2.11 2.266.425-1.716 1.538.294 2.286-1.993-1.158-2.083.987.484-2.255-1.582-1.676 2.292-.237m21.838-5.14l.933 2.11 2.263.425-1.716 1.538.295 2.286-1.994-1.156-2.084.987.484-2.254-1.582-1.678 2.293-.236m23.64-1.906l.933 2.11 2.265.425-1.716 1.538.295 2.286-1.994-1.158-2.083.987.484-2.255-1.582-1.676 2.293-.237m40.297 6.46l.933 2.108 2.265.428-1.716 1.538.295 2.286-1.996-1.155-2.083.986.485-2.252-1.582-1.675 2.292-.236m-19.388-7.447l.933 2.108 2.265.428-1.716 1.538.293 2.286-1.994-1.155-2.084.987.484-2.254-1.58-1.676 2.292-.236m-74.618 26.315l.934 2.107 2.265.426-1.716 1.54.295 2.285-1.994-1.155-2.083.987.484-2.252-1.584-1.676 2.292-.237m23.016-5.404l.933 2.108 2.265.428-1.716 1.538.295 2.286-1.992-1.155-2.083.986.484-2.252-1.583-1.675 2.293-.236m22.082-4.397l.933 2.108 2.265.428-1.716 1.54.295 2.284-1.996-1.155-2.083.987.485-2.254-1.582-1.676 2.293-.236m20.23.407l.933 2.108 2.263.426-1.716 1.536.295 2.286-1.994-1.156-2.083.986.483-2.253-1.582-1.677 2.293-.236m43.64 3.398l.933 2.107 2.265.426-1.716 1.54.295 2.285-1.993-1.156-2.083.986.485-2.253-1.582-1.676 2.293-.236m-20.123-6.125l.933 2.107 2.265.426-1.714 1.54.295 2.285-1.993-1.155-2.083.987.484-2.252-1.582-1.676 2.293-.237m-69.457-11.434l.933 2.107 2.266.426-1.716 1.54.294 2.285-1.993-1.155-2.083.987.484-2.253-1.582-1.677 2.292-.235m20.838-3.218l.933 2.107 2.263.426-1.716 1.538.295 2.288-1.994-1.156-2.084.987.484-2.254-1.582-1.676 2.293-.236m23.64-2.82l.933 2.108 2.265.426-1.716 1.538.295 2.286-1.994-1.156-2.083.986.484-2.253-1.582-1.678 2.293-.236m41 4.627l.932 2.108 2.265.428-1.716 1.54.295 2.284-1.992-1.155-2.083.987.484-2.254-1.583-1.676 2.293-.236m-19.78-6.878l.932 2.107 2.265.426-1.716 1.538.297 2.288-1.994-1.156-2.082.987.484-2.254-1.582-1.676 2.294-.236m-73.62 28.106l.934 2.107 2.265.426-1.716 1.54.293 2.285-1.994-1.157-2.084.99.484-2.254-1.58-1.676 2.292-.238m23.77-6.242l.934 2.108 2.265.426-1.714 1.54.295 2.285-1.993-1.16-2.083.988.484-2.254-1.582-1.676 2.293-.237m21.23-3.98l.934 2.108 2.265.426-1.718 1.54.295 2.285-1.994-1.16-2.082.988.484-2.254-1.582-1.676 2.293-.237m19.713-2.02l.933 2.108 2.267.426-1.716 1.54.296 2.285-1.993-1.16-2.083.988.482-2.254-1.582-1.676 2.293-.237m43.25 5.262l.932 2.108 2.265.425-1.715 1.54.294 2.285-1.995-1.156-2.083.986.484-2.253-1.582-1.676 2.292-.234m-18.433-7.823l.933 2.107 2.265.426-1.714 1.54.295 2.285-1.993-1.155-2.083.987.484-2.252-1.582-1.676 2.293-.237m-71.817-8.557l.933 2.106 2.265.426-1.714 1.54.295 2.284-1.993-1.156-2.083.987.484-2.254-1.582-1.676 2.292-.236m22.837-5.2l.933 2.107 2.265.426-1.716 1.54.295 2.285-1.994-1.157-2.082.99.483-2.255-1.584-1.675 2.293-.238m20.702-2.782l.933 2.108 2.265.426-1.716 1.54.295 2.285-1.996-1.16-2.083.988.485-2.255-1.582-1.676 2.293-.237m43.596 2.19l.933 2.108 2.265.426-1.716 1.54.295 2.285-1.996-1.16-2.083.988.485-2.254-1.582-1.676 2.292-.237m-21.075-3.61l.932 2.108 2.265.426-1.716 1.54.297 2.285-1.994-1.158-2.082.986.484-2.254-1.582-1.676 2.294-.236"/></svg>