<svg xmlns="http://www.w3.org/2000/svg" viewBox="0 0 385.884 396.805"><path fill="#E8EAF2" d="M252.536 290.215c.258-.56.65-1.05 1.14-1.422.295-.114.557-.296.766-.53.216-.257.48-.47.776-.626.598-.243 1.257-.296 1.887-.152.894.177 1.737.553 2.466 1.1.216.208.417.43.6.665.38.454.633 1 .73 1.585.07.276.154.535.24.8.064.257.09.522.075.787-.032.27-.057.527-.113.793-.04.26-.04.536-.08.816-.167.55-.49 1.04-.93 1.41-.096.104-.2.2-.313.284-.103.11-.197.226-.28.35-.183.24-.435.42-.723.515-.532.22-1.103.336-1.68.342-.57.032-1.14-.026-1.69-.173-.498-.287-.975-.604-1.43-.952-.525-.295-.953-.735-1.235-1.266-.106-.293-.136-.612-.223-.89s-.163-.567-.243-.86c-.115-.58-.13-1.178-.05-1.765l2.28.62c-.048.302-.055.608-.02.912.018.134.063.265.133.382.096.11.218.196.356.247.166.215.316.443.447.682.224.235.494.42.794.542.143.093.287.222.45.315.162.072.344.094.52.063.32-.07.625-.196.9-.375.135-.048.2-.17.417-.048.238.134.335-.012.378-.146.1-.3-.09-.612.01-.8.072-.1.272-.2.25-.366.03-.143-.065-.318-.062-.472-.028-.165-.042-.332-.043-.5.01-.144.074-.33-.094-.42-.15-.1-.322-.14-.346-.282s-.02-.333-.06-.514c-.01-.087-.05-.166-.116-.225-.068-.046-.15-.068-.2-.14-.113-.12-.19-.323-.315-.482-.106-.166-.276-.28-.47-.314-.18-.055-.374-.06-.557-.013-.177.027-.352.07-.522.128-.146.077-.298.144-.453.2-.147.04-.323.013-.487.05-.08.013-.158.044-.226.09-.048.077-.085.16-.107.248l-.235.4c-.05.147-.114.29-.19.426l-2.122-1.025zM363.548 372.324c.15.537.263 1.083.342 1.634-.224.586.312 1.07.453 1.642.056.562.036 1.13-.06 1.687-.124.55-.28 1.088-.382 1.63-.292 1.063-.78 2.062-1.435 2.947-.16.214-.287.45-.378.7-.115.24-.25.47-.406.685-.38.37-.687.81-.9 1.3-.307.43-.72.774-1.06 1.173-.442.3-.468 1.01-.884 1.362-.368.393-.772.753-1.167 1.128-.447.3-.816.74-1.285 1.03-.53.15-1.05.345-1.55.58-.484.262-.995.47-1.525.618-.282-.023-.565-.02-.846.013-.27.054-.533.13-.79.225l-1.633.35-.044-2.36c.45-.065.89-.145 1.336-.185.22-.05.436-.116.647-.194.206-.104.404-.222.593-.355.41-.186.85-.297 1.3-.327.435-.13.834-.348 1.263-.51.208-.1.45-.14.676-.22.216-.09.413-.22.582-.383.32-.353.586-.754.9-1.086.158-.17.253-.394.57-.4s.454-.215.573-.42c.2-.455.233-1 .547-1.333.165-.16.426-.26.528-.47.13-.19.2-.417.32-.61.095-.21.21-.408.344-.595.18-.155.302-.364.35-.595-.05-.237-.02-.484.092-.7.155-.196.326-.378.513-.544.08-.09.138-.194.177-.307.008-.116.032-.23.07-.34.13-.217.28-.423.442-.616.233-.424.32-.913.25-1.392-.096-.463-.165-.93-.21-1.4.317-.957-.367-1.81-.565-2.662l2.253-.702zM78.826 132.257c-.557.02-1.114.005-1.67-.047-.517-.354-1.113.055-1.7.06-.56-.076-1.106-.227-1.626-.45-.506-.25-.993-.525-1.5-.75-.965-.532-1.823-1.237-2.532-2.08-.173-.206-.375-.385-.6-.532-.206-.168-.397-.353-.572-.553-.27-.46-.63-.862-1.058-1.183-.347-.4-.586-.882-.9-1.3-.186-.5-.874-.69-1.12-1.177-.3-.45-.552-.926-.825-1.4-.193-.5-.53-.965-.7-1.488-.024-.552-.092-1.1-.206-1.64-.14-.533-.224-1.08-.246-1.63.09-.267.15-.544.186-.824.01-.274-.002-.548-.035-.82l.04-1.67 2.307.5c-.042.452-.067.9-.132 1.343-.002.226.01.45.038.675.052.226.122.447.207.66.086.443.09.896.017 1.34.024.453.145.892.2 1.347.045.224.034.47.058.71.038.23.12.452.238.654.27.394.6.746.847 1.128.127.193.323.338.26.65-.048.253.06.51.276.653.4.3.923.46 1.17.843.116.2.153.475.332.623.156.17.36.29.52.454.182.14.35.3.5.472.138.19.263.406.5.48.25.05.517.065.66.25.156.197.293.406.41.626.07.097.158.18.26.243.11.036.216.085.314.148.18.177.35.368.5.572.36.327.816.526 1.3.566.473.016.944.056 1.412.122.857.53 1.845.063 2.72.07l.152 2.36zM270.002 11.05c-.228.367-.406.764-.53 1.18-.11.446-.164.905-.157 1.365.026.478.05.98.094 1.5.11.517.3 1.012.565 1.47.56.94 1.085 1.807 1.64 2.865.543 1.084.993 2.214 1.343 3.375.388 1.27.524 2.604.4 3.927-.073.71-.267 1.402-.573 2.047-.335.712-.87 1.312-1.54 1.728-1.207.776-2.66 1.074-4.077.836-.757-.112-1.458-.465-2-1.005-.555-.58-.876-1.346-.9-2.15v-.07l.014-.076c.14-.907.54-1.755 1.154-2.438.6-.645 1.354-1.127 2.19-1.4.79-.276 1.61-.452 2.444-.524.83-.095 1.67-.025 2.472.206.813.215 1.58.575 2.265 1.063.657.494 1.267 1.047 1.823 1.652 1.188 1.13 2.073 2.54 2.573 4.1.524 1.49.938 3.017 1.24 4.568.34 1.478.57 2.98.686 4.49.187 1.442.582 2.848 1.17 4.176.285.646.634 1.243.94 1.86.286.628.683 1.2 1.17 1.69l-.783-.253c.444-.058.878-.177 1.29-.354.363-.18.55-.4.57-.537.006-.018.02-.135 0-.037-.005.068.006.136.03.2.06.1.03.057-.052.05s-.193.013-.082 0c.083-.01.26-.09.42-.365.054-.104.08-.22.077-.338.01-.047.005-.096-.014-.14l-2.24.752c-.05-.172-.083-.348-.1-.527-.008-.252.042-.503.147-.733.2-.427.574-.747 1.026-.882.5-.143 1.03-.127 1.52.045.537.165.994.52 1.286 1 .186.314.275.675.258 1.04-.01.274-.07.545-.176.8-.35.785-.997 1.4-1.8 1.708-.588.242-1.203.415-1.83.515l-.62.107-.465-.458c-.638-.592-1.24-1.22-1.8-1.885-.49-.7-.887-1.46-1.18-2.26-.497-1.54-.87-3.12-1.118-4.72-.127-.773-.247-1.54-.328-2.306-.055-.772-.085-1.525-.16-2.27-.21-1.45-.612-2.865-1.192-4.21-.29-.65-.577-1.286-.907-1.88-.158-.3-.362-.57-.492-.884s-.24-.65-.4-.954c-.177-.29-.41-.542-.686-.74l-.395-.31c-.13-.087-.274-.147-.407-.22-.562-.25-1.16-.413-1.772-.48l-1.832-.2c-.615-.067-1.237.045-1.79.322-.262.117-.51.264-.738.438l-.33.24-.275.278c-.336.387-.59.84-.742 1.33l.015-.232c-.017.235.133.45.36.512.2.06.45.166.815.26.8.277 1.685.18 2.407-.265.3-.24.572-.514.808-.817.27-.394.462-.835.568-1.3.17-1.035.032-2.097-.4-3.053-.424-1.018-.926-2.002-1.5-2.944-.262-.49-.565-.982-.813-1.533-.24-.55-.437-1.12-.592-1.7-.167-.583-.306-1.173-.5-1.762-.227-.598-.362-1.227-.4-1.866-.043-.676.005-1.354.143-2.017.162-.69.444-1.345.833-1.937l1.932 1.333zM92.093 28.422c.65 1.974 1.012 4.03 1.08 6.108-.15 2.058.16 4.133-.144 6.22-.753 4.135-2.625 7.987-5.412 11.134l-.513.593c-.2.2-.384.4-.59.587-.397.373-.82.718-1.266 1.032-.885.603-1.83 1.113-2.82 1.522-1.976.89-4.166 1.2-6.312.892-.554-.105-1.098-.26-1.625-.46-.542-.228-1.043-.542-1.484-.93-.84-.814-1.38-1.886-1.532-3.044-.128-1.058-.09-2.13.116-3.175.097-1.124.51-2.198 1.19-3.1.436-.513 1.06-.83 1.73-.883.615-.03 1.226.097 1.777.367.97.49 1.827 1.176 2.515 2.016.65.82 1.258 1.675 1.82 2.56.57.912.952 1.93 1.124 2.992.21 1.097.206 2.225-.015 3.32-.064.277-.152.55-.23.826-.11.264-.214.538-.333.793-.244.492-.523.965-.836 1.415-1.256 1.74-2.882 3.18-4.76 4.217-.926.466-1.86.885-2.792 1.257s-1.864.725-2.75 1.145c-.882.4-1.808.8-2.606 1.237-.82.433-1.59.953-2.36 1.462-3.224 1.793-5.454 5.737-4.08 8.71l-2.2.85c-.423-1.105-.585-2.292-.474-3.47.122-1.142.478-2.247 1.045-3.247.518-.963 1.156-1.857 1.9-2.66.692-.82 1.45-1.584 2.262-2.284 1.693-1.227 3.565-2.185 5.55-2.838 1.81-.664 3.578-1.44 5.29-2.327.836-.392 1.64-.852 2.4-1.375.725-.525 1.347-1.18 1.835-1.93.248-.36.462-.74.64-1.14l.208-.57.135-.587c.12-.814.1-1.643-.057-2.45-.137-.838-.5-1.613-.67-2.5-.1-.44-.268-.862-.5-1.247-.26-.36-.548-.7-.86-1.018-.558-.593-1.254-1.04-2.025-1.3-.24-.08-.495-.104-.746-.072-.125.054-.238.133-.332.23-.497.507-.796 1.175-.842 1.883-.136.833-.126 1.683.03 2.512.106.69.414 1.33.884 1.845.237.248.514.453.82.607.353.15.73.23 1.113.24.83-.05 1.657-.15 2.476-.294.884-.12 1.755-.313 2.607-.573.432-.144.85-.327 1.248-.548.388-.238.75-.51 1.123-.762.775-.483 1.492-1.053 2.137-1.7 1.35-1.357 2.4-2.98 3.084-4.768.703-1.762 1.21-3.597 1.514-5.47.528-1.826.683-3.74.456-5.628-.195-1.867-.595-3.707-1.194-5.487l2.247-.735zM287.728 334.986c.11.755-.32 1.617.408 2.286.16.353.252.734.27 1.12.094.376.154.77.278 1.144l.22.55c.06.19.1.4.16.59.17.38.303.777.4 1.183.09.187.21.357.362.5.13.16.244.335.34.52.184.38.46.704.805.947.305.285.595.585.868.9.27.34.894.2 1.186.477.382.158.74.344 1.1.518s.8.19 1.145.375c.356.157.66.5 1.06.57.4.014.796.087 1.174.216.73.528 1.594.152 2.348.057l.146 2.357c-.482.024-.97.066-1.457.068-.497-.08-1.006-.05-1.49.09-.49-.08-.964-.238-1.4-.472-.434-.242-.896-.382-1.33-.595-.7-.784-1.67-.88-2.567-1.295-.194-.138-.442-.21-.5-.526s-.274-.416-.5-.514c-.48-.14-.932-.36-1.337-.654-.13-.216-.172-.506-.354-.662-.16-.178-.37-.31-.535-.485-.156-.183-.294-.382-.41-.593-.068-.236-.208-.444-.4-.595-.216-.14-.457-.277-.525-.52-.07-.246-.117-.5-.137-.755-.01-.124-.036-.245-.08-.36-.073-.096-.132-.2-.176-.31-.047-.247-.07-.496-.07-.746 0-.48-.157-.945-.447-1.326-.222-.425-.418-.863-.586-1.312-.07-.482.235-.985-.137-1.426-.1-.475-.16-.957-.187-1.44l2.355.116zM195.884 265.325c-.476-1.1-.93-2.21-1.33-3.343-.208-1.213-1.187-2.1-1.67-3.2-.513-1.087-.964-2.202-1.352-3.34-.4-1.13-.814-2.26-1.258-3.373l-.488-1.226 1.213-.447c1.1-.407 2.24-.743 3.353-1.14.56-.192 1.11-.41 1.675-.594s1.132-.37 1.677-.6c1.06-.53 2.12-1.056 3.213-1.526 1.075-.504 2.114-1.082 3.11-1.728l.644-.366.336.633c.57 1.215 1.214 2.395 1.927 3.532.458.5.858 1.048 1.192 1.638l1.054 1.716c.687 1.153 1.366 2.31 2.1 3.437.365.565.685 1.157.96 1.77.25.624.537 1.233.856 1.825l.62 1.1-1.194.388c-.874.284-1.716.66-2.582.97-.43.16-.87.298-1.317.41-.452.1-.915.163-1.355.3-1.753.552-3.43 1.332-5.144 2l-.758-2.237 2.592-.94c.868-.3 1.736-.6 2.587-.958.424-.18.828-.42 1.246-.62.424-.18.86-.333 1.3-.46.883-.26 1.78-.478 2.67-.716l-.745 1.924c-.58-1.21-1.3-2.346-1.777-3.615-.236-.63-.537-1.232-.9-1.8-.34-.577-.713-1.137-1.093-1.693s-.762-1.11-1.092-1.695c-.165-.292-.36-.568-.5-.873-.114-.327-.205-.662-.272-1-.65-1.183-1.412-2.3-2.273-3.34l2.025.554c-.492.368-1.048.643-1.64.81-.554.25-1.09.54-1.606.863-1.05.613-2.153 1.136-3.294 1.56-.553.25-1.02.685-1.565.963-.557.258-1.144.445-1.748.554-.604.103-1.19.285-1.747.542-.567.227-1.16.387-1.764.475l.53-1.22c.246 1.18.668 2.318 1.25 3.375.537 1.076 1.135 2.126 1.637 3.216.52 1.083.58 2.357 1.327 3.346.558 1.067 1.07 2.153 1.552 3.25l-2.182.9zM334.557 12.222c.77-.264 1.55-.5 2.346-.69.86.013 1.465-.77 2.234-1.04.76-.302 1.54-.54 2.34-.713.794-.19 1.587-.387 2.368-.618l1.266-.375.34 1.24c.21.766.338 1.558.517 2.34.083.39.193.775.265 1.174.064.4.15.793.26 1.18.314.74.588 1.496.82 2.264.113.387.256.764.43 1.127.21.344.395.702.555 1.07l.26.7-.61.255c-.866.29-1.705.655-2.506 1.093-.336.322-.723.587-1.145.784l-1.21.642c-.814.412-1.635.808-2.424 1.276-.396.227-.818.407-1.257.536-.444.11-.88.256-1.3.436l-1.15.533-.28-1.23c-.138-.61-.372-1.195-.536-1.8-.09-.3-.152-.607-.19-.918-.006-.317-.03-.633-.074-.947-.26-1.222-.753-2.387-1.135-3.58l2.293-.564.508 1.8c.156.6.314 1.21.522 1.8.108.3.278.575.406.865.11.293.19.594.244.9.113.616.184 1.242.275 1.863l-1.854-.9c.84-.368 1.7-.68 2.577-.937.45-.092.883-.254 1.283-.48.41-.2.8-.438 1.193-.68s.78-.49 1.193-.682c.2-.11.407-.207.618-.293.24-.04.482-.06.725-.053.905-.207 1.547-1 2.34-1.464l-.73 1.983c-.235-.354-.378-.76-.418-1.184-.116-.4-.28-.787-.49-1.148-.374-.745-.66-1.53-.853-2.342-.193-.378-.406-.745-.638-1.1-.138-.402-.21-.823-.21-1.248.008-.423-.066-.843-.22-1.237-.122-.403-.177-.825-.16-1.246l1.172.632c-.826.027-1.636.235-2.372.61-.75.326-1.483.715-2.245 1.006-.756.31-1.665.144-2.347.687-.744.348-1.5.65-2.273.92l-.72-2.243zM18.018 12.89c-.164-.538-.398-1.053-.694-1.532-.14-.66-.95-.75-1.462-.99-1.033-.65-2.178-1.105-3.377-1.34-.335-.06-.666-.1-1-.137-.334-.037-.65-.107-.972-.133-.574-.048-1.152-.024-1.72.074-.192.04-.347.182-.4.37-.075.195-.104.403-.086.61.028.63.287 1.227.728 1.68.38.565.793 1.108 1.235 1.628.41.582 1.26.678 1.746 1.15.572.38 1.155.738 1.743 1.066.586.296 1.194.55 1.817.76.494.33 1.063.53 1.655.583.21 0 .418-.058.6-.165.117-.076.225-.164.323-.263.19-.143.324-.347.38-.577.046-.295.043-.595-.01-.89-.12-.642-.288-1.275-.507-1.892zm2.295-.557c.225.77.37 1.564.427 2.365.03.447.022.895-.02 1.34-.027.553-.15 1.097-.364 1.607-.326.586-.85 1.036-1.48 1.268-.538.19-1.112.254-1.68.19-.88-.096-1.737-.332-2.542-.7-.35-.196-.685-.42-1-.67-.325-.21-.664-.4-1.015-.564-.703-.33-1.38-.708-2.03-1.13-.3-.237-.67-.412-.807-.837-.145-.37-.41-.68-.755-.88-.712-.405-1.338-.944-1.844-1.588-.188-.385-.28-.818-.486-1.212-.23-.427-.405-.883-.518-1.356-.117-.62-.04-1.26.223-1.83.34-.545.79-1.01 1.326-1.364.376-.358.857-.587 1.372-.655.443-.018.886.028 1.315.137.197.047.398.076.6.085.195-.015.39-.013.586.006.383.086.756.21 1.115.368.744.24 1.504.422 2.276.545.796.157 1.56.448 2.26.86.69.484 1.034 1.277 1.77 1.75.6.64 1.035 1.417 1.27 2.263zM378.583 131.08c.153.554.27 1.118.353 1.688-.224.6.313 1.11.456 1.7.054.582.033 1.168-.065 1.744-.13.568-.29 1.125-.4 1.685-.308 1.096-.81 2.128-1.484 3.046-.165.222-.298.467-.395.726-.127.243-.268.48-.422.707-.393.387-.712.844-.94 1.346-.323.443-.75.8-1.1 1.21-.46.306-.5 1.04-.94 1.39-.386.4-.793.786-1.21 1.164-.463.312-.852.755-1.338 1.05-.548.157-1.083.356-1.6.596-.504.264-1.036.472-1.585.622-.29-.023-.583-.02-.873.01-.278.054-.552.13-.82.224l-1.692.338-.02-2.362c.468-.06.93-.138 1.393-.175.23-.047.453-.13.677-.194.216-.102.425-.22.625-.35.428-.19.884-.305 1.35-.344.457-.12.87-.354 1.318-.517.216-.1.466-.15.7-.23.222-.1.425-.234.6-.4.347-.35.616-.777.96-1.1.166-.174.258-.416.585-.428.266-.017.497-.187.594-.435.122-.486.32-.95.588-1.372.175-.163.43-.278.546-.49.132-.2.22-.426.34-.63.107-.213.227-.42.357-.62.185-.16.314-.377.368-.617-.05-.247-.014-.503.1-.727.16-.204.335-.393.526-.567.08-.096.14-.204.18-.32.012-.12.038-.24.078-.354.132-.225.283-.44.45-.64.237-.442.33-.947.267-1.445-.097-.48-.167-.967-.21-1.456-.045-.464.26-.993-.09-1.43-.195-.433-.36-.88-.488-1.34l2.26-.705zM323.387 285.5c-.047-1.384.114-2.766.478-4.1l.3-.985.37-.958c.294-.617.634-1.212 1.017-1.778.7-1.182 1.494-2.305 2.374-3.358.947-1.046 2.08-1.905 3.344-2.533 5.204-2.36 11.3-1.516 15.668 2.17l.528.478-.12.606c-.31 1.655-.95 3.23-1.88 4.633-.49.736-1.12 1.37-1.854 1.862-.78.533-1.71.81-2.655.793-.468-.01-.933-.082-1.38-.217-.443-.156-.86-.375-1.24-.65-.71-.55-1.264-1.28-1.6-2.113-.344-.795-.516-1.654-.504-2.52.022-.84.172-1.67.444-2.463.508-1.565 1.405-2.976 2.607-4.1 1.19-1.077 2.557-1.944 4.04-2.56.73-.318 1.483-.542 2.228-.785.748-.228 1.477-.55 2.234-.746 1.515-.384 3.047-.584 4.542-.838s2.972-.472 4.382-.844c1.393-.347 2.738-.863 4.006-1.537 2.426-1.278 4.737-3.158 4.9-5.936.173-1.284-.057-2.59-.658-3.74-.557-1.033-1.492-2.093-2.674-2.054-1.256.02-2.436.602-3.218 1.584-.368.433-.61.958-.705 1.52-.064.473.052.954.326 1.346l-1.983 1.283c-.58-.9-.802-1.985-.62-3.04.185-.972.63-1.875 1.286-2.614 1.258-1.45 3.08-2.284 5-2.293.51.015 1.02.096 1.51.24l.736.284c.224.112.425.24.638.365.83.525 1.525 1.24 2.024 2.087.854 1.65 1.14 3.534.812 5.362-.3 1.765-1.074 3.415-2.242 4.772-1.115 1.28-2.507 2.287-4.07 2.948-1.492.6-3.02 1.104-4.575 1.512-1.538.388-3.07.71-4.575.977s-2.985.512-4.428.757c-.734.023-1.466.098-2.19.226-.687.2-1.357.46-2 .78-1.2.666-2.29 1.516-3.228 2.52-.943.883-1.702 1.944-2.232 3.122-.185.586-.27 1.2-.246 1.815.037.58.172 1.147.4 1.68.49 1.035 1.233 1.835 2.245 1.793.486-.056.937-.284 1.27-.643.435-.388.832-.815 1.186-1.277.866-1.048 1.443-2.303 1.677-3.642l.382 1.015c-.9-.735-1.858-1.394-2.865-1.973-1.045-.583-2.195-.955-3.384-1.095-2.37-.262-4.764.216-6.852 1.37-1.012.568-1.964 1.238-2.842 2-.927.732-1.7 1.642-2.274 2.676l-.358.81c-.106.275-.19.557-.315.82l-.292.824-.233.84c-.27 1.118-.372 2.272-.3 3.42l-2.363.097zM158.843 20.49c-.112.357-.256.704-.43 1.035-.4.25-.085.776-.148 1.168-.257.744-.628 1.443-1.1 2.072l-.324.5c-.122.16-.276.3-.4.46-.26.315-.563.595-.9.83-.153.13-.282.285-.38.46-.124.158-.268.3-.426.423-.353.2-.66.473-.9.8-.32.255-.67.47-1.045.636-.2.08-.366.227-.467.417-.116.23-.317.3-.49.42-.372.206-.763.374-1.167.5-.407.157-.828.272-1.258.345-.447 0-.874-.234-1.31-.21-.452.022-.903-.058-1.32-.236-.34-.313-.737-.553-1.17-.71-.2-.1-.408-.217-.615-.332l-.575-.42 1.77-1.566.307.25c.114.065.224.135.33.212.115.065.237.116.364.153.148.003.296-.016.44-.056.265.055.518.157.748.3.28.09.57.134.863.136.15.016.313.11.476.137.16.017.32-.014.46-.09.278-.16.545-.337.8-.53.138-.067.237-.2.47-.073s.358.005.46-.123c.207-.28.248-.7.49-.85.145-.064.376-.045.473-.175.113-.112.18-.27.284-.386.098-.128.212-.243.34-.34.142-.093.312-.17.332-.36s0-.4.145-.5c.16-.107.33-.197.506-.27.074-.054.168-.1.207-.174.025-.083.063-.16.112-.232.15-.126.31-.237.482-.333.303-.22.487-.568.5-.942.045-.365.11-.727.192-1.085.13-.333.606-.54.44-.992.043-.37.118-.733.223-1.09l2.21.82z"/><path fill="#4A6DB2" d="M290.344 249.135c-21.873-.017-43.04-5.61-61.477-17.43-7.984-5.118-15.365-11.29-24.005-15.2-25.57-11.576-49.517 2.232-72.146 13.727-5.785 2.938-11.866 5.832-18.354 5.928-1.385.105-2.77-.182-4-.83-1.9-1.163-2.62-3.53-3.07-5.708-1.63-7.88-1.636-15.995-1.53-24.04.293-22.585 1.41-45.14 3.346-67.665.968-11.252 3.453-53.836 7.165-61.64 1.393-2.927 4.01-5.083 6.725-6.855 8.274-5.4 18.065-8.088 27.87-9.316 16.886-2.114 35.122.786 51.05 6.78 9.566 3.6 18.567 8.575 28.13 12.185C267.753 93.31 313.67 84 341.305 54.618c.545-.73 1.33-1.245 2.215-1.455 1.894-.206 2.877 2.173 3.167 4.055 3.394 22.037-2.14 44.316-5.55 66.35-4.627 29.92-5.305 60.764 1.494 90.267.523 2.266 1.447 4.794.42 6.88-4.017 8.134-28.21 28.44-52.706 28.42z"/><path fill="#FFF" d="M204.823 127.842c26.558 7.868 45.884 25.307 74.413 28.017 23.055 2.19 41.267-5.732 60.91-16.9-2.523 9.54-2.41 19.56-1.293 29.37.217 1.072.17 2.18-.137 3.232-.45.93-1.135 1.725-1.988 2.307-28.193 22.393-76.076 11.848-104.694-3.708-13.645-7.417-26.22-15.58-41.464-18.993-48.468-10.85-82.21 22.505-83.628 20.87-.648-.975-.923-2.153-.774-3.315.12-9.068.68-11.382 1.684-20.394.06-1.002.28-1.988.652-2.92.688-1.252 1.67-2.318 2.86-3.107 17.823-13.66 52-26.74 93.46-14.46z"/><path fill="#FFF" d="M214.635 222.932c.392 2.82 24.572 18.808 27.42 16.27.838-.957 1.313-2.177 1.345-3.447 5.06-36.682 5.98-73.64 7.49-110.567.322-7.863.58-15.727.775-23.594.117-4.73 1.734-13.748-1.69-17.653-1.036-1.18-2.74-1.437-4.29-1.672-4.74-.718-9.396-1.905-13.9-3.543-1.666-.606-7.807-4.5-9.484-3.083-.493.416-.79 13.612-.647 19.448 1.505 62.238-7.165 126.784-7.018 127.842zM177.423 103.517c-2.564.274-5.156-.19-7.72-.286l-8.8-.334c-.758-.03-9.118-.36-9.112-.42.112-1.172.222-2.4.23-3.575 0 0 3.96.136 4.383.152l11.935.454c3.048.116 6.073.148 9.118.217.122-.01.243.02.347.084.235 1.217.207 2.47-.083 3.675-.1.013-.2.025-.297.035z"/><path fill="#FFF" d="M172.904 110.752c-.016.322-.383.58-.716.7-1.576.637-3.378.293-4.61-.88l-.183-.138-5.8-.22-.193.123c-1.97 1.264-2.846 1.04-4.99.083-.236-.105-.516-.292-.457-.542 4.605-1.42 7.64-5.807 7.35-10.617-.507-6.105-3.6-11.776-3.744-17.893-.14-5.386 2.05-10.57 6.008-14.225 2.718-2.437 5.71 7.7 5.936 9.226.53 4.225.024 8.515-1.474 12.5-1.213 3.41-2.9 6.93-3.482 10.51-.365 1.87-.138 3.806.648 5.54.558 1.107 1.298 2.11 2.19 2.97.676.675 2.53 2.72 3.5 2.72.014.046.02.095.018.144z"/><path fill="#FFF" d="M165.643 105.713c2.6 2.79 1.98 7.23-.592 9.85-.09.11-.208.192-.342.24-.23.022-.46-.06-.622-.226-2.832-2.21-3.335-6.3-1.125-9.13.227-.29.477-.56.75-.807l1-.924.933.997zM180.685 98.202c-.096-.11-.14-.256-.118-.4.05-.24.17-.46.342-.637.383-.534-.096-1.638-.366-2.148-.2-.374-.456-.714-.763-1.006-.282-.267-.603-.493-.95-.668-.987-.558-2.186-.59-3.2-.086-2.034 1.106-3.23 3.3-3.915 5.5-.323.75-.48 1.563-.456 2.38-.996-.1-1.995-.14-2.995-.122.155-2.618 1.613-5.686 2.553-8.146 1.766-4.626 5.678-10.3 11.465-7.383 3.476 1.742 4.88 5.972 3.14 9.448-.44.876-1.057 1.65-1.813 2.275-.275.234-2.397 1.525-2.925.994zM149.36 97.332l.077-.006c.033-.84-.468-1.43-.247-2.318.305-1.22 1.174-2.224 2.34-2.7 1.394-.657 3.052-.357 4.127.748 1.647 1.47 2.137 3.8 2.537 5.963.14.532.227 1.077.262 1.627.006-.4 3.247 1 2.94-.5-.517-2.87-1.25-5.698-2.192-8.46-.843-2.28-2.116-5.314-4.083-6.885-1.896-1.29-4.323-1.513-6.424-.592-3.602 1.46-5.338 5.565-3.877 9.167.37.912.926 1.737 1.634 2.42.714.892 1.766 1.448 2.905 1.535zM311 132.093c-2.872.427-5.816.052-8.708.074l-9.935.075c-.857.006-10.29.063-10.288 0 .06-1.282.117-2.626.062-3.908l4.945-.055 13.467-.1c3.44-.027 6.848-.143 10.282-.22.138-.018.278.008.4.074.34.238.364 3.967.107 4.01l-.332.05z"/><path fill="#FFF" d="M306.305 140.207c0 .352-.4.652-.768.8-1.743.772-3.773.49-5.24-.728l-.214-.143-6.55.05-.21.144c-2.15 1.478-3.15 1.277-5.617.34-.27-.1-.6-.29-.545-.567 5.05-1.685 8.25-6.65 7.7-11.942-.9-6.63-4.69-12.66-5.192-19.32-.438-5.897 1.76-11.685 6-15.806 2.93-2.793 6.85 8.113 7.188 9.762.827 4.577.49 9.287-.98 13.7-1.18 3.78-2.886 7.7-3.348 11.632-.308 2.062.054 4.167 1.032 6.008.693 1.183 1.582 2.24 2.628 3.127.8.7 3 2.838 4.092 2.79.017.05.025.102.025.154z"/><path fill="#FFF" d="M297.852 135.076c3.08 2.91 2.625 7.782-.13 10.77-.097.123-.226.22-.373.275-.26.038-.52-.04-.714-.213-1.765-1.22-2.896-3.163-3.087-5.3-.136-2.06.64-4.078 2.12-5.518l1.082-1.058 1.1 1.044zM314.385 126.136c-.112-.114-.17-.27-.154-.43.047-.266.17-.513.352-.71.4-.6-.2-1.782-.528-2.324-.246-.4-.554-.758-.914-1.06-.335-.28-.708-.508-1.11-.68-1.14-.557-2.48-.532-3.6.066-2.23 1.307-3.454 3.76-4.108 6.192-.323.833-.454 1.728-.384 2.618-1.126-.06-2.254-.053-3.38.016.033-2.862 1.508-6.28 2.432-9.01 1.737-5.13 5.834-11.51 12.51-8.62 3.87 1.555 5.743 5.952 4.186 9.82-.25.62-.58 1.206-.985 1.74-.316.42-.675.806-1.07 1.153-.3.265-2.62 1.78-3.245 1.23zM279.056 126.753l.087-.01c-.008-.917-.6-1.535-.4-2.515.093-.452.26-.886.493-1.285.24-.407.543-.772.9-1.08.33-.286.7-.522 1.1-.7 1.54-.787 3.404-.545 4.69.608 1.936 1.522 2.615 4.036 3.184 6.375.186.573.315 1.163.384 1.76-.015-.436 3.712.93 3.284-.69-.74-3.108-1.72-6.155-2.93-9.112-1.074-2.446-2.673-5.69-4.974-7.3-2.04-1.43-5.08-1.312-7.27-.324-3.843 1.646-5.623 6.098-3.976 9.942.044.103.09.205.14.305.235.482.52.938.85 1.36.326.415.692.796 1.094 1.137.924.793 2.035 1.662 3.344 1.53zM174.864 194.857c-2.632.353-5.312-.052-7.953-.082l-9.07-.1c-.784-.01-9.4-.12-9.394-.182.082-1.208.16-2.475.137-3.685 0 0 4.08.03 4.516.035l12.3.14c3.14.034 6.255-.016 9.39-.03.126-.013.252.014.36.078.276 1.247.28 2.538.016 3.787l-.302.04z"/><path fill="#FFF" d="M170.41 202.43c-.006.33-.377.607-.717.736-1.605.7-3.47.395-4.77-.778l-.192-.138-5.98-.068-.2.133c-1.993 1.355-2.9 1.148-5.134.222-.246-.1-.54-.286-.486-.545 4.7-1.59 7.706-6.187 7.275-11.13-.69-6.272-4.025-12.025-4.347-18.318-.29-5.54 1.823-10.937 5.8-14.805 2.73-2.585 6.09 7.772 6.364 9.333.662 4.335.26 8.766-1.173 12.91-1.155 3.545-2.794 7.214-3.296 10.916-.324 1.933-.038 3.92.82 5.685.604 1.124 1.393 2.138 2.335 3 .714.677 2.677 2.73 3.68 2.7.014.047.02.095.02.144z"/><path fill="#FFF" d="M162.793 197.442c2.752 2.8 2.238 7.386-.338 10.156-.09.115-.21.203-.347.254-.237.03-.475-.05-.647-.214-2.975-2.2-3.605-6.394-1.407-9.37.224-.303.474-.587.746-.85l1.008-.978.985 1.002zM178.075 189.296c-.1-.11-.15-.26-.132-.408.047-.25.163-.48.335-.665.38-.56-.143-1.684-.435-2.2-.215-.38-.49-.723-.813-1.015-.3-.27-.636-.492-1-.663-1.03-.545-2.262-.545-3.29 0-2.064 1.194-3.233 3.487-3.88 5.77-.31.78-.446 1.622-.4 2.462-1.026-.075-2.056-.09-3.085-.044.088-2.7 1.5-5.9 2.4-8.456 1.69-4.81 5.562-10.756 11.6-7.915 3.626 1.698 5.19 6.014 3.49 9.64-.427.914-1.04 1.728-1.8 2.39-.283.25-2.43 1.636-2.99 1.104zM145.806 189.263l.08-.008c.01-.865-.52-1.46-.318-2.38.28-1.267 1.146-2.325 2.334-2.848 1.417-.715 3.133-.452 4.27.656 1.736 1.47 2.3 3.852 2.776 6.07.158.544.264 1.102.315 1.667-.005-.413 3.37.94 3.012-.595-.61-2.94-1.443-5.83-2.49-8.647-.93-2.326-2.323-5.413-4.39-6.976-1.99-1.275-4.494-1.438-6.63-.432-3.67 1.603-5.342 5.877-3.74 9.544.407.928 1.003 1.76 1.75 2.445.758.9 1.856 1.443 3.03 1.503zM303.974 230.6c-2.535.35-5.125-.008-7.673-.015l-8.75-.027c-.756 0-9.067-.04-9.063-.1.066-1.13.128-2.312.092-3.442h4.356l11.864.036c3.03.01 6.034-.06 9.06-.1.12-.014.24.01.347.07.28 1.158.3 2.365.057 3.533-.097.018-.194.033-.29.046z"/><path fill="#FFF" d="M299.762 237.705c0 .31-.358.57-.684.694-1.542.663-3.328.396-4.608-.69l-.188-.128-5.77-.018-.187.126c-1.907 1.28-2.786 1.094-4.95.247-.238-.093-.523-.263-.475-.506 4.465-1.433 7.335-5.777 6.9-10.447-.735-5.85-4.014-11.2-4.394-17.068-.33-5.198 1.657-10.276 5.43-13.867 2.605-2.433 5.957 7.21 6.24 8.666.686 4.04.346 8.19-.99 12.063-1.075 3.318-2.615 6.756-3.058 10.216-.29 1.812.01 3.67.853 5.3.6 1.05 1.374 1.988 2.287 2.78.7.625 2.614 2.527 3.58 2.5.01.042.017.087.015.132z"/><path fill="#FFF" d="M292.363 233.107c2.686 2.593 2.24 6.88-.215 9.485-.087.11-.202.192-.332.24-.228.03-.457-.045-.626-.2-1.543-1.09-2.52-2.81-2.67-4.695-.1-1.817.602-3.586 1.92-4.84l.963-.922.96.932zM307.01 225.385c-.097-.1-.145-.24-.13-.38.042-.234.152-.45.315-.623.36-.526-.156-1.57-.443-2.05-.214-.356-.484-.674-.8-.942-.292-.25-.62-.455-.97-.61-1-.502-2.182-.493-3.175.024-1.884 1.258-3.203 3.2-3.677 5.416-.292.73-.416 1.516-.363 2.3-.99-.062-1.985-.068-2.977-.017.055-2.52 1.386-5.518 2.226-7.913 1.578-4.5 5.247-10.085 11.1-7.48 3.394 1.407 5.005 5.298 3.6 8.69-.227.546-.524 1.058-.885 1.525-.282.367-.602.704-.953 1.006-.264.234-2.322 1.547-2.866 1.055zM275.883 225.6l.077-.01c0-.807-.518-1.357-.333-2.218.086-.398.237-.778.446-1.127.213-.356.484-.675.8-.944.293-.247.62-.45.972-.604 1.363-.678 3.003-.447 4.126.58 1.69 1.358 2.266 3.58 2.745 5.645.16.507.266 1.028.322 1.556-.01-.385 3.26.852 2.9-.578-.625-2.745-1.46-5.438-2.5-8.054-.923-2.165-2.3-5.036-4.314-6.48-1.942-1.175-4.34-1.307-6.4-.352-3.4 1.416-5.01 5.32-3.595 8.723.038.09.077.18.12.268.202.427.45.83.736 1.206.282.367.6.706.952 1.01.755.84 1.818 1.338 2.947 1.38z"/></svg>