<svg xmlns="http://www.w3.org/2000/svg" xmlns:xlink="http://www.w3.org/1999/xlink" viewBox="0 0 968.693 637.736"><title>stjean2</title><defs><path id="a" d="M-63.403-.1H963.792v613.393H-63.403z"/></defs><clipPath id="b"><use xlink:href="#a" overflow="visible"/></clipPath><g clip-path="url(#b)" fill="#E8EAF2"><path d="M193.61-.73c17.937 13.02 36.885 24.72 56.06 35.9 19.17 11.23 38.96 21.372 58.958 31.02 39.99 19.382 81.224 36.078 123.432 49.98 21.114 6.897 42.447 13.067 64 18.51 21.545 5.41 43.267 10.042 65.166 13.895 43.797 7.65 88.135 11.802 132.59 12.415l16.665.067 16.663-.326c5.556-.045 11.1-.413 16.65-.646l8.324-.39c2.775-.13 5.54-.39 8.312-.577 22.187-1.336 44.234-4.316 66.19-7.617 43.913-6.88 87.18-17.383 129.36-31.4l15.755-5.41c2.618-.92 5.27-1.755 7.862-2.75l7.794-2.937c5.19-1.98 10.41-3.874 15.57-5.922l15.39-6.385c2.557-1.08 5.14-2.1 7.68-3.227l7.59-3.425 15.185-6.855 14.975-7.3 7.49-3.645c2.5-1.213 4.936-2.542 7.408-3.807l14.785-7.68c2.48-1.25 4.9-2.62 7.32-3.975l7.273-4.065 7.257-4.092c2.413-1.375 4.86-2.692 7.218-4.158l14.27-8.606 7.134-4.3 7.012-4.5 14-9.03 3.5-2.26 3.434-2.358 6.868-4.714 13.74-9.44.907 1.286-13.77 9.425-6.885 4.712-3.443 2.356-3.507 2.254-14.037 9.025-7.025 4.5-7.147 4.306-14.293 8.613c-2.364 1.468-4.815 2.786-7.232 4.16l-7.27 4.095-7.262 4.113c-2.42 1.375-4.83 2.763-7.3 4.034l-14.756 7.8c-2.467 1.286-4.9 2.634-7.4 3.868l-7.51 3.644-15.024 7.27-15.232 6.836-7.617 3.41c-2.545 1.122-5.137 2.137-7.7 3.21l-15.43 6.363c-5.17 2.06-10.4 3.966-15.593 5.956l-7.8 2.956c-2.6 1-5.25 1.84-7.874 2.767l-15.786 5.44c-42.36 13.628-85.65 24.5-129.652 31.3l-8.242 1.317-8.274 1.1-8.28 1.036c-2.762.344-5.52.7-8.293.934l-16.616 1.595c-5.538.523-11.09.9-16.634 1.354-2.773.2-5.543.474-8.32.617l-8.335.432c-5.557.26-11.11.66-16.675.735l-16.688.415c-5.564.01-11.13 0-16.694-.05-2.783.007-5.564-.088-8.344-.184l-8.342-.28c-2.78-.104-5.562-.16-8.34-.31l-8.333-.456c-5.557-.3-11.118-.54-16.66-1.024l-8.32-.644c-2.774-.227-5.553-.39-8.318-.7-22.173-1.977-44.216-5.16-66.16-8.842l-8.232-1.368-8.2-1.546-8.2-1.548c-2.737-.5-5.443-1.15-8.164-1.728-10.884-2.317-21.706-4.914-32.493-7.635-5.378-1.426-10.775-2.77-16.143-4.23-5.358-1.493-10.734-2.925-16.078-4.468-5.327-1.6-10.66-3.178-15.973-4.825l-15.885-5.112c-21.094-7.062-42.03-14.6-62.664-22.914s-41.006-17.28-61.05-26.94c-9.977-4.917-19.9-9.94-29.716-15.18-4.904-2.623-9.79-5.278-14.66-7.965-4.887-2.657-9.73-5.395-14.57-8.135-9.65-5.53-19.18-11.27-28.588-17.22-9.393-5.974-18.686-12.078-27.7-18.662l.943-1.26z"/><path d="M8.087-.81C28.4 9.01 49.354 17.584 70.417 25.746c5.265 2.047 10.557 4.028 15.85 6.005 5.31 1.935 10.635 3.82 15.98 5.66 10.674 3.71 21.412 7.23 32.182 10.65 43.043 13.774 86.713 25.63 130.89 35.214 5.53 1.166 11.05 2.377 16.584 3.5l16.625 3.317 16.66 3.13 16.7 2.914c22.29 3.74 44.664 6.944 67.12 9.615 5.61.667 11.22 1.354 16.85 1.87 5.624.54 11.242 1.164 16.874 1.633l16.893 1.44 16.912 1.2c22.556 1.476 45.152 2.4 67.76 2.647 22.604.2 45.206-.132 67.803-.993l16.934-.85c5.646-.266 11.276-.785 16.913-1.178 5.637-.42 11.274-.82 16.9-1.38l16.885-1.52c11.23-1.266 22.482-2.344 33.678-3.9l8.406-1.088 4.2-.544 4.19-.623 16.763-2.515c2.8-.395 5.58-.892 8.364-1.367l8.354-1.43 8.354-1.43c2.788-.46 5.552-1.05 8.328-1.57l16.642-3.213 16.577-3.552c88.496-18.996 174.373-48.61 255.766-88.2l.687 1.417c-20.44 9.708-40.986 19.22-61.947 27.76l-7.843 3.243c-2.617 1.073-5.217 2.192-7.867 3.183l-15.834 6.117c-2.645 1-5.26 2.084-7.922 3.043l-7.977 2.9-15.96 5.782L918.6 58.02l-8.063 2.67-8.117 2.484-16.234 4.962-16.34 4.6-8.17 2.3-8.215 2.128-16.432 4.247-16.52 3.895-8.263 1.94-8.3 1.764c-22.1 4.893-44.43 8.634-66.745 12.36l-16.783 2.53-4.2.626-4.208.548-8.417 1.1c-11.208 1.563-22.474 2.65-33.717 3.925-45.068 4.17-90.33 6.22-135.6 5.893l-16.97-.4-4.24-.1-4.24-.174-8.48-.32-8.482-.3-8.475-.436-8.476-.44-4.238-.22-4.233-.29c-22.593-1.356-45.118-3.618-67.6-6.13l-8.436-.93-8.42-1.063c-5.61-.725-11.235-1.355-16.823-2.247-5.593-.854-11.2-1.625-16.78-2.548l-16.747-2.753-16.716-2.928-16.685-3.094-16.636-3.364c-5.54-1.15-11.06-2.384-16.59-3.572-22.073-4.96-44.09-10.168-65.955-15.992s-43.583-12.18-65.14-19.053C112.39 42.676 91.088 35.03 69.9 27.08c-10.58-4.01-21.087-8.21-31.52-12.6C27.95 10.09 17.592 5.556 7.382.602L8.087-.81zm868.85 143.587c5.3 6.292 10.39 12.755 15.935 18.842 5.33 6.263 10.47 12.686 15.73 19.01 2.63 3.16 5.218 6.358 7.814 9.55s5.188 6.383 7.757 9.6c2.64 3.152 5.278 6.31 7.87 9.5l3.908 4.774 3.99 4.708-.85.266 1.11-11.89c.2-1.98.27-3.97.4-5.957.09-1.99.3-3.967.445-5.952l1.92-23.8c.383-3.96.854-7.914 1.147-11.883.35-3.964.61-7.936 1.04-11.892.2-1.98.44-3.956.618-5.937l.483-5.95.925-11.9 1.57.138-1 11.9-.5 5.948-.4 5.957c-.118 1.987-.326 3.966-.515 5.947l-.59 5.94c-.418 3.958-.757 7.923-1.134 11.884s-.9 7.91-1.17 11.88l-.915 11.9c-.175 1.984-.26 3.974-.508 5.95-.324 1.964-.548 3.944-.672 5.932l-.773 11.916-.163 2.49-1.6-1.938c-1.31-1.586-2.59-3.194-3.868-4.808-1.3-1.59-2.647-3.147-3.97-4.723l-3.95-4.738c-1.3-1.6-2.577-3.206-3.907-4.774l-4.06-4.648-3.833-4.836-1.906-2.427-1.977-2.37c-1.323-1.574-2.556-3.223-3.838-4.832-5.056-6.493-10.59-12.59-15.894-18.875-5.114-6.446-10.587-12.59-15.872-18.894l1.204-1.013zm-93.29 16.87l-34.973 93.418-40.996-89.497"/><path d="M989.768 31.97l.635 98.44-71.466-72.196M856.67 77.39l-13.266 100.117-58.568-83.942m-95.062 15.538c-2.3 8.053-4.9 16.02-6.9 24.163-2.28 8.06-4.773 16.058-7.15 24.09-1.183 4.017-2.393 8.027-3.632 12.03l-3.7 12.007-3.578 12.044c-1.224 4.006-2.45 8.01-3.566 12.048l-.33 1.19-.545-1.114-5.538-11.3c-1.77-3.803-3.94-7.41-5.75-11.2l-11.335-22.47c-1.83-3.774-3.577-7.59-5.477-11.332-1.863-3.76-3.79-7.486-5.595-11.274l-2.7-5.687-2.827-5.622-5.69-11.226 1.41-.7 5.626 11.26 2.812 5.63 2.905 5.583c1.91 3.736 3.694 7.534 5.514 11.314 1.8 3.79 3.67 7.545 5.5 11.32 3.483 7.637 7.414 15.054 11.183 22.55 2.046 3.668 3.393 7.682 5.476 11.333 1.912 3.734 3.94 7.412 5.78 11.18l-1.82.16c.594-2.008 1.29-3.986 1.86-6l1.73-6.04c.6-2.006 1.167-4.02 1.79-6.02s1.274-4 1.774-6.03c.548-2.02 1.05-4.056 1.684-6.052l1.923-5.983c.677-1.984 1.22-4.006 1.82-6.013l1.925-5.982c2.578-7.973 4.613-16.1 6.927-24.155l1.842-6.006c.635-2 1.2-4.015 1.72-6.044l3.416-12.092 1.514.438zM96.96 36.947l-3.013 96.474 64.567-75.92m78.823-28.45c-1.336 7.858-2.97 15.665-3.993 23.58-1.31 7.864-2.842 15.69-4.25 23.536-.7 3.924-1.435 7.842-2.184 11.758s-1.48 7.834-2.256 11.745l-2.125 11.766-1.1 5.877c-.363 1.96-.673 3.93-1.01 5.894l-.79-.425 8.673-8.17c2.937-2.674 5.592-5.645 8.506-8.344l17.142-16.55c2.9-2.712 5.87-5.353 8.717-8.123 2.877-2.737 5.7-5.528 8.63-8.216l4.39-4.028 4.29-4.133 8.553-8.296 1.084 1.142-8.606 8.24-4.3 4.12-4.23 4.2c-2.84 2.778-5.78 5.45-8.69 8.153-2.927 2.685-5.8 5.43-8.7 8.142-5.94 5.28-11.544 10.914-17.263 16.427-1.43 1.38-2.824 2.793-4.357 4.062-1.525 1.273-2.982 2.627-4.363 4.056-2.837 2.78-5.6 5.637-8.478 8.374l-2.19 2.08.54-2.966c.356-1.96.8-3.907 1.14-5.87l1-5.895 1.063-5.883c.365-1.96.786-3.91 1.053-5.887.3-1.97.568-3.947.947-5.9l1.2-5.86c.437-1.947.748-3.916 1.1-5.877l1.2-5.86c1.622-7.81 2.68-15.718 4.024-23.576 1.6-7.814 2.7-15.714 4.075-23.567l1.554.266zm50.736 60.035l15.086 96.175 51.802-83.182m102.4 22.858l5.02 99.152 59.558-81.896"/></g><path fill="#E8EAF2" d="M834.02 436.746c1.28-.635 2.52-1.336 3.748-2.074 1.354-.57 2.158-1.9 3.2-2.845 1-1.01 2.06-1.943 3.016-2.994.98-1.03 1.873-2.14 2.667-3.32l1.04-1.557 1.06 1.518c.966 1.388 1.792 2.87 2.636 4.332.882 1.442 1.48 3.047 2.407 4.454.445.716.8 1.483 1.187 2.23.356.763.7 1.53 1.083 2.28.4.74.828 1.466 1.18 2.23l1.008 2.314.274.626-.6.23c-.614.24-1.215.515-1.8.82-.587.3-1.06.81-1.613 1.156-1.1.7-2.167 1.455-3.192 2.263-1.032.79-2.002 1.66-2.9 2.6-.455.46-.89.94-1.347 1.4s-.934.9-1.393 1.36l-.925.93-.7-.9c-.783-1-1.7-1.88-2.517-2.846l-1.24-1.442c-.387-.504-.742-1.03-1.063-1.58-.336-.536-.704-1.05-1.1-1.544-.373-.51-.77-1-1.16-1.5-.778-1-1.534-2.02-2.27-3.055l1.988-1.274c.682 1.03 1.395 2.035 2.115 3.036.36.5.72 1 1.1 1.483.368.495.77.965 1.2 1.407.88.862 1.682 1.803 2.39 2.812.748.976 1.48 1.974 2.316 2.88l-1.96.042c.46-.524.938-1.03 1.426-1.525s1.052-.914 1.59-1.35c.56-.416 1.07-.878 1.583-1.344l1.57-1.362c1.05-.916 2.18-1.733 3.382-2.44.6-.356 1.382-.373 1.983-.71s1.22-.65 1.817-1.02l-.62 1.6c-.44-.707-.908-1.4-1.3-2.122-.384-.734-.708-1.498-.966-2.285-.36-.743-.78-1.456-1.2-2.167-.38-.733-.818-1.433-1.16-2.188-.57-1.585-2.05-2.618-2.6-4.213-.308-.774-.687-1.517-1.132-2.22-.492-.672-.913-1.392-1.257-2.15l1.537-.028c-1.048 1.134-1.94 2.34-2.856 3.555-.912 1.224-1.923 2.372-3.023 3.43-1.105 1.078-2.578 1.648-3.666 2.746-1.22.936-2.526 1.75-3.9 2.436l-1.037-2.12zm11.5-87.74c2.2-.626 4.257-1.673 6.058-3.083.4-.418.78-.855 1.147-1.295.323-.484.668-.937 1.013-1.387l.975-1.393.908-1.438c1.18-1.96 1.974-4.12 2.345-6.376.366-2.256.284-4.562-.242-6.786l.566.648c-.528-.262-1.13-.326-1.7-.182-.663.16-1.26.52-1.71 1.03-.45.517-.77 1.135-.927 1.8-.157.62-.08 1.276.214 1.843l-.278-.267c.78.48 1.67.756 2.586.8.457.016.914-.017 1.364-.1.225-.036.445-.124.667-.18.228-.044.452-.108.67-.19 1.815-.67 3.437-1.78 4.716-3.232 1.16-1.57 2.205-3.22 3.125-4.942.84-1.7 1.555-3.646 2.312-5.548.77-1.944 1.78-3.785 3.006-5.48 1.142-1.863 2.648-3.48 4.427-4.75l.348-.238.387-.183c.257-.12.51-.247.773-.35.536-.172 1.083-.314 1.637-.424.568-.12 1.143-.2 1.722-.248.6 0 1.196.08 1.775.24 1.186.292 2.26.927 3.09 1.825.483.518.81 1.16.945 1.857.128.763-.002 1.547-.368 2.228l-2.044-1.183c.11-.21.15-.45.116-.686-.063-.284-.204-.545-.408-.753-.53-.565-1.204-.972-1.95-1.175-1.45-.524-3.192.422-4.585 1.32-1.536.996-2.854 2.295-3.87 3.82-1.06 1.6-1.95 3.355-2.932 5.105-.974 1.773-1.477 3.7-2.415 5.675-.444.975-.977 1.907-1.593 2.784-.292.452-.623.878-.99 1.27-.385.38-.85.688-1.253 1.04-1.538 1.454-3.042 3.122-5.228 4.068-.55.24-1.13.407-1.72.495-.613.048-1.226.03-1.833-.055-1.208-.11-2.386-.44-3.478-.968l-.27-.123-.246-.37c-.615-1.004-.812-2.208-.548-3.354.24-1.034.764-1.98 1.514-2.733.704-.793 1.56-1.433 2.52-1.882.27-.1.544-.182.825-.24.294-.037.59-.06.886-.062.3.04.6.088.893.15.284.095.56.205.832.332l.695.336.07.54c.34 2.63.76 5.264.014 7.78-.54 2.486-1.34 4.91-2.39 7.228l-.918 1.686-1.107 1.577c-.44.472-.886.936-1.35 1.377-.5.406-1 .808-1.48 1.233-1.886 1.807-4.183 3.13-6.693 3.855l-.62-2.29zM652.612 234.554c.27-.514.575-1.01.91-1.484l.585-.66c.18-.234.4-.435.65-.593.5-.307.984-.64 1.45-1 .228-.197.472-.377.728-.537.26-.155.54-.27.814-.4.567-.2 1.16-.327 1.76-.38.59-.027 1.186.003 1.773.09.58.073 1.15.21 1.7.407.55.174 1.088.393 1.605.652.51.262 1.005.56 1.478.89.436.376.848.78 1.234 1.207.566.644 1.036 1.365 1.398 2.142l.273.8c.2.525.334 1.06.488 1.6.08.26.126.532.132.806l.067.8c-.008.544-.046 1.087-.114 1.626-.057.27-.033.543-.084.815l-.147.82c-.32 1.084-.924 2.064-1.753 2.834-.84.69-1.6 1.68-2.737 1.98-1.063.39-2.19.583-3.32.563-1.127.005-2.246-.16-3.323-.488-1.026-.467-1.998-1.043-2.9-1.72-.972-.628-1.778-1.48-2.35-2.487-.133-.262-.237-.537-.313-.82-.078-.282-.2-.54-.264-.824-.18-.546-.323-1.104-.423-1.67-.158-1.137-.124-2.292.1-3.417l2.28.62c-.19.84-.247 1.705-.17 2.563.06.41.165.81.317 1.194.177.37.415.71.705 1 .458.684.984 1.32 1.57 1.9.67.57 1.435 1.016 2.26 1.315.2.1.408.19.617.275.204.1.417.186.635.255.22.063.442.11.668.135l.68.02c.874-.045 1.735-.237 2.546-.57.194-.064.383-.145.565-.242.195-.08.4-.13.61-.15.432-.03.82-.275 1.03-.654.4-.69.686-1.44.85-2.22.067-.195.15-.384.25-.565.076-.2.12-.41.133-.622.02-.434 0-.87-.053-1.3-.06-.436-.09-.915-.166-1.32 0-.43-.123-.848-.356-1.208l-.388-.505c-.145-.15-.263-.322-.35-.51-.18-.375-.363-.768-.59-1.154-.2-.424-.63-.61-.95-.908-.174-.135-.34-.286-.513-.436-.157-.172-.334-.324-.527-.455-.368-.288-.794-.493-1.25-.6-.445-.133-.91-.19-1.373-.172-.454.002-.906.04-1.354.115-.43.136-.866.208-1.27.354-.426.093-.845.215-1.254.366-.208.073-.405.175-.583.305-.158.155-.303.322-.435.5-.287.32-.554.656-.8 1.007-.223.37-.4.772-.625 1.136l-2.133-1.026zm247.512 286.298c.6 1.352.7 2.938 1.87 4.037.395.626.73 1.29 1 1.98.336.66.644 1.34 1.008 1.986l.58.952.525 1c.4.63.78 1.28 1.133 1.96.206.315.444.61.71.875.256.277.462.6.7.892.434.62.944 1.184 1.52 1.677.567.5 1.05 1.084 1.593 1.61.51.57 1.4.68 1.935 1.208.64.4 1.266.81 1.883 1.23.63.41 1.343.68 1.955 1.1.586.465 1.203.89 1.847 1.273.7.263 1.38.58 2.03.948 1.2.98 2.767 1.144 4.19 1.543l-.72 2.25c-.752-.244-1.514-.47-2.263-.73-.366-.157-.74-.282-1.114-.423s-.792-.172-1.186-.27c-1.41-.742-2.774-1.57-4.083-2.477-.313-.247-.593-.544-.89-.81-.31-.246-.64-.462-.993-.642-.66-.43-1.394-.767-2.052-1.214-.305-.25-.678-.425-.84-.85-.166-.375-.462-.675-.833-.847-.716-.37-1.39-.816-2.014-1.328-.197-.354-.427-.69-.686-1-.273-.287-.584-.54-.867-.82-.245-.31-.523-.6-.74-.93-.188-.354-.44-.668-.745-.928-.342-.216-.63-.508-.844-.852-.194-.357-.36-.728-.5-1.11-.067-.19-.153-.372-.256-.544-.127-.152-.24-.314-.343-.483-.166-.366-.31-.742-.432-1.125-.25-.75-.642-1.446-1.152-2.05-.42-.662-.92-1.292-1.3-1.99-.314-.728-.3-1.584-.9-2.19-.347-.71-.68-1.43-.967-2.17l2.246-.74zM812.06 26.217c.148.537.262 1.083.34 1.634-.224.588.313 1.073.454 1.644.056.562.036 1.13-.06 1.687-.124.55-.28 1.09-.382 1.63-.293 1.064-.78 2.063-1.436 2.948-.16.214-.287.45-.378.7-.115.24-.25.47-.406.685-.382.37-.688.812-.9 1.3-.308.43-.722.775-1.06 1.174-.443.3-.47 1.01-.884 1.362-.368.392-.772.752-1.167 1.127-.444.3-.813.74-1.282 1.03-.53.15-1.05.345-1.55.58-.483.262-.995.47-1.525.618-.282-.024-.565-.02-.846.012-.27.054-.533.13-.79.225l-1.633.35-.045-2.36c.45-.064.89-.144 1.335-.184.22-.048.435-.11.646-.186.208-.103.406-.22.595-.354.41-.186.85-.297 1.3-.327.435-.13.834-.35 1.263-.51.208-.1.45-.142.676-.22.216-.09.413-.22.582-.384.32-.353.586-.754.9-1.086.158-.17.253-.394.57-.4s.454-.215.573-.42c.2-.455.232-1 .546-1.333.165-.16.426-.26.528-.47.13-.19.2-.417.32-.61.096-.21.21-.408.344-.594.18-.156.303-.367.35-.6-.05-.237-.02-.484.092-.7.154-.196.325-.378.512-.544.078-.09.137-.196.176-.31.008-.115.032-.23.07-.34.13-.216.28-.422.442-.615.234-.424.322-.913.25-1.392-.095-.463-.164-.93-.21-1.4.318-.957-.366-1.81-.564-2.662l2.253-.704zM18.67 51.9c.148.537.263 1.082.34 1.634-.223.586.313 1.07.454 1.642.056.562.036 1.13-.06 1.687-.124.55-.28 1.088-.382 1.63-.293 1.063-.78 2.062-1.436 2.947-.16.214-.287.45-.378.7-.116.24-.25.47-.406.685-.382.37-.688.812-.9 1.3-.307.43-.722.775-1.06 1.174-.443.3-.47 1.01-.885 1.36-.368.393-.772.753-1.167 1.13-.446.3-.815.74-1.284 1.03-.53.15-1.05.343-1.55.58-.484.26-.995.467-1.525.616-.28-.024-.563-.02-.844.012-.27.053-.533.128-.79.224l-1.633.35-.045-2.36c.45-.065.89-.145 1.336-.185.22-.052.436-.116.648-.195.208-.103.406-.22.595-.354.41-.182.85-.29 1.297-.32.436-.13.834-.348 1.263-.51.208-.1.45-.14.676-.22.217-.09.414-.22.583-.383.32-.353.586-.754.9-1.086.158-.168.253-.393.57-.4s.454-.214.573-.42c.2-.454.232-1 .546-1.332.164-.16.426-.26.528-.47.13-.19.2-.418.322-.61.094-.21.21-.41.343-.596.18-.155.3-.364.35-.595-.05-.238-.02-.485.09-.7.156-.197.327-.38.514-.545.078-.09.137-.194.176-.307.008-.116.032-.23.07-.34.13-.217.28-.423.442-.616.234-.425.322-.914.25-1.393-.095-.463-.164-.93-.21-1.4.318-.957-.366-1.81-.564-2.66l2.255-.71zm567.153.79c-.05.247-.113.49-.19.73-.038.25-.09.498-.156.743-.054.12-.09.247-.107.378.01.133.036.263.076.388.122.24.23.488.323.74.146 1.013.373 2.012.68 2.988.207.482.41.972.615 1.478l.73 1.49c.145.236.326.45.535.632.208.184.365.417.555.62s.36.432.557.63c.212.184.445.34.693.47.473.3.886.7 1.368 1 .44.385 1.172.212 1.644.512l1.6.544c.528.2 1.115.236 1.646.426.503.278 1.034.502 1.584.666.57.077 1.135.204 1.684.378.256.15.524.273.8.37.285.07.573.12.863.145l1.755.17-.5 2.31c-.58-.1-1.163-.19-1.742-.312-.29-.066-.585-.1-.878-.152-.307-.016-.614-.016-.92 0-.596-.112-1.173-.305-1.716-.575-.553-.26-1.142-.4-1.7-.643-1.01-.793-2.27-.857-3.45-1.287-.28-.133-.607-.183-.78-.52-.157-.29-.436-.492-.76-.552-.634-.125-1.243-.357-1.8-.688-.384-.53-.864-.98-1.414-1.334-.23-.223-.45-.46-.658-.705-.143-.293-.35-.548-.606-.748-.298-.15-.55-.377-.726-.66-.133-.308-.237-.628-.31-.956-.043-.157-.1-.31-.17-.456-.096-.125-.18-.26-.252-.4-.093-.316-.155-.64-.186-.967-.025-.318-.104-.628-.233-.92-.107-.295-.232-.584-.375-.865-.28-.585-.483-1.203-.608-1.84-.06-.664.3-1.29.044-1.96-.017-.667.06-1.333.233-1.98l2.254.715zm-220.41-19.5c.185.62.464 1.208.828 1.743.404.54.874 1.028 1.4 1.448.556.416 1.128.84 1.748 1.23.655.342 1.353.597 2.074.76l4.476.924c1.595.373 3.156.877 4.667 1.508 1.623.667 3.097 1.648 4.338 2.888.65.662 1.18 1.43 1.57 2.27.42.907.573 1.916.44 2.908-.22 1.85-1.12 3.555-2.525 4.78-.725.66-1.64 1.07-2.616 1.173-1.014.078-2.02-.23-2.818-.86l-.057-.04-.05-.06c-.787-.907-1.3-2.02-1.477-3.21-.15-1.154-.01-2.33.41-3.416.38-1.053.903-2.048 1.555-2.958.627-.925 1.422-1.725 2.344-2.357.916-.65 1.94-1.14 3.02-1.44 1.074-.263 2.173-.406 3.28-.43 1.1-.14 2.213-.093 3.3.136 1.07.21 2.125.502 3.152.876 2.004.768 3.947 1.683 5.814 2.74.94.493 1.844 1.037 2.738 1.557l2.606 1.66c1.71 1.07 3.558 1.908 5.492 2.487.948.28 1.9.462 2.854.663.948.215 1.924.282 2.893.2l-.7.436c.345-.543.617-1.13.81-1.744.16-.44.137-.93-.065-1.353-.032-.06-.138-.19-.117-.14l.044.04c-.097.034-.19.08-.275.137-.107.067-.193.162-.25.275.033-.024.07-.158-.013-.415-.073-.106-.08-.172-.167-.22-.017-.028-.028-.042-.052-.042l-.86 2.2c-.188-.084-.366-.184-.535-.3-.218-.17-.393-.39-.513-.64-.218-.475-.224-1.02-.014-1.5.257-.563.68-1.034 1.212-1.348.553-.36 1.218-.504 1.87-.41.408.067.788.253 1.09.534.24.218.44.478.586.766.46.955.52 2.052.17 3.052-.254.792-.6 1.55-1.034 2.262l-.315.534-.65.07c-1.142.145-2.294.197-3.444.155-1.13-.114-2.242-.367-3.31-.75-2.044-.773-4.013-1.728-5.884-2.854-.922-.538-1.83-1.084-2.71-1.66-.87-.6-1.7-1.208-2.568-1.77-1.73-1.06-3.58-1.916-5.51-2.547-.93-.304-1.877-.558-2.834-.76-.47-.107-.947-.143-1.41-.263-.467-.134-.94-.244-1.418-.328-.478-.053-.96-.03-1.43.072l-.7.13c-.22.062-.426.152-.636.225-.827.348-1.59.83-2.262 1.424-.672.59-1.3 1.218-1.93 1.87-.618.657-1.062 1.457-1.29 2.33-.072.203-.12.415-.144.63-.045.208-.072.418-.082.63l-.04.62.057.6c.12.785.43 1.53.9 2.172l-.17-.16c.328.3.798.388 1.212.228.463-.178.894-.428 1.28-.74 1.042-.732 1.73-1.87 1.89-3.132.027-.597-.04-1.194-.2-1.77-.232-.646-.573-1.247-1.01-1.777-.99-1.09-2.255-1.894-3.664-2.33-1.448-.48-2.932-.85-4.437-1.107-.752-.165-1.53-.294-2.317-.513-.783-.226-1.55-.503-2.294-.83l-2.255-1c-.79-.31-1.54-.725-2.223-1.232-.708-.535-1.342-1.162-1.885-1.865-.542-.744-.96-1.57-1.236-2.446l2.28-.627zM145.79 209.243c.766 2.332 1.198 4.76 1.284 7.214-.128 2.434.155 4.886-.222 7.34-.893 4.88-3.092 9.426-6.362 13.155l-.6.7c-.23.23-.448.473-.688.688-.466.438-.96.844-1.482 1.214-1.035.714-2.14 1.32-3.3 1.807-2.317 1.058-4.884 1.44-7.408 1.1-.648-.116-1.285-.293-1.9-.53-.628-.265-1.21-.63-1.72-1.082-.975-.945-1.604-2.19-1.786-3.535-.158-1.244-.117-2.506.12-3.737.11-1.314.593-2.57 1.39-3.62.5-.586 1.21-.95 1.976-1.01.708-.036 1.413.11 2.05.42 1.14.572 2.145 1.377 2.953 2.362.774.962 1.484 1.975 2.126 3.03.654 1.083 1.093 2.28 1.296 3.53.243 1.282.233 2.6-.03 3.88-.075.322-.178.64-.27.96-.127.307-.25.625-.39.922-.286.573-.615 1.126-.982 1.653-1.485 2.04-3.403 3.726-5.618 4.936-4.354 2.185-8.974 3.464-12.52 6.11-1.92 1.124-3.484 2.763-4.52 4.73-.496.92-.8 1.933-.89 2.974-.067.994.092 1.99.465 2.914l-2.2.85c-.486-1.283-.672-2.66-.542-4.024.145-1.33.56-2.616 1.222-3.78.61-1.127 1.36-2.173 2.234-3.11.814-.965 1.712-1.854 2.685-2.657 2-1.446 4.203-2.58 6.54-3.37 2.16-.804 4.267-1.74 6.31-2.8 1-.483 1.96-1.048 2.866-1.69.873-.64 1.625-1.432 2.223-2.336.303-.434.566-.895.786-1.38l.266-.7c.055-.24.126-.48.175-.72.162-1 .148-2.018-.042-3.01-.167-1.025-.587-1.98-.84-3.033-.14-.525-.355-1.028-.64-1.49-.308-.442-.65-.86-1.02-1.25-.678-.733-1.522-1.295-2.46-1.64-.328-.116-.676-.158-1.02-.124-.222.064-.422.187-.577.357-.61.658-.98 1.505-1.043 2.4-.168 1.018-.16 2.058.027 3.073.134.876.53 1.69 1.137 2.338.646.658 1.52 1.04 2.44 1.07.503.012 1.005-.023 1.5-.106.507-.06 1.015-.142 1.536-.218 1.066-.16 2.117-.412 3.14-.75.52-.183 1.02-.41 1.5-.678.47-.286.913-.608 1.36-.918.936-.578 1.79-1.28 2.54-2.086 1.593-1.647 2.846-3.59 3.69-5.72.862-2.104 1.487-4.297 1.863-6.54.6-2.197.78-4.487.534-6.75-.198-2.247-.668-4.46-1.4-6.594l2.236-.74zM129.807 462.13c.11.756-.32 1.618.408 2.287.16.353.252.734.27 1.12.094.376.154.77.278 1.144l.22.55c.06.19.1.4.16.59.17.38.302.778.4 1.184.088.188.21.358.362.5.13.162.244.336.34.52.183.38.46.705.804.948.302.286.592.586.865.9.27.34.894.2 1.186.478.383.158.74.344 1.1.518s.8.19 1.146.375c.357.158.66.5 1.062.57.4.015.794.088 1.173.217.73.528 1.595.152 2.35.057l.146 2.357c-.482.025-.97.067-1.457.07-.5-.08-1.008-.05-1.493.088-.49-.078-.963-.237-1.4-.47-.433-.243-.894-.383-1.328-.596-.7-.784-1.673-.88-2.57-1.295-.193-.137-.44-.21-.5-.525s-.273-.415-.5-.513c-.48-.14-.93-.36-1.336-.654-.13-.215-.172-.505-.354-.66-.158-.18-.368-.312-.534-.486-.156-.183-.294-.382-.41-.593-.068-.237-.208-.445-.4-.596-.216-.143-.457-.278-.526-.52-.07-.247-.117-.5-.137-.756-.01-.124-.036-.245-.08-.36-.073-.096-.13-.2-.176-.31-.046-.247-.07-.496-.068-.746 0-.48-.16-.945-.45-1.326-.22-.425-.418-.863-.586-1.312-.07-.482.235-.985-.137-1.426-.1-.475-.16-.957-.187-1.44l2.357.117zM926.2 370.097c.11.755-.32 1.617.408 2.286.16.353.252.734.27 1.12.094.376.154.77.278 1.144l.22.55c.062.19.1.4.16.59.17.38.303.777.4 1.183.09.188.21.358.362.5.13.162.244.336.34.52.184.38.46.705.805.948.304.285.594.585.867.9.27.34.894.2 1.186.477.382.158.74.344 1.1.518s.8.19 1.145.375c.36.157.663.5 1.064.57.4.014.794.088 1.173.216.73.528 1.594.152 2.348.057l.146 2.36c-.48.023-.97.065-1.456.067-.498-.08-1.007-.05-1.492.09-.49-.08-.962-.238-1.4-.472-.432-.242-.893-.382-1.327-.595-.7-.785-1.672-.88-2.568-1.296-.194-.138-.442-.21-.5-.526s-.274-.416-.5-.514c-.48-.14-.932-.36-1.337-.654-.128-.215-.172-.505-.354-.66-.16-.18-.37-.312-.535-.486-.157-.183-.294-.382-.41-.593-.068-.234-.208-.442-.4-.593-.216-.14-.457-.277-.526-.52-.07-.246-.116-.5-.136-.755-.01-.123-.036-.244-.08-.36-.073-.095-.13-.2-.176-.31-.045-.246-.068-.495-.067-.745 0-.48-.158-.945-.448-1.326-.222-.425-.418-.863-.586-1.312-.07-.482.235-.985-.137-1.426-.098-.474-.16-.956-.187-1.44l2.355.117zm-752.67 196.83c.006-1.427.036-2.855.124-4.28.3-1.424-.24-2.86-.24-4.29-.076-1.43.044-2.854.1-4.282.084-1.427.163-2.854.2-4.28l.04-1.34 1.292.1 4.214.314c.7.047 1.41.066 2.115.12s1.414.11 2.12.11c1.412-.07 2.822-.143 4.24-.155 1.413-.05 2.823-.187 4.22-.41l.735-.078.058.716c.062 1.597.205 3.19.43 4.77.232.77.39 1.562.474 2.362l.32 2.375c.192 1.587.376 3.173.624 4.753.12.79.19 1.587.208 2.386-.007.8.026 1.6.1 2.4l.137 1.212-1.26-.078-3.275-.2c-.547-.02-1.093-.073-1.634-.158-.54-.1-1.08-.23-1.622-.292-2.177-.223-4.375-.207-6.563-.306l.2-2.355 3.276.216c1.09.085 2.183.17 3.278.2.548.012 1.1-.04 1.65-.05.548.01 1.095.05 1.638.12 1.087.13 2.17.3 3.256.452l-1.45 1.467c-.072-1.6-.305-3.18-.254-4.79.02-.8-.03-1.6-.147-2.39-.093-.794-.223-1.584-.362-2.37s-.28-1.58-.36-2.373c-.042-.4-.115-.79-.13-1.19.02-.41.063-.815.13-1.217-.148-1.596-.424-3.18-.824-4.732l1.635 1.316c-.71.154-1.443.197-2.167.126-.722.02-1.443.078-2.158.178-1.436.16-2.883.212-4.327.154-.72.012-1.437.225-2.16.265-.727.016-1.454-.047-2.167-.19-.71-.147-1.433-.216-2.16-.206-.722-.02-1.44-.115-2.146-.28l.973-.91c-.25 1.412-.32 2.85-.21 4.28.056 1.43.185 2.86.2 4.288.052 1.43-.414 2.85-.126 4.282.083 1.428.115 2.857.115 4.285l-2.355-.047zM535.222 201.8c1.355-.45 2.718-.878 4.1-1.25 1.444-.173 2.633-1.144 3.986-1.6 1.33-.53 2.72-.873 4.09-1.274 1.38-.377 2.756-.76 4.12-1.176l1.283-.392.324 1.256 1.05 4.094c.18.683.387 1.356.56 2.043s.35 1.376.576 2.046c.518 1.314 1.036 2.627 1.5 3.966.5 1.325 1.08 2.617 1.738 3.87l.31.67-.66.284c-1.493.57-2.956 1.215-4.383 1.933-.655.464-1.353.866-2.085 1.2l-2.15 1.06c-1.44.69-2.884 1.37-4.3 2.11-.71.37-1.442.69-2.193.963-.76.25-1.508.536-2.24.86l-1.105.518-.33-1.217-.855-3.17c-.156-.525-.28-1.06-.373-1.6-.08-.544-.127-1.1-.243-1.63-.483-2.135-1.2-4.212-1.81-6.317l2.295-.565.844 3.174c.267 1.06.54 2.12.86 3.17.162.522.39 1.03.572 1.548.166.523.303 1.054.413 1.59.226 1.07.41 2.153.612 3.23l-1.854-.9c1.49-.58 2.915-1.306 4.456-1.773.763-.238 1.505-.54 2.22-.9.72-.343 1.426-.72 2.13-1.1s1.404-.77 2.13-1.1c.363-.167.713-.36 1.087-.5.392-.114.79-.2 1.194-.266 1.466-.654 2.877-1.423 4.22-2.3l-.723 1.97c-.374-.623-.648-1.302-.813-2.01-.248-.68-.534-1.343-.858-1.99-.61-1.31-1.123-2.662-1.53-4.05-.242-.678-.674-1.29-.942-1.96-.248-.684-.42-1.393-.514-2.114-.087-.72-.253-1.428-.494-2.112-.21-.693-.35-1.405-.42-2.126l1.174.632c-1.418.216-2.803.61-4.123 1.17-1.336.51-2.65 1.09-4 1.56-1.337.508-2.832.522-4.1 1.253-1.328.535-2.67 1.022-4.024 1.48l-.718-2.255zM105.5 364.124c-.255-.9-.652-1.756-1.175-2.533-.37-.95-1.448-1.305-2.27-1.752-1.653-1.07-3.513-1.78-5.46-2.082-.52-.088-1.036-.132-1.55-.19s-1.024-.116-1.532-.142c-.945-.058-1.893.05-2.8.322-.36.122-.65.4-.782.758-.14.368-.187.765-.133 1.156.048.48.172.95.367 1.39.22.464.494.9.814 1.3.594.872 1.248 1.702 1.955 2.484.674.845 1.8 1.2 2.575 1.9.863.613 1.75 1.187 2.655 1.71.904.492 1.844.916 2.812 1.268.837.482 1.773.768 2.737.836.397.003.788-.086 1.143-.26.29-.15.542-.363.74-.623.282-.31.477-.69.564-1.1.066-.48.072-.965.017-1.446-.14-1.018-.365-2.02-.675-2.997zm2.295-.558c.317 1.133.518 2.295.6 3.468.038.634.023 1.27-.047 1.9-.058.736-.244 1.457-.55 2.13-.425.746-1.096 1.322-1.9 1.627-.71.26-1.47.358-2.225.288-1.253-.117-2.478-.44-3.625-.956-.524-.263-1.03-.564-1.512-.9-.49-.306-1-.567-1.5-.838-1.02-.526-2-1.118-2.94-1.774-.498-.3-.92-.71-1.234-1.2-.137-.258-.31-.495-.512-.705l-.65-.558c-.97-.68-1.828-1.505-2.546-2.446-.3-.535-.485-1.13-.77-1.692-.316-.594-.55-1.227-.7-1.883-.158-.802-.06-1.634.277-2.378.417-.717 1-1.322 1.7-1.762.546-.448 1.204-.734 1.9-.826.625-.06 1.254-.035 1.87.07.58.07 1.163.103 1.746.1.567.096 1.125.236 1.67.42 1.08.31 2.248.487 3.366.782 1.15.283 2.248.743 3.254 1.365 1 .7 1.618 1.744 2.58 2.513.813.946 1.412 2.058 1.756 3.258h-.005zM56.042 546.98c.153.554.27 1.118.353 1.688-.224.6.313 1.11.456 1.7.056.582.035 1.168-.063 1.744-.13.568-.29 1.125-.4 1.685-.307 1.096-.81 2.128-1.484 3.046-.165.222-.298.467-.394.726-.128.242-.27.48-.424.705-.393.387-.712.844-.94 1.346-.323.444-.75.8-1.1 1.21-.46.307-.5 1.04-.94 1.39-.386.4-.793.787-1.21 1.165-.464.312-.852.755-1.338 1.05-.548.157-1.083.356-1.6.596-.504.265-1.035.473-1.584.623-.29-.023-.583-.02-.873.01-.277.054-.55.13-.82.224l-1.69.34-.02-2.363c.467-.06.93-.138 1.392-.175.23-.05.453-.13.677-.195.215-.102.424-.22.624-.352.428-.188.883-.304 1.35-.343.457-.12.87-.353 1.318-.516.216-.1.466-.15.7-.23.22-.1.424-.234.6-.4.347-.35.616-.777.96-1.1.166-.174.258-.416.585-.428.266-.017.498-.187.595-.435.123-.484.322-.947.59-1.37.174-.163.43-.28.545-.49.132-.2.22-.426.34-.63.108-.214.227-.42.358-.62.184-.16.312-.38.366-.617-.05-.247-.014-.503.1-.727.16-.204.335-.394.526-.567.08-.096.14-.204.18-.32.01-.12.037-.24.078-.354.132-.225.283-.44.45-.64.237-.442.33-.947.267-1.445-.095-.48-.165-.967-.207-1.456-.047-.464.26-.993-.09-1.43-.196-.433-.36-.88-.49-1.34l2.26-.704zm315.033-336.827c-.627-1.233-1.066-2.554-1.3-3.917l-.14-1.02-.068-1.026c.005-.683.06-1.365.17-2.04.134-1.366.38-2.72.732-4.046.414-1.348 1.08-2.606 1.96-3.71 3.72-4.337 9.602-6.148 15.117-4.653l.68.21.148.6c.42 1.633.506 3.33.253 4.996-.134.874-.437 1.713-.894 2.47-.482.814-1.206 1.458-2.07 1.842-.43.19-.88.32-1.345.387-.467.045-.94.023-1.4-.066-.88-.196-1.69-.623-2.348-1.238-.648-.573-1.168-1.28-1.523-2.07-.335-.77-.55-1.585-.64-2.42-.2-1.63.02-3.287.634-4.812.624-1.48 1.495-2.84 2.578-4.027.53-.6 1.116-1.116 1.69-1.652s1.105-1.12 1.708-1.62c1.213-.987 2.516-1.815 3.763-2.676s2.494-1.683 3.615-2.615c1.116-.904 2.117-1.94 2.98-3.087 1.66-2.185 2.96-4.866 1.937-7.454-.386-1.238-1.146-2.325-2.176-3.11-.944-.7-2.24-1.27-3.294-.733-1.13.55-1.955 1.577-2.247 2.8-.15.548-.15 1.127 0 1.675.14.456.45.843.863 1.082l-1.255 2c-.908-.57-1.567-1.46-1.848-2.494-.242-.96-.22-1.965.062-2.912.53-1.845 1.83-3.372 3.565-4.19.47-.204.964-.346 1.47-.423l.786-.054c.25.006.486.037.73.06.976.125 1.907.48 2.717 1.037 1.47 1.134 2.525 2.722 3 4.517.475 1.726.47 3.55-.015 5.273-.47 1.63-1.306 3.132-2.443 4.392-1.1 1.17-2.27 2.274-3.508 3.3-1.23 1-2.482 1.94-3.733 2.82s-2.49 1.724-3.692 2.556c-.655.33-1.286.708-1.887 1.13-.54.47-1.033.99-1.48 1.55-.81 1.11-1.436 2.342-1.86 3.65-.48 1.198-.72 2.48-.7 3.77.08.61.264 1.203.544 1.75.276.51.637.967 1.068 1.355.706.775 1.81 1.04 2.792.677.417-.257.73-.654.88-1.12.23-.535.41-1.09.535-1.658.34-1.317.335-2.7-.02-4.01l.776.757c-1.126-.284-2.273-.477-3.43-.577-1.194-.087-2.393.06-3.53.437-2.26.764-4.227 2.21-5.632 4.136-.677.943-1.257 1.952-1.732 3.01-.53 1.057-.847 2.208-.93 3.387l.018.885c.02.294.064.585.062.877l.083.87.143.86c.226 1.128.62 2.217 1.17 3.23l-2.093 1.08zm471.973 39.607c-.134.425-.302.838-.5 1.236-.426.315-.135.908-.224 1.365-.31.876-.74 1.703-1.28 2.46l-.373.6c-.14.19-.31.362-.453.55-.3.375-.642.713-1.022 1.007-.176.157-.326.34-.445.544-.15.184-.318.35-.5.5-.402.254-.756.573-1.05.945-.373.3-.782.555-1.216.76-.23.095-.425.26-.56.468-.155.2-.356.36-.587.463-.437.233-.895.423-1.368.567-.48.17-.97.293-1.47.368-.52 0-1.016-.23-1.523-.214-.522.015-1.04-.08-1.524-.28-.41-.338-.87-.608-1.362-.8-.232-.124-.462-.26-.7-.4l-.65-.5 1.768-1.567.383.323c.146.085.28.18.415.276.145.08.298.147.456.2.18.016.36.01.54-.017.332.077.653.195.955.35.35.097.71.144 1.074.14.185.013.382.106.58.127.194.01.39-.027.565-.11.345-.178.68-.376 1-.594.17-.083.3-.228.564-.117.202.087.44.012.554-.176.266-.315.365-.777.66-.973.172-.087.43-.09.552-.245.138-.138.23-.32.36-.462.12-.155.257-.296.41-.42.16-.12.354-.226.4-.444s.036-.46.204-.586c.177-.136.365-.256.563-.358.09-.058.17-.133.233-.22.034-.098.08-.192.138-.278.165-.157.343-.3.532-.427.337-.285.55-.69.59-1.13.11-.42.132-.876.276-1.28s.658-.67.518-1.19c.07-.435.17-.865.3-1.286l2.218.826zM203 163.99c-.595-.25-1.176-.532-1.738-.848-.387-.59-1.172-.533-1.78-.838-.53-.382-1.015-.826-1.44-1.323-.384-.525-.74-1.064-1.13-1.57-.68-1.07-1.16-2.258-1.416-3.5-.057-.304-.153-.598-.284-.877-.1-.29-.182-.585-.25-.884-.016-.616-.134-1.224-.348-1.8-.1-.6-.055-1.22-.106-1.823.11-.6-.38-1.213-.312-1.837 0-.62.037-1.245.08-1.87.132-.61.128-1.263.294-1.877.7-1.1.99-2.34 1.72-3.406.258-.2.5-.418.72-.656.2-.246.38-.507.545-.78l1.25-1.47 1.484 1.84c-.364.38-.71.764-1.086 1.12-.16.2-.29.432-.436.646-.115.237-.213.48-.296.73-.22.47-.508.903-.855 1.287-.275.448-.443.948-.678 1.423-.095.248-.25.482-.37.73-.1.25-.163.517-.18.787-.013.55.083 1.1.06 1.627 0 .268.11.533-.115.8-.18.23-.222.54-.115.813.267.488.462 1.01.58 1.555-.042.27-.046.544-.012.815.06.262.166.51.235.768s.18.5.227.768c0 .273.076.54.22.772.2.204.448.38.495.648.053.28.084.563.092.848.02.135.067.266.134.385.09.103.17.213.233.33.093.275.165.554.216.837.21.516.56.963 1.01 1.288.46.317.963.554 1.365.9.432.284.694.89 1.3.922.51.134 1.012.303 1.5.506L203 163.99z"/><path fill="#3E4166" stroke="#3E4166" stroke-width="4" stroke-miterlimit="10" d="M313.047 283.36h455.837c7.34 0 13.293 5.95 13.293 13.292v318.145H299.754V296.652c0-7.34 5.95-13.293 13.293-13.293z"/><path fill="#2F3155" d="M302.536 622.524l479.64-.87v-103.46l-467.096 47.38"/><path fill="#C8D0E5" stroke="#C8D0E5" stroke-width="4" stroke-miterlimit="10" d="M238.845 625.514h604.24c0 5.2-4.213 9.413-9.412 9.413H248.258c-5.2 0-9.413-4.214-9.413-9.413z"/><path fill="#E1E4F1" stroke="#E1E4F1" stroke-width="4" stroke-miterlimit="10" d="M238.845 609.568h604.24v12.956h-604.24z"/><path fill="#386BB4" d="M324.545 314.748h432.84v283.016h-432.84z"/><path fill="#FFF" d="M691.394 383.936c-3.91.573-7.906.01-11.836.01h-13.5c-1.165 0-13.986-.02-13.98-.113.1-1.812.193-3.71.135-5.523 0-.007 6.07-.024 6.72-.024h18.3c4.676 0 9.31-.128 13.977-.2.186-.023.374.016.536.11.458.34.444 5.61.094 5.67-.15.025-.297.05-.446.07z"/><path fill="#FFF" d="M684.908 395.357c0 .5-.55.917-1.054 1.116-2.883 1.142-4.762.564-7.11-1.084l-.29-.2h-8.9l-.29.2c-2.94 2.062-4.3 1.77-7.635.42-.37-.15-.81-.42-.735-.81 6.984-2.49 11.367-9.425 10.62-16.8-1.146-9.384-6.214-17.947-6.81-27.37-.543-8.28 2.5-16.394 8.35-22.28 4.017-3.915 9.2 11.545 9.645 13.878 1.067 6.48.55 13.123-1.505 19.36-1.652 5.33-4.022 10.855-4.7 16.41-.445 2.9.017 5.87 1.325 8.5.92 1.67 2.113 3.173 3.53 4.448 1.077 1 4.037 4.045 5.527 3.987.022.072.033.147.03.222z"/><path fill="#FFF" d="M673.487 388.014c4.148 4.148 3.467 11.028-.314 15.222-.132.173-.308.307-.51.387-.354.05-.71-.065-.968-.31-4.502-3.277-5.494-9.583-2.217-14.085.315-.432.663-.838 1.042-1.215l1.48-1.483 1.487 1.484zm22.583-12.464c-.152-.164-.225-.386-.2-.608.064-.372.232-.72.485-1 .556-.846-.244-2.52-.688-3.29-.63-1.09-1.582-1.958-2.727-2.482-1.54-.8-3.378-.78-4.9.056-3.047 1.824-4.744 5.28-5.663 8.71-.45 1.178-.64 2.44-.556 3.7-1.527-.096-3.06-.1-4.59-.014.08-4.045 2.13-8.86 3.42-12.71 2.426-7.235 8.075-16.208 17.112-12.054 5.468 2.51 7.865 8.98 5.353 14.447-.62 1.35-1.51 2.56-2.615 3.553-.416.363-3.588 2.48-4.43 1.693zm-48.02.497l.117-.014c0-1.3-.8-2.176-.517-3.56.387-1.9 1.658-3.5 3.42-4.306 2.098-1.095 4.66-.73 6.367.91 2.61 2.172 3.5 5.733 4.244 9.046.248.813.416 1.65.5 2.494-.013-.618 5.034 1.352 4.474-.942-.964-4.394-2.256-8.71-3.864-12.912-1.43-3.47-3.56-8.07-6.667-10.377-2.752-2.043-6.886-1.91-9.875-.535-5.467 2.513-7.864 8.98-5.352 14.45.62 1.35 1.51 2.56 2.615 3.552 1.26 1.13 2.76 2.37 4.54 2.197zm43.344 188.73c-3.91.572-7.906.01-11.836.01h-13.5c-1.165 0-13.986-.02-13.98-.114.1-1.812.193-3.71.135-5.523 0-.007 6.07-.024 6.72-.024h18.3c4.676 0 9.31-.128 13.977-.2.186-.023.374.016.536.11.458.34.444 5.61.094 5.67-.15.025-.297.05-.446.07z"/><path fill="#FFF" d="M684.908 576.197c0 .5-.55.917-1.054 1.116-2.883 1.142-4.762.564-7.11-1.084l-.29-.2h-8.9l-.29.2c-2.94 2.062-4.3 1.77-7.635.42-.37-.15-.81-.42-.735-.81 6.984-2.49 11.367-9.425 10.62-16.8-1.146-9.384-6.214-17.947-6.81-27.37-.543-8.28 2.5-16.394 8.35-22.28 4.017-3.915 9.2 11.545 9.645 13.878 1.067 6.48.55 13.123-1.505 19.36-1.652 5.33-4.022 10.855-4.7 16.41-.445 2.9.017 5.87 1.325 8.5.92 1.67 2.113 3.173 3.53 4.448 1.077 1 4.037 4.045 5.527 3.987.022.072.033.147.03.222z"/><path fill="#FFF" d="M673.487 568.854c4.148 4.148 3.467 11.028-.314 15.222-.132.173-.308.307-.51.387-.354.05-.71-.065-.968-.31-4.502-3.277-5.494-9.583-2.217-14.085.315-.432.663-.838 1.042-1.215l1.48-1.483 1.487 1.484zm22.583-12.464c-.152-.165-.225-.387-.2-.61.064-.37.232-.718.485-1 .556-.845-.244-2.52-.688-3.29-.63-1.09-1.582-1.957-2.727-2.48-1.54-.8-3.378-.78-4.9.055-3.047 1.824-4.744 5.28-5.663 8.71-.45 1.178-.64 2.44-.556 3.7-1.527-.096-3.06-.1-4.59-.014.08-4.043 2.13-8.86 3.42-12.707 2.426-7.236 8.075-16.21 17.112-12.055 5.468 2.51 7.865 8.98 5.353 14.447-.62 1.35-1.51 2.56-2.615 3.553-.416.364-3.588 2.482-4.43 1.693zm-48.02.5l.117-.014c0-1.3-.8-2.176-.517-3.56.387-1.9 1.658-3.5 3.42-4.306 2.098-1.095 4.66-.73 6.367.91 2.61 2.172 3.5 5.733 4.244 9.046.248.813.416 1.65.5 2.494-.013-.618 5.034 1.352 4.474-.942-.964-4.394-2.256-8.71-3.864-12.912-1.43-3.47-3.56-8.07-6.667-10.377-2.752-2.045-6.886-1.91-9.875-.537-5.467 2.51-7.864 8.98-5.352 14.447.62 1.35 1.51 2.56 2.615 3.554 1.26 1.126 2.76 2.366 4.54 2.196zM430.5 383.936c-3.91.573-7.906.01-11.836.01h-13.5c-1.165 0-13.986-.02-13.98-.113.1-1.812.193-3.71.135-5.523 0-.007 6.07-.024 6.72-.024h18.3c4.674 0 9.31-.128 13.975-.2.186-.023.374.016.536.11.46.34.445 5.61.095 5.67-.148.025-.297.05-.446.07z"/><path fill="#FFF" d="M424.015 395.357c0 .5-.55.917-1.054 1.116-2.88 1.142-4.76.564-7.11-1.084l-.29-.2h-8.9l-.287.2c-2.94 2.062-4.3 1.77-7.636.42-.367-.15-.807-.42-.733-.81 6.984-2.49 11.367-9.425 10.62-16.8-1.146-9.384-6.214-17.947-6.81-27.37-.543-8.28 2.5-16.394 8.35-22.28 4.017-3.915 9.2 11.545 9.645 13.878 1.064 6.48.546 13.122-1.51 19.36-1.65 5.33-4.02 10.854-4.7 16.408-.445 2.902.018 5.87 1.326 8.5.92 1.67 2.113 3.174 3.53 4.45 1.077 1 4.037 4.044 5.527 3.986.023.072.034.147.033.223z"/><path fill="#FFF" d="M412.594 388.014c4.148 4.148 3.467 11.028-.314 15.222-.132.173-.308.307-.51.387-.354.05-.71-.065-.968-.31-4.502-3.277-5.494-9.583-2.217-14.085.315-.432.663-.838 1.042-1.215l1.483-1.483 1.484 1.484zm22.582-12.464c-.15-.164-.224-.386-.2-.608.065-.372.233-.72.486-1 .556-.846-.244-2.52-.688-3.29-.63-1.09-1.582-1.958-2.727-2.482-1.54-.8-3.378-.78-4.9.056-3.047 1.824-4.744 5.28-5.663 8.71-.45 1.178-.64 2.44-.556 3.7-1.53-.096-3.062-.1-4.592-.014.08-4.045 2.13-8.86 3.42-12.71 2.426-7.235 8.075-16.208 17.112-12.054 5.467 2.51 7.864 8.98 5.352 14.447-.62 1.35-1.51 2.56-2.615 3.553-.416.363-3.588 2.48-4.43 1.693zm-48.02.497l.118-.014c0-1.3-.8-2.176-.517-3.56.387-1.9 1.658-3.5 3.42-4.306 2.098-1.095 4.66-.73 6.367.91 2.61 2.172 3.5 5.733 4.244 9.046.246.813.413 1.65.5 2.494-.015-.618 5.032 1.352 4.472-.942-.964-4.394-2.256-8.71-3.864-12.912-1.428-3.47-3.56-8.07-6.666-10.377-2.752-2.043-6.886-1.91-9.875-.535-5.467 2.513-7.864 8.98-5.352 14.45.62 1.35 1.51 2.56 2.615 3.552 1.26 1.13 2.76 2.37 4.538 2.197zm43.344 188.73c-3.91.572-7.906.01-11.836.01h-13.5c-1.165 0-13.986-.02-13.98-.114.1-1.812.193-3.71.135-5.523 0-.007 6.07-.024 6.72-.024h18.3c4.674 0 9.31-.128 13.975-.2.186-.023.374.016.536.11.46.34.445 5.61.095 5.67-.148.025-.297.05-.446.07z"/><path fill="#FFF" d="M424.015 576.197c0 .5-.55.917-1.054 1.116-2.88 1.142-4.76.564-7.11-1.084l-.29-.2h-8.9l-.287.2c-2.94 2.062-4.3 1.77-7.636.42-.367-.15-.807-.42-.733-.81 6.984-2.49 11.367-9.425 10.62-16.8-1.146-9.384-6.214-17.947-6.81-27.37-.543-8.28 2.5-16.394 8.35-22.28 4.017-3.915 9.2 11.545 9.645 13.878 1.064 6.48.546 13.122-1.51 19.36-1.65 5.33-4.02 10.854-4.7 16.408-.445 2.902.018 5.87 1.326 8.5.92 1.67 2.113 3.174 3.53 4.45 1.077 1 4.037 4.044 5.527 3.986.023.072.034.147.033.223z"/><path fill="#FFF" d="M412.594 568.854c4.148 4.148 3.467 11.028-.314 15.222-.132.173-.308.307-.51.387-.354.05-.71-.065-.968-.31-4.502-3.277-5.494-9.583-2.217-14.085.315-.432.663-.838 1.042-1.215l1.483-1.483 1.484 1.484zm22.582-12.464c-.15-.165-.224-.387-.2-.61.065-.37.233-.718.486-1 .556-.845-.244-2.52-.688-3.29-.63-1.09-1.582-1.957-2.727-2.48-1.54-.8-3.378-.78-4.9.055-3.047 1.824-4.744 5.28-5.663 8.71-.45 1.178-.64 2.44-.556 3.7-1.53-.096-3.062-.1-4.592-.014.08-4.043 2.13-8.86 3.42-12.707 2.426-7.236 8.075-16.21 17.112-12.055 5.467 2.51 7.864 8.98 5.352 14.447-.62 1.35-1.51 2.56-2.615 3.553-.416.364-3.588 2.482-4.43 1.693zm-48.02.5l.118-.014c0-1.3-.8-2.176-.517-3.56.387-1.9 1.658-3.5 3.42-4.306 2.098-1.095 4.66-.73 6.367.91 2.61 2.172 3.5 5.733 4.244 9.046.246.813.413 1.65.5 2.494-.015-.618 5.032 1.352 4.472-.942-.964-4.394-2.256-8.71-3.864-12.912-1.428-3.47-3.56-8.07-6.666-10.377-2.752-2.045-6.886-1.91-9.875-.537-5.467 2.51-7.864 8.98-5.352 14.447.62 1.35 1.51 2.56 2.615 3.554 1.26 1.126 2.76 2.366 4.538 2.196zM500.54 314.748h80.853v283.016H500.54z"/><path fill="#FFF" d="M324.545 418.226h432.84v76.06h-432.84z"/><path opacity=".1" fill="#FFF" d="M757.346 597.76c-.087.76-40.77 0-43.084 0H400.885c-10.456 0-73.243 4.652-69.77-8.313l.008-.034c8.23-29.99 30.43-54.917 57.092-70.925 26.663-16.008 57.54-23.808 88.413-27.55 17.285-2.1 34.756-2.992 51.792-6.592 30.717-6.55 58.967-21.624 81.51-43.494 23.605-22.987 39.81-52.392 60.765-77.82 20.843-25.29 51.906-51.034 86.847-48.282-.008.2-.362 1.145-.156 1.538 1.127 2.14 0 44.306 0 53.852v96.31c0 8.14.043 130.58-.04 131.31z"/><path fill="#386BB4" d="M138.31 284.8l120.878-29.925 15.88 95.132-116.51 19.94"/><path fill="#FFF" stroke="#FFF" stroke-width="2" stroke-miterlimit="10" d="M208.934 267.317l19.21 90.712-24.974 4.18-18.94-88.778z"/><path fill="#FFF" stroke="#FFF" stroke-width="2" stroke-miterlimit="10" d="M269.15 314.55l-117.793 22.93-4.905-21.645 118.52-26.294z"/><path fill="none" stroke="#0C1238" stroke-width="3" stroke-miterlimit="10" d="M184.23 482.543l-45.72-201.766"/><path fill="#3E4166" d="M233.615 529.8c16.273 19.21 37.846 32.862 64.278 34.672 2.942.2 6.384.03 8.125-2.35 1.116-1.526 1.195-3.556 1.126-5.444-.483-13.3-6.154-25.993-13.88-36.83-6.34-8.892-15.276-15.493-21.735-24.065-4.828-6.4-6.7-13.8-13.25-19.184-5.52-4.54-12.85-7.233-16.573-13.333-2.026-3.32-2.708-7.26-3.935-10.95-2.448-7.36-25.5-21.888-33.08-14.547-4.928 4.772-6.3 8.472-5.21 15.244 4.29 26.682 15.876 55.233 34.132 76.786z"/><path fill="#3E4166" d="M166.864 411.398c-2.763 3.836-3.817 8.643-2.915 13.284 1.1 6.106 4.722 11.43 8.5 16.356 10.444 13.792 22.947 25.898 37.07 35.893 3.822 2.674 8 5.25 12.66 5.516 23.69 1.347 19.22-35.142 16.283-48.28-1.1-4.938-2.758-9.96-6.24-13.63-9.888-10.424-32.972-10.632-46.092-12.988-5.322-.956-11.16-1.83-15.85.863-1.322.766-2.483 1.78-3.417 2.99z"/><path fill="#2F3155" d="M215.85 508.8c-5.753-9.6-10.22-19.913-13.284-30.676-2.908-10.25-11.926-16.445-18.94-23.78-2.4-2.508-15.612-17.99-4.437-16.94 13.74 1.29 29.446 10.47 35.073 23.615 5.208 12.166 6.832 21.812 15.873 32.725 14.62 17.65 29.24 33.543 40.148 54.168.023 3.22-4.812 3.42-7.824 2.283-19.72-7.44-35.59-23.044-46.61-41.396zm268.516 8.923c1.265 3.41 2.852 6.69 4.738 9.8.544.97 1.217 1.863 2 2.654 1.715 1.616 4.107 2.247 6.393 2.82 6.247 1.626 12.865 1.022 18.714-1.708.923-.583 1.993-.886 3.08-.874 4.863.663-.877 10.4-1.935 12.25-12.447 21.81-50.535 15.023-66.075 2.8"/><path fill="#0C1238" d="M333.03 538.04l2 24.312c1.02 12.4 4.512 25.89-.4 37.388-.472 1.105-.968 4.622-1.847 5.44-1.342 1.25-3.3 1.516-5.12 1.723-4.656.528-24.7.974-26.823-4.745-1.636-4.4 2.163-7.8 3-11.758.816-4.118-.074-8.39-2.467-11.84l-33.045-44.827m80.838 4.157l48.242 44.36c4.054 3.727 1.706 11.647-2.17 15.56-2.06 2.08-2.048 5.434.03 7.496.914.908 2.128 1.45 3.414 1.53 7.89 0 16.353 2.07 24.12-.1 8.955-2.51 9.04-11.913 10.763-19.707l9.647-43.658"/><path fill="#7581CE" d="M264.807 477.37c.567 2.9-3.374 4.21-6.187 5.13-23.965 7.83-14.6 37.59-7.743 54.48 11.228 27.66 46.375 29.678 72.73 32.064 55.26 5 121.634 10.285 148.592-49.544"/><path fill="#3E4166" d="M314 540.01l2 24.312c1.02 12.4 4.512 25.89-.4 37.388-.396 1.138-1.025 2.18-1.847 3.063-1.342 1.25-3.3 1.515-5.12 1.722-4.656.528-24.7 3.352-26.823-2.367-1.635-4.4 2.16-7.8 3-11.756 3.042-14.406-14.184-31.1-20.394-43.148-9.092-17.628-15.962-36.315-20.453-55.634M384.7 538.732l60.442 48.042c8.363 6.577-4.334 9.52-3.316 16.765 1.234 8.777 8.446 6.1 22.157 5.49 15.02-.666 22.258-10.7 20.483-21.22-1.722-10.2-3.78-12.79-5.86-23.756-3.347-17.652-4.316-35.3-7.664-52.955-.022-.117-2.422-.234-2.444-.35"/><path fill="#2F3155" d="M444.4 517.932c4.478 2.785 8.8 5.854 13.1 8.907 15.576 11.063-1.3 16.91-8.92 24.415-1.73 1.7-2.98 4.13-2.528 6.513.993 5.25 9.292 7.57 8.59 12.866-.376 2.834-3.417 4.88-3.437 7.74-.025 3.567 4.293 5.23 7.724 6.206s7.55 3.665 6.4 7.043c-.383.94-1.01 1.76-1.817 2.374-4.09 3.478-10.013 4.716-13.234 9.22-1.356 1.9-.3 4.372-3.26 5.118-2.187.552-4.576-1.59-5.02-3.605-.6-2.72.844-5.48 2.614-7.63 7.043-8.554-1.88-11.477-7.982-16.56-8.292-6.91-16.77-13.59-25.433-20.043-2.987-2.224-5.91-4.645-6.75-8.436-.99-4.487.507-6.75-3.778-10.374-8.035-6.796-18.133-10.544-28.5-11.842-12.93-1.62-34.388 9.354-43.91-3.415-20.95-28.1 61.242-22.778 73.725-21.578 9.49.912 19.038 2.28 27.943 5.69 5.048 1.996 9.893 4.47 14.47 7.386z"/><path fill="#A3B3EF" d="M428.88 408.322c11.355 8.278 21.074 18.593 28.664 30.42 7.092 11.127 12.387 23.36 16.675 35.81 1.86 5.407 4.243 11.15 5.4 16.712 1.19 5.747.38 10.985 5.29 15.37.92.822 1.96 1.513 2.806 2.413 8.83 9.387-1.66 21.357-9.677 26.413-21.847 13.78-53.61 16.335-78.85 18.972-43.206 4.514-87.86 1.533-125.076-23.51-20.144-13.555-51.893-39.017-35.853-65.852 2.678-4.478 7.274-7.043 10.657-10.866 3.35-3.786 5.876-7.99 9.3-11.818 8.3-9.282 15.73-19.308 24.283-28.367 37.976-40.237 103.506-37.107 146.38-5.7z"/><path fill="#7581CE" d="M291.018 518.745c-9.428-3.62-17.99-9.18-25.13-16.323-7.08-7.705-10.2-18.253-8.447-28.57.446-2.56 1.293-5.035 2.51-7.33 1.234-2.288 2.826-4.364 4.716-6.15 1.873-1.723 3.923-3.244 6.117-4.535 2.155-1.284 4.38-2.445 6.668-3.476 2.346-1.133 4.914-1.733 7.52-1.753 1.33.056 2.64.36 3.86.9 1.173.52 2.295 1.152 3.35 1.884 2.065 1.437 4.017 2.935 5.956 4.5s3.86 3.144 5.664 4.873c3.653 3.45 6.683 7.505 8.955 11.987 1.085 2.28 1.953 4.656 2.59 7.1.172.61.286 1.234.4 1.86.127.624.217 1.255.27 1.89.112 1.27.133 2.55.06 3.823-.16 5.226-2.195 10.22-5.734 14.07-1.83 2.005-4.22 3.41-6.864 4.034-1.376.274-2.796.242-4.158-.093-1.296-.317-2.547-.792-3.727-1.415-2.25-1.23-4.35-2.71-6.262-4.418-.95-.847-1.853-1.75-2.7-2.7-.867-.932-1.675-1.917-2.446-2.93-1.525-2.048-2.812-4.262-3.835-6.6-1.14-2.397-1.653-5.045-1.487-7.694.083-1.375.435-2.72 1.036-3.957 1.337-2.65 4.25-4.115 7.177-3.61 1.345.243 2.63.744 3.783 1.477 2.216 1.445 4.055 3.4 5.364 5.7 1.334 2.28 2.154 4.827 2.4 7.46l-2.355.18c-.2-2.293-.9-4.515-2.047-6.51-1.108-1.988-2.672-3.686-4.564-4.952-1.848-1.186-4.084-1.68-5.752-.76-1.7.856-2.416 2.948-2.477 5.112-.043 2.244.4 4.47 1.3 6.527.914 2.177 2.062 4.25 3.423 6.178 2.764 3.872 6.388 7.052 10.587 9.288 1.878 1.216 4.117 1.748 6.34 1.507 1.095-.188 2.144-.58 3.092-1.16.967-.612 1.853-1.345 2.636-2.18 3.148-3.493 4.94-8 5.052-12.7.05-2.352-.093-4.704-.428-7.033-.31-2.364-1.062-4.65-2.22-6.733-2.382-4.164-5.396-7.933-8.933-11.174-1.685-1.743-3.475-3.38-5.36-4.9-1.9-1.5-3.924-2.95-5.908-4.273-1.786-1.346-3.903-2.182-6.127-2.42-1.105-.068-2.21.043-3.28.328-.558.14-1.107.31-1.646.51-.538.22-1.07.47-1.6.735-1.057.526-2.1 1.13-3.137 1.764l-3.124 1.84c-2.065 1.18-4.01 2.556-5.813 4.11-.892.764-1.69 1.632-2.38 2.584-.37.455-.7.94-.99 1.45-.327.487-.62.997-.874 1.525-1.174 2.064-2.014 4.303-2.487 6.63-.51 2.354-.678 4.767-.5 7.168.202 2.405.68 4.778 1.427 7.073 1.548 4.57 4.03 8.763 7.29 12.318 1.566 1.84 3.27 3.558 5.1 5.138 1.828 1.604 3.815 3.016 5.93 4.214 4.176 2.51 8.56 4.656 13.106 6.412l-.882 2.197zm46.644-53.315c-4.132-.473-8.193-1.432-12.1-2.858-2.03-.596-4.003-1.373-5.894-2.32-.94-.514-1.846-1.08-2.718-1.7-.872-.636-1.7-1.327-2.48-2.07-3.108-3.03-5.37-6.82-6.56-10.99-.622-2.1-.842-4.3-.65-6.482.195-2.224.954-4.362 2.207-6.21 1.253-1.825 2.982-3.273 5-4.185 1.94-.9 4.017-1.47 6.144-1.69 2.09-.19 4.197-.107 6.266.243 2.052.316 4.082.755 6.082 1.312 3.9 1.33 7.675 3 11.283 4.99.92.46 1.876.863 2.776 1.367.912.484 1.775 1.05 2.647 1.6 1.733 1.118 3.43 2.3 5.058 3.57l.32.25.063.428c.294 2.306-.26 4.64-1.56 6.567-1.253 1.92-3.06 3.41-5.184 4.277-2.08.713-4.28 1.017-6.478.892-2.093-.08-4.18-.28-6.25-.6-1.02-.156-2.023-.3-3.062-.493-1.063-.174-2.107-.45-3.116-.826-2.12-.803-3.955-2.22-5.267-4.07-.66-.964-1.11-2.056-1.315-3.206-.1-.61-.1-1.234 0-1.844.1-.67.367-1.304.778-1.843.826-1.074 2.085-1.73 3.44-1.79 1.433-.086 2.81.57 3.645 1.737l-1.952 1.33c-.37-.517-.982-.8-1.615-.75-.674.025-1.304.343-1.724.872-.193.247-.317.542-.358.854-.065.37-.07.75-.013 1.124.138.825.464 1.607.95 2.286 1.046 1.433 2.573 2.44 4.3 2.837 1.875.545 3.782.967 5.71 1.264 1.937.4 3.9.645 5.876.734 1.88.08 3.756-.198 5.532-.817 1.736-.585 3.248-1.697 4.324-3.18 1.026-1.48 1.443-3.3 1.166-5.08l.427.76c-1.6-1.207-3.28-2.3-4.947-3.407l-2.534-1.6c-.825-.566-1.6-1.217-2.458-1.75-3.486-1.987-7.415-3.143-11.113-4.385-3.657-1.38-7.58-1.892-11.47-1.5-1.88.085-3.72.576-5.394 1.437-.398.222-.773.482-1.12.776-.355.27-.694.56-1.017.87-.658.596-1.26 1.25-1.796 1.957-1.16 1.447-1.843 3.22-1.953 5.072-.015.47-.053.935-.03 1.41-.023.475-.017.952.02 1.427.015.482.063.963.144 1.438.057.483.144.963.262 1.435.962 3.847 3.107 7.294 6.133 9.856 1.493 1.273 3.11 2.394 4.826 3.346 1.69 1.03 3.468 1.91 5.312 2.628 3.836 1.142 7.768 1.932 11.747 2.36l-.312 2.34zm15.168 56.237c-3.502.598-7.095.364-10.49-.68-3.39-1.043-6.568-2.68-9.382-4.84-2.773-2.352-4.807-5.455-5.86-8.935-.992-3.4-1.332-6.956-1-10.482.137-1.74.408-3.467.81-5.165.438-1.708 1.045-3.368 1.815-4.954.79-1.6 1.8-3.08 3.005-4.4 1.236-1.297 2.69-2.367 4.3-3.16 1.582-.784 3.265-1.35 5-1.68 1.722-.296 3.475-.366 5.215-.207 3.44.372 6.784 1.363 9.872 2.924 3.006 1.608 5.83 3.537 8.42 5.754l1.94 1.626 2.01 1.58c.665.557 1.3 1.15 1.9 1.778.59.65 1.137 1.335 1.638 2.055 1.095 1.47 1.84 3.17 2.18 4.97.34 1.99-.26 4.026-1.624 5.514-1.353 1.34-3.057 2.268-4.916 2.675-1.69.41-3.41.69-5.14.843-1.717.114-3.438.14-5.156.075-1.717-.072-3.426-.216-5.133-.38-1.726-.167-3.437-.46-5.12-.878-1.795-.403-3.473-1.212-4.905-2.366-1.5-1.252-2.472-3.024-2.724-4.96-.15-.996-.035-2.014.335-2.95.39-.933 1.01-1.752 1.8-2.382 1.55-1.11 3.406-1.708 5.31-1.71 1.763-.058 3.526.074 5.26.393l-.443 2.32c-1.563-.31-3.154-.45-4.746-.418-1.43-.033-2.832.38-4.016 1.182-1.01.757-1.513 2.02-1.3 3.265.28 1.314 1.042 2.476 2.136 3.256 1.208.847 2.552 1.48 3.974 1.873 1.552.42 3.13.738 4.722.953 3.24.448 6.52.534 9.78.255 1.622-.063 3.237-.25 4.832-.55.75-.15 1.483-.383 2.18-.7.636-.316 1.21-.747 1.688-1.27.91-1.013 1.29-2.396 1.023-3.73-.308-1.465-.94-2.84-1.848-4.03-.9-1.272-2.026-2.394-3.04-3.645-1.107-1.233-2.348-2.338-3.7-3.295-2.627-1.94-5.41-3.658-8.323-5.138-1.377-.81-2.837-1.47-4.356-1.965-3.042-.848-6.227-1.052-9.352-.6-.385.055-.764.14-1.148.207-.374.1-.75.2-1.12.31-.36.138-.736.238-1.084.4-.34.184-.692.34-1.01.555-2.583 1.67-4.718 3.95-6.22 6.64-.75 1.414-1.298 2.93-1.625 4.5-.443 1.567-.764 3.167-.962 4.784-.44 3.245-.107 6.548.97 9.64 1.093 3.02 2.96 5.698 5.41 7.77.582.55 1.192 1.068 1.827 1.553.667.443 1.307.935 2.02 1.313.69.42 1.412.783 2.158 1.09.756.28 1.53.512 2.314.693 1.55.398 3.137.643 4.736.73 1.588.066 3.178-.045 4.742-.328l.415 2.322zm-45.53 1.828c1.853.6 3.722 1.147 5.563 1.794 1.81.76 3.816.83 5.714 1.247 1.916.36 3.8.85 5.68 1.342 1.9.42 3.796.875 5.7 1.266l2.878.515 2.87.585c1.924.313 3.848.654 5.77 1.025.965.17 1.943.22 2.916.31s1.943.227 2.916.33l2.92.3c.973.09 1.952.1 2.93.148 1.954.048 3.905.226 5.86.287 1.957.16 3.918-.33 5.87-.246l5.856-.244c1.952-.1 3.9-.315 5.847-.41l2.93-.082c.977-.017 1.955-.05 2.926-.157 1.945-.2 3.88-.467 5.833-.59 3.93-.028 7.764-.94 11.617-1.576l.353 2.336-5.848.885-2.932.39c-.976.146-1.942.38-2.916.56-3.928.425-7.886.468-11.823.71l-2.965-.055c-.987-.008-1.97.065-2.955.137-1.97.088-3.94.285-5.915.355-.99.068-1.983.02-2.96-.14-.487-.108-.982-.17-1.48-.184l-1.48.047c-1.973.062-3.96.276-5.935.178-.985-.108-1.96-.344-2.948-.375l-2.962-.142c-.983-.105-1.97-.176-2.948-.322-.973-.18-1.958-.287-2.947-.32-.992.017-1.983-.057-2.96-.22-.98-.15-1.938-.442-2.9-.653-.483-.116-.963-.247-1.45-.325s-.98-.12-1.465-.222c-.966-.21-1.922-.478-2.877-.737-1.9-.54-3.84-.94-5.8-1.19-1.938-.363-3.89-.685-5.823-1.1-1.857-.677-3.763-1.217-5.7-1.613-1.914-.49-3.818-1.03-5.712-1.6l.752-2.24z" opacity=".5"/><path fill="#FFF" d="M244.606 281.463c-1.21.354-2.444.62-3.692.794l-4.212.9c-.363.078-4.365.927-4.37.9-.09-.572-.186-1.17-.326-1.732 0 0 1.892-.413 2.1-.456l5.71-1.224c1.458-.312 2.9-.66 4.347-1 .057-.02.118-.02.175 0 .26.552.4 1.153.408 1.763l-.14.052z"/><path fill="#FFF" d="M243.345 285.46c.032.154-.11.322-.254.418-.67.493-1.565.547-2.29.136l-.1-.044-2.776.594-.077.083c-.78.84-1.222.84-2.354.64-.125-.02-.28-.076-.283-.2 2.01-1.242 2.916-3.698 2.19-5.95-.984-2.85-3.137-5.183-3.952-8.083-.722-2.547-.315-5.283 1.118-7.51.99-1.49 3.643 2.988 3.935 3.686.767 1.95 1.05 4.058.825 6.14-.282 1.798-.406 3.616-.37 5.434.054.936.396 1.832.98 2.565.4.46.872.847 1.4 1.15.4.24 1.53.992 1.99.875.01.02.017.04.02.063z"/><path fill="#FFF" d="M239.292 283.93c1.5 1.11 1.9 3.183.918 4.77-.03.063-.076.117-.134.155-.107.04-.225.027-.322-.032-1.623-.722-2.353-2.624-1.63-4.247.068-.155.15-.305.242-.447l.364-.564.562.363zm6.208-5.396c-.057-.042-.093-.106-.1-.176-.005-.12.025-.24.085-.345.117-.3-.244-.77-.434-.98-.267-.298-.622-.505-1.014-.592-.534-.145-1.105-.016-1.524.346-.777.843-1.2 1.953-1.184 3.1-.062.397-.037.803.073 1.19-.484.072-.962.172-1.434.3-.122-1.4-.05-2.813.218-4.194.274-2.42 1.437-5.6 4.534-4.9 1.873.42 3.052 2.28 2.633 4.152-.102.462-.3.897-.577 1.28-.104.14-.952 1.012-1.272.822zm-14.944 3.362l.036-.012c-.086-.4-.4-.625-.4-1.076-.006-.618.283-1.202.78-1.572.58-.482 1.404-.538 2.046-.14.902.613 1.58 1.504 1.928 2.538.13.237.24.487.322.745-.046-.194 1.66.084 1.332-.594-.594-1.306-1.286-2.567-2.068-3.77-.68-1.146-1.632-2.105-2.773-2.792-1.056-.387-2.235-.2-3.12.492-1.537 1.148-1.854 3.326-.706 4.865.284.38.643.7 1.055.936.446.34 1.013.476 1.565.38zm27.11 59.594c-1.23.275-2.48.46-3.737.554l-4.264.628c-.368.054-4.416.644-4.418.614-.054-.576-.112-1.18-.215-1.75l2.12-.32 5.777-.85c1.476-.218 2.932-.474 4.4-.714.058-.016.12-.012.174.01.223.568.323 1.177.293 1.786l-.135.042z"/><path fill="#FFF" d="M256.15 345.39c.02.157-.132.315-.282.4-.7.45-1.6.445-2.295-.012l-.1-.05-2.81.413-.082.08c-.83.787-1.272.757-2.39.487-.122-.03-.273-.095-.27-.22 2.09-1.112 3.154-3.506 2.573-5.8-.8-2.91-2.8-5.377-3.422-8.323-.556-2.59.027-5.292 1.6-7.42 1.086-1.424 3.443 3.214 3.69 3.93.638 1.997.784 4.118.425 6.183-.398 1.775-.64 3.582-.72 5.4-.007.937.277 1.854.813 2.623.368.483.815.903 1.322 1.24.385.265 1.46 1.088 1.93 1 .01.022.016.046.02.07z"/><path fill="#FFF" d="M252.2 343.606c1.427 1.203 1.69 3.3.61 4.82-.034.06-.084.11-.144.145-.11.034-.227.014-.32-.05-1.573-.827-2.18-2.77-1.353-4.345.08-.15.17-.294.27-.43l.4-.537.537.4zm6.55-4.984c-.055-.045-.09-.11-.092-.183.003-.123.04-.24.107-.34.136-.294-.194-.785-.37-1.007-.25-.315-.59-.545-.976-.657-.525-.18-1.104-.09-1.545.245-.83.79-1.324 1.87-1.382 3.013-.086.393-.086.8 0 1.193-.487.04-.97.11-1.45.21-.03-1.407.133-2.81.488-4.172.43-2.4 1.8-5.492 4.84-4.6 1.844.54 2.9 2.47 2.36 4.313-.132.454-.356.876-.66 1.24-.116.138-1.02.954-1.32.744zm-15.134 2.39l.037-.01c-.06-.41-.354-.65-.33-1.1.035-.617.362-1.18.88-1.518.61-.443 1.437-.447 2.052-.01.86.672 1.478 1.605 1.76 2.66.116.244.207.5.274.763-.036-.194 1.65.193 1.366-.505-.508-1.344-1.117-2.647-1.82-3.9-.604-1.187-1.493-2.206-2.587-2.965-1.028-.454-2.217-.344-3.143.29-1.61 1.048-2.064 3.2-1.016 4.81.26.397.596.736.99.998.42.37.978.545 1.535.487zm-71.14-42.035c-1.117.393-2.263.704-3.426.93l-3.91 1.06c-.338.09-4.054 1.09-4.06 1.063-.112-.532-.234-1.09-.393-1.61l1.945-.534 5.3-1.435c1.354-.365 2.686-.765 4.032-1.152.052-.02.11-.025.164-.01.272.505.432 1.063.472 1.635l-.123.055z"/><path fill="#FFF" d="M171.494 302.79c.038.144-.088.31-.218.406-.604.497-1.445.593-2.145.243l-.1-.038-2.576.7-.068.08c-.69.83-1.106.85-2.18.72-.117-.013-.266-.057-.275-.176 1.83-1.27 2.555-3.622 1.76-5.7-1.068-2.628-3.208-4.71-4.12-7.393-.806-2.356-.56-4.945.673-7.108.856-1.45 3.57 2.622 3.88 3.263.818 1.793 1.19 3.757 1.083 5.725-.175 1.702-.2 3.415-.075 5.12.1.877.467 1.7 1.05 2.36.4.412.863.754 1.374 1.012.39.206 1.486.855 1.913.722.013.018.022.038.028.06z"/><path fill="#FFF" d="M167.61 301.562c1.465.966 1.943 2.895 1.1 4.434-.025.06-.065.113-.118.152-.097.04-.207.035-.3-.014-1.56-.596-2.343-2.345-1.746-3.905.057-.15.126-.297.206-.436l.313-.546.545.312zm5.564-5.382c-.057-.035-.096-.093-.107-.16-.01-.112.01-.226.062-.327.093-.288-.27-.71-.46-.9-.267-.266-.61-.443-.983-.505-.51-.11-1.04.04-1.414.4-.687.83-1.03 1.892-.957 2.967-.038.376.006.756.13 1.114-.45.09-.896.21-1.332.354-.185-1.31-.187-2.64-.006-3.95.135-2.285 1.067-5.327 4.01-4.832 1.78.3 2.98 1.987 2.68 3.767-.075.44-.238.86-.48 1.232-.088.138-.84 1-1.146.838zm-13.874 3.91l.033-.013c-.1-.375-.4-.567-.43-.99-.036-.58.207-1.143.654-1.515.522-.482 1.293-.576 1.916-.235.878.53 1.558 1.334 1.938 2.287.137.216.25.445.34.683-.05-.178 1.566 0 1.223-.623-.624-1.197-1.337-2.346-2.132-3.437-.694-1.042-1.637-1.895-2.743-2.483-1.01-.31-2.106-.075-2.9.62-1.386 1.156-1.573 3.217-.416 4.603.286.342.638.622 1.035.823.435.296.973.397 1.486.28zm25.312 54.44c-1.186.345-2.396.603-3.62.773l-4.13.878c-.356.078-4.28.9-4.284.876-.087-.56-.182-1.147-.318-1.7l2.054-.444 5.6-1.19c1.43-.3 2.84-.643 4.262-.97.055-.018.116-.018.17 0 .256.542.392 1.132.4 1.73l-.134.05z"/><path fill="#FFF" d="M183.37 358.445c.032.152-.108.316-.25.41-.656.483-1.535.534-2.244.13l-.1-.042-2.723.58-.075.08c-.765.823-1.2.82-2.308.625-.122-.022-.274-.076-.277-.2 1.974-1.215 2.864-3.62 2.156-5.83-.96-2.8-3.07-5.084-3.864-7.927-.704-2.495-.3-5.175 1.106-7.355.974-1.46 3.566 2.932 3.852 3.617.748 1.914 1.022 3.98.8 6.02-.28 1.76-.403 3.543-.37 5.325.05.917.386 1.796.957 2.515.39.45.854.833 1.37 1.13.394.237 1.5.976 1.95.86.01.02.016.043.02.065z"/><path fill="#FFF" d="M179.4 356.94c1.47 1.09 1.858 3.124.893 4.677-.03.06-.074.114-.13.15-.106.04-.222.027-.317-.03-1.59-.712-2.302-2.577-1.59-4.167.066-.15.146-.296.236-.434l.357-.55.55.355zm6.1-5.28c-.057-.04-.093-.103-.1-.172-.004-.118.025-.235.084-.338.115-.295-.238-.755-.424-.96-.264-.295-.614-.498-1-.583-.523-.144-1.083-.02-1.494.335-.762.824-1.18 1.91-1.166 3.032-.06.39-.037.788.07 1.167-.474.073-.943.17-1.405.297-.118-1.374-.044-2.757.22-4.11.272-2.37 1.416-5.483 4.45-4.8 1.837.414 2.99 2.237 2.575 4.073-.102.45-.295.877-.567 1.252-.105.138-.937.996-1.243.81zm-14.658 3.275l.035-.012c-.084-.4-.387-.614-.39-1.055-.005-.606.28-1.177.766-1.54.57-.472 1.378-.528 2.007-.138.883.603 1.545 1.477 1.886 2.49.128.234.234.478.315.73-.043-.187 1.63.087 1.308-.578-.58-1.282-1.256-2.52-2.02-3.7-.665-1.124-1.597-2.065-2.714-2.74-1.032-.38-2.188-.2-3.055.478-1.51 1.125-1.82 3.26-.696 4.768.277.37.627.682 1.028.914.436.335.99.474 1.532.383z"/></svg>