<svg xmlns="http://www.w3.org/2000/svg" width="20" height="18" viewBox="0 0 20 18"><path fill="#31373D" fill-rule="evenodd" d="M19 4c.552 0 1 .447 1 1v12c0 .553-.448 1-1 1H3c-1.654 0-3-1.346-3-3V3v-.044c.012-.694.26-1.365.714-1.9C1.286.387 2.12 0 3 0h14c.552 0 1 .447 1 1v3h1zM2.238 2.353c-.194.227-.273.52-.224.823.076.462.556.824 1.093.824H16V2H3c-.294 0-.572.13-.762.353zM18 12v-2h-2c-.45.012-1 .194-1 1s.55.988 1.012 1H18zM3 16h15v-2h-2c-1.206 0-3-.8-3-3s1.794-3 3-3h2V6H3.107C2.72 6 2.347 5.93 2 5.802V15c0 .552.45 1 1 1z"/></svg>